<?xml version="1.0" encoding="UTF-8"?>
<svg xmlns="http://www.w3.org/2000/svg" xmlns:xlink="http://www.w3.org/1999/xlink" width="128pt" height="157pt" viewBox="0 0 128 157" version="1.1">
<g id="surface1">
<path style=" stroke:none;fill-rule:nonzero;fill:rgb(100%,100%,100%);fill-opacity:1;" d="M 97.695312 156.996094 L 97.695312 111.402344 L 111.253906 111.402344 L 111.253906 156.996094 L 97.695312 156.996094 M 118.03125 111.402344 L 128 111.402344 L 128 156.996094 L 118.03125 156.996094 L 118.03125 111.402344 M 0 111.402344 L 9.96875 111.402344 L 9.96875 156.996094 L 0 156.996094 L 0 111.402344 M 49.445312 124.089844 L 32.300781 124.089844 L 32.300781 156.996094 L 16.347656 156.996094 L 16.347656 111.402344 L 90.914062 111.402344 L 90.914062 156.996094 L 49.445312 156.996094 L 49.445312 124.089844 M 64.199219 25.378906 C 67.65625 25.378906 70.976562 26.300781 74.167969 28.152344 L 80.546875 36.082031 L 80.546875 0.00390625 C 94.371094 3.707031 105.667969 11.105469 114.441406 22.207031 C 123.480469 33.835938 128 46.917969 128 61.453125 L 128 96.339844 L 0 96.339844 L 0 61.453125 C 0 46.917969 4.386719 33.835938 13.160156 22.207031 C 22.199219 11.105469 33.628906 3.707031 47.453125 0.00390625 L 47.453125 36.082031 L 53.832031 28.152344 L 64.199219 25.378906 M 80.546875 50.75 C 77.359375 57.886719 71.910156 61.453125 64.199219 61.453125 L 53.832031 58.679688 L 47.453125 50.75 L 47.453125 82.464844 L 80.546875 82.464844 L 80.546875 50.75 "/>
</g>
</svg>
