<?xml version="1.0" encoding="UTF-8"?>
<svg xmlns="http://www.w3.org/2000/svg" xmlns:xlink="http://www.w3.org/1999/xlink" width="128pt" height="168pt" viewBox="0 0 128 168" version="1.1">
<g id="surface1">
<path style=" stroke:none;fill-rule:nonzero;fill:rgb(100%,100%,100%);fill-opacity:1;" d="M 99.285156 60.851562 L 89.140625 60.851562 L 89.140625 68.347656 L 39.300781 68.347656 L 39.300781 60.851562 L 28.714844 60.851562 L 26.070312 67.023438 L 15.042969 131.402344 C 14.75 134.636719 15.632812 137.28125 17.691406 139.339844 C 19.160156 141.394531 21.511719 142.425781 24.746094 142.425781 L 36.214844 142.425781 L 36.214844 128.757812 L 54.738281 128.757812 L 54.738281 127.875 L 57.382812 121.261719 C 59.148438 119.496094 61.207031 118.613281 63.558594 118.613281 C 66.5 118.613281 68.851562 119.496094 70.617188 121.261719 L 73.703125 127.875 L 73.703125 128.757812 L 91.785156 128.757812 L 91.785156 142.425781 L 102.8125 142.425781 L 110.308594 139.339844 C 112.074219 137.28125 112.664062 134.636719 112.074219 131.402344 L 101.488281 67.023438 L 99.285156 60.851562 M 74.144531 6.613281 C 77.085938 11.023438 78.996094 16.316406 79.878906 22.488281 L 101.046875 22.488281 L 101.046875 29.101562 L 96.636719 29.101562 L 96.636719 41.449219 C 100.167969 42.917969 103.253906 44.828125 105.898438 47.179688 C 111.488281 51.882812 114.722656 57.765625 115.601562 64.820312 L 126.628906 129.636719 C 127.511719 137.28125 125.746094 143.601562 121.335938 148.597656 C 118.691406 151.242188 115.308594 153.449219 111.191406 155.210938 L 111.191406 168 L 15.925781 168 L 15.925781 155.210938 L 6.664062 148.597656 C 2.253906 143.308594 0.488281 136.988281 1.371094 129.636719 L 11.515625 64.820312 C 12.691406 57.46875 16.074219 51.589844 21.660156 47.179688 L 31.363281 41.449219 L 31.363281 29.101562 L 26.511719 29.101562 L 26.511719 22.488281 L 48.121094 22.488281 C 49.003906 16.609375 50.914062 11.316406 53.855469 6.613281 C 57.089844 2.203125 60.472656 0 64 0 C 67.824219 0 71.203125 2.203125 74.144531 6.613281 "/>
</g>
</svg>
