<?xml version="1.0" encoding="UTF-8"?>
<svg xmlns="http://www.w3.org/2000/svg" xmlns:xlink="http://www.w3.org/1999/xlink" width="128pt" height="120pt" viewBox="0 0 128 120" version="1.1">
<g id="surface1">
<path style=" stroke:none;fill-rule:nonzero;fill:rgb(100%,100%,100%);fill-opacity:1;" d="M 54.015625 55.5625 L 45.503906 55.5625 L 45.503906 83.832031 L 54.015625 83.832031 L 54.015625 55.5625 M 110.320312 78.574219 L 102.136719 78.574219 L 102.136719 95.011719 L 110.320312 95.011719 L 110.320312 78.574219 M 94.9375 95.011719 L 94.9375 78.574219 L 86.75 78.574219 L 86.75 95.011719 L 94.9375 95.011719 M 69.074219 55.5625 L 61.21875 55.5625 L 61.21875 83.832031 L 69.074219 83.832031 L 69.074219 55.5625 M 86.75 47.34375 L 80.203125 47.34375 L 80.203125 68.710938 L 99.519531 50.300781 L 128 76.929688 L 121.125 76.929688 L 121.125 119.996094 L 111.304688 119.996094 L 111.304688 104.542969 L 103.121094 104.542969 L 103.121094 119.996094 L 62.855469 119.996094 L 62.855469 97.640625 L 54.671875 97.640625 L 54.671875 119.996094 L 31.101562 119.996094 L 31.101562 99.613281 L 18.003906 99.613281 L 18.003906 119.996094 L 6.875 119.996094 L 6.875 89.421875 L 0 89.421875 L 36.664062 56.546875 L 36.664062 47.34375 L 30.117188 47.34375 L 42.230469 30.90625 L 42.230469 0.00390625 L 47.140625 0.00390625 L 47.140625 24.003906 L 58.597656 8.882812 L 86.75 47.34375 "/>
</g>
</svg>
