<?xml version="1.0" encoding="UTF-8"?>
<svg xmlns="http://www.w3.org/2000/svg" xmlns:xlink="http://www.w3.org/1999/xlink" width="127pt" height="68pt" viewBox="0 0 127 68" version="1.1">
<g id="surface1">
<path style=" stroke:none;fill-rule:nonzero;fill:rgb(100%,100%,100%);fill-opacity:1;" d="M 61.992188 58.902344 L 36.523438 58.902344 L 34.515625 60.582031 L 36.523438 62.601562 L 61.992188 62.601562 L 64.003906 60.582031 L 61.992188 58.902344 M 127 29.289062 C 127 31.53125 123.089844 32.765625 115.273438 32.992188 L 113.597656 36.691406 C 117.171875 40.058594 120.96875 41.851562 124.988281 42.074219 C 119.851562 47.234375 114.824219 49.925781 109.910156 50.152344 C 107.453125 50.601562 104.996094 49.140625 102.539062 45.777344 C 94.273438 50.265625 84.109375 53.742188 72.042969 56.207031 L 72.042969 61.257812 L 70.371094 65.628906 C 69.027344 67.199219 67.578125 67.984375 66.011719 67.984375 L 36.523438 67.984375 L 33.175781 66.640625 L 30.828125 61.257812 L 27.8125 54.191406 C 16.195312 49.925781 8.9375 43.644531 6.03125 35.347656 C 2.011719 34 0 31.980469 0 29.289062 C 0 26.371094 2.011719 24.355469 6.03125 23.230469 C 8.265625 16.503906 13.402344 10.894531 21.445312 6.40625 C 29.933594 2.144531 39.429688 0.015625 49.929688 0.015625 L 76.734375 3.714844 C 86.34375 5.957031 94.609375 9.097656 101.53125 13.136719 C 104.214844 8.652344 107.007812 6.632812 109.910156 7.082031 C 114.824219 7.527344 119.851562 10.332031 124.988281 15.492188 L 120.96875 16.164062 L 112.589844 21.550781 L 114.9375 25.25 C 122.980469 25.699219 127 27.046875 127 29.289062 "/>
</g>
</svg>
