<?xml version="1.0" encoding="UTF-8"?>
<svg xmlns="http://www.w3.org/2000/svg" xmlns:xlink="http://www.w3.org/1999/xlink" width="128pt" height="128pt" viewBox="0 0 128 128" version="1.1">
<g id="surface1">
<path style=" stroke:none;fill-rule:nonzero;fill:rgb(100%,100%,100%);fill-opacity:1;" d="M 52.398438 43.199219 C 52.398438 39.601562 51.132812 36.535156 48.601562 34 C 46.066406 31.464844 42.933594 30.199219 39.199219 30.199219 C 35.601562 30.199219 32.535156 31.464844 30 34 C 27.464844 36.535156 26.199219 39.601562 26.199219 43.199219 C 26.199219 46.933594 27.464844 50.066406 30 52.601562 C 32.535156 55.132812 35.601562 56.398438 39.199219 56.398438 C 42.933594 56.398438 46.066406 55.132812 48.601562 52.601562 C 51.132812 50.066406 52.398438 46.933594 52.398438 43.199219 M 88.601562 56.398438 C 92.199219 56.398438 95.332031 55.132812 98 52.601562 C 100.535156 50.066406 101.800781 46.933594 101.800781 43.199219 C 101.800781 39.601562 100.535156 36.535156 98 34 C 95.332031 31.464844 92.199219 30.199219 88.601562 30.199219 C 85 30.199219 81.933594 31.464844 79.398438 34 C 76.734375 36.535156 75.398438 39.601562 75.398438 43.199219 C 75.398438 46.933594 76.734375 50.066406 79.398438 52.601562 C 81.933594 55.132812 85 56.398438 88.601562 56.398438 M 109.199219 18.800781 C 121.734375 31.199219 128 46.265625 128 64 C 128 81.601562 121.734375 96.667969 109.199219 109.199219 C 96.800781 121.734375 81.734375 128 64 128 C 46.265625 128 31.199219 121.734375 18.800781 109.199219 C 6.265625 96.667969 0 81.601562 0 64 C 0 46.265625 6.265625 31.199219 18.800781 18.800781 C 31.199219 6.265625 46.265625 0 64 0 C 81.734375 0 96.800781 6.265625 109.199219 18.800781 M 108.601562 75 L 101.398438 75 C 98.464844 78.601562 93.464844 81.867188 86.398438 84.800781 C 78.667969 88.132812 71.199219 89.800781 64 89.800781 C 56.667969 89.800781 49.398438 88.332031 42.199219 85.398438 C 35.667969 82.601562 30.464844 79.132812 26.601562 75 L 19.398438 75 C 22.601562 84.464844 28.265625 92.066406 36.398438 97.800781 C 44.667969 103.800781 53.867188 106.800781 64 106.800781 C 74.132812 106.800781 83.332031 103.800781 91.601562 97.800781 C 99.734375 92.066406 105.398438 84.464844 108.601562 75 "/>
</g>
</svg>
