<?xml version="1.0" encoding="UTF-8"?>
<svg xmlns="http://www.w3.org/2000/svg" xmlns:xlink="http://www.w3.org/1999/xlink" width="128pt" height="179pt" viewBox="0 0 128 179" version="1.1">
<g id="surface1">
<path style=" stroke:none;fill-rule:nonzero;fill:rgb(100%,100%,100%);fill-opacity:1;" d="M 101.210938 24.605469 L 102.449219 27.824219 C 104.269531 32.613281 104.597656 37.484375 103.441406 42.4375 C 102.449219 47.394531 100.132812 51.4375 96.496094 54.574219 C 111.378906 59.035156 121.300781 67.042969 126.261719 78.601562 C 127.421875 80.582031 127.917969 82.316406 127.75 83.804688 L 126.261719 88.261719 C 123.78125 94.535156 120.476562 99.65625 116.339844 103.617188 L 115.84375 108.078125 L 112.621094 110.800781 L 113.859375 113.527344 C 114.027344 114.847656 113.363281 115.835938 111.875 116.5 L 107.660156 116.746094 L 112.621094 159.84375 C 115.265625 160.503906 117.914062 161.660156 120.558594 163.3125 L 124.03125 166.285156 C 124.03125 168.925781 121.550781 170.246094 116.589844 170.246094 L 105.921875 169.253906 L 102.449219 168.015625 L 101.457031 167.769531 L 99.722656 169.007812 L 95.75 167.769531 L 94.757812 163.558594 L 94.757812 163.3125 L 93.023438 162.566406 L 89.796875 146.46875 C 88.640625 141.019531 86.410156 135.238281 83.101562 129.128906 L 73.675781 150.429688 C 71.523438 155.054688 69.871094 159.597656 68.714844 164.054688 L 68.21875 166.035156 L 66.730469 167.027344 C 66.5625 169.832031 65.40625 172.3125 63.253906 174.457031 C 61.105469 176.769531 58.625 178.007812 55.8125 178.171875 C 53.167969 178.667969 51.347656 176.605469 50.355469 171.980469 C 50.027344 170 50.4375 168.183594 51.597656 166.53125 L 50.355469 165.789062 L 50.109375 160.585938 L 50.355469 152.414062 C 51.019531 144.980469 53.003906 134 56.308594 119.46875 L 57.054688 115.257812 C 59.039062 102.050781 59.203125 89.914062 57.550781 78.847656 C 46.636719 76.207031 37.210938 71.5 29.269531 64.730469 C 20.175781 56.804688 15.296875 47.886719 14.636719 37.980469 L 12.15625 34.511719 C 10.171875 31.539062 8.269531 29.972656 6.449219 29.808594 C 2.148438 29.476562 0.25 28.074219 0.746094 25.597656 C 1.242188 23.121094 2.5625 21.964844 4.714844 22.128906 C 6.53125 22.128906 8.515625 22.871094 10.667969 24.359375 C 12.15625 25.84375 12.980469 26.175781 13.148438 25.347656 C 13.644531 24.359375 13.394531 23.449219 12.402344 22.625 L 9.921875 20.890625 C 8.101562 19.402344 7.109375 18 6.945312 16.679688 C 6.285156 14.53125 7.195312 13.378906 9.675781 13.210938 C 11.988281 13.210938 13.808594 13.789062 15.132812 14.945312 C 16.621094 16.433594 17.859375 19.074219 18.851562 22.871094 L 18.605469 18.164062 L 17.117188 13.707031 C 16.949219 12.386719 17.445312 11.394531 18.605469 10.734375 L 21.828125 10.984375 C 24.144531 12.632812 25.46875 14.945312 25.796875 17.917969 L 26.046875 25.101562 L 27.285156 23.863281 C 28.609375 22.871094 30.261719 22.871094 32.25 23.863281 C 34.234375 24.6875 34.894531 26.007812 34.234375 27.824219 L 30.511719 31.539062 C 28.859375 32.203125 27.867188 32.777344 27.535156 33.273438 L 26.789062 35.257812 C 31.089844 42.523438 36.132812 47.394531 41.921875 49.871094 L 67.722656 50.859375 L 64.496094 47.394531 L 64.25 47.394531 C 62.261719 47.558594 60.527344 46.566406 59.039062 44.421875 C 57.714844 42.109375 57.632812 40.042969 58.789062 38.226562 L 59.78125 37.980469 L 59.039062 37.238281 C 57.714844 35.585938 56.640625 32.945312 55.8125 29.3125 C 54.492188 25.183594 54.324219 21.632812 55.316406 18.660156 C 57.136719 13.871094 59.203125 11.066406 61.519531 10.238281 L 63.75 7.515625 L 65.984375 4.542969 L 71.195312 3.054688 L 72.929688 1.570312 C 74.085938 0.578125 75.164062 0.0859375 76.15625 0.0859375 L 76.652344 0.0859375 C 77.808594 0.0859375 79.296875 1.15625 81.117188 3.304688 C 81.613281 3.964844 82.605469 4.296875 84.09375 4.296875 L 87.316406 4.542969 C 88.804688 4.707031 90.210938 5.617188 91.535156 7.265625 L 93.269531 9 L 95.253906 9.496094 C 96.25 9.496094 96.910156 9.167969 97.242188 8.503906 C 97.570312 7.84375 97.242188 6.773438 96.25 5.285156 L 96.25 5.039062 L 98.730469 6.277344 L 101.707031 9.25 C 102.53125 11.394531 102.449219 13.460938 101.457031 15.441406 C 102.945312 16.925781 103.359375 18.910156 102.699219 21.386719 L 101.210938 24.605469 "/>
</g>
</svg>
