<?xml version="1.0" encoding="UTF-8"?>
<svg xmlns="http://www.w3.org/2000/svg" xmlns:xlink="http://www.w3.org/1999/xlink" width="128pt" height="274pt" viewBox="0 0 128 274" version="1.1">
<g id="surface1">
<path style=" stroke:none;fill-rule:nonzero;fill:rgb(100%,100%,100%);fill-opacity:1;" d="M 115.472656 261.773438 L 115.472656 118.226562 L 12.132812 118.226562 L 12.132812 261.773438 L 115.472656 261.773438 M 90.421875 158.902344 L 90.421875 145.605469 L 37.96875 145.605469 L 37.96875 158.902344 L 90.421875 158.902344 M 102.554688 133.089844 L 102.554688 171.027344 L 25.445312 171.027344 L 25.445312 133.089844 L 102.554688 133.089844 M 101.382812 193.324219 C 103.207031 195.148438 104.121094 197.367188 104.121094 199.972656 L 101.382812 206.621094 L 95.121094 208.578125 L 88.855469 206.621094 C 87.03125 204.796875 86.117188 202.582031 86.117188 199.972656 C 86.117188 197.367188 87.03125 195.148438 88.855469 193.324219 L 95.121094 191.367188 C 97.730469 191.367188 99.816406 192.019531 101.382812 193.324219 M 0 105.707031 L 128 105.707031 L 128 273.898438 L 0 273.898438 L 0 105.707031 "/>
<path style=" stroke:none;fill-rule:nonzero;fill:rgb(100%,100%,100%);fill-opacity:1;" d="M 93.160156 57.597656 L 69.675781 57.597656 L 69.675781 112.75 L 59.890625 112.75 L 59.890625 57.597656 L 36.402344 57.597656 L 36.402344 0.101562 L 93.160156 0.101562 L 93.160156 57.597656 "/>
</g>
</svg>
