<?xml version="1.0" encoding="UTF-8" standalone="no"?>
<svg
   xmlns:dc="http://purl.org/dc/elements/1.1/"
   xmlns:cc="http://creativecommons.org/ns#"
   xmlns:rdf="http://www.w3.org/1999/02/22-rdf-syntax-ns#"
   xmlns:svg="http://www.w3.org/2000/svg"
   xmlns="http://www.w3.org/2000/svg"
   xmlns:sodipodi="http://sodipodi.sourceforge.net/DTD/sodipodi-0.dtd"
   xmlns:inkscape="http://www.inkscape.org/namespaces/inkscape"
   width="128pt"
   height="89pt"
   viewBox="0 0 128 89"
   version="1.1"
   id="svg5"
   sodipodi:docname="camper.svg"
   inkscape:version="0.92.1 r15371">
  <metadata
     id="metadata11">
    <rdf:RDF>
      <cc:Work
         rdf:about="">
        <dc:format>image/svg+xml</dc:format>
        <dc:type
           rdf:resource="http://purl.org/dc/dcmitype/StillImage" />
      </cc:Work>
    </rdf:RDF>
  </metadata>
  <defs
     id="defs9" />
  <sodipodi:namedview
     pagecolor="#ffffff"
     bordercolor="#666666"
     borderopacity="1"
     objecttolerance="10"
     gridtolerance="10"
     guidetolerance="10"
     inkscape:pageopacity="0"
     inkscape:pageshadow="2"
     inkscape:window-width="836"
     inkscape:window-height="480"
     id="namedview7"
     showgrid="false"
     inkscape:zoom="1.988764"
     inkscape:cx="85.333333"
     inkscape:cy="59.333333"
     inkscape:window-x="0"
     inkscape:window-y="0"
     inkscape:window-maximized="0"
     inkscape:current-layer="surface1" />
  <g
     id="surface1">
    <path
       style="fill:#00ff00;fill-opacity:1;fill-rule:nonzero;stroke:none"
       d="m 40.421875,66.261719 c -1.507813,1.515625 -2.261719,3.359375 -2.261719,5.523437 0,2.164063 0.753906,4.003906 2.261719,5.519532 1.507813,1.519531 3.335937,2.277343 5.492187,2.277343 2.152344,0 4.089844,-0.757812 5.8125,-2.277343 1.507813,-1.515626 2.261719,-3.355469 2.261719,-5.519532 0,-2.164062 -0.753906,-4.007812 -2.261719,-5.523437 -1.722656,-1.730469 -3.660156,-2.597657 -5.8125,-2.597657 -2.15625,0 -3.984374,0.867188 -5.492187,2.597657 m -6.78125,-6.820313 c 3.441406,-3.246094 7.535156,-4.871094 12.273437,-4.871094 4.734376,0 8.828126,1.625 12.273438,4.871094 3.445312,3.464844 5.167969,7.578125 5.167969,12.34375 0,4.761719 -1.722657,8.878906 -5.167969,12.34375 C 54.742188,87.375 50.648438,89 45.914062,89 c -4.738281,0 -8.832031,-1.625 -12.273437,-4.871094 -3.230469,-3.464844 -4.847656,-7.582031 -4.847656,-12.34375 0,-4.765625 1.617187,-8.878906 4.847656,-12.34375 m -15.503906,-44.824218 -3.554688,1.300781 -1.292969,3.570312 v 11.371094 l 1.292969,3.570313 3.554688,1.300781 H 57.863281 V 14.617188 H 18.136719 M 99.851562,4.222656 c 2.800778,3.03125 4.199218,6.605469 4.199218,10.71875 v 43.851563 h 23.90235 v 9.417969 H 68.199219 C 67.335938,62.582031 64.859375,58.035156 60.769531,54.570312 56.464844,50.671875 51.511719,48.722656 45.914062,48.722656 c -5.601562,0 -10.445312,1.949219 -14.535156,5.847656 -4.308594,3.464844 -6.890625,8.011719 -7.753906,13.640626 H 0.046875 V 14.941406 c 0,-4.113281 1.398437,-7.6875 4.199219,-10.71875 C 7.261719,1.40625 10.8125,0 14.90625,0 h 74.609375 c 4.09375,0 7.539063,1.40625 10.335937,4.222656 M 87.902344,14.617188 H 70.136719 v 21.113281 h 17.765625 l 3.550781,-1.300781 1.292969,-3.570313 V 19.488281 l -1.292969,-3.570312 -3.550781,-1.300781"
       id="path2"
       inkscape:connector-curvature="0" />
  </g>
</svg>
