<?xml version="1.0" encoding="UTF-8" standalone="no"?>
<svg
   xmlns:dc="http://purl.org/dc/elements/1.1/"
   xmlns:cc="http://creativecommons.org/ns#"
   xmlns:rdf="http://www.w3.org/1999/02/22-rdf-syntax-ns#"
   xmlns:svg="http://www.w3.org/2000/svg"
   xmlns="http://www.w3.org/2000/svg"
   xmlns:sodipodi="http://sodipodi.sourceforge.net/DTD/sodipodi-0.dtd"
   xmlns:inkscape="http://www.inkscape.org/namespaces/inkscape"
   width="127pt"
   height="76pt"
   viewBox="0 0 127 76"
   version="1.1"
   id="svg5"
   sodipodi:docname="car.svg"
   inkscape:version="0.92.1 r15371">
  <metadata
     id="metadata11">
    <rdf:RDF>
      <cc:Work
         rdf:about="">
        <dc:format>image/svg+xml</dc:format>
        <dc:type
           rdf:resource="http://purl.org/dc/dcmitype/StillImage" />
      </cc:Work>
    </rdf:RDF>
  </metadata>
  <defs
     id="defs9" />
  <sodipodi:namedview
     pagecolor="#ffffff"
     bordercolor="#666666"
     borderopacity="1"
     objecttolerance="10"
     gridtolerance="10"
     guidetolerance="10"
     inkscape:pageopacity="0"
     inkscape:pageshadow="2"
     inkscape:window-width="1366"
     inkscape:window-height="685"
     id="namedview7"
     showgrid="false"
     inkscape:zoom="2.1496063"
     inkscape:cx="-9.7692308"
     inkscape:cy="50.666667"
     inkscape:window-x="0"
     inkscape:window-y="0"
     inkscape:window-maximized="1"
     inkscape:current-layer="surface1" />
  <g
     id="surface1">
    <path
       style="fill:#00ff00;fill-opacity:1;fill-rule:nonzero;stroke:none"
       d="m 23.75,50.882812 c 1.710938,-1.71875 2.5625,-3.757812 2.5625,-6.121093 0,-2.359375 -0.851562,-4.398438 -2.5625,-6.117188 -1.710938,-1.71875 -3.742188,-2.578125 -6.089844,-2.578125 -2.566406,0 -4.703125,0.859375 -6.414062,2.578125 -1.707032,1.71875 -2.5625,3.757813 -2.5625,6.117188 0,2.363281 0.855468,4.402343 2.5625,6.121093 1.710937,1.929688 3.847656,2.898438 6.414062,2.898438 2.347656,0 4.378906,-0.96875 6.089844,-2.898438 m 95.20703,-6.121093 c 0,-2.359375 -0.85156,-4.398438 -2.5625,-6.117188 -1.71094,-1.71875 -3.74219,-2.578125 -6.08984,-2.578125 -2.56641,0 -4.59766,0.859375 -6.09375,2.578125 -1.92188,1.71875 -2.88281,3.757813 -2.88281,6.117188 0,2.363281 0.96093,4.402343 2.88281,6.121093 1.49609,1.929688 3.52734,2.898438 6.09375,2.898438 2.34765,0 4.3789,-0.96875 6.08984,-2.898438 1.71094,-1.71875 2.5625,-3.757812 2.5625,-6.121093 M 104.53125,11.59375 c 2.99219,2.789062 5.45313,7.621094 7.375,14.492188 h 0.32031 c 3.41797,0 6.30469,1.179687 8.65625,3.542968 2.35157,2.359375 3.52344,5.257813 3.52344,8.691406 l 2.56641,21.898438 -1.28125,2.578125 -2.2461,0.964844 h -3.84765 l -0.96094,0.324219 h -5.76953 V 74.390625 L 110.94531,76 H 97.480469 L 95.878906,74.390625 V 64.085938 H 31.121094 V 74.390625 C 31.121094,75.464844 30.480469,76 29.199219,76 H 16.054688 L 14.132812,74.390625 V 64.085938 H 8.363281 L 7.402344,63.761719 H 3.554688 L 1.308594,62.796875 0.0273438,60.21875 2.59375,38.320312 c 0,-3.433593 1.171875,-6.332031 3.523438,-8.691406 2.351562,-2.363281 5.238281,-3.542968 8.65625,-3.542968 H 15.09375 C 17.015625,19.644531 19.367188,15.027344 22.148438,12.238281 30.269531,4.078125 44.050781,0 63.5,0 82.949219,0 96.625,3.863281 104.53125,11.59375 M 65.101562,7.40625 h 5.128907 l 2.246093,1.933594 c 0,1.503906 -0.75,2.253906 -2.246093,2.253906 H 56.769531 c -1.496093,0 -2.246093,-0.75 -2.246093,-2.253906 L 56.769531,7.40625 h 4.488281 V 5.152344 C 46.511719,5.367188 35.398438,8.910156 27.917969,15.78125 c -4.0625,3.433594 -6.519531,7.40625 -7.375,11.914062 l 1.605469,1.289063 C 34.113281,25.117188 45.761719,22.863281 57.089844,22.21875 h 12.820312 c 11.328125,0.644531 22.867188,2.898438 34.621094,6.765625 l 1.92578,-1.289063 C 105.60156,23.402344 102.92969,19.429688 98.441406,15.78125 90.75,9.125 79.636719,5.582031 65.101562,5.152344 V 7.40625 M 86.902344,37.355469 63.5,36.390625 40.097656,37.355469 c -6.410156,1.074219 -9.617187,3.007812 -9.617187,5.796875 0,2.792968 3.207031,5.261718 9.617187,7.40625 L 63.5,53.78125 86.902344,50.558594 c 6.410156,-2.144532 9.617187,-4.613282 9.617187,-7.40625 0,-2.789063 -3.207031,-4.722656 -9.617187,-5.796875"
       id="path2"
       inkscape:connector-curvature="0" />
  </g>
</svg>
