<?xml version="1.0" encoding="UTF-8" standalone="no"?>
<svg
   xmlns:dc="http://purl.org/dc/elements/1.1/"
   xmlns:cc="http://creativecommons.org/ns#"
   xmlns:rdf="http://www.w3.org/1999/02/22-rdf-syntax-ns#"
   xmlns:svg="http://www.w3.org/2000/svg"
   xmlns="http://www.w3.org/2000/svg"
   xmlns:sodipodi="http://sodipodi.sourceforge.net/DTD/sodipodi-0.dtd"
   xmlns:inkscape="http://www.inkscape.org/namespaces/inkscape"
   width="127pt"
   height="88pt"
   viewBox="0 0 127 88"
   version="1.1"
   id="svg5"
   sodipodi:docname="castle.svg"
   inkscape:version="0.92.1 r15371">
  <metadata
     id="metadata11">
    <rdf:RDF>
      <cc:Work
         rdf:about="">
        <dc:format>image/svg+xml</dc:format>
        <dc:type
           rdf:resource="http://purl.org/dc/dcmitype/StillImage" />
      </cc:Work>
    </rdf:RDF>
  </metadata>
  <defs
     id="defs9" />
  <sodipodi:namedview
     pagecolor="#ffffff"
     bordercolor="#666666"
     borderopacity="1"
     objecttolerance="10"
     gridtolerance="10"
     guidetolerance="10"
     inkscape:pageopacity="0"
     inkscape:pageshadow="2"
     inkscape:window-width="1366"
     inkscape:window-height="685"
     id="namedview7"
     showgrid="false"
     inkscape:zoom="2.0113636"
     inkscape:cx="-16.259887"
     inkscape:cy="58.666667"
     inkscape:window-x="0"
     inkscape:window-y="0"
     inkscape:window-maximized="1"
     inkscape:current-layer="surface1" />
  <g
     id="surface1">
    <path
       style="fill:#00ff00;fill-opacity:1;fill-rule:nonzero;stroke:none"
       d="m 75.648438,61.566406 -2.660157,1.339844 c 2.4375,0.890625 3.660157,2.453125 3.660157,4.683594 l -1.664063,3.34375 -3.660156,1.675781 -3.664063,-1.675781 -1.664062,-3.34375 0.332031,-1.003906 -9.320313,5.351562 5.328126,8.03125 c 2.660156,1.785156 5.65625,2.675781 8.988281,2.675781 3.992187,0 7.542969,-1.558593 10.648437,-4.683593 2.886719,-2.898438 4.328125,-6.355469 4.328125,-10.371094 L 84.96875,61.566406 H 75.648438 M 115.92578,1.003906 116.59375,0 l 1.66406,1.003906 v 0.335938 h 0.33203 l 2.32813,2.007812 4.66016,10.371094 c 0.89062,1.339844 0.89062,2.230469 0,2.675781 v 2.34375 l -1.33204,0.332031 -0.99609,-0.667968 v -0.332032 l -12.64844,8.363282 -15.980466,10.039062 v 25.09375 h -4.324219 l 0.664063,6.023438 c 0,5.578125 -1.773438,10.371094 -5.324219,14.386718 C 81.640625,85.992188 76.871094,88 71.324219,88 66.882812,88 63,86.882812 59.671875,84.652344 56.34375,82.199219 53.902344,78.964844 52.347656,74.949219 L 32.042969,86.996094 H 0.0898438 v -5.6875 C 0.976562,78.632812 2.753906,77.292969 5.414062,77.292969 c 2.21875,0 3.996094,1.339843 5.328126,4.015625 h 0.332031 l 13.648437,-4.351563 7.65625,-10.371093 -4.328125,1.671874 c -1.554687,0.671876 -2.996093,0.113282 -4.328125,-1.671874 l -1.332031,-3.011719 c -1.773437,0.222656 -3.105469,-0.558594 -3.992187,-2.34375 -1.109376,-1.558594 -1,-3.234375 0.332031,-5.015625 l -1.332031,-3.011719 -0.332032,-2.679687 1.664063,-1.671876 C 34.261719,40.152344 53.902344,30.449219 77.648438,19.742188 L 115.59375,3.011719 V 2.675781 l 0.33203,-1.671875"
       id="path2"
       inkscape:connector-curvature="0" />
  </g>
</svg>
