<?xml version="1.0" encoding="UTF-8" standalone="no"?>
<svg
   xmlns:dc="http://purl.org/dc/elements/1.1/"
   xmlns:cc="http://creativecommons.org/ns#"
   xmlns:rdf="http://www.w3.org/1999/02/22-rdf-syntax-ns#"
   xmlns:svg="http://www.w3.org/2000/svg"
   xmlns="http://www.w3.org/2000/svg"
   xmlns:sodipodi="http://sodipodi.sourceforge.net/DTD/sodipodi-0.dtd"
   xmlns:inkscape="http://www.inkscape.org/namespaces/inkscape"
   width="128pt"
   height="217pt"
   viewBox="0 0 128 217"
   version="1.1"
   id="svg5"
   sodipodi:docname="custom-house.svg"
   inkscape:version="0.92.1 r15371">
  <metadata
     id="metadata11">
    <rdf:RDF>
      <cc:Work
         rdf:about="">
        <dc:format>image/svg+xml</dc:format>
        <dc:type
           rdf:resource="http://purl.org/dc/dcmitype/StillImage" />
      </cc:Work>
    </rdf:RDF>
  </metadata>
  <defs
     id="defs9" />
  <sodipodi:namedview
     pagecolor="#ffffff"
     bordercolor="#666666"
     borderopacity="1"
     objecttolerance="10"
     gridtolerance="10"
     guidetolerance="10"
     inkscape:pageopacity="0"
     inkscape:pageshadow="2"
     inkscape:window-width="836"
     inkscape:window-height="480"
     id="namedview7"
     showgrid="false"
     inkscape:zoom="0.8156682"
     inkscape:cx="85.333333"
     inkscape:cy="144.66667"
     inkscape:window-x="0"
     inkscape:window-y="0"
     inkscape:window-maximized="0"
     inkscape:current-layer="surface1" />
  <g
     id="surface1">
    <path
       style="fill:#00ff00;fill-opacity:1;fill-rule:nonzero;stroke:none"
       d="m 70.867188,148.46875 v 60.77344 h 20.875 v -60.77344 h -20.875 m -32.414063,-27.375 v 11.49609 H 91.191406 V 121.09375 H 38.453125 M 54.9375,209.24219 V 148.46875 H 36.257812 v 60.77344 H 54.9375 M 100.53125,59.769531 v 39.421875 l 8.78906,12.046874 v 98.00391 H 128 v 7.66797 H 0 v -7.66797 H 18.128906 V 111.23828 L 27.46875,99.191406 v -38.875 L 63.175781,0.0898438 100.53125,59.769531 M 73.613281,71.816406 c -2.5625,-2.554687 -5.675781,-3.832031 -9.339843,-3.832031 -4.027344,0 -7.324219,1.277344 -9.886719,3.832031 l -3.847657,8.761719 3.847657,8.757813 c 2.5625,2.554687 5.859375,3.832031 9.886719,3.832031 3.664062,0 6.777343,-1.277344 9.339843,-3.832031 2.5625,-2.1875 3.847657,-5.109376 3.847657,-8.757813 0,-3.652344 -1.285157,-6.570313 -3.847657,-8.761719"
       id="path2"
       inkscape:connector-curvature="0" />
  </g>
</svg>
