<?xml version="1.0" encoding="UTF-8" standalone="no"?>
<svg
   xmlns:dc="http://purl.org/dc/elements/1.1/"
   xmlns:cc="http://creativecommons.org/ns#"
   xmlns:rdf="http://www.w3.org/1999/02/22-rdf-syntax-ns#"
   xmlns:svg="http://www.w3.org/2000/svg"
   xmlns="http://www.w3.org/2000/svg"
   xmlns:sodipodi="http://sodipodi.sourceforge.net/DTD/sodipodi-0.dtd"
   xmlns:inkscape="http://www.inkscape.org/namespaces/inkscape"
   width="128pt"
   height="134pt"
   viewBox="0 0 128 134"
   version="1.1"
   id="svg5"
   sodipodi:docname="diamond-city.svg"
   inkscape:version="0.92.1 r15371">
  <metadata
     id="metadata11">
    <rdf:RDF>
      <cc:Work
         rdf:about="">
        <dc:format>image/svg+xml</dc:format>
        <dc:type
           rdf:resource="http://purl.org/dc/dcmitype/StillImage" />
      </cc:Work>
    </rdf:RDF>
  </metadata>
  <defs
     id="defs9" />
  <sodipodi:namedview
     pagecolor="#ffffff"
     bordercolor="#666666"
     borderopacity="1"
     objecttolerance="10"
     gridtolerance="10"
     guidetolerance="10"
     inkscape:pageopacity="0"
     inkscape:pageshadow="2"
     inkscape:window-width="1366"
     inkscape:window-height="685"
     id="namedview7"
     showgrid="false"
     inkscape:zoom="1.3208955"
     inkscape:cx="-68.350282"
     inkscape:cy="89.333333"
     inkscape:window-x="0"
     inkscape:window-y="0"
     inkscape:window-maximized="1"
     inkscape:current-layer="surface1" />
  <g
     id="surface1">
    <path
       style="fill:#00ff00;fill-opacity:1;fill-rule:nonzero;stroke:none"
       d="m 73.597656,69.664062 c 0,2.84375 -0.949218,5.214844 -2.84375,7.109376 -1.894531,2.132812 -4.265625,3.199218 -7.109375,3.199218 -2.605469,0 -4.976562,-1.066406 -7.109375,-3.199218 -1.894531,-1.894532 -2.84375,-4.265626 -2.84375,-7.109376 0,-2.605468 0.949219,-4.855468 2.84375,-6.75 2.132813,-1.898437 4.503906,-2.84375 7.109375,-2.84375 2.84375,0 5.214844,0.945313 7.109375,2.84375 1.894532,1.894532 2.84375,4.144532 2.84375,6.75 M 66.488281,114.44922 108.08203,72.507812 c -0.71094,-1.65625 -0.71094,-3.433593 0,-5.332031 L 66.488281,25.589844 h -5.6875 l -41.59375,41.585937 v 5.332031 l 41.59375,41.941408 h 5.6875 M 117.67969,60.070312 c 2.84375,0 5.21484,0.945313 7.10937,2.84375 l 3.19922,6.75 -3.19922,7.109376 c -2.84375,2.84375 -6.04297,3.675781 -9.59765,2.488281 L 73.242188,121.20313 c 1.1875,3.79296 0.355468,7.10937 -2.488282,9.95312 C 68.859375,133.05078 66.488281,134 63.644531,134 c -2.605469,0 -4.976562,-0.94922 -7.109375,-2.84375 -2.609375,-3.08203 -3.320312,-6.39844 -2.132812,-9.95312 L 12.453125,79.261719 C 8.660156,80.683594 5.34375,79.855469 2.5,76.773438 0.839844,74.878906 0.0117188,72.507812 0.0117188,69.664062 L 2.5,62.914062 6.765625,60.425781 C 7.238281,43.601562 12.808594,29.265625 23.472656,17.417969 34.375,5.804688 47.292969,0 62.222656,0 c 14.929688,0 27.726563,5.804688 38.394534,17.417969 10.66406,11.609375 16.35156,25.828125 17.0625,42.652343"
       id="path2"
       inkscape:connector-curvature="0" />
  </g>
</svg>
