<?xml version="1.0" encoding="UTF-8" standalone="no"?>
<svg
   xmlns:dc="http://purl.org/dc/elements/1.1/"
   xmlns:cc="http://creativecommons.org/ns#"
   xmlns:rdf="http://www.w3.org/1999/02/22-rdf-syntax-ns#"
   xmlns:svg="http://www.w3.org/2000/svg"
   xmlns="http://www.w3.org/2000/svg"
   xmlns:sodipodi="http://sodipodi.sourceforge.net/DTD/sodipodi-0.dtd"
   xmlns:inkscape="http://www.inkscape.org/namespaces/inkscape"
   width="127pt"
   height="127pt"
   viewBox="0 0 127 127"
   version="1.1"
   id="svg5"
   sodipodi:docname="drive-in.svg"
   inkscape:version="0.92.1 r15371">
  <metadata
     id="metadata11">
    <rdf:RDF>
      <cc:Work
         rdf:about="">
        <dc:format>image/svg+xml</dc:format>
        <dc:type
           rdf:resource="http://purl.org/dc/dcmitype/StillImage" />
      </cc:Work>
    </rdf:RDF>
  </metadata>
  <defs
     id="defs9" />
  <sodipodi:namedview
     pagecolor="#ffffff"
     bordercolor="#666666"
     borderopacity="1"
     objecttolerance="10"
     gridtolerance="10"
     guidetolerance="10"
     inkscape:pageopacity="0"
     inkscape:pageshadow="2"
     inkscape:window-width="1366"
     inkscape:window-height="685"
     id="namedview7"
     showgrid="false"
     inkscape:zoom="1.3937008"
     inkscape:cx="-60.988701"
     inkscape:cy="84.666667"
     inkscape:window-x="0"
     inkscape:window-y="0"
     inkscape:window-maximized="1"
     inkscape:current-layer="surface1" />
  <g
     id="surface1">
    <path
       style="fill:#00ff00;fill-opacity:1;fill-rule:nonzero;stroke:none"
       d="m 35.441406,98.777344 -2.550781,-8.980469 c -1.0625,-3.632813 -2.445313,-6.199219 -4.144531,-7.695313 l 1.59375,11.542969 2.234375,6.738279 h 1.910156 l 0.957031,-1.605466 m 17.21875,-37.523438 v -2.242187 l 1.273438,-1.925781 h 2.871094 c 1.273437,0 1.914062,0.640624 1.914062,1.925781 v 2.242187 c 0,1.285156 -0.640625,1.925782 -1.914062,1.925782 h -2.871094 c -0.847656,0 -1.273438,-0.640626 -1.273438,-1.925782 m -16.898437,-2.242187 1.59375,-1.925781 h 2.871093 c 1.273438,0 1.910157,0.640624 1.910157,1.925781 v 2.242187 c 0,1.285156 -0.636719,1.925782 -1.910157,1.925782 h -2.871093 l -1.59375,-1.925782 v -2.242187 m -11.796875,4.167969 h -3.1875 l -1.597656,-1.925782 v -2.242187 l 1.597656,-1.925781 h 3.1875 l 1.273437,1.925781 v 2.242187 c 0,1.285156 -0.425781,1.925782 -1.273437,1.925782 M 4.195312,57.085938 h 2.871094 c 1.0625,0 1.59375,0.640624 1.59375,1.925781 v 2.242187 c 0,1.285156 -0.53125,1.925782 -1.59375,1.925782 H 4.195312 c -1.0625,0 -1.59375,-0.640626 -1.59375,-1.925782 v -2.242187 l 1.59375,-1.925781 M 2.601562,1.925781 4.195312,0 h 2.871094 c 1.0625,0 1.59375,0.640625 1.59375,1.925781 v 2.5625 c 0,1.285157 -0.53125,1.925781 -1.59375,1.925781 H 4.195312 c -1.0625,0 -1.59375,-0.640624 -1.59375,-1.925781 v -2.5625 m 16.578126,0 L 20.777344,0 h 3.1875 l 1.273437,1.925781 v 2.5625 c 0,1.285157 -0.425781,1.925781 -1.273437,1.925781 h -3.1875 L 19.179688,4.488281 v -2.5625 M 37.355469,0 h 2.871093 C 41.5,0 42.136719,0.640625 42.136719,1.925781 v 2.5625 c 0,1.285157 -0.636719,1.925781 -1.910157,1.925781 h -2.871093 l -1.59375,-1.925781 v -2.5625 L 37.355469,0 m 19.449219,0 c 1.273437,0 1.914062,0.640625 1.914062,1.925781 v 2.5625 c 0,1.285157 -0.640625,1.925781 -1.914062,1.925781 h -2.871094 c -0.847656,0 -1.273438,-0.640624 -1.273438,-1.925781 v -2.5625 L 53.933594,0 h 2.871094 m 14.984374,105.83203 v -5.44922 H 59.355469 v 5.44922 h 12.433593 m 14.667969,14.11328 v -6.09375 L 44.6875,113.53125 v 6.41406 h 41.769531 m -22,-43.937498 V 73.441406 L 47.875,75.6875 C 41.5,77.398438 37.992188,80.925781 37.355469,86.269531 L 42.457031,85.308594 47.875,84.347656 46.921875,81.78125 46.28125,79.214844 c 2.339844,-2.351563 5.210938,-3.101563 8.609375,-2.246094 3.613281,0.640625 5.632813,2.671875 6.058594,6.09375 h 4.464843 l 6.695313,1.285156 9.5625,1.601563 10.523437,0.320312 C 91.558594,80.925781 88.15625,77.398438 81.992188,75.6875 L 65.414062,73.441406 c -0.425781,1.496094 -0.214843,2.460938 0.636719,2.886719 l 2.550781,0.320313 0.636719,1.925781 h -4.78125 l -3.828125,-1.285157 1.914063,-0.960937 1.914062,-0.320313 m 37.304689,3.847657 v 12.828125 l -1.914064,13.148436 1.593754,2.2461 0.32031,3.20703 c 0,2.13672 -2.125001,3.20703 -6.378908,3.20703 v 5.45312 l 27.421878,0.64063 c 2.76172,1.28125 4.14453,3.42187 4.14453,6.41406 H 1.007812 C 0.371094,124.21875 0.6875,122.29688 1.964844,121.22656 l 17.214844,-1.28125 h 15.304687 v -5.45312 c -4.25,0 -6.375,-1.07031 -6.375,-3.20703 l 0.316406,-3.20703 1.597657,-2.2461 -1.914063,-13.148436 V 79.855469 c 2.976563,0.214843 5.417969,2.03125 7.332031,5.453125 2.765625,-5.34375 5.421875,-8.875 7.972656,-10.582032 C 47.875,71.304688 54.890625,69.59375 64.457031,69.59375 h 0.957031 c 9.5625,0 16.578126,1.710938 21.042969,5.132812 2.550781,1.707032 5.3125,5.238282 8.289063,10.582032 1.699218,-3.421875 4.039062,-5.238282 7.015626,-5.453125 m -2.234376,13.789062 1.593746,-11.542969 c -2.335934,2.351563 -4.460934,7.910157 -6.374996,16.675782 -0.425782,0.855468 -0.105469,1.390626 0.957031,1.605466 h 1.914063 l 1.910156,-6.738279 M 120.25391,11.546875 v 40.40625 H 7.703125 V 11.546875 H 120.25391 m 0.3164,45.539063 h 2.8711 l 1.59375,1.925781 v 2.242187 c 0,1.285156 -0.53125,1.925782 -1.59375,1.925782 h -2.8711 c -1.0625,0 -1.59375,-0.640626 -1.59375,-1.925782 v -2.242187 c 0,-1.285157 0.53125,-1.925781 1.59375,-1.925781 m -16.89843,0 h 3.1914 l 1.59375,1.925781 v 2.242187 l -1.59375,1.925782 h -3.1914 c -0.84766,0 -1.27344,-0.640626 -1.27344,-1.925782 v -2.242187 l 1.27344,-1.925781 m -16.257818,6.09375 C 86.136719,63.179688 85.5,62.539062 85.5,61.253906 v -2.242187 c 0,-1.285157 0.636719,-1.925781 1.914062,-1.925781 h 2.867188 l 1.59375,1.925781 v 2.242187 l -1.59375,1.925782 h -2.867188 m -13.710937,0 h -2.871094 c -1.273437,0 -1.910156,-0.640626 -1.910156,-1.925782 v -2.242187 c 0,-1.285157 0.636719,-1.925781 1.910156,-1.925781 h 2.871094 l 1.273437,1.925781 v 2.242187 c 0,1.285156 -0.421874,1.925782 -1.273437,1.925782 M 70.832031,0 h 2.871094 l 1.273437,1.925781 v 2.5625 c 0,1.285157 -0.421874,1.925781 -1.273437,1.925781 h -2.871094 c -1.273437,0 -1.910156,-0.640624 -1.910156,-1.925781 v -2.5625 C 68.921875,0.640625 69.558594,0 70.832031,0 M 87.414062,0 H 90.28125 L 91.875,1.925781 v 2.5625 L 90.28125,6.414062 H 87.414062 C 86.136719,6.414062 85.5,5.773438 85.5,4.488281 v -2.5625 C 85.5,0.640625 86.136719,0 87.414062,0 m 16.257818,0 h 3.1914 l 1.59375,1.925781 v 2.5625 l -1.59375,1.925781 h -3.1914 c -0.84766,0 -1.27344,-0.640624 -1.27344,-1.925781 v -2.5625 L 103.67188,0 m 19.76953,0 1.59375,1.925781 v 2.5625 c 0,1.285157 -0.53125,1.925781 -1.59375,1.925781 h -2.8711 c -1.0625,0 -1.59375,-0.640624 -1.59375,-1.925781 v -2.5625 C 118.97656,0.640625 119.50781,0 120.57031,0 h 2.8711"
       id="path2"
       inkscape:connector-curvature="0" />
  </g>
</svg>
