<?xml version="1.0" encoding="UTF-8" standalone="no"?>
<svg
   xmlns:dc="http://purl.org/dc/elements/1.1/"
   xmlns:cc="http://creativecommons.org/ns#"
   xmlns:rdf="http://www.w3.org/1999/02/22-rdf-syntax-ns#"
   xmlns:svg="http://www.w3.org/2000/svg"
   xmlns="http://www.w3.org/2000/svg"
   xmlns:sodipodi="http://sodipodi.sourceforge.net/DTD/sodipodi-0.dtd"
   xmlns:inkscape="http://www.inkscape.org/namespaces/inkscape"
   width="128pt"
   height="132pt"
   viewBox="0 0 128 132"
   version="1.1"
   id="svg5"
   sodipodi:docname="farm.svg"
   inkscape:version="0.92.1 r15371">
  <metadata
     id="metadata11">
    <rdf:RDF>
      <cc:Work
         rdf:about="">
        <dc:format>image/svg+xml</dc:format>
        <dc:type
           rdf:resource="http://purl.org/dc/dcmitype/StillImage" />
      </cc:Work>
    </rdf:RDF>
  </metadata>
  <defs
     id="defs9" />
  <sodipodi:namedview
     pagecolor="#ffffff"
     bordercolor="#666666"
     borderopacity="1"
     objecttolerance="10"
     gridtolerance="10"
     guidetolerance="10"
     inkscape:pageopacity="0"
     inkscape:pageshadow="2"
     inkscape:window-width="836"
     inkscape:window-height="480"
     id="namedview7"
     showgrid="false"
     inkscape:zoom="1.3409091"
     inkscape:cx="85.333333"
     inkscape:cy="88"
     inkscape:window-x="0"
     inkscape:window-y="0"
     inkscape:window-maximized="0"
     inkscape:current-layer="surface1" />
  <g
     id="surface1">
    <path
       style="fill:#00ff00;fill-opacity:1;fill-rule:nonzero;stroke:none"
       d="m 63.328125,41 c -1.785156,-1.777344 -3.90625,-2.667969 -6.363281,-2.667969 -2.457032,0 -4.578125,0.890625 -6.367188,2.667969 -1.5625,1.554688 -2.34375,3.554688 -2.34375,6 0,2.445312 0.78125,4.554688 2.34375,6.332031 1.789063,1.558594 3.910156,2.335938 6.367188,2.335938 2.457031,0 4.578125,-0.777344 6.363281,-2.335938 1.566406,-1.777343 2.347656,-3.886719 2.347656,-6.332031 0,-2.445312 -0.78125,-4.445312 -2.347656,-6 m 62.312505,91 H 101.1875 l 9.71484,-31.33203 c 4.6875,-14.000001 9.60157,-25.000001 14.73829,-33.000001 V 132 M 101.85547,88 c -7.593751,16.22266 -13.625001,30.89063 -18.089845,44 H 52.273438 C 71.929688,101.10938 91.695312,79.667969 111.57031,67.667969 L 101.85547,88 M 98.171875,67.667969 74.71875,86.332031 C 56.628906,101.89063 41.777344,117.10938 30.164062,132 H 0.0117188 v -12.66797 c 19.8789062,-16 32.6093752,-25.664061 38.1914062,-28.999999 18.984375,-12 38.972656,-19.554687 59.96875,-22.664062 M 111.57031,49.332031 107.55078,51 105.875,54.667969 c 0,1.554687 0.55859,2.886719 1.67578,4 1.11719,1.109375 2.45703,1.664062 4.01953,1.664062 l 3.6875,-1.664062 1.67188,-4 L 115.25781,51 l -3.6875,-1.667969 m -7.03515,12.335938 c -2.00782,-2 -3.01563,-4.335938 -3.01563,-7 0,-2.667969 1.00781,-5 3.01563,-7 2.01172,-2 4.35547,-3 7.03515,-3 2.67969,0 5.02735,1 7.03516,3 2.01172,2 3.01562,4.332031 3.01562,7 0,2.664062 -1.0039,5 -3.01562,7 -2.00781,2 -4.35547,3 -7.03516,3 -2.67968,0 -5.02343,-1 -7.03515,-3 M 69.695312,34.332031 c 3.796876,3.558594 5.695313,7.777344 5.695313,12.667969 0,4.222656 -1.339844,8 -4.019531,11.332031 -2.679688,3.335938 -6.03125,5.445313 -10.050782,6.335938 l 18.089844,2 -23.117187,7.664062 C 37.3125,81.445312 18.550781,90.109375 0.0117188,100.33203 V 72.667969 l 18.7617192,-6 31.824218,-2.335938 C 47.027344,63 44.234375,60.777344 42.222656,57.667969 39.769531,54.554688 38.539062,51 38.539062,47 c 0,-5.109375 1.785157,-9.332031 5.359376,-12.667969 3.574218,-3.777343 7.929687,-5.664062 13.066406,-5.664062 5.136718,0 9.378906,1.886719 12.730468,5.664062 m 8.039063,-31 H 66.34375 V 21.667969 H 82.761719 L 77.734375,3.332031 m 33.167965,5 h 4.6875 v 16.335938 l 7.03516,0.664062 5.36328,22 -2.34765,3 h -1.00391 l -5.02344,-7 c -2.45703,-1.777343 -5.13672,-2.664062 -8.04297,-2.664062 -3.125,0 -5.91797,0.886719 -8.375,2.664062 -2.45703,1.777344 -4.13281,4.113281 -5.023435,7 H 79.074219 L 79.410156,47 c 0,-6.222656 -2.234375,-11.445312 -6.699218,-15.667969 -4.242188,-4.441406 -9.492188,-6.664062 -15.746094,-6.664062 -4.914063,0 -9.15625,1.332031 -12.730469,4 V 0 h 34.839844 l 9.382812,21.667969 22.445309,2 V 8.332031"
       id="path2"
       inkscape:connector-curvature="0" />
  </g>
</svg>
