<?xml version="1.0" encoding="UTF-8" standalone="no"?>
<svg
   xmlns:dc="http://purl.org/dc/elements/1.1/"
   xmlns:cc="http://creativecommons.org/ns#"
   xmlns:rdf="http://www.w3.org/1999/02/22-rdf-syntax-ns#"
   xmlns:svg="http://www.w3.org/2000/svg"
   xmlns="http://www.w3.org/2000/svg"
   xmlns:sodipodi="http://sodipodi.sourceforge.net/DTD/sodipodi-0.dtd"
   xmlns:inkscape="http://www.inkscape.org/namespaces/inkscape"
   width="128pt"
   height="168pt"
   viewBox="0 0 128 168"
   version="1.1"
   id="svg5"
   sodipodi:docname="icon_59.svg"
   inkscape:version="0.92.1 r15371">
  <metadata
     id="metadata11">
    <rdf:RDF>
      <cc:Work
         rdf:about="">
        <dc:format>image/svg+xml</dc:format>
        <dc:type
           rdf:resource="http://purl.org/dc/dcmitype/StillImage" />
      </cc:Work>
    </rdf:RDF>
  </metadata>
  <defs
     id="defs9" />
  <sodipodi:namedview
     pagecolor="#ffffff"
     bordercolor="#666666"
     borderopacity="1"
     objecttolerance="10"
     gridtolerance="10"
     guidetolerance="10"
     inkscape:pageopacity="0"
     inkscape:pageshadow="2"
     inkscape:window-width="836"
     inkscape:window-height="480"
     id="namedview7"
     showgrid="false"
     inkscape:zoom="1.0535714"
     inkscape:cx="85.333333"
     inkscape:cy="112"
     inkscape:window-x="0"
     inkscape:window-y="0"
     inkscape:window-maximized="0"
     inkscape:current-layer="surface1" />
  <g
     id="surface1">
    <path
       style="fill:#00ff00;fill-opacity:1;fill-rule:nonzero;stroke:none"
       d="M 99.285156,60.851562 H 89.140625 v 7.496094 H 39.300781 V 60.851562 H 28.714844 l -2.644532,6.171876 -11.027343,64.378902 c -0.292969,3.23438 0.589843,5.87891 2.648437,7.9375 1.46875,2.05469 3.820313,3.08594 7.054688,3.08594 h 11.46875 V 128.75781 H 54.738281 V 127.875 l 2.644531,-6.61328 c 1.765626,-1.76563 3.824219,-2.64844 6.175782,-2.64844 2.941406,0 5.292968,0.88281 7.058594,2.64844 l 3.085937,6.61328 v 0.88281 h 18.082031 v 13.66797 H 102.8125 l 7.49609,-3.08594 c 1.76563,-2.05859 2.35547,-4.70312 1.76563,-7.9375 L 101.48828,67.023438 99.285156,60.851562 M 74.144531,6.613281 c 2.941407,4.410157 4.851563,9.703125 5.734375,15.875 h 21.167974 v 6.613281 h -4.410161 v 12.347657 c 3.531251,1.46875 6.617191,3.378906 9.261721,5.730469 5.58984,4.703124 8.82422,10.585937 9.70312,17.640624 l 11.02735,64.816408 c 0.88281,7.64453 -0.88282,13.96484 -5.29297,18.96094 -2.64453,2.64453 -6.02735,4.85156 -10.14453,6.61328 V 168 H 15.925781 V 155.21094 L 6.664062,148.59766 C 2.253906,143.30859 0.488281,136.98828 1.371094,129.63672 L 11.515625,64.820312 C 12.691406,57.46875 16.074219,51.589844 21.660156,47.179688 l 9.703125,-5.730469 V 29.101562 h -4.851562 v -6.613281 h 21.609375 c 0.882812,-5.878906 2.792968,-11.171875 5.734375,-15.875 C 57.089844,2.203125 60.472656,0 64,0 c 3.824219,0 7.203125,2.203125 10.144531,6.613281"
       id="path2"
       inkscape:connector-curvature="0" />
  </g>
</svg>
