<?xml version="1.0" encoding="UTF-8" standalone="no"?>
<svg
   xmlns:dc="http://purl.org/dc/elements/1.1/"
   xmlns:cc="http://creativecommons.org/ns#"
   xmlns:rdf="http://www.w3.org/1999/02/22-rdf-syntax-ns#"
   xmlns:svg="http://www.w3.org/2000/svg"
   xmlns="http://www.w3.org/2000/svg"
   xmlns:sodipodi="http://sodipodi.sourceforge.net/DTD/sodipodi-0.dtd"
   xmlns:inkscape="http://www.inkscape.org/namespaces/inkscape"
   width="128pt"
   height="168pt"
   viewBox="0 0 128 168"
   version="1.1"
   id="svg5"
   sodipodi:docname="icon_23.svg"
   inkscape:version="0.92.1 r15371">
  <metadata
     id="metadata11">
    <rdf:RDF>
      <cc:Work
         rdf:about="">
        <dc:format>image/svg+xml</dc:format>
        <dc:type
           rdf:resource="http://purl.org/dc/dcmitype/StillImage" />
      </cc:Work>
    </rdf:RDF>
  </metadata>
  <defs
     id="defs9" />
  <sodipodi:namedview
     pagecolor="#ffffff"
     bordercolor="#666666"
     borderopacity="1"
     objecttolerance="10"
     gridtolerance="10"
     guidetolerance="10"
     inkscape:pageopacity="0"
     inkscape:pageshadow="2"
     inkscape:window-width="836"
     inkscape:window-height="480"
     id="namedview7"
     showgrid="false"
     inkscape:zoom="1.0535714"
     inkscape:cx="85.333333"
     inkscape:cy="112"
     inkscape:window-x="0"
     inkscape:window-y="0"
     inkscape:window-maximized="0"
     inkscape:current-layer="surface1" />
  <g
     id="surface1">
    <path
       style="fill:#00ff00;fill-opacity:1;fill-rule:nonzero;stroke:none"
       d="m 58.488281,134.42578 c 0,-3.39062 -0.5625,-5.36719 -1.695312,-5.93359 v 8.47656 l -2.117188,3.38672 9.75,-2.53906 6.78125,-0.84766 h 19.496094 v 5.92969 H 72.054688 l -3.390626,-1.26953 -1.695312,4.23828 2.964844,3.8125 L 73.75,147.5625 H 95.789062 V 131.88281 H 74.597656 l -7.628906,0.84766 -8.480469,1.69531 M 40.6875,90.355469 l -2.964844,-2.117188 4.660156,-3.390625 2.96875,7.203125 -4.664062,-1.695312 m 19.496094,-2.542969 -6.78125,4.238281 c 1.695312,-1.414062 2.402344,-3.671875 2.121094,-6.78125 L 60.183594,87.8125 M 9.324219,82.304688 6.359375,83.152344 C 6.359375,84 7.488281,84.566406 9.75,84.847656 l 1.695312,3.390625 1.695313,4.238281 -0.847656,5.929688 0.847656,5.50781 v -1.6914 l 1.695313,-1.69532 0.847656,4.23438 -0.847656,3.39062 3.390624,3.39063 c 0.5625,2.26172 0.28125,3.95312 -0.847656,5.08594 h -3.390625 l -1.273437,-3.39063 v -3.39062 L 9.324219,100.94922 8.054688,90.78125 C 6.074219,92.476562 5.511719,95.441406 6.359375,99.679688 L 8.476562,109 C 2.824219,103.63281 0.847656,93.886719 2.542969,79.761719 l 7.628906,-1.695313 1.695313,2.121094 0.847656,3.390625 -3.390625,-1.273437 m 99.179691,-4.660157 c 2.54297,0 4.80468,0.988281 6.78125,2.964844 l 2.54297,6.355469 -2.54297,6.355468 c -1.97657,1.980469 -4.23828,2.96875 -6.78125,2.96875 -2.54297,0 -4.80469,-0.988281 -6.78125,-2.96875 -1.69532,-1.691406 -2.542972,-3.8125 -2.542972,-6.355468 0,-2.542969 0.847652,-4.660156 2.542972,-6.355469 1.97656,-1.976563 4.23828,-2.964844 6.78125,-2.964844 M 68.238281,81.035156 C 68.519531,78.207031 67.816406,76.9375 66.121094,77.21875 l -26.28125,-2.539062 c -2.257813,-1.132813 -4.519532,-1.132813 -6.78125,0 l -6.78125,3.386718 c -1.695313,1.132813 -1.695313,1.695313 0,1.695313 l 4.238281,-0.421875 h 4.664063 l 7.628906,2.542968 -7.628906,5.082032 2.542968,-3.8125 -3.390625,2.117187 -2.96875,2.96875 h 3.816407 l 5.933593,3.8125 8.050781,2.542969 c 3.675782,0 6.78125,-0.988281 9.324219,-2.964844 l 3.390625,-3.816406 -4.238281,-4.234375 5.933594,-0.847656 3.816406,2.964843 0.847656,-4.660156 M 73.324219,0.101562 h 5.085937 l -0.421875,67.796876 h 7.203125 c 2.261719,0 4.378906,-0.988282 6.359375,-2.964844 l 2.542969,-6.78125 -0.425781,-44.917969 c 12.714841,2.828125 21.191411,8.195313 25.429691,16.101563 4.23828,7.347656 7.0664,15.960937 8.47656,25.851562 L 128,72.136719 H 99.179688 c -3.675782,0 -7.207032,1.550781 -10.597657,4.660156 -3.957031,3.390625 -5.933593,7.625 -5.933593,12.710937 v 31.355468 l -5.507813,2.96875 c -3.675781,0 -6.5,-1.27344 -8.476563,-3.8125 -2.542968,-0.28515 -4.238281,0.28125 -5.089843,1.69141 -0.5625,-1.97656 -0.140625,-3.67188 1.273437,-5.08203 C 64,115.78125 63.152344,116.0625 62.304688,117.47656 l -1.273438,4.23438 3.394531,2.12109 3.390625,-1.27344 3.390625,1.69532 3.8125,2.12109 h 16.53125 l 5.085938,-25 h 26.277341 l 0.42188,1.26953 c 0.84765,7.0625 0.28515,11.58203 -1.69531,13.5586 -2.82422,2.54296 -6.21485,8.05078 -10.17188,16.52734 -4.23828,8.75781 -6.49609,15.2539 -6.78125,19.49219 l -2.96484,11.4414 -3.81641,3.8125 -19.496094,0.42188 -0.847656,-7.20313 -3.8125,7.20313 -16.53125,-0.42188 -7.207031,-5.50781 c -4.238281,-4.23828 -7.0625,-9.03906 -8.476563,-14.40625 C 40.6875,144.45312 38.570312,140.5 35.179688,135.69531 l -7.628907,-12.28906 c -4.804687,-9.60156 -8.054687,-18.92578 -9.75,-27.964844 -1.695312,-9.605468 -2.261719,-21.046875 -1.695312,-34.324218 l 1.273437,-10.59375 5.085938,-16.949219 6.78125,-12.289063 C 34.332031,14.222656 41.394531,8.574219 50.4375,4.335938 L 57.21875,2.21875 73.324219,0.101562"
       id="path2"
       inkscape:connector-curvature="0" />
  </g>
</svg>
