<?xml version="1.0" encoding="UTF-8" standalone="no"?>
<svg
   xmlns:dc="http://purl.org/dc/elements/1.1/"
   xmlns:cc="http://creativecommons.org/ns#"
   xmlns:rdf="http://www.w3.org/1999/02/22-rdf-syntax-ns#"
   xmlns:svg="http://www.w3.org/2000/svg"
   xmlns="http://www.w3.org/2000/svg"
   xmlns:sodipodi="http://sodipodi.sourceforge.net/DTD/sodipodi-0.dtd"
   xmlns:inkscape="http://www.inkscape.org/namespaces/inkscape"
   width="127pt"
   height="78pt"
   viewBox="0 0 127 78"
   version="1.1"
   id="svg5"
   sodipodi:docname="icon_29.svg"
   inkscape:version="0.92.1 r15371">
  <metadata
     id="metadata11">
    <rdf:RDF>
      <cc:Work
         rdf:about="">
        <dc:format>image/svg+xml</dc:format>
        <dc:type
           rdf:resource="http://purl.org/dc/dcmitype/StillImage" />
      </cc:Work>
    </rdf:RDF>
  </metadata>
  <defs
     id="defs9" />
  <sodipodi:namedview
     pagecolor="#ffffff"
     bordercolor="#666666"
     borderopacity="1"
     objecttolerance="10"
     gridtolerance="10"
     guidetolerance="10"
     inkscape:pageopacity="0"
     inkscape:pageshadow="2"
     inkscape:window-width="1366"
     inkscape:window-height="685"
     id="namedview7"
     showgrid="false"
     inkscape:zoom="2.1496063"
     inkscape:cx="-9.7692308"
     inkscape:cy="52"
     inkscape:window-x="0"
     inkscape:window-y="0"
     inkscape:window-maximized="1"
     inkscape:current-layer="surface1" />
  <g
     id="surface1">
    <path
       style="fill:#00ff00;fill-opacity:1;fill-rule:nonzero;stroke:none"
       d="M 39.417969,52.738281 35.636719,54 l -1.570313,3.789062 1.570313,4.105469 3.78125,1.578125 3.777343,-1.578125 c 1.046876,-1.050781 1.574219,-2.421875 1.574219,-4.105469 L 43.195312,54 39.417969,52.738281 M 64.285156,57.789062 62.714844,54 c -1.050782,-0.84375 -2.3125,-1.261719 -3.78125,-1.261719 L 55.15625,54 l -1.574219,3.789062 1.574219,4.105469 3.777344,1.578125 c 1.46875,0 2.730468,-0.523437 3.78125,-1.578125 l 1.570312,-4.105469 m 19.519532,0 L 82.546875,54 78.769531,52.738281 74.992188,54 73.101562,57.789062 c 0,1.683594 0.628907,3.054688 1.890626,4.105469 l 3.777343,1.578125 3.777344,-1.578125 1.257813,-4.105469 m 18.261722,4.105469 1.57422,-4.105469 L 102.06641,54 97.972656,52.738281 94.195312,54 l -1.261718,3.789062 1.261718,4.105469 3.777344,1.578125 4.093754,-1.578125 M 80.972656,0 h 4.40625 v 21.15625 l 3.777344,-0.3125 2.207031,0.628906 0.628907,3.160156 V 38.84375 l 17.000002,0.945312 c 6.92578,0.632813 11.12109,2 12.58984,4.105469 3.57031,4.210938 4.19922,9.15625 1.89063,14.84375 -1.89063,5.050781 -5.14063,9.261719 -9.75782,12.628907 -5.25,3.789062 -13.64453,6 -25.187496,6.632812 L 46.34375,76.738281 12.972656,70.421875 11.710938,73.894531 C 10.453125,75.578125 9.195312,76.210938 7.933594,75.789062 6.253906,76.210938 5.417969,74.84375 5.417969,71.683594 V 66.949219 L 0.0625,62.210938 c 0,-1.472657 1.050781,-2.949219 3.148438,-4.421876 L 6.359375,56.527344 6.046875,41.683594 6.988281,37.894531 8.25,37.578125 h 1.257812 c 1.050782,0.210937 1.890626,0.84375 2.519532,1.894531 l 1.257812,3.789063 0.632813,10.421875 20.460937,-7.261719 c 7.765625,-2.738281 18.15625,-4.949219 31.167969,-6.632813 v -8.839843 c 0,-3.160157 0.628906,-4.949219 1.886719,-5.371094 L 80.972656,22.105469 V 0"
       id="path2"
       inkscape:connector-curvature="0" />
  </g>
</svg>
