<?xml version="1.0" encoding="UTF-8" standalone="no"?>
<svg
   xmlns:dc="http://purl.org/dc/elements/1.1/"
   xmlns:cc="http://creativecommons.org/ns#"
   xmlns:rdf="http://www.w3.org/1999/02/22-rdf-syntax-ns#"
   xmlns:svg="http://www.w3.org/2000/svg"
   xmlns="http://www.w3.org/2000/svg"
   xmlns:sodipodi="http://sodipodi.sourceforge.net/DTD/sodipodi-0.dtd"
   xmlns:inkscape="http://www.inkscape.org/namespaces/inkscape"
   width="128pt"
   height="128pt"
   viewBox="0 0 128 128"
   version="1.1"
   id="svg5"
   sodipodi:docname="icon_132.svg"
   inkscape:version="0.92.1 r15371">
  <metadata
     id="metadata11">
    <rdf:RDF>
      <cc:Work
         rdf:about="">
        <dc:format>image/svg+xml</dc:format>
        <dc:type
           rdf:resource="http://purl.org/dc/dcmitype/StillImage" />
      </cc:Work>
    </rdf:RDF>
  </metadata>
  <defs
     id="defs9" />
  <sodipodi:namedview
     pagecolor="#ffffff"
     bordercolor="#666666"
     borderopacity="1"
     objecttolerance="10"
     gridtolerance="10"
     guidetolerance="10"
     inkscape:pageopacity="0"
     inkscape:pageshadow="2"
     inkscape:window-width="1366"
     inkscape:window-height="685"
     id="namedview7"
     showgrid="false"
     inkscape:zoom="1.3828125"
     inkscape:cx="-61.468927"
     inkscape:cy="85.333333"
     inkscape:window-x="0"
     inkscape:window-y="0"
     inkscape:window-maximized="1"
     inkscape:current-layer="surface1" />
  <g
     id="surface1">
    <path
       style="fill:#00ff00;fill-opacity:1;fill-rule:nonzero;stroke:none"
       d="m 8.402344,64 c 0,8.402344 1.941406,16.699219 5.820312,24.890625 V 39.109375 C 10.34375,47.300781 8.402344,55.597656 8.402344,64 M 25.535156,46.222656 22.949219,45.574219 h -1.617188 l -1.9375,-0.644531 1.292969,-0.324219 H 18.746094 V 96 c 7.972656,11.85156 19.070312,19.28516 33.292968,22.30469 h 5.820313 v -0.64844 l -0.324219,-1.9375 0.648438,-0.64844 v -2.26172 l -2.585938,-4.84765 -0.324218,-1.94141 -0.324219,-0.96875 -0.324219,-7.433592 0.972656,-2.261719 v -4.203125 l 0.320313,-2.261719 v -1.292969 l -0.96875,-3.878906 -0.96875,1.9375 -1.292969,1.617188 v 0.324218 l -0.648438,0.320313 -0.320312,0.648437 -2.910156,3.230469 -1.617188,2.910156 -0.644531,1.617188 -3.558594,5.816411 -1.613281,2.26171 -0.972656,2.58594 -0.644532,2.26563 -0.324218,2.58593 -0.324219,0.32032 v 0.32422 l -2.90625,-0.96875 -3.234375,-2.26172 v -0.32422 h 0.324219 l 1.617187,-0.32422 1.292969,-0.64453 0.96875,-1.94141 2.910156,-10.98828 4.199219,-6.140625 1.941406,-1.617187 V 86.625 l 1.9375,-1.9375 0.648438,-1.941406 v -0.644532 l 1.292968,-3.878906 0.644532,-1.941406 0.324218,-1.9375 1.292969,-1.941406 2.261719,-3.878906 1.292969,-5.167969 V 60.769531 L 56.890625,58.503906 55.597656,54.625 54.949219,53.011719 V 51.394531 L 53.65625,49.777344 V 48.484375 C 53.226562,47.621094 52.6875,47.191406 52.039062,47.191406 l -0.96875,0.324219 h -3.230468 l -1.941406,-0.648437 -1.617188,0.324218 -3.230469,-0.324218 -1.292969,0.324218 h -1.292968 l -2.261719,0.324219 -2.910156,-0.648437 -1.617188,-0.320313 -0.96875,-0.324219 h -1.9375 l -1.292969,-0.648437 c -0.21875,0.433593 -0.863281,0.648437 -1.941406,0.648437 M 26.183594,33.617188 25.210938,32.644531 H 24.566406 L 23.917969,32.324219 H 23.273438 L 22.625,32 21.011719,30.707031 h 1.292969 -0.648438 c -0.644531,0 -1.183594,-0.214843 -1.617188,-0.644531 l -1.292968,2.261719 V 42.34375 L 21.011719,42.019531 22.625,41.695312 H 21.65625 L 20.363281,41.375 19.71875,40.726562 22.625,40.402344 l 0.972656,0.648437 h 1.292969 l 2.90625,1.292969 h 1.617187 l 0.96875,0.324219 2.261719,-0.324219 h 4.203125 l 1.941406,-0.324219 1.613282,0.648438 3.878906,-0.324219 h 2.265625 l -1.941406,-0.324219 -5.171875,-1.9375 -0.96875,-0.648437 -1.292969,-0.324219 -5.816406,-3.230469 -3.234375,-1.941406 -1.9375,-0.320312 m 0.320312,-5.496094 0.648438,0.324218 2.261718,2.261719 0.96875,0.648438 2.585938,0.96875 5.171875,0.96875 0.324219,0.324219 2.910156,1.613281 2.261719,1.292969 h 0.96875 l 1.292969,0.648437 4.203124,1.292969 4.847657,0.644531 2.585937,0.972656 1.941406,-0.324219 1.292969,-1.941406 v -0.644531 l -0.648437,-1.941406 h -0.324219 l -0.96875,-1.613281 V 32 h 0.648437 c -0.21875,-2.371094 0.535157,-3.988281 2.261719,-4.847656 H 25.210938 l 1.292968,0.96875 M 113.77734,88.566406 C 117.65625,80.808594 119.59766,72.621094 119.59766,64 c 0,-8.621094 -1.94141,-16.808594 -5.82032,-24.566406 V 88.566406 M 101.49609,22.949219 C 90.9375,13.253906 78.4375,8.402344 64,8.402344 c -14.4375,0 -26.9375,4.851562 -37.496094,14.546875 H 101.49609 M 74.988281,47.191406 73.375,47.839844 l -1.292969,7.109375 -0.648437,1.292969 -0.96875,6.464843 -0.96875,-0.324219 0.320312,2.910157 0.648438,1.292969 v 2.585937 h 0.324218 v -0.324219 l 0.320313,0.324219 1.292969,1.9375 2.265625,5.820313 2.585937,7.757812 -0.648437,1.292969 0.648437,1.617187 1.613282,1.613282 0.972656,-0.320313 1.613281,4.847656 3.234375,7.433599 2.585938,5.17187 H 86.625 v 0.64453 l 0.648438,-0.64453 2.261718,1.9375 h 3.554688 l 3.554687,-1.9375 0.648438,0.96875 -0.96875,1.29297 -3.878907,2.26172 h -2.585937 l -1.941406,0.97265 -1.292969,1.9375 -0.96875,-0.64453 0.648438,-2.91015 -1.292969,-2.26172 0.320312,-0.32422 -0.644531,-0.64844 h -0.324219 l -3.878906,-5.17187 -1.617187,-1.61328 c -1.9375,-2.156255 -2.800782,-3.773442 -2.585938,-4.847661 l 0.648438,-0.972657 -0.96875,-1.9375 -1.941407,-1.617187 h -0.324219 v 0.648437 H 73.375 l -2.910156,-6.464843 -0.324219,4.523437 -0.324219,0.324219 -0.644531,-0.324219 v 1.292969 l 0.96875,1.941406 -0.644531,2.261719 0.644531,-0.324219 -0.324219,0.648438 -1.613281,11.632811 v 4.20313 h -0.324219 l 0.324219,0.64843 1.292969,1.9375 2.90625,0.96875 3.558594,0.64844 v 1.29297 l -2.585938,0.96875 -2.910156,0.32422 -2.261719,-0.96875 -1.941406,0.96875 h -0.96875 v -0.32422 l 0.324219,-1.9375 v -3.23437 l 0.320312,-0.32422 -1.292969,-4.19922 v -0.32422 c -1.289062,-5.38672 -1.289062,-8.726564 0,-10.019532 l 0.972657,-0.324219 v -2.585938 l -0.648438,-1.9375 -0.324219,-1.292969 H 64.324219 V 91.152344 L 64,84.363281 l -0.644531,-4.203125 -0.648438,2.265625 -0.96875,3.554688 0.324219,2.585937 -0.324219,1.9375 v 0.972656 l -0.648437,0.96875 v 0.96875 l -0.320313,0.96875 -0.324219,0.648438 -0.648437,2.585938 0.648437,1.9375 0.324219,3.878902 -0.324219,1.61719 0.324219,0.96875 v 0.32422 l 0.644531,5.49609 0.96875,1.61329 v 1.29296 l 0.648438,0.97266 1.613281,1.29297 0.324219,0.96875 v 0.32422 h 10.992188 c 14.222656,-3.01953 25.535152,-10.5625 33.937502,-22.628909 l -0.32422,-50.421875 -4.52344,-0.324218 v 0.324218 l 3.23047,0.320313 -0.32031,0.648437 h -6.46485 v 0.644532 h -1.29296 v -0.96875 l -5.820318,0.324218 -0.644531,0.644532 -2.261719,0.324218 -2.585937,-0.644531 v -0.648437 h -0.324219 l -1.617187,0.96875 -0.644531,-0.320313 H 85.980469 L 74.988281,47.191406 M 86.625,39.757812 h -0.320312 l -8.730469,3.230469 8.730469,0.648438 0.644531,-0.324219 0.96875,0.324219 0.648437,0.644531 0.324219,-0.320312 V 43.3125 l 3.878906,-0.644531 6.785157,0.320312 h 0.324218 V 43.3125 h 0.324224 V 41.695312 L 101.17188,41.375 v 0.644531 l 1.61718,-0.644531 2.58594,-0.648438 2.90625,1.292969 v 0.648438 l 1.29297,0.320312 V 32.324219 l -1.61328,-2.261719 -3.5586,1.292969 2.91016,-0.648438 v 0.96875 l -5.49609,1.617188 0.32422,0.324219 -0.96875,0.644531 -0.64844,-0.96875 -6.140628,3.230469 -0.644531,0.648437 -1.941406,1.292969 -1.9375,0.644531 h -0.96875 v -0.96875 L 88.566406,38.464844 86.625,39.757812 m -0.644531,-3.234374 h 1.9375 l -0.320313,-0.644532 v -0.324218 l 0.320313,-0.644532 4.527343,-1.617187 c 3.230469,-0.863281 5.171876,-1.722657 5.816407,-2.585938 h 0.324219 l 0.324218,0.648438 h 0.320313 l -0.96875,-1.292969 0.324219,-0.648438 0.96875,0.324219 1.292972,-1.292969 2.26172,-1.292968 H 66.261719 l 1.292969,0.644531 0.96875,4.527344 h 0.648437 v 1.292969 l -0.648437,0.96875 -0.320313,0.644531 -0.648437,1.941406 -0.644532,0.96875 1.613282,2.585937 c 1.292968,-1.722656 3.019531,-2.585937 5.171874,-2.585937 l 2.585938,0.648437 9.050781,-1.617187 0.324219,-0.324219 v -0.324218 h 0.324219 m 27.152341,-13.574219 0.64453,0.96875 C 123.25781,35.554688 128,48.914062 128,64 128,81.671875 121.75,96.753906 109.25391,109.25391 96.753906,121.75 81.671875,128 64,128 46.328125,128 31.246094,121.75 18.746094,109.25391 6.25,96.753906 0,81.671875 0,64 0,48.914062 4.742188,35.449219 14.222656,23.597656 l 0.644532,-0.648437 C 20.902344,15.839844 28.121094,10.234375 36.523438,6.140625 45.144531,2.046875 54.304688,0 64,0 c 9.695312,0 18.855469,2.046875 27.476562,6.140625 8.402344,4.09375 15.621098,9.699219 21.656248,16.808594"
       id="path2"
       inkscape:connector-curvature="0" />
  </g>
</svg>
