<?xml version="1.0" encoding="UTF-8"?>
<svg xmlns="http://www.w3.org/2000/svg" xmlns:xlink="http://www.w3.org/1999/xlink" width="127pt" height="122pt" viewBox="0 0 127 122" version="1.1">
<g id="surface1">
<path style=" stroke:none;fill-rule:nonzero;fill:rgb(100%,100%,100%);fill-opacity:1;" d="M 46.292969 28.238281 L 38.984375 28.238281 L 38.984375 42.628906 L 46.292969 42.628906 L 46.292969 28.238281 M 58.476562 28.238281 L 52.078125 28.238281 L 52.078125 42.628906 L 58.476562 42.628906 L 58.476562 28.238281 M 32.890625 28.238281 L 26.191406 28.238281 L 26.191406 42.628906 L 32.890625 42.628906 L 32.890625 28.238281 M 104.460938 96.824219 L 102.636719 96.824219 L 89.539062 97.742188 C 84.667969 98.96875 82.230469 101.621094 82.230469 105.707031 C 82.230469 111.421875 89.03125 113.5625 102.636719 112.136719 C 111.976562 111.113281 116.644531 108.5625 116.644531 104.480469 L 114.207031 99.886719 C 112.585938 98.664062 110.453125 97.742188 107.8125 97.132812 L 107.8125 106.011719 L 104.460938 106.011719 L 104.460938 96.824219 M 73.09375 11.394531 L 107.8125 0.0664062 L 107.8125 91.3125 C 114.105469 92.539062 118.574219 94.273438 121.214844 96.519531 C 125.070312 99.785156 125.476562 104.277344 122.433594 109.992188 C 121.011719 112.644531 117.253906 115.09375 111.164062 117.339844 L 91.0625 121.015625 C 77.863281 121.628906 66.902344 121.527344 58.171875 120.710938 C 47.207031 119.6875 36.546875 117.238281 26.191406 113.359375 C 14.210938 109.074219 7.003906 103.460938 4.566406 96.519531 C 1.523438 87.945312 7.917969 80.496094 23.753906 74.167969 C 38.78125 68.042969 53.398438 67.429688 67.613281 72.328125 C 75.734375 75.390625 82.433594 79.472656 87.710938 84.578125 L 91.0625 87.027344 C 93.703125 88.863281 96.542969 89.988281 99.589844 90.394531 L 104.460938 90.703125 L 104.460938 22.113281 L 73.09375 11.394531 M 69.4375 26.707031 L 69.4375 28.238281 L 63.957031 28.238281 L 63.957031 42.628906 L 68.21875 42.628906 L 68.21875 52.734375 L 42.941406 49.363281 L 16.445312 52.425781 L 16.445312 42.628906 L 20.710938 42.628906 L 20.710938 28.238281 L 15.226562 28.238281 L 15.226562 26.707031 L 13.402344 26.707031 L 13.402344 24.5625 L 42.332031 12.621094 L 71.265625 24.5625 L 71.265625 26.707031 L 69.4375 26.707031 "/>
</g>
</svg>
