<?xml version="1.0" encoding="UTF-8" standalone="no"?>
<svg
   xmlns:dc="http://purl.org/dc/elements/1.1/"
   xmlns:cc="http://creativecommons.org/ns#"
   xmlns:rdf="http://www.w3.org/1999/02/22-rdf-syntax-ns#"
   xmlns:svg="http://www.w3.org/2000/svg"
   xmlns="http://www.w3.org/2000/svg"
   xmlns:sodipodi="http://sodipodi.sourceforge.net/DTD/sodipodi-0.dtd"
   xmlns:inkscape="http://www.inkscape.org/namespaces/inkscape"
   width="127pt"
   height="122pt"
   viewBox="0 0 127 122"
   version="1.1"
   id="svg5"
   sodipodi:docname="icon_185.svg"
   inkscape:version="0.92.1 r15371">
  <metadata
     id="metadata11">
    <rdf:RDF>
      <cc:Work
         rdf:about="">
        <dc:format>image/svg+xml</dc:format>
        <dc:type
           rdf:resource="http://purl.org/dc/dcmitype/StillImage" />
      </cc:Work>
    </rdf:RDF>
  </metadata>
  <defs
     id="defs9" />
  <sodipodi:namedview
     pagecolor="#ffffff"
     bordercolor="#666666"
     borderopacity="1"
     objecttolerance="10"
     gridtolerance="10"
     guidetolerance="10"
     inkscape:pageopacity="0"
     inkscape:pageshadow="2"
     inkscape:window-width="1366"
     inkscape:window-height="685"
     id="namedview7"
     showgrid="false"
     inkscape:zoom="1.4508197"
     inkscape:cx="-55.254237"
     inkscape:cy="81.333333"
     inkscape:window-x="0"
     inkscape:window-y="0"
     inkscape:window-maximized="1"
     inkscape:current-layer="surface1" />
  <g
     id="surface1">
    <path
       style="fill:#00ff00;fill-opacity:1;fill-rule:nonzero;stroke:none"
       d="m 46.292969,28.238281 h -7.308594 v 14.390625 h 7.308594 V 28.238281 m 12.183593,0 h -6.398437 v 14.390625 h 6.398437 V 28.238281 m -25.585937,0 h -6.699219 v 14.390625 h 6.699219 V 28.238281 m 71.570315,68.585938 h -1.82422 l -13.097658,0.917969 c -4.871093,1.226562 -7.308593,3.878902 -7.308593,7.964842 0,5.71485 6.800781,7.85547 20.406251,6.42969 9.33984,-1.02344 14.00781,-3.57422 14.00781,-7.65625 l -2.4375,-4.593751 c -1.62109,-1.222657 -3.7539,-2.144531 -6.39453,-2.753907 v 8.878908 h -3.35156 V 96.824219 M 73.09375,11.394531 107.8125,0.0664062 V 91.3125 c 6.29297,1.226562 10.76172,2.960938 13.40234,5.207031 3.85547,3.265625 4.26172,7.757809 1.21875,13.472659 -1.42187,2.65234 -5.17968,5.10156 -11.26953,7.34765 l -20.10156,3.67579 c -13.199219,0.61328 -24.160156,0.51171 -32.890625,-0.30469 -10.964844,-1.02344 -21.625,-3.47266 -31.980469,-7.35156 -11.980468,-4.28516 -19.1875,-9.89844 -21.625,-16.839849 -3.042968,-8.574219 3.351563,-16.023437 19.1875,-22.351562 15.027344,-6.125 29.644532,-6.738281 43.859375,-1.839844 8.121094,3.0625 14.820313,7.144531 20.097657,12.25 l 3.351562,2.449219 c 2.640625,1.835937 5.480469,2.960937 8.527344,3.367187 l 4.871096,0.308594 V 22.113281 L 73.09375,11.394531 m -3.65625,15.3125 v 1.53125 h -5.480469 v 14.390625 h 4.261719 v 10.105469 l -25.277344,-3.371094 -26.496094,3.0625 v -9.796875 h 4.265626 V 28.238281 h -5.484376 v -1.53125 H 13.402344 V 24.5625 L 42.332031,12.621094 71.265625,24.5625 v 2.144531 H 69.4375"
       id="path2"
       inkscape:connector-curvature="0" />
  </g>
</svg>
