<?xml version="1.0" encoding="UTF-8" standalone="no"?>
<svg
   xmlns:dc="http://purl.org/dc/elements/1.1/"
   xmlns:cc="http://creativecommons.org/ns#"
   xmlns:rdf="http://www.w3.org/1999/02/22-rdf-syntax-ns#"
   xmlns:svg="http://www.w3.org/2000/svg"
   xmlns="http://www.w3.org/2000/svg"
   xmlns:sodipodi="http://sodipodi.sourceforge.net/DTD/sodipodi-0.dtd"
   xmlns:inkscape="http://www.inkscape.org/namespaces/inkscape"
   width="128pt"
   height="157pt"
   viewBox="0 0 128 157"
   version="1.1"
   id="svg5"
   sodipodi:docname="icon_102.svg"
   inkscape:version="0.92.1 r15371">
  <metadata
     id="metadata11">
    <rdf:RDF>
      <cc:Work
         rdf:about="">
        <dc:format>image/svg+xml</dc:format>
        <dc:type
           rdf:resource="http://purl.org/dc/dcmitype/StillImage" />
      </cc:Work>
    </rdf:RDF>
  </metadata>
  <defs
     id="defs9" />
  <sodipodi:namedview
     pagecolor="#ffffff"
     bordercolor="#666666"
     borderopacity="1"
     objecttolerance="10"
     gridtolerance="10"
     guidetolerance="10"
     inkscape:pageopacity="0"
     inkscape:pageshadow="2"
     inkscape:window-width="1366"
     inkscape:window-height="685"
     id="namedview7"
     showgrid="false"
     inkscape:zoom="1.1273885"
     inkscape:cx="-94.728814"
     inkscape:cy="104.66667"
     inkscape:window-x="0"
     inkscape:window-y="0"
     inkscape:window-maximized="1"
     inkscape:current-layer="surface1" />
  <g
     id="surface1">
    <path
       style="fill:#00ff00;fill-opacity:1;fill-rule:nonzero;stroke:none"
       d="m 97.695312,156.99609 v -45.59375 h 13.558598 v 45.59375 H 97.695312 M 118.03125,111.40234 H 128 v 45.59375 h -9.96875 V 111.40234 M 0,111.40234 h 9.96875 v 45.59375 H 0 v -45.59375 m 49.445312,12.6875 H 32.300781 v 32.90625 H 16.347656 v -45.59375 h 74.566406 v 45.59375 H 49.445312 V 124.08984 M 64.199219,25.378906 c 3.457031,0 6.777343,0.921875 9.96875,2.773438 l 6.378906,7.929687 V 0.00390625 C 94.371094,3.707031 105.66797,11.105469 114.44141,22.207031 123.48047,33.835938 128,46.917969 128,61.453125 V 96.339844 H 0 V 61.453125 C 0,46.917969 4.386719,33.835938 13.160156,22.207031 22.199219,11.105469 33.628906,3.707031 47.453125,0.00390625 V 36.082031 l 6.378906,-7.929687 10.367188,-2.773438 M 80.546875,50.75 c -3.1875,7.136719 -8.636719,10.703125 -16.347656,10.703125 L 53.832031,58.679688 47.453125,50.75 v 31.714844 h 33.09375 V 50.75"
       id="path2"
       inkscape:connector-curvature="0" />
  </g>
</svg>
