<?xml version="1.0" encoding="UTF-8" standalone="no"?>
<svg
   xmlns:dc="http://purl.org/dc/elements/1.1/"
   xmlns:cc="http://creativecommons.org/ns#"
   xmlns:rdf="http://www.w3.org/1999/02/22-rdf-syntax-ns#"
   xmlns:svg="http://www.w3.org/2000/svg"
   xmlns="http://www.w3.org/2000/svg"
   xmlns:sodipodi="http://sodipodi.sourceforge.net/DTD/sodipodi-0.dtd"
   xmlns:inkscape="http://www.inkscape.org/namespaces/inkscape"
   width="128pt"
   height="144pt"
   viewBox="0 0 128 144"
   version="1.1"
   id="svg5"
   sodipodi:docname="industrial-dome.svg"
   inkscape:version="0.92.1 r15371">
  <metadata
     id="metadata11">
    <rdf:RDF>
      <cc:Work
         rdf:about="">
        <dc:format>image/svg+xml</dc:format>
        <dc:type
           rdf:resource="http://purl.org/dc/dcmitype/StillImage" />
      </cc:Work>
    </rdf:RDF>
  </metadata>
  <defs
     id="defs9" />
  <sodipodi:namedview
     pagecolor="#ffffff"
     bordercolor="#666666"
     borderopacity="1"
     objecttolerance="10"
     gridtolerance="10"
     guidetolerance="10"
     inkscape:pageopacity="0"
     inkscape:pageshadow="2"
     inkscape:window-width="1366"
     inkscape:window-height="685"
     id="namedview7"
     showgrid="false"
     inkscape:zoom="1.2291667"
     inkscape:cx="-79.819209"
     inkscape:cy="96"
     inkscape:window-x="0"
     inkscape:window-y="0"
     inkscape:window-maximized="1"
     inkscape:current-layer="surface1" />
  <g
     id="surface1">
    <path
       style="fill:#00ff00;fill-opacity:1;fill-rule:nonzero;stroke:none"
       d="M 103.08984,82.910156 C 94.324219,93.574219 83.242188,99.636719 69.84375,101.08984 v 24.72657 h 33.24609 V 82.910156 M 24.910156,125.81641 H 58.15625 V 101.08984 C 44.757812,99.636719 33.675781,93.574219 24.910156,82.910156 V 125.81641 M 0.0664062,144 V 125.81641 H 13.21875 V 49.816406 h 101.5625 v 76.000004 h 13.15234 V 144 H 0.0664062 M 64,0 c 12.421875,0 23.257812,4 32.515625,12 9.496095,7.757812 15.343755,17.695312 17.535155,29.816406 H 13.949219 C 16.140625,29.695312 21.988281,19.757812 31.484375,12 40.742188,4 51.578125,0 64,0"
       id="path2"
       inkscape:connector-curvature="0" />
  </g>
</svg>
