<?xml version="1.0" encoding="UTF-8" standalone="no"?>
<svg
   xmlns:dc="http://purl.org/dc/elements/1.1/"
   xmlns:cc="http://creativecommons.org/ns#"
   xmlns:rdf="http://www.w3.org/1999/02/22-rdf-syntax-ns#"
   xmlns:svg="http://www.w3.org/2000/svg"
   xmlns="http://www.w3.org/2000/svg"
   xmlns:sodipodi="http://sodipodi.sourceforge.net/DTD/sodipodi-0.dtd"
   xmlns:inkscape="http://www.inkscape.org/namespaces/inkscape"
   width="127pt"
   height="119pt"
   viewBox="0 0 127 119"
   version="1.1"
   id="svg5"
   sodipodi:docname="irish-pride.svg"
   inkscape:version="0.92.1 r15371">
  <metadata
     id="metadata11">
    <rdf:RDF>
      <cc:Work
         rdf:about="">
        <dc:format>image/svg+xml</dc:format>
        <dc:type
           rdf:resource="http://purl.org/dc/dcmitype/StillImage" />
      </cc:Work>
    </rdf:RDF>
  </metadata>
  <defs
     id="defs9" />
  <sodipodi:namedview
     pagecolor="#ffffff"
     bordercolor="#666666"
     borderopacity="1"
     objecttolerance="10"
     gridtolerance="10"
     guidetolerance="10"
     inkscape:pageopacity="0"
     inkscape:pageshadow="2"
     inkscape:window-width="1366"
     inkscape:window-height="685"
     id="namedview7"
     showgrid="false"
     inkscape:zoom="1.487395"
     inkscape:cx="-51.813559"
     inkscape:cy="79.333333"
     inkscape:window-x="0"
     inkscape:window-y="0"
     inkscape:window-maximized="1"
     inkscape:current-layer="surface1" />
  <g
     id="surface1">
    <path
       style="fill:#00ff00;fill-opacity:1;fill-rule:nonzero;stroke:none"
       d="m 80.15625,11.046875 c 1.257812,5.050781 1.046875,10.207031 -0.628906,15.46875 l -5.65625,15.148437 c -2.09375,5.050782 -3.039063,7.894532 -2.828125,8.523438 l 7.855469,-8.207031 c 5.867187,-7.152344 11.105468,-11.992188 15.714843,-14.519531 6.707029,-3.789063 12.046879,-5.367188 16.027349,-4.734376 4.40234,0.84375 6.60156,4.417969 6.60156,10.730469 l 0.9414,13.574219 4.71485,8.839844 c 2.72656,3.785156 3.03906,7.46875 0.94531,11.046875 -2.30469,3.789062 -6.39062,5.890625 -12.25781,6.3125 -7.75391,0.84375 -16.656252,-0.527344 -26.714846,-4.101563 L 71.671875,65.023438 c -1.257813,0.84375 4.921875,6.628906 18.542969,17.359374 4.609375,3.578126 7.855468,7.261719 9.742187,11.050782 2.304689,5.257812 1.152349,9.363286 -3.457031,12.308596 -3.980469,2.52734 -7.753906,3.47265 -11.316406,2.83984 -4.398438,-0.6289 -7.644532,-0.6289 -9.742188,0 -5.65625,2.94922 -9.742187,5.15625 -12.253906,6.62891 l -11.628906,0.94922 c -5.867188,-3.15625 -8.277344,-9.15625 -7.230469,-17.992191 0.628906,-6.734375 2.621094,-13.257813 5.972656,-19.570313 1.886719,-3.789062 2.828125,-6.734375 2.828125,-8.839844 L 52.5,67.234375 38.671875,82.070312 C 29.453125,94.484375 24.949219,106.79297 25.15625,119 l -11.628906,-5.05078 3.773437,-11.36328 c 3.140625,-8.417971 6.496094,-14.625002 10.058594,-18.625002 l 15.082031,-13.570313 8.800782,-6.3125 -7.226563,-0.316406 C 38.566406,64.390625 32.386719,67.757812 25.472656,73.863281 18.558594,80.386719 12.691406,82.382812 7.871094,79.859375 4.519531,78.175781 2.214844,75.125 0.957031,70.707031 0.328125,68.390625 0.539062,65.234375 1.585938,61.234375 L 3.785156,51.136719 4.414062,38.824219 C 5.042969,33.5625 6.824219,30.09375 9.757812,28.410156 l 12.257813,-1.265625 c 4.398437,1.265625 8.066406,3.789063 11,7.578125 6.492187,7.574219 12.675781,12.203125 18.542969,13.886719 C 46.320312,39.5625 41.1875,32.617188 36.15625,27.777344 31.339844,23.148438 28.71875,18.832031 28.300781,14.835938 27.882812,11.046875 29.242188,7.890625 32.386719,5.367188 L 42.128906,3.789062 52.1875,4.734375 61.613281,0.632812 72.300781,0 c 3.980469,2.105469 6.597657,5.785156 7.855469,11.046875"
       id="path2"
       inkscape:connector-curvature="0" />
  </g>
</svg>
