<?xml version="1.0" encoding="UTF-8" standalone="no"?>
<svg
   xmlns:dc="http://purl.org/dc/elements/1.1/"
   xmlns:cc="http://creativecommons.org/ns#"
   xmlns:rdf="http://www.w3.org/1999/02/22-rdf-syntax-ns#"
   xmlns:svg="http://www.w3.org/2000/svg"
   xmlns="http://www.w3.org/2000/svg"
   xmlns:sodipodi="http://sodipodi.sourceforge.net/DTD/sodipodi-0.dtd"
   xmlns:inkscape="http://www.inkscape.org/namespaces/inkscape"
   width="128pt"
   height="125pt"
   viewBox="0 0 128 125"
   version="1.1"
   id="svg5"
   sodipodi:docname="junkyard.svg"
   inkscape:version="0.92.1 r15371">
  <metadata
     id="metadata11">
    <rdf:RDF>
      <cc:Work
         rdf:about="">
        <dc:format>image/svg+xml</dc:format>
        <dc:type
           rdf:resource="http://purl.org/dc/dcmitype/StillImage" />
      </cc:Work>
    </rdf:RDF>
  </metadata>
  <defs
     id="defs9" />
  <sodipodi:namedview
     pagecolor="#ffffff"
     bordercolor="#666666"
     borderopacity="1"
     objecttolerance="10"
     gridtolerance="10"
     guidetolerance="10"
     inkscape:pageopacity="0"
     inkscape:pageshadow="2"
     inkscape:window-width="1366"
     inkscape:window-height="685"
     id="namedview7"
     showgrid="false"
     inkscape:zoom="1.416"
     inkscape:cx="-58.028249"
     inkscape:cy="83.333333"
     inkscape:window-x="0"
     inkscape:window-y="0"
     inkscape:window-maximized="1"
     inkscape:current-layer="surface1" />
  <g
     id="surface1">
    <path
       style="fill:#00ff00;fill-opacity:1;fill-rule:nonzero;stroke:none"
       d="m 24.269531,115.95703 c 0.863281,0.64453 1.722657,0.42969 2.585938,-0.64844 l 1.292969,-3.22656 -4.847657,-0.32422 c -0.429687,2.15235 -0.105469,3.55078 0.96875,4.19922 M 35.253906,74.933594 C 34.175781,72.566406 32.992188,71.8125 31.699219,72.675781 l -0.644531,2.582031 0.644531,2.90625 c 1.292969,2.15625 2.585937,2.800782 3.878906,1.9375 1.074219,-1.074218 0.96875,-2.796874 -0.324219,-5.167968 m -4.523437,-46.1875 c -1.722657,1.9375 -1.9375,4.523437 -0.644531,7.753906 1.292968,3.230469 3.015624,4.089844 5.167968,2.582031 v -0.324219 c 1.9375,-1.722656 2.261719,-4.304687 0.96875,-7.75 -1.507812,-3.230468 -3.339844,-3.984374 -5.492187,-2.261718 M 102.4375,116.92578 c 1.29297,-3.23047 0.96875,-5.70703 -0.96875,-7.42969 -1.9375,-1.9375 -3.660156,-1.18359 -5.167969,2.26172 -1.292969,3.44532 -0.96875,6.02735 0.96875,7.75 v 0.32422 c 2.152344,1.50781 3.874999,0.53906 5.167969,-2.90625 M 92.421875,74.289062 c -1.289063,-0.644531 -2.472656,0.109376 -3.550781,2.261719 -1.078125,2.800781 -1.183594,4.628907 -0.324219,5.492188 1.292969,0.859375 2.585937,0.105469 3.875,-2.261719 0.863281,-3.015625 0.863281,-4.847656 0,-5.492188 m 29.394535,16.796876 0.64453,0.324218 1.29297,3.226563 -1.9375,2.910156 v 0.320313 l -1.29297,0.324218 v 0.324219 l -0.32031,0.320313 -0.32422,-0.320313 -2.26172,1.613285 -0.64453,0.32422 h 0.64453 l 6.13672,0.64453 v 0.64843 l -2.58203,1.28907 h -5.49219 l -0.64453,1.29297 c 1.72265,0 2.79687,0.42968 3.22656,1.29296 v 0.64454 l -4.19531,0.96875 v 0.96875 l -0.97266,2.90625 -1.28906,2.58593 c -0.4336,0.64453 -1.1836,0.96875 -2.26172,0.96875 l -0.64453,-0.32422 -0.64844,-3.23046 -0.32422,-0.96875 c 0.21875,4.73828 -1.28906,8.72265 -4.51953,11.95312 l -4.523438,2.58203 c -1.722656,0.21485 -3.335937,-0.42969 -4.84375,-1.9375 -1.507812,-1.9375 -2.152343,-4.41406 -1.9375,-7.42969 l 0.96875,-3.875 0.644532,-1.61328 -3.230469,6.13672 -0.320313,0.32031 -57.496093,-1.9375 -1.289063,3.23047 v 0.32422 L 27.5,122.73828 l -4.84375,0.96875 -3.554688,-4.51953 -0.320312,-5.81641 h -1.9375 l -4.847656,-1.28906 -0.644532,-1.61719 -3.554687,-1.9375 0.324219,-0.32421 3.554687,-1.28907 c 0.429688,-0.86328 1.183594,-1.40234 2.257813,-1.61718 h -0.96875 l -2.90625,-0.96875 0.324218,-0.64454 3.550782,-1.29296 h 1.292968 L 11.675781,97.867188 8.445312,95.285156 7.152344,93.992188 6.507812,92.378906 l 1.9375,-0.324218 2.90625,0.324218 11.949219,1.289063 14.535157,-2.582031 10.335937,-3.875 10.984375,-1.941407 0.320312,0.324219 -1.9375,2.585938 -2.90625,3.875 -1.613281,3.875 1.613281,0.648437 14.210938,-0.972656 1.292969,-4.84375 c 0.214843,-1.722657 0.644531,-2.367188 1.292969,-1.9375 l -0.324219,2.90625 -0.644531,3.554687 0.96875,-0.324218 1.613281,-4.84375 0.96875,-4.523438 v -0.324219 l 3.554687,1.941407 4.519532,5.488281 21.320312,-6.457031 10.33594,-2.261719 h 3.23047 l -0.96875,3.230469 -0.32422,0.96875 h 0.64453 l 1.9375,0.644531 1.61719,0.96875 0.64453,-0.96875 v 0.324219 l -0.32031,0.644531 1.61328,1.292969 M 108.25,35.53125 109.21875,31.332031 H 104.375 l 1.29297,3.230469 c 0.85937,1.074219 1.72266,1.398438 2.58203,0.96875 m -32.945312,2.257812 11.628906,0.324219 13.242186,3.875 3.55469,1.292969 -2.91016,-2.582031 0.64844,-0.96875 4.51953,4.84375 5.81641,2.90625 -1.29297,0.644531 -2.58594,-1.289062 4.52344,7.105468 10.33594,7.75 h 1.9375 l -0.32032,0.324219 h -0.97265 l 2.58594,2.90625 0.32421,-0.324219 v -0.320312 c 0.21485,-0.429688 0.53516,-0.648438 0.96875,-0.648438 h 0.32032 l -0.96875,1.941406 1.29297,1.613282 -1.29297,0.644531 -0.96875,-1.289063 -3.23047,2.90625 0.32422,0.320313 -0.32422,0.648437 -0.64453,-0.648437 -5.16797,2.910156 -18.410159,4.84375 -3.875,6.78125 C 90.699219,88.179688 87.578125,88.5 84.996094,85.269531 h -0.324219 c -1.507813,-1.9375 -2.152344,-4.519531 -1.9375,-7.75 v -0.96875 h -0.96875 l 0.320313,0.96875 -1.289063,0.644531 L 80.148438,76.875 40.746094,75.582031 c 0.429687,3.015625 -0.109375,5.597657 -1.617188,7.75 h -0.324218 c -1.289063,1.722657 -2.796876,2.476563 -4.519532,2.261719 L 29.4375,83.011719 c -2.367188,-2.15625 -3.875,-5.0625 -4.519531,-8.722657 l -0.648438,0.324219 H 23.625 l 0.324219,1.292969 -1.292969,0.644531 -0.324219,-2.261719 C 15.441406,73.210938 9.738281,71.273438 5.214844,68.476562 l -5.167969,-4.847656 0.324219,-0.320312 1.9375,-0.96875 v -0.324219 l 17.765625,-6.136719 3.550781,-3.875 0.96875,-0.648437 8.074219,-0.96875 16.796875,1.617187 4.199218,-0.324218 1.613282,-0.644532 8.078125,-6.460937 11.949219,-6.785157 m 0.324218,4.199219 -0.324218,0.324219 h -0.644532 l -1.292968,0.96875 -8.722657,6.136719 -6.136719,6.785156 9.046876,0.96875 -2.261719,-3.230469 0.644531,-0.648437 1.292969,-0.320313 2.90625,4.519532 h 11.628906 l 8.074219,-1.289063 0.96875,-0.96875 -0.324219,0.644531 v 0.324219 l 6.785156,-1.941406 c -0.863281,-2.582031 -3.015625,-5.167969 -6.460937,-7.75 l -7.105469,-3.230469 -3.554687,-0.96875 -3.875,-0.324219 H 75.628906 M 79.179688,15.179688 77.890625,11.628906 74.980469,7.75 58.832031,4.523438 58.507812,4.84375 v 0.324219 l 2.261719,9.367187 H 62.0625 L 61.417969,11.304688 60.769531,8.074219 h 0.324219 l 1.292969,2.261719 0.96875,4.523437 14.535156,0.96875 c 0.644531,0 1.074219,-0.214844 1.289063,-0.648437 m 46.835942,-3.550782 -0.64454,1.9375 -1.61718,0.96875 -6.46094,7.105469 1.29297,0.324219 3.55469,0.96875 v 0.644531 c -0.4336,0.648437 -1.29297,0.96875 -2.58594,0.96875 l -0.96875,0.324219 2.26172,1.292968 3.55468,1.289063 0.32032,0.648437 -3.55078,1.9375 -0.64844,1.292969 c -1.07422,0.859375 -2.69141,1.398438 -4.84375,1.613281 h -1.9375 l -0.32422,5.8125 c -0.64453,2.371094 -1.82813,3.769532 -3.55078,4.199219 l -4.84766,-0.96875 -3.875,-4.519531 v -0.648438 l -1.292968,-3.230468 -57.816406,1.941406 -3.230468,-6.460938 0.648437,1.613282 0.644531,3.878906 c 0.429688,3.011719 -0.105468,5.488281 -1.613281,7.425781 L 38.160156,42.3125 c -1.292968,1.507812 -2.800781,2.152344 -4.523437,1.9375 l -4.84375,-2.90625 C 25.777344,38.328125 24.378906,34.453125 24.59375,29.714844 l -0.324219,0.96875 -0.644531,2.90625 -0.96875,0.324218 c -0.644531,0.429688 -1.292969,0.109376 -1.9375,-0.96875 l -2.261719,-5.492187 -0.324219,-0.644531 c -1.9375,0.214844 -3.226562,-0.214844 -3.875,-1.292969 v -0.644531 l 2.90625,-0.96875 -0.320312,-1.617188 H 11.351562 C 10.058594,22.070312 9.089844,21.640625 8.445312,20.996094 v -0.324219 l 6.460938,-0.644531 h 0.320312 L 14.90625,19.378906 12.320312,18.085938 h -0.324218 v -0.644532 l -1.289063,-0.324218 -1.941406,-2.90625 1.292969,-3.550782 h 0.324218 l 1.9375,-1.292968 -0.644531,-0.96875 0.320313,-0.324219 0.324218,0.96875 3.875,-1.292969 H 16.84375 L 16.195312,6.78125 15.226562,3.554688 16.519531,3.230469 18.78125,3.554688 29.117188,5.8125 49.464844,11.628906 56.570312,0 h 1.292969 l 8.71875,1.292969 c 6.675781,1.289062 12.492188,3.011719 17.445313,5.167969 l 10.65625,4.199218 14.535156,2.582032 11.62891,-1.613282 3.23047,-0.324218 1.9375,0.324218"
       id="path2"
       inkscape:connector-curvature="0" />
  </g>
</svg>
