<?xml version="1.0" encoding="UTF-8" standalone="no"?>
<svg
   xmlns:dc="http://purl.org/dc/elements/1.1/"
   xmlns:cc="http://creativecommons.org/ns#"
   xmlns:rdf="http://www.w3.org/1999/02/22-rdf-syntax-ns#"
   xmlns:svg="http://www.w3.org/2000/svg"
   xmlns="http://www.w3.org/2000/svg"
   xmlns:sodipodi="http://sodipodi.sourceforge.net/DTD/sodipodi-0.dtd"
   xmlns:inkscape="http://www.inkscape.org/namespaces/inkscape"
   width="128pt"
   height="128pt"
   viewBox="0 0 128 128"
   version="1.1"
   id="svg5"
   sodipodi:docname="landmark.svg"
   inkscape:version="0.92.1 r15371">
  <metadata
     id="metadata11">
    <rdf:RDF>
      <cc:Work
         rdf:about="">
        <dc:format>image/svg+xml</dc:format>
        <dc:type
           rdf:resource="http://purl.org/dc/dcmitype/StillImage" />
      </cc:Work>
    </rdf:RDF>
  </metadata>
  <defs
     id="defs9" />
  <sodipodi:namedview
     pagecolor="#ffffff"
     bordercolor="#666666"
     borderopacity="1"
     objecttolerance="10"
     gridtolerance="10"
     guidetolerance="10"
     inkscape:pageopacity="0"
     inkscape:pageshadow="2"
     inkscape:window-width="1366"
     inkscape:window-height="685"
     id="namedview7"
     showgrid="false"
     inkscape:zoom="1.3828125"
     inkscape:cx="-61.468927"
     inkscape:cy="85.333333"
     inkscape:window-x="0"
     inkscape:window-y="0"
     inkscape:window-maximized="1"
     inkscape:current-layer="surface1" />
  <g
     id="surface1">
    <path
       style="fill:#00ff00;fill-opacity:1;fill-rule:nonzero;stroke:none"
       d="m 105.98828,27.089844 c 5.19531,0 12.53125,19.1875 22.01172,57.566406 l -2.71094,-1.691406 h -4.39843 l -5.41797,-5.082032 -6.4375,-5.753906 c -2.48047,-1.808594 -5.07813,-2.710937 -7.78516,-2.710937 -6.324219,0 -11.289062,2.820312 -14.902344,8.464843 L 85.671875,79.578125 81.945312,82.625 76.867188,77.882812 70.433594,72.128906 c -2.484375,-1.808594 -5.078125,-2.710937 -7.789063,-2.710937 -6.320312,0 -11.285156,2.820312 -14.898437,8.464843 L 47.070312,79.238281 43.34375,82.625 38.265625,77.882812 30.136719,71.109375 c 6.546875,-18.960937 12.53125,-28.441406 17.949219,-28.441406 2.03125,0 4.402343,2.59375 7.109374,7.785156 C 64,16.816406 71.5625,0 77.882812,0 82.171875,0 88.15625,13.433594 95.832031,40.296875 99.441406,31.492188 102.82813,27.089844 105.98828,27.089844 m 3.04688,55.195312 6.4375,5.757813 5.41797,4.738281 h 4.39843 v 10.83594 h -4.73828 c -2.71094,0 -5.30469,-1.01563 -7.78906,-3.04688 l -6.43359,-5.417966 -5.41797,-5.078125 c -0.90235,0 -1.917972,0.675781 -3.046879,2.03125 l -1.355469,1.355469 -0.339843,1.015624 c -3.609375,6.093748 -8.351563,9.140628 -14.222657,9.140628 -2.707031,0 -5.304687,-1.01563 -7.785156,-3.04688 l -6.433594,-5.417966 -5.417968,-5.078125 -4.402344,3.386719 -0.339844,1.015624 c -3.613281,6.093748 -8.351562,9.140628 -14.222656,9.140628 l -7.789062,-3.04688 -6.433594,-5.417966 -5.417969,-5.078125 -4.402344,3.386719 -0.335937,1.015624 c -3.613282,6.093748 -8.355469,9.140628 -14.222656,9.140628 H 0 V 92.78125 h 4.742188 c 1.351562,0 2.480468,-1.125 3.386718,-3.382812 l 1.015625,-1.355469 c 3.609375,-5.871094 8.578125,-8.804688 14.898438,-8.804688 2.707031,0 5.304687,1.015625 7.789062,3.046875 l 6.433594,5.757813 5.078125,4.738281 3.726562,-3.382812 0.675782,-1.355469 c 3.613281,-5.871094 8.578125,-8.804688 14.898437,-8.804688 2.710938,0 5.304688,1.015625 7.789063,3.046875 l 6.433594,5.757813 5.078124,4.738281 3.726563,-3.382812 0.675781,-1.355469 c 3.613282,-5.871094 8.578125,-8.804688 14.902344,-8.804688 2.70703,0 5.30469,1.015625 7.78516,3.046875 M 96.167969,119.53516 C 92.558594,125.17969 87.816406,128 81.945312,128 c -2.707031,0 -5.304687,-0.78906 -7.785156,-2.37109 l -6.433594,-6.09375 -5.417968,-4.74219 c -1.808594,0 -3.273438,1.24219 -4.402344,3.72656 l -0.339844,1.01563 C 53.953125,125.17969 49.214844,128 43.34375,128 l -7.789062,-2.37109 -6.433594,-6.09375 c -2.707032,-2.71094 -4.515625,-4.28907 -5.417969,-4.74219 -1.804687,0 -3.273437,1.24219 -4.402344,3.72656 l -0.335937,1.01563 C 15.351562,125.17969 10.609375,128 4.742188,128 H 0 v -10.49609 h 4.742188 l 3.386718,-3.05078 1.015625,-1.69141 c 3.609375,-5.64453 8.578125,-8.46484 14.898438,-8.46484 2.707031,0 5.304687,0.78906 7.789062,2.37109 l 6.433594,6.09375 5.078125,4.74219 3.726562,-3.38672 0.675782,-1.35547 c 3.613281,-5.64453 8.578125,-8.46484 14.898437,-8.46484 2.710938,0 5.304688,0.78906 7.789063,2.37109 l 6.433594,6.09375 5.078124,4.74219 3.726563,-3.05078 0.675781,-1.69141 c 3.613282,-5.64453 8.578125,-8.46484 14.902344,-8.46484 2.70703,0 5.30469,0.78906 7.78516,2.37109 l 6.4375,6.09375 5.41797,4.74219 h 4.39843 V 128 h -4.73828 l -7.78906,-2.37109 -6.43359,-6.09375 -5.41797,-4.74219 c -0.90235,0 -1.917972,0.56641 -3.046879,1.69531 l -1.355469,2.03125 -0.339843,1.01563"
       id="path2"
       inkscape:connector-curvature="0" />
  </g>
</svg>
