<?xml version="1.0" encoding="UTF-8" standalone="no"?>
<svg
   xmlns:dc="http://purl.org/dc/elements/1.1/"
   xmlns:cc="http://creativecommons.org/ns#"
   xmlns:rdf="http://www.w3.org/1999/02/22-rdf-syntax-ns#"
   xmlns:svg="http://www.w3.org/2000/svg"
   xmlns="http://www.w3.org/2000/svg"
   xmlns:sodipodi="http://sodipodi.sourceforge.net/DTD/sodipodi-0.dtd"
   xmlns:inkscape="http://www.inkscape.org/namespaces/inkscape"
   width="128pt"
   height="88pt"
   viewBox="0 0 128 88"
   version="1.1"
   id="svg5"
   sodipodi:docname="metro.svg"
   inkscape:version="0.92.1 r15371">
  <metadata
     id="metadata11">
    <rdf:RDF>
      <cc:Work
         rdf:about="">
        <dc:format>image/svg+xml</dc:format>
        <dc:type
           rdf:resource="http://purl.org/dc/dcmitype/StillImage" />
      </cc:Work>
    </rdf:RDF>
  </metadata>
  <defs
     id="defs9" />
  <sodipodi:namedview
     pagecolor="#ffffff"
     bordercolor="#666666"
     borderopacity="1"
     objecttolerance="10"
     gridtolerance="10"
     guidetolerance="10"
     inkscape:pageopacity="0"
     inkscape:pageshadow="2"
     inkscape:window-width="1366"
     inkscape:window-height="685"
     id="namedview7"
     showgrid="false"
     inkscape:zoom="2.0113636"
     inkscape:cx="-15.59322"
     inkscape:cy="58.666667"
     inkscape:window-x="0"
     inkscape:window-y="0"
     inkscape:window-maximized="1"
     inkscape:current-layer="surface1" />
  <g
     id="surface1">
    <path
       style="fill:#00ff00;fill-opacity:1;fill-rule:nonzero;stroke:none"
       d="M 33.28125,76.800781 V 53.121094 L 27.519531,63.679688 23.039062,53.441406 V 71.359375 L 33.28125,76.800781 M 6.398438,44.160156 c 0,6.1875 2.027343,11.839844 6.082031,16.960938 V 26.878906 C 8.425781,32 6.398438,37.761719 6.398438,44.160156 M 58.878906,17.28125 H 48 V 6.71875 l -2.878906,0.320312 v 73.921876 l 13.757812,1.597656 V 17.28125 m -37.757812,0.957031 6.398437,15.363281 6.402344,-22.722656 -12.800781,7.359375 m 84.160156,33.28125 H 94.398438 v 25.28125 L 105.28125,71.039062 V 51.519531 m 10.23828,9.601563 c 3.83985,-5.335938 5.76172,-10.988282 5.76172,-16.960938 0,-6.1875 -1.92187,-11.945312 -5.76172,-17.28125 V 61.121094 M 81.28125,17.28125 H 70.398438 V 82.558594 L 84.480469,80.320312 V 7.679688 L 81.28125,7.039062 V 17.28125 M 94.398438,41.921875 H 105.28125 V 26.878906 L 94.398438,19.519531 V 41.921875 M 64,0 C 81.492188,0 96.535156,4.265625 109.12109,12.800781 121.70703,21.546875 128,32 128,44.160156 128,56.105469 121.70703,66.453125 109.12109,75.199219 96.535156,83.734375 81.492188,88 64,88 46.292969,88 31.148438,83.734375 18.558594,75.199219 6.1875,66.453125 0,56.105469 0,44.160156 0,32 6.1875,21.546875 18.558594,12.800781 31.148438,4.265625 46.292969,0 64,0"
       id="path2"
       inkscape:connector-curvature="0" />
  </g>
</svg>
