<?xml version="1.0" encoding="UTF-8" standalone="no"?>
<svg
   xmlns:dc="http://purl.org/dc/elements/1.1/"
   xmlns:cc="http://creativecommons.org/ns#"
   xmlns:rdf="http://www.w3.org/1999/02/22-rdf-syntax-ns#"
   xmlns:svg="http://www.w3.org/2000/svg"
   xmlns="http://www.w3.org/2000/svg"
   xmlns:sodipodi="http://sodipodi.sourceforge.net/DTD/sodipodi-0.dtd"
   xmlns:inkscape="http://www.inkscape.org/namespaces/inkscape"
   width="128pt"
   height="128pt"
   viewBox="0 0 128 128"
   version="1.1"
   id="svg5"
   sodipodi:docname="military-base.svg"
   inkscape:version="0.92.1 r15371">
  <metadata
     id="metadata11">
    <rdf:RDF>
      <cc:Work
         rdf:about="">
        <dc:format>image/svg+xml</dc:format>
        <dc:type
           rdf:resource="http://purl.org/dc/dcmitype/StillImage" />
      </cc:Work>
    </rdf:RDF>
  </metadata>
  <defs
     id="defs9" />
  <sodipodi:namedview
     pagecolor="#ffffff"
     bordercolor="#666666"
     borderopacity="1"
     objecttolerance="10"
     gridtolerance="10"
     guidetolerance="10"
     inkscape:pageopacity="0"
     inkscape:pageshadow="2"
     inkscape:window-width="1366"
     inkscape:window-height="685"
     id="namedview7"
     showgrid="false"
     inkscape:zoom="1.3828125"
     inkscape:cx="-61.468927"
     inkscape:cy="85.333333"
     inkscape:window-x="0"
     inkscape:window-y="0"
     inkscape:window-maximized="1"
     inkscape:current-layer="surface1" />
  <g
     id="surface1">
    <path
       style="fill:#00ff00;fill-opacity:1;fill-rule:nonzero;stroke:none"
       d="M 66.34375,0.335938 V 0 c 13.179688,0.671875 25.019531,4.804688 35.51953,12.398438 10.5,7.816406 17.8711,17.757812 22.11719,29.820312 h -12.0625 C 108.11719,33.953125 102.53516,27.03125 95.164062,21.445312 87.566406,16.082031 79.191406,12.84375 70.03125,11.726562 L 66.34375,0.335938 m 59.3125,46.238281 C 127.21875,52.160156 128,57.96875 128,64 c 0,10.050781 -2.23437,19.546875 -6.70312,28.480469 -4.24219,8.714841 -10.16407,16.085941 -17.75782,22.117191 l -4.019529,-12.0625 c 5.359379,-4.69141 9.492189,-10.386722 12.398439,-17.089848 3.125,-6.703124 4.6875,-13.851562 4.6875,-21.445312 l -1.00391,-10.050781 10.05469,-7.375 M 123.98047,44.902344 86.785156,71.707031 101.19531,115.60156 64,88.460938 26.804688,115.60156 41.214844,71.707031 4.019531,44.902344 H 49.589844 L 64,1.003906 78.410156,44.902344 h 45.570314 m -34.515626,65.003906 10.054687,7.37109 C 88.796875,124.42578 76.957031,128 64,128 51.042969,128 39.203125,124.42578 28.480469,117.27734 l 10.054687,-7.37109 c 8.039063,4.46875 16.53125,6.69922 25.464844,6.69922 8.933594,0 17.425781,-2.23047 25.464844,-6.69922 M 61.65625,0.335938 57.96875,11.726562 C 48.808594,12.84375 40.433594,16.082031 32.835938,21.445312 25.464844,27.03125 19.882812,33.953125 16.082031,42.21875 H 4.019531 C 8.265625,30.15625 15.636719,20.214844 26.136719,12.398438 36.636719,4.804688 48.476562,0.671875 61.65625,0 V 0.335938 M 12.398438,53.949219 11.394531,64 c 0,7.59375 1.5625,14.742188 4.6875,21.445312 2.90625,6.703126 7.039063,12.398438 12.398438,17.089848 l -4.019531,12.0625 C 16.867188,108.56641 10.945312,101.19531 6.703125,92.480469 2.234375,83.546875 0,74.050781 0,64 0,57.96875 0.78125,52.160156 2.34375,46.574219 l 10.054688,7.375"
       id="path2"
       inkscape:connector-curvature="0" />
  </g>
</svg>
