<?xml version="1.0" encoding="UTF-8" standalone="no"?>
<svg
   xmlns:dc="http://purl.org/dc/elements/1.1/"
   xmlns:cc="http://creativecommons.org/ns#"
   xmlns:rdf="http://www.w3.org/1999/02/22-rdf-syntax-ns#"
   xmlns:svg="http://www.w3.org/2000/svg"
   xmlns="http://www.w3.org/2000/svg"
   xmlns:sodipodi="http://sodipodi.sourceforge.net/DTD/sodipodi-0.dtd"
   xmlns:inkscape="http://www.inkscape.org/namespaces/inkscape"
   width="128pt"
   height="133pt"
   viewBox="0 0 128 133"
   version="1.1"
   id="svg40"
   sodipodi:docname="minuteman.svg"
   inkscape:version="0.92.1 r15371">
  <metadata
     id="metadata46">
    <rdf:RDF>
      <cc:Work
         rdf:about="">
        <dc:format>image/svg+xml</dc:format>
        <dc:type
           rdf:resource="http://purl.org/dc/dcmitype/StillImage" />
      </cc:Work>
    </rdf:RDF>
  </metadata>
  <defs
     id="defs44" />
  <sodipodi:namedview
     pagecolor="#ffffff"
     bordercolor="#666666"
     borderopacity="1"
     objecttolerance="10"
     gridtolerance="10"
     guidetolerance="10"
     inkscape:pageopacity="0"
     inkscape:pageshadow="2"
     inkscape:window-width="1366"
     inkscape:window-height="685"
     id="namedview42"
     showgrid="false"
     inkscape:zoom="1.3308271"
     inkscape:cx="-67.20339"
     inkscape:cy="88.666667"
     inkscape:window-x="0"
     inkscape:window-y="0"
     inkscape:window-maximized="1"
     inkscape:current-layer="surface1" />
  <g
     id="surface1">
    <path
       style="fill:#00ff00;fill-opacity:1;fill-rule:nonzero;stroke:none"
       d="M 31.289062,86.296875 35.554688,82.761719 48,100.44141 l -0.355469,0.35156 -1.421875,0.70703 -2.132812,0.35547 h -1.066406 l -2.132813,1.05859 -19.203125,26.51563 c -0.472656,0.9414 -1.300781,1.53125 -2.488281,1.76953 l -1.421875,1.05859 H 17.421875 L 15.289062,131.19922 1.421875,122.35938 0,120.23828 v -0.35547 l 0.710938,-1.76562 26.3125,-21.921878 1.066406,-1.765624 1.777344,-6.363282 1.421874,-1.769531 m 34.488282,-39.949219 1.777344,0.707032 59.378902,83.789062 -0.35546,2.12109 -2.13282,-0.70703 -48.355466,-42.07031 -4.269532,22.98047 -1.421874,1.05859 -1.421876,-1.05859 L 8.179688,29.378906 v -2.121094 l 2.488281,0.707032 48.710937,43.484375 5.332032,-24.394531 1.066406,-0.707032 M 66.84375,17.003906 84.976562,17.359375 70.753906,28.316406 75.734375,45.640625 60.800781,35.035156 45.511719,45.640625 50.84375,28.316406 36.265625,17.359375 54.753906,17.003906 60.800781,0.0351562 66.84375,17.003906 m 54.75781,0.355469 1.06641,-0.355469 L 128,20.539062 v 1.769532 l -23.46484,18.738281 3.55468,2.472656 -0.35546,1.414063 -0.35547,0.355468 -1.06641,-0.355468 -0.35547,-0.351563 L 87.109375,59.78125 80,49.53125 121.60156,17.359375"
       id="path37"
       inkscape:connector-curvature="0" />
  </g>
</svg>
