<?xml version="1.0" encoding="UTF-8" standalone="no"?>
<svg
   xmlns:dc="http://purl.org/dc/elements/1.1/"
   xmlns:cc="http://creativecommons.org/ns#"
   xmlns:rdf="http://www.w3.org/1999/02/22-rdf-syntax-ns#"
   xmlns:svg="http://www.w3.org/2000/svg"
   xmlns="http://www.w3.org/2000/svg"
   xmlns:sodipodi="http://sodipodi.sourceforge.net/DTD/sodipodi-0.dtd"
   xmlns:inkscape="http://www.inkscape.org/namespaces/inkscape"
   width="127pt"
   height="91pt"
   viewBox="0 0 127 91"
   version="1.1"
   id="svg5"
   sodipodi:docname="pier.svg"
   inkscape:version="0.92.1 r15371">
  <metadata
     id="metadata11">
    <rdf:RDF>
      <cc:Work
         rdf:about="">
        <dc:format>image/svg+xml</dc:format>
        <dc:type
           rdf:resource="http://purl.org/dc/dcmitype/StillImage" />
      </cc:Work>
    </rdf:RDF>
  </metadata>
  <defs
     id="defs9" />
  <sodipodi:namedview
     pagecolor="#ffffff"
     bordercolor="#666666"
     borderopacity="1"
     objecttolerance="10"
     gridtolerance="10"
     guidetolerance="10"
     inkscape:pageopacity="0"
     inkscape:pageshadow="2"
     inkscape:window-width="1366"
     inkscape:window-height="685"
     id="namedview7"
     showgrid="false"
     inkscape:zoom="1.9450549"
     inkscape:cx="-19.700565"
     inkscape:cy="60.666667"
     inkscape:window-x="0"
     inkscape:window-y="0"
     inkscape:window-maximized="1"
     inkscape:current-layer="surface1" />
  <g
     id="surface1">
    <path
       style="fill:#00ff00;fill-opacity:1;fill-rule:nonzero;stroke:none"
       d="m 100.38281,77.734375 -3.207029,1.613281 -1.285156,1.609375 -0.320313,0.96875 c -3.421874,6.015625 -8.230468,9.023438 -14.429687,9.023438 -2.355469,0 -4.8125,-0.859375 -7.378906,-2.578125 l -6.414063,-5.800782 -5.453125,-4.835937 c -1.707031,0 -3.207031,1.074219 -4.488281,3.222656 l -0.320312,0.96875 c -3.207032,6.015625 -7.910157,9.023438 -14.109376,9.023438 -2.566406,0 -5.132812,-0.859375 -7.699218,-2.578125 l -6.09375,-5.800782 -5.453125,-4.835937 c -1.921875,0 -3.417969,1.074219 -4.488281,3.222656 l -0.640626,0.96875 -4.492187,5.480469 C 11.332031,89.769531 8.125,90.949219 4.488281,90.949219 H 0 V 80.3125 H 4.488281 L 8.339844,77.089844 9.300781,75.15625 c 3.421875,-5.371094 8.230469,-8.058594 14.429688,-8.058594 2.78125,0 5.453125,0.859375 8.019531,2.578125 l 6.414062,5.800781 5.132813,4.515626 3.207031,-3.222657 0.960938,-1.292969 c 3.421875,-5.585937 8.339844,-8.378906 14.753906,-8.378906 l 7.695312,2.578125 6.414063,5.800781 5.132813,4.515626 3.527343,-2.902344 0.960938,-1.613282 c 3.207031,-5.585937 8.019531,-8.378906 14.433591,-8.378906 l 8.01563,2.578125 6.41406,5.800781 5.13281,4.835938 h 4.16797 V 90.949219 H 119.625 c -2.56641,0 -5.13281,-0.859375 -7.69922,-2.578125 l -6.41406,-5.800782 -5.12891,-4.835937 m 0,-35.457031 8.01563,2.578125 6.41406,6.125 5.13281,4.511719 h 4.16797 V 66.128906 H 119.625 c -3.85156,0 -8.55469,-2.792968 -14.11328,-8.378906 l -5.12891,-4.835938 c -1.07031,0 -2.140622,0.644532 -3.207029,1.933594 l -1.285156,1.613282 -0.320313,0.964843 C 91.9375,63.230469 87.125,66.128906 81.140625,66.128906 c -3.851563,0 -8.445313,-2.792968 -13.792969,-8.378906 l -5.453125,-4.835938 c -1.707031,0 -3.207031,1.183594 -4.488281,3.546876 l -0.320312,0.964843 c -3.632813,5.804688 -8.339844,8.703125 -14.109376,8.703125 -2.566406,0 -5.132812,-0.859375 -7.699218,-2.578125 L 29.183594,57.75 23.730469,52.914062 c -1.921875,0 -3.417969,1.183594 -4.488281,3.546876 l -0.640626,0.964843 c -2.992187,5.804688 -7.699218,8.703125 -14.113281,8.703125 H 0 V 55.492188 h 4.488281 c 1.5,0 2.78125,-1.074219 3.851563,-3.222657 L 9.300781,50.65625 c 3.632813,-5.585938 8.445313,-8.378906 14.429688,-8.378906 2.78125,0 5.453125,0.859375 8.019531,2.578125 l 6.414062,6.125 5.132813,4.511719 3.207031,-3.222657 0.960938,-1.613281 c 3.421875,-5.585938 8.339844,-8.378906 14.753906,-8.378906 l 7.695312,2.578125 6.414063,6.125 5.132813,4.511719 3.527343,-3.222657 0.960938,-1.613281 c 3.421875,-5.585938 8.230469,-8.378906 14.433591,-8.378906 M 83.703125,10.042969 V 43.242188 L 80.496094,46.789062 75.367188,41.953125 73.761719,40.34375 V 10.042969 h -19.5625 v 24.820312 l -8.015625,7.089844 -0.644532,1.289063 -1.601562,1.933593 V 10.042969 H 24.375 v 23.53125 L 22.449219,33.25 14.433594,35.507812 V 10.042969 H 2.566406 V 0.0507812 H 127 V 10.042969 H 113.21094 V 41.632812 L 103.26953,34.21875 V 10.042969 H 83.703125"
       id="path2"
       inkscape:connector-curvature="0" />
  </g>
</svg>
