<?xml version="1.0" encoding="UTF-8" standalone="no"?>
<svg
   xmlns:dc="http://purl.org/dc/elements/1.1/"
   xmlns:cc="http://creativecommons.org/ns#"
   xmlns:rdf="http://www.w3.org/1999/02/22-rdf-syntax-ns#"
   xmlns:svg="http://www.w3.org/2000/svg"
   xmlns="http://www.w3.org/2000/svg"
   xmlns:sodipodi="http://sodipodi.sourceforge.net/DTD/sodipodi-0.dtd"
   xmlns:inkscape="http://www.inkscape.org/namespaces/inkscape"
   width="128pt"
   height="137pt"
   viewBox="0 0 128 137"
   version="1.1"
   id="svg5"
   sodipodi:docname="pond-lake.svg"
   inkscape:version="0.92.1 r15371">
  <metadata
     id="metadata11">
    <rdf:RDF>
      <cc:Work
         rdf:about="">
        <dc:format>image/svg+xml</dc:format>
        <dc:type
           rdf:resource="http://purl.org/dc/dcmitype/StillImage" />
      </cc:Work>
    </rdf:RDF>
  </metadata>
  <defs
     id="defs9" />
  <sodipodi:namedview
     pagecolor="#ffffff"
     bordercolor="#666666"
     borderopacity="1"
     objecttolerance="10"
     gridtolerance="10"
     guidetolerance="10"
     inkscape:pageopacity="0"
     inkscape:pageshadow="2"
     inkscape:window-width="1366"
     inkscape:window-height="685"
     id="namedview7"
     showgrid="false"
     inkscape:zoom="1.2919708"
     inkscape:cx="-71.79096"
     inkscape:cy="91.333333"
     inkscape:window-x="0"
     inkscape:window-y="0"
     inkscape:window-maximized="1"
     inkscape:current-layer="surface1" />
  <g
     id="surface1">
    <path
       style="fill:#00ff00;fill-opacity:1;fill-rule:nonzero;stroke:none"
       d="m 87.523438,128.99609 2.421874,-2.76562 0.691407,-1.03906 c 2.539062,-4.37891 6.34375,-6.56641 11.417971,-6.56641 3.22656,0 6.91797,2.1875 11.07031,6.56641 l 3.80469,3.80468 H 128 v 7.94922 h -11.41797 c -2.99609,0 -6.57031,-2.1914 -10.72265,-6.5664 l -4.15235,-3.45703 c -0.6914,0 -1.38281,0.46093 -2.074218,1.38281 l -1.039062,1.38281 -0.691406,0.69141 c -2.074219,4.375 -5.648438,6.5664 -10.722656,6.5664 -3,0 -6.457032,-2.1914 -10.378907,-6.5664 l -4.152343,-3.45703 c -0.691407,0 -1.5,0.34375 -2.421876,1.03515 l -1.039062,1.73047 -0.34375,0.69141 c -2.769531,4.375 -6.34375,6.5664 -10.726562,6.5664 -3.226563,0 -6.800782,-2.1914 -10.722657,-6.5664 l -4.496093,-3.45703 -3.113282,2.76562 -0.347656,0.69141 c -2.535156,4.375 -6.226562,6.5664 -11.070312,6.5664 H 0 v -7.94922 h 28.367188 l 3.113281,-2.76562 0.691406,-1.03906 c 2.769531,-4.37891 6.457031,-6.56641 11.070313,-6.56641 2.078124,0 4.152343,0.69141 6.226562,2.07422 l 4.84375,4.49219 3.804688,3.80468 2.421874,-2.76562 0.695313,-1.03906 C 64,120.8125 67.804688,118.625 72.648438,118.625 c 2.074218,0 4.152343,0.69141 6.226562,2.07422 l 4.496094,4.49219 4.152344,3.80468 M 102.39844,0.746094 l -1.72656,5.183594 -3.113286,4.839843 0.34375,5.53125 c -0.230469,3.917969 -1.84375,9.449219 -4.84375,16.59375 l -8.992188,17.628907 -4.5,4.148437 -2.765625,1.039063 -15.222656,49.429692 c 3.691406,-4.83594 7.378906,-7.257818 11.070313,-7.257818 3.460937,0.230469 7.035156,3.109378 10.722656,8.640628 L 94.441406,77.140625 c 6.230474,-15.898437 11.070314,-25.234375 14.531254,-28 l 11.76172,1.039063 6.22656,32.839843 v 0.691407 L 119.35156,73.339844 112.08594,62.625 c -2.07422,4.839844 -6.10938,17.398438 -12.109378,37.67969 l 2.078128,-0.347659 c 2.99609,0 6.6875,2.187499 11.07031,6.566409 l 3.80469,3.80469 H 128 v 7.94921 h -11.41797 c -2.76562,0 -6.33984,-2.1875 -10.72265,-6.5664 l -4.15235,-3.45703 c -0.6914,0 -1.38281,0.46093 -2.074218,1.38281 l -1.039062,1.03516 -0.691406,1.03906 c -2.304688,4.3789 -5.878906,6.5664 -10.722656,6.5664 -2.769532,0 -6.226563,-2.1875 -10.378907,-6.5664 l -4.152343,-3.45703 c -1.382813,0 -2.535157,0.80468 -3.460938,2.41797 l -0.34375,1.03906 c -3,4.3789 -6.574219,6.5664 -10.726562,6.5664 -2.765626,0 -6.339844,-2.1875 -10.722657,-6.5664 l -4.496093,-3.45703 c -0.921876,0 -1.960938,0.80468 -3.113282,2.41797 l -0.347656,1.03906 c -2.765625,4.3789 -6.457031,6.5664 -11.070312,6.5664 H 27.328125 V 118.625 H 0 v -8.29687 H 10.722656 L 9.339844,83.363281 C 8.878906,64.238281 10.722656,51.90625 14.875,46.375 13.953125,56.515625 14.53125,70.226562 16.605469,87.511719 l 3.460937,22.816411 H 24.90625 L 26.292969,61.242188 32.519531,30.820312 35.285156,23.5625 33.558594,36.007812 C 31.941406,61.585938 32.75,83.710938 35.976562,102.375 l 1.730469,-1.03516 0.347657,-4.148434 c 2.074218,-11.984375 5.074218,-23.390625 8.992187,-34.222656 -3.6875,-4.839844 -2.1875,-12.789062 4.5,-23.851562 l 5.535156,-7.605469 c 2.074219,-2.074219 4.152344,-3.109375 6.226563,-3.109375 l 2.074218,-4.839844 1.382813,-2.421875 1.730469,-1.035156 0.691406,1.726562 -1.382812,2.421875 -2.765626,4.492188 c 1.382813,6.683594 -0.117187,14.632812 -4.5,23.851562 l -4.148437,7.605469 c -1.847656,2.074219 -4.269531,3.34375 -7.265625,3.804687 l -4.152344,17.628907 -3.460937,18.667971 1.730469,-0.347659 c 2.078124,0 4.152343,0.691409 6.226562,2.074219 l 4.84375,4.49219 0.347656,0.6914 2.765625,1.03907 L 75.070312,53.636719 73.6875,51.5625 V 46.375 C 80.605469,23.332031 87.984375,11.230469 95.828125,10.078125 L 98.25,4.894531 101.01563,0.0546875 V 0.402344 l 1.38281,0.34375"
       id="path2"
       inkscape:connector-curvature="0" />
  </g>
</svg>
