<?xml version="1.0" encoding="UTF-8" standalone="no"?>
<svg
   xmlns:dc="http://purl.org/dc/elements/1.1/"
   xmlns:cc="http://creativecommons.org/ns#"
   xmlns:rdf="http://www.w3.org/1999/02/22-rdf-syntax-ns#"
   xmlns:svg="http://www.w3.org/2000/svg"
   xmlns="http://www.w3.org/2000/svg"
   xmlns:sodipodi="http://sodipodi.sourceforge.net/DTD/sodipodi-0.dtd"
   xmlns:inkscape="http://www.inkscape.org/namespaces/inkscape"
   width="128pt"
   height="118pt"
   viewBox="0 0 128 118"
   version="1.1"
   id="svg5"
   sodipodi:docname="quarry.svg"
   inkscape:version="0.92.1 r15371">
  <metadata
     id="metadata11">
    <rdf:RDF>
      <cc:Work
         rdf:about="">
        <dc:format>image/svg+xml</dc:format>
        <dc:type
           rdf:resource="http://purl.org/dc/dcmitype/StillImage" />
      </cc:Work>
    </rdf:RDF>
  </metadata>
  <defs
     id="defs9" />
  <sodipodi:namedview
     pagecolor="#ffffff"
     bordercolor="#666666"
     borderopacity="1"
     objecttolerance="10"
     gridtolerance="10"
     guidetolerance="10"
     inkscape:pageopacity="0"
     inkscape:pageshadow="2"
     inkscape:window-width="1366"
     inkscape:window-height="685"
     id="namedview7"
     showgrid="false"
     inkscape:zoom="1.5"
     inkscape:cx="-50"
     inkscape:cy="78.666667"
     inkscape:window-x="0"
     inkscape:window-y="0"
     inkscape:window-maximized="1"
     inkscape:current-layer="surface1" />
  <g
     id="surface1">
    <path
       style="fill:#00ff00;fill-opacity:1;fill-rule:nonzero;stroke:none"
       d="m 128,21.425781 -15.83984,15.546875 -6.78516,-6.800781 -30.0625,30.125 31.35547,31.09375 2.58594,-2.589844 L 123.79688,103.375 110.22266,117.30469 95.675781,102.73047 98.261719,99.8125 66.910156,68.394531 50.746094,84.589844 65.617188,99.488281 H 65.9375 l -8.402344,8.421879 c -6.464844,5.39843 -12.28125,8.42187 -17.453125,9.07031 l -26.507812,0.97266 H 10.34375 v -3.23829 L 11.3125,88.152344 c 0.648438,-4.964844 3.773438,-10.796875 9.375,-17.492188 l 8.082031,-8.421875 V 62.5625 L 43.636719,77.140625 59.796875,61.265625 32,33.410156 1.9375,69.367188 0,67.746094 5.171875,53.816406 C 10.128906,42.804688 16.054688,32.980469 22.949219,24.339844 l -5.171875,-4.859375 8.40625,-8.421875 4.523437,4.535156 C 37.386719,9.117188 43.960938,4.257812 50.425781,1.019531 L 59.476562,9.765625 40.402344,24.988281 68.203125,52.84375 98.261719,22.722656 91.152344,15.59375 106.66797,0.046875 128,21.425781 m -21.33203,-12.308593 -6.46484,6.476562 11.95703,12.632812 6.78906,-6.800781 -12.28125,-12.308593"
       id="path2"
       inkscape:connector-curvature="0" />
  </g>
</svg>
