<?xml version="1.0" encoding="UTF-8" standalone="no"?>
<svg
   xmlns:dc="http://purl.org/dc/elements/1.1/"
   xmlns:cc="http://creativecommons.org/ns#"
   xmlns:rdf="http://www.w3.org/1999/02/22-rdf-syntax-ns#"
   xmlns:svg="http://www.w3.org/2000/svg"
   xmlns="http://www.w3.org/2000/svg"
   xmlns:sodipodi="http://sodipodi.sourceforge.net/DTD/sodipodi-0.dtd"
   xmlns:inkscape="http://www.inkscape.org/namespaces/inkscape"
   width="128pt"
   height="197pt"
   viewBox="0 0 128 197"
   version="1.1"
   id="svg5"
   sodipodi:docname="radio-tower.svg"
   inkscape:version="0.92.1 r15371">
  <metadata
     id="metadata11">
    <rdf:RDF>
      <cc:Work
         rdf:about="">
        <dc:format>image/svg+xml</dc:format>
        <dc:type
           rdf:resource="http://purl.org/dc/dcmitype/StillImage" />
      </cc:Work>
    </rdf:RDF>
  </metadata>
  <defs
     id="defs9" />
  <sodipodi:namedview
     pagecolor="#ffffff"
     bordercolor="#666666"
     borderopacity="1"
     objecttolerance="10"
     gridtolerance="10"
     guidetolerance="10"
     inkscape:pageopacity="0"
     inkscape:pageshadow="2"
     inkscape:window-width="1366"
     inkscape:window-height="685"
     id="namedview7"
     showgrid="false"
     inkscape:zoom="0.89847716"
     inkscape:cx="-140.60452"
     inkscape:cy="131.33333"
     inkscape:window-x="0"
     inkscape:window-y="0"
     inkscape:window-maximized="1"
     inkscape:current-layer="surface1" />
  <g
     id="surface1">
    <path
       style="fill:#00ff00;fill-opacity:1;fill-rule:nonzero;stroke:none"
       d="m 21.5,182.57422 1,0.49609 h 33 l -24.5,-24.875 -9.5,24.37891 m -2,5.96875 -1.5,4.47656 24.5,-5.47266 h -21 l -2,0.9961 m 36.5,-38.80469 -13,-23.8789 -9,23.8789 h 22 m -9.5,-32.83203 h 11 L 54,97.007812 46.5,116.90625 m 3,4.97656 14,27.35938 16,-27.35938 h -30 M 11,81.585938 10.5,81.089844 V 79.597656 L 28.5,62.183594 23,61.1875 l -1,-0.496094 0.5,-1.492187 26,-19.898438 1.5,0.496094 v 1.492187 l -15.5,16.417969 6,0.996094 0.5,0.496094 v 0.996093 l -18,17.910157 7.5,0.992187 1,0.996094 v 0.996094 L 1.5,110.9375 H 0 v -1.49219 L 19.5,83.078125 11,81.585938 M 19.5,36.8125 19,35.320312 20,34.824219 h 13.5 l -2,-2.984375 V 30.84375 l 1,-0.496094 19,2.484375 1,0.996094 -1,0.996094 -12,0.496093 2.5,3.484376 v 0.992187 l -1,0.996094 H 27.5 l 3,3.980469 v 0.996093 l -0.5,0.992188 -24.5,0.5 -1,-0.996094 0.5,-0.996094 17.5,-3.980469 -3,-4.476562 m 10,-32.335938 1,-0.996093 h 1 l 9.5,9.453125 0.5,-3.480469 1,-0.996094 1,0.496094 12,15.421875 v 1.492188 H 54 l -9,-7.957032 -1.5,4.972656 -1,-0.496093 L 33,12.933594 32,17.910156 31.5,18.902344 30,18.40625 12.5,1.988281 V 0.496094 H 14 L 29,9.949219 29.5,4.476562 M 64,181.57812 91.5,154.71484 h -54 L 64,181.57812 m 20.5,5.96875 25.5,5.47266 -1.5,-4.47656 -2,-0.9961 h -22 m 21,-4.47656 1,-0.49609 -9,-23.87891 -24.5,24.375 h 32.5 M 71,116.90625 H 81.5 L 75,98.003906 71,116.90625 m 23,32.83203 -8.5,-23.3789 -13.5,23.3789 h 22 m -25.5,-60.191405 -1,-0.5 h -6 l -1.5,0.5 4.5,21.886715 4,-21.886715 m 1,-5.472656 L 64,69.644531 58.5,84.074219 h 11 m 36.5,-23.382813 -1,0.496094 -5.5,0.996094 18,17.414062 v 1.492188 l -0.5,0.496094 -8.5,1.492187 19.5,26.367185 v 1.49219 h -1.5 L 96.5,81.089844 V 80.09375 l 1,-0.996094 7.5,-0.992187 -18,-17.910157 v -0.996093 l 0.5,-0.496094 6,-0.996094 L 78,41.289062 v -1.492187 l 1.5,-0.496094 26,19.898438 0.5,1.492187 M 64,33.332031 66.5,36.316406 V 59.199219 L 69,60.691406 119.5,197 h -20 l -36,-9.45313 -5,0.9961 L 29.5,197 H 8.5 L 59,60.691406 61.5,59.199219 V 36.316406 L 64,33.332031 m 11.5,0.496094 1,-0.996094 19,-2.484375 1,0.496094 v 0.996094 l -2,2.984375 H 108 l 1,0.496093 -0.5,1.492188 -3,4.476562 17.5,3.980469 0.5,0.996094 -1,0.996094 -24.5,-0.5 -0.5,-0.992188 v -0.996093 l 3,-3.980469 H 87 l -1,-0.996094 v -0.992187 l 2.5,-3.484376 -12,-0.496093 -1,-0.996094 m 40,-33.332031 v 1.492187 l -18,16.417969 -1,0.496094 -1,-0.992188 L 95,12.4375 85.5,21.890625 84,22.386719 83.5,21.390625 83,17.410156 74,25.867188 H 72.5 C 71.5,25.207031 71.332031,24.707031 72,24.375 L 84,8.953125 85.5,8.457031 86,9.453125 86.5,12.933594 96,3.480469 h 1.5 l 0.5,0.5 1,5.96875 L 114,0 l 1.5,0.496094"
       id="path2"
       inkscape:connector-curvature="0" />
  </g>
</svg>
