<?xml version="1.0" encoding="UTF-8" standalone="no"?>
<svg
   xmlns:dc="http://purl.org/dc/elements/1.1/"
   xmlns:cc="http://creativecommons.org/ns#"
   xmlns:rdf="http://www.w3.org/1999/02/22-rdf-syntax-ns#"
   xmlns:svg="http://www.w3.org/2000/svg"
   xmlns="http://www.w3.org/2000/svg"
   xmlns:sodipodi="http://sodipodi.sourceforge.net/DTD/sodipodi-0.dtd"
   xmlns:inkscape="http://www.inkscape.org/namespaces/inkscape"
   width="128pt"
   height="127pt"
   viewBox="0 0 128 127"
   version="1.1"
   id="svg5"
   sodipodi:docname="radioactive-area.svg"
   inkscape:version="0.92.1 r15371">
  <metadata
     id="metadata11">
    <rdf:RDF>
      <cc:Work
         rdf:about="">
        <dc:format>image/svg+xml</dc:format>
        <dc:type
           rdf:resource="http://purl.org/dc/dcmitype/StillImage" />
      </cc:Work>
    </rdf:RDF>
  </metadata>
  <defs
     id="defs9" />
  <sodipodi:namedview
     pagecolor="#ffffff"
     bordercolor="#666666"
     borderopacity="1"
     objecttolerance="10"
     gridtolerance="10"
     guidetolerance="10"
     inkscape:pageopacity="0"
     inkscape:pageshadow="2"
     inkscape:window-width="1366"
     inkscape:window-height="685"
     id="namedview7"
     showgrid="false"
     inkscape:zoom="1.3937008"
     inkscape:cx="-60.322034"
     inkscape:cy="84.666667"
     inkscape:window-x="0"
     inkscape:window-y="0"
     inkscape:window-maximized="1"
     inkscape:current-layer="surface1" />
  <g
     id="surface1">
    <path
       style="fill:#00ff00;fill-opacity:1;fill-rule:nonzero;stroke:none"
       d="M 42.019531,102.86328 56.890625,76.835938 64,78.761719 71.109375,77.15625 85.980469,102.86328 C 79.085938,106.71875 71.757812,108.64844 64,108.64844 c -7.757812,0 -15.085938,-1.92969 -21.980469,-5.78516 M 24.566406,40.523438 c 3.878906,-6.855469 9.15625,-12.316407 15.835938,-16.386719 L 56.566406,52.09375 c -4.527344,2.785156 -6.789062,6.855469 -6.789062,12.210938 V 64.625 H 18.101562 v -1.605469 c 0,-8.140625 2.15625,-15.640625 6.464844,-22.496093 M 64,0.0351562 c 17.671875,0 32.753906,6.2148438 45.25391,18.6367188 C 121.75,30.882812 128,45.773438 128,63.339844 128,80.90625 121.75,95.902344 109.25391,108.32813 96.753906,120.75 81.671875,126.96484 64,126.96484 46.328125,126.96484 31.246094,120.75 18.746094,108.32813 6.25,95.902344 0,80.90625 0,63.339844 0,45.773438 6.25,30.882812 18.746094,18.671875 31.246094,6.25 46.328125,0.0351562 64,0.0351562 M 103.43359,24.457031 C 92.445312,13.53125 79.300781,8.070312 64,8.070312 48.699219,8.070312 35.554688,13.53125 24.566406,24.457031 13.792969,35.167969 8.402344,48.128906 8.402344,63.339844 c 0,15.210937 5.390625,28.277344 16.164062,39.203126 10.988282,10.71094 24.132813,16.06641 39.433594,16.06641 15.300781,0 28.445312,-5.35547 39.43359,-16.06641 10.77344,-10.925782 16.16407,-23.992189 16.16407,-39.203126 0,-15.210938 -5.39063,-28.171875 -16.16407,-38.882813 M 87.597656,24.136719 c 6.679688,4.070312 12.066406,9.53125 16.160154,16.386719 4.09375,6.855468 6.14063,14.355468 6.14063,22.496093 V 64.625 H 78.546875 v -0.320312 c 0,-5.355469 -2.371094,-9.425782 -7.113281,-12.210938 L 87.597656,24.136719 M 64,55.628906 c 2.371094,0 4.417969,0.855469 6.140625,2.570313 1.941406,1.710937 2.910156,3.855469 2.910156,6.425781 l -2.910156,6.105469 C 68.417969,72.445312 66.371094,73.300781 64,73.300781 c -2.371094,0 -4.417969,-0.855469 -6.140625,-2.570312 L 54.949219,64.625 c 0,-2.570312 0.96875,-4.714844 2.910156,-6.425781 C 59.582031,56.484375 61.628906,55.628906 64,55.628906"
       id="path2"
       inkscape:connector-curvature="0" />
  </g>
</svg>
