<?xml version="1.0" encoding="UTF-8" standalone="no"?>
<svg
   xmlns:dc="http://purl.org/dc/elements/1.1/"
   xmlns:cc="http://creativecommons.org/ns#"
   xmlns:rdf="http://www.w3.org/1999/02/22-rdf-syntax-ns#"
   xmlns:svg="http://www.w3.org/2000/svg"
   xmlns="http://www.w3.org/2000/svg"
   xmlns:sodipodi="http://sodipodi.sourceforge.net/DTD/sodipodi-0.dtd"
   xmlns:inkscape="http://www.inkscape.org/namespaces/inkscape"
   width="127pt"
   height="115pt"
   viewBox="0 0 127 115"
   version="1.1"
   id="svg5"
   sodipodi:docname="salem.svg"
   inkscape:version="0.92.1 r15371">
  <metadata
     id="metadata11">
    <rdf:RDF>
      <cc:Work
         rdf:about="">
        <dc:format>image/svg+xml</dc:format>
        <dc:type
           rdf:resource="http://purl.org/dc/dcmitype/StillImage" />
      </cc:Work>
    </rdf:RDF>
  </metadata>
  <defs
     id="defs9" />
  <sodipodi:namedview
     pagecolor="#ffffff"
     bordercolor="#666666"
     borderopacity="1"
     objecttolerance="10"
     gridtolerance="10"
     guidetolerance="10"
     inkscape:pageopacity="0"
     inkscape:pageshadow="2"
     inkscape:window-width="1366"
     inkscape:window-height="685"
     id="namedview7"
     showgrid="false"
     inkscape:zoom="1.5391304"
     inkscape:cx="-47.225989"
     inkscape:cy="76.666667"
     inkscape:window-x="0"
     inkscape:window-y="0"
     inkscape:window-maximized="1"
     inkscape:current-layer="surface1" />
  <g
     id="surface1">
    <path
       style="fill:#00ff00;fill-opacity:1;fill-rule:nonzero;stroke:none"
       d="m 38.351562,63.042969 -2.828124,6.648437 -1.574219,6.652344 c 0.421875,2.53125 3.984375,4.855469 10.6875,6.964844 l -0.3125,2.21875 0.941406,2.847656 6.289063,1.902344 9.429687,1.265625 c 1.257813,-0.210938 1.886719,-2.109375 1.886719,-5.699219 3.773437,0.210938 9.117187,-1.160156 16.03125,-4.117188 7.546875,-2.957031 13.203125,-6.332031 16.976562,-10.132812 L 92.421875,64.625 c 17.394535,-1.265625 27.976565,1.054688 31.750005,6.96875 1.88671,3.800781 0.10546,9.078125 -5.34375,15.832031 L 103.42188,101.99609 C 95.25,108.96094 83.722656,112.76172 68.84375,113.39453 49.984375,114.44922 34.578125,111.07422 22.632812,103.26172 10.6875,95.449219 3.351562,83.835938 0.628906,68.425781 c -0.417968,-6.121093 0.3125,-9.605469 2.199219,-10.449219 5.660156,-2.324218 17.5,-0.636718 35.523437,5.066407 M 51.554688,74.125 l 6.285156,0.949219 c 0.839844,0 1.050781,0.425781 0.628906,1.269531 L 57.210938,84.894531 56.269531,85.84375 49.984375,84.894531 49.039062,83.625 50.296875,75.074219 51.554688,74.125 M 68.53125,3.1875 c 1.046875,-1.054688 2.722656,-2.109375 5.027344,-3.1640625 h 2.828125 l 10.375,15.5156245 c 4.191406,6.757813 8.800781,10.875 13.832031,12.351563 1.25781,-0.84375 2.19922,-2.746094 2.82813,-5.699219 l 2.51562,-6.652344 c 4.19141,13.722657 6.49609,24.066407 6.91797,31.035157 l -3.77344,-7.917969 -5.34375,-6.964844 -0.6289,4.75 -1.57032,3.800782 c -1.886716,-0.636719 -5.136716,-2.324219 -9.746091,-5.070313 -3.984375,-2.53125 -7.546875,-4.21875 -10.6875,-5.066406 l 4.398437,15.203125 4.714844,15.515625 c -8.382812,6.546875 -17.496094,10.875 -27.347656,12.984375 0,-2.742188 -2.515625,-4.328125 -7.542969,-4.75 -5.03125,-0.421875 -7.859375,0.421875 -8.488281,2.535156 -5.03125,-3.800781 -7.753906,-7.074219 -8.175782,-9.820312 L 44.011719,45.308594 C 53.019531,22.929688 61.195312,8.890625 68.53125,3.1875"
       id="path2"
       inkscape:connector-curvature="0" />
  </g>
</svg>
