<?xml version="1.0" encoding="UTF-8" standalone="no"?>
<svg
   xmlns:dc="http://purl.org/dc/elements/1.1/"
   xmlns:cc="http://creativecommons.org/ns#"
   xmlns:rdf="http://www.w3.org/1999/02/22-rdf-syntax-ns#"
   xmlns:svg="http://www.w3.org/2000/svg"
   xmlns="http://www.w3.org/2000/svg"
   xmlns:sodipodi="http://sodipodi.sourceforge.net/DTD/sodipodi-0.dtd"
   xmlns:inkscape="http://www.inkscape.org/namespaces/inkscape"
   width="128pt"
   height="132pt"
   viewBox="0 0 128 132"
   version="1.1"
   id="svg5"
   sodipodi:docname="settlement.svg"
   inkscape:version="0.92.1 r15371">
  <metadata
     id="metadata11">
    <rdf:RDF>
      <cc:Work
         rdf:about="">
        <dc:format>image/svg+xml</dc:format>
        <dc:type
           rdf:resource="http://purl.org/dc/dcmitype/StillImage" />
      </cc:Work>
    </rdf:RDF>
  </metadata>
  <defs
     id="defs9" />
  <sodipodi:namedview
     pagecolor="#ffffff"
     bordercolor="#666666"
     borderopacity="1"
     objecttolerance="10"
     gridtolerance="10"
     guidetolerance="10"
     inkscape:pageopacity="0"
     inkscape:pageshadow="2"
     inkscape:window-width="1366"
     inkscape:window-height="685"
     id="namedview7"
     showgrid="false"
     inkscape:zoom="1.3409091"
     inkscape:cx="-66.056497"
     inkscape:cy="88"
     inkscape:window-x="0"
     inkscape:window-y="0"
     inkscape:window-maximized="1"
     inkscape:current-layer="surface1" />
  <g
     id="surface1">
    <path
       style="fill:#00ff00;fill-opacity:1;fill-rule:nonzero;stroke:none"
       d="M 98.214844,31.777344 109.5625,39.1875 c 4.72656,2.824219 10.875,5.292969 18.4375,7.410156 l -0.35547,31.75 H 99.632812 V 56.121094 H 85.453125 V 78.347656 H 73.75 C 80.371094,81.875 88.289062,85.050781 97.507812,87.875 v 44.09766 H 58.859375 V 101.28125 H 39.003906 v 30.69141 H 0 V 87.875 C 9.21875,85.050781 17.253906,81.523438 24.109375,77.289062 l 16.3125,-10.230468 8.507813,-5.996094 8.511718,6.703125 V 46.597656 C 64.058594,44.480469 69.851562,42.011719 74.8125,39.1875 l 18.085938,-11.996094 5.316406,4.585938 m -54.25,-23.28125 13.121094,5.289062 V 36.71875 H 36.875 v -15.875 h -9.925781 v 15.875 H 6.738281 V 13.785156 C 11.699219,12.375 15.957031,10.609375 19.5,8.496094 l 12.765625,-8.4687502 3.902344,3.1757812 7.796875,5.292969"
       id="path2"
       inkscape:connector-curvature="0" />
  </g>
</svg>
