<?xml version="1.0" encoding="UTF-8" standalone="no"?>
<svg
   xmlns:dc="http://purl.org/dc/elements/1.1/"
   xmlns:cc="http://creativecommons.org/ns#"
   xmlns:rdf="http://www.w3.org/1999/02/22-rdf-syntax-ns#"
   xmlns:svg="http://www.w3.org/2000/svg"
   xmlns="http://www.w3.org/2000/svg"
   xmlns:sodipodi="http://sodipodi.sourceforge.net/DTD/sodipodi-0.dtd"
   xmlns:inkscape="http://www.inkscape.org/namespaces/inkscape"
   width="128pt"
   height="114pt"
   viewBox="0 0 128 114"
   version="1.1"
   id="svg5"
   sodipodi:docname="shipwreck.svg"
   inkscape:version="0.92.1 r15371">
  <metadata
     id="metadata11">
    <rdf:RDF>
      <cc:Work
         rdf:about="">
        <dc:format>image/svg+xml</dc:format>
        <dc:type
           rdf:resource="http://purl.org/dc/dcmitype/StillImage" />
      </cc:Work>
    </rdf:RDF>
  </metadata>
  <defs
     id="defs9" />
  <sodipodi:namedview
     pagecolor="#ffffff"
     bordercolor="#666666"
     borderopacity="1"
     objecttolerance="10"
     gridtolerance="10"
     guidetolerance="10"
     inkscape:pageopacity="0"
     inkscape:pageshadow="2"
     inkscape:window-width="836"
     inkscape:window-height="480"
     id="namedview7"
     showgrid="false"
     inkscape:zoom="1.5526316"
     inkscape:cx="85.333333"
     inkscape:cy="76"
     inkscape:window-x="0"
     inkscape:window-y="0"
     inkscape:window-maximized="0"
     inkscape:current-layer="surface1" />
  <g
     id="surface1">
    <path
       style="fill:#00ff00;fill-opacity:1;fill-rule:nonzero;stroke:none"
       d="m 19.726562,104.28516 -0.644531,0.96875 C 15.851562,111.08594 11.003906,114 4.539062,114 H 0.015625 v -10.6875 h 4.523437 c 1.722657,0 3.015626,-1.07812 3.878907,-3.23828 l 0.96875,-1.621095 c 3.664062,-5.828125 8.726562,-8.742187 15.1875,-8.742187 2.585937,0 5.277343,0.863281 8.078125,2.589843 l 6.464844,6.152344 5.171874,4.859375 c 1.722657,-0.43359 2.90625,-1.51172 3.554688,-3.23828 L 48.8125,98.453125 C 52.691406,92.625 57.644531,89.710938 63.675781,89.710938 l 8.402344,2.589843 6.464844,6.152344 5.167969,4.859375 3.234374,-3.23828 0.96875,-1.621095 C 91.574219,92.625 96.636719,89.710938 103.10156,89.710938 l 8.07813,2.589843 6.46484,6.152344 5.49219,4.859375 h 4.20312 V 114 h -4.52734 c -4.09375,0 -8.9375,-2.80859 -14.53906,-8.42187 l -5.4961,-5.17969 -3.230465,1.9414 -1.292969,1.94532 -0.324218,0.96875 C 94.054688,111.08594 89.207031,114 83.390625,114 c -2.585937,0 -5.171875,-0.86328 -7.757813,-2.58984 l -6.460937,-5.83203 -5.496094,-5.17969 c -1.9375,0.21484 -3.445312,1.51172 -4.523437,3.88672 l -0.644532,0.96875 C 55.273438,111.08594 50.425781,114 43.964844,114 c -3.878906,0 -8.617188,-2.80859 -14.21875,-8.42187 l -5.492188,-5.17969 c -1.726562,0.21484 -3.234375,1.51172 -4.527344,3.88672 M 48.8125,73.191406 c 3.878906,-5.828125 8.832031,-8.742187 14.863281,-8.742187 l 8.402344,2.589843 6.464844,6.152344 5.167969,4.859375 3.234374,-3.238281 0.96875,-1.621094 c 3.660157,-5.828125 8.722657,-8.742187 15.187498,-8.742187 l 8.07813,2.589843 6.46484,6.152344 5.49219,4.859375 h 4.20312 V 89.0625 h -4.52734 c -2.80078,0 -5.49219,-0.972656 -8.07812,-2.914062 l -6.46094,-5.832032 -5.4961,-4.855468 c -1.07421,0 -2.15234,0.539062 -3.230465,1.617187 l -1.292969,1.945313 -0.324218,0.972656 c -3.875,6.042968 -8.722657,9.066406 -14.539063,9.066406 -2.585937,0 -5.171875,-0.972656 -7.757813,-2.914062 l -6.460937,-5.832032 -5.496094,-4.855468 c -1.507812,0 -3.015625,1.1875 -4.523437,3.5625 l -0.644532,0.972656 c -3.449218,6.042968 -8.296874,9.066406 -14.542968,9.066406 -2.585938,0 -5.171875,-0.972656 -7.757813,-2.914062 l -6.460937,-5.832032 c -2.800782,-3.019531 -4.632813,-4.640625 -5.492188,-4.855468 -1.511718,0 -3.019531,1.1875 -4.527344,3.5625 l -0.644531,0.972656 C 15.632812,86.039062 10.789062,89.0625 4.539062,89.0625 H 0.015625 V 78.050781 H 4.539062 L 8.417969,74.8125 9.386719,73.191406 c 3.664062,-5.828125 8.726562,-8.742187 15.1875,-8.742187 2.585937,0 5.277343,0.863281 8.078125,2.589843 l 6.464844,6.152344 5.171874,4.859375 C 45.796875,77.835938 46.980469,76.753906 47.84375,74.8125 L 48.8125,73.191406 M 61.414062,44.046875 59.800781,39.835938 C 58.507812,38.539062 57,37.890625 55.273438,37.890625 L 50.75,39.835938 l -1.9375,4.210937 1.9375,4.53125 c 1.292969,1.296875 2.800781,1.945313 4.523438,1.945313 1.726562,0 3.234374,-0.648438 4.527343,-1.945313 l 1.613281,-4.53125 m -20.359374,4.53125 c 1.292968,-1.292969 1.941406,-2.804687 1.941406,-4.53125 L 41.054688,39.835938 36.53125,37.890625 c -1.722656,0 -3.125,0.648437 -4.199219,1.945313 l -1.941406,4.210937 1.941406,4.53125 c 1.074219,1.296875 2.476563,1.945313 4.199219,1.945313 1.722656,0 3.230469,-0.648438 4.523438,-1.945313 M 92.761719,34.976562 h 35.222661 l -18.74219,22.347657 -8.07813,-2.914063 c -6.249998,0 -11.312498,2.914063 -15.191404,8.742188 l -0.644531,1.621094 -3.554687,3.238281 -5.171876,-4.859375 -6.460937,-5.828125 -8.402344,-2.914063 c -6.464843,0 -11.417969,2.914063 -14.867187,8.742188 l -0.96875,1.621094 -3.230469,3.238281 -5.492187,-4.859375 -6.464844,-5.828125 -8.078125,-2.914063 c -3.878907,0 -7.433594,1.292969 -10.664063,3.886719 L 6.15625,35.300781 H 21.988281 L 21.667969,22.347656 19.082031,21.375 18.757812,21.699219 18.433594,19.433594 21.667969,15.871094 33.625,15.546875 29.746094,0 h 16.480468 l 9.046876,15.546875 H 74.339844 L 92.761719,34.976562 M 92.4375,37.890625 c -1.722656,0 -3.230469,0.648437 -4.523438,1.945313 l -1.617187,4.210937 c 0,1.941406 0.539063,3.453125 1.617187,4.53125 1.292969,1.296875 2.800782,1.945313 4.523438,1.945313 1.9375,0 3.445312,-0.648438 4.523438,-1.945313 l 1.617187,-4.53125 -1.617187,-4.210937 -4.523438,-1.945313 m -24.882812,6.15625 c 0,1.941406 0.644531,3.453125 1.9375,4.53125 1.292968,1.296875 2.800781,1.945313 4.527343,1.945313 1.722657,0 3.121094,-0.648438 4.199219,-1.945313 l 1.9375,-4.53125 -1.9375,-4.210937 c -1.078125,-1.296876 -2.476562,-1.945313 -4.199219,-1.945313 -1.726562,0 -3.234375,0.648437 -4.527343,1.945313 -1.292969,1.292968 -1.9375,2.699218 -1.9375,4.210937 M 77.574219,30.441406 71.109375,21.050781 39.117188,21.375 l -0.96875,0.972656 0.96875,3.238282 1.9375,2.914062 1.941406,1.941406 h 34.578125"
       id="path2"
       inkscape:connector-curvature="0" />
  </g>
</svg>
