<?xml version="1.0" encoding="UTF-8" standalone="no"?>
<svg
   xmlns:dc="http://purl.org/dc/elements/1.1/"
   xmlns:cc="http://creativecommons.org/ns#"
   xmlns:rdf="http://www.w3.org/1999/02/22-rdf-syntax-ns#"
   xmlns:svg="http://www.w3.org/2000/svg"
   xmlns="http://www.w3.org/2000/svg"
   xmlns:sodipodi="http://sodipodi.sourceforge.net/DTD/sodipodi-0.dtd"
   xmlns:inkscape="http://www.inkscape.org/namespaces/inkscape"
   width="128pt"
   height="124pt"
   viewBox="0 0 128 124"
   version="1.1"
   id="svg5"
   sodipodi:docname="swans-pond.svg"
   inkscape:version="0.92.1 r15371">
  <metadata
     id="metadata11">
    <rdf:RDF>
      <cc:Work
         rdf:about="">
        <dc:format>image/svg+xml</dc:format>
        <dc:type
           rdf:resource="http://purl.org/dc/dcmitype/StillImage" />
      </cc:Work>
    </rdf:RDF>
  </metadata>
  <defs
     id="defs9" />
  <sodipodi:namedview
     pagecolor="#ffffff"
     bordercolor="#666666"
     borderopacity="1"
     objecttolerance="10"
     gridtolerance="10"
     guidetolerance="10"
     inkscape:pageopacity="0"
     inkscape:pageshadow="2"
     inkscape:window-width="1366"
     inkscape:window-height="685"
     id="namedview7"
     showgrid="false"
     inkscape:zoom="1.4274194"
     inkscape:cx="-56.881356"
     inkscape:cy="82.666667"
     inkscape:window-x="0"
     inkscape:window-y="0"
     inkscape:window-maximized="1"
     inkscape:current-layer="surface1" />
  <g
     id="surface1">
    <path
       style="fill:#00ff00;fill-opacity:1;fill-rule:nonzero;stroke:none"
       d="m 122.60156,79.6875 c -4.44922,8.710938 -8.68359,14.980469 -12.70703,18.804688 -4.86719,-4.675782 -9.52734,-7.011719 -13.972655,-7.011719 -6.988281,0 -12.386719,2.972656 -16.199219,8.921871 l -0.953125,1.59375 -5.71875,-5.417965 6.035157,-5.734375 C 81.839844,87.65625 85.652344,85 90.519531,82.875 94.96875,80.539062 98.777344,79.371094 101.95703,79.371094 L 98.144531,74.90625 94.96875,72.675781 128,67.578125 122.60156,79.6875 m -99.734372,35.69531 -0.316407,0.63672 c -3.386719,5.3125 -7.730469,7.96875 -13.023437,7.96875 H 5.398438 v -9.5625 h 4.128906 l 3.496094,-2.86719 0.632812,-1.59375 c 3.390625,-5.09765 7.730469,-7.64843 13.023438,-7.64843 2.542968,0 4.976562,0.84765 7.304687,2.55078 l 5.71875,5.09765 4.761719,4.46094 2.859375,-2.86719 0.953125,-1.59375 c 3.175781,-5.09765 7.625,-7.64843 13.339844,-7.64843 2.328124,0 4.660156,0.84765 6.988281,2.55078 l 5.71875,5.09765 4.761719,4.46094 2.859374,-2.86719 0.636719,-1.59375 c 3.386719,-5.09765 7.832031,-7.64843 13.339844,-7.64843 3.808594,0 8.152345,2.55078 13.019535,7.64843 l 4.76562,4.46094 h 3.49219 v 9.5625 h -4.12891 c -2.32812,0 -4.55078,-0.85156 -6.66797,-2.55078 l -5.71875,-5.09766 -4.761715,-4.46093 -2.859375,1.58984 -1.269531,1.91406 -0.320313,0.63672 c -2.964844,5.3125 -7.199218,7.96875 -12.703125,7.96875 -2.328125,0 -4.660156,-0.85156 -6.988281,-2.55078 l -5.398438,-5.09766 -5.082031,-4.46093 c -1.484375,0 -2.859375,1.16797 -4.128906,3.5039 l -0.316406,0.63672 c -3.179688,5.3125 -7.414063,7.96875 -12.707031,7.96875 -2.328126,0 -4.65625,-0.85156 -6.988282,-2.55078 l -5.714844,-5.09766 -4.765624,-4.46093 c -1.480469,0 -2.753907,1.16797 -3.8125,3.5039 m 42.5625,-69.47656 4.445312,0.636719 c 1.484375,1.273437 1.589844,2.761719 0.320312,4.460937 l 2.222657,-0.316406 1.90625,1.273438 c 1.480469,1.699218 1.480469,3.1875 0,4.460937 v 0.320313 c 1.902343,-0.851563 3.386719,-0.425782 4.445312,1.273437 1.269531,1.488281 1.164063,2.867187 -0.316406,4.144531 l 0.316406,0.316406 2.222657,-0.316406 1.90625,1.59375 c 1.269531,1.484375 1.164062,2.972656 -0.316407,4.460938 v 0.320312 l 4.761719,0.636719 c 1.273438,1.484375 1.378906,2.972656 0.320312,4.460937 v 0.320313 l 3.808594,1.273437 3.496094,2.550782 c -5.292969,0.636718 -10.269531,2.65625 -14.929688,6.054687 l -11.75,9.242188 -6.988281,-1.59375 c -6.566406,0 -11.964843,2.972656 -16.199219,8.921871 l -0.953124,1.59375 -1.90625,-1.91015 -6.667969,-5.738284 c -2.964844,-1.910156 -5.929688,-2.867187 -8.894531,-2.867187 -4.445313,0 -8.46875,1.488281 -12.070313,4.460937 C 7.835938,90.417969 3.8125,83.9375 2.539062,76.5 0.847656,65.664062 5.71875,56.105469 17.152344,47.816406 26.257812,41.65625 32.925781,36.558594 37.160156,32.519531 c 6.140625,-5.3125 9.316406,-9.773437 9.53125,-13.386719 0.421875,-2.125 -0.636718,-4.355468 -3.179687,-6.691406 l -13.019531,-0.636718 -6.988282,5.097656 c -5.082031,7.011718 -8.46875,10.304687 -10.164062,9.882812 l 1.90625,-5.101562 c 1.90625,-2.972656 2.222656,-4.886719 0.953125,-5.734375 -1.269531,-0.851563 -1.589844,-2.445313 -0.953125,-4.78125 l 1.269531,-3.507813 c 3.601563,-3.609375 8.46875,-5.734375 14.609375,-6.375 6.988281,-0.847656 12.8125,1.0625 17.46875,5.738282 4.023438,3.824218 5.824219,8.074218 5.402344,12.75 -0.425782,5.097656 -3.707032,10.621093 -9.847656,16.570312 L 21.597656,54.191406 c -5.503906,3.613282 -9.105468,7.753906 -10.796875,12.429688 -1.484375,5.738281 0.527344,9.5625 6.03125,11.472656 5.71875,1.699219 9.105469,0.214844 10.164063,-4.460938 2.117187,-8.925781 8.894531,-17.105468 20.328125,-24.539062 10.164062,-6.800781 15.988281,-9.457031 17.46875,-7.96875 1.695312,1.273438 1.90625,2.867188 0.636719,4.78125"
       id="path2"
       inkscape:connector-curvature="0" />
  </g>
</svg>
