<?xml version="1.0" encoding="UTF-8" standalone="no"?>
<svg
   xmlns:dc="http://purl.org/dc/elements/1.1/"
   xmlns:cc="http://creativecommons.org/ns#"
   xmlns:rdf="http://www.w3.org/1999/02/22-rdf-syntax-ns#"
   xmlns:svg="http://www.w3.org/2000/svg"
   xmlns="http://www.w3.org/2000/svg"
   xmlns:sodipodi="http://sodipodi.sourceforge.net/DTD/sodipodi-0.dtd"
   xmlns:inkscape="http://www.inkscape.org/namespaces/inkscape"
   width="128pt"
   height="126pt"
   viewBox="0 0 128 126"
   version="1.1"
   id="svg5"
   sodipodi:docname="urban-ruins.svg"
   inkscape:version="0.92.1 r15371">
  <metadata
     id="metadata11">
    <rdf:RDF>
      <cc:Work
         rdf:about="">
        <dc:format>image/svg+xml</dc:format>
        <dc:type
           rdf:resource="http://purl.org/dc/dcmitype/StillImage" />
      </cc:Work>
    </rdf:RDF>
  </metadata>
  <defs
     id="defs9" />
  <sodipodi:namedview
     pagecolor="#ffffff"
     bordercolor="#666666"
     borderopacity="1"
     objecttolerance="10"
     gridtolerance="10"
     guidetolerance="10"
     inkscape:pageopacity="0"
     inkscape:pageshadow="2"
     inkscape:window-width="1366"
     inkscape:window-height="685"
     id="namedview7"
     showgrid="false"
     inkscape:zoom="1.4047619"
     inkscape:cx="-59.175141"
     inkscape:cy="84"
     inkscape:window-x="0"
     inkscape:window-y="0"
     inkscape:window-maximized="1"
     inkscape:current-layer="surface1" />
  <g
     id="surface1">
    <path
       style="fill:#00ff00;fill-opacity:1;fill-rule:nonzero;stroke:none"
       d="M 87.644531,19.84375 94.921875,15.875 99.550781,8.269531 104.84375,4.960938 v 69.449218 h 8.92969 l -2.64844,8.929688 h -6.28125 v 9.257812 h 16.53516 l 6.61328,-1.652344 V 126 H 0.0078125 V 88.628906 L 3.976562,85.984375 V 45.636719 L 0.0078125,42.992188 V 14.882812 H 5.960938 V 0 l 12.898437,7.277344 v 7.605468 h 7.9375 l -1.984375,5.953126 1.320312,4.296874 H 23.15625 v 19.511719 h 14.550781 l -6.28125,4.300781 H 23.15625 v 19.511719 h 8.269531 l 3.96875,-1.984375 2.3125,1.984375 v 24.140625 h 7.9375 v -5.953125 h 6.945313 V 98.21875 h 5.953125 V 83.667969 h -2.644531 l 0.660156,-3.304688 h 1.984375 V 65.480469 h -0.660157 l 0.660157,-4.960938 V 36.378906 h 5.292969 v 18.519532 h 5.621093 v 10.582031 h -5.621093 v 14.882812 h 5.621093 v 3.304688 H 63.835938 V 98.21875 h 5.953124 V 78.707031 h 5.621094 V 98.21875 h 6.613282 V 83.667969 h -3.636719 l 0.992187,-3.304688 h 2.644532 v -5.625 L 85,70.441406 80.371094,54.898438 h 7.273437 V 19.84375 m 17.199219,79.699219 v 9.589841 h 16.53516 v -9.589841 h -16.53516 m -29.433594,2.316411 v 14.55078 h 6.613282 v -14.55078 h -6.613282 m -5.621094,0 h -5.953124 v 14.55078 h 5.953124 V 101.85938 M 17.203125,44.644531 V 25.132812 H 9.269531 v 19.511719 h 7.933594 M 9.269531,97.226562 v 19.183598 h 7.933594 V 97.226562 H 9.269531 m 13.886719,0 v 19.183598 h 8.269531 V 97.226562 H 23.15625"
       id="path2"
       inkscape:connector-curvature="0" />
  </g>
</svg>
