<?xml version="1.0" encoding="UTF-8"?>
<svg xmlns="http://www.w3.org/2000/svg" xmlns:xlink="http://www.w3.org/1999/xlink" width="128pt" height="139pt" viewBox="0 0 128 139" version="1.1">
<g id="surface1">
<path style=" stroke:none;fill-rule:nonzero;fill:rgb(100%,100%,100%);fill-opacity:1;" d="M 63.816406 80.46875 C 70.664062 80.46875 76.410156 82.90625 81.054688 87.78125 C 86.1875 92.410156 88.757812 98.261719 88.757812 105.328125 L 88.757812 119.589844 L 86.554688 129.824219 C 80.441406 135.917969 73.109375 138.964844 64.550781 138.964844 L 63.449219 138.964844 C 54.648438 138.964844 47.3125 135.917969 41.445312 129.824219 C 39.488281 126.65625 38.511719 123.246094 38.511719 119.589844 L 38.511719 105.328125 C 38.511719 98.261719 41.078125 92.410156 46.210938 87.78125 C 51.101562 82.90625 56.96875 80.46875 63.816406 80.46875 M 108.929688 61.457031 L 100.492188 46.464844 L 26.773438 46.464844 L 18.703125 61.457031 L 37.042969 72.425781 L 57.582031 54.144531 L 70.050781 54.144531 L 90.222656 72.425781 L 108.929688 61.457031 M 69.316406 8.441406 L 69.316406 0.0351562 L 77.019531 0.0351562 C 91.445312 0.0351562 100.980469 8.199219 105.628906 24.53125 L 128 88.144531 L 124.699219 96.191406 C 121.519531 102.28125 116.019531 106.671875 108.195312 109.351562 C 104.28125 110.8125 100.613281 113.25 97.191406 116.664062 L 97.191406 105.328125 C 97.191406 96.066406 93.890625 88.144531 87.289062 81.566406 C 80.441406 75.472656 72.617188 72.425781 63.816406 72.425781 C 54.769531 72.425781 46.824219 75.472656 39.976562 81.566406 C 33.375 88.144531 30.074219 96.066406 30.074219 105.328125 L 30.074219 116.664062 C 26.894531 113.25 23.351562 110.8125 19.4375 109.351562 C 11.613281 106.671875 6.113281 102.28125 2.933594 96.191406 L 0 88.144531 L 21.640625 24.53125 C 26.285156 8.199219 35.941406 0.0351562 50.613281 0.0351562 L 58.316406 0.0351562 L 58.316406 8.441406 L 69.316406 8.441406 "/>
</g>
</svg>
