<?xml version="1.0" encoding="UTF-8"?>
<svg xmlns="http://www.w3.org/2000/svg" xmlns:xlink="http://www.w3.org/1999/xlink" width="128pt" height="108pt" viewBox="0 0 128 108" version="1.1">
<g id="surface1">
<path style=" stroke:none;fill-rule:nonzero;fill:rgb(100%,100%,100%);fill-opacity:1;" d="M 46.421875 27.320312 C 41.667969 32.085938 39.292969 37.789062 39.292969 44.425781 C 39.292969 51.574219 41.839844 57.53125 46.933594 62.296875 L 44.894531 64.085938 C 39.460938 58.296875 36.742188 51.746094 36.742188 44.425781 C 36.742188 37.105469 39.375 30.808594 44.640625 25.53125 L 46.421875 27.320312 M 31.902344 12.765625 L 36.234375 17.105469 C 28.59375 24.765625 24.773438 34.042969 24.773438 44.9375 C 24.773438 55.828125 28.59375 65.105469 36.234375 72.765625 L 31.902344 77.363281 C 22.902344 68.339844 18.402344 57.53125 18.402344 44.9375 C 18.402344 32.171875 22.902344 21.445312 31.902344 12.765625 M 19.167969 0 L 26.300781 7.148438 C 15.601562 17.53125 10.253906 30.296875 10.253906 45.445312 C 10.253906 60.253906 15.433594 72.851562 25.789062 83.234375 L 18.660156 90.382812 C 6.261719 77.957031 0.0625 62.980469 0.0625 45.445312 C 0.0625 27.574219 6.429688 12.425781 19.167969 0 M 66.800781 59.746094 L 71.898438 108 L 56.101562 108 L 61.199219 59.746094 L 66.800781 59.746094 M 64 34.210938 C 67.058594 34.210938 69.6875 35.320312 71.898438 37.53125 C 74.105469 39.746094 75.207031 42.382812 75.207031 45.445312 C 75.207031 48.511719 74.105469 51.148438 71.898438 53.363281 C 69.6875 55.574219 67.058594 56.679688 64 56.679688 C 60.941406 56.679688 58.3125 55.574219 56.101562 53.363281 C 53.894531 51.148438 52.792969 48.511719 52.792969 45.445312 C 52.792969 42.382812 53.894531 39.746094 56.101562 37.53125 C 58.3125 35.320312 60.941406 34.210938 64 34.210938 M 88.707031 44.425781 C 88.707031 37.789062 86.332031 32.085938 81.578125 27.320312 L 83.359375 25.53125 C 88.625 30.808594 91.257812 37.105469 91.257812 44.425781 C 91.257812 51.914062 88.453125 58.46875 82.851562 64.085938 L 81.066406 62.296875 C 86.160156 57.191406 88.707031 51.234375 88.707031 44.425781 M 91.765625 17.363281 L 96.097656 12.765625 C 105.097656 21.445312 109.597656 32.171875 109.597656 44.9375 C 109.597656 57.53125 105.097656 68.339844 96.097656 77.363281 L 91.765625 72.765625 C 99.40625 65.105469 103.226562 55.828125 103.226562 44.9375 C 103.226562 33.871094 99.40625 24.679688 91.765625 17.363281 M 101.699219 7.148438 L 108.832031 0 C 121.570312 12.425781 127.9375 27.574219 127.9375 45.445312 C 127.9375 62.980469 121.738281 77.957031 109.339844 90.382812 L 102.210938 83.234375 C 112.566406 72.851562 117.746094 60.253906 117.746094 45.445312 C 117.746094 30.296875 112.398438 17.53125 101.699219 7.148438 "/>
</g>
</svg>
