<?xml version='1.0' encoding='UTF-8'?>
<svg xmlns:xlink="http://www.w3.org/1999/xlink" xmlns="http://www.w3.org/2000/svg" version="1.1" width="513px" height="150px" viewBox="-244.942190551 -68.8222526549 513.183803558 150.34450531"><defs><g id="c92"><path fill="#ffffff" stroke="none" d="M-14.45 -4.6 L-14.45 -4.0 -12.3 -4.0 -12.3 -4.35 -11.45 -4.35 -11.45 -4.6 -14.45 -4.6 M4.0 -0.7 L3.0 -0.7 1.3 2.55 Q-0.25 4.8 -2.35 6.35 L-2.75 6.35 -2.95 6.25 -4.35 4.05 -4.5 3.95 -4.35 3.6 -1.75 1.05 Q-0.7 -0.45 -0.05 -2.2 L-2.8 -2.45 Q-3.55 -2.05 -4.05 -2.05 L-5.0 -2.25 -6.2 -2.75 -11.1 -2.75 -11.45 -2.85 -11.55 -3.2 -12.3 -3.2 -12.3 -3.25 -14.7 -3.25 -14.95 -2.75 -15.35 -2.75 -15.6 -3.0 -16.85 -3.1 -16.85 -3.25 -22.25 -3.25 -22.55 -3.3 -22.6 -3.6 -22.55 -3.85 -22.25 -4.0 -22.05 -4.0 -22.05 -5.85 -21.85 -6.25 -21.55 -6.35 -21.2 -6.35 Q-20.95 -6.35 -19.85 -4.0 L-16.85 -4.0 -16.85 -4.1 -16.5 -4.2 Q-16.1 -4.35 -16.0 -4.55 L-15.75 -5.1 -15.45 -5.5 -14.95 -5.5 -14.75 -5.55 -11.35 -5.55 -11.25 -5.85 -9.25 -5.95 -6.35 -6.05 -5.25 -5.85 -5.1 -6.25 -4.8 -6.35 -2.55 -6.35 -2.25 -6.25 -2.1 -5.85 -2.1 -5.75 9.05 -5.8 10.5 -4.2 13.3 -4.55 14.45 -4.5 15.6 -4.35 20.4 -3.7 Q20.75 -3.45 20.6 -2.75 L19.9 1.1 Q19.9 2.0 19.3 1.85 L15.7 0.5 10.5 -1.95 9.8 -1.95 9.75 -1.5 Q9.7 -1.05 9.8 -0.95 L11.35 1.5 11.25 1.85 10.75 2.55 9.75 2.7 9.05 2.55 8.95 2.25 8.95 1.95 7.25 -0.75 6.7 -0.75 6.7 -1.6 6.0 -0.85 5.6 -0.7 5.35 -0.85 5.8 -1.35 5.7 -2.0 4.0 -2.0 4.0 -0.7"/></g></defs><g><g><use transform="matrix(11.8381500244,0.0,0.0,11.8381500244,22.6,6.35)" xlink:href="#c92"/></g></g></svg>