<?xml version='1.0' encoding='UTF-8'?>
<svg xmlns:xlink="http://www.w3.org/1999/xlink" xmlns="http://www.w3.org/2000/svg" version="1.1" width="512px" height="515px" viewBox="-240.902490234 -243.26001358 511.999964903 515.209996031"><defs><g id="c110"><path fill="#ffffff" stroke="none" d="M6.6 -3.7 L10.05 -4.3 15.9 1.45 14.4 2.9 11.95 0.5 9.85 2.7 12.2 5.05 8.65 8.6 8.55 8.8 5.0 12.4 2.55 9.95 0.35 12.1 2.8 14.55 1.3 15.95 -4.45 10.2 -3.85 6.55 Q-6.05 6.15 -8.2 5.05 L-12.35 2.05 Q-15.75 -1.45 -15.9 -7.0 -16.0 -10.95 -14.7 -14.65 -10.95 -16.15 -6.95 -15.95 -1.5 -15.75 1.95 -12.3 3.85 -10.4 5.05 -8.15 6.2 -5.95 6.6 -3.7"/></g></defs><g><g><use transform="matrix(16.0501556396,0.0,0.0,16.0501556396,15.9,15.95)" xlink:href="#c110"/></g></g></svg>