<?xml version='1.0' encoding='UTF-8'?>
<svg xmlns:xlink="http://www.w3.org/1999/xlink" xmlns="http://www.w3.org/2000/svg" version="1.1" width="512px" height="150px" viewBox="-234.202568054 -69.1714561463 511.999793244 150.448255158"><defs><g id="c136"><path fill="#ffffff" stroke="none" d="M-9.45 -1.55 L-9.45 -0.8 -8.1 -0.55 -6.9 -0.65 -5.75 -0.65 -4.8 -0.55 -4.8 -0.95 Q-5.15 -0.9 -5.3 -1.3 -5.6 -1.65 -6.8 -1.7 L-9.45 -1.55 M-13.5 -2.15 L-13.5 -1.65 -10.7 -1.1 -10.7 -1.55 -10.7 -1.85 -11.7 -2.1 -13.5 -2.15 M1.35 -0.95 L2.4 -1.15 4.45 -0.8 4.95 -1.75 4.9 -2.25 3.25 -2.1 2.1 -2.3 1.35 -2.25 1.35 -0.95 M0.1 -0.85 L0.1 -1.85 -0.5 -1.6 -3.5 -1.1 -3.5 -0.5 -3.45 -0.5 -1.65 -0.7 0.1 -0.85 M3.6 -4.0 L4.8 -4.15 Q4.8 -4.7 4.95 -5.05 L5.5 -5.45 10.75 -6.0 11.25 -5.75 11.65 -6.35 12.1 -6.15 12.3 -5.55 12.45 -2.9 12.35 -2.1 12.0 -1.75 11.45 -2.15 11.0 -1.75 9.35 -1.6 9.6 -1.05 21.45 -1.05 21.55 3.2 11.25 2.45 10.8 3.45 9.35 3.35 9.7 4.25 15.8 4.25 15.8 5.05 11.7 5.05 10.5 6.3 7.85 6.3 6.45 4.1 4.75 4.1 3.6 5.15 1.35 6.0 0.85 5.25 2.1 2.95 Q-9.35 3.45 -16.05 1.5 -19.45 0.55 -20.45 -0.5 L-21.5 -3.7 -14.75 -1.95 -14.75 -2.05 Q-15.0 -2.05 -15.15 -2.35 L-15.4 -2.95 -15.2 -3.6 -14.8 -3.95 -14.1 -4.0 -12.6 -4.05 Q-10.55 -4.05 -9.95 -3.3 L-7.7 -3.55 Q-5.65 -3.6 -4.85 -3.1 L-2.15 -3.15 -0.9 -3.35 0.55 -3.95 2.3 -4.15 3.6 -4.0"/></g></defs><g><g><use transform="matrix(11.8931427002,0.0,0.0,11.8931427002,21.5,6.35)" xlink:href="#c136"/></g></g></svg>