<?xml version='1.0' encoding='UTF-8'?>
<svg xmlns:xlink="http://www.w3.org/1999/xlink" xmlns="http://www.w3.org/2000/svg" version="1.1" width="351px" height="511px" viewBox="-164.754684448 -240.621058654 350.766989898 511.142117308"><defs><g id="c130"><path fill="#ffffff" stroke="none" d="M7.0 -12.7 L7.15 -12.9 7.35 -13.0 7.45 -13.2 7.7 -13.5 7.8 -13.65 7.95 -14.35 8.45 -14.85 9.2 -14.9 9.7 -14.45 9.75 -13.7 Q9.45 -12.6 8.65 -11.7 7.85 -10.8 6.25 -10.35 L3.45 -9.7 2.95 -9.55 2.4 -9.3 1.95 -9.05 1.5 -8.75 1.0 -8.1 0.95 -7.95 0.75 -7.55 2.35 -7.55 2.85 -7.35 2.95 -6.9 2.95 -5.15 Q6.2 -4.15 8.2 -1.5 10.25 1.25 10.25 4.65 10.25 8.9 7.2 11.85 4.25 14.9 0.0 14.9 -4.25 14.9 -7.2 11.85 -10.2 8.9 -10.2 4.65 -10.2 1.25 -8.15 -1.5 -6.15 -4.15 -2.95 -5.15 L-2.95 -6.9 -2.8 -7.35 Q-2.65 -7.55 -2.3 -7.55 L-1.15 -7.55 -0.55 -9.25 Q0.2 -10.4 1.75 -11.05 L4.5 -11.85 5.75 -12.15 6.3 -12.35 6.85 -12.6 6.85 -12.65 7.0 -12.7"/></g></defs><g><g><use transform="matrix(17.1524200439,0.0,0.0,17.1524200439,10.2,14.95)" xlink:href="#c130"/></g></g></svg>