<?xml version='1.0' encoding='UTF-8'?>
<svg xmlns:xlink="http://www.w3.org/1999/xlink" xmlns="http://www.w3.org/2000/svg" version="1.1" width="516px" height="286px" viewBox="-4.05062866211 -1.21518859863 516.455154419 286.379446411"><defs><g id="c248"><path fill="#000000" fill-opacity="0.992156862745" d="M61.65 12.5 L61.65 13.15 Q58.9 11.55 55.9 11.3 52.75 11.0 49.95 12.2 48.3 12.95 45.65 15.0 47.6 15.7 49.0 17.3 50.4 19.0 50.9 21.2 51.4 25.15 49.55 28.6 47.75 32.0 44.25 34.0 42.2 35.2 39.85 35.0 37.55 34.85 35.75 33.5 L35.5 33.5 33.6 32.4 Q29.65 34.6 25.65 34.75 18.3 35.1 13.4 28.0 L8.2 30.3 7.9 30.25 Q6.45 30.75 5.05 29.9 1.7 27.95 0.55 23.45 -0.5 19.45 0.4 15.3 L0.45 15.25 0.45 15.2 Q1.1 13.1 2.55 11.5 4.25 9.55 6.1 9.6 L7.05 9.3 Q6.9 5.7 7.95 2.75 L8.0 2.65 Q8.4 2.6 9.0 2.9 L9.95 3.45 Q13.25 5.15 15.45 4.8 20.5 3.95 24.85 1.0 26.5 -0.15 27.8 0.05 29.0 0.25 30.3 1.85 L33.15 5.15 Q34.8 6.75 36.75 7.65 L40.4 9.15 Q42.8 9.9 44.2 9.2 45.55 8.5 47.85 7.85 56.85 5.5 62.95 10.8 L63.2 11.5 Q63.25 12.05 63.05 11.85 L62.7 11.55 Q59.25 8.8 54.6 8.35 50.1 7.95 45.5 9.9 40.55 12.0 33.65 6.8 L30.45 2.9 Q28.15 0.25 26.55 1.2 L22.7 3.55 Q20.5 4.75 18.5 5.3 L13.95 5.8 Q11.95 5.55 9.6 4.3 7.35 3.15 7.6 9.1 11.35 7.9 12.75 8.55 15.6 9.85 17.15 13.1 18.55 16.05 18.35 19.45 17.95 26.0 15.05 27.25 L13.85 27.8 Q15.9 30.85 18.4 32.15 21.6 33.8 25.35 33.55 28.75 33.35 32.25 31.65 29.25 30.0 28.4 28.65 26.65 25.9 26.75 22.55 26.85 19.15 28.85 16.55 30.7 14.15 33.3 12.65 36.55 10.8 38.95 11.9 L44.7 14.6 Q45.15 13.9 46.3 13.1 49.8 10.55 53.7 10.2 57.75 9.85 61.4 12.0 L61.65 12.5 M37.95 27.4 Q36.85 28.2 35.95 28.5 L34.95 28.4 Q34.9 28.0 35.65 27.45 36.5 26.85 37.7 26.45 L40.55 25.55 37.95 27.4 M1.55 14.7 Q0.35 20.15 2.45 24.55 4.25 28.25 7.25 28.95 10.65 29.75 11.45 24.5 12.25 19.35 10.35 15.45 8.65 11.9 6.05 11.1 3.05 10.1 1.55 14.7 M7.2 20.95 L9.1 22.5 10.35 23.9 Q10.8 24.65 10.7 25.0 10.6 25.3 10.0 24.85 L8.75 23.35 7.2 20.95 M6.15 24.7 L6.4 21.55 6.8 24.85 Q7.1 28.25 6.5 28.1 6.25 28.05 6.15 27.05 L6.15 24.7 M2.9 23.3 Q2.3 23.55 2.2 23.15 2.1 22.75 2.55 22.25 3.0 21.7 3.75 21.35 L5.6 20.6 4.1 22.35 2.9 23.3 M3.7 17.5 L2.45 16.1 Q2.0 15.4 2.1 15.05 2.2 14.7 2.8 15.2 L4.05 16.65 5.6 19.05 3.7 17.5 M6.4 18.45 L6.0 15.2 Q5.75 11.8 6.3 11.9 6.95 12.1 6.65 15.3 L6.4 18.45 M8.7 17.65 L9.9 16.75 10.6 16.85 Q10.7 17.25 10.25 17.8 9.8 18.3 9.05 18.65 L7.2 19.4 8.7 17.65 M10.1 9.7 L7.95 10.2 8.45 10.55 Q11.3 12.85 12.45 17.1 13.5 21.2 12.35 24.8 11.7 26.85 10.35 28.45 L14.0 26.85 Q16.35 25.8 17.05 22.6 17.6 19.9 16.9 16.95 16.2 13.9 14.7 11.9 12.7 9.1 10.1 9.7 M39.5 13.75 Q35.7 11.95 32.0 14.35 28.3 16.75 27.95 21.05 27.7 24.5 29.25 26.85 30.4 28.55 33.3 30.4 32.9 29.5 32.85 28.5 32.35 24.6 34.2 21.1 36.0 17.7 39.5 15.7 40.35 15.2 41.8 14.8 L39.5 13.75 M38.45 22.65 Q37.45 22.05 36.9 21.35 36.35 20.7 36.6 20.35 L37.6 20.45 39.1 21.75 40.85 24.0 38.45 22.65 M25.85 3.85 Q26.35 3.65 26.0 4.25 23.15 8.95 22.25 14.9 21.45 20.55 22.55 26.15 L22.0 26.9 Q21.45 27.35 21.35 27.0 20.2 21.25 21.15 15.35 22.1 9.3 25.1 4.35 25.35 4.0 25.85 3.85 M41.55 26.4 L41.4 29.6 40.9 31.95 40.25 32.9 Q39.9 32.85 39.95 31.9 40.0 30.9 40.45 29.55 L41.55 26.4 M47.1 29.4 L46.15 29.3 Q45.4 28.85 44.6 27.95 L42.85 25.7 45.3 27.05 46.8 28.35 Q47.35 29.05 47.1 29.4 M49.75 22.1 Q49.15 19.55 47.65 17.85 45.9 15.9 43.5 15.8 39.1 15.65 36.05 19.5 33.0 23.3 34.0 27.65 34.55 30.15 36.05 31.85 37.8 33.8 40.25 33.9 44.85 34.1 47.65 30.25 50.25 26.65 49.75 22.1 M48.05 22.25 Q47.25 22.85 46.05 23.25 43.45 24.05 43.2 24.2 L45.75 22.3 Q46.9 21.55 47.75 21.25 L48.75 21.35 Q48.85 21.7 48.05 22.25 M42.8 17.75 Q43.15 16.8 43.5 16.8 43.9 16.85 43.8 17.85 L43.3 20.15 42.2 23.35 42.35 20.1 Q42.45 18.75 42.8 17.75"/><path fill="#ffffff" stroke="none" d="M61.65 12.5 L61.4 12.0 Q57.75 9.85 53.7 10.2 49.8 10.55 46.3 13.1 45.15 13.9 44.7 14.6 L38.95 11.9 Q36.55 10.8 33.3 12.65 30.7 14.15 28.85 16.55 26.85 19.15 26.75 22.55 26.65 25.9 28.4 28.65 29.25 30.0 32.25 31.65 28.75 33.35 25.35 33.55 21.6 33.8 18.4 32.15 15.9 30.85 13.85 27.8 L15.05 27.25 Q17.95 26.0 18.35 19.45 18.55 16.05 17.15 13.1 15.6 9.85 12.75 8.55 11.35 7.9 7.6 9.1 7.35 3.15 9.6 4.3 11.95 5.55 13.95 5.8 L18.5 5.3 Q20.5 4.75 22.7 3.55 L26.55 1.2 Q28.15 0.25 30.45 2.9 L33.65 6.8 Q40.55 12.0 45.5 9.9 50.1 7.95 54.6 8.35 59.25 8.8 62.7 11.55 L61.65 12.5 M42.8 17.75 Q42.45 18.75 42.35 20.1 L42.2 23.35 43.3 20.15 43.8 17.85 Q43.9 16.85 43.5 16.8 43.15 16.8 42.8 17.75 M48.05 22.25 Q48.85 21.7 48.75 21.35 L47.75 21.25 Q46.9 21.55 45.75 22.3 L43.2 24.2 Q43.45 24.05 46.05 23.25 47.25 22.85 48.05 22.25 M49.75 22.1 Q50.25 26.65 47.65 30.25 44.85 34.1 40.25 33.9 37.8 33.8 36.05 31.85 34.55 30.15 34.0 27.65 33.0 23.3 36.05 19.5 39.1 15.65 43.5 15.8 45.9 15.9 47.65 17.85 49.15 19.55 49.75 22.1 M47.1 29.4 Q47.35 29.05 46.8 28.35 L45.3 27.05 42.85 25.7 44.6 27.95 Q45.4 28.85 46.15 29.3 L47.1 29.4 M41.55 26.4 L40.45 29.55 Q40.0 30.9 39.95 31.9 39.9 32.85 40.25 32.9 L40.9 31.95 41.4 29.6 41.55 26.4 M25.85 3.85 Q25.35 4.0 25.1 4.35 22.1 9.3 21.15 15.35 20.2 21.25 21.35 27.0 21.45 27.35 22.0 26.9 L22.55 26.15 Q21.45 20.55 22.25 14.9 23.15 8.95 26.0 4.25 26.35 3.65 25.85 3.85 M38.45 22.65 L40.85 24.0 39.1 21.75 37.6 20.45 36.6 20.35 Q36.35 20.7 36.9 21.35 37.45 22.05 38.45 22.65 M39.5 13.75 L41.8 14.8 Q40.35 15.2 39.5 15.7 36.0 17.7 34.2 21.1 32.35 24.6 32.85 28.5 32.9 29.5 33.3 30.4 30.4 28.55 29.25 26.85 27.7 24.5 27.95 21.05 28.3 16.75 32.0 14.35 35.7 11.95 39.5 13.75 M10.1 9.7 Q12.7 9.1 14.7 11.9 16.2 13.9 16.9 16.95 17.6 19.9 17.05 22.6 16.35 25.8 14.0 26.85 L10.35 28.45 Q11.7 26.85 12.35 24.8 13.5 21.2 12.45 17.1 11.3 12.85 8.45 10.55 L7.95 10.2 10.1 9.7 M8.7 17.65 L7.2 19.4 9.05 18.65 Q9.8 18.3 10.25 17.8 10.7 17.25 10.6 16.85 L9.9 16.75 8.7 17.65 M6.4 18.45 L6.65 15.3 Q6.95 12.1 6.3 11.9 5.75 11.8 6.0 15.2 L6.4 18.45 M3.7 17.5 L5.6 19.05 4.05 16.65 2.8 15.2 Q2.2 14.7 2.1 15.05 2.0 15.4 2.45 16.1 L3.7 17.5 M2.9 23.3 L4.1 22.35 5.6 20.6 3.75 21.35 Q3.0 21.7 2.55 22.25 2.1 22.75 2.2 23.15 2.3 23.55 2.9 23.3 M6.15 24.7 L6.15 27.05 Q6.25 28.05 6.5 28.1 7.1 28.25 6.8 24.85 L6.4 21.55 6.15 24.7 M7.2 20.95 L8.75 23.35 10.0 24.85 Q10.6 25.3 10.7 25.0 10.8 24.65 10.35 23.9 L9.1 22.5 7.2 20.95 M1.55 14.7 Q3.05 10.1 6.05 11.1 8.65 11.9 10.35 15.45 12.25 19.35 11.45 24.5 10.65 29.75 7.25 28.95 4.25 28.25 2.45 24.55 0.35 20.15 1.55 14.7 M37.95 27.4 L40.55 25.55 37.7 26.45 Q36.5 26.85 35.65 27.45 34.9 28.0 34.95 28.4 L35.95 28.5 Q36.85 28.2 37.95 27.4"/></g></defs><g><g><use transform="matrix(8.10125732422,0.0,0.0,8.10125732422,0.0,0.0)" xlink:href="#c248"/></g></g></svg>