<?xml version='1.0' encoding='UTF-8'?>
<svg xmlns:xlink="http://www.w3.org/1999/xlink" xmlns="http://www.w3.org/2000/svg" version="1.1" width="515px" height="463px" viewBox="-243.991552734 -218.441390991 514.689761352 462.682781982"><defs><g id="c106"><path fill="#ffffff" stroke="none" d="M-7.0 8.65 Q-7.05 9.35 -6.5 9.8 -5.8 10.25 -4.35 10.45 L-3.4 10.5 1.45 9.1 1.3 9.0 0.15 7.7 -4.3 8.85 -4.35 8.95 -7.0 8.65 M-5.2 5.5 L-5.2 5.45 -9.8 5.05 -9.85 5.2 Q-9.95 6.5 -6.75 6.85 L-4.55 7.1 1.15 5.45 Q0.6 4.65 -0.25 4.15 L-5.15 5.45 -5.2 5.5 M-1.25 0.95 L-1.75 0.75 -6.55 2.0 -6.6 2.05 -8.2 1.85 Q-10.35 1.6 -11.55 1.0 L-11.9 1.55 Q-12.0 2.2 -11.2 2.65 L-8.55 3.3 -5.4 3.7 0.2 2.15 -1.25 0.95 M-10.5 -4.75 L-10.45 -4.9 -9.4 -6.2 -9.75 -6.15 Q-12.1 -5.5 -12.3 -3.95 -12.45 -2.45 -11.35 -1.3 -10.35 -0.15 -8.55 0.05 L-6.8 0.2 -1.45 -1.3 -1.45 -1.55 Q-2.35 -2.65 -3.8 -2.9 L-4.75 -3.0 -5.35 -2.95 -5.5 -2.9 -7.6 -2.45 -7.7 -2.45 -9.3 -3.15 -9.4 -3.2 -10.1 -4.35 -10.45 -4.6 -10.5 -4.75 M2.9 -12.9 L2.95 -12.9 Q4.55 -12.7 7.0 -9.9 L10.3 -5.6 10.8 -4.8 Q11.3 -4.4 12.4 -4.3 L14.1 -4.1 14.3 -3.9 14.3 -2.4 14.25 -2.25 Q14.2 -2.15 14.05 -2.15 10.9 -2.55 10.05 -3.0 L9.5 -3.55 8.2 -5.3 5.45 -8.95 Q3.75 -11.0 3.1 -11.15 L-4.4 -9.5 -7.85 -5.15 -7.65 -5.05 -7.25 -4.75 -6.5 -4.6 -4.9 -4.85 -3.85 -5.15 -2.95 -5.65 -2.3 -6.25 -1.5 -7.0 0.05 -7.55 0.1 -7.55 0.25 -7.4 Q1.75 -4.8 4.2 -3.15 L4.6 -2.85 4.75 -2.7 4.65 -2.55 3.85 -1.5 Q3.75 -1.4 3.65 -1.4 L3.5 -1.45 2.95 -1.8 Q0.75 -3.25 -0.6 -5.4 L-1.05 -4.85 -1.0 -3.65 Q0.5 -2.6 1.3 -0.45 L1.3 -0.3 1.15 -0.15 0.6 0.05 Q2.1 1.05 2.85 3.0 L2.85 3.25 2.7 3.4 1.9 3.55 Q3.1 4.55 3.95 6.3 L3.95 6.5 3.75 6.65 2.25 7.15 Q3.45 8.25 4.2 9.95 L4.1 10.15 4.0 10.25 1.05 11.15 1.6 11.2 2.7 11.3 Q6.8 9.7 9.6 7.1 L9.8 7.05 13.8 7.45 13.85 7.45 13.95 7.4 14.05 7.35 14.2 7.4 14.3 7.6 14.3 9.4 14.2 9.6 14.05 9.65 13.95 9.6 13.55 9.25 10.35 8.95 Q6.9 11.8 3.15 12.9 L3.1 12.9 1.35 12.85 -0.95 12.35 -3.4 12.35 -4.5 12.2 Q-7.35 11.9 -8.4 10.65 -9.05 9.85 -8.95 8.65 L-8.85 8.3 Q-12.05 7.65 -11.75 5.05 L-11.7 4.5 Q-12.8 4.05 -13.3 3.3 -13.95 2.55 -13.8 1.45 -13.75 0.6 -13.15 -0.3 -14.4 -2.05 -14.25 -4.0 -14.0 -6.4 -11.0 -7.55 L-7.8 -8.2 -5.5 -11.0 -5.4 -11.05 2.9 -12.9"/></g></defs><g><g><use transform="matrix(17.9334411621,0.0,0.0,17.9334411621,14.25,12.9)" xlink:href="#c106"/></g></g></svg>