<?xml version='1.0' encoding='UTF-8'?>
<svg xmlns:xlink="http://www.w3.org/1999/xlink" xmlns="http://www.w3.org/2000/svg" version="1.1" width="519px" height="417px" viewBox="-251.840633393 -211.106542969 518.781266785 417.059449768"><defs><g id="c67"><path fill="#ffffff" stroke="none" d="M1.45 -5.0 Q3.3 -6.4 5.2 -5.6 6.55 -5.0 7.1 -3.9 7.65 -2.9 7.5 -1.6 L7.4 -1.1 6.55 0.5 Q5.7 1.55 4.4 1.9 2.9 2.45 1.6 3.55 0.1 4.8 -0.05 5.9 -0.4 4.7 -1.7 3.55 -3.0 2.35 -4.35 1.9 -5.65 1.55 -6.55 0.5 -7.2 -0.2 -7.35 -1.1 L-7.5 -1.6 Q-7.65 -2.9 -7.05 -3.9 -6.5 -5.0 -5.2 -5.6 -3.3 -6.4 -1.45 -5.0 -0.5 -4.35 0.0 -3.4 L0.4 -4.0 1.45 -5.0"/></g></defs><g><g><use transform="matrix(33.9072723389,0.0,0.0,33.9072723389,7.55,5.9)" xlink:href="#c67"/></g></g></svg>