<?xml version='1.0' encoding='UTF-8'?>
<svg xmlns:xlink="http://www.w3.org/1999/xlink" xmlns="http://www.w3.org/2000/svg" version="1.1" width="512px" height="156px" viewBox="-234.646022797 -71.3413085939 511.999399568 156.089971161"><defs><g id="c134"><path fill="#ffffff" stroke="none" d="M17.85 4.85 Q18.4 4.85 18.4 3.95 L18.4 2.1 8.05 2.1 7.65 1.85 7.5 2.15 7.5 2.7 9.75 2.85 10.9 3.1 10.65 3.65 9.05 3.85 7.8 4.25 5.5 3.75 5.5 5.05 5.7 5.3 6.3 5.4 6.95 5.5 9.4 5.35 10.45 5.0 11.95 4.85 16.75 4.85 17.85 4.85 M4.25 -4.35 L4.35 -3.95 4.15 -3.6 3.6 -3.2 3.8 -2.85 6.45 -4.95 6.75 -5.0 7.05 -4.9 7.1 -4.6 6.95 -4.3 4.95 -2.75 5.05 -2.75 5.4 -2.55 5.6 -2.2 5.6 -2.15 8.05 -2.95 8.45 -2.95 8.75 -2.7 9.05 -1.7 18.2 -1.7 18.2 -2.15 18.35 -2.55 18.7 -2.7 18.9 -2.7 19.3 -2.55 19.4 -2.15 19.4 -1.7 20.6 -1.7 21.0 -1.5 21.1 -1.15 21.1 1.55 21.0 2.0 20.6 2.1 19.45 2.1 19.45 3.95 Q19.45 4.85 19.0 5.35 18.6 5.9 17.85 5.9 L16.75 5.9 13.0 5.95 11.65 5.9 10.9 5.95 9.8 6.35 8.8 6.45 6.9 6.45 6.3 6.45 5.0 6.1 Q4.45 5.7 4.45 5.05 L4.45 3.15 4.0 2.85 3.5 3.2 2.25 3.85 1.1 4.15 -0.05 3.9 -0.15 3.85 -0.8 3.75 -1.45 3.85 -2.45 4.25 -3.55 4.45 -4.45 4.45 -5.6 4.25 -6.65 3.85 -7.45 3.5 -8.35 3.4 -8.75 3.4 -9.6 3.5 -10.25 3.75 -11.2 4.1 -12.25 4.2 -15.55 4.2 -16.65 4.0 -17.7 3.5 -20.0 1.8 -20.75 0.85 -21.05 -0.25 -20.6 -1.3 Q-20.1 -1.7 -19.45 -1.7 L-19.25 -1.7 -18.7 -1.8 -18.4 -2.4 Q-17.95 -2.85 -17.15 -2.8 L-15.5 -2.75 -13.5 -2.8 -11.3 -3.1 -10.2 -3.15 -9.15 -3.2 -4.45 -3.2 -3.55 -3.25 -0.8 -4.7 -0.45 -4.8 -0.15 -4.55 2.1 -6.3 2.45 -6.4 2.8 -6.2 4.25 -4.35"/></g></defs><g><g><use transform="matrix(12.1470794678,0.0,0.0,12.1470794678,21.05,6.4)" xlink:href="#c134"/></g></g></svg>