<?xml version='1.0' encoding='UTF-8'?>
<svg xmlns:xlink="http://www.w3.org/1999/xlink" xmlns="http://www.w3.org/2000/svg" version="1.1" width="532px" height="532px" viewBox="-255.26085968 -245.473942565 532.284802245 532.284802245"><defs><g id="c144"><path fill="#ffffff" stroke="none" d="M-8.2 -8.4 Q-8.7 -10.45 -7.75 -11.35 L-5.45 -13.65 -5.1 -11.45 -8.2 -8.4 M-1.75 -7.55 L-3.3 -8.3 -5.15 -6.45 -7.65 -7.55 -4.65 -10.55 -0.8 -8.45 -1.75 -7.55 M8.35 15.0 Q6.65 16.7 2.0 14.45 -2.65 12.25 -7.45 7.45 -12.3 2.65 -14.5 -2.0 -16.7 -6.7 -14.95 -8.4 L-13.05 -10.3 Q-13.2 -7.55 -10.7 -3.25 -8.35 0.7 -4.5 4.5 -0.7 8.3 3.3 10.65 7.5 13.2 10.3 13.0 L8.35 15.0 M7.5 7.6 L6.4 5.15 8.25 3.25 7.5 1.65 8.45 0.8 10.55 4.6 7.5 7.6 M12.55 7.9 Q13.05 10.3 12.0 11.35 10.25 13.05 5.65 10.9 1.0 8.65 -3.85 3.85 -8.7 -1.0 -10.85 -5.65 -13.05 -10.25 -11.35 -12.0 -10.3 -13.1 -7.9 -12.6 L-8.45 -12.0 Q-10.05 -10.45 -8.85 -7.15 -8.85 -7.1 -7.35 -6.4 L-5.9 -5.7 -7.4 -4.2 Q-5.5 -0.95 -2.35 2.25 L-2.3 2.25 -2.25 2.3 Q0.95 5.55 4.15 7.4 L5.7 5.85 7.1 8.8 Q10.45 10.0 12.0 8.45 L12.55 7.9 M13.65 5.45 L11.3 7.75 Q10.45 8.65 8.4 8.15 L11.45 5.05 13.65 5.45 M12.3 -1.9 L11.3 -2.45 Q11.05 -3.75 9.9 -5.3 L13.65 -3.25 12.3 -1.9 M10.9 -0.75 L11.25 -1.4 15.65 0.95 Q16.1 3.0 15.15 3.85 14.6 4.45 13.6 4.45 L11.35 4.05 8.95 -0.3 Q10.2 -0.05 10.9 -0.75 M0.45 -8.4 Q0.9 -7.3 2.05 -5.75 L-0.75 -7.1 0.45 -8.4 M5.75 -2.05 Q7.15 -0.95 8.35 -0.5 L7.1 0.8 5.75 -2.05 M1.55 -1.6 L1.6 -1.55 Q4.25 1.1 7.05 2.9 L7.1 3.1 4.0 6.2 Q1.1 4.35 -1.6 1.6 L-1.6 1.55 -1.65 1.55 Q-4.45 -1.25 -6.2 -4.05 L-3.05 -7.15 -2.95 -7.1 Q-1.15 -4.3 1.55 -1.6 M2.25 -2.25 L2.25 -2.3 -1.2 -6.2 3.9 -3.75 6.2 1.15 Q4.15 -0.35 2.25 -2.25 M2.4 -11.35 L1.9 -12.35 3.25 -13.75 5.25 -9.95 Q3.6 -11.15 2.4 -11.35 M1.4 -10.25 Q1.95 -10.8 3.6 -9.85 5.25 -9.0 7.1 -7.15 8.95 -5.3 9.85 -3.65 10.75 -1.95 10.2 -1.45 9.65 -0.85 8.0 -1.75 6.3 -2.65 4.5 -4.45 2.65 -6.3 1.7 -7.95 0.8 -9.65 1.4 -10.25 M0.7 -10.9 Q0.0 -10.25 0.35 -8.95 L-4.1 -11.35 Q-5.0 -14.1 -3.9 -15.2 -3.05 -16.1 -1.0 -15.65 L1.35 -11.3 Q1.0 -11.2 0.7 -10.9 M6.9 -6.9 L5.65 -7.9 4.8 -8.0 Q4.55 -7.85 4.95 -7.25 L5.9 -5.95 Q6.6 -5.3 7.2 -4.95 L8.05 -4.85 7.9 -5.6 6.9 -6.9 M9.0 -9.05 L9.05 -9.05 12.55 -4.95 8.3 -7.3 7.3 -8.3 4.95 -12.6 9.0 -9.05"/></g></defs><g><g><use transform="matrix(16.2281951904,0.0,0.0,16.2281951904,15.75,15.8)" xlink:href="#c144"/></g></g></svg>