<?xml version='1.0' encoding='UTF-8'?>
<svg xmlns:xlink="http://www.w3.org/1999/xlink" xmlns="http://www.w3.org/2000/svg" version="1.1" width="511px" height="512px" viewBox="-229.347247315 -248.593170166 511.14807129 511.999984742"><defs><g id="c160"><path fill="#ffffff" stroke="none" d="M-6.85 14.55 Q-9.9 14.55 -12.1 12.4 -14.3 10.2 -14.3 7.15 -14.3 4.05 -12.15 1.9 L-5.85 -4.4 Q-4.7 -0.7 -1.9 2.1 0.85 4.85 4.6 6.05 L-1.65 12.35 Q-3.8 14.5 -6.85 14.55 M8.35 -15.5 Q11.4 -15.45 13.55 -13.3 15.7 -11.15 15.7 -8.05 15.7 -5.0 13.5 -2.8 L6.0 4.65 Q2.2 3.7 -0.7 0.9 -3.5 -1.9 -4.45 -5.8 L3.1 -13.35 Q5.3 -15.5 8.35 -15.5 M8.05 -11.6 Q8.55 -12.2 8.05 -12.8 7.45 -13.3 6.85 -12.8 L-0.85 -5.05 -1.1 -4.45 -0.85 -3.9 Q-0.6 -3.65 -0.25 -3.65 0.1 -3.65 0.3 -3.9 L8.05 -11.6"/></g></defs><g><g><use transform="matrix(17.038269043,0.0,0.0,17.038269043,14.3,15.5)" xlink:href="#c160"/></g></g></svg>