<?xml version='1.0' encoding='UTF-8'?>
<svg xmlns:xlink="http://www.w3.org/1999/xlink" xmlns="http://www.w3.org/2000/svg" version="1.1" width="512px" height="340px" viewBox="-239.40532837 -158.025741578 511.999562074 340.018199159"><defs><g id="c132"><path fill="#ffffff" stroke="none" d="M0.75 4.15 L0.2 3.75 Q-0.9 4.3 -1.35 4.15 L-2.15 2.9 -2.65 1.7 -3.35 1.65 Q-4.0 1.6 -4.15 1.9 -4.3 2.4 -3.8 3.55 -3.3 4.9 -2.25 4.95 L0.0 4.65 0.75 4.15 M0.45 -8.95 L4.55 -9.3 9.75 -8.7 13.75 -7.65 Q15.9 -7.15 16.25 -6.75 L14.85 -5.8 13.85 -5.45 14.3 -5.05 Q12.35 -3.45 9.95 -3.25 L8.15 -3.2 6.55 -2.95 5.6 -2.2 5.2 -1.55 4.4 -1.45 Q3.55 -1.25 3.1 -0.5 2.75 0.05 3.9 1.4 L6.25 4.25 7.9 6.95 Q8.45 8.2 8.5 9.6 8.55 10.7 7.2 10.85 L5.8 10.75 4.45 10.6 Q2.9 10.25 2.3 9.55 1.75 9.0 1.85 7.75 L2.0 6.2 Q1.95 5.2 1.65 4.95 L1.3 4.9 -0.85 5.6 Q-3.25 6.05 -3.95 4.55 -4.55 3.5 -5.45 2.75 L-6.65 1.95 -7.8 2.1 -8.65 2.55 -9.6 1.65 -10.35 0.85 -13.15 -0.7 Q-16.0 -2.45 -16.2 -3.15 -15.9 -3.85 -12.75 -5.3 L-9.65 -6.6 -8.85 -7.15 -6.75 -8.15 -4.6 -8.55 -3.7 -8.5 -3.2 -8.95 -1.95 -9.9 Q-1.15 -10.45 0.0 -10.7 L1.45 -10.5 Q1.6 -10.2 0.6 -9.45 L0.15 -9.0 0.45 -8.95"/></g></defs><g><g><use transform="matrix(15.7781066895,0.0,0.0,15.7781066895,16.2,10.8)" xlink:href="#c132"/></g></g></svg>