<?xml version='1.0' encoding='UTF-8'?>
<svg xmlns:xlink="http://www.w3.org/1999/xlink" xmlns="http://www.w3.org/2000/svg" version="1.1" width="512px" height="255px" viewBox="-233.328968811 -115.901971435 511.999595642 255.162284851"><defs><g id="c112"><path fill="#ffffff" stroke="none" d="M-18.8 -5.75 L-18.8 -5.4 -6.5 -5.5 -6.5 -5.7 -18.8 -5.75 M-18.8 -7.3 L-18.8 -6.9 -6.5 -7.0 -6.5 -7.2 -18.8 -7.3 M-20.8 -5.8 L-20.8 -5.3 -19.55 -5.4 -19.55 -5.8 -20.8 -5.8 M-19.55 -6.9 L-19.55 -7.3 -20.8 -7.3 -20.8 -6.8 -19.55 -6.9 M8.3 -11.25 L8.65 -11.4 8.95 -11.25 9.05 -10.95 9.05 -10.25 14.3 -10.25 14.7 -10.15 14.8 -9.8 14.8 -9.65 16.3 -9.65 17.2 -9.9 17.2 -10.15 17.4 -10.45 17.7 -10.55 17.75 -10.55 18.05 -10.45 18.2 -10.15 18.2 -9.9 19.95 -9.75 Q20.2 -9.45 20.75 -9.3 L20.75 -9.55 Q20.45 -9.7 20.45 -10.0 L20.45 -10.2 20.65 -10.55 20.95 -10.7 22.4 -10.7 22.75 -10.55 22.9 -10.2 22.9 -10.0 Q22.9 -9.7 22.7 -9.55 L22.7 -4.75 22.5 -4.3 Q22.4 -3.75 22.15 -3.7 L20.9 -3.65 Q20.2 -3.5 19.95 -3.2 L18.2 -3.05 18.05 -2.75 17.75 -2.65 17.7 -2.65 17.4 -2.75 17.25 -3.05 17.2 -3.05 16.3 -3.3 15.7 -3.3 15.7 -2.75 16.3 -2.75 16.8 -2.7 17.25 -2.5 18.15 -2.0 18.4 -1.75 18.5 -1.3 18.5 10.0 18.4 10.45 18.15 10.75 17.25 11.2 16.3 11.45 8.25 11.45 7.4 11.2 6.45 10.75 6.2 10.45 6.05 10.0 6.05 9.8 3.9 9.8 3.5 9.7 3.4 9.4 3.4 6.15 3.5 5.8 3.9 5.7 6.05 5.7 6.05 -1.3 6.2 -1.75 6.45 -2.0 7.4 -2.5 8.15 -2.75 8.15 -3.0 6.75 -3.05 5.9 -3.25 5.3 -3.5 Q4.9 -3.2 4.5 -3.2 L4.5 -3.55 3.55 -3.55 3.55 -3.45 3.45 -3.15 Q3.3 -3.0 3.15 -3.0 2.95 -3.0 2.8 -3.15 L2.7 -3.45 2.7 -3.55 2.25 -3.55 2.25 -3.45 2.15 -3.15 Q2.0 -3.0 1.8 -3.0 1.65 -3.0 1.5 -3.15 L1.4 -3.45 1.4 -3.65 0.95 -3.65 0.95 -3.45 0.8 -3.15 Q0.7 -3.0 0.5 -3.0 0.3 -3.0 0.2 -3.15 0.05 -3.25 0.05 -3.45 L0.05 -3.55 -0.4 -3.55 -0.4 -3.45 -0.5 -3.15 Q-0.65 -3.0 -0.8 -3.0 -1.0 -3.0 -1.15 -3.15 L-1.25 -3.45 -1.25 -3.55 -1.7 -3.5 -1.7 -3.45 -1.8 -3.15 -2.15 -3.0 Q-2.3 -3.0 -2.45 -3.15 L-2.55 -3.45 -2.55 -3.5 -3.0 -3.5 -3.0 -3.45 Q-3.0 -3.25 -3.15 -3.15 -3.25 -3.0 -3.45 -3.0 -3.65 -3.0 -3.7 -3.15 L-3.9 -3.45 -3.9 -3.5 -4.3 -3.45 Q-4.3 -3.25 -4.45 -3.15 -4.55 -3.0 -4.75 -3.0 -4.9 -3.0 -5.05 -3.15 L-5.2 -3.45 -5.2 -3.5 -5.65 -3.55 -5.65 -3.45 -5.75 -3.15 Q-5.9 -3.0 -6.0 -3.0 -6.2 -3.0 -6.3 -3.15 L-6.5 -3.45 -6.5 -4.2 -18.8 -4.25 Q-18.9 -4.0 -19.2 -4.0 L-19.4 -4.05 -19.55 -4.3 -20.8 -4.3 -21.0 -4.05 -21.2 -4.0 -21.45 -4.05 -21.55 -4.3 -21.75 -4.3 Q-21.95 -4.3 -22.05 -4.45 L-22.25 -4.8 -22.2 -4.95 -22.95 -5.45 -22.9 -7.3 -22.25 -7.75 -22.25 -7.8 -22.05 -8.2 -21.75 -8.3 -21.55 -8.3 -21.45 -8.55 -21.2 -8.65 -21.0 -8.55 -20.9 -8.3 -19.55 -8.4 -19.2 -8.65 -18.8 -8.4 -6.5 -8.55 -6.5 -9.75 -6.3 -10.05 -6.0 -10.2 -5.75 -10.05 -5.65 -9.75 -5.65 -9.25 -5.2 -9.3 -5.2 -9.75 -5.05 -10.05 -4.75 -10.2 -4.45 -10.05 -4.3 -9.75 -4.3 -9.4 -3.9 -9.4 -3.9 -9.75 -3.7 -10.05 -3.45 -10.2 -3.15 -10.05 -3.0 -9.75 -3.0 -9.3 -2.55 -9.3 -2.55 -9.75 -2.45 -10.05 -2.15 -10.2 -1.8 -10.05 -1.7 -9.75 -1.7 -9.3 -1.25 -9.25 -1.25 -9.75 -1.15 -10.05 -0.8 -10.2 -0.5 -10.05 -0.4 -9.75 -0.4 -9.25 0.05 -9.25 0.05 -9.75 0.2 -10.05 0.5 -10.2 0.8 -10.05 0.95 -9.75 0.95 -9.25 1.4 -9.2 1.4 -9.75 1.5 -10.05 1.8 -10.2 2.15 -10.05 2.25 -9.75 2.25 -9.3 2.7 -9.3 2.7 -9.75 2.8 -10.05 3.15 -10.2 3.45 -10.05 3.55 -9.75 3.55 -9.3 4.5 -9.3 4.5 -9.7 5.3 -9.4 5.9 -9.55 6.75 -9.8 8.15 -9.9 8.15 -10.95 8.3 -11.25"/></g></defs><g><g><use transform="matrix(11.1668395996,0.0,0.0,11.1668395996,22.95,11.4)" xlink:href="#c112"/></g></g></svg>