<?xml version='1.0' encoding='UTF-8'?>
<svg xmlns:xlink="http://www.w3.org/1999/xlink" xmlns="http://www.w3.org/2000/svg" version="1.1" width="310px" height="512px" viewBox="-150.483847809 -250.099916077 310.237186432 511.999832154"><defs><g id="c36"><path fill="#ffffff" stroke="none" d="M-0.6 -1.5 L-0.8 -1.2 -1.75 0.3 Q-2.25 1.1 -2.25 1.75 -2.25 2.4 -1.8 2.9 -1.35 3.4 -0.6 3.6 L-0.6 -1.5 M0.65 -3.9 L1.75 -1.95 3.0 0.3 Q3.6 1.55 3.6 2.55 3.6 3.95 2.55 4.9 1.45 5.9 0.0 5.9 -1.5 5.9 -2.55 4.9 -3.55 3.95 -3.55 2.55 -3.55 1.55 -2.95 0.25 L-1.7 -2.0 -0.6 -3.9 Q-0.15 -4.95 -0.15 -5.7 L0.0 -5.9 0.1 -5.85 0.15 -5.7 Q0.15 -4.95 0.65 -3.9"/></g></defs><g><g><use transform="matrix(43.3898162842,0.0,0.0,43.3898162842,3.55,5.9)" xlink:href="#c36"/></g></g></svg>