<?xml version='1.0' encoding='UTF-8'?>
<svg xmlns:xlink="http://www.w3.org/1999/xlink" xmlns="http://www.w3.org/2000/svg" version="1.1" width="512px" height="251px" viewBox="-235.599829102 -114.285211182 511.999658204 250.98022461"><defs><g id="c116"><path fill="#ffffff" stroke="none" d="M-5.55 -0.45 L-8.3 -0.45 -9.6 1.1 Q-10.4 1.7 -11.3 1.85 -10.4 3.75 -8.85 3.8 -7.75 3.8 -6.8 2.35 -6.1 1.25 -5.55 -0.45 M16.7 -2.5 L15.65 -2.6 14.55 -2.6 14.45 0.55 14.45 3.55 15.2 3.55 16.1 3.5 16.45 0.5 16.7 -2.5 M0.1 -9.05 Q0.25 -9.5 0.75 -9.75 L1.6 -9.9 11.8 -6.8 12.05 -6.7 12.6 -7.3 Q13.4 -7.85 14.5 -7.85 15.65 -7.85 17.25 -7.25 L19.1 -6.35 Q19.9 -5.85 20.2 -4.55 L20.4 -2.9 20.2 0.45 19.7 3.55 19.3 5.55 Q19.1 6.35 18.55 6.8 17.8 7.55 16.4 7.55 L14.15 7.2 Q12.6 6.75 11.9 5.95 11.35 5.45 11.2 4.6 10.95 3.55 10.95 1.6 L8.5 0.5 Q9.35 2.95 9.5 5.2 L6.55 5.2 6.35 3.0 5.2 -1.1 3.5 -1.85 0.2 8.75 -0.2 9.65 Q-0.3 10.1 -0.35 9.95 L-4.1 8.35 -4.85 7.55 -4.9 6.5 -2.7 -0.45 -3.65 -0.45 Q-4.25 1.8 -5.15 3.25 -6.8 5.95 -8.85 5.95 L-8.9 5.95 Q-11.3 5.95 -12.8 3.15 L-13.4 1.65 Q-14.75 1.1 -15.55 -0.45 L-17.7 -0.45 Q-17.95 -0.45 -18.05 -0.6 L-18.3 -1.1 -18.3 -1.4 -18.85 -1.4 -19.05 -1.35 -19.85 -1.35 -20.3 -1.6 -20.4 -2.1 -20.4 -8.15 -20.3 -8.65 -19.85 -8.95 -19.05 -8.95 Q-18.85 -8.95 -18.7 -8.75 L-18.5 -8.4 -18.05 -8.4 -17.7 -8.6 0.1 -9.05"/></g></defs><g><g><use transform="matrix(12.5490112305,0.0,0.0,12.5490112305,20.4,9.95)" xlink:href="#c116"/></g></g></svg>