<?xml version='1.0' encoding='UTF-8'?>
<svg xmlns:xlink="http://www.w3.org/1999/xlink" xmlns="http://www.w3.org/2000/svg" version="1.1" width="512px" height="512px" viewBox="-240.999984741 -240.999984741 511.999969482 511.999969482"><defs><g id="c46"><path fill="#ffffff" stroke="none" d="M6.05 -6.15 Q3.9 -8.3 0.85 -8.6 L0.85 -6.4 0.6 -5.75 0.0 -5.55 -0.65 -5.75 -0.9 -6.4 -0.9 -8.6 Q-3.95 -8.3 -6.15 -6.15 -8.3 -3.95 -8.6 -0.9 L-6.6 -0.9 -5.95 -0.65 -5.7 0.0 -5.95 0.6 -6.6 0.85 -8.6 0.85 Q-8.3 3.9 -6.15 6.1 -3.95 8.25 -0.9 8.55 L-0.9 6.35 -0.65 5.75 Q-0.4 5.45 0.0 5.45 0.35 5.45 0.6 5.75 L0.85 6.35 0.85 8.55 Q3.9 8.25 6.05 6.1 8.25 3.9 8.55 0.85 L6.35 0.85 5.75 0.6 Q5.45 0.35 5.45 0.0 5.45 -0.4 5.75 -0.65 L6.35 -0.9 8.55 -0.9 Q8.25 -3.95 6.05 -6.15 M0.6 -14.75 L0.85 -14.15 0.85 -10.4 Q4.65 -10.05 7.3 -7.35 10.0 -4.7 10.3 -0.9 L14.1 -0.9 14.7 -0.65 15.0 0.0 14.7 0.6 14.1 0.85 10.3 0.85 Q10.0 4.65 7.3 7.3 4.65 10.0 0.85 10.3 L0.85 14.1 0.6 14.7 0.0 15.0 Q-0.4 15.0 -0.65 14.7 L-0.9 14.1 -0.9 10.3 Q-4.7 10.0 -7.4 7.3 -10.05 4.65 -10.4 0.85 L-14.15 0.85 -14.75 0.6 -15.0 0.0 -14.75 -0.65 -14.15 -0.9 -10.4 -0.9 Q-10.05 -4.7 -7.4 -7.35 -4.7 -10.05 -0.9 -10.4 L-0.9 -14.15 -0.65 -14.75 0.0 -15.0 0.6 -14.75"/></g></defs><g><g><use transform="matrix(17.0666656494,0.0,0.0,17.0666656494,15.0,15.0)" xlink:href="#c46"/></g></g></svg>