<?xml version='1.0' encoding='UTF-8'?>
<svg xmlns:xlink="http://www.w3.org/1999/xlink" xmlns="http://www.w3.org/2000/svg" version="1.1" width="512px" height="110px" viewBox="-233.499984741 -49.8133300781 511.999969482 109.795549011"><defs><g id="c128"><path fill="#ffffff" stroke="none" d="M-8.25 -2.05 L-8.25 -1.55 -8.05 -1.55 -7.9 -1.6 -2.85 -1.6 -2.85 -2.05 -8.25 -2.05 M9.85 -0.25 L9.7 -0.2 9.75 0.05 12.05 2.85 12.55 2.6 12.95 2.15 12.15 0.25 11.95 0.0 11.75 -0.2 9.85 -0.25 M2.85 -0.25 L3.0 -0.1 3.15 0.05 4.55 0.05 3.95 -0.85 3.85 -1.0 -0.85 -1.0 -0.25 -0.65 0.35 -0.25 2.85 -0.25 M3.9 -3.85 L3.95 -3.9 4.1 -4.05 4.4 -4.05 4.55 -3.9 4.65 -3.85 4.65 -3.45 5.25 -3.45 5.25 -4.65 5.3 -4.8 5.4 -4.8 5.9 -4.8 6.0 -4.8 6.05 -4.65 6.05 -3.45 8.0 -3.45 8.2 -3.3 8.25 -3.25 8.25 -2.65 9.25 -2.65 9.55 -2.6 9.6 -2.3 9.6 -2.0 19.65 -2.0 19.9 -2.05 20.1 -2.35 20.4 -2.95 20.55 -3.2 20.85 -3.2 21.55 -3.0 21.7 -2.85 21.85 -2.55 21.7 -0.25 21.85 0.55 22.5 3.35 22.5 3.75 22.3 3.9 20.65 4.85 20.4 4.85 20.2 4.7 18.75 2.2 Q18.3 1.45 17.5 1.3 L16.2 1.6 11.95 3.8 11.65 3.8 11.45 3.65 9.45 1.6 9.25 1.6 8.35 1.6 8.25 1.6 8.05 3.45 7.7 3.45 Q7.95 2.2 7.0 1.25 L5.9 1.25 5.55 1.15 5.25 0.9 5.0 0.6 3.15 0.6 3.05 0.8 2.85 0.9 0.35 0.9 -0.25 1.4 -1.0 1.75 -7.4 1.75 -7.65 1.6 -7.8 1.3 -7.8 -0.65 -7.6 -1.0 -7.9 -1.0 -8.05 -1.1 -9.2 0.5 -9.5 0.7 -9.9 0.85 -13.15 0.85 -13.4 0.7 -13.4 0.5 -12.15 -1.2 -11.85 -1.45 -11.85 -2.05 -22.25 -2.05 Q-22.5 -2.05 -22.5 -2.2 L-22.5 -3.25 -22.25 -3.45 -11.85 -3.45 -11.85 -3.65 -11.85 -3.8 -11.65 -3.9 -8.5 -3.9 -8.3 -3.8 -8.25 -3.65 -8.25 -3.45 -2.85 -3.45 -2.85 -3.85 -2.7 -3.9 -2.65 -4.05 -2.3 -4.05 -2.1 -3.9 -2.1 -3.45 3.9 -3.45 3.9 -3.85"/></g></defs><g><g><use transform="matrix(11.3777770996,0.0,0.0,11.3777770996,22.5,4.8)" xlink:href="#c128"/></g></g></svg>