<?xml version='1.0' encoding='UTF-8'?>
<svg xmlns:xlink="http://www.w3.org/1999/xlink" xmlns="http://www.w3.org/2000/svg" version="1.1" width="510px" height="514px" viewBox="-249.809669494 -232.8419281 510.348371886 513.651597594"><defs><g id="c156"><path fill="#ffffff" stroke="none" d="M1.9 4.15 Q3.55 2.45 3.8 0.4 4.15 -1.7 2.9 -2.95 1.65 -4.2 -0.45 -3.85 -2.5 -3.55 -4.2 -1.95 -5.85 -0.3 -6.1 1.8 -6.4 3.85 -5.15 5.1 -3.9 6.35 -1.85 6.05 0.25 5.8 1.9 4.15 M2.5 0.4 L2.3 1.3 2.0 1.95 1.0 3.25 Q-0.3 4.55 -1.85 4.75 -3.3 4.95 -4.15 4.1 -5.0 3.25 -4.8 1.8 -4.6 0.25 -3.3 -1.05 -2.05 -2.3 -0.45 -2.55 1.0 -2.75 1.85 -1.9 2.75 -1.05 2.5 0.4 M13.9 -14.35 Q14.7 -15.0 14.8 -14.85 L14.25 -13.95 12.8 -12.0 12.5 -11.6 Q13.05 -11.1 13.15 -10.15 L13.1 -9.1 12.5 -8.4 Q12.05 -8.15 11.15 -7.5 L10.3 -6.8 9.4 -5.95 8.3 -4.6 6.25 -0.6 3.25 4.85 Q2.15 6.55 0.45 8.3 L-2.6 10.85 -3.0 12.9 -6.2 16.1 -8.35 13.95 -9.1 13.7 -11.0 12.5 -12.5 14.0 -14.05 12.45 -12.55 10.95 -13.75 9.05 -14.0 8.3 -16.1 6.15 -12.95 2.95 -10.9 2.6 -8.35 -0.5 Q-6.6 -2.2 -4.9 -3.3 -3.4 -4.3 0.55 -6.3 L4.55 -8.35 6.8 -10.35 7.45 -11.2 8.35 -12.55 9.05 -13.15 10.1 -13.2 Q11.05 -13.1 11.6 -12.55 L12.0 -12.85 13.9 -14.35"/></g></defs><g><g><use transform="matrix(16.51612854,0.0,0.0,16.51612854,16.1,14.9)" xlink:href="#c156"/></g></g></svg>