<?xml version='1.0' encoding='UTF-8'?>
<svg xmlns:xlink="http://www.w3.org/1999/xlink" xmlns="http://www.w3.org/2000/svg" version="1.1" width="444px" height="513px" viewBox="-122.639254761 -142.64914856 443.79208374 512.562918091"><defs><g id="c251"><path fill="#000000" stroke="none" d="M5.9 -111.75 L5.6 -111.75 Q4.35 -111.75 1.25 -108.05 L-0.8 -105.9 Q-1.4 -105.4 -2.15 -105.5 -2.9 -105.6 -4.05 -106.25 L-6.4 -107.05 -7.6 -107.05 Q-9.5 -106.8 -14.45 -102.35 -16.55 -100.55 -19.05 -100.85 -20.8 -101.1 -22.05 -102.35 -23.05 -103.5 -22.7 -105.35 -24.2 -104.2 -24.95 -102.65 -26.0 -100.65 -25.75 -97.8 -25.5 -94.9 -23.9 -92.9 -23.1 -91.9 -21.7 -91.65 -19.7 -91.45 -17.45 -92.85 L-14.7 -95.5 Q-12.0 -98.05 -10.95 -98.5 L-8.55 -98.95 Q-7.75 -98.8 -6.05 -97.65 L-4.8 -96.8 -4.2 -96.6 Q-3.65 -96.5 -2.6 -96.95 L-0.4 -97.9 3.2 -99.55 4.05 -99.6 Q5.8 -99.35 8.25 -95.85 10.85 -92.2 11.15 -92.1 L11.45 -92.05 14.6 -92.65 18.2 -93.4 19.3 -93.35 Q21.95 -93.0 23.2 -90.9 24.1 -89.35 24.1 -87.4 24.15 -85.95 22.4 -84.25 21.05 -83.0 19.3 -82.05 L20.8 -80.6 22.8 -78.35 Q25.45 -74.95 25.7 -70.75 27.05 -73.3 28.1 -76.75 30.25 -83.65 28.9 -88.25 28.15 -90.85 26.9 -93.25 25.2 -96.55 23.4 -97.6 L20.95 -101.6 Q18.9 -105.1 16.05 -105.85 14.65 -106.2 11.85 -107.55 11.1 -107.9 10.4 -108.6 L9.25 -109.85 Q7.4 -111.55 5.9 -111.75 M5.7 -113.35 L6.35 -113.3 Q8.3 -113.05 10.35 -111.05 L12.55 -108.85 Q13.2 -108.55 15.45 -108.0 L18.95 -106.85 Q20.05 -106.3 21.65 -102.85 23.25 -99.55 24.05 -99.2 26.35 -98.25 28.7 -94.1 30.4 -91.1 31.3 -88.15 32.05 -85.7 31.55 -81.45 31.15 -77.65 30.05 -74.55 L27.65 -68.9 Q26.3 -66.05 25.25 -64.75 L24.35 -64.0 25.35 -63.65 Q27.55 -59.95 24.6 -55.85 21.75 -51.9 18.0 -52.4 L17.5 -52.5 Q15.6 -50.0 11.0 -46.3 L10.9 -45.5 Q43.5 -42.2 66.1 -28.95 L71.05 -26.0 74.4 -23.4 Q81.2 -22.35 83.85 -20.9 90.35 -17.35 94.2 -12.45 95.5 -10.85 95.6 -9.1 95.7 -7.7 95.15 -6.55 97.3 -1.8 96.25 0.55 L95.6 1.5 Q99.05 7.5 96.25 9.5 94.8 10.55 92.55 9.25 91.25 8.5 88.55 6.05 L87.9 5.4 82.35 0.75 81.75 2.9 Q80.25 7.6 77.75 8.4 76.55 8.8 75.6 8.1 74.85 7.55 74.65 6.55 L74.65 4.65 Q74.85 2.4 74.6 0.55 74.4 -0.7 73.6 -2.15 64.05 -5.8 54.2 -8.35 43.65 -11.2 36.65 -11.9 L29.9 -12.2 28.85 -12.1 28.9 -11.6 Q27.8 0.3 27.75 11.75 27.75 21.05 28.7 26.05 L28.7 26.1 28.9 27.15 31.85 39.0 37.1 59.2 Q39.8 70.6 40.95 79.7 41.7 86.1 41.75 90.1 L42.0 94.05 Q42.05 97.25 41.45 97.6 L39.9 98.45 40.9 100.45 Q41.85 103.0 41.4 105.3 40.9 108.4 39.3 110.7 37.25 113.6 34.45 113.3 28.7 112.7 24.6 108.15 20.9 104.05 20.8 99.15 L20.75 99.15 Q19.5 98.75 19.15 98.1 L18.5 95.9 Q16.3 88.35 12.55 79.15 6.15 63.4 -1.05 50.95 -7.25 62.15 -9.55 70.25 L-15.7 91.8 -15.95 92.95 Q-16.15 93.75 -16.5 93.9 L-18.25 94.5 -18.25 94.75 -18.45 97.8 Q-18.8 99.8 -19.75 100.25 -22.65 101.5 -24.7 101.5 L-25.95 101.2 -26.85 100.15 Q-27.05 99.85 -27.35 99.95 L-28.2 100.35 -32.3 101.85 Q-39.65 103.95 -45.85 103.35 -55.2 102.35 -55.05 98.1 -55.0 97.05 -53.4 95.9 L-50.9 94.4 Q-45.9 91.5 -40.8 90.0 L-40.85 89.35 -40.4 86.75 -36.0 66.25 -30.4 41.7 Q-27.6 27.55 -27.4 16.65 -27.3 11.1 -30.45 -0.85 -31.8 -5.9 -32.4 -9.95 L-32.6 -9.9 Q-34.75 -10.6 -37.7 -10.75 L-42.9 -10.75 -56.1 -9.95 -73.1 -7.95 -73.45 -8.25 -73.65 -8.65 -74.55 -8.2 Q-76.45 -6.95 -79.1 -6.75 -79.45 -3.85 -80.25 -1.4 -81.5 2.55 -83.3 3.0 -84.55 3.25 -85.5 2.6 L-86.3 1.8 -86.85 2.35 Q-88.15 3.5 -89.35 3.05 -90.2 2.8 -90.95 1.65 L-93.95 1.95 Q-96.15 1.3 -97.0 -2.0 -97.45 -3.75 -97.45 -5.8 -97.2 -8.7 -96.2 -12.0 -94.25 -18.6 -90.15 -22.2 -86.15 -25.75 -81.4 -26.65 L-74.55 -27.15 -74.35 -27.45 Q-73.55 -28.55 -71.5 -29.65 L-68.2 -31.2 Q-57.6 -36.55 -44.6 -40.05 -34.6 -42.7 -23.85 -44.05 L-23.85 -44.2 Q-23.8 -44.55 -23.5 -44.1 L-21.9 -44.3 Q-28.05 -49.4 -30.45 -57.85 -33.65 -69.0 -28.95 -79.95 L-27.05 -83.85 Q-28.35 -86.4 -28.7 -88.1 -29.25 -90.6 -28.25 -93.0 -27.6 -94.6 -26.6 -95.6 -28.35 -99.7 -26.45 -103.35 -25.35 -105.45 -22.6 -107.05 -20.3 -108.35 -19.45 -108.25 L-19.35 -108.2 Q-19.3 -108.1 -20.2 -106.5 -21.15 -104.85 -20.8 -104.05 -20.3 -102.9 -18.45 -102.65 -17.1 -102.4 -15.9 -103.1 -14.9 -103.6 -13.55 -105.15 L-11.25 -107.2 Q-9.75 -108.25 -8.05 -108.4 L-4.0 -108.3 Q-1.3 -108.3 -0.25 -109.35 L2.65 -112.05 Q4.3 -113.35 5.7 -113.35 M-26.55 16.65 L-26.6 21.4 -26.9 25.45 Q-20.5 29.6 -11.3 31.5 -3.0 33.2 5.5 32.65 20.35 31.65 27.95 25.25 L28.0 25.25 Q26.95 18.95 26.85 13.5 26.65 1.8 27.85 -12.0 25.3 -11.7 23.3 -10.85 22.95 -10.75 22.6 -11.85 22.25 -13.0 22.65 -13.2 27.05 -15.05 33.55 -14.6 L44.55 -12.85 Q57.3 -10.2 72.1 -4.85 L74.45 -4.0 75.65 -5.5 76.75 -7.4 Q78.45 -10.8 78.45 -13.2 78.45 -15.6 77.3 -17.8 76.2 -20.0 74.25 -21.5 62.95 -30.3 46.05 -35.8 31.85 -40.45 17.55 -42.45 17.15 -33.2 8.05 -28.15 0.0 -23.7 -9.8 -24.65 -18.5 -25.45 -22.1 -30.8 -25.2 -35.4 -24.35 -41.55 -42.65 -39.0 -59.0 -32.7 -65.8 -30.05 -70.65 -27.25 L-72.4 -26.15 -73.75 -24.9 Q-76.05 -21.0 -75.7 -16.9 L-74.95 -13.3 Q-74.15 -10.25 -73.6 -10.3 L-72.65 -10.45 -61.2 -11.8 -44.8 -13.05 -38.85 -13.1 Q-35.4 -13.0 -33.0 -12.2 L-32.7 -11.95 Q-33.15 -15.65 -32.9 -18.4 -32.85 -19.2 -32.35 -18.25 -31.9 -17.35 -31.95 -16.9 -32.2 -14.15 -31.8 -10.7 L-31.8 -10.65 Q-31.45 -7.35 -30.5 -3.4 L-27.25 9.95 Q-26.65 13.05 -26.55 16.65 M16.55 -42.6 L10.35 -43.35 Q8.85 -39.4 4.3 -36.75 -1.4 -33.4 -7.7 -34.25 -10.95 -34.7 -13.2 -36.3 -15.7 -38.0 -16.7 -40.9 L-19.1 -42.25 -19.15 -42.25 -19.4 -42.2 -23.05 -41.75 Q-23.65 -39.25 -23.7 -37.65 -23.7 -35.1 -22.45 -33.2 -20.1 -29.7 -16.0 -28.05 -11.75 -26.4 -4.95 -26.8 3.1 -27.2 9.35 -31.65 15.6 -36.15 16.55 -42.6 M1.7 -54.8 Q1.6 -54.3 1.35 -54.4 L0.95 -54.75 1.25 -57.0 0.25 -57.65 -0.15 -57.65 Q-2.2 -56.45 -4.9 -55.35 -10.25 -53.15 -13.3 -53.55 L-13.35 -53.6 Q-16.4 -54.0 -19.9 -56.35 L-22.8 -58.6 -23.05 -58.65 Q-23.75 -58.75 -23.85 -58.0 L-23.9 -57.5 Q-23.9 -57.05 -24.1 -57.05 L-24.4 -57.4 -26.1 -61.0 -26.2 -61.85 -25.8 -62.6 -23.65 -64.55 -23.25 -64.8 Q-23.05 -64.75 -23.1 -64.25 L-23.25 -63.55 -23.1 -62.8 Q-22.85 -62.4 -22.45 -62.35 L-19.9 -61.5 -14.8 -60.3 -13.45 -60.15 Q-10.05 -60.1 -2.95 -61.7 -2.5 -61.8 -2.15 -62.15 -1.75 -62.55 -1.85 -62.9 L-2.25 -64.55 Q-2.4 -65.1 -2.05 -65.1 L-1.7 -64.9 2.75 -60.75 Q3.5 -60.15 3.25 -59.15 L1.7 -54.8 M16.9 -72.3 L17.05 -72.25 Q18.35 -71.5 19.25 -70.2 L20.25 -68.35 20.6 -66.95 20.35 -66.75 19.45 -67.85 18.35 -69.5 16.55 -71.0 Q16.05 -71.5 16.25 -71.95 16.45 -72.35 16.9 -72.3 M16.45 -68.5 L16.75 -68.35 17.8 -67.25 Q18.35 -66.45 18.35 -65.65 18.35 -64.85 17.7 -64.95 17.15 -65.05 17.15 -65.55 L16.6 -66.75 16.0 -67.4 Q15.65 -67.7 15.85 -68.1 16.05 -68.55 16.45 -68.5 M2.05 -79.5 Q2.8 -79.4 3.15 -78.3 3.55 -77.25 3.3 -75.85 3.1 -74.45 2.4 -73.55 1.75 -72.7 1.0 -72.8 L0.95 -72.8 Q0.2 -72.9 -0.15 -74.0 -0.5 -75.05 -0.3 -76.45 -0.05 -77.85 0.6 -78.7 1.3 -79.6 2.05 -79.5 M2.5 -87.15 L3.3 -88.0 Q3.65 -88.45 4.15 -88.35 L4.65 -88.15 6.55 -85.8 Q8.3 -83.15 7.8 -81.95 L6.4 -82.85 4.45 -84.35 2.7 -85.35 1.8 -85.9 Q1.7 -86.2 2.5 -87.15 M18.2 -91.5 L17.85 -91.5 13.4 -91.15 10.7 -90.9 Q9.4 -91.05 8.55 -92.25 6.2 -95.9 2.8 -96.3 L0.3 -96.05 Q-2.5 -94.95 -4.1 -95.2 -5.1 -95.3 -5.95 -95.85 -7.7 -97.3 -9.15 -97.5 L-10.2 -97.4 Q-11.05 -97.05 -13.65 -94.5 L-16.5 -91.75 Q-18.75 -90.35 -20.7 -90.3 -25.45 -84.25 -27.5 -78.2 -30.9 -68.25 -28.0 -58.1 -24.95 -47.45 -16.35 -42.25 -11.45 -39.3 -7.45 -38.8 L-5.35 -38.65 -4.2 -38.65 -4.0 -38.55 Q-3.9 -38.15 -6.25 -37.75 L-9.6 -37.45 -9.8 -37.55 Q-8.8 -36.65 -6.9 -36.4 -2.8 -35.85 1.95 -38.0 7.05 -40.4 7.95 -44.0 4.9 -42.45 2.9 -42.75 2.3 -42.85 2.25 -43.1 L2.95 -43.65 Q10.05 -47.1 15.5 -54.4 L16.25 -54.25 Q20.45 -53.7 22.65 -57.45 24.9 -61.25 21.75 -64.4 21.5 -64.8 21.6 -65.1 L23.25 -64.4 Q23.1 -64.8 23.4 -65.45 L23.4 -65.5 Q21.35 -70.0 19.45 -72.5 L17.25 -74.65 Q16.65 -75.15 16.7 -75.7 16.8 -76.3 17.25 -76.2 L17.45 -76.15 Q18.85 -75.35 20.45 -73.3 22.5 -70.65 23.8 -66.45 L24.15 -67.55 Q22.4 -72.8 20.4 -75.3 L18.15 -78.0 17.05 -79.15 Q16.65 -79.5 16.85 -79.85 17.0 -80.2 17.5 -80.15 L17.85 -80.05 Q18.85 -79.55 21.4 -76.0 23.45 -72.8 24.45 -69.0 25.15 -73.7 21.75 -77.9 20.6 -79.35 17.5 -81.85 16.9 -82.3 17.25 -82.8 L17.75 -83.15 Q22.05 -84.85 21.45 -88.1 20.9 -91.15 18.2 -91.5 M76.55 -20.85 Q79.35 -16.85 79.2 -12.0 79.05 -7.0 75.7 -2.4 76.45 -0.85 76.6 0.25 76.9 2.2 76.65 4.8 L76.6 5.85 76.8 6.45 Q77.35 7.4 78.45 6.35 79.5 5.3 80.15 3.35 L80.9 -0.35 Q81.25 -2.45 81.5 -2.4 L82.0 -2.2 89.2 3.95 89.9 4.55 92.75 6.95 Q94.5 8.25 95.1 7.85 96.35 6.95 93.25 2.25 92.5 1.1 88.55 -3.05 85.0 -6.8 85.1 -6.9 86.05 -7.6 90.0 -3.7 L93.95 0.3 94.45 -0.3 Q95.3 -3.1 90.85 -8.2 86.4 -12.65 86.85 -12.75 87.9 -12.9 90.7 -10.15 L93.35 -7.55 Q94.2 -9.3 92.65 -11.2 89.05 -15.8 82.9 -19.15 81.9 -19.7 79.35 -20.3 L76.55 -20.85 M19.55 96.45 Q24.25 98.1 29.05 98.1 33.75 98.15 38.0 96.6 L38.05 96.45 38.15 96.55 38.95 96.2 Q40.45 95.6 40.7 95.0 L40.85 92.6 Q40.95 87.4 40.45 83.0 39.6 73.7 37.05 62.4 35.5 55.45 31.95 42.1 29.45 32.75 28.5 27.95 L28.45 27.7 Q24.3 31.05 18.05 32.95 12.45 34.65 6.1 34.95 -2.65 35.35 -10.8 33.75 -20.15 31.85 -26.55 27.65 L-27.0 26.7 -27.8 32.8 Q-29.35 44.15 -33.45 62.0 L-39.65 89.65 -39.6 89.65 -39.15 90.0 Q-38.1 90.55 -36.25 91.1 -27.85 93.8 -21.6 92.7 -17.25 92.0 -17.05 91.35 L-15.1 84.6 -12.35 74.45 Q-10.7 68.45 -9.2 64.45 -6.55 57.4 -2.05 49.2 L-5.0 44.45 Q-5.25 44.1 -5.3 43.05 -5.35 42.0 -4.95 42.7 -0.15 50.05 4.3 58.9 L9.65 70.2 10.0 71.0 12.75 77.45 Q17.2 88.3 19.45 96.4 L19.55 96.45 M32.85 110.85 Q37.3 111.65 39.7 106.6 42.05 101.75 38.75 98.95 34.15 100.7 28.6 100.45 L22.65 99.6 21.75 99.45 21.75 100.4 Q21.95 102.0 22.55 103.5 23.4 105.25 25.15 106.9 28.5 110.05 32.85 110.85 M-82.9 -20.85 Q-82.35 -20.2 -82.9 -19.7 L-87.35 -15.45 Q-91.05 -11.0 -90.25 -7.35 -89.9 -5.65 -89.45 -5.5 -88.55 -5.3 -85.75 -9.5 L-82.1 -14.25 -81.35 -13.8 -80.15 -13.5 Q-78.7 -13.4 -77.25 -14.45 L-76.55 -12.8 Q-79.45 -10.75 -81.55 -11.7 L-84.1 -8.3 Q-86.0 -5.7 -86.85 -4.85 -88.5 -3.25 -89.85 -3.55 L-90.0 -3.6 -90.0 -0.8 Q-89.7 0.9 -88.5 1.05 -87.2 1.25 -86.25 -1.8 -85.15 -5.15 -84.9 -5.3 L-84.85 -5.2 -84.7 -5.05 Q-84.6 -4.65 -85.05 -1.85 -85.2 0.85 -83.8 1.05 -82.9 1.15 -81.65 -3.35 L-80.4 -8.45 -78.05 -8.85 Q-76.55 -9.25 -75.65 -9.85 L-75.0 -10.35 -74.5 -10.35 Q-76.2 -14.05 -76.6 -17.8 -77.0 -21.65 -75.75 -24.75 L-81.6 -24.55 Q-85.0 -23.8 -88.75 -20.75 -93.75 -16.6 -95.25 -7.0 L-95.45 -5.7 -95.35 -4.4 Q-95.0 -0.45 -93.4 0.05 L-92.2 -0.15 Q-91.7 -0.55 -91.55 -1.0 L-90.7 -3.4 -90.5 -3.8 Q-91.85 -4.6 -92.2 -6.95 -93.2 -11.45 -89.05 -16.65 -85.85 -20.65 -84.1 -21.3 -83.45 -21.55 -82.9 -20.85 M-22.5 95.25 Q-28.2 95.6 -34.35 93.85 -37.6 92.9 -39.15 92.0 -46.0 93.9 -51.5 97.45 L-53.55 99.0 Q-52.45 99.75 -50.8 100.2 -45.45 101.75 -39.0 100.95 -32.85 100.15 -27.6 97.5 -27.45 97.4 -27.35 97.6 L-26.5 98.75 Q-26.0 99.25 -25.3 99.2 -22.7 98.95 -21.25 98.3 -19.95 97.75 -19.5 96.25 L-19.25 94.75 -22.5 95.25 M-15.55 -50.6 L-17.1 -51.7 -17.4 -52.1 -16.9 -52.25 -12.5 -52.2 Q-11.6 -52.1 -11.5 -51.3 -11.5 -50.35 -12.55 -50.2 L-14.25 -50.15 -15.55 -50.6 M-22.65 -61.4 L-22.8 -61.4 Q-23.85 -61.5 -23.75 -60.7 -23.6 -59.7 -22.95 -59.45 L-17.1 -56.55 Q-16.2 -56.1 -14.0 -55.75 -10.8 -55.4 -9.0 -55.75 -6.85 -56.15 -1.0 -58.35 -0.4 -58.5 -0.05 -58.95 0.35 -59.5 -0.2 -60.1 -0.7 -60.6 -1.45 -60.7 L-2.65 -60.65 Q-9.15 -58.95 -13.1 -59.15 L-14.5 -59.3 Q-16.85 -59.6 -20.0 -60.55 L-22.65 -61.4 M-24.7 -92.25 Q-25.15 -92.75 -25.5 -92.75 -26.2 -92.85 -26.7 -91.75 -27.2 -90.65 -27.15 -89.05 -27.1 -87.95 -26.1 -85.5 L-22.55 -90.6 Q-23.85 -91.1 -24.7 -92.25 M-8.2 -80.65 L-8.15 -80.65 Q-7.65 -80.5 -8.05 -79.55 -9.2 -77.05 -10.75 -74.8 L-13.35 -71.1 Q-13.9 -70.35 -13.45 -69.45 L-11.95 -66.75 Q-11.75 -66.35 -11.9 -66.1 -12.05 -65.8 -12.45 -65.75 L-13.6 -65.65 Q-14.35 -65.75 -14.8 -66.4 L-16.55 -69.95 Q-17.0 -70.85 -16.3 -71.55 L-14.45 -73.35 Q-12.4 -75.3 -11.7 -76.2 L-9.2 -79.95 -8.2 -80.65 M-18.95 -82.2 L-18.9 -82.2 Q-18.15 -82.1 -17.8 -81.0 -17.4 -79.95 -17.65 -78.55 -17.85 -77.15 -18.55 -76.25 -19.25 -75.4 -20.0 -75.5 -20.75 -75.6 -21.1 -76.7 -21.45 -77.75 -21.25 -79.15 -21.0 -80.55 -20.35 -81.4 -19.65 -82.3 -18.95 -82.2 M-20.05 -87.4 L-20.15 -87.4 Q-20.55 -87.5 -20.6 -87.65 L-20.15 -88.0 -16.05 -89.9 -15.5 -90.0 Q-14.9 -89.9 -14.9 -89.15 L-14.85 -88.15 Q-14.85 -87.6 -15.2 -87.3 -15.55 -86.95 -16.05 -87.05 L-20.05 -87.4"/><path fill="#ffffff" stroke="none" d="M5.9 -111.75 Q7.4 -111.55 9.25 -109.85 L10.4 -108.6 Q11.1 -107.9 11.85 -107.55 14.65 -106.2 16.05 -105.85 18.9 -105.1 20.95 -101.6 L23.4 -97.6 Q25.2 -96.55 26.9 -93.25 28.15 -90.85 28.9 -88.25 30.25 -83.65 28.1 -76.75 27.05 -73.3 25.7 -70.75 25.45 -74.95 22.8 -78.35 L20.8 -80.6 19.3 -82.05 Q21.05 -83.0 22.4 -84.25 24.15 -85.95 24.1 -87.4 24.1 -89.35 23.2 -90.9 21.95 -93.0 19.3 -93.35 L18.2 -93.4 14.6 -92.65 11.45 -92.05 11.15 -92.1 Q10.85 -92.2 8.25 -95.85 5.8 -99.35 4.05 -99.6 L3.2 -99.55 -0.4 -97.9 -2.6 -96.95 Q-3.65 -96.5 -4.2 -96.6 L-4.8 -96.8 -6.05 -97.65 Q-7.75 -98.8 -8.55 -98.95 L-10.95 -98.5 Q-12.0 -98.05 -14.7 -95.5 L-17.45 -92.85 Q-19.7 -91.45 -21.7 -91.65 -23.1 -91.9 -23.9 -92.9 -25.5 -94.9 -25.75 -97.8 -26.0 -100.65 -24.95 -102.65 -24.2 -104.2 -22.7 -105.35 -23.05 -103.5 -22.05 -102.35 -20.8 -101.1 -19.05 -100.85 -16.55 -100.55 -14.45 -102.35 -9.5 -106.8 -7.6 -107.05 L-6.4 -107.05 -4.05 -106.25 Q-2.9 -105.6 -2.15 -105.5 -1.4 -105.4 -0.8 -105.9 L1.25 -108.05 Q4.35 -111.75 5.6 -111.75 L5.9 -111.75 M18.2 -91.5 Q20.9 -91.15 21.45 -88.1 22.05 -84.85 17.75 -83.15 L17.25 -82.8 Q16.9 -82.3 17.5 -81.85 20.6 -79.35 21.75 -77.9 25.15 -73.7 24.45 -69.0 23.45 -72.8 21.4 -76.0 18.85 -79.55 17.85 -80.05 L17.5 -80.15 Q17.0 -80.2 16.85 -79.85 16.65 -79.5 17.05 -79.15 L18.15 -78.0 20.4 -75.3 Q22.4 -72.8 24.15 -67.55 L23.8 -66.45 Q22.5 -70.65 20.45 -73.3 18.85 -75.35 17.45 -76.15 L17.25 -76.2 Q16.8 -76.3 16.7 -75.7 16.65 -75.15 17.25 -74.65 L19.45 -72.5 Q21.35 -70.0 23.4 -65.5 L23.4 -65.45 Q23.1 -64.8 23.25 -64.4 L21.6 -65.1 Q21.5 -64.8 21.75 -64.4 24.9 -61.25 22.65 -57.45 20.45 -53.7 16.25 -54.25 L15.5 -54.4 Q10.05 -47.1 2.95 -43.65 L2.25 -43.1 Q2.3 -42.85 2.9 -42.75 4.9 -42.45 7.95 -44.0 7.05 -40.4 1.95 -38.0 -2.8 -35.85 -6.9 -36.4 -8.8 -36.65 -9.8 -37.55 L-9.6 -37.45 -6.25 -37.75 Q-3.9 -38.15 -4.0 -38.55 L-4.2 -38.65 -5.35 -38.65 -7.45 -38.8 Q-11.45 -39.3 -16.35 -42.25 -24.95 -47.45 -28.0 -58.1 -30.9 -68.25 -27.5 -78.2 -25.45 -84.25 -20.7 -90.3 -18.75 -90.35 -16.5 -91.75 L-13.65 -94.5 Q-11.05 -97.05 -10.2 -97.4 L-9.15 -97.5 Q-7.7 -97.3 -5.95 -95.85 -5.1 -95.3 -4.1 -95.2 -2.5 -94.95 0.3 -96.05 L2.8 -96.3 Q6.2 -95.9 8.55 -92.25 9.4 -91.05 10.7 -90.9 L13.4 -91.15 17.85 -91.5 18.2 -91.5 M2.5 -87.15 Q1.7 -86.2 1.8 -85.9 L2.7 -85.35 4.45 -84.35 6.4 -82.85 7.8 -81.95 Q8.3 -83.15 6.55 -85.8 L4.65 -88.15 4.15 -88.35 Q3.65 -88.45 3.3 -88.0 L2.5 -87.15 M2.05 -79.5 Q1.3 -79.6 0.6 -78.7 -0.05 -77.85 -0.3 -76.45 -0.5 -75.05 -0.15 -74.0 0.2 -72.9 0.95 -72.8 L1.0 -72.8 Q1.75 -72.7 2.4 -73.55 3.1 -74.45 3.3 -75.85 3.55 -77.25 3.15 -78.3 2.8 -79.4 2.05 -79.5 M16.45 -68.5 Q16.05 -68.55 15.85 -68.1 15.65 -67.7 16.0 -67.4 L16.6 -66.75 17.15 -65.55 Q17.15 -65.05 17.7 -64.95 18.35 -64.85 18.35 -65.65 18.35 -66.45 17.8 -67.25 L16.75 -68.35 16.45 -68.5 M16.9 -72.3 Q16.45 -72.35 16.25 -71.95 16.05 -71.5 16.55 -71.0 L18.35 -69.5 19.45 -67.85 20.35 -66.75 20.6 -66.95 20.25 -68.35 19.25 -70.2 Q18.35 -71.5 17.05 -72.25 L16.9 -72.3 M1.7 -54.8 L3.25 -59.15 Q3.5 -60.15 2.75 -60.75 L-1.7 -64.9 -2.05 -65.1 Q-2.4 -65.1 -2.25 -64.55 L-1.85 -62.9 Q-1.75 -62.55 -2.15 -62.15 -2.5 -61.8 -2.95 -61.7 -10.05 -60.1 -13.45 -60.15 L-14.8 -60.3 -19.9 -61.5 -22.45 -62.35 Q-22.85 -62.4 -23.1 -62.8 L-23.25 -63.55 -23.1 -64.25 Q-23.05 -64.75 -23.25 -64.8 L-23.65 -64.55 -25.8 -62.6 -26.2 -61.85 -26.1 -61.0 -24.4 -57.4 -24.1 -57.05 Q-23.9 -57.05 -23.9 -57.5 L-23.85 -58.0 Q-23.75 -58.75 -23.05 -58.65 L-22.8 -58.6 -19.9 -56.35 Q-16.4 -54.0 -13.35 -53.6 L-13.3 -53.55 Q-10.25 -53.15 -4.9 -55.35 -2.2 -56.45 -0.15 -57.65 L0.25 -57.65 1.25 -57.0 0.95 -54.75 1.35 -54.4 Q1.6 -54.3 1.7 -54.8 M16.55 -42.6 Q15.6 -36.15 9.35 -31.65 3.1 -27.2 -4.95 -26.8 -11.75 -26.4 -16.0 -28.05 -20.1 -29.7 -22.45 -33.2 -23.7 -35.1 -23.7 -37.65 -23.65 -39.25 -23.05 -41.75 L-19.4 -42.2 -19.15 -42.25 -19.1 -42.25 -16.7 -40.9 Q-15.7 -38.0 -13.2 -36.3 -10.95 -34.7 -7.7 -34.25 -1.4 -33.4 4.3 -36.75 8.85 -39.4 10.35 -43.35 L16.55 -42.6 M-31.8 -10.7 Q-32.2 -14.15 -31.95 -16.9 -31.9 -17.35 -32.35 -18.25 -32.85 -19.2 -32.9 -18.4 -33.15 -15.65 -32.7 -11.95 L-33.0 -12.2 Q-35.4 -13.0 -38.85 -13.1 L-44.8 -13.05 -61.2 -11.8 -72.65 -10.45 -73.6 -10.3 Q-74.15 -10.25 -74.95 -13.3 L-75.7 -16.9 Q-76.05 -21.0 -73.75 -24.9 L-72.4 -26.15 -70.65 -27.25 Q-65.8 -30.05 -59.0 -32.7 -42.65 -39.0 -24.35 -41.55 -25.2 -35.4 -22.1 -30.8 -18.5 -25.45 -9.8 -24.65 0.0 -23.7 8.05 -28.15 17.15 -33.2 17.55 -42.45 31.85 -40.45 46.05 -35.8 62.95 -30.3 74.25 -21.5 76.2 -20.0 77.3 -17.8 78.45 -15.6 78.45 -13.2 78.45 -10.8 76.75 -7.4 L75.65 -5.5 74.45 -4.0 72.1 -4.85 Q57.3 -10.2 44.55 -12.85 L33.55 -14.6 Q27.05 -15.05 22.65 -13.2 22.25 -13.0 22.6 -11.85 22.95 -10.75 23.3 -10.85 25.3 -11.7 27.85 -12.0 26.65 1.8 26.85 13.5 26.95 18.95 28.0 25.25 L27.95 25.25 Q20.35 31.65 5.5 32.65 -3.0 33.2 -11.3 31.5 -20.5 29.6 -26.9 25.45 L-26.6 21.4 -26.55 16.65 Q-26.5 12.9 -27.4 8.25 -27.95 5.45 -29.4 -0.05 -31.15 -6.8 -31.7 -10.05 L-31.8 -10.7 M76.55 -20.85 L79.35 -20.3 Q81.9 -19.7 82.9 -19.15 89.05 -15.8 92.65 -11.2 94.2 -9.3 93.35 -7.55 L90.7 -10.15 Q87.9 -12.9 86.85 -12.75 86.4 -12.65 90.85 -8.2 95.3 -3.1 94.45 -0.3 L93.95 0.3 90.0 -3.7 Q86.05 -7.6 85.1 -6.9 85.0 -6.8 88.55 -3.05 92.5 1.1 93.25 2.25 96.35 6.95 95.1 7.85 94.5 8.25 92.75 6.95 L89.9 4.55 89.2 3.95 82.0 -2.2 81.5 -2.4 Q81.25 -2.45 80.9 -0.35 L80.15 3.35 Q79.5 5.3 78.45 6.35 77.35 7.4 76.8 6.45 L76.6 5.85 76.65 4.8 Q76.9 2.2 76.6 0.25 76.45 -0.85 75.7 -2.4 79.05 -7.0 79.2 -12.0 79.35 -16.85 76.55 -20.85 M12.75 77.45 L10.0 71.0 9.65 70.2 4.3 58.9 Q-0.15 50.05 -4.95 42.7 -5.35 42.0 -5.3 43.05 -5.25 44.1 -5.0 44.45 L-2.05 49.2 Q-6.55 57.4 -9.2 64.45 -10.7 68.45 -12.35 74.45 L-15.1 84.6 -17.05 91.35 Q-17.25 92.0 -21.6 92.7 -27.85 93.8 -36.25 91.1 -38.1 90.55 -39.15 90.0 L-39.6 89.65 -39.65 89.65 -33.45 62.0 Q-29.35 44.15 -27.8 32.8 L-27.0 26.7 -26.55 27.65 Q-20.15 31.85 -10.8 33.75 -2.65 35.35 6.1 34.95 12.45 34.65 18.05 32.95 24.3 31.05 28.45 27.7 L28.5 27.95 Q29.45 32.75 31.95 42.1 35.5 55.45 37.05 62.4 39.6 73.7 40.45 83.0 40.95 87.4 40.85 92.6 L40.7 95.0 Q40.45 95.6 38.95 96.2 L38.15 96.55 38.05 96.45 38.0 96.6 Q33.75 98.15 29.05 98.1 24.25 98.1 19.55 96.45 L19.35 95.7 Q17.05 87.85 13.4 78.95 L12.75 77.45 M32.85 110.85 Q28.5 110.05 25.15 106.9 23.4 105.25 22.55 103.5 21.95 102.0 21.75 100.4 L21.75 99.45 22.65 99.6 28.6 100.45 Q34.15 100.7 38.75 98.95 42.05 101.75 39.7 106.6 37.3 111.65 32.85 110.85 M-82.9 -20.85 Q-83.45 -21.55 -84.1 -21.3 -85.85 -20.65 -89.05 -16.65 -93.2 -11.45 -92.2 -6.95 -91.85 -4.6 -90.5 -3.8 L-90.7 -3.4 -91.55 -1.0 Q-91.7 -0.55 -92.2 -0.15 L-93.4 0.05 Q-95.0 -0.45 -95.35 -4.4 L-95.45 -5.7 -95.25 -7.0 Q-93.75 -16.6 -88.75 -20.75 -85.0 -23.8 -81.6 -24.55 L-75.75 -24.75 Q-77.0 -21.65 -76.6 -17.8 -76.2 -14.05 -74.5 -10.35 L-75.0 -10.35 -75.65 -9.85 Q-76.55 -9.25 -78.05 -8.85 L-80.4 -8.45 -81.65 -3.35 Q-82.9 1.15 -83.8 1.05 -85.2 0.85 -85.05 -1.85 -84.6 -4.65 -84.7 -5.05 L-84.85 -5.2 -84.9 -5.3 Q-85.15 -5.15 -86.25 -1.8 -87.2 1.25 -88.5 1.05 -89.7 0.9 -90.0 -0.8 L-90.0 -3.6 -89.85 -3.55 Q-88.5 -3.25 -86.85 -4.85 -86.0 -5.7 -84.1 -8.3 L-81.55 -11.7 Q-79.45 -10.75 -76.55 -12.8 L-77.25 -14.45 Q-78.7 -13.4 -80.15 -13.5 L-81.35 -13.8 -82.1 -14.25 -85.75 -9.5 Q-88.55 -5.3 -89.45 -5.5 -89.9 -5.65 -90.25 -7.35 -91.05 -11.0 -87.35 -15.45 L-82.9 -19.7 Q-82.35 -20.2 -82.9 -20.85 M-20.05 -87.4 L-16.05 -87.05 Q-15.55 -86.95 -15.2 -87.3 -14.85 -87.6 -14.85 -88.15 L-14.9 -89.15 Q-14.9 -89.9 -15.5 -90.0 L-16.05 -89.9 -20.15 -88.0 -20.6 -87.65 Q-20.55 -87.5 -20.15 -87.4 L-20.05 -87.4 M-18.95 -82.2 Q-19.65 -82.3 -20.35 -81.4 -21.0 -80.55 -21.25 -79.15 -21.45 -77.75 -21.1 -76.7 -20.75 -75.6 -20.0 -75.5 -19.25 -75.4 -18.55 -76.25 -17.85 -77.15 -17.65 -78.55 -17.4 -79.95 -17.8 -81.0 -18.15 -82.1 -18.9 -82.2 L-18.95 -82.2 M-8.2 -80.65 L-9.2 -79.95 -11.7 -76.2 Q-12.4 -75.3 -14.45 -73.35 L-16.3 -71.55 Q-17.0 -70.85 -16.55 -69.95 L-14.8 -66.4 Q-14.35 -65.75 -13.6 -65.65 L-12.45 -65.75 Q-12.05 -65.8 -11.9 -66.1 -11.75 -66.35 -11.95 -66.75 L-13.45 -69.45 Q-13.9 -70.35 -13.35 -71.1 L-10.75 -74.8 Q-9.2 -77.05 -8.05 -79.55 -7.65 -80.5 -8.15 -80.65 L-8.2 -80.65 M-24.7 -92.25 Q-23.85 -91.1 -22.55 -90.6 L-26.1 -85.5 Q-27.1 -87.95 -27.15 -89.05 -27.2 -90.65 -26.7 -91.75 -26.2 -92.85 -25.5 -92.75 -25.15 -92.75 -24.7 -92.25 M-22.65 -61.4 L-20.0 -60.55 Q-16.85 -59.6 -14.5 -59.3 L-13.1 -59.15 Q-9.15 -58.95 -2.65 -60.65 L-1.45 -60.7 Q-0.7 -60.6 -0.2 -60.1 0.35 -59.5 -0.05 -58.95 -0.4 -58.5 -1.0 -58.35 -6.85 -56.15 -9.0 -55.75 -10.8 -55.4 -14.0 -55.75 -16.2 -56.1 -17.1 -56.55 L-22.95 -59.45 Q-23.6 -59.7 -23.75 -60.7 -23.85 -61.5 -22.8 -61.4 L-22.65 -61.4 M-15.55 -50.6 L-14.25 -50.15 -12.55 -50.2 Q-11.5 -50.35 -11.5 -51.3 -11.6 -52.1 -12.5 -52.2 L-16.9 -52.25 -17.4 -52.1 -17.1 -51.7 -15.55 -50.6 M-22.5 95.25 L-19.25 94.75 -19.5 96.25 Q-19.95 97.75 -21.25 98.3 -22.7 98.95 -25.3 99.2 -26.0 99.25 -26.5 98.75 L-27.35 97.6 Q-27.45 97.4 -27.6 97.5 -32.85 100.15 -39.0 100.95 -45.45 101.75 -50.8 100.2 -52.45 99.75 -53.55 99.0 L-51.5 97.45 Q-46.0 93.9 -39.15 92.0 -37.6 92.9 -34.35 93.85 -28.2 95.6 -22.5 95.25"/></g></defs><g><g><use transform="matrix(2.25848388672,0.0,0.0,2.25848388672,97.45,113.35)" xlink:href="#c251"/></g></g></svg>