<?xml version="1.0" encoding="UTF-8" standalone="no"?>
<svg
   xmlns:dc="http://purl.org/dc/elements/1.1/"
   xmlns:cc="http://creativecommons.org/ns#"
   xmlns:rdf="http://www.w3.org/1999/02/22-rdf-syntax-ns#"
   xmlns:svg="http://www.w3.org/2000/svg"
   xmlns="http://www.w3.org/2000/svg"
   xmlns:xlink="http://www.w3.org/1999/xlink"
   xmlns:sodipodi="http://sodipodi.sourceforge.net/DTD/sodipodi-0.dtd"
   xmlns:inkscape="http://www.inkscape.org/namespaces/inkscape"
   version="1.1"
   width="512px"
   height="138px"
   viewBox="-234.350260926 -62.5665802003 511.999351502 138.329649353"
   id="svg13"
   sodipodi:docname="icon_90.svg"
   inkscape:version="0.92.1 r15371">
  <metadata
     id="metadata17">
    <rdf:RDF>
      <cc:Work
         rdf:about="">
        <dc:format>image/svg+xml</dc:format>
        <dc:type
           rdf:resource="http://purl.org/dc/dcmitype/StillImage" />
      </cc:Work>
    </rdf:RDF>
  </metadata>
  <sodipodi:namedview
     pagecolor="#ffffff"
     bordercolor="#666666"
     borderopacity="1"
     objecttolerance="10"
     gridtolerance="10"
     guidetolerance="10"
     inkscape:pageopacity="0"
     inkscape:pageshadow="2"
     inkscape:window-width="836"
     inkscape:window-height="480"
     id="namedview15"
     showgrid="false"
     inkscape:zoom="0.7109375"
     inkscape:cx="256"
     inkscape:cy="69"
     inkscape:window-x="0"
     inkscape:window-y="0"
     inkscape:window-maximized="0"
     inkscape:current-layer="g11" />
  <defs
     id="defs5">
    <g
       id="c90">
      <path
         fill="#ffffff"
         stroke="none"
         d="M11.0 -0.5 L10.5 -0.45 Q10.1 -0.05 10.25 0.4 10.3 0.85 11.05 0.75 L11.55 0.45 11.45 -0.15 11.0 -0.5 M8.9 -5.15 L9.5 -4.85 10.1 -5.7 10.5 -5.7 10.7 -4.1 12.45 -2.9 Q12.9 -2.6 13.75 -2.6 L15.25 -2.6 18.7 -1.55 21.4 -0.6 21.05 1.0 20.45 3.55 19.85 5.1 Q19.5 5.85 19.2 5.7 L17.4 4.25 16.1 2.85 15.2 2.0 13.6 0.65 12.5 0.05 12.0 -0.15 12.1 0.55 Q12.1 1.3 11.75 1.45 L10.65 1.45 Q10.05 1.3 9.8 0.8 9.6 0.4 9.65 -0.3 L9.75 -0.85 -2.75 -0.85 Q-3.4 -0.85 -3.9 -1.3 -4.35 -1.75 -4.35 -2.4 L-4.35 -2.8 -21.35 -2.8 -21.35 -4.85 7.3 -4.85 7.45 -4.95 7.6 -5.1 8.9 -5.15"
         id="path2" />
    </g>
    <filter
       style="color-interpolation-filters:sRGB;"
       inkscape:label="Colorize"
       id="filter4509">
      <feComposite
         in2="SourceGraphic"
         operator="arithmetic"
         k1="0"
         k2="1"
         result="composite1"
         id="feComposite4495" />
      <feColorMatrix
         in="composite1"
         values="1"
         type="saturate"
         result="colormatrix1"
         id="feColorMatrix4497" />
      <feFlood
         flood-opacity="1"
         flood-color="rgb(0,255,0)"
         result="flood1"
         id="feFlood4499" />
      <feBlend
         in="flood1"
         in2="colormatrix1"
         mode="multiply"
         result="blend1"
         id="feBlend4501" />
      <feBlend
         in2="blend1"
         mode="screen"
         result="blend2"
         id="feBlend4503" />
      <feColorMatrix
         in="blend2"
         values="1"
         type="saturate"
         result="colormatrix2"
         id="feColorMatrix4505" />
      <feComposite
         in="colormatrix2"
         in2="SourceGraphic"
         operator="in"
         k2="1"
         result="composite2"
         id="feComposite4507" />
    </filter>
  </defs>
  <g
     id="g11">
    <g
       id="g9"
       style="filter:url(#filter4509)">
      <use
         transform="matrix(11.976593,0,0,11.976593,21.35,5.7)"
         xlink:href="#c90"
         id="use7"
         x="0"
         y="0"
         width="100%"
         height="100%" />
    </g>
  </g>
</svg>
