<?xml version='1.0' encoding='UTF-8'?>
<svg xmlns:xlink="http://www.w3.org/1999/xlink" xmlns="http://www.w3.org/2000/svg" version="1.1" width="512px" height="507px" viewBox="-240.049982452 -237.792459106 511.999964903 507.184918211"><defs><g id="c108"><path fill="#ffffff" stroke="none" d="M0.15 -2.1 L0.35 -1.75 4.7 2.45 5.15 2.75 5.6 2.95 7.3 3.45 7.75 3.65 8.2 4.0 15.85 11.65 15.95 11.95 15.7 12.15 14.8 12.45 14.35 12.45 13.9 12.2 11.95 10.2 11.55 10.1 11.15 10.2 11.1 10.35 13.75 12.95 13.85 13.25 13.75 13.6 13.45 13.75 13.1 13.6 10.45 11.0 10.35 11.05 10.2 11.4 10.35 11.75 12.35 13.8 12.55 14.15 12.55 14.65 12.3 15.55 12.05 15.8 11.75 15.7 4.1 8.0 3.8 7.6 3.55 7.15 3.1 5.5 2.85 5.0 2.55 4.6 -1.9 0.4 Q-2.15 0.1 -2.6 0.4 L-3.25 1.05 Q-3.35 1.25 -3.6 1.25 -3.85 1.25 -3.95 1.05 L-6.05 -1.0 Q-6.4 -1.45 -6.1 -1.65 -5.9 -2.0 -6.25 -2.3 L-15.1 -11.2 Q-15.5 -11.5 -15.5 -12.1 L-15.95 -15.35 Q-15.95 -15.8 -15.45 -15.8 L-12.15 -15.4 Q-11.7 -15.4 -11.25 -15.0 L-2.4 -6.1 -1.75 -6.05 -1.1 -5.95 1.0 -3.9 Q1.3 -3.5 1.0 -3.15 L0.35 -2.45 0.15 -2.1"/></g></defs><g><g><use transform="matrix(16.0501556396,0.0,0.0,16.0501556396,15.95,15.8)" xlink:href="#c108"/></g></g></svg>