<?xml version='1.0' encoding='UTF-8'?>
<svg xmlns:xlink="http://www.w3.org/1999/xlink" xmlns="http://www.w3.org/2000/svg" version="1.1" width="512px" height="162px" viewBox="-241.24015808 -73.9028930661 511.999737547 162.38366394"><defs><g id="c98"><path fill="#ffffff" stroke="none" d="M-18.55 -2.15 Q-18.55 -1.5 -19.2 -1.5 L-21.25 -1.5 -21.25 1.55 -20.15 2.5 -13.7 2.5 Q-13.35 2.5 -13.15 2.8 L-5.0 2.75 -5.0 2.65 -3.7 0.55 -2.6 -1.2 -6.4 -1.1 -8.4 -0.45 -8.45 -0.45 -8.45 -0.1 -8.7 0.1 -9.0 -0.1 -9.0 -0.45 -9.75 -0.45 -9.75 -0.1 -10.0 0.1 -10.25 -0.1 -10.25 -0.45 -11.05 -0.45 -11.05 -0.1 -11.3 0.1 -11.5 -0.1 -11.5 -0.45 -12.25 -0.45 -12.25 -0.1 -12.55 0.1 -12.8 -0.1 -12.8 -0.45 -13.55 -0.45 -13.55 -0.1 -13.8 0.1 -14.05 -0.1 -14.05 -0.45 -14.85 -0.45 -14.85 -0.1 Q-14.85 0.1 -15.1 0.1 L-15.25 -0.1 -15.25 -0.45 -15.75 -0.45 Q-16.45 -0.45 -16.45 -1.05 L-16.45 -1.85 -16.95 -2.15 -18.55 -2.15 M2.6 1.1 L2.6 1.0 2.4 0.55 1.95 0.35 -0.25 0.35 -0.75 0.55 -0.95 1.0 -0.95 1.1 -0.75 1.6 -0.25 1.75 1.95 1.75 2.4 1.6 2.6 1.1 M18.35 3.2 Q18.9 2.65 18.9 1.9 18.9 1.1 18.35 0.6 17.8 0.05 17.05 0.05 16.25 0.05 15.75 0.6 15.15 1.1 15.15 1.9 15.15 2.65 15.75 3.2 16.25 3.7 17.05 3.7 17.8 3.7 18.35 3.2 M13.45 -0.25 Q13.0 -0.7 12.5 -0.7 11.95 -0.7 11.5 -0.25 11.2 0.1 11.2 0.7 11.2 1.25 11.5 1.6 11.95 2.0 12.5 2.0 13.0 2.0 13.45 1.6 13.85 1.25 13.85 0.7 13.85 0.1 13.45 -0.25 M9.35 -0.8 Q8.9 -1.25 8.35 -1.25 7.75 -1.25 7.35 -0.8 6.95 -0.45 6.95 0.2 6.95 0.8 7.35 1.25 7.75 1.6 8.35 1.6 8.9 1.6 9.35 1.25 L9.8 0.2 9.35 -0.8 M3.9 -6.4 L4.05 -5.95 4.05 -3.1 3.9 -2.65 3.4 -2.25 2.95 -2.1 5.65 0.5 6.1 -1.35 Q6.35 -1.85 7.3 -2.1 L8.8 -2.25 13.25 -1.65 17.65 -1.1 18.9 -1.3 19.7 -1.6 20.5 -1.45 21.45 -0.95 21.25 2.15 20.9 5.5 20.65 6.5 Q20.45 6.9 20.0 6.95 19.6 7.05 18.65 6.45 L17.85 5.85 Q16.9 5.15 15.55 4.45 12.7 2.9 10.45 2.6 L8.3 2.75 7.3 3.1 6.8 3.55 6.05 3.7 5.25 3.55 3.95 2.25 -1.15 2.25 -1.7 1.05 -2.2 1.05 -2.35 2.3 -1.8 2.3 Q-1.55 2.3 -1.4 2.5 L-1.2 3.0 -1.2 3.1 -1.4 3.55 -1.8 3.65 -4.35 3.65 -4.75 3.6 -5.0 3.35 -13.15 3.4 Q-13.4 3.65 -13.7 3.65 L-22.2 3.65 -22.2 -1.5 Q-22.85 -1.5 -22.85 -2.15 L-22.85 -5.6 Q-22.85 -6.2 -22.2 -6.2 L-19.2 -6.2 -18.6 -5.85 -17.05 -5.85 Q-17.05 -6.5 -16.4 -6.5 L-7.85 -6.5 -7.5 -6.55 -6.65 -6.55 Q-6.55 -6.95 -6.15 -6.95 L1.55 -7.0 1.85 -6.9 2.05 -6.65 3.45 -6.65 3.9 -6.4"/></g></defs><g><g><use transform="matrix(11.5575561523,0.0,0.0,11.5575561523,22.85,7.0)" xlink:href="#c98"/></g></g></svg>