<?xml version='1.0' encoding='UTF-8'?>
<svg xmlns:xlink="http://www.w3.org/1999/xlink" xmlns="http://www.w3.org/2000/svg" version="1.1" width="512px" height="512px" viewBox="-240.962377929 -241.787591552 511.999969481 511.999969481"><defs><g id="c154"><path fill="#ffffff" stroke="none" d="M12.55 -12.6 Q11.8 -13.4 10.65 -13.4 9.5 -13.4 8.75 -12.6 8.1 -11.95 7.95 -11.15 L11.05 -8.05 Q11.9 -8.15 12.55 -8.75 13.35 -9.55 13.35 -10.65 13.35 -11.8 12.55 -12.6 M10.65 -14.65 Q12.3 -14.65 13.45 -13.5 14.65 -12.35 14.65 -10.65 14.65 -9.0 13.45 -7.85 12.9 -7.2 11.95 -6.9 12.15 -6.15 11.65 -5.65 L10.9 -4.9 Q10.55 -4.55 10.05 -4.55 9.5 -4.55 9.1 -4.9 L8.65 -4.4 Q9.45 -2.85 9.55 -1.45 9.6 0.0 8.8 0.8 L8.25 1.25 -0.65 10.2 Q-1.3 10.85 -2.65 10.65 L-1.65 11.65 Q-1.5 11.8 -1.5 12.05 L-1.65 12.45 -2.25 12.65 -4.05 14.4 -4.5 14.6 -5.05 14.4 -5.2 13.9 -5.05 13.4 -3.25 11.7 -5.1 9.9 -6.55 11.25 -7.0 11.45 -6.1 12.3 Q-5.95 12.45 -5.95 12.65 L-6.1 13.0 -6.4 13.1 -6.75 13.0 -8.7 11.0 -8.95 11.65 -9.65 11.9 -10.25 11.65 -11.65 10.25 -11.9 9.55 -11.65 8.95 -11.1 8.7 -11.15 8.55 -13.0 6.75 -13.1 6.4 -13.0 6.05 -12.7 5.95 -12.35 6.05 -11.65 6.8 -11.4 6.35 -10.05 4.95 -11.75 3.25 -13.45 4.95 Q-13.65 5.15 -13.95 5.15 L-14.4 4.95 -14.6 4.5 Q-14.6 4.2 -14.4 4.05 L-12.65 2.2 -12.5 1.65 -12.05 1.45 -11.65 1.65 -10.65 2.6 Q-10.95 1.3 -10.25 0.6 L-0.7 -8.95 Q0.2 -9.7 1.55 -9.6 2.9 -9.5 4.4 -8.65 L4.85 -9.15 Q4.5 -9.55 4.5 -10.05 4.5 -10.55 4.9 -10.95 L5.4 -11.45 4.6 -11.95 3.2 -11.05 2.2 -10.1 1.55 -10.75 4.95 -14.15 6.95 -12.15 Q7.2 -12.9 7.8 -13.5 9.0 -14.65 10.65 -14.65"/></g></defs><g><g><use transform="matrix(17.5042724609,0.0,0.0,17.5042724609,14.6,14.65)" xlink:href="#c154"/></g></g></svg>