<?xml version='1.0' encoding='UTF-8'?>
<svg xmlns:xlink="http://www.w3.org/1999/xlink" xmlns="http://www.w3.org/2000/svg" version="1.1" width="512px" height="160px" viewBox="-246.658859253 -86.0565353394 511.999963379 160.299053955"><defs><g id="c94"><path fill="#ffffff" stroke="none" d="M1.7 -6.45 L1.3 -6.7 -16.4 -6.7 -16.85 -6.45 -17.05 -5.9 -17.05 -4.05 -16.85 -3.6 -16.4 -3.35 -16.25 -3.35 -16.25 -5.4 -16.05 -5.95 Q-15.9 -6.3 -15.6 -6.3 L-15.15 -6.3 -14.7 -5.95 -14.6 -5.4 -14.6 -3.35 -13.2 -3.35 -13.2 -5.4 -13.0 -5.95 -12.55 -6.3 -12.1 -6.3 -11.6 -5.95 -11.45 -5.4 -11.45 -3.35 -10.1 -3.35 -10.1 -5.4 -9.9 -5.95 -9.5 -6.3 -9.0 -6.3 -8.6 -5.95 -8.4 -5.4 -8.4 -3.35 -7.05 -3.35 -7.05 -5.4 -6.85 -5.95 -6.4 -6.3 -5.95 -6.3 -5.5 -5.95 -5.3 -5.4 -5.3 -3.35 -3.95 -3.35 -3.95 -5.4 -3.8 -5.95 Q-3.65 -6.3 -3.35 -6.3 L-2.85 -6.3 -2.45 -5.95 -2.25 -5.4 -2.25 -3.35 -0.9 -3.35 -0.9 -5.4 -0.8 -5.95 -0.25 -6.3 0.15 -6.3 0.65 -5.95 0.85 -5.4 0.85 -3.35 1.3 -3.35 Q1.55 -3.35 1.7 -3.6 L1.95 -4.05 1.95 -5.9 1.7 -6.45 M7.9 -7.55 L8.1 -7.05 8.1 -5.9 Q8.9 -5.9 9.55 -5.25 10.1 -4.45 10.2 -3.5 L14.15 -3.5 14.45 -3.35 14.7 -2.9 18.3 -2.9 18.35 -3.9 18.55 -4.3 Q18.6 -4.45 18.8 -4.45 L19.2 -4.3 19.3 -3.9 19.5 1.75 20.2 3.05 20.3 3.45 20.15 3.75 19.75 3.9 19.45 3.75 16.0 -0.3 10.0 -0.3 Q9.8 -0.3 9.65 -0.45 L9.55 -0.85 9.8 -1.3 9.45 -1.3 Q8.8 -0.7 8.05 -0.7 L7.95 -0.7 Q7.4 0.05 7.5 0.45 L8.7 2.4 Q9.6 4.15 9.2 4.85 8.75 5.55 8.05 5.5 L7.3 5.25 5.65 1.55 0.45 1.4 0.45 2.35 0.25 2.95 -0.15 3.1 -2.2 3.1 -2.6 2.95 -2.8 2.35 -2.8 1.2 -3.75 1.2 -3.75 2.15 -3.95 2.7 -4.4 3.05 -9.85 3.05 -10.3 2.7 -10.5 2.15 -10.5 1.2 -14.25 1.2 -14.25 2.65 -14.4 3.2 -14.85 3.45 -18.8 3.45 -19.25 3.2 -19.45 2.65 -19.45 -0.7 Q-19.45 -1.15 -19.05 -1.4 L-19.1 -1.55 -19.1 -3.2 -21.9 -3.2 -22.35 -3.45 -22.5 -3.9 -22.5 -6.5 -22.35 -7.05 -21.9 -7.25 -19.05 -7.25 -18.8 -7.7 -18.4 -7.85 7.45 -7.85 7.9 -7.55"/></g></defs><g><g><use transform="matrix(11.9626159668,0.0,0.0,11.9626159668,22.5,7.85)" xlink:href="#c94"/></g></g></svg>