<?xml version='1.0' encoding='UTF-8'?>
<svg xmlns:xlink="http://www.w3.org/1999/xlink" xmlns="http://www.w3.org/2000/svg" version="1.1" width="512px" height="168px" viewBox="-234.849682616 -77.1728271481 511.999365232 167.640454101"><defs><g id="c126"><path fill="#ffffff" stroke="none" d="M-8.35 -1.5 L-8.35 -0.65 -3.9 -0.65 -3.9 -1.5 -8.35 -1.5 M2.95 -5.9 L2.65 -6.0 -1.7 -6.0 -1.9 -5.9 -1.95 -5.75 -1.95 -4.95 3.0 -4.95 3.0 -5.75 2.95 -5.9 M3.3 -6.3 L3.6 -5.75 3.6 -4.95 4.25 -4.95 4.7 -4.8 4.8 -4.35 4.8 -3.2 6.05 -3.2 6.45 -3.05 6.65 -2.6 6.65 -2.45 7.6 -2.45 8.0 -2.3 8.15 -1.9 8.15 -0.8 8.2 -0.65 8.8 0.15 9.35 0.65 10.1 0.7 10.85 0.25 11.8 -0.25 12.75 -0.5 21.15 -0.5 Q20.75 0.7 20.8 2.35 L21.0 3.75 Q21.15 4.3 20.9 4.55 20.65 4.8 20.25 4.7 L11.95 2.85 11.2 2.8 10.65 3.0 9.05 4.1 Q8.0 3.05 7.15 3.0 L6.55 3.05 6.55 4.75 5.6 5.25 5.6 6.3 5.4 6.7 5.0 6.9 -3.85 6.9 -4.3 6.7 -4.5 6.3 -4.5 4.05 -6.3 2.95 -8.35 2.95 -8.35 3.1 -8.55 3.6 -8.9 3.75 -14.3 3.75 -14.7 3.6 -14.9 3.1 -14.9 2.95 -19.45 2.95 -19.45 2.55 -21.15 2.15 -21.15 0.15 -19.45 -0.2 -19.45 -0.65 -14.9 -0.65 -14.9 -3.4 -14.7 -3.75 Q-14.6 -3.95 -14.3 -3.95 L-12.05 -3.95 -12.05 -6.4 -11.85 -6.85 -11.45 -6.95 -10.65 -6.95 -10.3 -6.85 -10.1 -6.4 -10.1 -3.95 -8.9 -3.95 -8.6 -3.85 -8.4 -3.5 -3.25 -3.5 -3.25 -4.35 -3.05 -4.8 -2.65 -4.95 -2.55 -4.95 -2.55 -5.75 -2.3 -6.3 Q-2.1 -6.55 -1.7 -6.55 L2.65 -6.55 3.3 -6.3"/></g></defs><g><g><use transform="matrix(12.1040039062,0.0,0.0,12.1040039062,21.15,6.95)" xlink:href="#c126"/></g></g></svg>