<?xml version='1.0' encoding='UTF-8'?>
<svg xmlns:xlink="http://www.w3.org/1999/xlink" xmlns="http://www.w3.org/2000/svg" version="1.1" width="512px" height="512px" viewBox="-240.330841065 -241.118811036 511.999652101 511.999652101"><defs><g id="c158"><path fill="#ffffff" stroke="none" d="M12.1 -15.3 Q13.45 -15.3 14.4 -14.35 15.3 -13.45 15.3 -12.1 15.3 -10.8 14.4 -9.85 L10.85 -6.3 Q11.45 -5.4 11.3 -4.25 11.25 -3.05 10.4 -2.25 L8.55 -0.4 Q8.0 0.1 6.95 0.2 L5.2 0.05 2.75 2.55 3.0 4.5 Q2.95 5.6 2.4 6.25 L-3.75 12.35 Q-4.4 13.0 -5.3 13.2 L-5.3 14.25 Q-5.3 14.7 -5.6 14.95 -5.85 15.25 -6.25 15.25 L-6.95 14.95 -7.25 14.25 -7.25 13.15 -8.45 12.35 -12.35 8.45 -13.1 7.25 -14.25 7.25 Q-14.7 7.25 -15.0 6.95 L-15.25 6.3 -15.0 5.55 -14.25 5.3 -13.2 5.3 Q-12.95 4.4 -12.35 3.8 L-6.2 -2.35 Q-5.65 -2.95 -4.5 -3.0 L-2.55 -2.85 -0.15 -5.3 Q-0.5 -7.6 0.4 -8.5 L2.25 -10.35 Q3.1 -11.2 4.25 -11.3 5.35 -11.4 6.35 -10.8 L7.65 -12.15 7.4 -12.2 Q6.85 -12.3 6.25 -11.8 L5.8 -11.2 5.15 -11.9 8.1 -14.85 8.85 -13.35 9.85 -14.35 Q10.8 -15.3 12.1 -15.3 M12.1 -14.2 Q11.25 -14.2 10.65 -13.6 L9.8 -12.7 12.75 -9.75 13.6 -10.65 Q14.2 -11.25 14.2 -12.1 14.2 -13.0 13.6 -13.6 12.95 -14.2 12.1 -14.2"/></g></defs><g><g><use transform="matrix(16.7593994141,0.0,0.0,16.7593994141,15.25,15.3)" xlink:href="#c158"/></g></g></svg>