<?xml version='1.0' encoding='UTF-8'?>
<svg xmlns:xlink="http://www.w3.org/1999/xlink" xmlns="http://www.w3.org/2000/svg" version="1.1" width="526px" height="426px" viewBox="-8.37626953128 -7.85275268558 525.610913088 425.619195558"><defs><g id="c230"><path fill="#000000" fill-opacity="0.992156862745" d="M47.1 9.2 Q46.95 6.3 46.3 4.3 43.25 -0.3 35.4 1.05 L28.05 3.15 24.2 4.75 Q19.05 7.1 17.5 11.5 16.5 14.45 17.55 17.25 18.7 20.5 22.1 18.9 25.3 17.45 27.95 17.0 L34.1 16.85 Q39.7 17.3 43.0 15.95 47.35 14.15 47.1 9.2 M42.1 9.8 Q42.8 9.45 43.4 9.45 45.3 9.45 45.6 10.45 45.8 11.35 45.05 12.1 L43.75 12.95 42.25 13.15 Q41.2 12.9 40.95 11.2 40.9 10.9 41.8 10.6 L42.8 10.55 Q43.05 11.85 43.55 12.2 43.95 11.4 43.65 10.9 43.25 10.35 41.85 10.25 41.55 10.25 41.75 10.05 L42.1 9.8 M48.2 3.65 Q49.4 7.7 48.6 11.05 47.8 14.5 44.95 16.3 42.05 26.1 43.45 34.15 L44.0 36.7 43.65 36.95 43.1 36.9 Q41.6 35.95 39.45 36.6 L39.05 36.7 Q38.75 36.65 38.7 36.45 L38.35 34.15 Q36.85 24.6 37.7 17.85 L31.15 17.5 Q28.45 17.25 25.05 18.35 27.25 27.45 32.35 34.15 L34.3 36.55 Q34.55 36.8 33.45 36.85 30.7 35.7 28.8 36.9 L27.95 36.85 26.0 34.15 Q21.1 27.05 19.65 21.05 L19.55 20.35 Q17.25 20.75 16.5 19.5 13.0 14.05 17.3 9.1 20.75 5.15 26.95 3.15 35.55 0.45 38.1 0.15 45.25 -0.75 48.2 3.65 M6.9 15.2 Q5.15 15.9 3.2 18.5 1.1 22.55 2.85 30.2 L3.7 34.15 4.0 35.45 Q5.05 39.1 6.5 39.05 L14.15 38.5 16.9 37.85 19.45 37.5 Q18.25 37.0 17.25 36.05 L15.4 34.15 Q13.3 31.8 12.1 29.35 9.35 24.0 9.6 19.0 L10.0 17.2 Q10.45 15.5 10.55 15.55 8.6 14.55 6.9 15.2 M21.3 19.85 L20.5 20.1 Q21.1 23.1 22.8 26.7 24.7 30.5 27.15 34.15 L28.65 36.3 32.7 36.0 31.25 34.15 Q26.25 27.45 24.15 18.7 L21.3 19.85 M23.95 14.8 Q24.25 15.7 23.4 16.45 22.9 16.95 22.1 17.25 L20.65 17.45 Q19.65 17.3 19.3 15.5 19.25 15.2 20.2 14.9 L21.2 14.85 Q21.45 16.15 21.9 16.5 22.35 15.8 22.0 15.25 21.6 14.6 20.25 14.6 19.95 14.6 20.15 14.4 L20.45 14.15 21.75 13.8 Q23.65 13.8 23.95 14.8 M42.85 36.1 L42.45 34.15 Q41.15 26.4 43.8 16.85 42.0 17.6 40.2 17.75 L38.7 17.85 Q38.35 20.35 38.45 23.55 38.6 28.9 39.35 34.15 L39.65 36.0 42.85 36.1 M1.3 19.0 Q3.5 16.15 6.2 14.85 9.6 13.2 12.4 14.85 L12.45 15.0 Q11.05 18.55 11.75 22.55 12.35 26.2 14.55 29.7 16.4 32.65 17.55 33.95 L17.75 34.15 Q19.7 36.3 21.65 36.85 21.85 36.9 21.5 37.2 18.3 39.45 10.7 39.75 L4.15 39.9 3.8 39.8 1.75 34.15 Q0.9 31.6 0.5 29.55 -0.8 23.0 1.3 19.0"/><path fill="#ffffff" stroke="none" d="M42.1 9.8 L41.75 10.05 Q41.55 10.25 41.85 10.25 43.25 10.35 43.65 10.9 43.95 11.4 43.55 12.2 43.05 11.85 42.8 10.55 L41.8 10.6 Q40.9 10.9 40.95 11.2 41.2 12.9 42.25 13.15 L43.75 12.95 45.05 12.1 Q45.8 11.35 45.6 10.45 45.3 9.45 43.4 9.45 42.8 9.45 42.1 9.8 M47.1 9.2 Q47.35 14.15 43.0 15.95 39.7 17.3 34.1 16.85 L27.95 17.0 Q25.3 17.45 22.1 18.9 18.7 20.5 17.55 17.25 16.5 14.45 17.5 11.5 19.05 7.1 24.2 4.75 L28.05 3.15 35.4 1.05 Q43.25 -0.3 46.3 4.3 46.95 6.3 47.1 9.2 M42.85 36.1 L39.65 36.0 39.35 34.15 Q38.6 28.9 38.45 23.55 38.35 20.35 38.7 17.85 L40.2 17.75 Q42.0 17.6 43.8 16.85 41.15 26.4 42.45 34.15 L42.85 36.1 M23.95 14.8 Q23.65 13.8 21.75 13.8 L20.45 14.15 20.15 14.4 Q19.95 14.6 20.25 14.6 21.6 14.6 22.0 15.25 22.35 15.8 21.9 16.5 21.45 16.15 21.2 14.85 L20.2 14.9 Q19.25 15.2 19.3 15.5 19.65 17.3 20.65 17.45 L22.1 17.25 Q22.9 16.95 23.4 16.45 24.25 15.7 23.95 14.8 M21.3 19.85 L24.15 18.7 Q26.25 27.45 31.25 34.15 L32.7 36.0 28.65 36.3 27.15 34.15 Q24.7 30.5 22.8 26.7 21.1 23.1 20.5 20.1 L21.3 19.85 M6.9 15.2 Q8.6 14.55 10.55 15.55 10.45 15.5 10.0 17.2 L9.6 19.0 Q9.35 24.0 12.1 29.35 13.3 31.8 15.4 34.15 L17.25 36.05 Q18.25 37.0 19.45 37.5 L16.9 37.85 14.15 38.5 6.5 39.05 Q5.05 39.1 4.0 35.45 L3.7 34.15 2.85 30.2 Q1.1 22.55 3.2 18.5 5.15 15.9 6.9 15.2"/></g></defs><g><g><use transform="matrix(10.4703369141,0.0,0.0,10.4703369141,0.0,0.0)" xlink:href="#c230"/></g></g></svg>