<?xml version='1.0' encoding='UTF-8'?>
<svg xmlns:xlink="http://www.w3.org/1999/xlink" xmlns="http://www.w3.org/2000/svg" version="1.1" width="523px" height="521px" viewBox="-249.161363983 -239.389846038 523.341716003 520.911336516"><defs><g id="c148"><path fill="#ffffff" stroke="none" d="M11.75 5.45 Q12.55 5.45 13.1 6.0 13.65 6.6 13.65 7.35 13.65 8.05 13.25 8.6 L12.1 9.25 11.75 9.3 4.5 9.3 3.75 9.15 3.7 9.1 Q3.1 8.9 2.8 8.25 L2.6 7.35 Q2.6 6.6 3.15 6.0 3.7 5.45 4.5 5.45 L11.75 5.45 M15.75 1.45 Q15.95 2.25 15.5 2.95 15.1 3.65 14.3 3.8 L10.7 4.7 Q10.6 3.15 9.45 1.05 L13.4 0.05 Q14.2 -0.15 14.85 0.3 15.55 0.7 15.75 1.45 M-4.9 -9.75 Q-3.45 -9.7 -1.45 -8.55 -2.35 -7.45 -1.4 -5.25 -0.55 -3.3 1.4 -1.4 3.3 0.5 5.25 1.45 7.45 2.4 8.55 1.45 9.6 3.3 9.8 4.8 L4.5 4.8 Q3.8 4.8 3.2 5.15 0.8 3.7 -1.45 1.45 -3.8 -0.95 -5.2 -3.3 -4.9 -3.9 -4.9 -4.6 L-4.9 -9.75 M-14.3 -0.1 Q-16.35 -4.15 -15.5 -6.3 L-13.5 -9.7 Q-13.8 -7.45 -12.4 -4.4 -11.35 -2.05 -9.55 0.4 -7.7 2.95 -5.3 5.35 L-0.45 9.55 Q2.1 11.4 4.45 12.4 L4.8 12.55 5.5 12.85 Q8.05 13.8 9.85 13.5 L6.35 15.55 Q4.2 16.4 0.1 14.3 -4.0 12.2 -8.1 8.1 -12.2 4.0 -14.3 -0.1 M-11.7 -6.1 Q-12.3 -7.7 -12.5 -9.05 L-12.55 -10.25 -12.3 -10.8 -11.9 -11.3 Q-11.2 -12.0 -10.0 -12.05 L-10.05 -11.85 -10.05 -4.6 Q-10.05 -3.6 -9.3 -2.8 -8.55 -2.05 -7.5 -2.05 -6.6 -2.05 -5.9 -2.6 -4.4 -0.2 -2.1 2.05 0.1 4.3 2.45 5.8 1.95 6.5 1.95 7.35 1.95 8.5 2.7 9.15 3.45 9.95 4.5 9.95 L12.1 9.9 Q12.0 11.2 11.3 11.95 9.9 13.3 5.85 11.65 1.0 9.65 -4.65 4.05 -9.85 -1.2 -11.7 -6.1 M-7.5 -13.8 Q-6.65 -13.8 -6.1 -13.2 -5.55 -12.65 -5.55 -11.85 L-5.55 -4.6 Q-5.55 -3.85 -6.1 -3.25 -6.65 -2.65 -7.5 -2.65 L-7.85 -2.7 -8.15 -2.8 -8.25 -2.85 Q-8.9 -3.15 -9.2 -3.8 L-9.4 -4.6 -9.4 -11.85 -9.35 -12.1 Q-9.3 -12.8 -8.7 -13.3 -8.2 -13.8 -7.5 -13.8 M-1.6 -15.75 Q-0.95 -15.6 -0.55 -15.15 L-0.4 -14.9 Q0.05 -14.2 -0.15 -13.4 L-1.1 -9.5 -3.45 -10.4 -4.8 -10.75 -3.95 -14.35 -3.45 -15.15 -3.0 -15.55 -1.6 -15.75 M1.75 -7.95 Q3.55 -7.2 5.35 -5.35 7.15 -3.55 7.95 -1.75 8.8 0.05 8.1 0.75 L5.6 0.65 Q3.8 -0.2 1.95 -2.0 0.15 -3.85 -0.65 -5.6 -1.45 -7.35 -0.75 -8.1 L1.75 -7.95"/></g></defs><g><g><use transform="matrix(16.2025299072,0.0,0.0,16.2025299072,15.75,15.8)" xlink:href="#c148"/></g></g></svg>