<?xml version='1.0' encoding='UTF-8'?>
<svg xmlns:xlink="http://www.w3.org/1999/xlink" xmlns="http://www.w3.org/2000/svg" version="1.1" width="511px" height="512px" viewBox="-228.949985504 -249.033317566 511.1466362 511.999969482"><defs><g id="c180"><path fill="#ffffff" stroke="none" d="M3.05 -14.65 Q3.7 -13.85 3.7 -12.75 L3.25 -11.05 Q2.7 -10.25 1.7 -10.25 L1.45 -10.05 Q1.3 -9.8 1.3 -9.0 L1.3 -8.85 3.45 -8.85 3.75 -7.65 6.4 -7.65 15.7 -0.2 12.85 3.5 6.4 -1.75 7.3 14.4 5.1 14.5 1.3 14.25 -2.3 13.95 -5.65 14.4 -4.7 -1.55 -11.1 3.55 -14.25 -0.2 -4.7 -7.65 -2.25 -7.65 -1.85 -8.85 0.45 -8.85 0.45 -9.0 Q0.45 -11.1 1.3 -11.1 2.4 -11.1 2.6 -11.6 L2.85 -12.75 Q2.85 -13.65 2.45 -14.15 1.95 -14.65 0.8 -14.65 0.05 -14.65 -0.35 -14.25 L-0.8 -13.45 -1.0 -12.65 Q-1.0 -12.3 -1.4 -12.3 -1.8 -12.3 -1.8 -12.75 -1.8 -13.65 -1.25 -14.6 -0.7 -15.5 0.8 -15.5 2.35 -15.5 3.05 -14.65"/></g></defs><g><g><use transform="matrix(17.0666656494,0.0,0.0,17.0666656494,14.25,15.5)" xlink:href="#c180"/></g></g></svg>