<?xml version='1.0' encoding='UTF-8'?>
<svg xmlns:xlink="http://www.w3.org/1999/xlink" xmlns="http://www.w3.org/2000/svg" version="1.1" width="521px" height="411px" viewBox="-1.7341217041 0.0 520.670041657 410.553313446"><defs><g id="c233"><path fill="#000000" fill-opacity="0.992156862745" d="M41.65 16.95 Q41.6 16.7 42.5 16.4 49.05 13.95 57.05 24.55 59.85 30.6 58.75 37.0 57.55 44.3 51.65 46.8 50.4 47.35 48.0 46.4 L44.5 44.8 34.1 40.85 34.15 40.65 Q39.0 35.15 40.9 29.7 42.95 23.7 41.65 16.95 M30.35 15.5 Q30.1 15.5 30.3 15.3 L30.6 15.05 Q31.3 14.7 31.9 14.7 33.8 14.7 34.1 15.7 34.4 16.6 33.55 17.35 33.05 17.85 32.25 18.15 L30.75 18.35 Q29.8 18.2 29.45 16.4 29.4 16.1 30.35 15.8 L31.35 15.75 Q31.45 17.0 32.05 17.4 32.45 16.65 32.15 16.15 31.75 15.5 30.35 15.5 M56.9 36.7 Q54.05 33.45 50.85 31.45 46.9 28.95 43.25 29.0 L39.9 35.25 Q36.85 40.4 36.0 40.1 L51.55 46.0 Q56.0 42.5 56.95 36.75 L56.9 36.7 M57.15 34.35 Q57.25 29.75 55.15 25.2 48.35 16.0 43.6 16.65 44.9 23.85 43.5 28.25 50.25 27.45 57.15 34.35 M27.45 20.6 L21.95 19.2 18.05 18.5 14.7 18.5 Q15.75 25.05 13.75 35.15 13.7 35.35 13.4 35.4 L12.9 35.35 Q10.25 34.3 8.9 35.35 L8.3 35.5 7.95 35.25 Q9.85 27.7 7.05 17.4 3.05 16.15 1.25 13.2 -0.2 10.7 0.05 7.75 0.3 5.0 1.9 2.4 L2.1 2.2 Q5.2 0.2 10.6 0.0 L19.45 0.65 Q26.85 1.8 29.15 2.5 34.85 4.2 37.15 7.65 40.35 12.5 39.15 18.7 38.6 21.3 34.8 21.55 34.9 25.2 32.85 30.15 31.15 34.2 28.85 37.45 28.5 37.95 27.95 37.6 25.3 35.9 23.25 36.6 L22.75 36.65 Q22.35 36.6 22.5 36.35 26.85 30.4 27.45 20.6 M5.55 1.15 Q4.5 1.5 3.7 2.0 -0.05 8.25 4.15 13.15 8.1 17.7 15.35 17.75 20.7 17.75 27.35 19.1 L32.9 20.3 Q36.95 20.85 37.25 19.2 38.35 13.0 35.2 8.7 32.15 4.55 25.85 3.05 17.65 1.15 14.75 0.75 L12.55 0.55 Q8.25 0.25 5.55 1.15 M13.7 18.45 L8.15 17.7 Q10.65 27.25 9.1 34.55 L12.85 34.7 Q14.65 25.1 13.7 18.45 M11.0 10.25 Q11.3 11.15 10.45 11.9 L9.15 12.7 7.7 12.9 Q6.7 12.75 6.35 10.95 6.3 10.65 7.25 10.35 L8.25 10.3 Q8.35 11.5 8.95 11.95 9.4 11.3 9.05 10.7 8.65 10.05 7.3 10.05 7.0 10.05 7.2 9.85 L7.5 9.6 8.8 9.25 Q10.7 9.25 11.0 10.25 M33.9 21.55 L28.45 20.8 Q27.85 29.95 23.8 35.95 26.0 35.65 28.2 36.95 30.1 34.1 31.55 30.95 L31.85 30.25 32.0 29.95 32.05 29.8 32.15 29.55 32.8 27.85 Q34.0 24.25 33.9 21.55"/><path fill="#ffffff" stroke="none" d="M57.15 34.35 Q50.25 27.45 43.5 28.25 44.9 23.85 43.6 16.65 48.35 16.0 55.15 25.2 57.25 29.75 57.15 34.35 M56.9 36.7 L56.95 36.75 Q56.0 42.5 51.55 46.0 L36.0 40.1 Q36.85 40.4 39.9 35.25 L43.25 29.0 Q46.9 28.95 50.85 31.45 54.05 33.45 56.9 36.7 M30.35 15.5 Q31.75 15.5 32.15 16.15 32.45 16.65 32.05 17.4 31.45 17.0 31.35 15.75 L30.35 15.8 Q29.4 16.1 29.45 16.4 29.8 18.2 30.75 18.35 L32.25 18.15 Q33.05 17.85 33.55 17.35 34.4 16.6 34.1 15.7 33.8 14.7 31.9 14.7 31.3 14.7 30.6 15.05 L30.3 15.3 Q30.1 15.5 30.35 15.5 M12.55 0.55 L14.75 0.75 Q17.65 1.15 25.85 3.05 32.15 4.55 35.2 8.7 38.35 13.0 37.25 19.2 36.95 20.85 32.9 20.3 L27.35 19.1 Q20.7 17.75 15.35 17.75 8.1 17.7 4.15 13.15 -0.05 8.25 3.7 2.0 4.5 1.5 5.55 1.15 L8.4 0.7 12.55 0.55 M33.9 21.55 Q34.0 24.25 32.8 27.85 L32.15 29.55 32.05 29.8 32.0 29.95 31.85 30.25 31.55 30.95 Q30.1 34.1 28.2 36.95 26.0 35.65 23.8 35.95 27.85 29.95 28.45 20.8 L33.9 21.55 M11.0 10.25 Q10.7 9.25 8.8 9.25 L7.5 9.6 7.2 9.85 Q7.0 10.05 7.3 10.05 8.65 10.05 9.05 10.7 9.4 11.3 8.95 11.95 8.35 11.5 8.25 10.3 L7.25 10.35 Q6.3 10.65 6.35 10.95 6.7 12.75 7.7 12.9 L9.15 12.7 10.45 11.9 Q11.3 11.15 11.0 10.25 M13.7 18.45 Q14.65 25.1 12.85 34.7 L9.1 34.55 Q10.65 27.25 8.15 17.7 L13.7 18.45"/></g></defs><g><g><use transform="matrix(8.67060852051,0.0,0.0,8.67060852051,0.0,0.0)" xlink:href="#c233"/></g></g></svg>