<?xml version="1.0" encoding="UTF-8"?>
<svg xmlns="http://www.w3.org/2000/svg" xmlns:xlink="http://www.w3.org/1999/xlink" width="128pt" height="128pt" viewBox="0 0 128 128" version="1.1">
<g id="surface1">
<path style=" stroke:none;fill-rule:nonzero;fill:rgb(100%,100%,100%);fill-opacity:1;" d="M 84.417969 11.933594 L 87.6875 13.015625 L 88.773438 16.269531 L 87.6875 18.441406 L 68.082031 37.964844 L 68.082031 54.238281 L 80.605469 42.304688 L 83.328125 41.21875 L 86.597656 42.304688 L 87.6875 44.472656 L 86.597656 47.730469 L 74.074219 60.203125 L 89.863281 60.203125 L 108.921875 40.679688 L 112.1875 39.050781 L 114.910156 40.679688 L 116 43.390625 L 114.910156 46.101562 L 101.296875 60.203125 L 123.621094 60.203125 L 126.890625 61.289062 L 127.980469 64 L 126.890625 67.253906 L 123.621094 68.339844 L 101.84375 68.339844 L 114.910156 81.355469 L 116 84.066406 L 114.910156 87.320312 L 112.1875 88.40625 L 108.921875 87.320312 L 89.863281 68.339844 L 74.074219 68.339844 L 86.597656 80.269531 L 87.6875 82.984375 L 86.597656 86.238281 L 83.328125 87.320312 L 80.605469 86.238281 L 68.082031 73.761719 L 68.082031 89.492188 L 87.6875 108.472656 L 88.773438 111.1875 L 87.6875 114.441406 L 84.417969 115.527344 L 81.695312 114.441406 L 68.082031 100.882812 L 68.082031 123.660156 L 66.996094 126.914062 L 63.726562 128 L 61.550781 126.914062 L 59.917969 123.660156 L 59.917969 100.882812 L 46.847656 114.441406 L 43.582031 115.527344 L 40.859375 114.441406 L 39.226562 111.1875 L 40.859375 108.472656 L 59.917969 89.492188 L 59.917969 73.761719 L 47.9375 86.238281 L 44.671875 87.320312 L 41.949219 86.238281 L 40.859375 82.984375 L 41.949219 80.269531 L 54.472656 68.339844 L 38.136719 68.339844 L 18.535156 87.320312 L 16.355469 88.40625 L 13.089844 87.320312 L 12 84.066406 L 13.089844 81.355469 L 26.15625 68.339844 L 3.832031 68.339844 L 1.65625 67.253906 L 0.0195312 64 L 1.65625 61.289062 L 3.832031 60.203125 L 27.246094 60.203125 L 13.089844 46.101562 L 12 43.390625 L 13.089844 40.679688 L 16.355469 39.050781 L 18.535156 40.679688 L 38.136719 60.203125 L 54.472656 60.203125 L 41.949219 47.730469 L 40.859375 44.472656 L 41.949219 42.304688 L 44.671875 41.21875 L 47.9375 42.304688 L 59.917969 54.238281 L 59.917969 37.964844 L 40.859375 18.441406 L 39.226562 16.269531 L 40.859375 13.015625 L 43.582031 11.933594 L 46.847656 13.015625 L 59.917969 26.578125 L 59.917969 4.339844 L 61.550781 1.628906 L 63.726562 0 L 66.996094 1.628906 L 68.082031 4.339844 L 68.082031 26.578125 L 81.695312 13.015625 L 84.417969 11.933594 "/>
</g>
</svg>
