<?xml version="1.0" encoding="UTF-8"?>
<svg xmlns="http://www.w3.org/2000/svg" xmlns:xlink="http://www.w3.org/1999/xlink" width="128pt" height="211pt" viewBox="0 0 128 211" version="1.1">
<g id="surface1">
<path style=" stroke:none;fill-rule:nonzero;fill:rgb(100%,100%,100%);fill-opacity:1;" d="M 52.8125 78.699219 L 49.230469 84.058594 L 32.222656 110.859375 C 26.257812 120.390625 23.273438 129.027344 23.273438 136.769531 C 23.273438 144.511719 25.957031 151.359375 31.328125 157.316406 C 36.699219 163.273438 43.859375 167.441406 52.8125 169.824219 L 52.8125 78.699219 M 75.1875 35.816406 L 94.882812 70.65625 L 117.257812 110.859375 C 124.417969 125.75 128 139.152344 128 151.0625 C 128 167.738281 121.734375 181.734375 109.203125 193.050781 C 96.074219 204.964844 80.859375 210.917969 63.550781 210.917969 C 45.648438 210.917969 30.433594 204.964844 17.902344 193.050781 C 5.96875 181.734375 0 167.738281 0 151.0625 C 0 139.152344 3.582031 125.453125 10.742188 109.96875 L 33.117188 69.765625 L 52.8125 35.816406 C 58.183594 23.308594 60.867188 12.589844 60.867188 3.652344 L 63.550781 0.0820312 L 65.34375 0.972656 L 66.238281 3.652344 C 66.238281 12.589844 69.222656 23.308594 75.1875 35.816406 "/>
</g>
</svg>
