<?xml version="1.0" encoding="UTF-8"?>
<svg xmlns="http://www.w3.org/2000/svg" xmlns:xlink="http://www.w3.org/1999/xlink" width="128pt" height="153pt" viewBox="0 0 128 153" version="1.1">
<g id="surface1">
<path style=" stroke:none;fill-rule:nonzero;fill:rgb(100%,100%,100%);fill-opacity:1;" d="M 100.0625 21.445312 C 99.628906 24.46875 100.492188 28.570312 102.660156 33.75 L 111.105469 49.945312 L 122.152344 73.261719 L 128 95.285156 C 127.566406 109.535156 124.101562 121.40625 117.605469 130.90625 C 111.539062 140.40625 102.226562 147.101562 89.664062 150.988281 L 89.015625 150.988281 L 87.714844 150.339844 C 87.28125 149.042969 87.5 147.964844 88.367188 147.101562 C 94.429688 143.644531 97.460938 136.953125 97.460938 127.023438 C 97.460938 116.660156 94.644531 106.941406 89.015625 97.875 C 83.382812 89.238281 75.371094 81.683594 64.976562 75.203125 L 57.828125 88.160156 L 48.082031 98.523438 L 35.734375 111.476562 L 31.1875 127.023438 C 31.1875 138.25 35.085938 145.804688 42.882812 149.691406 L 44.832031 151.636719 L 42.234375 152.929688 C 29.238281 150.769531 19.058594 146.019531 11.695312 138.679688 C 4.332031 130.476562 0.648438 118.601562 0.648438 103.054688 C 0.214844 90.535156 2.597656 76.5 7.796875 60.953125 L 16.894531 40.875 L 18.191406 39.582031 L 19.492188 41.523438 L 22.742188 53.828125 C 24.472656 62.464844 27.507812 68.511719 31.835938 71.964844 C 31.40625 53.828125 36.386719 36.558594 46.78125 20.148438 L 63.023438 0.71875 L 64.324219 0.0703125 L 64.976562 0.0703125 L 65.625 2.660156 L 66.925781 22.09375 C 69.089844 35.910156 73.636719 45.410156 80.570312 50.589844 L 85.117188 35.046875 C 88.148438 27.707031 92.046875 22.738281 96.8125 20.148438 L 98.113281 19.5 L 99.410156 20.148438 L 100.0625 21.445312 "/>
</g>
</svg>
