<?xml version="1.0" encoding="UTF-8" standalone="no"?>
<svg
   xmlns:dc="http://purl.org/dc/elements/1.1/"
   xmlns:cc="http://creativecommons.org/ns#"
   xmlns:rdf="http://www.w3.org/1999/02/22-rdf-syntax-ns#"
   xmlns:svg="http://www.w3.org/2000/svg"
   xmlns="http://www.w3.org/2000/svg"
   xmlns:sodipodi="http://sodipodi.sourceforge.net/DTD/sodipodi-0.dtd"
   xmlns:inkscape="http://www.inkscape.org/namespaces/inkscape"
   width="127pt"
   height="119pt"
   viewBox="0 0 127 119"
   version="1.1"
   id="svg5"
   sodipodi:docname="icon_24.svg"
   inkscape:version="0.92.1 r15371">
  <metadata
     id="metadata11">
    <rdf:RDF>
      <cc:Work
         rdf:about="">
        <dc:format>image/svg+xml</dc:format>
        <dc:type
           rdf:resource="http://purl.org/dc/dcmitype/StillImage" />
      </cc:Work>
    </rdf:RDF>
  </metadata>
  <defs
     id="defs9" />
  <sodipodi:namedview
     pagecolor="#ffffff"
     bordercolor="#666666"
     borderopacity="1"
     objecttolerance="10"
     gridtolerance="10"
     guidetolerance="10"
     inkscape:pageopacity="0"
     inkscape:pageshadow="2"
     inkscape:window-width="836"
     inkscape:window-height="480"
     id="namedview7"
     showgrid="false"
     inkscape:zoom="1.487395"
     inkscape:cx="84.666667"
     inkscape:cy="79.333333"
     inkscape:window-x="0"
     inkscape:window-y="0"
     inkscape:window-maximized="0"
     inkscape:current-layer="svg5" />
  <g
     id="surface1"
     style="fill:#00ff00">
    <path
       style="stroke:none;fill-rule:nonzero;fill:#00ff00;fill-opacity:1"
       d="M 31.769531 0 L 56.507812 43.8125 L 51.667969 48.140625 L 50.054688 55.171875 L 0.0390625 55.171875 C 0.0390625 43.992188 2.726562 33.535156 8.105469 23.800781 C 13.84375 13.703125 21.730469 5.769531 31.769531 0 M 63.5 68.695312 L 69.953125 67.074219 L 95.230469 110.34375 C 85.191406 116.113281 74.433594 119 62.960938 119 C 51.847656 119 41.449219 116.113281 31.769531 110.34375 L 56.507812 67.074219 L 63.5 68.695312 M 95.230469 0 C 104.910156 5.769531 112.621094 13.523438 118.355469 23.257812 C 124.09375 33.355469 126.960938 43.992188 126.960938 55.171875 L 76.945312 55.171875 L 74.792969 48.140625 L 69.953125 43.8125 L 95.230469 0 M 63.5 47.058594 L 68.878906 49.761719 L 71.566406 55.171875 L 68.878906 61.121094 C 67.445312 62.566406 65.652344 63.285156 63.5 63.285156 C 60.988281 63.285156 59.019531 62.566406 57.585938 61.121094 L 55.433594 55.171875 L 57.585938 49.761719 L 63.5 47.058594 "
       id="path2" />
  </g>
</svg>
