<?xml version='1.0' encoding='UTF-8'?>
<svg xmlns:xlink="http://www.w3.org/1999/xlink" xmlns="http://www.w3.org/2000/svg" version="1.1" width="520px" height="439px" viewBox="-232.413318634 -206.456653595 519.679969024 439.466640472"><defs><g id="c168"><path fill="#ffffff" stroke="none" d="M7.55 5.55 L7.55 0.05 3.55 0.05 3.55 -3.95 -1.95 -3.95 -1.95 0.05 -6.0 0.05 -6.0 5.55 -1.95 5.55 -1.95 9.55 3.55 9.55 3.55 5.55 7.55 5.55 M4.8 -10.4 L4.75 -10.7 4.45 -10.8 -3.1 -10.8 -3.35 -10.7 -3.4 -10.4 -3.05 -7.15 4.4 -7.15 4.8 -10.4 M6.8 -10.05 L6.45 -7.15 9.15 -7.15 Q10.75 -7.15 12.1 -6.0 13.45 -4.85 13.7 -3.25 L15.75 8.7 Q16.0 10.5 14.95 11.7 13.9 12.9 12.2 12.9 L-10.6 12.9 Q-12.35 12.9 -13.4 11.7 -14.45 10.4 -14.15 8.7 L-12.1 -3.25 Q-11.85 -4.85 -10.5 -6.0 -9.15 -7.15 -7.55 -7.15 L-5.1 -7.15 -5.4 -10.05 Q-5.65 -11.15 -4.95 -12.0 -4.25 -12.85 -3.1 -12.85 L4.45 -12.85 Q5.6 -12.85 6.3 -12.0 6.95 -11.25 6.8 -10.05"/></g></defs><g><g><use transform="matrix(17.0666656494,0.0,0.0,17.0666656494,14.2,12.85)" xlink:href="#c168"/></g></g></svg>