<?xml version='1.0' encoding='UTF-8'?>
<svg xmlns:xlink="http://www.w3.org/1999/xlink" xmlns="http://www.w3.org/2000/svg" version="1.1" width="412px" height="512px" viewBox="-198.97220993 -246.999984741 412.44441986 511.999969482"><defs><g id="c34"><path fill="#ffffff" stroke="none" d="M-5.85 -1.3 L-0.7 -1.3 -0.7 -7.65 -5.85 -7.65 -5.85 -1.3 M5.8 2.95 L5.8 0.0 0.7 0.0 0.7 7.3 Q2.6 6.5 3.9 5.4 5.65 4.2 5.8 2.95 M6.85 -8.6 Q7.25 -8.4 7.25 -7.85 L7.25 2.9 7.15 3.2 Q6.85 5.25 3.9 7.15 2.3 8.25 0.55 8.9 L0.0 9.0 -0.45 8.9 -3.9 7.15 Q-6.85 5.25 -7.25 3.2 L-7.25 2.9 -7.25 -7.85 Q-7.25 -8.4 -6.85 -8.6 -6.55 -9.0 -5.95 -9.0 L6.0 -9.0 Q6.45 -9.0 6.85 -8.6"/></g></defs><g><g><use transform="matrix(28.444442749,0.0,0.0,28.444442749,7.25,9.0)" xlink:href="#c34"/></g></g></svg>