<?xml version='1.0' encoding='UTF-8'?>
<svg xmlns:xlink="http://www.w3.org/1999/xlink" xmlns="http://www.w3.org/2000/svg" version="1.1" width="512px" height="477px" viewBox="-250.099916077 -214.068572235 511.999832154 477.287979126"><defs><g id="c44"><path fill="#ffffff" stroke="none" d="M-0.05 5.95 Q-1.6 5.95 -2.95 5.15 L-0.65 1.15 0.0 1.3 0.6 1.15 2.95 5.15 Q1.55 5.95 -0.05 5.95 M-2.95 -5.05 L-0.65 -1.0 -1.1 -0.6 -1.25 0.05 -5.9 0.05 Q-5.9 -1.5 -5.15 -2.85 -4.35 -4.25 -2.95 -5.05 M0.0 -0.7 L0.5 -0.45 0.75 0.05 0.5 0.6 Q0.3 0.8 0.0 0.8 -0.35 0.8 -0.55 0.6 L-0.75 0.05 -0.55 -0.45 0.0 -0.7 M2.95 -5.05 Q4.3 -4.25 5.1 -2.9 5.9 -1.5 5.9 0.05 L1.25 0.05 1.05 -0.6 0.6 -1.0 2.95 -5.05"/></g></defs><g><g><use transform="matrix(43.3898162842,0.0,0.0,43.3898162842,5.9,5.05)" xlink:href="#c44"/></g></g></svg>