<?xml version='1.0' encoding='UTF-8'?>
<svg xmlns:xlink="http://www.w3.org/1999/xlink" xmlns="http://www.w3.org/2000/svg" version="1.1" width="512px" height="509px" viewBox="-245.999908447 -244.769908905 511.999816894 509.43981781"><defs><g id="c57"><path fill="#ffffff" stroke="none" d="M1.65 -3.05 Q1.65 -5.0 0.25 -6.4 -1.15 -7.8 -3.1 -7.8 -5.05 -7.8 -6.45 -6.4 -7.85 -5.0 -7.85 -3.05 -7.85 -1.1 -6.45 0.25 -5.05 1.65 -3.1 1.65 -1.15 1.65 0.25 0.25 1.65 -1.1 1.65 -3.05 M1.8 -7.95 Q3.8 -5.9 3.8 -3.05 3.8 -0.75 2.35 1.15 L3.3 2.05 3.4 2.0 4.0 1.75 Q4.4 1.75 4.6 2.0 L9.75 7.1 10.0 7.7 9.75 8.3 8.3 9.7 7.7 9.95 7.05 9.7 1.95 4.6 Q1.7 4.35 1.7 4.0 1.7 3.65 1.95 3.4 L2.05 3.25 1.1 2.35 Q-0.8 3.8 -3.1 3.8 -5.95 3.8 -7.95 1.8 -10.0 -0.2 -10.0 -3.05 -10.0 -5.9 -7.95 -7.95 -5.95 -9.95 -3.1 -9.95 -0.25 -9.95 1.8 -7.95"/></g></defs><g><g><use transform="matrix(25.5999908447,0.0,0.0,25.5999908447,10.0,9.95)" xlink:href="#c57"/></g></g></svg>