<?xml version='1.0' encoding='UTF-8'?>
<svg xmlns:xlink="http://www.w3.org/1999/xlink" xmlns="http://www.w3.org/2000/svg" version="1.1" width="480px" height="516px" viewBox="-206.456653595 -250.639984131 480.426638031 516.266635894"><defs><g id="c172"><path fill="#ffffff" stroke="none" d="M15.3 -6.95 L11.05 -2.8 4.55 10.7 Q4.25 11.45 3.5 11.2 L2.95 11.0 2.45 10.55 2.4 9.95 4.65 3.5 -6.2 14.15 Q-6.8 14.65 -7.4 14.15 L-7.8 13.7 Q-8.4 13.1 -7.8 12.5 L0.9 3.95 0.15 3.2 -9.1 12.3 -10.3 12.25 -10.7 11.8 -10.95 11.25 -10.7 10.65 -1.45 1.55 -2.1 0.9 -10.55 9.15 -11.1 9.4 -11.7 9.15 -12.15 8.7 -12.35 8.15 -12.1 7.55 -3.7 -0.75 -4.4 -1.45 -11.05 5.05 -11.6 5.3 -12.2 5.05 -12.65 4.6 -12.85 4.05 -12.65 3.45 6.8 -15.6 15.3 -6.95"/></g></defs><g><g><use transform="matrix(17.0666656494,0.0,0.0,17.0666656494,12.85,15.6)" xlink:href="#c172"/></g></g></svg>