<?xml version='1.0' encoding='UTF-8'?>
<svg xmlns:xlink="http://www.w3.org/1999/xlink" xmlns="http://www.w3.org/2000/svg" version="1.1" width="346px" height="511px" viewBox="-160.053131103 -237.960044098 346.26579895 511.259972381"><defs><g id="c183"><path fill="#ffffff" stroke="none" d="M8.1 15.3 L7.9 15.4 6.25 16.8 Q5.45 17.3 4.9 17.3 L4.4 17.15 Q4.2 17.0 4.6 16.35 L5.7 14.8 4.4 13.65 9.85 13.65 Q9.75 14.3 8.95 14.75 L8.9 14.75 8.6 14.55 8.1 15.3 M2.4 10.55 L2.25 9.85 2.15 9.0 8.35 9.0 7.95 9.45 8.25 9.85 8.85 10.85 9.9 12.45 3.45 12.45 2.4 10.55 M-0.1 14.55 L-1.0 14.9 -1.2 14.95 -3.3 15.2 -4.7 14.95 -5.1 14.55 Q-5.15 14.25 -3.75 13.65 L2.05 13.65 1.8 13.7 1.6 13.75 1.55 14.3 Q1.1 14.95 0.05 14.9 L-0.1 14.55 M-0.95 3.25 L-0.75 3.05 -1.35 2.45 -3.45 -0.2 9.0 -0.2 Q8.55 0.4 7.9 0.45 L7.85 0.45 8.55 1.4 8.6 1.5 9.55 3.25 -0.95 3.25 M-4.4 7.8 L-4.4 7.35 Q-4.2 6.15 -2.3 4.45 L9.75 4.45 9.75 5.3 8.9 7.8 -4.4 7.8 M-3.95 9.85 L-4.2 9.0 0.75 9.0 0.95 9.85 1.1 10.35 1.8 12.45 -3.05 12.45 -3.95 9.85 M-11.05 -0.2 L-10.75 -0.2 -10.45 0.15 -10.55 -0.2 -4.45 -0.2 Q-5.2 1.15 -6.15 1.95 -7.3 2.9 -8.5 2.9 L-8.6 2.85 -9.4 2.95 Q-10.1 2.9 -10.35 2.2 L-10.6 2.5 Q-10.95 2.6 -11.15 2.3 L-11.35 2.0 -11.6 0.85 -11.35 0.05 -11.05 -0.2 M-6.0 -15.2 L-5.4 -15.85 -4.85 -16.05 Q-4.45 -16.15 -4.35 -16.35 L-3.65 -17.25 -3.55 -17.25 -2.85 -17.15 -2.4 -16.95 -1.95 -16.95 -1.4 -17.0 -0.8 -16.5 -0.25 -16.1 Q0.3 -16.05 1.1 -15.2 L-6.0 -15.2 M11.6 -4.35 Q11.8 -2.85 10.25 -1.35 L-9.75 -1.35 Q-9.5 -1.95 -9.1 -1.9 L-8.95 -1.9 -8.95 -1.95 Q-8.3 -3.5 -6.95 -4.8 L11.5 -4.8 11.6 -4.35 M6.4 -3.6 L6.65 -3.4 7.25 -3.35 7.35 -4.1 5.65 -4.65 5.75 -4.2 6.2 -3.9 6.4 -3.6 M1.25 -8.9 L3.55 -8.8 Q6.6 -8.55 8.65 -7.55 L10.85 -6.0 -5.35 -6.0 -5.05 -6.15 Q-5.85 -6.7 -6.35 -7.6 L-7.0 -9.4 1.9 -9.4 1.25 -8.9 M1.7 -14.0 L1.9 -12.75 1.65 -11.1 1.6 -10.95 1.75 -10.95 2.05 -10.6 -7.05 -10.6 -7.0 -11.25 -7.45 -11.85 Q-7.75 -12.35 -7.5 -13.05 -7.9 -13.45 -7.85 -14.0 L1.7 -14.0"/></g></defs><g><g><use transform="matrix(14.7976837158,0.0,0.0,14.7976837158,11.6,17.3)" xlink:href="#c183"/></g></g></svg>