<?xml version='1.0' encoding='UTF-8'?>
<svg xmlns:xlink="http://www.w3.org/1999/xlink" xmlns="http://www.w3.org/2000/svg" version="1.1" width="512px" height="124px" viewBox="-243.880278016 -59.1383506776 511.999974824 124.41656723"><defs><g id="c96"><path fill="#ffffff" stroke="none" d="M-13.05 -2.25 L-13.05 -1.35 -7.45 -1.35 -7.45 -2.25 -13.05 -2.25 M-17.65 -2.05 L-17.65 -1.55 -17.5 -1.35 -13.7 -1.35 -13.7 -2.25 -17.5 -2.25 -17.65 -2.05 M13.7 3.15 L16.05 4.4 16.7 3.05 14.0 1.9 9.05 1.75 8.7 2.2 Q9.0 2.9 9.45 3.4 10.0 4.05 10.75 4.25 L12.8 3.9 13.35 3.55 13.7 3.15 M-0.3 -1.85 L-0.3 -1.65 4.2 -1.65 4.2 -1.85 -0.3 -1.85 M-0.3 -4.05 L-0.3 -3.8 4.2 -3.8 4.2 -4.05 -0.3 -4.05 M-0.3 -3.05 L-0.3 -2.6 4.2 -2.6 4.2 -3.05 -0.3 -3.05 M4.95 -4.1 L5.15 -4.45 5.5 -4.55 5.85 -4.55 6.2 -4.4 6.35 -4.05 6.35 -3.6 6.7 -3.75 Q7.0 -3.75 7.1 -3.55 L7.3 -3.15 7.3 -2.85 7.5 -2.9 7.6 -2.9 7.9 -2.75 8.1 -2.35 8.1 -2.3 8.2 -2.3 9.75 -1.7 9.8 -3.7 10.9 -3.3 11.15 -2.1 Q11.4 -0.85 11.9 -0.5 L12.55 -0.35 13.35 -0.6 14.25 -0.9 15.25 -0.95 20.65 0.25 Q20.1 1.25 20.65 2.75 L21.35 4.05 21.1 4.65 Q20.85 4.85 20.45 4.65 L17.25 3.2 16.3 5.2 13.8 3.85 12.65 4.55 10.7 4.75 Q9.8 4.55 9.15 3.85 L8.3 2.65 7.5 3.65 3.05 0.6 -6.95 0.6 Q-7.45 0.6 -7.45 0.1 L-21.8 0.1 -21.8 1.4 Q-21.8 1.9 -22.35 1.9 L-22.75 1.9 Q-23.3 1.9 -23.3 1.4 L-23.3 -3.25 Q-23.3 -3.75 -22.75 -3.75 L-22.35 -3.75 Q-21.8 -3.75 -21.8 -3.25 L-21.8 -3.05 -17.65 -3.05 -17.65 -2.9 -13.7 -2.9 -13.7 -3.1 Q-13.7 -3.55 -13.35 -3.55 -13.05 -3.55 -13.05 -3.1 L-13.05 -2.9 -7.45 -2.9 Q-7.45 -3.5 -6.95 -3.5 L-3.3 -3.5 Q-3.05 -3.5 -2.9 -3.3 L-2.7 -2.9 -2.7 -1.6 -2.0 -1.6 -2.0 -3.55 -1.8 -3.95 -1.8 -5.4 -1.75 -5.6 -1.5 -5.65 -1.4 -5.6 -1.25 -5.4 -1.25 -3.95 -1.05 -3.55 -1.05 -4.25 -0.85 -4.65 -0.5 -4.75 4.45 -4.75 4.8 -4.65 4.95 -4.25 4.95 -4.1"/></g></defs><g><g><use transform="matrix(11.4669647217,0.0,0.0,11.4669647217,23.3,5.65)" xlink:href="#c96"/></g></g></svg>