<?xml version="1.0" encoding="UTF-8" standalone="no"?>
<svg
   xmlns:dc="http://purl.org/dc/elements/1.1/"
   xmlns:cc="http://creativecommons.org/ns#"
   xmlns:rdf="http://www.w3.org/1999/02/22-rdf-syntax-ns#"
   xmlns:svg="http://www.w3.org/2000/svg"
   xmlns="http://www.w3.org/2000/svg"
   xmlns:xlink="http://www.w3.org/1999/xlink"
   xmlns:sodipodi="http://sodipodi.sourceforge.net/DTD/sodipodi-0.dtd"
   xmlns:inkscape="http://www.inkscape.org/namespaces/inkscape"
   version="1.1"
   width="512px"
   height="432px"
   viewBox="-235.149797058 -199.059660339 511.999594116 432.191503906"
   id="svg13"
   sodipodi:docname="icon_102.svg"
   inkscape:version="0.92.1 r15371">
  <metadata
     id="metadata17">
    <rdf:RDF>
      <cc:Work
         rdf:about="">
        <dc:format>image/svg+xml</dc:format>
        <dc:type
           rdf:resource="http://purl.org/dc/dcmitype/StillImage" />
      </cc:Work>
    </rdf:RDF>
  </metadata>
  <sodipodi:namedview
     pagecolor="#ffffff"
     bordercolor="#666666"
     borderopacity="1"
     objecttolerance="10"
     gridtolerance="10"
     guidetolerance="10"
     inkscape:pageopacity="0"
     inkscape:pageshadow="2"
     inkscape:window-width="836"
     inkscape:window-height="480"
     id="namedview15"
     showgrid="false"
     inkscape:zoom="0.5462963"
     inkscape:cx="256"
     inkscape:cy="216"
     inkscape:window-x="0"
     inkscape:window-y="0"
     inkscape:window-maximized="0"
     inkscape:current-layer="g11" />
  <defs
     id="defs5">
    <g
       id="c102">
      <path
         fill="#ffffff"
         stroke="none"
         d="M1.8 -17.05 Q2.4 -17.6 3.1 -17.65 3.8 -17.65 4.25 -17.2 L5.75 -15.65 Q6.2 -15.2 6.15 -14.55 6.15 -13.9 5.6 -13.35 6.2 -13.35 6.7 -12.95 L7.8 -13.6 9.4 -12.1 9.35 -12.1 10.5 -10.9 9.8 -9.7 10.0 -9.2 11.25 -9.55 Q11.95 -9.45 12.45 -9.0 L20.2 -2.35 20.85 -1.1 Q20.85 -0.35 20.25 0.15 L15.35 5.0 Q14.75 5.5 14.05 5.45 13.35 5.45 12.85 4.85 L6.4 -3.15 Q5.9 -3.7 5.95 -4.5 6.0 -5.35 6.5 -5.85 L6.6 -5.9 Q6.4 -5.9 6.25 -6.05 1.1 -1.55 -0.65 0.6 L-3.65 3.55 -3.15 4.6 -3.0 5.25 -3.0 5.35 Q-3.25 7.45 -3.4 7.6 -3.65 8.4 -4.3 8.7 L-5.55 9.0 Q-5.45 9.6 -5.8 10.0 -6.25 10.6 -7.15 10.6 -7.2 11.25 -7.6 11.7 -8.1 12.15 -8.9 12.05 -9.25 12.85 -9.85 13.1 L-11.15 12.95 -12.55 12.25 -17.2 16.95 Q-17.85 17.55 -18.75 17.55 -19.65 17.55 -20.3 16.95 -20.85 16.3 -20.85 15.4 -20.85 14.5 -20.3 13.9 L-15.85 9.45 -17.15 5.95 Q-17.25 5.45 -17.6 5.1 L-17.9 4.9 -17.6 4.1 -17.05 4.4 -16.25 5.6 -15.7 7.15 -14.85 9.5 -13.45 10.7 -11.4 11.9 -10.75 12.2 -10.15 12.25 -9.85 11.9 -11.25 11.25 -11.4 11.1 -10.6 10.6 -10.05 10.9 -9.05 11.15 -8.25 11.05 -8.05 10.5 Q-9.05 10.4 -9.6 9.9 L-9.7 9.75 -8.95 9.25 -8.05 9.6 -7.55 9.7 -6.5 9.5 Q-6.35 9.25 -6.45 8.85 L-8.45 8.2 -8.0 7.45 -6.75 7.8 -6.75 7.75 -5.9 8.0 -5.2 8.05 Q-4.5 7.95 -4.25 7.3 L-3.9 5.3 -4.3 4.2 -4.9 4.8 -4.8 5.7 -5.0 6.4 -5.55 6.65 -7.4 5.9 Q-8.9 5.15 -9.4 4.65 L-9.5 4.55 Q-9.85 4.1 -10.0 3.1 -10.1 2.15 -9.8 1.55 -9.4 0.8 -8.5 0.9 L-8.45 1.0 -8.3 1.0 -8.05 1.15 -7.6 0.7 -8.75 -0.2 -9.25 -0.45 -9.35 -0.45 -10.75 -0.75 -12.1 -1.0 -11.95 -1.9 -10.6 -1.65 -9.0 -1.25 -8.25 -0.95 -6.95 0.1 -3.9 -2.75 Q-1.8 -4.45 2.85 -9.45 2.6 -9.85 2.6 -10.35 2.0 -10.0 1.45 -10.0 0.8 -10.0 0.4 -10.35 L-1.15 -11.9 Q-1.6 -12.45 -1.55 -13.15 -1.45 -13.85 -0.9 -14.35 L1.8 -17.05"
         id="path2" />
    </g>
    <filter
       style="color-interpolation-filters:sRGB;"
       inkscape:label="Colorize"
       id="filter4509">
      <feComposite
         in2="SourceGraphic"
         operator="arithmetic"
         k1="0"
         k2="1"
         result="composite1"
         id="feComposite4495" />
      <feColorMatrix
         in="composite1"
         values="1"
         type="saturate"
         result="colormatrix1"
         id="feColorMatrix4497" />
      <feFlood
         flood-opacity="1"
         flood-color="rgb(0,255,0)"
         result="flood1"
         id="feFlood4499" />
      <feBlend
         in="flood1"
         in2="colormatrix1"
         mode="multiply"
         result="blend1"
         id="feBlend4501" />
      <feBlend
         in2="blend1"
         mode="screen"
         result="blend2"
         id="feBlend4503" />
      <feColorMatrix
         in="blend2"
         values="1"
         type="saturate"
         result="colormatrix2"
         id="feColorMatrix4505" />
      <feComposite
         in="colormatrix2"
         in2="SourceGraphic"
         operator="in"
         k2="1"
         result="composite2"
         id="feComposite4507" />
    </filter>
  </defs>
  <g
     id="g11">
    <g
       id="g9"
       style="filter:url(#filter4509)">
      <use
         transform="matrix(12.278168,0,0,12.278168,20.85,17.65)"
         xlink:href="#c102"
         id="use7"
         x="0"
         y="0"
         width="100%"
         height="100%" />
    </g>
  </g>
</svg>
