<?xml version='1.0' encoding='UTF-8'?>
<svg xmlns:xlink="http://www.w3.org/1999/xlink" xmlns="http://www.w3.org/2000/svg" version="1.1" width="514px" height="430px" viewBox="-240.249984742 -200.5396698 513.625366212 429.917434694"><defs><g id="c122"><path fill="#ffffff" stroke="none" d="M5.5 -13.15 L6.15 -13.0 6.75 -12.15 7.1 -11.1 Q7.1 -10.7 6.9 -10.55 L2.75 -8.45 3.05 -8.0 6.2 -8.9 6.85 -8.55 7.25 -7.65 7.35 -6.4 8.3 -6.55 9.1 -6.45 9.65 -5.85 10.2 -4.85 11.75 -1.25 11.95 -0.25 11.85 0.35 Q11.6 0.5 11.7 1.0 L11.9 2.0 15.55 9.95 Q15.85 10.4 15.65 11.0 L14.95 11.7 11.75 13.1 Q11.25 13.3 10.8 13.1 10.2 12.9 10.0 12.4 L7.05 5.1 6.55 4.3 Q6.2 3.95 6.0 4.0 5.85 4.1 5.5 3.8 L5.4 3.75 Q5.1 3.5 4.95 3.05 L4.45 2.55 Q4.15 2.6 4.0 3.1 L3.6 4.65 Q3.55 5.2 2.95 5.55 2.45 6.0 1.9 6.0 L-3.6 6.0 -4.65 6.15 -5.35 6.35 -5.75 6.55 -6.25 6.65 -6.6 6.2 -6.8 5.2 -6.8 4.35 Q-6.8 3.8 -7.1 3.2 -7.45 2.55 -7.95 2.25 L-9.4 1.35 Q-9.9 3.1 -10.95 4.45 -12.1 5.7 -13.45 6.15 L-13.45 5.65 -14.55 5.5 -15.6 4.0 -15.4 3.9 -14.35 4.75 -13.45 4.75 -13.45 2.75 -14.7 2.55 -15.75 0.65 -15.55 0.45 -14.5 1.5 -13.45 1.55 -13.45 -1.2 -15.4 -1.4 -15.4 -2.5 -13.45 -2.8 -13.45 -5.4 -14.5 -5.35 -15.55 -4.3 -15.75 -4.5 -14.7 -6.4 -13.45 -6.6 -13.45 -8.55 -14.35 -8.55 -15.4 -7.75 -15.6 -7.85 -14.55 -9.35 -13.45 -9.5 -13.45 -10.0 Q-12.0 -9.5 -10.9 -8.15 -9.85 -6.8 -9.35 -4.9 L-8.35 -5.35 Q-7.8 -5.55 -7.4 -6.1 -7.05 -6.65 -6.95 -7.25 L-6.75 -9.2 Q-6.75 -9.75 -6.25 -10.1 -5.85 -10.55 -5.25 -10.6 L-0.05 -10.75 0.65 -10.7 5.5 -13.15"/></g></defs><g><g><use transform="matrix(16.2539672852,0.0,0.0,16.2539672852,15.75,13.2)" xlink:href="#c122"/></g></g></svg>