<?xml version='1.0' encoding='UTF-8'?>
<svg xmlns:xlink="http://www.w3.org/1999/xlink" xmlns="http://www.w3.org/2000/svg" version="1.1" width="510px" height="512px" viewBox="-247.980425263 -250.099916077 509.830341339 511.999832154"><defs><g id="c42"><path fill="#ffffff" stroke="none" d="M1.9 -4.8 L2.2 -4.7 2.3 -4.4 2.2 -4.2 0.4 -2.4 0.4 -0.9 1.55 -2.0 1.8 -2.1 2.1 -2.0 2.2 -1.8 2.1 -1.5 0.95 -0.35 2.4 -0.35 4.15 -2.15 4.45 -2.3 4.7 -2.15 4.8 -1.9 4.7 -1.65 3.45 -0.35 5.5 -0.35 5.8 -0.25 5.9 0.0 5.8 0.3 5.5 0.4 3.5 0.4 4.7 1.6 4.8 1.85 4.7 2.15 4.45 2.25 4.15 2.15 2.4 0.4 0.95 0.4 2.1 1.5 2.2 1.75 2.1 2.05 1.8 2.15 1.55 2.05 0.4 0.9 0.4 2.35 2.2 4.1 2.3 4.35 2.2 4.65 1.9 4.75 1.65 4.65 0.4 3.4 0.4 5.5 0.3 5.8 0.0 5.9 -0.2 5.8 -0.35 5.5 -0.35 3.4 -1.55 4.65 -1.85 4.75 -2.1 4.65 -2.25 4.35 -2.1 4.1 -0.35 2.35 -0.35 0.9 -1.45 2.05 -1.75 2.15 -2.0 2.05 -2.1 1.75 -2.0 1.5 -0.85 0.4 -2.35 0.4 -4.15 2.15 -4.35 2.25 -4.65 2.15 -4.75 1.85 -4.65 1.6 -3.45 0.4 -5.5 0.4 -5.7 0.3 -5.85 0.0 -5.7 -0.25 -5.5 -0.35 -3.35 -0.35 -4.65 -1.65 -4.75 -1.9 -4.65 -2.15 -4.35 -2.3 -4.15 -2.15 -2.35 -0.35 -0.85 -0.35 -2.0 -1.5 -2.1 -1.8 -2.0 -2.0 -1.75 -2.1 -1.45 -2.0 -0.35 -0.9 -0.35 -2.4 -2.1 -4.2 -2.25 -4.4 -2.1 -4.7 -1.85 -4.8 -1.55 -4.7 -0.35 -3.45 -0.35 -5.5 -0.2 -5.75 0.0 -5.9 0.3 -5.75 0.4 -5.5 0.4 -3.45 1.65 -4.7 1.9 -4.8"/></g></defs><g><g><use transform="matrix(43.3898162842,0.0,0.0,43.3898162842,5.85,5.9)" xlink:href="#c42"/></g></g></svg>