<?xml version='1.0' encoding='UTF-8'?>
<svg xmlns:xlink="http://www.w3.org/1999/xlink" xmlns="http://www.w3.org/2000/svg" version="1.1" width="515px" height="263px" viewBox="-240.199972534 -123.140492248 515.240451049 263.291110992"><defs><g id="c84"><path fill="#ffffff" stroke="none" d="M4.75 -1.8 L4.2 -1.55 3.95 -1.0 3.95 -0.6 Q3.95 -0.25 4.2 -0.05 L4.75 0.2 5.75 0.2 6.35 -0.05 Q6.55 -0.25 6.55 -0.6 L6.55 -1.0 6.35 -1.55 5.75 -1.8 4.75 -1.8 M8.1 -8.1 L8.5 -7.95 8.7 -7.6 10.4 -7.6 10.95 -7.4 11.15 -6.85 11.15 -3.5 10.9 -2.9 11.4 -1.8 Q11.85 -1.2 12.65 -0.55 14.55 0.9 15.65 5.15 16.0 6.75 15.45 7.5 15.0 8.15 14.05 8.15 L8.95 8.15 8.25 7.75 Q8.15 7.35 8.45 7.05 L9.55 6.4 10.4 6.05 10.25 5.1 9.85 3.4 8.75 1.8 8.0 1.05 5.65 1.05 4.8 1.6 2.5 1.6 2.05 1.45 2.05 1.25 2.7 -0.15 3.15 -1.15 -2.95 -1.15 Q-4.95 -0.3 -5.3 -0.3 L-5.45 -0.3 -5.45 0.05 -5.55 0.25 -5.75 0.35 -6.0 0.25 -6.05 0.05 -6.05 -0.3 -7.0 -0.3 -7.0 0.05 -7.1 0.25 -7.25 0.35 -7.5 0.25 -7.6 0.05 -7.6 -0.3 -8.45 -0.3 -8.45 0.05 -8.55 0.25 -8.8 0.35 -9.05 0.25 -9.1 0.05 -9.1 -0.3 -10.0 -0.3 -10.0 0.05 -10.1 0.25 -10.3 0.35 -10.5 0.25 -10.6 0.05 -10.6 -0.3 -11.55 -0.3 -11.55 0.05 -11.6 0.25 -11.8 0.35 -12.05 0.25 -12.15 0.05 -12.15 -0.3 -13.05 -0.3 -13.05 0.05 -13.1 0.25 -13.35 0.35 -13.55 0.25 -13.65 0.05 -13.65 -0.3 -14.25 -0.3 Q-14.55 -0.3 -14.75 -0.55 L-15.0 -1.1 -15.0 -1.95 Q-15.3 -1.95 -15.55 -2.2 L-15.8 -2.75 -15.8 -6.8 -15.55 -7.35 -15.0 -7.55 -12.85 -7.55 -12.55 -7.6 -11.45 -7.6 -11.25 -7.95 -10.85 -8.1 8.1 -8.1"/></g></defs><g><g><use transform="matrix(16.2025299072,0.0,0.0,16.2025299072,15.8,8.1)" xlink:href="#c84"/></g></g></svg>