<?xml version='1.0' encoding='UTF-8'?>
<svg xmlns:xlink="http://www.w3.org/1999/xlink" xmlns="http://www.w3.org/2000/svg" version="1.1" width="512px" height="431px" viewBox="-241.01079483 -202.9128685 511.99980545 431.203952789"><defs><g id="c142"><path fill="#ffffff" stroke="none" d="M-13.85 12.3 L-14.25 12.2 -14.55 11.75 -14.55 9.25 14.6 5.2 14.6 7.7 14.35 8.4 13.8 8.7 10.7 8.7 10.7 11.75 10.45 12.2 10.0 12.3 -13.85 12.3 M-14.55 7.55 L-14.55 3.1 14.6 -0.95 14.6 3.55 -14.55 7.55 M4.15 -6.5 Q3.6 -7.35 2.05 -8.05 L-1.45 -8.6 -4.9 -8.05 Q-6.3 -7.35 -7.0 -6.5 L4.15 -6.5 M6.4 -6.5 L10.0 -6.5 10.0 -11.25 Q10.0 -11.7 10.3 -11.95 10.6 -12.25 11.0 -12.25 L11.4 -12.25 12.1 -11.95 12.4 -11.25 12.4 -4.15 13.8 -4.15 14.35 -3.85 14.6 -3.15 14.6 -2.75 -14.55 1.3 -14.55 -5.8 -14.25 -6.4 -13.85 -6.5 -9.1 -6.5 Q-8.55 -8.2 -6.45 -9.3 -4.2 -10.45 -1.45 -10.45 1.5 -10.45 3.6 -9.3 5.85 -8.2 6.4 -6.5"/></g></defs><g><g><use transform="matrix(17.5643157959,0.0,0.0,17.5643157959,14.55,12.25)" xlink:href="#c142"/></g></g></svg>