<?xml version='1.0' encoding='UTF-8'?>
<svg xmlns:xlink="http://www.w3.org/1999/xlink" xmlns="http://www.w3.org/2000/svg" version="1.1" width="513px" height="512px" viewBox="-240.330841065 -240.330841065 512.837622071 511.999652101"><defs><g id="c150"><path fill="#ffffff" stroke="none" d="M11.1 -13.5 L12.05 -12.95 12.85 -13.75 13.8 -12.75 13.05 -11.95 13.55 -11.0 Q13.95 -9.95 13.3 -9.35 L14.4 -7.05 Q15.35 -4.55 14.5 -3.65 L15.3 -2.85 14.65 -2.2 13.65 -3.15 13.05 -2.55 13.35 -1.45 8.45 3.45 8.8 4.1 7.25 4.25 7.45 4.8 Q7.6 5.4 7.2 5.8 L7.95 6.35 Q8.55 7.1 7.9 7.75 L4.3 11.35 Q3.9 11.75 3.15 11.35 L2.45 10.85 1.9 10.8 1.9 13.8 1.45 14.85 Q1.0 15.3 0.4 15.3 L-0.95 15.3 Q-1.55 15.3 -2.0 14.85 L-2.45 13.8 -2.45 9.6 -2.4 9.4 -4.35 7.45 -6.15 9.25 Q-6.6 9.7 -7.2 9.7 L-8.25 9.25 -9.2 8.3 Q-9.65 7.9 -9.65 7.25 -9.65 6.6 -9.2 6.2 L-7.4 4.4 -9.35 2.45 -9.55 2.5 -13.75 2.5 Q-14.35 2.5 -14.85 2.05 -15.25 1.6 -15.25 1.0 L-15.25 -0.35 Q-15.25 -0.95 -14.85 -1.4 -14.4 -1.85 -13.75 -1.85 L-10.75 -1.85 -10.75 -2.4 -11.25 -3.1 Q-11.65 -3.85 -11.3 -4.25 L-7.7 -7.85 -6.3 -7.9 -5.75 -7.15 Q-5.35 -7.55 -4.7 -7.4 L-4.2 -7.2 -4.05 -8.75 -3.4 -8.35 1.55 -13.3 2.65 -12.95 3.25 -13.55 2.25 -14.55 2.9 -15.25 3.75 -14.45 7.1 -14.35 9.4 -13.25 Q10.05 -13.85 11.1 -13.5"/></g></defs><g><g><use transform="matrix(16.7593994141,0.0,0.0,16.7593994141,15.25,15.25)" xlink:href="#c150"/></g></g></svg>