<?xml version='1.0' encoding='UTF-8'?>
<svg xmlns:xlink="http://www.w3.org/1999/xlink" xmlns="http://www.w3.org/2000/svg" version="1.1" width="511px" height="317px" viewBox="-240.399865722 -148.708891296 511.179219054 316.717782592"><defs><g id="c120"><path fill="#ffffff" stroke="none" d="M3.45 -0.8 L1.45 -0.95 -0.35 -0.8 Q-1.05 -0.55 -1.05 0.35 -1.05 1.3 -0.25 2.0 0.5 2.75 1.65 2.75 2.75 2.75 3.5 2.0 4.25 1.3 4.25 0.35 4.25 -0.55 3.45 -0.8 M9.25 -7.8 L8.95 -6.85 Q9.65 -6.7 10.2 -5.85 10.8 -4.95 11.15 -4.85 L11.9 -4.3 Q12.1 -4.0 11.95 -3.55 L11.75 -2.15 Q13.3 -0.6 14.5 2.0 15.4 4.05 15.55 7.1 L15.55 9.65 9.15 9.65 9.65 6.6 Q10.05 3.35 9.25 1.8 8.75 0.75 8.0 0.25 L6.6 -0.35 5.55 0.4 5.15 1.25 4.2 2.55 Q3.15 3.5 1.2 3.45 -1.1 3.35 -1.75 1.6 L-2.0 0.35 -2.05 -0.55 Q-2.2 -0.85 -2.9 -1.1 L-4.05 -1.4 -4.95 -2.3 -5.3 -2.9 -6.5 -5.9 -15.6 -5.9 -15.6 -8.95 -6.5 -8.95 -6.5 -9.25 3.95 -9.25 4.2 -9.5 4.6 -9.65 4.95 -9.45 5.2 -8.95 5.2 -7.8 9.25 -7.8"/></g></defs><g><g><use transform="matrix(16.4102478027,0.0,0.0,16.4102478027,15.6,9.65)" xlink:href="#c120"/></g></g></svg>