<?xml version='1.0' encoding='UTF-8'?>
<svg xmlns:xlink="http://www.w3.org/1999/xlink" xmlns="http://www.w3.org/2000/svg" version="1.1" width="512px" height="509px" viewBox="1899.35034484 1897.30473327 511.999438475 509.19242401"><defs><g id="c79"><path fill="#ffffff" stroke="none" d="M209.0 185.5 L212.45 193.55 209.7 193.55 209.7 198.5 208.3 198.5 208.3 193.55 205.55 193.55 209.0 185.5 M208.3 218.1 L209.7 218.1 209.7 223.05 212.45 223.05 209.25 230.5 208.75 230.5 208.7 230.4 208.5 230.85 208.25 230.25 208.65 230.25 205.55 223.05 208.3 223.05 208.3 218.1 M223.25 204.6 L231.3 208.05 223.25 211.5 223.25 208.75 218.3 208.75 218.3 207.35 223.25 207.35 223.25 204.6 M198.7 208.75 L193.75 208.75 193.75 211.5 185.7 208.05 193.75 204.6 193.75 207.35 198.7 207.35 198.7 208.75"/></g></defs><g><g><use transform="matrix(11.2280578613,0.0,0.0,11.2280578613,-185.7,-185.5)" xlink:href="#c79"/></g></g></svg>