<?xml version='1.0' encoding='UTF-8'?>
<svg xmlns:xlink="http://www.w3.org/1999/xlink" xmlns="http://www.w3.org/2000/svg" version="1.1" width="527px" height="526px" viewBox="-251.464931488 -257.058291626 527.405085754 526.498891449"><defs><g id="c140"><path fill="#ffffff" stroke="none" d="M3.75 -10.65 L1.2 -10.75 Q0.55 -10.1 1.3 -8.2 2.15 -6.5 4.05 -4.6 5.85 -2.75 7.65 -1.9 L10.1 -1.8 Q10.85 -2.55 10.05 -4.3 9.25 -6.15 7.4 -8.0 5.5 -9.85 3.75 -10.65 M-10.65 -7.1 Q-12.05 -10.35 -11.75 -12.65 L-13.8 -9.05 Q-14.65 -6.75 -12.55 -2.65 -10.4 1.5 -6.25 5.65 -2.15 9.75 2.05 11.9 6.15 14.05 8.4 13.2 L11.8 11.15 Q9.55 11.5 6.45 10.05 4.1 9.0 1.55 7.1 L-3.4 2.85 -7.65 -2.1 Q-9.6 -4.7 -10.65 -7.1 M0.55 -7.9 Q-0.1 -9.25 0.1 -10.2 0.15 -10.9 0.6 -11.35 0.85 -11.65 1.2 -11.75 -0.5 -12.8 -2.05 -13.0 -4.8 -14.5 -6.9 -14.75 -9.1 -15.0 -10.1 -14.0 -11.6 -12.5 -9.85 -8.5 -7.9 -3.55 -2.2 2.15 3.15 7.5 8.2 9.3 10.8 10.25 12.35 10.15 12.85 10.1 13.45 9.5 14.45 8.5 14.1 6.25 13.9 4.15 12.4 1.45 12.25 -0.05 11.1 -1.8 L10.75 -1.2 Q10.3 -0.75 9.6 -0.65 8.65 -0.55 7.3 -1.15 5.35 -2.05 3.4 -4.0 1.4 -6.0 0.55 -7.9"/></g></defs><g><g><use transform="matrix(18.1238861084,0.0,0.0,18.1238861084,14.05,14.8)" xlink:href="#c140"/></g></g></svg>