<?xml version='1.0' encoding='UTF-8'?>
<svg xmlns:xlink="http://www.w3.org/1999/xlink" xmlns="http://www.w3.org/2000/svg" version="1.1" width="515px" height="467px" viewBox="-228.146652221 -219.309986114 514.559969329 466.773305511"><defs><g id="c162"><path fill="#ffffff" stroke="none" d="M-5.75 -13.2 L-4.85 -13.5 Q-6.85 -11.9 -6.1 -9.75 -5.55 -8.05 -3.45 -6.35 -2.35 -4.9 -2.95 -2.9 -3.55 -0.85 -5.35 -0.15 L-5.35 -1.1 Q-4.25 -2.15 -3.95 -2.85 -3.45 -4.0 -4.4 -4.9 -6.75 -6.8 -7.5 -8.55 -8.55 -10.95 -6.3 -12.55 L-5.75 -13.2 M15.05 3.45 L15.05 4.35 12.9 4.6 Q12.55 4.7 12.1 6.1 L11.25 8.7 10.3 10.0 8.6 11.6 Q7.85 12.15 6.9 12.5 L5.75 12.85 5.75 13.7 -4.95 13.7 -4.95 12.85 -6.1 12.5 -7.8 11.6 Q-10.0 10.05 -10.45 8.7 L-11.2 6.35 Q-11.7 4.75 -12.1 4.6 L-14.2 4.35 -14.2 3.45 2.75 3.45 4.4 2.45 4.6 2.35 Q5.0 2.7 5.1 3.45 L5.3 3.45 15.05 3.45 M12.1 -1.9 L14.55 -2.65 15.7 -2.6 Q15.95 -2.35 15.5 -1.95 L14.35 -1.0 12.15 0.4 9.05 2.0 5.3 3.45 Q5.3 2.75 4.75 2.2 L4.8 2.1 8.75 -0.35 12.1 -1.9 M1.55 -5.8 Q2.6 -4.35 2.0 -2.35 1.4 -0.3 -0.4 0.4 L-0.4 -0.55 Q0.7 -1.55 1.0 -2.3 1.5 -3.45 0.6 -4.4 -1.75 -6.25 -2.5 -8.05 -3.55 -10.4 -1.35 -12.0 L-0.8 -12.7 0.1 -13.0 Q-1.85 -11.35 -1.15 -9.25 -0.55 -7.55 1.55 -5.8 M3.75 -13.35 Q4.05 -13.65 4.65 -13.65 2.7 -12.0 3.4 -9.9 4.0 -8.2 6.1 -6.5 7.2 -5.05 6.6 -3.05 6.0 -1.0 4.2 -0.3 L4.2 -1.25 5.6 -2.95 Q6.1 -4.1 5.15 -5.05 2.8 -6.9 2.05 -8.7 1.0 -11.1 3.25 -12.7 L3.75 -13.35"/></g></defs><g><g><use transform="matrix(17.0666656494,0.0,0.0,17.0666656494,14.2,13.65)" xlink:href="#c162"/></g></g></svg>