<?xml version='1.0' encoding='UTF-8'?>
<svg xmlns:xlink="http://www.w3.org/1999/xlink" xmlns="http://www.w3.org/2000/svg" version="1.1" width="461px" height="512px" viewBox="-202.539987182 -249.033317566 460.799972534 511.999969482"><defs><g id="c174"><path fill="#ffffff" stroke="none" d="M0.9 11.65 Q2.35 11.65 3.3 10.6 L-1.55 10.6 Q-0.6 11.65 0.9 11.65 M3.15 6.65 Q2.2 5.8 0.9 5.8 -0.4 5.8 -1.4 6.65 L3.15 6.65 M4.05 8.3 L3.75 7.45 -2.0 7.45 -2.25 8.3 4.05 8.3 M3.8 9.85 L4.05 9.05 -2.3 9.05 -2.05 9.85 3.8 9.85 M4.0 2.8 Q4.7 2.8 5.3 3.25 5.9 3.7 6.0 4.35 L7.7 12.95 Q7.8 13.6 7.4 14.05 7.0 14.5 6.3 14.5 L-4.5 14.5 Q-5.2 14.5 -5.65 14.05 -6.05 13.6 -5.9 12.95 L-4.15 4.35 Q-4.05 3.7 -3.45 3.25 -2.85 2.8 -2.15 2.8 L4.0 2.8 M9.8 -3.15 Q9.7 -3.85 9.05 -4.35 8.45 -4.85 7.65 -4.85 L-5.8 -4.85 Q-6.6 -4.85 -7.2 -4.35 -7.85 -3.85 -7.95 -3.15 L-8.65 -0.05 Q-8.75 0.65 -8.3 1.1 -7.85 1.6 -7.05 1.6 L-5.55 1.6 Q-5.25 1.6 -2.95 0.2 -0.65 -1.2 0.85 -1.2 2.3 -1.2 5.15 0.15 L8.25 1.45 8.8 1.45 Q9.6 1.45 10.05 0.95 10.5 0.45 10.4 -0.25 L9.8 -3.15 M8.55 -13.4 Q10.9 -11.85 11.1 -10.6 L14.3 8.8 Q14.4 9.5 13.95 10.0 13.5 10.5 12.7 10.5 L8.2 10.5 6.9 3.9 Q6.75 3.05 5.95 2.45 5.2 1.85 4.25 1.85 L-2.4 1.85 Q-3.35 1.85 -4.1 2.45 -4.9 3.05 -5.05 3.9 L-6.4 10.5 -10.95 10.5 Q-11.7 10.5 -12.15 10.0 -12.6 9.5 -12.5 8.8 L-9.15 -10.6 Q-8.95 -11.85 -6.65 -13.4 -3.6 -15.5 0.9 -15.5 5.35 -15.5 8.55 -13.4"/></g></defs><g><g><use transform="matrix(17.0666656494,0.0,0.0,17.0666656494,12.5,15.5)" xlink:href="#c174"/></g></g></svg>