<?xml version='1.0' encoding='UTF-8'?>
<svg xmlns:xlink="http://www.w3.org/1999/xlink" xmlns="http://www.w3.org/2000/svg" version="1.1" width="350px" height="527px" viewBox="-2.49350280762 -8.72725982666 349.921560669 526.96026001"><defs><g id="c236"><path fill="#000000" fill-opacity="0.992156862745" d="M41.15 16.5 Q41.8 16.4 41.65 16.65 L39.15 21.65 38.4 22.15 37.45 22.3 Q27.7 20.4 19.95 16.5 L14.95 13.85 14.8 16.65 Q14.75 18.5 15.4 21.15 L16.6 25.65 17.35 25.75 26.9 27.0 Q32.75 27.35 36.3 25.7 L37.55 25.6 36.2 29.0 Q35.2 31.25 34.0 31.65 31.35 32.55 25.95 33.25 L16.35 33.75 Q21.65 44.15 29.85 45.0 L30.0 45.15 Q28.3 53.75 26.6 60.15 26.5 60.55 25.25 60.75 16.5 62.35 9.95 61.0 3.95 59.85 1.8 57.3 1.1 56.45 1.3 54.5 L1.85 51.4 3.05 41.25 Q3.1 39.15 3.35 38.15 L2.95 38.05 Q-0.3 30.45 0.05 22.15 0.4 13.35 4.8 6.75 6.65 3.95 9.15 1.95 12.85 -1.05 15.1 0.6 15.75 1.1 15.65 3.45 22.45 9.7 27.6 12.85 35.35 17.55 41.15 16.5 M25.75 60.1 Q24.95 59.9 25.35 57.75 L26.15 54.8 28.05 46.15 25.65 45.2 22.7 44.0 Q18.2 41.05 14.95 35.25 11.8 38.55 5.3 38.35 L4.75 42.25 3.2 55.35 Q2.85 58.15 8.8 59.65 L16.75 60.7 24.35 60.25 25.75 60.15 25.9 60.1 25.75 60.1 M16.5 32.8 L16.65 32.85 Q21.15 33.1 24.75 32.7 L33.9 31.15 Q32.9 31.35 33.25 30.65 L34.35 28.9 35.45 26.65 Q28.35 29.15 16.9 27.1 17.4 30.0 16.75 32.15 L16.5 32.8 M10.8 30.55 Q10.6 30.55 10.7 29.6 10.85 28.6 11.15 28.6 12.95 28.6 13.3 29.6 13.5 30.25 13.3 31.15 L12.7 32.5 Q12.05 33.45 11.15 33.3 10.1 33.2 9.85 31.3 9.7 30.7 10.0 29.95 10.35 29.25 10.4 29.65 10.6 30.95 11.3 31.3 11.9 31.55 12.55 31.0 12.1 30.55 10.8 30.55 M13.9 5.8 Q14.1 2.9 13.4 1.6 12.4 -0.3 9.3 3.0 6.9 5.5 5.95 7.45 1.95 15.1 1.95 21.9 1.95 30.65 4.85 37.35 L10.45 37.2 Q13.75 36.4 14.5 33.95 15.3 31.2 14.85 27.85 L13.5 21.9 Q12.95 19.4 13.1 16.0 L13.5 10.1 13.9 5.8 M12.0 6.1 Q11.5 5.65 10.25 5.65 10.0 5.65 10.15 4.65 10.3 3.65 10.6 3.7 12.4 3.7 12.75 4.7 12.95 5.35 12.75 6.2 L12.15 7.6 Q11.5 8.55 10.6 8.4 9.55 8.25 9.3 6.35 9.2 5.8 9.45 5.0 L9.6 4.65 Q9.8 4.45 9.85 4.75 10.05 6.1 10.75 6.4 11.4 6.6 12.0 6.1 M37.75 21.2 L39.15 18.45 39.55 17.45 38.3 17.5 Q33.45 17.45 27.7 14.15 21.8 10.85 15.55 5.6 L15.1 12.0 Q17.15 13.6 22.85 16.3 30.3 19.6 37.75 21.2"/><path fill="#ffffff" stroke="none" d="M37.75 21.2 Q30.3 19.6 22.85 16.3 17.15 13.6 15.1 12.0 L15.55 5.6 Q21.8 10.85 27.7 14.15 33.45 17.45 38.3 17.5 L39.55 17.45 39.15 18.45 37.75 21.2 M12.0 6.1 Q11.4 6.6 10.75 6.4 10.05 6.1 9.85 4.75 9.8 4.45 9.6 4.65 L9.45 5.0 Q9.2 5.8 9.3 6.35 9.55 8.25 10.6 8.4 11.5 8.55 12.15 7.6 L12.75 6.2 Q12.95 5.35 12.75 4.7 12.4 3.7 10.6 3.7 10.3 3.65 10.15 4.65 10.0 5.65 10.25 5.65 11.5 5.65 12.0 6.1 M13.9 5.8 L13.5 10.1 13.1 16.0 Q12.95 19.4 13.5 21.9 L14.85 27.85 Q15.3 31.2 14.5 33.95 13.75 36.4 10.45 37.2 L4.85 37.35 Q1.95 30.65 1.95 21.9 1.95 15.1 5.95 7.45 6.9 5.5 9.3 3.0 12.4 -0.3 13.4 1.6 14.1 2.9 13.9 5.8 M10.8 30.55 Q12.1 30.55 12.55 31.0 11.9 31.55 11.3 31.3 10.6 30.95 10.4 29.65 10.35 29.25 10.0 29.95 9.7 30.7 9.85 31.3 10.1 33.2 11.15 33.3 12.05 33.45 12.7 32.5 L13.3 31.15 Q13.5 30.25 13.3 29.6 12.95 28.6 11.15 28.6 10.85 28.6 10.7 29.6 10.6 30.55 10.8 30.55 M16.5 32.8 L16.75 32.15 Q17.4 30.0 16.9 27.1 28.35 29.15 35.45 26.65 L34.35 28.9 33.25 30.65 Q32.9 31.35 33.9 31.15 L24.75 32.7 Q21.15 33.1 16.65 32.85 L16.5 32.8 M25.75 60.15 L24.35 60.25 16.75 60.7 8.8 59.65 Q2.85 58.15 3.2 55.35 L4.75 42.25 5.3 38.35 Q11.8 38.55 14.95 35.25 18.2 41.05 22.7 44.0 L25.65 45.2 28.05 46.15 26.15 54.8 25.35 57.75 Q24.95 59.9 25.75 60.1 L25.75 60.15"/></g></defs><g><g><use transform="matrix(8.31167602539,0.0,0.0,8.31167602539,0.0,0.0)" xlink:href="#c236"/></g></g></svg>