<?xml version='1.0' encoding='UTF-8'?>
<svg xmlns:xlink="http://www.w3.org/1999/xlink" xmlns="http://www.w3.org/2000/svg" version="1.1" width="522px" height="522px" viewBox="-250.327655029 -240.449847412 521.877502441 521.877502441"><defs><g id="c152"><path fill="#ffffff" stroke="none" d="M-7.8 -5.4 Q-9.4 -8.9 -8.2 -10.1 -7.8 -10.5 -7.05 -10.6 L-5.4 -12.25 -6.65 -13.5 -8.85 -11.3 -9.55 -10.4 Q-10.7 -8.4 -8.9 -4.6 -7.1 -0.8 -3.15 3.1 0.9 7.2 4.8 8.95 8.65 10.7 10.6 9.35 L12.15 7.9 13.45 6.6 12.2 5.35 10.5 7.0 Q10.45 7.75 10.05 8.15 8.85 9.35 5.35 7.75 1.6 6.1 -2.25 2.25 -6.1 -1.65 -7.8 -5.4 M-14.1 -0.35 Q-16.15 -4.4 -15.35 -6.55 L-13.3 -9.95 Q-13.6 -7.75 -12.2 -4.7 -11.15 -2.35 -9.35 0.15 -7.5 2.7 -5.1 5.1 -2.75 7.45 -0.2 9.3 2.3 11.1 4.6 12.15 7.9 13.6 10.1 13.25 L6.55 15.25 Q4.4 16.15 0.3 14.05 -3.8 11.95 -7.9 7.9 -12.0 3.8 -14.1 -0.35 M4.85 -10.55 Q4.2 -11.9 4.55 -12.3 5.1 -12.8 6.85 -12.6 9.1 -12.4 10.7 -10.75 12.35 -9.15 12.55 -6.9 12.75 -5.1 12.2 -4.6 11.85 -4.2 10.5 -4.85 8.9 -5.6 7.25 -7.25 5.55 -8.95 4.85 -10.55 M3.6 -13.05 L3.45 -12.95 Q2.75 -11.85 3.75 -9.9 4.55 -8.15 6.3 -6.4 8.1 -4.6 9.9 -3.75 11.85 -2.85 12.9 -3.55 L13.05 -3.65 13.05 -3.6 13.2 -3.75 13.3 -3.2 13.7 3.85 12.75 4.8 14.05 6.15 14.65 6.1 Q15.0 6.15 15.2 6.4 15.55 6.7 15.55 7.15 L15.2 7.9 11.85 11.25 11.55 11.65 Q10.1 13.1 6.05 11.4 1.15 9.4 -4.45 3.8 -9.65 -1.4 -11.5 -6.35 -12.1 -7.9 -12.3 -9.3 L-12.35 -10.5 -11.7 -11.55 -11.3 -11.85 -7.9 -15.25 -7.2 -15.55 -6.4 -15.25 Q-5.95 -14.75 -6.15 -14.1 L-4.85 -12.75 -3.85 -13.75 3.6 -13.05"/></g></defs><g><g><use transform="matrix(16.4630126953,0.0,0.0,16.4630126953,15.55,15.55)" xlink:href="#c152"/></g></g></svg>