<?xml version='1.0' encoding='UTF-8'?>
<svg xmlns:xlink="http://www.w3.org/1999/xlink" xmlns="http://www.w3.org/2000/svg" version="1.1" width="381px" height="517px" viewBox="-167.554438782 -272.484503175 381.459240724 516.689668275"><defs><g id="c176"><path fill="#ffffff" stroke="none" d="M2.25 -4.6 Q3.2 -4.6 3.95 -5.3 4.65 -6.05 4.65 -7.05 4.65 -8.1 3.95 -8.8 3.2 -9.5 2.25 -9.5 1.2 -9.5 0.5 -8.8 -0.2 -8.1 -0.2 -7.05 -0.2 -6.05 0.5 -5.3 1.2 -4.6 2.25 -4.6 M12.05 -17.95 L12.3 -17.3 12.05 -16.7 8.85 -13.5 12.95 -13.5 12.95 -11.8 2.0 -0.85 2.0 11.0 Q2.0 12.15 3.0 12.15 L6.1 12.15 6.1 14.45 -4.65 14.45 -4.65 12.15 -1.5 12.15 Q-0.6 12.15 -0.6 11.0 L-0.6 -0.85 -11.45 -11.8 -11.45 -13.5 6.3 -13.5 10.75 -17.95 Q11.4 -18.6 12.05 -17.95"/></g></defs><g><g><use transform="matrix(15.6335754395,0.0,0.0,15.6335754395,11.45,18.3)" xlink:href="#c176"/></g></g></svg>