<?xml version='1.0' encoding='UTF-8'?>
<svg xmlns:xlink="http://www.w3.org/1999/xlink" xmlns="http://www.w3.org/2000/svg" version="1.1" width="363px" height="518px" viewBox="-2.23458251953 -4.46916503906 363.398982239 518.143821716"><defs><g id="c227"><path fill="#000000" fill-opacity="0.992156862745" d="M58.35 2.9 Q58.55 3.1 58.0 3.35 52.4 6.55 49.8 12.1 47.3 17.45 48.2 23.8 50.95 42.9 62.6 40.4 L62.9 40.35 63.15 40.45 Q64.65 48.65 62.85 59.3 L62.3 59.75 61.55 59.9 Q53.35 61.3 48.2 67.15 44.0 72.0 41.2 80.65 39.45 86.05 37.4 88.2 34.95 90.85 29.95 91.5 L29.9 91.5 Q26.75 91.95 23.9 91.0 21.1 90.0 19.4 87.85 L17.5 84.55 16.7 82.9 Q14.1 76.2 12.25 72.55 8.9 65.85 4.8 64.9 L4.75 64.85 Q1.8 53.15 0.2 40.55 -0.4 35.95 0.9 31.3 1.85 27.9 4.4 22.65 7.2 16.85 3.35 6.65 2.3 3.85 6.05 1.5 9.8 -0.8 11.15 2.4 L13.85 8.25 Q15.6 11.5 17.4 13.6 20.45 17.1 27.6 17.45 34.1 17.8 38.5 15.6 43.7 12.15 45.4 5.2 L46.0 3.0 Q46.45 1.95 47.5 1.15 49.95 -0.5 53.1 0.2 55.75 0.8 58.35 2.9 M55.95 3.2 Q53.85 1.75 51.45 1.15 48.1 0.35 47.7 2.8 L46.8 6.3 Q44.65 12.35 40.05 15.45 L39.7 15.7 Q31.45 19.85 19.35 16.85 15.95 16.05 13.05 11.15 11.85 9.15 9.25 3.05 8.25 0.65 6.4 2.35 4.55 4.1 5.25 6.0 7.9 13.4 7.45 17.75 7.2 20.4 5.15 24.55 2.9 29.1 2.45 31.2 1.4 36.3 2.65 43.1 L4.5 53.65 Q5.6 60.05 6.6 64.15 6.65 64.35 9.55 66.0 11.9 68.0 13.85 71.95 L17.1 79.2 19.7 84.55 20.65 86.3 Q23.4 91.1 29.55 90.85 L29.95 90.85 Q35.85 90.5 37.85 85.35 L40.55 77.45 Q42.2 72.8 44.15 69.9 47.6 64.7 55.3 61.45 58.6 60.1 60.05 59.7 L61.05 59.45 Q62.4 51.2 61.8 45.15 L61.8 42.45 Q61.65 41.3 60.4 41.35 L56.1 41.1 Q50.2 39.35 47.55 31.5 45.3 25.05 46.0 17.95 46.55 12.7 52.35 6.9 L55.75 3.95 56.6 3.45 55.95 3.2"/><path fill="#ffffff" stroke="none" d="M55.95 3.2 L56.6 3.45 55.75 3.95 52.35 6.9 Q46.55 12.7 46.0 17.95 45.3 25.05 47.55 31.5 50.2 39.35 56.1 41.1 L60.4 41.35 Q61.65 41.3 61.8 42.45 L61.8 45.15 Q62.4 51.2 61.05 59.45 L60.05 59.7 Q58.6 60.1 55.3 61.45 47.6 64.7 44.15 69.9 42.2 72.8 40.55 77.45 L37.85 85.35 Q35.85 90.5 29.95 90.85 L29.55 90.85 Q23.4 91.1 20.65 86.3 L19.7 84.55 17.1 79.2 13.85 71.95 Q11.9 68.0 9.55 66.0 6.65 64.35 6.6 64.15 5.6 60.05 4.5 53.65 L2.65 43.1 Q1.4 36.3 2.45 31.2 2.9 29.1 5.15 24.55 7.2 20.4 7.45 17.75 7.9 13.4 5.25 6.0 4.55 4.1 6.4 2.35 8.25 0.65 9.25 3.05 11.85 9.15 13.05 11.15 15.95 16.05 19.35 16.85 31.45 19.85 39.7 15.7 L40.05 15.45 Q44.65 12.35 46.8 6.3 L47.7 2.8 Q48.1 0.35 51.45 1.15 53.85 1.75 55.95 3.2"/></g></defs><g><g><use transform="matrix(5.58645629883,0.0,0.0,5.58645629883,0.0,0.0)" xlink:href="#c227"/></g></g></svg>