<?xml version="1.0" encoding="UTF-8" standalone="no"?>
<svg
   xmlns:dc="http://purl.org/dc/elements/1.1/"
   xmlns:cc="http://creativecommons.org/ns#"
   xmlns:rdf="http://www.w3.org/1999/02/22-rdf-syntax-ns#"
   xmlns:svg="http://www.w3.org/2000/svg"
   xmlns="http://www.w3.org/2000/svg"
   xmlns:xlink="http://www.w3.org/1999/xlink"
   xmlns:sodipodi="http://sodipodi.sourceforge.net/DTD/sodipodi-0.dtd"
   xmlns:inkscape="http://www.inkscape.org/namespaces/inkscape"
   version="1.1"
   width="512px"
   height="359px"
   viewBox="-240.649943543 -168.533348084 511.999887086 359.400572206"
   id="svg13"
   sodipodi:docname="icon_82.svg"
   inkscape:version="0.92.1 r15371">
  <metadata
     id="metadata17">
    <rdf:RDF>
      <cc:Work
         rdf:about="">
        <dc:format>image/svg+xml</dc:format>
        <dc:type
           rdf:resource="http://purl.org/dc/dcmitype/StillImage" />
      </cc:Work>
    </rdf:RDF>
  </metadata>
  <sodipodi:namedview
     pagecolor="#ffffff"
     bordercolor="#666666"
     borderopacity="1"
     objecttolerance="10"
     gridtolerance="10"
     guidetolerance="10"
     inkscape:pageopacity="0"
     inkscape:pageshadow="2"
     inkscape:window-width="836"
     inkscape:window-height="480"
     id="namedview15"
     showgrid="false"
     inkscape:zoom="0.65738162"
     inkscape:cx="256"
     inkscape:cy="179.5"
     inkscape:window-x="0"
     inkscape:window-y="0"
     inkscape:window-maximized="0"
     inkscape:current-layer="svg13" />
  <defs
     id="defs5">
    <g
       id="c82">
      <path
         fill="#ffffff"
         stroke="none"
         d="M15.2 -4.7 L15.15 -4.25 14.9 -3.85 12.25 -1.95 12.0 -1.55 11.95 -1.1 15.35 8.75 15.3 9.15 14.95 9.4 7.1 10.8 6.65 10.7 6.4 10.35 4.2 2.5 Q3.85 1.3 3.35 1.4 L0.1 1.8 Q-3.3 1.8 -4.85 -0.5 -5.85 -1.9 -6.0 -3.8 -6.0 -4.25 -7.15 -4.25 L-13.55 -4.25 -13.95 -4.4 -14.1 -4.8 -14.1 -6.3 -14.3 -6.7 -14.65 -6.9 -14.8 -6.9 -15.2 -7.05 -15.35 -7.45 -15.35 -10.2 -15.2 -10.6 -14.8 -10.75 12.7 -10.75 13.15 -10.6 13.45 -10.2 15.2 -4.7 M1.2 -4.25 Q1.5 -2.15 0.75 -0.95 L-0.1 -0.25 -0.9 -0.3 -0.6 -0.85 Q-0.3 -1.5 -0.35 -2.25 -0.4 -2.95 -1.35 -4.25 L-3.35 -4.25 -3.9 -4.15 -4.15 -3.75 Q-4.05 -1.55 -2.95 -0.4 -2.0 0.55 -0.5 0.55 L1.2 0.4 2.8 0.0 3.15 -0.6 3.2 -1.0 2.45 -3.7 2.15 -4.1 1.7 -4.25 1.2 -4.25"
         id="path2" />
    </g>
    <filter
       style="color-interpolation-filters:sRGB;"
       inkscape:label="Colorize"
       id="filter4509">
      <feComposite
         in2="SourceGraphic"
         operator="arithmetic"
         k1="0"
         k2="1"
         result="composite1"
         id="feComposite4495" />
      <feColorMatrix
         in="composite1"
         values="1"
         type="saturate"
         result="colormatrix1"
         id="feColorMatrix4497" />
      <feFlood
         flood-opacity="1"
         flood-color="rgb(0,255,0)"
         result="flood1"
         id="feFlood4499" />
      <feBlend
         in="flood1"
         in2="colormatrix1"
         mode="multiply"
         result="blend1"
         id="feBlend4501" />
      <feBlend
         in2="blend1"
         mode="screen"
         result="blend2"
         id="feBlend4503" />
      <feColorMatrix
         in="blend2"
         values="1"
         type="saturate"
         result="colormatrix2"
         id="feColorMatrix4505" />
      <feComposite
         in="colormatrix2"
         in2="SourceGraphic"
         operator="in"
         k2="1"
         result="composite2"
         id="feComposite4507" />
    </filter>
  </defs>
  <g
     id="g11"
     style="fill:#00ff00;filter:url(#filter4509)">
    <g
       id="g9"
       style="fill:#00ff00">
      <use
         transform="matrix(16.677521,0,0,16.677521,15.35,10.75)"
         xlink:href="#c82"
         id="use7"
         x="0"
         y="0"
         width="100%"
         height="100%"
         style="fill:#00ff00" />
    </g>
  </g>
</svg>
