<?xml version='1.0' encoding='UTF-8'?>
<svg xmlns:xlink="http://www.w3.org/1999/xlink" xmlns="http://www.w3.org/2000/svg" version="1.1" width="512px" height="402px" viewBox="-229.753318786 -188.78332138 511.999969482 401.919976043"><defs><g id="c178"><path fill="#ffffff" stroke="none" d="M-2.3 5.55 L-2.3 7.7 -8.55 7.7 -8.55 5.55 -2.3 5.55 M-8.55 3.65 L-8.55 1.55 -2.3 1.55 -2.3 3.65 -8.55 3.65 M-8.55 -6.55 L-2.3 -6.55 -2.3 -4.4 -8.55 -4.4 -8.55 -6.55 M-8.55 -0.35 L-8.55 -2.5 -2.3 -2.5 -2.3 -0.35 -8.55 -0.35 M0.0 -9.1 Q-1.45 -9.9 -3.9 -9.9 -5.2 -9.9 -6.8 -9.05 -8.1 -8.3 -9.0 -8.35 L-11.6 -8.6 -11.6 9.95 0.0 9.95 0.0 -9.1 M4.05 7.7 L4.05 5.55 10.3 5.55 10.3 7.7 4.05 7.7 M10.3 1.55 L10.3 3.65 4.05 3.65 4.05 1.55 10.3 1.55 M4.05 -6.55 L10.3 -6.55 10.3 0.05 4.05 0.05 4.05 -6.55 M10.4 -8.35 Q9.45 -8.3 8.2 -9.05 6.5 -9.9 5.25 -9.9 2.8 -9.9 1.35 -9.1 L1.35 9.95 13.0 9.95 13.0 -8.6 10.4 -8.35 M0.7 -10.7 Q2.35 -11.75 5.75 -11.75 7.55 -11.75 9.65 -10.65 10.85 -10.05 11.35 -10.1 L11.45 -10.1 14.75 -10.55 15.4 -10.45 15.7 -9.9 15.7 11.1 Q15.7 11.8 14.95 11.8 L-13.6 11.8 Q-14.3 11.8 -14.3 11.1 L-14.3 -9.9 -14.0 -10.45 -13.35 -10.55 -10.1 -10.1 -10.0 -10.1 Q-9.4 -10.05 -8.3 -10.65 -6.2 -11.75 -4.35 -11.75 -0.95 -11.75 0.7 -10.7"/></g></defs><g><g><use transform="matrix(17.0666656494,0.0,0.0,17.0666656494,14.3,11.75)" xlink:href="#c178"/></g></g></svg>