<?xml version='1.0' encoding='UTF-8'?>
<svg xmlns:xlink="http://www.w3.org/1999/xlink" xmlns="http://www.w3.org/2000/svg" version="1.1" width="367px" height="537px" viewBox="0.0 -21.0920516968 367.249841309 537.226963806"><defs><g id="c239"><path fill="#000000" fill-opacity="0.992156862745" d="M42.35 21.15 Q44.4 29.4 40.85 34.9 L41.15 35.65 42.85 56.15 42.9 57.9 41.65 58.95 Q37.3 61.25 31.45 61.8 24.4 62.4 19.65 59.8 L19.6 59.8 19.6 59.75 19.55 59.75 14.3 44.3 Q14.2 44.05 15.4 43.65 17.85 43.1 20.3 39.2 L20.15 39.05 Q18.25 37.3 17.4 33.9 12.25 32.1 7.7 29.4 7.25 29.15 6.8 27.95 L6.15 26.2 4.15 21.65 4.05 21.05 4.05 20.95 4.15 20.75 Q9.35 24.45 16.65 26.15 L16.7 24.7 16.95 17.05 Q10.7 19.2 4.55 17.65 L3.3 17.4 2.3 16.75 0.2 12.6 0.0 11.95 0.05 11.6 Q9.45 11.9 18.35 6.85 L18.55 6.15 Q19.15 3.85 20.1 2.6 21.2 1.1 23.15 0.4 L23.6 0.3 23.65 0.3 Q36.75 -2.55 42.35 21.15 M39.15 37.0 Q36.35 39.7 31.9 40.95 25.5 42.65 21.5 40.1 19.1 42.9 16.25 43.95 L21.4 59.05 Q24.35 60.65 28.45 60.9 L35.7 60.3 40.1 59.25 Q41.1 58.65 40.9 56.2 L39.45 38.15 39.15 37.0 M22.25 34.5 L22.65 34.25 Q23.5 33.9 23.85 34.05 26.35 34.9 25.65 37.15 25.55 37.45 24.85 37.7 L23.85 37.8 Q22.7 37.45 22.3 36.0 22.25 35.7 23.15 35.4 L22.1 34.8 Q21.9 34.75 22.25 34.5 M17.1 32.7 Q16.65 30.0 16.65 27.25 9.7 25.5 4.85 22.25 L7.3 27.8 7.6 28.4 8.35 28.75 12.7 30.9 17.1 32.7 M0.75 12.75 Q2.15 15.9 2.7 16.05 7.3 17.55 11.95 17.0 L17.0 15.8 Q17.35 11.6 18.0 8.4 9.5 12.95 0.75 12.75 M39.2 17.65 Q36.4 9.4 33.9 5.85 29.5 -0.25 23.15 0.95 21.1 1.8 20.2 5.9 19.95 6.85 19.4 11.75 18.5 20.75 18.55 25.4 18.7 32.9 21.15 36.8 24.4 41.9 31.45 40.45 39.35 38.85 40.8 31.45 41.9 25.75 39.2 17.65 M22.4 11.15 L22.25 9.9 22.1 10.7 22.35 11.4 22.4 11.15 M23.2 8.65 Q23.65 8.35 23.7 8.55 24.1 10.15 23.65 11.15 23.05 12.45 21.65 13.2 L21.3 13.25 Q20.6 12.55 20.6 11.9 20.6 11.55 20.95 10.5 21.15 9.9 21.9 9.5 L22.4 9.3 23.2 8.65"/><path fill="#ffffff" stroke="none" d="M23.2 8.65 L22.4 9.3 21.9 9.5 Q21.15 9.9 20.95 10.5 20.6 11.55 20.6 11.9 20.6 12.55 21.3 13.25 L21.65 13.2 Q23.05 12.45 23.65 11.15 24.1 10.15 23.7 8.55 23.65 8.35 23.2 8.65 M22.4 11.15 L22.35 11.4 22.1 10.7 22.25 9.9 22.4 11.15 M39.2 17.65 Q41.9 25.75 40.8 31.45 39.35 38.85 31.45 40.45 24.4 41.9 21.15 36.8 18.7 32.9 18.55 25.4 18.5 20.75 19.4 11.75 19.95 6.85 20.2 5.9 21.1 1.8 23.15 0.95 29.5 -0.25 33.9 5.85 36.4 9.4 39.2 17.65 M0.75 12.75 Q9.5 12.95 18.0 8.4 17.35 11.6 17.0 15.8 L11.95 17.0 Q7.3 17.55 2.7 16.05 2.15 15.9 0.75 12.75 M17.1 32.7 L12.7 30.9 8.35 28.75 7.6 28.4 7.3 27.8 4.85 22.25 Q9.7 25.5 16.65 27.25 16.65 30.0 17.1 32.7 M22.25 34.5 Q21.9 34.75 22.1 34.8 L23.15 35.4 Q22.25 35.7 22.3 36.0 22.7 37.45 23.85 37.8 L24.85 37.7 Q25.55 37.45 25.65 37.15 26.35 34.9 23.85 34.05 23.5 33.9 22.65 34.25 L22.25 34.5 M39.15 37.0 L39.45 38.15 40.9 56.2 Q41.1 58.65 40.1 59.25 L35.7 60.3 28.45 60.9 Q24.35 60.65 21.4 59.05 L16.25 43.95 Q19.1 42.9 21.5 40.1 25.5 42.65 31.9 40.95 36.35 39.7 39.15 37.0"/></g></defs><g><g><use transform="matrix(8.27139282227,0.0,0.0,8.27139282227,0.0,0.0)" xlink:href="#c239"/></g></g></svg>