<?xml version='1.0' encoding='UTF-8'?>
<svg xmlns:xlink="http://www.w3.org/1999/xlink" xmlns="http://www.w3.org/2000/svg" version="1.1" width="512px" height="432px" viewBox="-234.843104554 -198.850038148 511.999382021 432.286903383"><defs><g id="c104"><path fill="#ffffff" stroke="none" d="M1.95 -17.05 Q2.45 -17.55 3.15 -17.6 3.85 -17.65 4.3 -17.15 L5.85 -15.6 Q6.25 -15.15 6.25 -14.5 6.2 -13.85 5.75 -13.35 L6.75 -12.95 7.6 -13.4 7.95 -13.6 9.1 -12.45 9.15 -12.45 9.5 -12.15 10.6 -10.85 10.4 -10.5 9.85 -9.7 10.05 -9.15 11.35 -9.5 12.5 -9.05 20.3 -2.3 Q20.9 -1.8 20.9 -1.1 20.9 -0.4 20.4 0.2 L15.4 4.95 Q14.9 5.55 14.15 5.5 L12.95 4.85 6.45 -3.1 Q6.0 -3.7 6.0 -4.5 6.05 -5.3 6.65 -5.8 L6.65 -5.85 6.3 -6.0 1.25 -1.3 2.5 1.3 Q2.85 2.0 3.05 3.7 L2.2 3.8 1.7 1.6 0.6 -0.65 0.05 -0.15 Q0.5 1.25 -0.25 1.75 L-2.0 1.85 -3.4 1.25 -3.55 1.1 -4.6 -0.75 -5.15 -2.5 Q-5.25 -2.75 -4.95 -3.05 L-4.25 -3.25 -3.35 -3.15 -2.9 -3.55 -4.2 -4.25 -6.2 -4.0 Q-6.85 -3.75 -6.95 -3.1 L-6.9 -2.3 -6.65 -1.5 -6.7 -1.55 -6.25 -0.25 -7.1 0.2 -7.75 -1.85 -8.3 -1.75 Q-8.65 -1.55 -8.5 -0.75 L-8.45 -0.2 -8.15 0.7 -8.6 1.5 -8.75 1.35 -9.4 -0.25 -9.95 0.0 Q-10.15 0.25 -10.0 0.85 L-9.75 1.8 -9.5 2.4 -10.0 3.15 -10.15 3.05 -10.75 1.6 -11.15 1.95 -11.1 2.45 -10.7 3.15 -9.6 5.25 -8.4 6.65 -4.5 8.0 Q-3.75 8.25 -3.3 8.85 L-2.95 9.35 -3.8 9.7 -4.0 9.35 Q-4.3 9.05 -4.85 8.85 L-5.6 8.6 -5.75 10.15 Q-6.0 10.9 -6.65 11.2 L-7.85 11.5 Q-7.8 12.15 -8.15 12.5 -8.6 13.05 -9.5 13.05 -9.55 13.75 -9.95 14.15 -10.45 14.65 -11.2 14.6 L-12.2 15.55 -13.5 15.5 -14.9 14.75 -17.15 16.95 Q-17.8 17.6 -18.65 17.6 -19.55 17.6 -20.2 16.95 -20.85 16.3 -20.85 15.4 -20.85 14.5 -20.2 13.95 L-18.2 11.95 -19.5 8.4 Q-19.6 7.85 -19.95 7.6 L-20.25 7.4 -19.95 6.5 -19.4 6.9 Q-18.9 7.35 -18.6 8.15 L-17.2 11.95 Q-16.9 12.75 -13.75 14.3 L-13.1 14.65 -12.5 14.7 -12.2 14.4 Q-13.3 14.05 -13.6 13.75 L-13.75 13.6 -12.95 13.1 -12.45 13.35 -11.4 13.6 -10.6 13.5 -10.4 13.05 Q-11.5 12.85 -11.95 12.4 L-12.05 12.2 -11.3 11.75 -10.4 12.05 -9.85 12.15 -8.85 11.95 -8.75 11.3 Q-10.2 11.05 -10.75 10.65 L-10.3 9.85 -9.1 10.3 -9.1 10.25 -8.25 10.5 -7.55 10.6 Q-6.85 10.45 -6.6 9.8 L-6.5 8.25 -7.1 8.05 Q-7.15 8.65 -7.35 8.9 -7.55 9.15 -7.85 9.1 L-9.75 8.3 Q-11.2 7.7 -11.75 7.1 L-11.85 7.05 -12.3 5.6 Q-12.45 4.65 -12.15 4.0 -11.95 3.7 -11.55 3.5 L-11.85 2.9 Q-12.15 2.4 -12.05 1.95 L-14.45 1.4 -14.3 0.5 -11.6 1.1 -10.95 0.65 Q-11.05 -0.2 -10.6 -0.65 -10.2 -1.05 -9.5 -1.15 -9.4 -2.0 -8.9 -2.45 L-7.85 -2.75 -7.6 -3.95 Q-7.3 -4.6 -6.5 -4.9 L-4.15 -5.15 -4.0 -5.15 -2.2 -4.2 2.9 -9.4 2.65 -10.3 Q2.15 -9.95 1.5 -9.95 0.85 -9.95 0.45 -10.4 L-1.1 -11.95 Q-1.55 -12.4 -1.5 -13.1 -1.4 -13.8 -0.85 -14.3 L1.95 -17.05"/></g></defs><g><g><use transform="matrix(12.263458252,0.0,0.0,12.263458252,20.85,17.6)" xlink:href="#c104"/></g></g></svg>