<?xml version="1.0" encoding="UTF-8" standalone="no"?>
<svg
   xmlns:dc="http://purl.org/dc/elements/1.1/"
   xmlns:cc="http://creativecommons.org/ns#"
   xmlns:rdf="http://www.w3.org/1999/02/22-rdf-syntax-ns#"
   xmlns:svg="http://www.w3.org/2000/svg"
   xmlns="http://www.w3.org/2000/svg"
   xmlns:sodipodi="http://sodipodi.sourceforge.net/DTD/sodipodi-0.dtd"
   xmlns:inkscape="http://www.inkscape.org/namespaces/inkscape"
   width="127pt"
   height="90pt"
   viewBox="0 0 127 90"
   version="1.1"
   id="svg5"
   sodipodi:docname="icon_54.svg"
   inkscape:version="0.92.1 r15371">
  <metadata
     id="metadata11">
    <rdf:RDF>
      <cc:Work
         rdf:about="">
        <dc:format>image/svg+xml</dc:format>
        <dc:type
           rdf:resource="http://purl.org/dc/dcmitype/StillImage" />
      </cc:Work>
    </rdf:RDF>
  </metadata>
  <defs
     id="defs9" />
  <sodipodi:namedview
     pagecolor="#ffffff"
     bordercolor="#666666"
     borderopacity="1"
     objecttolerance="10"
     gridtolerance="10"
     guidetolerance="10"
     inkscape:pageopacity="0"
     inkscape:pageshadow="2"
     inkscape:window-width="836"
     inkscape:window-height="480"
     id="namedview7"
     showgrid="false"
     inkscape:zoom="1.9666667"
     inkscape:cx="84.666667"
     inkscape:cy="60"
     inkscape:window-x="0"
     inkscape:window-y="0"
     inkscape:window-maximized="0"
     inkscape:current-layer="svg5" />
  <g
     id="surface1"
     style="fill:#00ff00">
    <path
       style="stroke:none;fill-rule:nonzero;fill:#00ff00;fill-opacity:1"
       d="M 110.363281 19.027344 L 111.203125 20.503906 L 114.574219 29.585938 L 115.835938 38.875 L 115.835938 50.066406 C 115.835938 52.742188 116.539062 55.699219 117.945312 58.9375 C 119.488281 62.035156 121.242188 64.425781 123.207031 66.117188 L 123.839844 66.75 C 125.945312 68.441406 126.929688 70.480469 126.789062 72.875 C 126.648438 75.269531 125.457031 77.238281 123.207031 78.785156 L 115.625 84.277344 C 113.519531 85.824219 110.710938 87.234375 107.203125 88.5 L 98.144531 89.980469 L 80.875 89.980469 L 72.03125 87.867188 C 68.941406 86.460938 66.484375 84.769531 64.660156 82.800781 L 56.023438 73.507812 C 54.199219 71.535156 51.742188 69.917969 48.652344 68.652344 C 45.421875 67.242188 42.472656 66.539062 39.804688 66.539062 L 18.535156 66.539062 L 9.898438 65.695312 L 2.527344 63.582031 C 0.84375 62.738281 0.210938 61.542969 0.632812 59.992188 L 4.84375 55.769531 L 5.054688 55.769531 L 11.582031 49.644531 C 13.832031 46.972656 15.304688 44.367188 16.007812 41.832031 L 20.851562 24.09375 L 25.0625 15.859375 L 31.171875 9.101562 L 35.382812 5.933594 C 37.488281 4.246094 40.296875 2.835938 43.808594 1.710938 L 52.863281 0.0195312 L 80.242188 0.0195312 L 89.511719 1.5 C 93.019531 2.625 95.828125 3.890625 97.933594 5.300781 L 104.675781 11.425781 L 110.363281 19.027344 "
       id="path2" />
  </g>
</svg>
