<?xml version="1.0" encoding="UTF-8" standalone="no"?>
<svg
   xmlns:dc="http://purl.org/dc/elements/1.1/"
   xmlns:cc="http://creativecommons.org/ns#"
   xmlns:rdf="http://www.w3.org/1999/02/22-rdf-syntax-ns#"
   xmlns:svg="http://www.w3.org/2000/svg"
   xmlns="http://www.w3.org/2000/svg"
   xmlns:sodipodi="http://sodipodi.sourceforge.net/DTD/sodipodi-0.dtd"
   xmlns:inkscape="http://www.inkscape.org/namespaces/inkscape"
   width="128pt"
   height="159pt"
   viewBox="0 0 128 159"
   version="1.1"
   id="svg5"
   sodipodi:docname="icon_14.svg"
   inkscape:version="0.92.1 r15371">
  <metadata
     id="metadata11">
    <rdf:RDF>
      <cc:Work
         rdf:about="">
        <dc:format>image/svg+xml</dc:format>
        <dc:type
           rdf:resource="http://purl.org/dc/dcmitype/StillImage" />
      </cc:Work>
    </rdf:RDF>
  </metadata>
  <defs
     id="defs9" />
  <sodipodi:namedview
     pagecolor="#ffffff"
     bordercolor="#666666"
     borderopacity="1"
     objecttolerance="10"
     gridtolerance="10"
     guidetolerance="10"
     inkscape:pageopacity="0"
     inkscape:pageshadow="2"
     inkscape:window-width="1366"
     inkscape:window-height="685"
     id="namedview7"
     showgrid="false"
     inkscape:zoom="1.1132075"
     inkscape:cx="-97.022599"
     inkscape:cy="106"
     inkscape:window-x="0"
     inkscape:window-y="0"
     inkscape:window-maximized="1"
     inkscape:current-layer="svg5" />
  <g
     id="surface1"
     style="fill:#00ff00">
    <path
       style="stroke:none;fill-rule:nonzero;fill:#00ff00;fill-opacity:1"
       d="M 12.359375 68.027344 L 57.820312 68.027344 L 57.820312 11.996094 L 12.359375 11.996094 L 12.359375 68.027344 M 115.199219 105.53125 L 115.199219 79.5 L 70.179688 79.5 L 70.179688 143.914062 C 81.359375 139.207031 90.777344 133.621094 98.425781 127.148438 C 108.726562 120.089844 114.316406 112.882812 115.199219 105.53125 M 124.46875 3.613281 C 126.824219 4.792969 128 6.996094 128 10.234375 L 128 105.089844 L 127.117188 107.734375 C 125.351562 119.796875 115.789062 131.414062 98.425781 142.589844 C 89.011719 149.0625 79.152344 154.207031 68.855469 158.03125 L 64 158.914062 L 60.027344 158.03125 L 29.574219 142.589844 C 12.210938 131.414062 2.355469 119.796875 0 107.734375 L 0 10.234375 C 0 6.996094 1.175781 4.792969 3.53125 3.613281 C 5.296875 1.261719 7.945312 0.0859375 11.476562 0.0859375 L 116.964844 0.0859375 C 119.613281 0.0859375 122.113281 1.261719 124.46875 3.613281 "
       id="path2" />
  </g>
</svg>
