<?xml version="1.0" encoding="UTF-8" standalone="no"?>
<svg
   xmlns:dc="http://purl.org/dc/elements/1.1/"
   xmlns:cc="http://creativecommons.org/ns#"
   xmlns:rdf="http://www.w3.org/1999/02/22-rdf-syntax-ns#"
   xmlns:svg="http://www.w3.org/2000/svg"
   xmlns="http://www.w3.org/2000/svg"
   xmlns:sodipodi="http://sodipodi.sourceforge.net/DTD/sodipodi-0.dtd"
   xmlns:inkscape="http://www.inkscape.org/namespaces/inkscape"
   width="128pt"
   height="90pt"
   viewBox="0 0 128 90"
   version="1.1"
   id="svg5"
   sodipodi:docname="icon_52.svg"
   inkscape:version="0.92.1 r15371">
  <metadata
     id="metadata11">
    <rdf:RDF>
      <cc:Work
         rdf:about="">
        <dc:format>image/svg+xml</dc:format>
        <dc:type
           rdf:resource="http://purl.org/dc/dcmitype/StillImage" />
      </cc:Work>
    </rdf:RDF>
  </metadata>
  <defs
     id="defs9" />
  <sodipodi:namedview
     pagecolor="#ffffff"
     bordercolor="#666666"
     borderopacity="1"
     objecttolerance="10"
     gridtolerance="10"
     guidetolerance="10"
     inkscape:pageopacity="0"
     inkscape:pageshadow="2"
     inkscape:window-width="836"
     inkscape:window-height="480"
     id="namedview7"
     showgrid="false"
     inkscape:zoom="1.9666667"
     inkscape:cx="85.333333"
     inkscape:cy="60"
     inkscape:window-x="0"
     inkscape:window-y="0"
     inkscape:window-maximized="0"
     inkscape:current-layer="svg5" />
  <g
     id="surface1"
     style="fill:#00ff00">
    <path
       style="stroke:none;fill-rule:nonzero;fill:#00ff00;fill-opacity:1"
       d="M 120.066406 2.136719 L 127.316406 25.226562 L 127.101562 27.148438 L 126.035156 28.644531 L 115.164062 36.769531 L 114.097656 38.265625 L 114.097656 40.402344 L 127.953125 81.449219 L 127.742188 83.160156 L 126.460938 84.226562 L 93.632812 90 L 91.714844 89.574219 L 90.648438 88.074219 L 81.480469 55.367188 C 80.628906 51.949219 79.492188 50.378906 78.070312 50.664062 L 64.425781 52.375 C 55.1875 52.375 48.367188 49.167969 43.960938 42.753906 C 41.117188 38.90625 39.484375 34.277344 39.058594 28.859375 C 39.058594 27.71875 37.421875 27.148438 34.15625 27.148438 L 7.507812 26.9375 L 5.800781 26.507812 L 5.375 24.796875 L 5.375 18.386719 L 4.523438 16.886719 L 2.816406 16.035156 L 2.390625 16.035156 L 0.683594 15.605469 L 0.046875 13.894531 L 0.046875 2.351562 L 0.683594 0.640625 L 2.390625 0 L 117.082031 0 L 119 0.640625 L 120.066406 2.136719 M 75.511719 44.679688 C 76.933594 44.25 77.5 42.96875 77.21875 40.832031 L 74.234375 29.289062 L 72.953125 27.789062 L 71.035156 26.9375 L 69.117188 26.9375 C 69.96875 32.921875 69.328125 37.554688 67.199219 40.832031 L 63.574219 44.039062 L 60.164062 43.609375 C 60.730469 43.039062 61.15625 42.257812 61.441406 41.257812 C 62.4375 39.40625 62.863281 37.480469 62.722656 35.488281 C 62.578125 33.347656 61.085938 30.5 58.242188 26.9375 L 50.144531 26.9375 C 47.871094 26.9375 46.730469 27.71875 46.730469 29.289062 C 47.015625 35.273438 48.722656 39.832031 51.847656 42.96875 C 54.550781 45.675781 57.960938 47.03125 62.082031 47.03125 C 67.199219 47.03125 71.675781 46.246094 75.511719 44.679688 "
       id="path2" />
  </g>
</svg>
