<?xml version="1.0" encoding="UTF-8" standalone="no"?>
<svg
   xmlns:dc="http://purl.org/dc/elements/1.1/"
   xmlns:cc="http://creativecommons.org/ns#"
   xmlns:rdf="http://www.w3.org/1999/02/22-rdf-syntax-ns#"
   xmlns:svg="http://www.w3.org/2000/svg"
   xmlns="http://www.w3.org/2000/svg"
   xmlns:sodipodi="http://sodipodi.sourceforge.net/DTD/sodipodi-0.dtd"
   xmlns:inkscape="http://www.inkscape.org/namespaces/inkscape"
   width="128pt"
   height="128pt"
   viewBox="0 0 128 128"
   version="1.1"
   id="svg5"
   sodipodi:docname="icon_26.svg"
   inkscape:version="0.92.1 r15371">
  <metadata
     id="metadata11">
    <rdf:RDF>
      <cc:Work
         rdf:about="">
        <dc:format>image/svg+xml</dc:format>
        <dc:type
           rdf:resource="http://purl.org/dc/dcmitype/StillImage" />
      </cc:Work>
    </rdf:RDF>
  </metadata>
  <defs
     id="defs9" />
  <sodipodi:namedview
     pagecolor="#ffffff"
     bordercolor="#666666"
     borderopacity="1"
     objecttolerance="10"
     gridtolerance="10"
     guidetolerance="10"
     inkscape:pageopacity="0"
     inkscape:pageshadow="2"
     inkscape:window-width="836"
     inkscape:window-height="480"
     id="namedview7"
     showgrid="false"
     inkscape:zoom="1.3828125"
     inkscape:cx="85.333333"
     inkscape:cy="85.333333"
     inkscape:window-x="0"
     inkscape:window-y="0"
     inkscape:window-maximized="0"
     inkscape:current-layer="svg5" />
  <g
     id="surface1"
     style="fill:#00ff00">
    <path
       style="stroke:none;fill-rule:nonzero;fill:#00ff00;fill-opacity:1"
       d="M 89.8125 37.761719 C 83.699219 31.644531 76.300781 28.160156 67.625 27.308594 L 67.625 36.691406 L 66.558594 39.464844 L 64 40.320312 L 61.226562 39.464844 L 60.160156 36.691406 L 60.160156 27.308594 C 51.484375 28.160156 44.019531 31.644531 37.761719 37.761719 C 31.644531 44.019531 28.160156 51.484375 27.308594 60.160156 L 35.839844 60.160156 L 38.613281 61.226562 L 39.679688 64 L 38.613281 66.558594 L 35.839844 67.625 L 27.308594 67.625 C 28.160156 76.300781 31.644531 83.769531 37.761719 90.027344 C 44.019531 96.140625 51.484375 99.625 60.160156 100.480469 L 60.160156 91.09375 L 61.226562 88.535156 C 61.9375 87.679688 62.863281 87.253906 64 87.253906 C 64.996094 87.253906 65.847656 87.679688 66.558594 88.535156 L 67.625 91.09375 L 67.625 100.480469 C 76.300781 99.625 83.699219 96.140625 89.8125 90.027344 C 96.070312 83.769531 99.625 76.300781 100.480469 67.625 L 91.09375 67.625 L 88.535156 66.558594 C 87.679688 65.847656 87.253906 64.996094 87.253906 64 C 87.253906 62.863281 87.679688 61.9375 88.535156 61.226562 L 91.09375 60.160156 L 100.480469 60.160156 C 99.625 51.484375 96.070312 44.019531 89.8125 37.761719 M 66.558594 1.066406 L 67.625 3.625 L 67.625 19.625 C 78.4375 20.621094 87.609375 24.960938 95.148438 32.640625 C 102.828125 40.179688 107.09375 49.351562 107.945312 60.160156 L 124.160156 60.160156 L 126.71875 61.226562 L 128 64 L 126.71875 66.558594 L 124.160156 67.625 L 107.945312 67.625 C 107.09375 78.4375 102.828125 87.609375 95.148438 95.148438 C 87.609375 102.828125 78.4375 107.09375 67.625 107.945312 L 67.625 124.160156 L 66.558594 126.71875 L 64 128 C 62.863281 128 61.9375 127.574219 61.226562 126.71875 L 60.160156 124.160156 L 60.160156 107.945312 C 49.351562 107.09375 40.105469 102.828125 32.425781 95.148438 C 24.890625 87.609375 20.621094 78.4375 19.625 67.625 L 3.625 67.625 L 1.066406 66.558594 L 0 64 L 1.066406 61.226562 L 3.625 60.160156 L 19.625 60.160156 C 20.621094 49.351562 24.890625 40.179688 32.425781 32.640625 C 40.105469 24.960938 49.351562 20.621094 60.160156 19.625 L 60.160156 3.625 L 61.226562 1.066406 L 64 0 L 66.558594 1.066406 "
       id="path2" />
  </g>
</svg>
