<?xml version="1.0" encoding="UTF-8" standalone="no"?>
<svg
   xmlns:dc="http://purl.org/dc/elements/1.1/"
   xmlns:cc="http://creativecommons.org/ns#"
   xmlns:rdf="http://www.w3.org/1999/02/22-rdf-syntax-ns#"
   xmlns:svg="http://www.w3.org/2000/svg"
   xmlns="http://www.w3.org/2000/svg"
   xmlns:sodipodi="http://sodipodi.sourceforge.net/DTD/sodipodi-0.dtd"
   xmlns:inkscape="http://www.inkscape.org/namespaces/inkscape"
   width="128pt"
   height="121pt"
   viewBox="0 0 128 121"
   version="1.1"
   id="svg5"
   sodipodi:docname="city_wrecked.svg"
   inkscape:version="0.92.1 r15371">
  <metadata
     id="metadata11">
    <rdf:RDF>
      <cc:Work
         rdf:about="">
        <dc:format>image/svg+xml</dc:format>
        <dc:type
           rdf:resource="http://purl.org/dc/dcmitype/StillImage" />
      </cc:Work>
    </rdf:RDF>
  </metadata>
  <defs
     id="defs9" />
  <sodipodi:namedview
     pagecolor="#ffffff"
     bordercolor="#666666"
     borderopacity="1"
     objecttolerance="10"
     gridtolerance="10"
     guidetolerance="10"
     inkscape:pageopacity="0"
     inkscape:pageshadow="2"
     inkscape:window-width="836"
     inkscape:window-height="480"
     id="namedview7"
     showgrid="false"
     inkscape:zoom="1.4628099"
     inkscape:cx="85.333333"
     inkscape:cy="80.666667"
     inkscape:window-x="0"
     inkscape:window-y="0"
     inkscape:window-maximized="0"
     inkscape:current-layer="surface1" />
  <g
     id="surface1">
    <path
       style="fill:#00ff00;fill-opacity:1;fill-rule:nonzero;stroke:none"
       d="m 84.828125,27.378906 4.695313,2.945313 -5.867188,7.359375 5.867188,22.375 -6.75,6.183594 V 51.226562 L 77.789062,50.046875 66.054688,36.800781 64.292969,26.789062 70.160156,21.195312 62.53125,10.597656 51.972656,25.023438 50.796875,7.066406 27.917969,15.601562 28.210938,21.195312 46.105469,15.898438 47.277344,31.5 36.128906,46.515625 h 6.164063 v 8.539063 L 31.730469,64.472656 34.371094,78.3125 26.15625,82.726562 18.527344,76.25 8.261719,85.671875 h 6.453125 V 113.93359 H 120.91406 V 84.492188 h -10.26953 v 6.183593 H 103.3125 V 75.660156 h 7.33203 l 3.22656,-13.835937 -12.90625,-12.363281 -5.281246,5.003906 -4.105469,-15.015625 4.105469,-5.003907 14.082036,8.832032 3.8125,-6.183594 -13.4961,-8.535156 9.97656,-12.957032 L 104.48438,11.1875 93.921875,24.433594 88.9375,21.195312 84.828125,27.378906 M 108.58984,5.59375 l 5.86719,4.414062 2.64063,4.710938 c 0.39062,1.964844 -0.0977,3.730469 -1.46485,5.300781 l -5.28125,6.769531 7.03907,4.710938 2.93359,4.417969 -0.87891,5.296875 -4.10547,6.183594 -3.52343,2.648437 7.04297,6.480469 c 1.95703,1.960937 2.54296,4.21875 1.76171,6.769531 l -2.93359,13.835937 v 0.296876 h 3.22656 c 1.95313,0 3.61719,0.683593 4.98438,2.058593 1.37109,1.375 2.05469,3.042969 2.05469,5.003907 v 29.441402 l -2.05469,5.00391 C 124.53125,120.3125 122.86719,121 120.91406,121 H 14.714844 c -2.152344,0 -3.910156,-0.6875 -5.28125,-2.0625 L 7.675781,113.93359 V 92.738281 C 4.742188,92.34375 2.785156,90.773438 1.808594,88.027344 0.632812,85.082031 1.21875,82.53125 3.566406,80.371094 l 10.5625,-9.417969 c 1.367188,-1.179687 2.835938,-1.769531 4.398438,-1.769531 1.957031,0 3.523437,0.589844 4.695312,1.769531 l 3.226563,2.351563 -1.464844,-7.359376 c -0.589844,-2.746093 0.09766,-5.003906 2.050781,-6.769531 l 7.042969,-5.890625 c -1.957031,-0.78125 -3.324219,-1.960937 -4.109375,-3.53125 -1.171875,-2.746094 -0.976562,-5.199218 0.585938,-7.359375 l 9.683593,-12.953125 -0.585937,-4.121094 -9.390625,2.648438 -2.050781,0.292969 -3.816407,-1.175781 c -1.757812,-1.375 -2.835937,-3.140626 -3.226562,-5.300782 L 20.875,15.898438 c -0.390625,-3.535157 1.175781,-5.890626 4.695312,-7.066407 L 48.453125,0.589844 50.796875,0 54.613281,1.472656 c 1.757813,0.980469 2.835938,2.453125 3.226563,4.414063 1.171875,-1.570313 2.738281,-2.355469 4.691406,-2.355469 2.347656,0 4.304688,1.082031 5.871094,3.238281 l 7.332031,10.011719 1.46875,5.003906 c 0,1.765625 -0.6875,3.238282 -2.054687,4.417969 l -3.226563,2.941406 0.878906,4.417969 3.8125,4.710938 1.46875,-4.710938 1.171875,-1.472656 v -0.292969 c -2.148437,-2.554687 -2.25,-5.300781 -0.292968,-8.246094 l 3.8125,-6.179687 c 1.566406,-2.160156 3.621093,-3.238282 6.164062,-3.238282 l 3.519531,0.882813 6.160157,-8.246094 c 1.171874,-1.570312 2.835942,-2.453125 4.988282,-2.648437 h 0.87891 l 4.10546,1.472656"
       id="path2"
       inkscape:connector-curvature="0" />
  </g>
</svg>
