<?xml version="1.0" encoding="UTF-8"?>
<svg xmlns="http://www.w3.org/2000/svg" xmlns:xlink="http://www.w3.org/1999/xlink" width="128pt" height="162pt" viewBox="0 0 128 162" version="1.1">
<g id="surface1">
<path style=" stroke:none;fill-rule:nonzero;fill:rgb(100%,100%,100%);fill-opacity:1;" d="M 31.246094 119.886719 L 30.867188 122.542969 L 31.246094 122.542969 L 31.246094 119.886719 M 84.945312 61.082031 L 94.085938 61.082031 L 95.609375 66.394531 L 104.75 121.785156 C 105.257812 124.566406 104.625 126.84375 102.847656 128.613281 C 101.578125 130.382812 99.546875 131.269531 96.753906 131.269531 L 87.230469 131.269531 L 87.230469 119.507812 L 71.234375 119.507812 L 71.234375 118.75 L 68.949219 113.058594 C 67.171875 111.539062 65.269531 110.78125 63.238281 110.78125 L 57.527344 113.058594 L 55.242188 118.75 L 55.242188 119.507812 L 40.007812 119.507812 L 40.007812 131.269531 L 30.105469 131.269531 C 27.566406 131.269531 25.535156 130.382812 24.011719 128.613281 C 22.234375 126.84375 21.597656 124.566406 22.105469 121.785156 L 31.246094 66.394531 L 33.152344 61.082031 L 42.671875 61.082031 L 42.671875 67.53125 L 84.945312 67.53125 L 84.945312 61.082031 M 95.609375 28.074219 L 76.566406 28.074219 C 76.058594 23.015625 74.535156 18.464844 71.996094 14.417969 L 63.238281 8.726562 C 60.191406 8.726562 57.273438 10.621094 54.480469 14.417969 C 51.941406 18.210938 50.289062 22.761719 49.527344 28.074219 L 31.628906 28.074219 L 31.628906 33.765625 L 36.199219 33.765625 L 36.199219 44.390625 C 32.644531 45.652344 29.851562 47.296875 27.820312 49.320312 C 23.25 53.367188 20.457031 58.425781 19.441406 64.496094 L 10.683594 120.265625 C 9.667969 126.84375 11.191406 132.28125 15.253906 136.582031 L 22.867188 142.273438 L 22.867188 153.273438 L 103.988281 153.273438 L 103.988281 142.273438 L 112.367188 136.582031 C 116.429688 132.027344 117.953125 126.589844 116.9375 120.265625 L 107.796875 64.496094 C 107.035156 58.171875 104.242188 53.113281 99.417969 49.320312 L 91.421875 44.390625 L 91.421875 33.765625 L 95.609375 33.765625 L 95.609375 28.074219 M 75.425781 5.3125 C 79.234375 8.851562 82.027344 13.53125 83.804688 19.347656 L 103.988281 19.347656 L 103.988281 41.734375 L 105.132812 42.871094 C 111.480469 48.183594 115.285156 55.011719 116.554688 63.359375 L 125.695312 119.128906 C 127.21875 127.726562 124.933594 135.441406 118.839844 142.273438 L 112.746094 147.203125 L 112.746094 162 L 14.492188 162 L 14.492188 147.203125 L 8.398438 142.273438 C 2.8125 135.949219 0.652344 128.109375 1.921875 118.75 L 11.0625 63.738281 C 12.078125 54.886719 15.761719 47.929688 22.105469 42.871094 L 22.867188 41.734375 L 22.867188 19.347656 L 43.433594 19.347656 C 44.957031 13.53125 47.496094 8.851562 51.050781 5.3125 C 54.859375 1.769531 58.921875 0 63.238281 0 C 67.808594 0 71.871094 1.769531 75.425781 5.3125 "/>
</g>
</svg>
