<?xml version="1.0" encoding="UTF-8"?>
<svg xmlns="http://www.w3.org/2000/svg" xmlns:xlink="http://www.w3.org/1999/xlink" width="127pt" height="120pt" viewBox="0 0 127 120" version="1.1">
<g id="surface1">
<path style=" stroke:none;fill-rule:nonzero;fill:rgb(100%,100%,100%);fill-opacity:1;" d="M 78.152344 17.675781 C 77.039062 12.820312 74.710938 9.453125 71.175781 7.585938 L 66.988281 6.746094 L 60.011719 8.988281 L 53.3125 11.789062 L 52.195312 11.789062 L 46.890625 11.511719 L 41.589844 10.667969 L 35.726562 12.351562 C 32.9375 14.59375 31.726562 17.394531 32.097656 20.761719 C 32.472656 24.308594 34.796875 28.234375 39.078125 32.53125 C 43.542969 36.644531 48.101562 42.808594 52.753906 51.03125 C 47.542969 49.535156 42.054688 45.332031 36.285156 38.417969 C 32.378906 33.558594 27.632812 31.128906 22.050781 31.128906 L 15.628906 32.8125 C 13.027344 34.308594 11.445312 37.390625 10.886719 42.0625 L 10.328125 52.992188 L 8.375 62.242188 C 7.441406 65.792969 7.257812 68.503906 7.816406 70.371094 L 10.886719 76.257812 C 12.746094 78.5 15.074219 79.621094 17.863281 79.621094 C 21.214844 79.621094 25.121094 77.566406 29.585938 73.453125 C 36.472656 67.101562 42.613281 63.925781 48.007812 63.925781 L 52.476562 64.765625 C 43.355469 70.746094 36.285156 76.628906 31.261719 82.421875 C 28.097656 85.972656 25.121094 91.484375 22.328125 98.960938 L 18.980469 109.050781 L 29.308594 113.253906 C 29.121094 102.417969 33.121094 91.578125 41.308594 80.742188 C 45.402344 75.136719 49.496094 70.746094 53.589844 67.566406 C 55.078125 69.0625 54.429688 72.332031 51.636719 77.378906 C 48.660156 83.171875 46.890625 88.964844 46.335938 94.753906 C 45.402344 102.605469 47.542969 107.929688 52.753906 110.730469 L 56.382812 111.574219 L 65.035156 108.488281 L 73.96875 104.003906 L 77.875 103.445312 L 81.503906 104.003906 L 84.851562 104.285156 L 92.667969 101.480469 C 96.761719 98.867188 97.785156 95.316406 95.738281 90.832031 C 94.0625 87.28125 91.179688 83.917969 87.085938 80.742188 C 74.992188 71.398438 69.5 66.257812 70.617188 65.324219 L 70.898438 65.324219 L 82.339844 68.96875 C 89.597656 71.585938 96.203125 72.894531 102.160156 72.894531 L 106.066406 72.894531 C 111.277344 72.332031 114.90625 70.464844 116.953125 67.289062 C 118.8125 64.109375 118.535156 60.746094 116.113281 57.195312 L 111.925781 49.347656 L 111.089844 37.578125 C 111.089844 31.035156 108.578125 27.765625 103.554688 27.765625 C 100.019531 27.765625 95.832031 29.167969 90.992188 31.972656 C 87.085938 34.214844 82.621094 38.324219 77.59375 44.304688 L 70.617188 52.152344 L 70.058594 52.152344 C 69.875 51.589844 70.710938 49.070312 72.570312 44.585938 L 77.59375 31.410156 C 79.085938 26.550781 79.269531 21.972656 78.152344 17.675781 M 103.554688 21.039062 C 107.460938 21.039062 110.71875 22.253906 113.324219 24.683594 C 116.300781 27.671875 117.789062 31.878906 117.789062 37.296875 L 118.625 47.386719 L 121.695312 53.554688 C 125.230469 58.597656 125.789062 63.738281 123.371094 68.96875 C 120.582031 75.136719 114.996094 78.6875 106.625 79.621094 L 95.179688 79.058594 C 100.761719 84.664062 103.460938 90.175781 103.273438 95.597656 C 103.089844 100.453125 100.667969 104.378906 96.019531 107.367188 L 84.851562 111.011719 L 80.109375 110.171875 L 76.199219 110.171875 L 70.339844 113.253906 C 64.570312 116.617188 59.917969 118.300781 56.382812 118.300781 L 49.683594 116.617188 C 42.613281 112.878906 39.261719 106.339844 39.636719 96.996094 C 37.214844 102.417969 36.007812 107.835938 36.007812 113.253906 C 36.007812 115.683594 34.984375 117.644531 32.9375 119.140625 L 29.308594 119.980469 L 26.515625 119.421875 L 16.46875 114.9375 L 13.117188 111.851562 L 12.558594 107.089844 L 20.65625 85.785156 L 17.863281 86.347656 C 13.582031 86.347656 9.957031 84.757812 6.976562 81.582031 C 4.371094 79.152344 2.511719 76.070312 1.394531 72.332031 C 0.464844 69.15625 0.835938 64.203125 2.511719 57.476562 L 3.90625 52.152344 L 3.90625 47.667969 L 5.304688 36.734375 C 6.417969 32.25 8.839844 28.980469 12.558594 26.925781 L 22.050781 24.402344 L 26.238281 24.964844 C 25.308594 22.722656 25.027344 20.574219 25.398438 18.519531 C 25.585938 13.847656 27.632812 10.015625 31.539062 7.027344 C 34.519531 4.96875 37.867188 3.941406 41.589844 3.941406 L 48.007812 4.785156 L 52.195312 5.0625 L 52.753906 5.0625 L 56.382812 3.382812 C 60.476562 1.140625 64.011719 0.0195312 66.988281 0.0195312 L 74.246094 1.699219 C 78.527344 3.941406 81.6875 7.585938 83.734375 12.632812 C 85.410156 17.117188 85.875 22.160156 85.132812 27.765625 L 87.644531 26.085938 C 93.597656 22.722656 98.902344 21.039062 103.554688 21.039062 "/>
</g>
</svg>
