<?xml version="1.0" encoding="UTF-8"?>
<svg xmlns="http://www.w3.org/2000/svg" xmlns:xlink="http://www.w3.org/1999/xlink" width="128pt" height="93pt" viewBox="0 0 128 93" version="1.1">
<g id="surface1">
<path style=" stroke:none;fill-rule:nonzero;fill:rgb(100%,100%,100%);fill-opacity:1;" d="M 18.328125 61.902344 C 14.699219 57.296875 12.886719 52.113281 12.886719 46.355469 C 12.886719 40.789062 14.699219 35.703125 18.328125 31.097656 L 18.328125 61.902344 M 31.785156 64.207031 L 36.941406 54.417969 L 36.941406 75.722656 L 27.777344 70.828125 L 27.777344 54.992188 L 31.785156 64.207031 M 49.824219 22.75 L 59.5625 22.75 L 59.5625 81.191406 L 47.25 79.464844 L 47.25 13.535156 L 49.824219 12.960938 L 49.824219 22.75 M 31.785156 37.144531 L 26.058594 23.324219 L 37.226562 16.988281 L 31.785156 37.144531 M 100.796875 52.976562 L 100.796875 70.539062 L 91.058594 75.722656 L 91.058594 52.976562 L 100.796875 52.976562 M 115.113281 46.355469 C 115.113281 51.921875 113.300781 57.105469 109.671875 61.902344 L 109.671875 31.097656 C 113.300781 35.894531 115.113281 40.980469 115.113281 46.355469 M 104.234375 18.71875 C 93.160156 10.847656 79.703125 6.914062 63.855469 6.914062 C 48.203125 6.914062 34.839844 10.847656 23.765625 18.71875 C 12.503906 26.203125 6.871094 35.414062 6.871094 46.355469 C 6.871094 57.488281 12.503906 66.796875 23.765625 74.28125 C 34.839844 81.960938 48.203125 85.796875 63.855469 85.796875 C 79.703125 85.796875 93.160156 81.960938 104.234375 74.28125 C 115.304688 66.796875 120.839844 57.488281 120.839844 46.355469 C 120.839844 35.414062 115.304688 26.203125 104.234375 18.71875 M 63.855469 0.00390625 C 81.609375 0.00390625 96.789062 4.609375 109.386719 13.824219 C 121.796875 22.84375 128 33.6875 128 46.355469 C 128 59.214844 121.796875 70.25 109.386719 79.464844 C 96.789062 88.484375 81.609375 92.996094 63.855469 92.996094 C 46.292969 92.996094 31.308594 88.484375 18.898438 79.464844 C 6.300781 70.25 0 59.214844 0 46.355469 C 0 33.6875 6.300781 22.84375 18.898438 13.824219 C 31.308594 4.609375 46.292969 0.00390625 63.855469 0.00390625 M 91.058594 44.339844 L 91.058594 24.1875 L 100.796875 31.097656 L 100.796875 44.339844 L 91.058594 44.339844 M 69.871094 22.75 L 79.894531 22.75 L 79.894531 13.246094 L 82.46875 14.109375 L 82.46875 78.890625 L 69.871094 81.191406 L 69.871094 22.75 "/>
</g>
</svg>
