<?xml version="1.0" encoding="UTF-8"?>
<svg xmlns="http://www.w3.org/2000/svg" xmlns:xlink="http://www.w3.org/1999/xlink" width="128pt" height="128pt" viewBox="0 0 128 128" version="1.1">
<g id="surface1">
<path style=" stroke:none;fill-rule:nonzero;fill:rgb(100%,100%,100%);fill-opacity:1;" d="M 104.109375 23.890625 C 93.101562 12.683594 79.730469 7.078125 64 7.078125 C 48.269531 7.078125 34.800781 12.683594 23.59375 23.890625 C 12.582031 34.898438 7.078125 48.269531 7.078125 64 C 7.078125 79.730469 12.582031 93.199219 23.59375 104.40625 C 34.800781 115.417969 48.269531 120.921875 64 120.921875 C 79.730469 120.921875 93.101562 115.417969 104.109375 104.40625 C 115.316406 93.199219 120.921875 79.730469 120.921875 64 C 120.921875 48.269531 115.316406 34.898438 104.109375 23.890625 M 64 0 C 81.5 0 96.539062 6.292969 109.125 18.875 C 121.707031 31.460938 128 46.5 128 64 C 128 81.695312 121.707031 96.835938 109.125 109.417969 C 96.539062 121.804688 81.5 128 64 128 C 46.304688 128 31.164062 121.804688 18.582031 109.417969 C 6.195312 96.835938 0 81.695312 0 64 C 0 46.5 6.195312 31.460938 18.582031 18.875 C 31.164062 6.292969 46.304688 0 64 0 M 73.144531 49.546875 L 67.835938 30.96875 C 66.261719 25.460938 65.082031 22.710938 64.296875 22.710938 L 60.460938 31.261719 L 54.5625 50.433594 L 47.484375 65.476562 C 45.125 70.785156 43.945312 75.699219 43.945312 80.222656 C 43.945312 85.726562 45.910156 90.542969 49.84375 94.671875 C 53.777344 98.605469 58.59375 100.570312 64.296875 100.570312 C 69.800781 100.570312 74.617188 98.605469 78.746094 94.671875 C 82.679688 90.542969 84.644531 85.726562 84.644531 80.222656 C 84.644531 75.503906 83.269531 70.390625 80.515625 64.886719 L 73.144531 49.546875 M 64.296875 15.632812 C 67.246094 15.632812 69.605469 17.007812 71.375 19.761719 L 75.207031 31.851562 L 79.925781 47.484375 L 84.941406 58.101562 L 89.660156 68.128906 L 91.722656 80.222656 C 91.722656 87.691406 89.070312 94.179688 83.761719 99.6875 C 78.453125 104.996094 71.964844 107.648438 64.296875 107.648438 C 56.625 107.648438 50.136719 104.996094 44.828125 99.6875 C 39.519531 94.179688 36.867188 87.691406 36.867188 80.222656 L 38.636719 68.128906 L 43.058594 58.394531 L 47.777344 48.074219 L 52.203125 34.210938 L 57.214844 20.351562 C 58.984375 17.203125 61.34375 15.632812 64.296875 15.632812 "/>
</g>
</svg>
