<?xml version="1.0" encoding="UTF-8"?>
<svg xmlns="http://www.w3.org/2000/svg" xmlns:xlink="http://www.w3.org/1999/xlink" width="128pt" height="129pt" viewBox="0 0 128 129" version="1.1">
<g id="surface1">
<path style=" stroke:none;fill-rule:nonzero;fill:rgb(100%,100%,100%);fill-opacity:1;" d="M 71.617188 53.296875 L 94.769531 53.597656 L 76.488281 67.226562 L 83.191406 89.632812 L 64 76.308594 L 45.113281 89.632812 L 51.511719 67.226562 L 32.925781 53.597656 L 56.382812 53.296875 L 64 31.191406 L 71.617188 53.296875 M 102.992188 8.480469 L 107.867188 0 L 127.972656 24.527344 L 123.402344 28.769531 L 117.3125 36.339844 C 113.453125 42.597656 111.523438 49.054688 111.523438 55.71875 C 111.523438 61.976562 112.84375 67.328125 115.484375 71.769531 C 116.90625 74.59375 118.226562 76.207031 119.445312 76.613281 L 123.097656 79.339844 L 122.183594 83.878906 L 117.3125 94.78125 C 112.640625 102.453125 105.632812 108.914062 96.292969 114.160156 C 86.746094 120.421875 76.691406 125.265625 66.132812 128.695312 L 65.828125 128.695312 L 64.914062 129 L 64 129 L 51.207031 124.761719 L 31.402344 114.160156 C 22.671875 108.914062 15.867188 102.453125 10.992188 94.78125 L 6.121094 83.878906 L 5.207031 79.339844 L 8.859375 76.914062 L 12.820312 71.769531 C 15.257812 67.328125 16.476562 61.976562 16.476562 55.71875 C 16.476562 49.054688 14.648438 42.597656 10.992188 36.339844 L 4.902344 28.769531 L 0.0273438 24.527344 L 20.4375 0 L 24.703125 8.78125 L 28.664062 13.324219 C 32.113281 15.949219 36.378906 17.261719 41.457031 17.261719 C 47.550781 17.261719 53.742188 15.039062 60.039062 10.597656 L 64 8.175781 L 67.65625 10.597656 L 73.75 14.230469 C 78.621094 16.25 82.886719 17.261719 86.542969 17.261719 C 94.058594 17.261719 99.539062 14.332031 102.992188 8.480469 M 108.78125 12.113281 L 103.601562 18.167969 C 98.726562 22.003906 93.042969 23.921875 86.542969 23.921875 C 82.074219 23.921875 76.894531 22.710938 71.007812 20.289062 L 64 16.351562 L 56.992188 20.289062 L 41.457031 23.921875 C 34.550781 23.921875 28.765625 22.003906 24.09375 18.167969 L 19.21875 12.113281 L 9.46875 23.921875 L 16.476562 32.703125 C 21.148438 39.972656 23.484375 47.644531 23.484375 55.71875 C 23.484375 63.792969 21.757812 70.65625 18.304688 76.308594 L 12.820312 82.667969 L 16.78125 91.449219 C 21.046875 98.113281 27.039062 103.867188 34.753906 108.710938 L 54.554688 118.703125 L 64 122.339844 C 73.953125 119.109375 83.597656 114.566406 92.941406 108.710938 C 100.859375 103.867188 107.054688 98.113281 111.523438 91.449219 L 115.484375 82.667969 L 110.304688 76.308594 C 106.445312 70.65625 104.515625 63.792969 104.515625 55.71875 C 104.515625 47.644531 106.953125 39.972656 111.828125 32.703125 L 118.835938 23.921875 L 108.78125 12.113281 "/>
</g>
</svg>
