<?xml version="1.0" encoding="UTF-8"?>
<svg xmlns="http://www.w3.org/2000/svg" xmlns:xlink="http://www.w3.org/1999/xlink" width="128pt" height="93pt" viewBox="0 0 128 93" version="1.1">
<g id="surface1">
<path style=" stroke:none;fill-rule:nonzero;fill:rgb(100%,100%,100%);fill-opacity:1;" d="M 72.113281 63.390625 L 74.515625 62.183594 L 82.929688 62.183594 L 84.132812 67.613281 C 84.132812 71.234375 82.828125 74.351562 80.226562 76.964844 C 77.621094 79.78125 74.417969 81.1875 70.609375 81.1875 C 67.605469 81.1875 65 80.382812 62.796875 78.777344 C 60.394531 76.765625 58.792969 74.351562 57.992188 71.535156 L 66.101562 66.710938 L 66.101562 67.613281 L 67.304688 70.632812 L 70.609375 72.140625 L 73.914062 70.632812 L 75.417969 67.613281 C 75.417969 65.605469 74.316406 64.195312 72.113281 63.390625 M 111.773438 6.683594 L 110.875 7.589844 L 110.574219 9.097656 L 110.875 9.398438 L 76.621094 24.480469 C 55.585938 34.132812 38.058594 42.878906 24.039062 50.722656 L 22.835938 52.230469 L 22.835938 54.644531 L 24.339844 57.359375 C 23.136719 58.96875 22.9375 60.476562 23.738281 61.882812 C 24.539062 63.292969 25.738281 63.996094 27.34375 63.996094 L 27.644531 63.996094 L 29.144531 66.710938 L 31.550781 68.519531 L 32.75 68.21875 L 36.355469 66.710938 L 29.746094 76.0625 L 17.425781 79.980469 L 16.828125 79.980469 C 15.824219 77.570312 14.222656 76.363281 12.019531 76.363281 C 9.613281 76.363281 8.011719 77.570312 7.210938 79.980469 L 7.210938 85.109375 L 36.054688 85.109375 L 53.785156 74.25 C 54.984375 77.871094 57.1875 80.785156 60.394531 83 L 70.609375 86.015625 C 75.820312 86.015625 80.125 84.207031 83.53125 80.585938 C 86.9375 76.964844 88.636719 72.640625 88.636719 67.613281 L 88.039062 62.183594 L 91.644531 62.183594 L 91.644531 39.5625 L 106.066406 30.511719 L 117.484375 22.972656 L 117.785156 23.273438 L 118.683594 23.875 L 119.886719 23.574219 L 120.1875 22.066406 L 119.886719 21.464844 L 120.1875 21.464844 L 120.1875 19.050781 L 115.679688 9.699219 L 113.878906 7.890625 L 113.277344 7.890625 L 112.976562 7.589844 L 111.773438 6.683594 M 116.882812 1.554688 L 121.691406 6.078125 L 126.496094 16.035156 L 126.496094 16.335938 C 127.5 18.546875 127.699219 20.660156 127.097656 22.671875 C 127.097656 25.6875 125.898438 28 123.492188 29.609375 L 118.683594 30.816406 L 118.386719 30.816406 L 112.375 34.433594 C 107.769531 37.851562 103.160156 40.96875 98.554688 43.785156 L 98.554688 62.183594 C 98.554688 64.597656 97.550781 66.507812 95.550781 67.917969 C 95.347656 74.953125 92.945312 80.886719 88.339844 85.714844 C 83.53125 90.539062 77.621094 92.953125 70.609375 92.953125 C 62.796875 92.953125 56.386719 89.9375 51.378906 83.902344 L 39.363281 91.144531 L 36.054688 92.046875 L 7.210938 92.046875 C 5.207031 92.046875 3.503906 91.34375 2.101562 89.9375 C 0.699219 88.730469 0 87.121094 0 85.109375 L 0 79.980469 L 0.601562 76.964844 L 5.109375 71.535156 C 7.3125 70.128906 9.613281 69.425781 12.019531 69.425781 C 14.621094 69.425781 17.027344 70.328125 19.230469 72.140625 L 23.4375 70.632812 L 22.835938 70.027344 L 17.726562 64.597656 C 16.527344 62.585938 16.226562 60.273438 16.828125 57.660156 L 16.527344 57.359375 L 16.226562 50.121094 C 17.027344 47.503906 18.527344 45.695312 20.730469 44.691406 C 34.355469 37.046875 51.882812 28.199219 73.316406 18.144531 L 104.5625 3.96875 L 109.070312 0.648438 L 109.371094 0.648438 L 111.773438 0.046875 L 116.882812 1.554688 "/>
</g>
</svg>
