<?xml version="1.0" encoding="UTF-8"?>
<svg xmlns="http://www.w3.org/2000/svg" xmlns:xlink="http://www.w3.org/1999/xlink" width="128pt" height="128pt" viewBox="0 0 128 128" version="1.1">
<g id="surface1">
<path style=" stroke:none;fill-rule:nonzero;fill:rgb(100%,100%,100%);fill-opacity:1;" d="M 49.296875 44.109375 L 48.144531 43.820312 L 49.585938 44.109375 L 49.296875 44.109375 M 50.164062 36.035156 L 53.332031 37.1875 L 54.773438 36.902344 L 57.371094 37.476562 L 57.371094 34.019531 L 45.550781 34.019531 L 46.992188 34.882812 L 47.855469 35.746094 L 48.144531 35.746094 L 49.875 36.035156 L 50.164062 36.035156 M 34.304688 34.019531 L 32.289062 31.710938 L 30.558594 30.558594 L 63.136719 30.558594 C 61.789062 31.328125 61.117188 32.769531 61.117188 34.882812 L 60.828125 34.882812 L 60.539062 36.613281 L 61.695312 37.765625 L 62.558594 39.207031 L 62.558594 40.070312 L 61.117188 41.800781 L 59.675781 42.089844 L 57.082031 41.226562 L 54.773438 40.359375 L 52.757812 40.9375 L 49.007812 39.496094 L 47.855469 39.207031 L 46.992188 39.207031 L 44.972656 37.765625 L 42.667969 36.613281 L 42.089844 36.035156 L 37.476562 35.171875 L 36.035156 34.59375 L 35.460938 34.304688 L 34.304688 34.019531 M 64 0 C 81.683594 0 96.769531 6.246094 109.261719 18.738281 C 121.753906 31.230469 128 46.316406 128 64 C 128 81.683594 121.753906 96.769531 109.261719 109.261719 C 96.769531 121.753906 81.683594 128 64 128 C 46.316406 128 31.230469 121.753906 18.738281 109.261719 C 6.246094 96.769531 0 81.683594 0 64 C 0 46.316406 6.246094 31.230469 18.738281 18.738281 C 31.230469 6.246094 46.316406 0 64 0 M 75.53125 56.792969 L 74.953125 57.65625 L 74.667969 62.558594 L 74.089844 63.710938 L 74.667969 66.019531 L 74.667969 66.304688 L 78.125 74.089844 L 80.144531 80.433594 L 80.433594 80.722656 L 80.722656 81.875 L 80.722656 82.449219 L 82.738281 84.757812 L 86.773438 95.136719 L 88.792969 99.171875 L 89.371094 99.460938 L 90.234375 99.460938 L 92.828125 98.304688 L 93.980469 98.019531 L 94.269531 98.019531 L 94.558594 97.730469 C 95.710938 97.730469 96.671875 98.304688 97.441406 99.460938 L 98.019531 100.035156 C 98.785156 101.382812 98.691406 102.726562 97.730469 104.070312 L 96.863281 105.226562 L 95.710938 106.378906 L 91.964844 108.394531 L 89.371094 108.683594 L 89.082031 108.683594 L 88.214844 109.835938 L 85.332031 111.277344 L 83.890625 110.992188 L 82.738281 110.414062 C 81.394531 109.644531 80.816406 108.394531 81.007812 106.667969 L 81.585938 105.226562 L 80.722656 103.785156 L 80.722656 103.496094 L 80.433594 103.496094 L 77.261719 99.460938 L 76.109375 98.019531 L 73.226562 94.558594 L 72.648438 101.765625 L 72.359375 104.9375 L 76.683594 106.089844 L 79.277344 108.683594 L 79.277344 110.125 L 77.835938 113.007812 L 75.242188 115.316406 L 65.152344 116.179688 L 55.0625 115.316406 L 53.046875 113.875 L 52.46875 111.566406 C 52.660156 109.453125 53.8125 108.394531 55.929688 108.394531 L 56.214844 108.394531 L 56.503906 107.820312 L 54.773438 103.496094 L 53.910156 101.1875 L 53.621094 92.828125 L 54.199219 91.097656 L 54.199219 90.8125 L 53.332031 92.253906 L 53.046875 93.40625 L 51.890625 95.710938 L 51.605469 96 L 47.566406 102.34375 L 47.566406 102.628906 L 46.992188 105.226562 L 46.703125 105.800781 L 46.414062 107.53125 L 45.550781 109.261719 L 45.261719 109.261719 L 43.53125 110.125 L 42.667969 110.125 L 39.207031 108.972656 L 38.917969 108.972656 L 36.613281 107.53125 L 35.171875 106.089844 L 34.304688 104.070312 L 34.304688 103.496094 L 36.035156 100.324219 L 37.765625 99.746094 L 38.34375 99.460938 L 38.34375 98.59375 L 39.207031 94.558594 L 40.9375 89.945312 L 44.394531 84.757812 L 46.125 82.738281 L 46.125 82.449219 L 46.414062 81.875 L 47.855469 79.855469 L 48.144531 79.566406 L 48.144531 79.277344 L 49.585938 74.667969 L 50.164062 73.511719 L 50.164062 72.9375 L 50.449219 72.070312 L 51.605469 69.476562 L 51.890625 68.902344 L 53.332031 66.882812 L 53.621094 66.304688 L 54.488281 62.558594 L 55.0625 58.8125 L 54.488281 55.929688 L 54.199219 55.640625 L 53.910156 54.773438 L 53.910156 53.332031 L 53.046875 52.179688 L 50.449219 52.179688 L 45.261719 51.605469 L 43.820312 52.179688 L 43.53125 52.179688 L 42.667969 51.890625 L 42.089844 52.179688 L 40.359375 52.179688 L 37.476562 51.605469 L 36.902344 51.605469 L 36.613281 51.316406 L 35.746094 51.316406 L 35.171875 51.027344 L 33.441406 51.027344 L 32.863281 50.738281 L 31.421875 51.027344 L 30.847656 51.027344 L 29.117188 50.449219 L 28.253906 50.449219 L 28.253906 108.394531 C 38.824219 116.851562 50.738281 121.082031 64 121.082031 C 78.605469 121.082031 91.484375 115.988281 102.628906 105.800781 L 102.34375 51.027344 L 100.613281 51.027344 L 98.59375 51.605469 L 97.441406 51.605469 L 95.421875 51.027344 L 92.828125 51.316406 L 90.234375 52.179688 L 89.65625 52.179688 C 89.082031 52.179688 88.214844 51.890625 87.0625 51.316406 L 85.910156 51.605469 L 84.179688 51.316406 L 76.683594 51.890625 L 75.53125 56.792969 M 85.332031 41.800781 L 85.621094 41.800781 L 87.0625 40.359375 L 87.640625 40.359375 L 87.640625 41.226562 L 88.503906 41.226562 L 90.234375 40.9375 L 91.675781 39.496094 L 97.730469 36.035156 L 98.304688 36.902344 L 99.171875 36.613281 L 98.882812 36.035156 L 104.070312 34.304688 L 104.070312 33.730469 L 101.1875 34.304688 L 101.1875 34.019531 L 104.070312 33.152344 L 98.304688 26.8125 L 32.289062 26.8125 L 27.097656 32.289062 L 27.386719 32.289062 L 27.964844 32.578125 L 28.828125 33.152344 L 26.8125 32.578125 L 26.234375 33.441406 L 27.386719 33.441406 L 27.964844 34.019531 L 26.8125 34.019531 L 28.253906 34.882812 L 28.828125 35.171875 L 29.695312 35.171875 L 29.980469 35.746094 L 30.558594 35.746094 L 31.710938 36.324219 L 32.578125 36.613281 L 33.152344 36.613281 L 36.035156 38.34375 L 41.226562 41.226562 L 42.667969 41.226562 L 43.53125 41.800781 L 45.550781 42.667969 L 47.855469 43.820312 L 44.972656 44.394531 L 44.394531 44.394531 L 42.667969 43.820312 L 41.800781 43.820312 L 41.226562 44.394531 L 37.476562 44.109375 L 35.460938 44.394531 L 34.304688 44.394531 L 33.441406 44.109375 L 32.863281 44.394531 L 30.558594 42.953125 L 29.980469 42.953125 L 28.253906 42.378906 L 26.523438 42.667969 L 25.65625 42.667969 L 26.523438 43.53125 L 27.964844 43.53125 L 27.097656 43.820312 L 24.792969 43.820312 L 24.792969 35.171875 L 21.046875 41.800781 L 21.046875 101.476562 L 24.792969 105.226562 L 24.792969 46.125 L 26.523438 46.125 L 25.371094 46.414062 L 26.234375 46.992188 L 29.695312 46.992188 L 30.847656 47.566406 L 31.421875 47.566406 C 32 47.566406 32.382812 47.375 32.578125 46.992188 L 33.152344 47.277344 L 34.019531 47.566406 L 35.460938 47.566406 L 37.765625 48.144531 L 40.359375 48.722656 L 42.667969 48.433594 L 43.53125 48.722656 L 43.820312 48.722656 L 44.683594 48.144531 L 44.972656 48.144531 L 47.277344 48.433594 L 47.855469 48.433594 L 49.007812 48.144531 L 50.738281 48.722656 L 54.773438 48.722656 L 55.929688 49.585938 L 55.929688 50.738281 L 57.082031 52.179688 L 57.65625 55.0625 L 59.097656 58.523438 L 58.234375 62.847656 L 57.371094 65.152344 L 56.792969 67.460938 L 54.773438 70.917969 L 53.910156 72.9375 L 52.757812 76.109375 L 51.605469 79.277344 L 51.605469 80.144531 L 51.316406 80.722656 L 51.027344 81.875 L 49.585938 83.605469 L 49.296875 84.179688 L 47.855469 85.910156 L 43.820312 91.097656 L 41.226562 100.902344 L 40.359375 102.628906 L 39.496094 103.207031 L 38.917969 103.207031 L 37.765625 103.496094 L 37.765625 104.070312 L 40.359375 105.800781 L 42.667969 106.667969 L 42.953125 106.667969 L 43.242188 106.089844 L 43.53125 103.785156 L 44.394531 101.765625 L 46.414062 97.441406 L 48.722656 93.980469 L 49.585938 92.253906 L 50.164062 90.8125 L 51.605469 88.503906 L 53.046875 86.773438 L 54.199219 85.332031 L 55.0625 84.46875 L 55.0625 84.179688 L 56.503906 82.738281 L 57.082031 81.007812 L 57.945312 84.46875 L 58.234375 85.910156 L 57.65625 89.65625 L 57.65625 91.386719 L 56.792969 93.695312 C 56.214844 96 56.3125 98.113281 57.082031 100.035156 L 57.945312 102.628906 L 59.386719 105.800781 L 59.964844 106.953125 L 59.964844 108.972656 L 59.386719 109.550781 L 59.964844 111.277344 L 59.675781 111.566406 L 59.964844 111.855469 L 61.40625 112.433594 L 65.152344 112.722656 C 67.460938 112.722656 67.746094 112.433594 66.019531 111.855469 L 65.730469 110.703125 L 64.863281 110.125 L 64.578125 109.550781 L 63.710938 108.683594 L 63.710938 107.53125 L 62.847656 105.800781 L 62.558594 103.785156 L 62.269531 101.476562 L 62.269531 100.902344 L 61.980469 100.035156 L 62.558594 98.59375 L 61.695312 93.695312 L 61.980469 92.253906 L 61.980469 91.097656 L 62.558594 90.523438 L 62.558594 88.792969 L 63.136719 87.929688 L 63.421875 87.0625 L 63.421875 83.316406 L 64 79.855469 L 64.578125 78.125 L 65.152344 81.585938 L 65.441406 87.640625 L 65.441406 87.929688 L 65.730469 87.929688 L 66.019531 89.371094 L 66.882812 90.8125 L 66.59375 93.117188 L 65.730469 93.695312 C 64.578125 94.65625 64.671875 97.539062 66.019531 102.34375 L 66.019531 102.628906 L 66.59375 105.800781 L 66.59375 106.089844 L 66.882812 105.800781 L 66.882812 106.378906 L 66.59375 106.667969 L 66.882812 109.550781 L 66.304688 111.277344 L 66.304688 111.855469 L 67.171875 111.855469 L 68.902344 110.992188 L 71.207031 111.566406 L 73.511719 111.277344 L 75.820312 110.414062 L 75.820312 109.261719 L 70.34375 107.820312 L 69.1875 106.089844 L 68.902344 106.089844 L 68.613281 105.511719 L 68.902344 105.511719 L 68.902344 105.226562 L 70.34375 91.386719 L 70.628906 90.8125 L 70.34375 91.097656 L 70.628906 89.371094 L 69.765625 87.640625 L 69.765625 86.199219 L 70.34375 86.488281 L 70.34375 86.773438 L 70.628906 86.199219 L 70.917969 82.449219 L 73.511719 87.929688 L 73.800781 87.929688 L 74.089844 87.0625 L 75.820312 88.792969 L 76.683594 90.523438 L 76.109375 91.386719 C 75.914062 92.539062 76.683594 93.980469 78.414062 95.710938 L 79.855469 97.152344 L 83.316406 101.765625 L 83.605469 101.765625 L 83.605469 101.476562 L 84.179688 102.34375 L 83.890625 102.628906 L 85.046875 104.648438 L 84.46875 107.242188 L 85.332031 107.820312 L 86.773438 106.089844 L 88.503906 105.226562 L 90.523438 105.226562 L 93.980469 103.207031 L 94.847656 102.054688 L 94.558594 101.1875 L 94.269531 101.476562 L 91.386719 102.917969 L 87.929688 102.917969 L 85.910156 101.476562 L 85.332031 101.765625 L 85.332031 101.476562 L 85.910156 101.1875 L 83.605469 96.578125 L 81.007812 89.945312 L 79.277344 85.910156 L 78.414062 85.910156 L 77.261719 84.46875 L 76.683594 83.027344 L 77.261719 81.875 L 74.953125 74.953125 L 72.648438 69.765625 L 71.496094 68.035156 L 71.496094 67.746094 L 71.207031 68.035156 L 71.207031 66.019531 L 70.34375 64.578125 L 70.34375 61.980469 L 71.207031 61.980469 L 71.785156 56.503906 L 72.359375 55.0625 L 73.511719 49.007812 L 73.800781 49.007812 L 74.953125 48.433594 L 85.046875 47.855469 L 85.910156 48.144531 L 87.0625 47.277344 L 87.640625 47.277344 L 87.351562 47.566406 L 87.351562 47.855469 L 87.640625 47.855469 L 88.214844 48.144531 C 88.792969 48.527344 89.273438 48.722656 89.65625 48.722656 L 92.539062 47.855469 L 97.441406 47.277344 L 97.441406 48.144531 L 98.59375 48.144531 L 98.59375 47.566406 L 104.359375 47.855469 L 104.648438 46.992188 L 101.765625 46.414062 L 105.800781 46.414062 L 106.089844 102.34375 L 109.550781 98.019531 L 109.550781 42.089844 L 105.800781 35.460938 L 105.800781 44.683594 L 104.648438 44.394531 L 104.648438 43.820312 L 102.054688 42.667969 L 98.304688 43.820312 L 98.304688 43.53125 L 97.441406 43.53125 L 97.441406 45.261719 L 97.152344 45.261719 L 97.152344 44.683594 L 91.097656 44.394531 L 87.351562 44.683594 L 87.0625 44.972656 L 87.640625 45.550781 L 87.0625 45.550781 L 86.773438 45.261719 L 85.910156 45.261719 L 77.261719 44.683594 L 85.332031 41.800781 M 85.621094 38.628906 L 85.332031 38.628906 L 84.757812 39.207031 L 84.46875 39.207031 L 84.179688 39.496094 L 76.109375 40.9375 L 73.800781 40.359375 C 72.070312 40.359375 70.535156 41.128906 69.1875 42.667969 L 67.746094 40.070312 L 68.613281 39.496094 L 68.902344 37.765625 L 69.476562 37.476562 L 69.765625 35.171875 L 69.476562 35.171875 L 68.324219 31.421875 L 67.171875 30.558594 L 100.035156 30.558594 L 98.019531 31.710938 L 96.863281 32.863281 L 96.289062 32.578125 L 95.710938 33.152344 L 96.578125 34.304688 L 96.289062 34.304688 L 96 33.730469 L 95.710938 34.019531 C 95.136719 34.59375 93.40625 35.265625 90.523438 36.035156 C 87.640625 36.613281 86.199219 37.382812 86.199219 38.34375 L 86.773438 38.917969 L 86.199219 39.207031 L 85.621094 38.628906 M 82.449219 36.324219 L 83.316406 35.746094 L 83.605469 35.746094 L 85.621094 34.019531 L 72.9375 34.019531 L 73.226562 34.59375 L 72.9375 36.902344 L 73.800781 36.902344 L 76.394531 37.476562 L 82.449219 36.324219 M 98.304688 23.351562 L 100.613281 24.503906 L 106.953125 31.136719 L 107.53125 32.578125 L 108.683594 33.441406 L 112.722656 40.648438 L 113.007812 42.089844 L 113.007812 92.828125 C 118.390625 83.796875 121.082031 74.1875 121.082031 64 C 121.082031 48.242188 115.507812 34.785156 104.359375 23.640625 C 93.214844 12.492188 79.757812 6.917969 64 6.917969 C 48.242188 6.917969 34.785156 12.492188 23.640625 23.640625 C 12.492188 34.785156 6.917969 48.242188 6.917969 64 C 6.917969 75.914062 10.472656 86.96875 17.585938 97.152344 L 17.585938 41.800781 L 17.875 40.070312 L 21.910156 33.441406 L 23.640625 31.136719 L 23.640625 30.847656 L 24.503906 29.980469 L 29.980469 24.503906 L 32.289062 23.351562 L 98.304688 23.351562 "/>
</g>
</svg>
