<?xml version="1.0" encoding="UTF-8"?>
<svg xmlns="http://www.w3.org/2000/svg" xmlns:xlink="http://www.w3.org/1999/xlink" width="127pt" height="118pt" viewBox="0 0 127 118" version="1.1">
<g id="surface1">
<path style=" stroke:none;fill-rule:nonzero;fill:rgb(100%,100%,100%);fill-opacity:1;" d="M 77.390625 48.015625 L 83.058594 48.015625 L 58.679688 14.636719 L 48.757812 27.761719 L 48.757812 6.933594 L 44.507812 6.933594 L 44.507812 33.75 L 34.019531 48.015625 L 39.6875 48.015625 L 39.6875 56.003906 L 7.9375 84.535156 L 13.890625 84.535156 L 13.890625 111.066406 L 113.109375 111.066406 L 113.109375 73.691406 L 118.777344 73.691406 L 94.117188 50.867188 L 77.390625 66.558594 L 77.390625 48.015625 M 94.117188 44.023438 C 96.195312 44.023438 97.800781 44.59375 98.933594 45.734375 L 123.597656 68.84375 C 125.867188 70.933594 126.433594 73.40625 125.300781 76.261719 C 124.355469 78.734375 122.558594 80.160156 119.914062 80.539062 L 119.914062 111.066406 L 117.929688 115.917969 C 116.605469 117.25 115 117.914062 113.109375 117.914062 L 13.890625 117.914062 C 12 117.914062 10.394531 117.25 9.070312 115.917969 L 7.085938 111.066406 L 7.085938 91.097656 C 4.441406 90.90625 2.550781 89.480469 1.417969 86.816406 C 0.472656 83.964844 1.132812 81.492188 3.402344 79.398438 L 31.464844 54.292969 L 27.78125 50.867188 C 26.648438 48.394531 26.929688 46.019531 28.632812 43.738281 L 37.703125 31.753906 L 37.703125 6.933594 L 39.6875 2.082031 C 41.011719 0.75 42.617188 0.0859375 44.507812 0.0859375 L 48.757812 0.0859375 C 50.648438 0.0859375 52.253906 0.75 53.578125 2.082031 C 54.902344 3.605469 55.5625 5.222656 55.5625 6.933594 L 55.5625 8.359375 L 58.679688 7.789062 C 60.757812 7.789062 62.554688 8.644531 64.066406 10.355469 L 88.730469 43.738281 L 89.582031 45.734375 L 94.117188 44.023438 "/>
</g>
</svg>
