<?xml version="1.0" encoding="UTF-8"?>
<svg xmlns="http://www.w3.org/2000/svg" xmlns:xlink="http://www.w3.org/1999/xlink" width="128pt" height="158pt" viewBox="0 0 128 158" version="1.1">
<g id="surface1">
<path style=" stroke:none;fill-rule:nonzero;fill:rgb(100%,100%,100%);fill-opacity:1;" d="M 100.847656 46.09375 C 100.847656 36.027344 97.359375 27.378906 90.375 20.152344 C 83.136719 12.925781 74.34375 9.3125 64 9.3125 C 53.914062 9.3125 45.253906 12.925781 38.011719 20.152344 C 30.773438 27.378906 27.152344 36.027344 27.152344 46.09375 L 27.152344 116.554688 L 9.308594 116.554688 L 9.308594 148.6875 L 118.691406 148.6875 L 118.691406 116.554688 L 100.847656 116.554688 L 100.847656 46.09375 M 96.96875 13.574219 C 105.761719 22.605469 110.15625 33.445312 110.15625 46.09375 L 110.15625 107.261719 L 118.691406 107.261719 C 121.277344 107.261719 123.476562 108.164062 125.285156 109.972656 C 127.09375 111.519531 128 113.714844 128 116.554688 L 128 148.6875 L 125.285156 155.265625 C 123.476562 157.074219 121.277344 157.976562 118.691406 157.976562 L 9.308594 157.976562 C 6.722656 157.976562 4.523438 157.074219 2.714844 155.265625 L 0 148.6875 L 0 116.554688 C 0 113.972656 0.90625 111.777344 2.714844 109.972656 C 4.523438 108.164062 6.722656 107.261719 9.308594 107.261719 L 17.84375 107.261719 L 17.84375 46.09375 C 17.84375 33.445312 22.367188 22.605469 31.417969 13.574219 C 40.46875 4.539062 51.328125 0.0234375 64 0.0234375 C 76.671875 0.0234375 87.660156 4.539062 96.96875 13.574219 "/>
</g>
</svg>
