<?xml version="1.0" encoding="UTF-8"?>
<svg xmlns="http://www.w3.org/2000/svg" xmlns:xlink="http://www.w3.org/1999/xlink" width="128pt" height="118pt" viewBox="0 0 128 118" version="1.1">
<g id="surface1">
<path style=" stroke:none;fill-rule:nonzero;fill:rgb(100%,100%,100%);fill-opacity:1;" d="M 107.386719 39.523438 L 121.089844 25.777344 L 102.25 6.875 L 88.546875 20.621094 L 94.828125 26.921875 L 68.28125 53.558594 L 43.734375 28.925781 L 60.574219 15.464844 L 52.582031 7.445312 L 35.171875 20.621094 L 31.175781 16.324219 L 23.753906 23.773438 L 28.320312 28.355469 C 22.230469 35.800781 16.996094 44.394531 12.621094 54.132812 L 8.054688 66.445312 L 10.050781 68.164062 L 36.597656 36.375 L 60.859375 61.003906 L 46.589844 75.039062 L 33.457031 61.863281 L 26.320312 69.3125 C 21.375 75.230469 18.613281 80.289062 18.042969 84.492188 L 17.1875 108.261719 L 17.1875 109.40625 L 17.472656 110.839844 L 18.328125 111.125 L 20.042969 110.839844 L 27.464844 111.125 L 43.449219 110.265625 C 48.015625 109.695312 53.152344 106.925781 58.863281 101.960938 L 66.285156 94.800781 L 53.152344 81.625 L 67.140625 67.304688 L 94.828125 95.085938 L 92.542969 97.378906 L 105.390625 110.265625 L 117.664062 98.238281 L 104.53125 85.347656 L 102.25 87.640625 L 74.5625 59.859375 L 101.105469 33.222656 L 107.386719 39.523438 M 102.25 0 C 104.152344 0 105.769531 0.667969 107.101562 2.003906 L 125.941406 20.90625 L 127.9375 25.777344 C 127.9375 27.6875 127.273438 29.214844 125.941406 30.359375 L 112.238281 44.394531 C 110.527344 45.730469 108.910156 46.398438 107.386719 46.398438 C 105.675781 46.398438 104.058594 45.730469 102.535156 44.394531 L 101.105469 42.960938 L 84.265625 59.859375 L 102.820312 78.476562 L 104.53125 78.476562 C 106.625 78.476562 108.242188 79.046875 109.386719 80.195312 L 122.515625 93.367188 C 123.847656 94.707031 124.511719 96.328125 124.511719 98.238281 L 122.515625 103.105469 L 110.242188 115.421875 L 105.390625 117.140625 L 100.535156 115.421875 L 87.691406 102.246094 C 85.789062 100.527344 85.121094 98.332031 85.695312 95.660156 L 67.140625 77.042969 L 62.574219 81.625 L 71.136719 89.933594 L 73.132812 94.515625 C 73.324219 96.425781 72.753906 98.046875 71.421875 99.382812 C 61.90625 110.074219 52.964844 115.996094 44.589844 117.140625 L 27.464844 118 L 18.328125 118 C 15.855469 118 13.953125 117.234375 12.621094 115.707031 L 11.765625 115.136719 C 10.433594 113.035156 9.957031 110.554688 10.335938 107.6875 L 11.195312 83.632812 C 11.765625 79.046875 13.953125 74.179688 17.757812 69.023438 L 15.191406 72.175781 C 14.238281 73.703125 12.714844 74.5625 10.621094 74.753906 L 10.050781 75.039062 L 5.484375 73.320312 L 3.773438 71.886719 C 1.296875 69.789062 0.535156 67.402344 1.488281 64.726562 C 4.914062 52.507812 10.8125 40.574219 19.1875 28.925781 L 18.898438 28.640625 C 17.566406 27.304688 16.902344 25.679688 16.902344 23.773438 L 18.898438 18.902344 L 26.320312 11.457031 C 27.652344 10.121094 29.269531 9.453125 31.175781 9.453125 L 35.457031 10.882812 L 49.441406 1.433594 L 52.582031 0.574219 C 54.675781 0.574219 56.292969 1.242188 57.433594 2.578125 L 65.425781 10.597656 L 67.425781 16.613281 C 66.855469 18.902344 65.523438 20.621094 63.429688 21.765625 L 53.4375 28.925781 L 68.28125 43.820312 L 84.835938 26.921875 L 83.695312 25.492188 C 82.363281 24.34375 81.699219 22.722656 81.699219 20.621094 C 81.699219 18.710938 82.363281 17.089844 83.695312 15.753906 L 97.398438 2.003906 C 98.730469 0.667969 100.347656 0 102.25 0 "/>
</g>
</svg>
