<?xml version="1.0" encoding="UTF-8"?>
<svg xmlns="http://www.w3.org/2000/svg" xmlns:xlink="http://www.w3.org/1999/xlink" width="128pt" height="184pt" viewBox="0 0 128 184" version="1.1">
<g id="surface1">
<path style=" stroke:none;fill-rule:nonzero;fill:rgb(100%,100%,100%);fill-opacity:1;" d="M 56.933594 162.417969 L 28.675781 162.417969 L 36.570312 141.707031 L 56.933594 162.417969 M 46.128906 166.558594 L 25.765625 171.113281 L 27.011719 167.386719 L 28.675781 166.558594 L 46.128906 166.558594 M 58.597656 107.738281 L 49.453125 107.738281 L 55.6875 90.757812 L 58.597656 107.738281 M 63.585938 134.25 L 51.949219 111.882812 L 76.882812 111.882812 L 63.585938 134.25 M 39.066406 135.078125 L 46.546875 115.195312 L 57.351562 135.078125 L 39.066406 135.078125 M 19.53125 76.675781 L 19.53125 77.503906 L 19.949219 78.332031 L 27.011719 79.160156 L 10.804688 101.527344 L 10.804688 102.769531 L 12.050781 102.769531 L 36.988281 77.917969 L 36.988281 76.675781 L 36.15625 76.261719 L 29.921875 75.015625 L 44.882812 60.519531 L 44.882812 59.691406 L 44.46875 58.863281 L 39.480469 58.035156 L 52.363281 44.367188 L 52.363281 43.121094 L 51.117188 43.121094 L 29.507812 59.691406 L 29.089844 60.519531 L 29.921875 61.347656 L 34.492188 62.175781 L 19.53125 76.675781 M 27.429688 39.394531 L 26.597656 39.808594 L 27.011719 40.636719 L 29.507812 44.78125 L 14.960938 47.679688 L 14.546875 48.507812 L 15.375 49.75 L 35.742188 48.921875 L 36.15625 48.507812 L 36.15625 47.265625 L 33.664062 43.949219 L 44.882812 43.949219 L 45.714844 43.535156 L 45.714844 42.292969 L 43.636719 39.808594 L 53.609375 39.394531 L 54.441406 38.566406 L 53.609375 37.324219 L 37.816406 35.253906 L 36.988281 35.667969 L 36.988281 36.910156 L 38.648438 39.394531 L 27.429688 39.394531 M 36.988281 13.300781 L 36.15625 13.300781 L 35.324219 13.714844 L 34.910156 18.683594 L 22.441406 10.398438 L 21.195312 10.8125 L 21.195312 12.054688 L 35.742188 25.726562 L 36.988281 26.140625 L 37.402344 25.3125 L 38.234375 20.753906 L 46.128906 28.625 C 46.40625 29.175781 46.683594 29.316406 46.960938 29.039062 L 47.375 28.210938 L 48.207031 24.898438 L 55.6875 31.9375 L 56.933594 31.9375 L 56.933594 30.695312 L 46.960938 17.855469 L 46.128906 17.441406 L 45.296875 18.269531 L 44.882812 21.167969 L 36.988281 13.300781 M 67.742188 84.542969 L 64.414062 103.183594 L 60.675781 84.542969 L 67.742188 84.542969 M 86.855469 139.21875 L 64 161.589844 L 41.972656 139.21875 L 86.855469 139.21875 M 99.324219 162.417969 L 71.480469 162.417969 L 91.84375 142.535156 L 99.324219 162.417969 M 102.234375 171.113281 L 81.039062 166.558594 L 99.324219 166.558594 L 100.988281 166.972656 L 102.234375 171.113281 M 78.546875 107.738281 L 69.816406 107.738281 L 73.144531 92 L 78.546875 107.738281 M 81.871094 115.609375 L 88.933594 135.078125 L 70.648438 135.078125 L 81.871094 115.609375 M 64 67.976562 L 68.570312 80.402344 L 59.429688 80.402344 L 64 67.976562 M 98.910156 60.519531 L 98.492188 59.691406 L 76.882812 43.121094 L 75.636719 43.121094 L 75.636719 44.367188 L 88.519531 58.035156 L 83.53125 58.863281 L 83.117188 59.691406 L 83.117188 60.519531 L 98.078125 75.015625 L 91.84375 76.261719 L 91.011719 76.675781 L 91.011719 77.917969 L 115.949219 102.769531 L 117.195312 102.769531 L 117.195312 101.527344 L 100.988281 79.160156 L 108.050781 78.332031 L 108.46875 77.503906 L 108.46875 76.675781 L 93.507812 62.175781 L 98.078125 61.347656 L 98.910156 60.519531 M 74.390625 37.324219 L 73.558594 38.566406 L 74.390625 39.394531 L 84.363281 39.808594 L 82.285156 42.292969 L 82.285156 43.535156 L 83.117188 43.949219 L 94.335938 43.949219 L 91.84375 47.265625 L 91.84375 48.507812 L 92.257812 48.921875 L 112.625 49.75 L 113.453125 48.507812 L 113.039062 47.679688 L 98.492188 44.78125 L 100.988281 40.636719 L 101.402344 39.808594 L 100.570312 39.394531 L 89.351562 39.394531 L 91.011719 36.910156 L 91.011719 35.667969 L 90.183594 35.253906 L 74.390625 37.324219 M 66.078125 40.222656 L 64 38.152344 L 61.921875 40.222656 L 61.921875 59.691406 L 59.84375 60.933594 L 17.871094 174.015625 L 35.324219 174.015625 L 63.585938 166.558594 L 93.507812 174.015625 L 110.128906 174.015625 L 68.15625 60.933594 L 66.078125 59.691406 L 66.078125 40.222656 M 106.804688 12.054688 L 106.804688 10.8125 L 105.558594 10.398438 L 93.089844 18.269531 L 92.257812 13.714844 L 91.84375 12.886719 L 90.597656 13.300781 L 82.703125 21.167969 L 82.285156 18.269531 L 81.871094 17.441406 L 80.625 17.441406 L 70.648438 30.28125 L 71.066406 31.523438 L 72.3125 31.523438 L 79.792969 24.898438 L 80.207031 28.210938 L 80.625 29.039062 L 81.871094 28.625 L 89.765625 20.753906 L 90.183594 24.898438 L 91.011719 25.726562 L 91.84375 25.726562 L 106.804688 12.054688 M 114.285156 4.601562 C 116.226562 6.808594 117.054688 9.296875 116.777344 12.054688 C 116.777344 14.816406 115.671875 17.164062 113.453125 19.097656 L 102.234375 29.867188 C 106.113281 30.421875 108.746094 32.351562 110.128906 35.667969 L 110.960938 37.324219 L 115.117188 38.152344 L 121.765625 42.292969 C 123.429688 44.503906 123.984375 46.988281 123.429688 49.75 C 123.152344 52.789062 121.90625 55.136719 119.6875 56.792969 C 117.75 58.726562 115.394531 59.691406 112.625 59.691406 L 108.882812 59.277344 L 108.46875 63.003906 L 115.53125 69.632812 C 118.582031 72.671875 119.410156 76.261719 118.027344 80.402344 L 116.363281 83.714844 L 125.507812 95.3125 C 127.167969 97.800781 127.722656 100.421875 127.167969 103.183594 L 123.429688 110.226562 L 116.777344 112.710938 C 113.730469 112.710938 111.097656 111.605469 108.882812 109.398438 L 89.351562 90.34375 L 119.273438 170.699219 C 120.382812 173.738281 120.105469 176.777344 118.441406 179.8125 C 116.503906 182.574219 113.730469 183.957031 110.128906 183.957031 L 90.597656 183.957031 L 63.585938 176.5 L 38.234375 183.957031 L 17.871094 183.957031 C 14.269531 183.957031 11.496094 182.574219 9.558594 179.8125 C 7.894531 176.777344 7.617188 173.738281 8.726562 170.699219 L 38.648438 90.34375 L 19.117188 109.398438 C 16.902344 111.605469 14.269531 112.710938 11.222656 112.710938 L 4.570312 110.226562 L 0.832031 103.183594 C 0.277344 100.421875 0.832031 97.800781 2.492188 95.3125 L 11.636719 83.714844 L 9.972656 80.402344 C 8.589844 76.261719 9.417969 72.671875 12.46875 69.632812 L 19.53125 63.003906 L 19.117188 59.277344 L 15.375 59.691406 C 12.605469 59.691406 10.25 58.726562 8.3125 56.792969 C 6.09375 55.136719 4.847656 52.789062 4.570312 49.75 L 6.234375 42.292969 L 13.296875 38.152344 L 17.039062 37.324219 L 17.871094 35.667969 C 19.53125 32.351562 22.027344 30.421875 25.351562 29.867188 L 14.546875 19.511719 C 12.328125 17.304688 11.082031 14.816406 10.804688 12.054688 L 13.296875 4.601562 C 15.515625 1.839844 18.425781 0.457031 22.027344 0.457031 L 27.429688 2.117188 L 31.167969 4.601562 L 32.832031 3.773438 L 36.15625 3.359375 C 39.203125 3.359375 41.835938 4.324219 44.050781 6.257812 L 45.296875 7.5 L 46.128906 7.5 C 49.453125 7.5 52.363281 8.882812 54.855469 11.640625 L 63.585938 23.242188 L 72.726562 11.226562 C 74.945312 8.742188 77.851562 7.5 81.453125 7.5 L 82.285156 7.5 L 83.53125 6.257812 C 85.75 4.046875 88.382812 2.945312 91.429688 2.945312 L 94.753906 3.773438 L 96.414062 4.601562 L 99.742188 2.117188 L 105.972656 0.0429688 C 109.574219 0.0429688 112.347656 1.5625 114.285156 4.601562 "/>
</g>
</svg>
