<?xml version="1.0" encoding="UTF-8"?>
<svg xmlns="http://www.w3.org/2000/svg" xmlns:xlink="http://www.w3.org/1999/xlink" width="127pt" height="127pt" viewBox="0 0 127 127" version="1.1">
<g id="surface1">
<path style=" stroke:none;fill-rule:nonzero;fill:rgb(100%,100%,100%);fill-opacity:1;" d="M 119.613281 12.632812 L 120.179688 7.488281 L 119.613281 6.914062 C 113.742188 6.914062 108.53125 8.535156 103.988281 11.773438 C 99.0625 15.203125 93.09375 20.726562 86.085938 28.347656 L 18.183594 24.917969 L 7.671875 36.066406 L 29.832031 42.636719 L 55.6875 50.640625 C 57.960938 51.78125 59.191406 53.019531 59.378906 54.355469 C 59.570312 55.5 58.90625 57.023438 57.390625 58.925781 L 36.367188 82.363281 L 21.308594 82.363281 L 13.070312 90.648438 L 26.707031 96.078125 L 23.867188 100.078125 C 22.160156 102.9375 21.59375 104.652344 22.160156 105.222656 L 22.445312 105.511719 L 23.011719 105.796875 L 31.535156 101.222656 L 36.933594 114.941406 L 45.175781 106.367188 L 45.175781 91.222656 L 68.472656 70.074219 C 70.175781 68.546875 71.597656 67.785156 72.734375 67.785156 C 74.25 67.785156 75.574219 69.121094 76.710938 71.789062 L 91.203125 120.085938 L 102.28125 109.511719 L 98.871094 41.496094 C 106.449219 34.253906 111.941406 28.253906 115.351562 23.492188 C 117.433594 20.441406 118.855469 16.824219 119.613281 12.632812 M 100.007812 6.34375 C 105.691406 2.152344 112.226562 0.0546875 119.613281 0.0546875 L 119.898438 0.0546875 C 121.792969 0.0546875 123.304688 0.820312 124.441406 2.34375 L 124.726562 2.628906 C 126.242188 3.773438 127 5.296875 127 7.199219 C 127 14.820312 125.011719 21.585938 121.035156 27.492188 L 105.691406 44.351562 L 109.101562 109.226562 C 109.289062 111.320312 108.628906 113.128906 107.113281 114.65625 L 95.746094 125.230469 L 91.203125 126.945312 L 89.210938 126.945312 C 86.75 126.179688 85.234375 124.5625 84.667969 122.085938 L 71.027344 76.933594 L 51.992188 94.078125 L 51.992188 106.367188 C 51.992188 108.460938 51.332031 110.082031 50.003906 111.226562 L 41.765625 119.800781 C 40.25 121.132812 38.640625 121.800781 36.933594 121.800781 L 35.515625 121.511719 C 33.050781 120.941406 31.441406 119.511719 30.683594 117.226562 L 28.128906 111.226562 L 23.011719 112.65625 C 20.929688 112.65625 19.128906 111.890625 17.613281 110.367188 L 17.332031 110.082031 C 14.679688 107.414062 14.394531 103.890625 16.480469 99.507812 L 10.511719 96.9375 C 8.050781 95.984375 6.628906 94.363281 6.25 92.078125 C 5.683594 89.601562 6.34375 87.503906 8.238281 85.789062 L 16.480469 77.503906 C 17.804688 76.167969 19.414062 75.503906 21.308594 75.503906 L 33.527344 75.503906 L 50.574219 56.355469 L 5.683594 42.921875 C 3.21875 42.160156 1.703125 40.542969 1.136719 38.066406 C 0.378906 35.589844 0.851562 33.398438 2.558594 31.492188 L 13.070312 20.347656 C 14.585938 18.824219 16.289062 18.0625 18.183594 18.0625 L 82.960938 21.488281 C 90.347656 14.058594 96.03125 9.011719 100.007812 6.34375 "/>
</g>
</svg>
