<?xml version="1.0" encoding="UTF-8"?>
<svg xmlns="http://www.w3.org/2000/svg" xmlns:xlink="http://www.w3.org/1999/xlink" width="128pt" height="164pt" viewBox="0 0 128 164" version="1.1">
<g id="surface1">
<path style=" stroke:none;fill-rule:nonzero;fill:rgb(100%,100%,100%);fill-opacity:1;" d="M 64.554688 124.847656 L 69.75 123.371094 L 72.34375 124.109375 L 90.515625 124.109375 L 90.515625 137.40625 L 71.230469 137.40625 L 67.894531 139.621094 L 67.894531 139.253906 L 65.296875 136.296875 L 66.78125 132.234375 L 69.75 133.34375 L 86.066406 133.34375 L 86.066406 128.171875 L 69.007812 128.171875 L 54.542969 131.125 C 55.039062 130.632812 55.65625 127.1875 56.398438 120.785156 C 57.140625 121.277344 57.632812 123 57.878906 125.953125 L 59.734375 126.695312 L 64.554688 124.847656 M 64.925781 76.089844 C 65.917969 76.089844 66.410156 77.445312 66.410156 80.152344 L 67.894531 84.585938 C 68.386719 87.539062 67.523438 90.003906 65.296875 91.972656 C 60.847656 95.914062 54.542969 97.882812 46.382812 97.882812 L 45.640625 97.882812 C 42.429688 97.636719 39.089844 96.28125 35.628906 93.820312 L 35.257812 93.449219 L 31.179688 87.910156 C 30.4375 85.203125 30.929688 82.738281 32.660156 80.523438 L 35.628906 77.566406 L 34.515625 77.566406 L 33.402344 77.9375 L 30.4375 78.304688 C 28.457031 78.304688 28.210938 77.8125 29.695312 76.828125 L 34.144531 74.613281 L 38.597656 73.136719 L 41.5625 73.875 L 47.496094 74.613281 L 64.554688 76.089844 L 64.925781 76.089844 M 75.3125 9.234375 L 70.859375 8.863281 L 56.769531 10.710938 L 50.835938 12.558594 C 42.921875 16.253906 36.742188 21.175781 32.292969 27.332031 L 26.355469 38.046875 L 21.90625 52.820312 L 20.792969 62.054688 L 20.792969 75.722656 L 23.019531 91.234375 L 30.808594 116.351562 L 37.484375 127.0625 C 40.449219 131.25 42.304688 134.820312 43.046875 137.773438 C 44.28125 142.207031 46.753906 146.269531 50.464844 149.964844 L 56.769531 154.765625 L 70.121094 155.136719 L 71.230469 155.136719 L 74.570312 148.855469 L 75.3125 155.136719 L 92.371094 154.765625 L 95.707031 151.441406 L 98.304688 141.46875 C 98.550781 137.773438 100.53125 132.109375 104.238281 124.476562 C 107.699219 117.335938 110.667969 112.535156 113.140625 110.070312 C 114.871094 108.59375 115.363281 104.65625 114.621094 98.253906 L 114.253906 97.144531 L 112.398438 97.144531 C 109.429688 100.097656 105.847656 101.578125 101.644531 101.578125 C 97.6875 101.578125 94.226562 100.34375 91.257812 97.882812 L 86.808594 118.9375 L 72.34375 118.9375 L 69.007812 117.089844 L 66.039062 115.613281 L 63.445312 116.722656 L 60.105469 114.875 L 60.847656 111.550781 L 63.074219 110.070312 L 63.445312 110.441406 C 61.960938 111.671875 61.589844 113.148438 62.332031 114.875 C 62.824219 113.890625 63.816406 113.394531 65.296875 113.394531 L 66.78125 113.394531 C 68.511719 115.613281 70.984375 116.722656 74.199219 116.722656 L 79.019531 114.136719 L 79.019531 86.800781 C 79.019531 79.414062 83.097656 74.734375 91.257812 72.765625 L 112.398438 71.65625 L 118.703125 71.65625 L 118.332031 56.882812 C 117.09375 48.265625 114.621094 40.753906 110.914062 34.351562 C 107.207031 27.457031 99.789062 22.777344 88.664062 20.316406 L 89.035156 59.835938 L 86.808594 65.746094 C 85.078125 67.226562 83.222656 67.964844 81.246094 67.964844 L 74.941406 67.964844 L 75.3125 9.234375 M 118.703125 30.289062 L 121.296875 35.089844 C 124.265625 41.492188 126.242188 48.386719 127.230469 55.773438 L 127.972656 64.269531 L 127.972656 69.070312 L 126.863281 74.980469 C 125.871094 77.691406 124.019531 79.539062 121.296875 80.523438 L 117.960938 80.523438 L 118.703125 84.585938 L 117.960938 89.386719 L 121.296875 91.972656 L 122.039062 92.710938 L 123.523438 97.144531 L 123.523438 97.882812 L 123.894531 107.117188 L 121.296875 114.136719 L 119.074219 116.722656 C 117.34375 118.199219 114.992188 122.136719 112.027344 128.539062 C 108.8125 134.941406 107.207031 139.375 107.207031 141.835938 C 106.957031 147.992188 105.476562 153.289062 102.753906 157.722656 C 100.035156 161.660156 96.699219 163.628906 92.742188 163.628906 L 75.3125 164 L 73.457031 163.628906 L 71.230469 164 L 70.121094 164 L 54.542969 163.261719 L 43.046875 155.503906 C 38.84375 150.578125 36 145.410156 34.515625 139.992188 L 28.953125 130.386719 L 22.648438 120.414062 L 22.277344 119.304688 L 18.941406 119.304688 L 13.378906 117.828125 L 10.039062 113.394531 L 7.8125 110.070312 C 3.609375 105.886719 1.015625 99.851562 0.0273438 91.972656 L 0.0273438 77.199219 C 0.519531 74.488281 2.003906 72.273438 4.476562 70.550781 L 4.847656 70.550781 L 11.894531 67.964844 L 13.007812 51.34375 L 17.828125 34.351562 L 25.246094 21.792969 C 30.683594 14.40625 38.101562 8.742188 47.496094 4.800781 L 47.496094 4.433594 L 54.542969 2.214844 L 70.859375 0 L 71.972656 0.371094 L 75.3125 0.371094 C 77.785156 0.371094 79.761719 1.230469 81.246094 2.953125 C 83.222656 4.679688 84.210938 6.773438 84.210938 9.234375 L 84.210938 12.929688 L 88.664062 11.449219 L 90.886719 11.820312 C 104.484375 14.773438 113.757812 20.929688 118.703125 30.289062 "/>
</g>
</svg>
