<?xml version="1.0" encoding="UTF-8"?>
<svg xmlns="http://www.w3.org/2000/svg" xmlns:xlink="http://www.w3.org/1999/xlink" width="127pt" height="113pt" viewBox="0 0 127 113" version="1.1">
<g id="surface1">
<path style=" stroke:none;fill-rule:nonzero;fill:rgb(100%,100%,100%);fill-opacity:1;" d="M 112.007812 83.496094 C 116.8125 77.558594 118.382812 72.921875 116.722656 69.582031 C 113.949219 65.3125 107.574219 63.179688 97.59375 63.179688 L 92.605469 63.457031 L 90.941406 65.40625 L 89.832031 66.242188 L 91.773438 69.582031 C 88.632812 72.734375 84.105469 75.519531 78.191406 77.929688 C 72.832031 80.34375 68.210938 81.734375 64.332031 82.105469 L 64.332031 82.382812 L 61.835938 87.117188 C 60.359375 88.230469 58.695312 88.785156 56.847656 88.785156 L 50.195312 87.949219 L 45.207031 84.890625 C 44.097656 83.21875 43.632812 81.363281 43.820312 79.324219 L 43.820312 79.042969 L 37.167969 74.035156 L 38 69.304688 L 34.671875 61.789062 L 34.671875 60.117188 L 15.824219 56.777344 L 9.722656 57.890625 C 8.0625 58.449219 7.414062 61.417969 7.785156 66.796875 C 10 79.601562 15.914062 89.433594 25.523438 96.300781 C 34.949219 102.980469 47.332031 106.320312 62.667969 106.320312 L 67.933594 106.320312 C 81.054688 105.761719 91.21875 102.421875 98.425781 96.300781 L 112.007812 83.496094 M 83.734375 20.316406 L 74.585938 6.679688 L 72.09375 6.679688 L 67.65625 9.464844 C 61.375 14.289062 54.167969 26.625 46.035156 46.480469 L 42.710938 55.664062 L 42.988281 55.664062 L 46.589844 58.449219 C 47.515625 59.933594 47.882812 61.511719 47.699219 63.179688 L 46.035156 67.632812 L 46.589844 68.191406 C 48.070312 66.148438 50.101562 65.128906 52.6875 65.128906 L 53.796875 65.128906 L 59.34375 65.964844 C 62.296875 66.519531 64.238281 68.191406 65.164062 70.972656 C 71.261719 69.304688 76.898438 66.796875 82.070312 63.457031 C 82.070312 61.789062 82.535156 60.488281 83.457031 59.5625 L 86.230469 57.335938 L 82.070312 45.089844 L 78.746094 33.398438 L 88.171875 37.574219 L 96.761719 42.304688 L 98.148438 38.6875 L 98.703125 34.511719 L 103.414062 40.636719 L 106.742188 47.59375 C 106.371094 41.46875 104.339844 32.378906 100.644531 20.316406 L 98.425781 26.164062 C 97.871094 28.761719 97.039062 30.429688 95.933594 31.171875 C 91.496094 29.875 87.429688 26.253906 83.734375 20.316406 M 100.644531 13.636719 L 101.753906 13.636719 C 104.523438 14.195312 106.28125 15.773438 107.019531 18.371094 C 110.714844 29.875 112.839844 39.429688 113.394531 47.035156 L 112.5625 51.210938 L 108.683594 53.714844 L 106.742188 53.996094 C 104.15625 53.996094 102.214844 52.789062 100.921875 50.375 L 99.8125 48.429688 L 96.761719 48.984375 L 94.546875 48.429688 C 92.882812 47.871094 91.21875 47.128906 89.554688 46.203125 L 92.882812 56.777344 L 97.59375 56.5 C 109.976562 56.5 118.199219 59.65625 122.265625 65.964844 L 122.542969 66.519531 C 125.5 71.902344 124.390625 78.117188 119.214844 85.167969 L 102.863281 101.03125 L 102.585938 101.308594 C 94.269531 108.359375 82.902344 112.257812 68.488281 113 L 62.667969 113 C 45.480469 113 31.621094 109.101562 21.089844 101.308594 C 10.371094 93.515625 3.71875 82.382812 1.132812 67.910156 L 1.132812 67.355469 C 0.390625 58.820312 2.425781 53.625 7.230469 51.769531 L 15.824219 50.375 L 36.335938 53.714844 L 39.382812 45.367188 L 39.9375 43.976562 C 48.625 23.007812 56.476562 9.742188 63.5 4.175781 L 69.320312 0.558594 L 72.09375 0 L 74.585938 0 C 76.4375 0 78.007812 0.648438 79.300781 1.949219 L 87.339844 13.359375 L 92.882812 21.710938 L 95.101562 16.699219 C 96.394531 14.660156 98.242188 13.636719 100.644531 13.636719 "/>
</g>
</svg>
