<?xml version="1.0" encoding="UTF-8"?>
<svg xmlns="http://www.w3.org/2000/svg" xmlns:xlink="http://www.w3.org/1999/xlink" width="128pt" height="153pt" viewBox="0 0 128 153" version="1.1">
<g id="surface1">
<path style=" stroke:none;fill-rule:nonzero;fill:rgb(100%,100%,100%);fill-opacity:1;" d="M 48.8125 66.5625 C 48.8125 60.542969 51.585938 56.207031 57.128906 53.558594 L 57.128906 79.933594 C 51.585938 77.042969 48.8125 72.585938 48.8125 66.5625 M 57.128906 44.164062 L 50.984375 46.691406 L 50.621094 47.054688 L 45.199219 41.996094 L 40.859375 45.96875 L 44.472656 50.667969 L 44.835938 51.390625 L 44.472656 51.75 L 40.496094 58.976562 L 40.496094 59.339844 L 32.902344 58.976562 L 31.820312 65.121094 L 39.050781 66.925781 L 39.414062 66.925781 L 39.414062 67.285156 L 40.859375 75.597656 L 41.21875 75.957031 L 40.859375 76.320312 L 35.074219 80.65625 L 37.964844 85.714844 L 45.199219 82.460938 L 45.558594 82.824219 L 51.707031 87.519531 L 52.066406 87.878906 L 52.066406 88.242188 L 50.261719 95.46875 L 56.046875 97.636719 L 57.128906 95.828125 L 57.128906 110.640625 C 47.003906 109.195312 38.570312 104.5 31.820312 96.550781 C 25.070312 88.84375 21.695312 79.933594 21.695312 69.816406 C 21.695312 59.21875 25.070312 50.1875 31.820312 42.71875 C 38.570312 35.011719 47.003906 30.074219 57.128906 27.90625 L 57.128906 44.164062 M 70.871094 53.558594 C 76.414062 56.207031 79.1875 60.542969 79.1875 66.5625 C 79.1875 72.585938 76.414062 77.042969 70.871094 79.933594 L 70.871094 53.558594 M 83.164062 51.390625 L 83.527344 50.667969 L 87.503906 45.96875 L 82.800781 41.996094 L 77.738281 46.691406 L 77.738281 47.054688 L 77.015625 46.691406 L 70.871094 44.164062 L 70.871094 27.90625 C 81.234375 30.074219 89.671875 35.011719 96.179688 42.71875 C 102.929688 50.1875 106.304688 59.21875 106.304688 69.816406 C 106.304688 79.933594 102.929688 88.84375 96.179688 96.550781 C 89.671875 104.5 81.234375 109.195312 70.871094 110.640625 L 70.871094 95.828125 L 71.59375 97.636719 L 77.738281 95.46875 L 76.292969 88.242188 L 75.933594 87.878906 L 76.292969 87.519531 L 82.441406 82.824219 L 82.800781 82.460938 L 90.035156 85.714844 L 92.925781 80.65625 L 87.140625 76.320312 L 86.78125 75.957031 L 86.78125 75.597656 L 88.585938 67.285156 L 88.949219 66.925781 L 89.3125 66.925781 L 95.820312 65.121094 L 95.097656 58.976562 L 87.863281 59.339844 L 87.503906 59.339844 L 87.503906 58.976562 L 83.527344 51.75 L 83.164062 51.390625 M 69.421875 21.042969 L 66.167969 12.730469 L 64 8.035156 L 61.832031 12.730469 L 58.578125 21.042969 C 44.59375 22.726562 32.664062 29.109375 22.78125 40.191406 C 13.136719 51.027344 8.316406 64.035156 8.316406 79.210938 C 8.316406 93.660156 13.136719 106.667969 22.78125 118.230469 C 32.421875 129.070312 44.234375 135.332031 58.214844 137.015625 L 58.214844 138.824219 L 60.023438 143.160156 C 60.988281 144.121094 62.3125 144.605469 64 144.605469 L 68.339844 143.160156 L 69.785156 138.824219 L 69.785156 137.015625 C 83.765625 135.332031 95.457031 129.070312 104.859375 118.230469 C 114.742188 106.667969 119.683594 93.660156 119.683594 79.210938 C 119.683594 64.035156 114.742188 51.027344 104.859375 40.191406 C 95.457031 29.109375 83.644531 22.726562 69.421875 21.042969 M 70.871094 4.058594 L 75.933594 14.175781 C 90.878906 16.824219 103.292969 24.414062 113.175781 36.9375 C 123.058594 48.742188 128 62.832031 128 79.210938 C 128 94.625 123.179688 108.59375 113.535156 121.121094 C 104.136719 133.402344 92.082031 141.113281 77.378906 144.242188 L 71.59375 150.746094 L 64 152.914062 L 56.046875 150.746094 L 50.621094 144.242188 C 35.917969 141.113281 23.863281 133.402344 14.464844 121.121094 C 4.820312 108.59375 0 94.625 0 79.210938 C 0 62.832031 4.941406 48.742188 14.824219 36.9375 C 24.46875 24.414062 36.882812 16.824219 52.066406 14.175781 L 57.128906 4.058594 L 64 0.0859375 L 70.871094 4.058594 "/>
</g>
</svg>
