<?xml version="1.0" encoding="UTF-8"?>
<svg xmlns="http://www.w3.org/2000/svg" xmlns:xlink="http://www.w3.org/1999/xlink" width="128pt" height="142pt" viewBox="0 0 128 142" version="1.1">
<g id="surface1">
<path style=" stroke:none;fill-rule:nonzero;fill:rgb(100%,100%,100%);fill-opacity:1;" d="M 29.589844 118.332031 L 29.589844 80.59375 C 37.308594 89.761719 47.0625 94.988281 58.855469 96.265625 L 58.855469 118.332031 L 29.589844 118.332031 M 51.136719 102.664062 L 37.308594 97.226562 L 37.308594 110.65625 L 51.136719 110.65625 L 51.136719 102.664062 M 98.410156 80.59375 L 98.410156 118.332031 L 69.144531 118.332031 L 69.144531 96.265625 C 80.9375 94.988281 90.691406 89.761719 98.410156 80.59375 M 90.691406 97.226562 L 76.863281 102.664062 L 76.863281 110.65625 L 90.691406 110.65625 L 90.691406 97.226562 M 97.765625 12.152344 C 107.414062 20.253906 113.414062 30.488281 115.773438 42.855469 L 115.128906 47.011719 L 116.417969 51.171875 L 116.417969 110.65625 L 120.277344 110.65625 C 122.417969 110.65625 124.242188 111.402344 125.742188 112.894531 C 127.242188 114.601562 127.992188 116.414062 127.992188 118.332031 L 127.992188 134.324219 C 127.992188 136.457031 127.242188 138.269531 125.742188 139.761719 C 124.242188 141.253906 122.417969 142 120.277344 142 L 7.722656 142 L 2.578125 139.761719 C 0.863281 138.269531 0.0078125 136.457031 0.0078125 134.324219 L 0.0078125 118.332031 C 0.0078125 116.414062 0.863281 114.601562 2.578125 112.894531 C 4.078125 111.402344 5.792969 110.65625 7.722656 110.65625 L 11.582031 110.65625 L 11.582031 51.171875 L 12.871094 47.011719 L 12.546875 42.855469 C 14.691406 30.488281 20.695312 20.253906 30.554688 12.152344 C 40.203125 4.050781 51.351562 0 64 0 C 76.648438 0 87.902344 4.050781 97.765625 12.152344 M 107.734375 42.855469 C 105.589844 32.835938 100.445312 24.519531 92.296875 17.910156 C 84.152344 11.085938 74.71875 7.675781 64 7.675781 C 53.28125 7.675781 43.847656 11.085938 35.703125 17.910156 C 27.769531 24.519531 22.625 32.835938 20.265625 42.855469 L 19.300781 51.8125 L 19.300781 118.332031 L 7.722656 118.332031 L 7.722656 134.324219 L 120.277344 134.324219 L 120.277344 118.332031 L 108.699219 118.332031 L 108.699219 51.8125 L 107.734375 42.855469 "/>
</g>
</svg>
