<?xml version="1.0" encoding="UTF-8"?>
<svg xmlns="http://www.w3.org/2000/svg" xmlns:xlink="http://www.w3.org/1999/xlink" width="128pt" height="128pt" viewBox="0 0 128 128" version="1.1">
<g id="surface1">
<path style=" stroke:none;fill-rule:nonzero;fill:rgb(100%,100%,100%);fill-opacity:1;" d="M 65.667969 19.667969 L 65.667969 6.667969 L 62.667969 6.667969 L 62.667969 19.667969 C 58.222656 19.890625 55 21.777344 53 25.332031 L 51.332031 30.667969 L 51.332031 44 L 46 45.332031 L 46 54.332031 L 40.667969 57.667969 L 26.332031 57.667969 L 26.332031 66 L 13.667969 73.332031 L 20 73.332031 L 20 114.332031 L 7 114.332031 L 7 121 L 121 121 L 121 114.332031 L 106.332031 114.332031 L 106.332031 73.332031 L 114 73.332031 L 101 65.667969 L 101 57.667969 L 86.667969 57.667969 L 82 55 L 82 45.332031 L 77 44 L 77 30.667969 L 75.332031 25.332031 C 73.332031 21.777344 70.109375 19.890625 65.667969 19.667969 M 70.332031 2 L 72.332031 6.667969 L 72.332031 14.332031 C 76.332031 15.667969 79.332031 18.109375 81.332031 21.667969 L 84 30.332031 L 84 38.667969 L 87.667969 41.332031 L 89 45.332031 L 89 50.667969 L 101 50.667969 L 106 52.667969 L 108 57.667969 L 108 61.667969 L 117.667969 67.332031 C 120.554688 69.109375 121.667969 71.667969 121 75 L 118.332031 78.667969 L 114 80.332031 L 113 80.332031 L 113 107.332031 L 121 107.332031 C 123 107.332031 124.667969 108.109375 126 109.667969 L 128 114.332031 L 128 121 L 126 125.667969 L 121 128 L 7 128 L 2 125.667969 L 0 121 L 0 114.332031 L 2 109.667969 C 3.332031 108.109375 5 107.332031 7 107.332031 L 13 107.332031 L 13 80.332031 C 9.667969 79.890625 7.667969 78.109375 7 75 L 7.332031 70.667969 L 10.332031 67.332031 L 19.332031 62 L 19.332031 57.667969 L 21.332031 52.667969 L 26.332031 50.667969 L 39 50.667969 L 39 45.332031 L 40.332031 41.332031 L 44 38.667969 L 44.332031 38.667969 L 44.332031 30.332031 C 44.332031 27.445312 45.222656 24.554688 47 21.667969 L 56 14.332031 L 56 6.667969 L 58 2 L 62.667969 0 L 65.667969 0 L 70.332031 2 "/>
</g>
</svg>
