<?xml version="1.0" encoding="UTF-8"?>
<svg xmlns="http://www.w3.org/2000/svg" xmlns:xlink="http://www.w3.org/1999/xlink" width="128pt" height="129pt" viewBox="0 0 128 129" version="1.1">
<g id="surface1">
<path style=" stroke:none;fill-rule:nonzero;fill:rgb(100%,100%,100%);fill-opacity:1;" d="M 64.90625 106.609375 L 66.414062 121.703125 L 60.378906 121.703125 L 59.167969 106.609375 L 60.378906 92.121094 L 66.414062 92.121094 L 64.90625 106.609375 M 120.753906 64.347656 C 120.753906 48.851562 115.21875 35.46875 104.152344 24.199219 C 93.28125 12.929688 80.101562 7.296875 64.605469 7.296875 C 49.710938 7.296875 36.832031 12.226562 25.960938 22.085938 C 15.296875 31.746094 9.15625 43.722656 7.546875 58.011719 L 22.039062 56.5 L 36.832031 58.011719 L 36.832031 64.046875 L 22.039062 62.539062 L 7.246094 64.046875 L 7.246094 58.613281 L 6.945312 64.347656 C 6.945312 80.449219 12.578125 94.132812 23.847656 105.402344 C 34.917969 116.472656 48.503906 122.007812 64.605469 122.007812 C 80.101562 122.007812 93.28125 116.472656 104.152344 105.402344 C 115.21875 94.132812 120.753906 80.449219 120.753906 64.347656 M 64.605469 0.0507812 C 81.910156 0.0507812 96.703125 6.390625 108.980469 19.070312 C 121.660156 31.546875 128 46.640625 128 64.347656 C 128 82.261719 121.660156 97.65625 108.980469 110.535156 C 96.703125 122.8125 81.910156 128.949219 64.605469 128.949219 C 46.894531 128.949219 31.796875 123.011719 19.320312 111.136719 C 7.042969 98.660156 0.605469 83.667969 0 66.160156 L 0.300781 58.011719 L 0.605469 57.105469 C 2.414062 41.003906 9.359375 27.519531 21.433594 16.652344 C 33.710938 5.585938 48.101562 0.0507812 64.605469 0.0507812 M 105.054688 61.632812 L 120.152344 60.425781 L 120.152344 66.460938 L 105.054688 67.667969 L 91.167969 66.460938 L 91.167969 60.425781 L 105.054688 61.632812 M 76.679688 52.578125 C 73.257812 49.355469 69.132812 47.746094 64.300781 47.746094 C 59.269531 47.746094 55.042969 49.355469 51.621094 52.578125 C 48.402344 55.996094 46.792969 60.023438 46.792969 64.652344 C 46.792969 69.480469 48.402344 73.707031 51.621094 77.328125 C 55.042969 80.75 59.269531 82.460938 64.300781 82.460938 C 69.132812 82.460938 73.257812 80.75 76.679688 77.328125 C 79.699219 73.707031 81.207031 69.480469 81.207031 64.652344 C 81.207031 60.023438 79.699219 55.996094 76.679688 52.578125 M 64.300781 40.804688 C 70.945312 40.804688 76.578125 43.21875 81.207031 48.046875 C 85.835938 52.476562 88.152344 58.011719 88.152344 64.652344 C 88.152344 71.695312 85.835938 77.53125 81.207031 82.160156 C 76.578125 86.988281 70.945312 89.402344 64.300781 89.402344 C 57.460938 89.402344 51.621094 86.988281 46.792969 82.160156 C 42.164062 77.53125 39.847656 71.695312 39.847656 64.652344 C 39.847656 58.011719 42.164062 52.476562 46.792969 48.046875 C 51.621094 43.21875 57.460938 40.804688 64.300781 40.804688 M 68.832031 9.105469 L 70.039062 23.898438 L 68.832031 38.691406 L 62.792969 38.691406 L 64 23.898438 L 62.792969 9.105469 L 68.832031 9.105469 "/>
</g>
</svg>
