<?xml version="1.0" encoding="UTF-8"?>
<svg xmlns="http://www.w3.org/2000/svg" xmlns:xlink="http://www.w3.org/1999/xlink" width="128pt" height="103pt" viewBox="0 0 128 103" version="1.1">
<g id="surface1">
<path style=" stroke:none;fill-rule:nonzero;fill:rgb(100%,100%,100%);fill-opacity:1;" d="M 61.117188 55.96875 L 45.550781 55.96875 L 61.117188 38.09375 L 61.117188 55.96875 M 23.351562 35.210938 L 38.917969 35.210938 L 38.917969 53.375 L 23.351562 35.210938 M 42.089844 35.210938 L 59.097656 35.210938 L 42.089844 54.527344 L 42.089844 35.210938 M 80.433594 55.96875 L 64.289062 55.96875 L 64.289062 38.09375 L 80.433594 55.96875 M 87.0625 35.210938 L 104.648438 35.210938 L 87.0625 54.238281 L 87.0625 35.210938 M 66.304688 35.210938 L 83.890625 35.210938 L 83.890625 54.527344 L 66.304688 35.210938 M 85.332031 8.6875 L 84.757812 8.6875 C 83.988281 7.535156 82.164062 6.960938 79.277344 6.960938 C 75.433594 6.960938 73.511719 7.726562 73.511719 9.265625 C 73.511719 10.804688 75.433594 11.570312 79.277344 11.570312 L 82.164062 11.285156 L 82.164062 26.851562 L 42.667969 26.851562 L 42.667969 9.84375 L 42.089844 9.84375 L 36.324219 8.113281 L 32.578125 8.6875 L 30.847656 10.417969 L 32.578125 12.148438 L 36.324219 12.726562 L 39.496094 12.4375 L 39.496094 26.851562 L 6.917969 26.851562 L 6.917969 35.210938 L 19.027344 35.210938 L 36.613281 55.96875 L 6.917969 55.96875 L 6.917969 60.871094 L 18.738281 60.871094 L 17.007812 90.5625 L 13.261719 90.5625 L 13.261719 96.039062 L 32 96.039062 L 32 90.5625 L 27.675781 90.5625 L 25.945312 60.871094 L 59.964844 60.871094 L 58.234375 90.5625 L 54.199219 90.5625 L 54.199219 96.039062 L 73.226562 96.039062 L 73.226562 90.5625 L 68.902344 90.5625 L 67.171875 60.871094 L 100.035156 60.871094 L 98.304688 90.5625 L 94.558594 90.5625 L 94.558594 96.039062 L 113.585938 96.039062 L 113.585938 90.5625 L 108.972656 90.5625 L 107.242188 60.871094 L 121.082031 60.871094 L 121.082031 55.96875 L 89.945312 55.96875 L 109.261719 35.210938 L 121.082031 35.210938 L 121.082031 26.851562 L 85.332031 26.851562 L 85.332031 8.6875 M 66.59375 9.265625 C 66.59375 6.765625 67.652344 4.652344 69.765625 2.921875 C 72.070312 1 75.242188 0.0390625 79.277344 0.0390625 C 82.738281 0.0390625 85.621094 0.714844 87.929688 2.058594 C 90.8125 3.210938 92.253906 5.421875 92.253906 8.6875 L 92.253906 19.933594 L 121.082031 19.933594 L 125.980469 21.664062 L 128 26.851562 L 128 35.210938 C 128 37.132812 127.328125 38.765625 125.980469 40.113281 C 124.828125 41.457031 123.195312 42.128906 121.082031 42.128906 L 112.144531 42.128906 L 105.800781 49.050781 L 121.082031 49.050781 C 123.195312 49.050781 124.828125 49.722656 125.980469 51.066406 C 127.328125 52.414062 128 54.046875 128 55.96875 L 128 60.871094 L 125.980469 65.769531 C 124.828125 67.117188 123.195312 67.789062 121.082031 67.789062 L 115.027344 67.789062 L 115.890625 74.996094 L 115.890625 83.933594 C 118.96875 85.085938 120.503906 87.296875 120.503906 90.5625 L 120.503906 96.039062 L 118.488281 100.941406 C 117.140625 102.285156 115.507812 102.960938 113.585938 102.960938 L 94.558594 102.960938 C 92.636719 102.960938 91.003906 102.285156 89.65625 100.941406 C 88.3125 99.597656 87.640625 97.960938 87.640625 96.039062 L 87.640625 90.5625 C 87.640625 87.679688 88.890625 85.566406 91.386719 84.222656 L 91.386719 74.996094 L 92.253906 67.789062 L 74.953125 67.789062 L 75.820312 74.996094 L 75.820312 83.933594 C 78.703125 85.46875 80.144531 87.679688 80.144531 90.5625 L 80.144531 96.039062 C 80.144531 97.960938 79.375 99.597656 77.835938 100.941406 C 76.683594 102.285156 75.148438 102.960938 73.226562 102.960938 L 54.199219 102.960938 C 52.46875 102.960938 50.835938 102.285156 49.296875 100.941406 C 47.953125 99.597656 47.277344 97.960938 47.277344 96.039062 L 47.277344 90.5625 C 47.277344 87.488281 48.625 85.375 51.316406 84.222656 L 51.316406 74.996094 L 52.179688 67.789062 L 33.730469 67.789062 L 34.59375 74.996094 L 34.59375 83.933594 C 37.476562 85.085938 38.917969 87.296875 38.917969 90.5625 L 38.917969 96.039062 C 38.917969 97.960938 38.246094 99.597656 36.902344 100.941406 C 35.746094 102.285156 34.113281 102.960938 32 102.960938 L 13.261719 102.960938 L 8.359375 100.941406 L 6.34375 96.039062 L 6.34375 90.5625 C 6.34375 87.679688 7.589844 85.664062 10.089844 84.507812 L 10.089844 74.996094 L 10.953125 67.789062 L 6.917969 67.789062 C 5.1875 67.789062 3.652344 67.117188 2.304688 65.769531 C 0.769531 64.425781 0 62.792969 0 60.871094 L 0 55.96875 C 0 54.046875 0.769531 52.414062 2.304688 51.066406 C 3.652344 49.722656 5.1875 49.050781 6.917969 49.050781 L 21.621094 49.050781 L 15.855469 42.128906 L 6.917969 42.128906 C 4.996094 42.128906 3.460938 41.457031 2.304688 40.113281 C 0.769531 38.765625 0 37.132812 0 35.210938 L 0 26.851562 C 0 24.929688 0.769531 23.199219 2.304688 21.664062 L 6.917969 19.933594 L 32.578125 19.933594 L 32.578125 19.355469 C 29.695312 18.777344 27.484375 17.625 25.945312 15.894531 C 24.601562 14.359375 23.929688 12.53125 23.929688 10.417969 C 23.929688 7.921875 24.890625 5.804688 26.8125 4.078125 C 29.117188 2.15625 32.289062 1.195312 36.324219 1.195312 C 39.785156 1.195312 42.667969 1.960938 44.972656 3.5 C 48.046875 4.460938 49.585938 6.574219 49.585938 9.84375 L 49.585938 19.933594 L 75.242188 19.933594 L 75.242188 18.203125 C 69.476562 16.855469 66.59375 13.878906 66.59375 9.265625 "/>
</g>
</svg>
