<?xml version="1.0" encoding="UTF-8"?>
<svg xmlns="http://www.w3.org/2000/svg" xmlns:xlink="http://www.w3.org/1999/xlink" width="128pt" height="187pt" viewBox="0 0 128 187" version="1.1">
<g id="surface1">
<path style=" stroke:none;fill-rule:nonzero;fill:rgb(100%,100%,100%);fill-opacity:1;" d="M 93.605469 101.085938 L 93.605469 118.429688 L 53.550781 118.429688 L 53.550781 101.085938 L 93.605469 101.085938 M 93.605469 69.4375 L 93.605469 87.648438 L 53.550781 87.648438 L 53.550781 69.4375 L 93.605469 69.4375 M 91.429688 17.84375 L 91.429688 28.25 L 58.339844 28.25 L 58.339844 34.753906 L 27.863281 34.753906 L 27.863281 43.421875 L 58.339844 43.421875 L 58.339844 60.765625 L 24.382812 60.765625 L 24.382812 69.4375 L 40.925781 69.4375 L 40.925781 119.296875 L 10.011719 119.296875 L 10.011719 176.960938 L 117.988281 176.960938 L 117.988281 12.207031 L 91.429688 17.84375 M 81.851562 10.039062 L 128 0.0664062 L 128 186.933594 L 0 186.933594 L 0 109.324219 L 30.910156 109.324219 L 30.910156 79.84375 L 14.367188 79.84375 L 14.367188 51.226562 L 17.851562 51.226562 L 17.851562 24.347656 L 48.328125 24.347656 L 48.328125 17.84375 L 81.851562 17.84375 L 81.851562 10.039062 "/>
</g>
</svg>
