<?xml version="1.0" encoding="UTF-8"?>
<svg xmlns="http://www.w3.org/2000/svg" xmlns:xlink="http://www.w3.org/1999/xlink" width="128pt" height="135pt" viewBox="0 0 128 135" version="1.1">
<g id="surface1">
<path style=" stroke:none;fill-rule:nonzero;fill:rgb(100%,100%,100%);fill-opacity:1;" d="M 94.316406 121.621094 L 94.621094 121.011719 L 95.539062 119.796875 L 97.683594 118.578125 L 101.359375 121.621094 C 104.828125 125.472656 107.890625 127.394531 110.546875 127.394531 L 120.957031 127.394531 L 120.957031 120.402344 L 111.15625 120.402344 L 107.484375 117.058594 L 103.195312 113.105469 L 97.683594 111.28125 C 93.398438 111.28125 90.027344 113.207031 87.578125 117.058594 L 87.273438 117.972656 L 84.824219 120.402344 L 81.453125 117.058594 L 77.167969 113.105469 C 75.332031 111.890625 73.492188 111.28125 71.65625 111.28125 C 67.574219 111.28125 64.304688 113.207031 61.855469 117.058594 L 61.242188 117.972656 L 59.101562 120.402344 L 55.425781 117.058594 C 51.75 113.207031 48.585938 111.28125 45.933594 111.28125 C 41.644531 111.28125 38.277344 113.207031 35.828125 117.058594 L 35.214844 117.972656 L 32.765625 120.402344 L 7.347656 120.402344 L 7.347656 127.394531 L 32.765625 127.394531 C 37.257812 127.394531 40.421875 125.472656 42.257812 121.621094 L 42.566406 121.011719 L 43.484375 119.492188 L 45.625 118.578125 L 49.300781 121.621094 C 52.773438 125.472656 55.9375 127.394531 58.792969 127.394531 C 63.082031 127.394531 66.246094 125.472656 68.285156 121.621094 L 68.59375 121.011719 L 71.65625 118.578125 L 75.332031 121.621094 C 79.003906 125.472656 82.167969 127.394531 84.824219 127.394531 C 88.90625 127.394531 92.070312 125.472656 94.316406 121.621094 M 101.359375 1.21875 C 104.011719 2.636719 105.339844 4.765625 105.339844 7.605469 C 105.339844 10.441406 104.21875 13.480469 101.972656 16.726562 L 101.359375 17.636719 L 101.359375 21.894531 C 101.15625 25.949219 99.523438 31.621094 96.460938 38.921875 L 87.578125 55.640625 L 81.453125 61.417969 L 73.800781 86.046875 L 78.085938 87.871094 C 82.78125 74.898438 86.558594 65.371094 89.417969 59.289062 C 92.886719 51.589844 96.152344 46.722656 99.214844 44.695312 L 103.808594 43.175781 L 107.484375 43.175781 L 116.667969 44.089844 C 119.527344 45.304688 121.160156 47.332031 121.570312 50.167969 L 127.082031 78.445312 L 127.082031 80.574219 C 127.082031 84.019531 125.550781 86.351562 122.488281 87.566406 L 119.730469 87.871094 C 117.691406 87.871094 115.851562 87.160156 114.21875 85.742188 L 108.402344 78.140625 L 105.035156 89.695312 C 106.460938 90.304688 109.015625 92.332031 112.6875 95.777344 L 113.609375 96.6875 L 120.652344 96.6875 C 122.894531 96.6875 124.632812 97.398438 125.855469 98.816406 C 127.285156 100.234375 128 101.957031 128 103.984375 L 128 127.699219 L 125.855469 132.566406 C 124.632812 134.1875 122.894531 134.996094 120.652344 134.996094 L 110.546875 134.996094 C 106.054688 134.996094 101.765625 132.96875 97.683594 128.917969 C 94.007812 132.96875 89.621094 134.996094 84.515625 134.996094 C 80.230469 134.996094 76.042969 132.96875 71.960938 128.917969 C 68.285156 132.96875 63.898438 134.996094 58.792969 134.996094 C 54.507812 134.996094 50.21875 132.96875 45.933594 128.917969 C 42.460938 132.96875 37.972656 134.996094 32.460938 134.996094 L 7.347656 134.996094 C 5.308594 134.996094 3.574219 134.1875 2.144531 132.566406 L 0 127.699219 L 0 103.984375 L 2.144531 98.816406 C 3.574219 97.398438 5.308594 96.6875 7.347656 96.6875 L 8.878906 96.6875 C 6.839844 69.324219 8.777344 51.589844 14.699219 43.480469 C 16.128906 41.453125 18.066406 40.441406 20.515625 40.441406 L 23.273438 41.046875 L 26.027344 43.175781 L 29.089844 32.230469 L 31.847656 24.628906 C 33.277344 21.792969 35.523438 20.375 38.582031 20.375 L 40.726562 20.675781 C 42.566406 21.285156 43.992188 22.300781 45.015625 23.71875 L 45.933594 28.886719 L 44.402344 39.222656 L 44.402344 41.65625 L 46.851562 37.398438 L 52.667969 29.496094 L 58.183594 25.847656 L 58.792969 24.324219 L 59.101562 24.023438 C 60.734375 19.5625 63.488281 17.332031 67.367188 17.332031 L 69.511719 17.332031 C 72.164062 17.941406 74.105469 19.359375 75.332031 21.589844 C 78.597656 15.710938 82.375 11.859375 86.660156 10.035156 L 90.027344 3.953125 C 91.457031 1.320312 93.703125 0.00390625 96.765625 0.00390625 L 101.359375 1.21875 M 97.070312 7.605469 L 96.765625 7.605469 L 96.765625 7.300781 L 94.316406 11.253906 L 92.171875 15.8125 C 85.230469 17.027344 78.699219 27.773438 72.574219 48.042969 C 71.960938 50.269531 72.371094 52.296875 73.800781 54.121094 L 58.183594 102.160156 L 55.730469 101.25 L 55.425781 100.640625 L 51.140625 96.6875 C 49.300781 95.472656 47.464844 94.863281 45.625 94.863281 L 44.09375 95.167969 L 47.15625 78.75 L 50.832031 63.242188 C 53.488281 63.039062 55.628906 61.925781 57.261719 59.898438 L 60.9375 53.210938 C 65.019531 45.304688 66.347656 38.3125 64.917969 32.230469 L 67.367188 28.277344 L 68.59375 26.148438 L 67.980469 24.628906 L 67.367188 24.628906 L 66.144531 25.542969 L 65.226562 27.671875 L 63.386719 31.925781 C 61.140625 32.128906 59.304688 33.042969 57.875 34.664062 L 52.976562 41.351562 C 47.054688 51.082031 45.730469 58.175781 48.996094 62.636719 L 41.035156 92.429688 L 40.726562 96.078125 L 39.195312 96.992188 C 36.339844 80.574219 35.625 61.214844 37.050781 38.921875 L 38.582031 27.671875 L 36.132812 34.359375 L 30.621094 60.8125 L 29.398438 103.984375 L 25.109375 103.984375 L 22.046875 83.917969 C 20.210938 68.714844 19.699219 56.65625 20.515625 47.738281 C 16.84375 52.601562 15.207031 63.445312 15.617188 80.269531 L 16.84375 103.984375 L 7.347656 103.984375 L 7.347656 111.28125 L 31.234375 111.28125 L 37.972656 105.808594 L 48.078125 104.289062 C 51.34375 104.898438 54.710938 106.722656 58.183594 109.761719 L 64.917969 105.203125 L 74.410156 104.289062 C 77.679688 104.898438 80.945312 106.722656 84.210938 109.761719 C 90.128906 104.085938 95.4375 102.261719 100.132812 104.289062 C 104.011719 105.101562 107.789062 107.328125 111.464844 110.976562 L 120.652344 110.976562 L 120.652344 103.984375 L 110.851562 103.984375 L 107.484375 100.640625 C 103.808594 96.789062 100.542969 94.863281 97.683594 94.863281 L 95.847656 95.167969 L 106.566406 62.027344 L 112.996094 71.453125 L 119.730469 80.574219 L 119.730469 79.964844 L 114.21875 51.082031 L 107.484375 50.472656 L 103.808594 50.472656 C 100.746094 52.703125 96.460938 60.8125 90.949219 74.796875 L 81.148438 100.640625 C 77.882812 95.777344 74.71875 93.242188 71.65625 93.039062 L 71.042969 93.039062 C 67.980469 93.039062 64.917969 95.167969 61.855469 99.425781 L 75.332031 55.945312 L 77.78125 55.035156 L 81.761719 51.386719 L 89.722656 35.878906 C 92.375 29.597656 93.804688 24.730469 94.007812 21.285156 L 93.703125 16.421875 L 96.460938 12.164062 L 97.992188 7.90625 L 97.070312 7.605469 "/>
</g>
</svg>
