<?xml version="1.0" encoding="UTF-8"?>
<svg xmlns="http://www.w3.org/2000/svg" xmlns:xlink="http://www.w3.org/1999/xlink" width="128pt" height="153pt" viewBox="0 0 128 153" version="1.1">
<g id="surface1">
<path style=" stroke:none;fill-rule:nonzero;fill:rgb(100%,100%,100%);fill-opacity:1;" d="M 73.183594 1.722656 L 78.378906 0 L 80.457031 0.34375 C 94.546875 4.019531 105.867188 11.601562 114.414062 23.085938 C 123.421875 34.574219 127.925781 47.4375 127.925781 61.683594 L 127.925781 144.730469 C 127.925781 147.027344 127.117188 148.980469 125.5 150.585938 C 123.882812 152.195312 121.921875 153 119.609375 153 L 8.390625 153 C 6.078125 153 4.117188 152.195312 2.5 150.585938 L 0.0742188 144.730469 L 0.0742188 61.683594 C 0.0742188 47.4375 4.460938 34.574219 13.238281 23.085938 C 22.015625 11.601562 33.453125 4.019531 47.542969 0.34375 L 49.621094 0 L 54.816406 1.722656 C 56.898438 3.332031 57.9375 5.511719 57.9375 8.269531 L 57.9375 22.742188 L 64.171875 22.054688 L 70.0625 22.742188 L 70.0625 8.269531 C 70.0625 5.742188 71.101562 3.5625 73.183594 1.722656 M 72.488281 32.390625 C 69.949219 30.554688 67.175781 29.636719 64.171875 29.636719 L 55.164062 32.390625 L 49.621094 38.9375 L 49.621094 7.582031 C 37.609375 10.796875 27.675781 17.34375 19.824219 27.222656 C 12.199219 37.101562 8.390625 48.359375 8.390625 60.992188 L 8.390625 144.730469 L 119.609375 144.730469 L 119.609375 60.992188 C 119.609375 48.359375 115.683594 37.101562 107.832031 27.222656 C 100.207031 17.34375 90.390625 10.796875 78.378906 7.582031 L 78.378906 38.9375 L 72.488281 32.390625 "/>
</g>
</svg>
