<?xml version="1.0" encoding="UTF-8" standalone="no"?>
<svg
   xmlns:dc="http://purl.org/dc/elements/1.1/"
   xmlns:cc="http://creativecommons.org/ns#"
   xmlns:rdf="http://www.w3.org/1999/02/22-rdf-syntax-ns#"
   xmlns:svg="http://www.w3.org/2000/svg"
   xmlns="http://www.w3.org/2000/svg"
   xmlns:sodipodi="http://sodipodi.sourceforge.net/DTD/sodipodi-0.dtd"
   xmlns:inkscape="http://www.inkscape.org/namespaces/inkscape"
   width="128pt"
   height="163pt"
   viewBox="0 0 128 163"
   version="1.1"
   id="svg5"
   sodipodi:docname="sanctuary.svg"
   inkscape:version="0.92.1 r15371">
  <metadata
     id="metadata11">
    <rdf:RDF>
      <cc:Work
         rdf:about="">
        <dc:format>image/svg+xml</dc:format>
        <dc:type
           rdf:resource="http://purl.org/dc/dcmitype/StillImage" />
      </cc:Work>
    </rdf:RDF>
  </metadata>
  <defs
     id="defs9" />
  <sodipodi:namedview
     pagecolor="#ffffff"
     bordercolor="#666666"
     borderopacity="1"
     objecttolerance="10"
     gridtolerance="10"
     guidetolerance="10"
     inkscape:pageopacity="0"
     inkscape:pageshadow="2"
     inkscape:window-width="836"
     inkscape:window-height="480"
     id="namedview7"
     showgrid="false"
     inkscape:zoom="1.0858896"
     inkscape:cx="85.333333"
     inkscape:cy="108.66667"
     inkscape:window-x="0"
     inkscape:window-y="0"
     inkscape:window-maximized="0"
     inkscape:current-layer="svg5" />
  <g
     id="surface1"
     style="fill:#00ff00">
    <path
       style="stroke:none;fill-rule:nonzero;fill:#00ff00;fill-opacity:1"
       d="M 44.265625 53.617188 L 43.40625 53.617188 L 43.835938 51.042969 L 46.410156 48.042969 L 51.988281 60.480469 L 49.414062 66.488281 L 48.125 69.917969 L 45.550781 64.769531 L 43.835938 60.910156 L 42.550781 58.335938 L 45.125 54.90625 L 44.265625 53.617188 M 68.71875 113.242188 L 68.71875 127.398438 L 70.007812 138.980469 L 64 138.980469 L 52.417969 139.835938 L 53.703125 136.835938 L 54.132812 128.683594 L 57.992188 118.390625 L 59.28125 108.09375 L 67.859375 89.222656 L 71.292969 109.808594 L 68.71875 113.242188 M 67.859375 25.308594 L 68.71875 24.878906 L 71.292969 24.878906 L 72.582031 21.875 L 71.722656 17.15625 L 70.007812 12.011719 L 62.714844 9.007812 L 62.285156 9.007812 L 57.992188 10.722656 L 55.417969 14.585938 L 54.132812 17.585938 C 53.847656 19.300781 52.84375 20.589844 51.128906 21.449219 C 50.273438 22.019531 50.558594 22.734375 51.988281 23.59375 L 54.992188 25.308594 L 58.421875 27.882812 L 57.136719 28.738281 L 52.417969 30.457031 L 43.835938 33.027344 L 37.832031 39.464844 L 34.828125 47.613281 L 29.679688 49.757812 L 30.964844 56.191406 L 35.257812 58.335938 L 35.257812 60.480469 L 37.832031 65.199219 L 46.839844 73.777344 L 46.839844 76.351562 L 42.550781 78.070312 L 39.546875 85.789062 C 38.402344 90.078125 34.96875 95.796875 29.25 102.949219 C 28.390625 104.949219 29.25 106.234375 31.824219 106.808594 L 34.828125 108.09375 L 44.265625 86.648438 L 48.125 85.359375 L 48.125 105.949219 L 45.550781 108.953125 L 45.550781 131.257812 L 42.550781 137.691406 L 42.550781 140.695312 C 25.960938 143.269531 15.234375 147.558594 10.375 153.5625 L 117.625 153.5625 C 113.621094 147.84375 104.328125 143.839844 89.742188 141.550781 L 78.585938 137.261719 L 78.585938 127.398438 L 80.300781 108.523438 L 83.734375 88.363281 L 85.449219 81.5 L 88.453125 81.070312 L 91.027344 80.640625 L 85.878906 72.921875 L 84.164062 71.207031 L 83.734375 69.058594 L 83.734375 55.335938 L 82.875 53.191406 L 82.875 50.617188 L 83.734375 46.328125 L 82.875 37.320312 L 95.316406 20.589844 L 93.171875 18.875 L 91.886719 19.300781 L 79.875 33.886719 L 76.011719 30.882812 L 72.582031 29.597656 L 68.71875 28.738281 C 67.289062 27.882812 67.003906 26.738281 67.859375 25.308594 M 76.871094 6.003906 L 80.300781 15.011719 L 81.160156 18.875 L 85.449219 13.726562 L 85.878906 13.296875 C 87.882812 11.296875 90.3125 10.292969 93.171875 10.292969 C 97.175781 10.292969 100.464844 12.152344 103.039062 15.871094 C 105.042969 19.589844 104.898438 22.734375 102.609375 25.308594 L 91.886719 39.464844 L 91.886719 66.488281 C 94.746094 68.773438 97.035156 72.636719 98.75 78.070312 L 98.320312 85.359375 L 91.886719 89.222656 L 88.882812 108.953125 L 87.167969 131.6875 L 91.457031 132.972656 C 108.046875 136.121094 119.199219 141.410156 124.917969 148.84375 C 126.921875 151.417969 127.207031 154.421875 125.777344 157.851562 C 123.777344 161.285156 121.058594 163 117.625 163 L 10.375 163 C 6.941406 163 4.222656 161.285156 2.222656 157.851562 C 0.792969 154.707031 1.222656 151.703125 3.507812 148.84375 C 8.941406 141.410156 19.527344 136.121094 35.257812 132.972656 L 36.972656 129.972656 L 36.972656 116.671875 L 34.828125 116.671875 C 29.105469 116.671875 24.960938 114.816406 22.386719 111.097656 C 20.097656 107.378906 19.667969 103.519531 21.097656 99.515625 L 22.386719 97.371094 L 31.824219 82.785156 L 33.96875 74.207031 L 30.535156 69.917969 L 27.535156 64.769531 L 26.675781 63.914062 C 24.386719 62.769531 22.957031 60.765625 22.386719 57.90625 L 21.097656 51.902344 C 20.527344 47.328125 21.957031 44.179688 25.390625 42.464844 L 27.535156 41.179688 L 29.25 36.03125 L 39.117188 25.308594 L 42.121094 23.59375 L 42.121094 23.164062 C 41.546875 19.730469 42.691406 16.871094 45.550781 14.585938 L 48.554688 8.578125 L 49.414062 7.722656 C 53.132812 2.574219 57.421875 0 62.285156 0 L 64 0 C 69.71875 1.144531 74.011719 3.144531 76.871094 6.003906 "
       id="path2" />
  </g>
</svg>
