<?xml version="1.0" encoding="UTF-8" standalone="no"?>
<svg
   xmlns:dc="http://purl.org/dc/elements/1.1/"
   xmlns:cc="http://creativecommons.org/ns#"
   xmlns:rdf="http://www.w3.org/1999/02/22-rdf-syntax-ns#"
   xmlns:svg="http://www.w3.org/2000/svg"
   xmlns="http://www.w3.org/2000/svg"
   xmlns:sodipodi="http://sodipodi.sourceforge.net/DTD/sodipodi-0.dtd"
   xmlns:inkscape="http://www.inkscape.org/namespaces/inkscape"
   width="128pt"
   height="128pt"
   viewBox="0 0 128 128"
   version="1.1"
   id="svg5"
   sodipodi:docname="vault.svg"
   inkscape:version="0.92.1 r15371">
  <metadata
     id="metadata11">
    <rdf:RDF>
      <cc:Work
         rdf:about="">
        <dc:format>image/svg+xml</dc:format>
        <dc:type
           rdf:resource="http://purl.org/dc/dcmitype/StillImage" />
      </cc:Work>
    </rdf:RDF>
  </metadata>
  <defs
     id="defs9" />
  <sodipodi:namedview
     pagecolor="#ffffff"
     bordercolor="#666666"
     borderopacity="1"
     objecttolerance="10"
     gridtolerance="10"
     guidetolerance="10"
     inkscape:pageopacity="0"
     inkscape:pageshadow="2"
     inkscape:window-width="836"
     inkscape:window-height="480"
     id="namedview7"
     showgrid="false"
     inkscape:zoom="1.3828125"
     inkscape:cx="85.333333"
     inkscape:cy="85.333333"
     inkscape:window-x="0"
     inkscape:window-y="0"
     inkscape:window-maximized="0"
     inkscape:current-layer="svg5" />
  <g
     id="surface1"
     style="fill:#00ff00">
    <path
       style="stroke:none;fill-rule:nonzero;fill:#00ff00;fill-opacity:1"
       d="M 86.730469 25.121094 L 75.066406 20.636719 L 73.871094 7.175781 L 54.128906 7.175781 L 52.933594 20.636719 L 41.269531 25.121094 L 30.804688 16.746094 L 16.746094 30.503906 L 25.71875 40.972656 L 20.636719 52.636719 L 7.175781 53.832031 L 7.175781 73.570312 L 20.636719 75.066406 L 25.71875 86.730469 L 16.746094 96.898438 L 30.804688 110.953125 L 41.269531 102.28125 L 52.933594 107.066406 L 54.128906 120.824219 L 73.871094 120.824219 L 75.066406 107.066406 L 86.730469 102.28125 L 97.195312 110.953125 L 111.253906 96.898438 L 102.578125 86.730469 L 107.363281 75.066406 L 120.824219 73.570312 L 120.824219 53.832031 L 107.363281 52.636719 L 102.578125 40.972656 L 111.253906 30.503906 L 97.195312 16.746094 L 86.730469 25.121094 M 102.28125 11.664062 L 116.335938 25.71875 L 118.429688 30.207031 L 116.636719 35.289062 L 110.953125 42.167969 L 112.148438 45.757812 L 121.421875 46.652344 C 123.414062 47.054688 125.007812 47.851562 126.207031 49.046875 L 128 53.832031 L 128 73.570312 L 126.207031 78.652344 C 125.007812 80.050781 123.414062 80.746094 121.421875 80.746094 L 112.148438 81.644531 L 110.953125 85.234375 L 116.636719 92.410156 L 118.429688 97.496094 L 116.335938 101.980469 L 102.28125 116.039062 C 101.085938 117.433594 99.390625 118.128906 97.195312 118.128906 L 92.710938 116.636719 L 85.53125 110.652344 L 81.945312 112.148438 L 81.046875 121.121094 L 78.652344 125.90625 C 77.457031 127.300781 75.863281 128 73.871094 128 L 54.128906 128 C 52.136719 128 50.542969 127.300781 49.347656 125.90625 L 46.953125 121.121094 L 46.355469 112.148438 L 42.46875 110.652344 L 35.589844 116.636719 L 30.804688 118.128906 C 28.808594 118.128906 27.117188 117.433594 25.71875 116.039062 L 11.664062 101.980469 L 9.871094 97.496094 C 9.667969 95.5 10.167969 93.808594 11.363281 92.410156 L 17.046875 85.234375 L 15.851562 81.644531 L 6.578125 80.746094 C 4.585938 80.746094 2.992188 80.050781 1.792969 78.652344 L 0 73.570312 L 0 53.832031 L 1.792969 49.046875 C 2.992188 47.851562 4.585938 47.054688 6.578125 46.652344 L 15.851562 45.757812 L 17.046875 42.167969 L 11.363281 35.289062 C 10.167969 33.894531 9.667969 32.199219 9.871094 30.207031 L 11.664062 25.71875 L 25.71875 11.664062 C 27.117188 10.269531 28.808594 9.570312 30.804688 9.570312 C 32.398438 9.570312 33.992188 10.167969 35.589844 11.363281 L 42.46875 17.046875 L 46.355469 15.851562 L 46.953125 6.578125 L 49.347656 1.792969 C 50.542969 0.597656 52.136719 0 54.128906 0 L 73.871094 0 C 75.863281 0 77.457031 0.597656 78.652344 1.792969 L 81.046875 6.578125 L 81.945312 15.851562 L 85.53125 17.046875 L 92.710938 11.363281 L 97.195312 9.570312 C 99.390625 9.570312 101.085938 10.269531 102.28125 11.664062 "
       id="path2" />
  </g>
</svg>
