<?xml version='1.0' encoding='UTF-8'?>
<svg xmlns:xlink="http://www.w3.org/1999/xlink" xmlns="http://www.w3.org/2000/svg" version="1.1" width="500px" height="516px" viewBox="-236.747875214 -252.595596313 499.511779785 515.567515564"><defs><g id="c138"><path fill="#ffffff" stroke="none" d="M10.1 -11.4 L8.0 -11.4 8.95 -5.45 -0.75 -5.45 -0.3 -7.9 -3.1 -7.85 Q-3.0 -5.5 -4.05 -4.05 -4.95 -2.8 -6.85 -2.05 -7.55 0.8 -7.65 4.7 L-7.8 5.85 -8.3 6.5 -8.85 6.45 -9.3 6.2 -9.45 5.35 -9.4 4.2 Q-9.4 1.7 -9.0 -1.8 L-9.65 -2.0 -10.3 -2.15 Q-11.95 -2.7 -12.95 -4.15 -14.05 -5.8 -13.85 -7.9 -13.65 -9.85 -12.15 -11.25 -10.6 -12.65 -8.5 -12.7 -6.4 -12.7 -4.95 -11.35 -4.4 -11.75 -3.5 -12.5 L-1.95 -13.85 -0.95 -14.65 0.35 -15.0 8.4 -15.0 Q9.25 -15.0 9.6 -14.65 10.0 -14.2 10.1 -12.8 L10.1 -11.4 M7.25 -4.25 Q8.0 -2.2 8.2 0.55 L0.15 0.55 Q0.4 -2.7 1.15 -4.25 L7.25 -4.25 M10.55 -4.25 Q11.45 -4.1 11.9 -3.5 L12.85 -1.65 13.5 0.55 9.35 0.55 Q9.2 -1.95 8.4 -4.2 L8.45 -4.25 10.55 -4.25 M9.35 1.7 L13.6 1.7 Q13.95 3.6 13.1 6.5 L9.2 6.5 9.45 4.15 9.35 1.7 M12.6 7.7 Q10.9 11.8 6.9 13.25 L8.15 10.65 9.05 7.7 12.6 7.7 M8.3 4.15 L8.2 6.5 0.25 6.5 0.0 4.15 0.05 1.7 8.3 1.7 8.3 4.15 M1.55 11.3 Q0.9 10.0 0.4 7.85 L0.35 7.75 0.4 7.7 7.85 7.7 6.75 11.3 Q5.45 13.9 3.8 13.7 2.6 13.55 1.55 11.3 M-10.8 -9.85 Q-11.75 -8.95 -11.9 -7.65 -12.05 -6.1 -11.15 -5.05 -10.25 -4.05 -8.7 -3.8 L-7.95 -6.75 Q-7.45 -8.3 -6.75 -9.2 L-5.9 -7.95 -5.05 -6.75 Q-4.95 -8.55 -6.0 -9.7 -7.0 -10.75 -8.6 -10.7 -9.8 -10.65 -10.8 -9.85 M-1.3 -4.25 L-0.15 -4.25 Q-1.0 -1.75 -1.1 0.55 L-5.15 0.55 Q-4.95 -0.8 -4.1 -2.55 L-3.4 -3.6 Q-3.0 -4.15 -2.35 -4.25 L-1.3 -4.25 M-5.45 4.2 Q-5.6 2.75 -5.35 1.7 L-1.3 1.7 -1.0 6.5 -4.95 6.5 -5.45 4.2 M-0.9 7.7 Q-0.45 10.6 1.25 13.25 -2.6 11.9 -4.55 7.7 L-0.9 7.7"/></g></defs><g><g><use transform="matrix(17.8397064209,0.0,0.0,17.8397064209,13.9,15.0)" xlink:href="#c138"/></g></g></svg>