<?xml version='1.0' encoding='UTF-8'?>
<svg xmlns:xlink="http://www.w3.org/1999/xlink" xmlns="http://www.w3.org/2000/svg" version="1.1" width="419px" height="512px" viewBox="-187.176654816 -247.426651001 418.986641693 511.999969482"><defs><g id="c170"><path fill="#ffffff" stroke="none" d="M-0.2 -7.7 L-0.45 -7.75 Q-2.25 -8.05 -3.55 -9.35 -4.5 -10.35 -4.9 -11.55 -5.0 -11.8 -5.35 -11.25 L-5.65 -10.4 Q-5.15 -8.3 -5.3 -5.6 -5.55 -2.2 -6.9 -0.35 L-8.1 0.9 Q-8.3 1.1 -8.55 3.65 L-8.7 6.15 Q-5.65 7.2 -4.55 8.0 -3.7 8.55 -2.75 10.15 L-1.6 11.65 Q-0.95 12.2 0.1 12.3 L0.55 12.3 0.55 -7.65 0.3 -7.65 0.1 -7.7 -0.2 -7.7 M12.65 -14.05 L12.0 -12.8 Q11.05 -11.45 9.5 -10.65 8.9 -10.4 8.85 -7.0 8.8 -3.35 10.0 -1.75 11.05 -0.35 12.1 -0.2 L12.9 -0.3 12.1 7.85 Q8.5 8.95 7.1 9.9 L5.25 12.45 Q3.8 14.4 1.3 14.6 L-0.05 14.6 Q-2.55 14.4 -4.0 12.45 -5.15 10.35 -5.85 9.9 -6.7 9.3 -8.85 8.5 L-10.85 7.85 -11.65 -0.3 -11.15 -0.15 Q-10.05 -0.15 -8.75 -1.75 -7.55 -3.35 -7.6 -7.0 -7.65 -10.4 -8.25 -10.65 -9.8 -11.45 -10.75 -12.8 L-11.4 -14.05 -3.6 -15.4 Q-2.45 -14.45 -2.7 -12.25 L-2.15 -11.25 Q-1.35 -10.2 -0.05 -10.0 L0.25 -10.0 0.4 -9.95 0.85 -9.95 1.0 -10.0 1.3 -10.0 Q2.6 -10.2 3.4 -11.25 L3.95 -12.25 3.95 -13.45 Q4.15 -14.8 4.85 -15.4 L12.65 -14.05"/></g></defs><g><g><use transform="matrix(17.0666656494,0.0,0.0,17.0666656494,11.65,15.4)" xlink:href="#c170"/></g></g></svg>