<?xml version='1.0' encoding='UTF-8'?>
<svg xmlns:xlink="http://www.w3.org/1999/xlink" xmlns="http://www.w3.org/2000/svg" version="1.1" width="443px" height="514px" viewBox="-123.873205566 -143.039175415 442.654542541 513.583343505"><defs><g id="c225"><path fill="#000000" stroke="none" d="M1.35 -112.05 Q3.05 -113.3 4.45 -113.3 6.6 -113.25 8.85 -111.2 L11.25 -108.8 Q11.9 -108.45 14.15 -107.9 16.45 -107.3 17.6 -106.7 18.75 -106.15 20.35 -102.75 21.9 -99.35 22.65 -99.05 24.95 -98.05 27.25 -93.9 28.95 -90.9 29.85 -87.95 30.55 -85.5 30.05 -81.25 29.6 -77.4 28.5 -74.35 27.5 -71.5 26.1 -68.7 L23.65 -64.6 23.25 -64.2 Q26.25 -60.35 23.0 -55.8 19.85 -51.35 15.8 -52.4 L13.15 -49.55 9.15 -46.0 16.2 -45.2 Q20.25 -44.5 25.45 -42.5 L34.35 -38.8 Q37.25 -37.65 50.0 -33.7 59.65 -30.7 65.15 -27.55 L71.7 -23.5 73.15 -22.4 74.55 -21.45 77.55 -21.0 Q80.45 -20.45 83.05 -19.5 85.95 -18.4 88.75 -16.7 91.45 -15.1 92.45 -13.9 94.85 -11.05 93.5 -8.0 95.75 -3.3 94.7 -0.95 94.5 -0.3 94.1 0.0 97.65 5.95 94.9 8.0 93.45 9.05 91.2 7.75 89.8 7.0 87.15 4.65 L86.45 4.05 80.9 -0.5 80.3 1.7 Q79.0 6.35 76.45 7.25 75.25 7.65 74.25 6.95 73.5 6.4 73.3 5.45 73.2 4.9 73.25 3.55 L73.15 1.45 72.65 -2.25 Q72.0 -5.8 71.0 -6.0 L66.15 -6.9 61.3 -7.65 Q56.5 -8.6 50.7 -11.15 L45.65 -13.05 Q42.85 -13.8 40.25 -13.75 L32.75 -13.55 28.15 -13.35 23.5 -13.35 Q24.95 2.35 24.95 14.25 L24.95 21.55 Q25.05 25.8 25.9 28.8 L29.3 42.15 Q31.15 50.0 31.6 58.75 31.9 64.7 33.5 69.6 35.8 76.8 34.6 86.55 L34.1 89.65 Q33.9 91.7 34.55 92.6 L37.6 96.25 Q40.2 99.4 41.05 100.9 42.95 104.2 41.9 106.35 40.6 109.15 37.15 110.9 34.25 112.4 30.75 112.8 21.8 113.7 20.8 110.4 20.1 108.1 20.45 104.4 L21.2 98.4 21.4 96.3 Q21.45 95.0 21.0 94.25 L17.55 88.4 Q16.05 85.65 13.55 79.35 11.2 73.35 9.45 70.35 L-1.9 50.75 -4.35 55.45 -7.45 60.0 Q-9.3 62.75 -10.15 64.75 L-11.0 68.05 -11.55 71.5 Q-12.8 77.15 -14.65 80.95 -15.75 83.25 -19.15 88.55 -19.9 89.65 -19.75 91.0 L-19.3 93.55 Q-18.75 96.95 -20.75 98.7 -22.6 100.3 -26.05 100.05 L-30.05 99.45 -34.0 99.25 Q-35.35 99.4 -37.55 100.45 L-41.1 101.9 Q-44.55 102.85 -47.6 102.5 -51.95 102.5 -53.9 100.9 L-54.75 100.35 Q-56.4 99.0 -54.35 96.15 -52.7 93.85 -50.7 92.7 -48.3 91.4 -44.6 90.5 L-38.25 89.15 -36.05 88.55 Q-34.85 88.0 -34.5 87.0 -33.95 84.95 -33.5 81.95 L-32.65 75.4 Q-32.3 71.65 -32.6 68.8 -33.3 62.95 -33.25 60.1 -33.0 50.95 -32.15 44.0 L-30.75 35.0 Q-29.7 29.15 -29.35 26.0 -28.7 20.2 -29.4 13.2 -29.75 9.5 -31.15 0.45 L-33.15 -13.25 -33.5 -15.35 -33.75 -15.25 Q-37.45 -14.75 -45.85 -15.0 L-57.95 -14.4 Q-64.9 -13.05 -73.15 -14.3 L-75.9 -10.55 Q-77.95 -8.05 -80.1 -7.6 -80.4 -4.65 -81.1 -2.2 -82.25 1.75 -84.1 2.25 -85.35 2.55 -86.25 1.9 L-87.1 1.15 -87.6 1.7 Q-88.85 2.8 -90.1 2.45 -91.1 2.1 -91.7 1.05 -93.45 1.8 -94.75 1.45 -96.0 1.1 -96.95 -0.95 -98.0 -3.25 -97.85 -6.1 -97.65 -10.1 -95.7 -14.8 -93.8 -19.35 -91.25 -22.15 -90.25 -23.25 -87.7 -24.8 -84.7 -26.65 -81.6 -27.7 -77.35 -29.15 -67.85 -31.3 L-59.5 -32.7 -55.5 -33.1 Q-53.15 -33.35 -51.55 -34.0 -49.35 -34.9 -44.0 -37.9 -39.35 -40.6 -36.35 -41.5 -29.25 -43.7 -23.15 -44.15 L-23.8 -44.7 Q-31.0 -50.95 -32.8 -61.05 -34.5 -70.9 -30.45 -80.15 L-28.5 -84.05 Q-29.8 -86.6 -30.15 -88.3 -30.65 -90.8 -29.65 -93.25 -29.0 -94.75 -28.0 -95.8 -29.7 -99.95 -27.75 -103.55 -26.55 -105.75 -23.6 -107.35 -20.95 -108.8 -20.65 -108.35 -20.6 -108.25 -21.5 -106.65 -22.45 -105.0 -22.15 -104.2 -21.7 -103.25 -20.2 -102.85 -18.6 -102.45 -17.2 -103.2 L-14.85 -105.25 -12.55 -107.3 Q-11.05 -108.3 -9.35 -108.45 L-5.3 -108.35 Q-2.6 -108.3 -1.55 -109.35 L1.35 -112.05 M-28.25 32.1 Q-29.85 42.1 -30.45 47.7 -31.4 56.35 -31.3 63.45 L-30.85 67.65 Q-30.5 70.25 -30.55 71.85 -30.7 78.3 -32.0 84.8 -32.45 87.1 -33.25 88.05 -34.2 89.2 -36.35 89.75 L-40.9 90.7 -45.45 91.7 Q-46.75 92.25 -46.95 92.65 -45.9 93.35 -46.2 93.45 L-47.85 93.1 -49.15 93.3 -49.4 93.45 Q-50.0 93.9 -49.6 94.1 -46.75 94.45 -47.05 94.75 L-48.5 94.8 -50.45 94.65 -50.95 94.75 -51.5 95.3 -51.65 95.75 -49.7 96.0 -47.75 96.2 Q-48.0 96.9 -50.05 96.95 L-52.7 97.05 Q-53.3 97.4 -53.3 98.3 -53.3 99.25 -52.5 99.95 L-52.2 100.2 -50.6 100.65 -48.0 101.4 -45.3 101.65 Q-43.15 101.45 -40.45 100.45 L-35.8 98.6 -30.55 98.45 -25.65 99.15 Q-22.3 99.25 -21.5 97.4 -20.9 96.0 -21.25 94.05 L-21.9 90.7 Q-21.95 89.65 -21.1 88.25 L-19.6 86.1 Q-16.7 81.7 -15.25 77.45 -13.35 72.05 -13.0 68.25 -12.65 65.2 -10.8 62.15 L-6.85 55.85 -3.25 49.35 Q-5.45 49.05 -7.45 48.05 -9.05 47.25 -10.25 45.5 L-12.25 42.2 Q-18.1 33.2 -28.25 32.1 M-7.7 22.15 Q-8.45 21.95 -9.5 22.45 -10.05 22.75 -10.05 21.85 -9.95 20.95 -9.35 20.65 -8.05 20.0 -7.1 20.2 -6.05 20.45 -5.45 21.75 -5.3 22.05 -5.5 22.55 -5.65 23.0 -5.95 23.25 -6.3 23.55 -6.85 23.65 L-7.85 23.85 -8.2 23.55 -8.15 23.0 -7.7 22.15 M-19.1 -52.25 L-18.6 -52.4 -14.35 -52.3 Q-13.9 -52.35 -13.55 -52.05 L-13.2 -51.4 Q-13.2 -50.45 -14.25 -50.3 -16.0 -50.0 -17.25 -50.7 L-18.8 -51.8 Q-19.15 -52.05 -19.1 -52.25 M-21.0 -60.5 L-24.25 -61.55 Q-25.45 -61.75 -25.4 -60.85 -25.25 -59.85 -24.6 -59.65 L-18.75 -56.65 Q-17.45 -56.05 -14.85 -55.8 -12.25 -55.55 -10.65 -55.85 -8.5 -56.25 -2.65 -58.4 L-1.7 -58.95 Q-1.3 -59.5 -1.85 -60.1 -2.4 -60.7 -3.15 -60.75 L-4.25 -60.7 Q-10.8 -59.05 -14.75 -59.3 -17.2 -59.4 -21.0 -60.5 M-27.8 -92.4 Q-28.6 -91.35 -28.55 -89.25 -28.55 -88.2 -27.55 -85.65 L-24.0 -90.8 Q-25.2 -91.25 -26.15 -92.45 L-27.8 -92.4 M-19.3 -81.15 Q-18.9 -80.1 -19.15 -78.7 -19.35 -77.3 -20.1 -76.4 -20.8 -75.5 -21.55 -75.65 -22.25 -75.75 -22.65 -76.85 -23.0 -77.95 -22.75 -79.3 -22.55 -80.65 -21.8 -81.55 -21.1 -82.45 -20.4 -82.35 -19.65 -82.2 -19.3 -81.15 M-10.65 -80.0 L-10.15 -80.55 -9.65 -80.7 Q-9.1 -80.5 -9.55 -79.6 -10.7 -77.1 -12.25 -74.9 L-14.9 -71.25 Q-15.45 -70.45 -15.0 -69.55 L-13.55 -66.85 Q-13.35 -66.5 -13.5 -66.2 L-14.05 -65.85 -14.9 -65.7 Q-15.9 -65.75 -16.4 -66.5 L-18.15 -70.1 Q-18.55 -71.05 -17.85 -71.65 L-16.0 -73.45 Q-13.95 -75.4 -13.25 -76.3 L-10.65 -80.0 M-16.3 -88.25 Q-16.3 -87.75 -16.65 -87.45 -17.0 -87.1 -17.5 -87.15 L-21.5 -87.55 Q-22.0 -87.6 -22.0 -87.75 L-21.6 -88.15 -17.45 -90.0 Q-17.0 -90.2 -16.65 -90.0 -16.3 -89.75 -16.3 -89.25 L-16.3 -88.25 M18.85 33.55 Q15.4 33.95 12.1 35.65 -0.9 42.65 -0.85 48.45 L-0.95 48.75 4.0 57.5 9.1 66.15 Q11.9 70.7 13.2 73.4 14.5 76.0 16.3 81.4 17.45 84.25 19.4 87.8 L22.9 93.85 Q23.7 95.2 23.4 97.8 L22.8 101.85 22.3 105.95 Q22.1 109.0 22.85 110.3 L23.85 110.95 26.35 111.15 27.45 110.4 27.7 108.75 27.65 107.0 Q27.45 106.6 28.0 106.55 28.55 106.5 28.45 106.95 28.3 107.5 28.7 108.8 29.2 110.25 29.85 110.5 31.2 111.0 32.1 110.1 32.4 109.75 32.2 108.25 32.0 106.9 32.1 106.85 L32.75 108.1 Q33.35 109.45 33.9 109.55 L35.25 109.35 36.1 108.85 Q36.3 108.75 35.95 107.45 35.6 106.1 35.75 106.05 L36.55 107.3 Q37.4 108.5 38.5 108.15 L39.0 107.6 Q40.75 105.5 39.65 102.55 38.95 100.75 36.65 97.9 L32.95 93.4 Q32.3 92.6 32.2 91.5 L32.3 89.45 Q32.95 83.15 33.0 80.3 33.05 75.2 31.9 71.15 L30.5 65.8 Q29.8 62.85 29.65 60.25 29.15 50.45 27.65 43.65 L25.55 35.1 Q23.2 33.05 18.85 33.55 M9.9 36.05 Q13.7 33.85 17.15 32.9 21.9 31.55 24.95 32.95 L24.0 29.3 23.3 25.6 Q15.1 30.85 2.25 31.7 -11.1 32.6 -20.65 29.15 -25.3 27.35 -27.35 25.95 L-28.05 30.9 Q-17.6 31.7 -11.95 40.0 L-9.85 43.5 Q-8.55 45.65 -7.2 46.5 -4.7 48.05 -2.0 48.25 L-1.95 48.25 Q-1.05 42.65 9.9 36.05 M1.15 -60.75 Q1.95 -60.05 1.6 -59.15 L0.05 -54.8 Q-0.05 -54.4 -0.3 -54.4 -0.5 -54.4 -0.7 -54.75 L-0.4 -57.0 -1.0 -57.55 -1.8 -57.65 Q-3.9 -56.45 -6.6 -55.4 -12.0 -53.25 -15.05 -53.7 -18.1 -54.15 -21.55 -56.5 L-24.45 -58.8 -25.1 -58.8 -25.5 -58.2 -25.55 -57.7 Q-25.6 -57.3 -25.75 -57.25 L-26.05 -57.6 -27.7 -61.2 -27.8 -62.05 -27.4 -62.8 -25.25 -64.75 -24.8 -64.95 Q-24.6 -64.85 -24.7 -64.45 L-24.85 -63.75 -24.7 -62.95 Q-24.45 -62.6 -24.05 -62.5 L-20.85 -61.4 Q-17.2 -60.35 -15.1 -60.3 -11.7 -60.2 -4.55 -61.75 -4.1 -61.85 -3.75 -62.2 -3.35 -62.6 -3.45 -62.95 L-3.85 -64.6 Q-4.0 -65.5 -3.3 -64.95 L1.15 -60.75 M14.35 -68.15 Q14.65 -68.6 15.15 -68.25 L16.2 -67.15 Q16.8 -66.25 16.75 -65.55 16.7 -64.8 16.1 -64.85 15.5 -64.9 15.55 -65.45 L15.0 -66.65 14.4 -67.3 Q14.0 -67.7 14.35 -68.15 M17.65 -70.1 L18.7 -68.25 Q19.15 -67.2 19.0 -66.8 18.8 -66.3 18.1 -67.4 L16.75 -69.35 15.0 -70.9 Q14.4 -71.45 14.75 -71.9 15.05 -72.35 15.5 -72.15 L17.65 -70.1 M1.65 -78.3 Q2.05 -77.25 1.8 -75.85 1.55 -74.45 0.85 -73.55 0.15 -72.7 -0.6 -72.8 -1.35 -72.9 -1.7 -74.0 -2.05 -75.05 -1.8 -76.45 -1.55 -77.85 -0.9 -78.7 -0.2 -79.6 0.55 -79.5 1.3 -79.4 1.65 -78.3 M1.05 -87.1 L1.85 -87.95 Q2.1 -88.3 2.5 -88.35 L3.2 -88.1 5.1 -85.75 Q6.85 -83.1 6.35 -81.9 6.05 -81.95 4.95 -82.8 L3.0 -84.3 1.25 -85.35 0.35 -85.9 Q0.25 -86.2 1.05 -87.1 M19.95 -88.15 Q19.25 -91.4 16.45 -91.4 L12.0 -91.1 9.4 -90.85 Q7.9 -91.0 7.15 -92.2 5.5 -94.8 3.1 -95.8 L-1.1 -96.05 Q-3.05 -95.3 -4.25 -95.2 -5.95 -95.05 -7.3 -95.9 L-8.95 -96.95 Q-10.55 -97.85 -11.55 -97.45 L-15.05 -94.6 -17.95 -91.9 Q-20.25 -90.45 -22.1 -90.45 -26.8 -84.7 -29.0 -78.4 -32.2 -69.35 -30.05 -59.85 -27.8 -50.05 -20.75 -44.3 L-20.7 -44.3 Q-20.4 -44.3 -20.4 -44.0 L-18.1 -42.35 Q-13.35 -39.45 -8.95 -39.2 -5.8 -39.0 -5.75 -38.6 -5.7 -38.25 -7.4 -38.15 L-10.75 -38.2 Q-12.25 -38.35 -15.05 -39.45 -17.7 -40.45 -18.45 -41.05 L-21.3 -42.8 Q-21.5 -42.6 -21.75 -42.6 -28.7 -42.45 -36.1 -40.2 -38.8 -39.4 -42.15 -37.6 L-47.9 -34.4 Q-52.3 -32.1 -59.8 -30.9 L-72.15 -28.8 -75.7 -28.05 -81.05 -26.55 Q-84.0 -25.5 -86.65 -23.9 -89.1 -22.4 -90.05 -21.3 -92.7 -18.2 -94.45 -13.7 -95.8 -10.35 -96.2 -7.5 L-96.35 -6.15 -96.25 -4.9 Q-95.8 -0.95 -94.2 -0.5 -93.65 -0.3 -93.05 -0.75 -92.5 -1.15 -92.4 -1.6 L-91.6 -3.95 -91.4 -4.35 Q-92.2 -4.8 -92.7 -5.9 L-93.2 -7.5 Q-93.7 -11.2 -91.4 -14.65 -89.7 -17.2 -88.4 -17.65 -87.75 -17.9 -87.15 -17.25 -86.6 -16.6 -87.15 -16.1 L-89.8 -13.4 Q-91.75 -10.75 -91.25 -7.95 -90.9 -6.25 -90.4 -6.1 -89.9 -6.0 -88.55 -7.65 L-86.75 -10.15 -85.7 -11.65 -83.25 -14.95 -82.45 -14.55 -81.3 -14.3 Q-79.9 -14.25 -78.5 -15.2 L-78.1 -13.45 Q-79.65 -12.25 -80.9 -12.1 L-82.65 -12.45 -85.1 -9.05 Q-86.85 -6.45 -87.8 -5.5 -89.4 -3.85 -90.75 -4.1 L-90.9 -4.2 Q-91.2 0.25 -89.3 0.45 -88.0 0.6 -87.1 -2.45 -86.15 -5.85 -85.85 -6.0 L-85.8 -5.9 Q-85.7 -6.0 -85.65 -5.8 -85.5 -5.4 -85.9 -2.5 -86.0 0.2 -84.6 0.3 -83.7 0.4 -82.55 -4.1 L-81.45 -9.25 Q-79.9 -9.25 -77.5 -10.9 -74.4 -13.0 -73.9 -16.1 L-68.05 -15.4 -56.25 -16.0 -45.0 -16.65 Q-36.8 -16.5 -33.7 -16.85 -33.95 -19.4 -33.55 -21.0 -33.45 -21.45 -32.45 -21.45 -31.5 -21.4 -31.65 -20.85 L-31.75 -19.95 -31.4 -14.85 -30.7 -9.85 -28.5 4.3 Q-27.2 12.6 -26.95 15.95 -26.7 19.3 -27.15 24.2 -22.3 28.45 -13.25 30.0 L1.8 30.65 Q15.55 29.8 23.2 24.8 22.95 22.2 22.95 15.2 22.95 1.9 21.5 -13.5 L18.4 -14.05 Q18.1 -14.1 17.95 -14.95 17.85 -15.85 18.1 -15.75 22.4 -14.65 33.05 -15.35 42.7 -16.0 47.75 -13.95 L52.85 -11.8 Q55.9 -10.55 58.1 -10.0 L67.95 -8.2 70.5 -7.7 Q71.9 -7.25 72.75 -6.3 73.65 -5.3 74.4 -3.35 L75.1 -0.85 Q75.5 1.25 75.25 3.7 75.2 4.7 75.4 5.3 76.0 6.25 77.05 5.15 78.1 4.1 78.7 2.15 L79.45 -1.55 Q79.75 -3.65 80.0 -3.6 L80.45 -3.4 83.25 -1.2 87.8 2.55 88.45 3.15 Q92.85 7.0 93.7 6.4 94.95 5.45 91.75 0.8 L86.95 -4.4 83.5 -8.15 Q84.4 -8.9 88.4 -5.05 L92.45 -1.15 Q92.75 -1.3 92.9 -1.75 93.7 -4.55 89.15 -9.55 84.65 -13.9 85.1 -14.0 86.15 -14.2 89.0 -11.45 L91.7 -8.95 Q92.55 -10.65 90.9 -12.65 89.15 -14.75 87.45 -15.95 85.9 -17.0 82.7 -18.4 78.85 -20.1 75.55 -20.0 74.8 -19.8 72.8 -21.1 L70.25 -22.95 Q64.15 -26.85 58.95 -28.9 53.65 -30.95 46.8 -32.85 40.6 -34.5 30.5 -38.8 L22.45 -41.9 Q18.0 -43.4 14.05 -43.85 L6.75 -44.3 5.65 -43.7 Q3.05 -42.55 1.25 -42.7 -0.55 -42.9 1.2 -43.7 8.25 -47.0 13.8 -54.35 18.2 -53.15 20.8 -57.05 23.45 -60.9 20.1 -64.25 19.65 -65.1 20.45 -65.4 L21.3 -65.55 21.5 -65.9 Q19.3 -70.4 17.9 -72.35 L15.7 -74.55 Q15.0 -75.1 15.2 -75.75 15.35 -76.35 15.9 -76.05 17.2 -75.3 18.9 -73.2 20.75 -70.8 22.0 -66.9 L22.45 -67.8 Q20.8 -72.7 18.85 -75.15 L16.65 -77.9 15.55 -79.05 Q15.05 -79.45 15.4 -79.85 L16.35 -79.95 Q17.3 -79.5 19.85 -75.85 21.9 -72.65 22.9 -68.85 23.6 -73.55 20.2 -77.75 18.85 -79.45 16.0 -81.75 15.4 -82.2 15.75 -82.7 L16.25 -83.05 Q20.75 -84.75 19.95 -88.15 M9.1 -108.55 L7.95 -109.75 Q5.75 -111.75 4.3 -111.75 3.15 -111.75 -0.05 -108.05 L-2.1 -105.9 Q-3.1 -105.15 -5.05 -106.1 -7.4 -107.25 -8.9 -107.1 -10.65 -106.9 -15.8 -102.45 -17.55 -100.9 -19.7 -100.95 -21.9 -100.95 -23.35 -102.55 -24.4 -103.6 -24.0 -105.5 -25.45 -104.4 -26.3 -102.85 -27.4 -100.8 -27.15 -98.0 -26.85 -95.05 -25.3 -93.05 -24.2 -91.7 -22.3 -91.8 -20.65 -91.9 -18.9 -93.0 L-16.05 -95.65 Q-13.35 -98.2 -12.3 -98.6 L-9.5 -98.9 Q-9.05 -98.8 -7.45 -97.75 L-6.2 -96.85 -4.4 -96.8 -1.8 -97.9 0.0 -98.7 1.85 -99.5 Q3.8 -100.1 6.55 -96.35 L9.75 -92.05 Q10.45 -91.8 12.95 -92.5 15.8 -93.3 16.8 -93.3 20.05 -93.25 21.55 -91.05 22.65 -89.45 22.65 -87.2 22.65 -85.8 20.9 -84.1 19.55 -82.8 17.85 -81.95 L19.3 -80.5 21.3 -78.25 Q23.9 -74.85 24.15 -70.6 25.5 -73.1 26.6 -76.55 28.75 -83.45 27.45 -88.05 L25.5 -93.1 Q23.8 -96.4 22.0 -97.45 L19.55 -101.45 Q17.6 -104.95 14.75 -105.75 12.8 -106.3 10.55 -107.5 9.85 -107.85 9.1 -108.55"/><path fill="#ffffff" stroke="none" d="M9.1 -108.55 Q9.85 -107.85 10.55 -107.5 12.8 -106.3 14.75 -105.75 17.6 -104.95 19.55 -101.45 L22.0 -97.45 Q23.8 -96.4 25.5 -93.1 L27.45 -88.05 Q28.75 -83.45 26.6 -76.55 25.5 -73.1 24.15 -70.6 23.9 -74.85 21.3 -78.25 L19.3 -80.5 17.85 -81.95 Q19.55 -82.8 20.9 -84.1 22.65 -85.8 22.65 -87.2 22.65 -89.45 21.55 -91.05 20.05 -93.25 16.8 -93.3 15.8 -93.3 12.95 -92.5 10.45 -91.8 9.75 -92.05 L6.55 -96.35 Q3.8 -100.1 1.85 -99.5 L0.0 -98.7 -1.8 -97.9 -4.4 -96.8 -6.2 -96.85 -7.45 -97.75 Q-9.05 -98.8 -9.5 -98.9 L-12.3 -98.6 Q-13.35 -98.2 -16.05 -95.65 L-18.9 -93.0 Q-20.65 -91.9 -22.3 -91.8 -24.2 -91.7 -25.3 -93.05 -26.85 -95.05 -27.15 -98.0 -27.4 -100.8 -26.3 -102.85 -25.45 -104.4 -24.0 -105.5 -24.4 -103.6 -23.35 -102.55 -21.9 -100.95 -19.7 -100.95 -17.55 -100.9 -15.8 -102.45 -10.65 -106.9 -8.9 -107.1 -7.4 -107.25 -5.05 -106.1 -3.1 -105.15 -2.1 -105.9 L-0.05 -108.05 Q3.15 -111.75 4.3 -111.75 5.75 -111.75 7.95 -109.75 L9.1 -108.55 M19.95 -88.15 Q20.75 -84.75 16.25 -83.05 L15.75 -82.7 Q15.4 -82.2 16.0 -81.75 18.85 -79.45 20.2 -77.75 23.6 -73.55 22.9 -68.85 21.9 -72.65 19.85 -75.85 17.3 -79.5 16.35 -79.95 L15.4 -79.85 Q15.05 -79.45 15.55 -79.05 L16.65 -77.9 18.85 -75.15 Q20.8 -72.7 22.45 -67.8 L22.0 -66.9 Q20.75 -70.8 18.9 -73.2 17.2 -75.3 15.9 -76.05 15.35 -76.35 15.2 -75.75 15.0 -75.1 15.7 -74.55 L17.9 -72.35 Q19.3 -70.4 21.5 -65.9 L21.3 -65.55 20.45 -65.4 Q19.65 -65.1 20.1 -64.25 23.45 -60.9 20.8 -57.05 18.2 -53.15 13.8 -54.35 8.25 -47.0 1.2 -43.7 -0.55 -42.9 1.25 -42.7 3.05 -42.55 5.65 -43.7 L6.75 -44.3 14.05 -43.85 Q18.0 -43.4 22.45 -41.9 L30.5 -38.8 Q40.6 -34.5 46.8 -32.85 53.65 -30.95 58.95 -28.9 64.15 -26.85 70.25 -22.95 L72.8 -21.1 Q74.8 -19.8 75.55 -20.0 78.85 -20.1 82.7 -18.4 85.9 -17.0 87.45 -15.95 89.15 -14.75 90.9 -12.65 92.55 -10.65 91.7 -8.95 L89.0 -11.45 Q86.15 -14.2 85.1 -14.0 84.65 -13.9 89.15 -9.55 93.7 -4.55 92.9 -1.75 92.75 -1.3 92.45 -1.15 L88.4 -5.05 Q84.4 -8.9 83.5 -8.15 L86.95 -4.4 91.75 0.8 Q94.95 5.45 93.7 6.4 92.85 7.0 88.45 3.15 L87.8 2.55 83.25 -1.2 80.45 -3.4 80.0 -3.6 Q79.75 -3.65 79.45 -1.55 L78.7 2.15 Q78.1 4.1 77.05 5.15 76.0 6.25 75.4 5.3 75.2 4.7 75.25 3.7 75.5 1.25 75.1 -0.85 L74.4 -3.35 Q73.65 -5.3 72.75 -6.3 71.9 -7.25 70.5 -7.7 L67.95 -8.2 58.1 -10.0 Q55.9 -10.55 52.85 -11.8 L47.75 -13.95 Q42.7 -16.0 33.05 -15.35 22.4 -14.65 18.1 -15.75 17.85 -15.85 17.95 -14.95 18.1 -14.1 18.4 -14.05 L21.5 -13.5 Q22.95 1.9 22.95 15.2 22.95 22.2 23.2 24.8 15.55 29.8 1.8 30.65 L-13.25 30.0 Q-22.3 28.45 -27.15 24.2 -26.7 19.3 -26.95 15.95 -27.2 12.6 -28.5 4.3 L-30.7 -9.85 -31.4 -14.85 -31.75 -19.95 -31.65 -20.85 Q-31.5 -21.4 -32.45 -21.45 -33.45 -21.45 -33.55 -21.0 -33.95 -19.4 -33.7 -16.85 -36.8 -16.5 -45.0 -16.65 L-56.25 -16.0 -68.05 -15.4 -73.9 -16.1 Q-74.4 -13.0 -77.5 -10.9 -79.9 -9.25 -81.45 -9.25 L-82.55 -4.1 Q-83.7 0.4 -84.6 0.3 -86.0 0.2 -85.9 -2.5 -85.5 -5.4 -85.65 -5.8 -85.7 -6.0 -85.8 -5.9 L-85.85 -6.0 Q-86.15 -5.85 -87.1 -2.45 -88.0 0.6 -89.3 0.45 -91.2 0.25 -90.9 -4.2 L-90.75 -4.1 Q-89.4 -3.85 -87.8 -5.5 -86.85 -6.45 -85.1 -9.05 L-82.65 -12.45 -80.9 -12.1 Q-79.65 -12.25 -78.1 -13.45 L-78.5 -15.2 Q-79.9 -14.25 -81.3 -14.3 L-82.45 -14.55 -83.25 -14.95 -85.7 -11.65 -86.75 -10.15 -88.55 -7.65 Q-89.9 -6.0 -90.4 -6.1 -90.9 -6.25 -91.25 -7.95 -91.75 -10.75 -89.8 -13.4 L-87.15 -16.1 Q-86.6 -16.6 -87.15 -17.25 -87.75 -17.9 -88.4 -17.65 -89.7 -17.2 -91.4 -14.65 -93.7 -11.2 -93.2 -7.5 L-92.7 -5.9 Q-92.2 -4.8 -91.4 -4.35 L-91.6 -3.95 -92.4 -1.6 Q-92.5 -1.15 -93.05 -0.75 -93.65 -0.3 -94.2 -0.5 -95.8 -0.95 -96.25 -4.9 L-96.35 -6.15 -96.2 -7.5 Q-95.8 -10.35 -94.45 -13.7 -92.7 -18.2 -90.05 -21.3 -89.1 -22.4 -86.65 -23.9 -84.0 -25.5 -81.05 -26.55 L-75.7 -28.05 -72.15 -28.8 -59.8 -30.9 Q-52.3 -32.1 -47.9 -34.4 L-42.15 -37.6 Q-38.8 -39.4 -36.1 -40.2 -28.7 -42.45 -21.75 -42.6 -21.5 -42.6 -21.3 -42.8 L-18.45 -41.05 Q-17.7 -40.45 -15.05 -39.45 -12.25 -38.35 -10.75 -38.2 L-7.4 -38.15 Q-5.7 -38.25 -5.75 -38.6 -5.8 -39.0 -8.95 -39.2 -13.35 -39.45 -18.1 -42.35 L-20.4 -44.0 Q-20.4 -44.3 -20.7 -44.3 L-20.75 -44.3 Q-27.8 -50.05 -30.05 -59.85 -32.2 -69.35 -29.0 -78.4 -26.8 -84.7 -22.1 -90.45 -20.25 -90.45 -17.95 -91.9 L-15.05 -94.6 -11.55 -97.45 Q-10.55 -97.85 -8.95 -96.95 L-7.3 -95.9 Q-5.95 -95.05 -4.25 -95.2 -3.05 -95.3 -1.1 -96.05 L3.1 -95.8 Q5.5 -94.8 7.15 -92.2 7.9 -91.0 9.4 -90.85 L12.0 -91.1 16.45 -91.4 Q19.25 -91.4 19.95 -88.15 M1.05 -87.1 Q0.25 -86.2 0.35 -85.9 L1.25 -85.35 3.0 -84.3 4.95 -82.8 Q6.05 -81.95 6.35 -81.9 6.85 -83.1 5.1 -85.75 L3.2 -88.1 2.5 -88.35 Q2.1 -88.3 1.85 -87.95 L1.05 -87.1 M1.65 -78.3 Q1.3 -79.4 0.55 -79.5 -0.2 -79.6 -0.9 -78.7 -1.55 -77.85 -1.8 -76.45 -2.05 -75.05 -1.7 -74.0 -1.35 -72.9 -0.6 -72.8 0.15 -72.7 0.85 -73.55 1.55 -74.45 1.8 -75.85 2.05 -77.25 1.65 -78.3 M17.65 -70.1 L15.5 -72.15 Q15.05 -72.35 14.75 -71.9 14.4 -71.45 15.0 -70.9 L16.75 -69.35 18.1 -67.4 Q18.8 -66.3 19.0 -66.8 19.15 -67.2 18.7 -68.25 L17.65 -70.1 M14.35 -68.15 Q14.0 -67.7 14.4 -67.3 L15.0 -66.65 15.55 -65.45 Q15.5 -64.9 16.1 -64.85 16.7 -64.8 16.75 -65.55 16.8 -66.25 16.2 -67.15 L15.15 -68.25 Q14.65 -68.6 14.35 -68.15 M1.15 -60.75 L-3.3 -64.95 Q-4.0 -65.5 -3.85 -64.6 L-3.45 -62.95 Q-3.35 -62.6 -3.75 -62.2 -4.1 -61.85 -4.55 -61.75 -11.7 -60.2 -15.1 -60.3 -17.2 -60.35 -20.85 -61.4 L-24.05 -62.5 Q-24.45 -62.6 -24.7 -62.95 L-24.85 -63.75 -24.7 -64.45 Q-24.6 -64.85 -24.8 -64.95 L-25.25 -64.75 -27.4 -62.8 -27.8 -62.05 -27.7 -61.2 -26.05 -57.6 -25.75 -57.25 Q-25.6 -57.3 -25.55 -57.7 L-25.5 -58.2 -25.1 -58.8 -24.45 -58.8 -21.55 -56.5 Q-18.1 -54.15 -15.05 -53.7 -12.0 -53.25 -6.6 -55.4 -3.9 -56.45 -1.8 -57.65 L-1.0 -57.55 -0.4 -57.0 -0.7 -54.75 Q-0.5 -54.4 -0.3 -54.4 -0.05 -54.4 0.05 -54.8 L1.6 -59.15 Q1.95 -60.05 1.15 -60.75 M9.9 36.05 Q-1.05 42.65 -1.95 48.25 L-2.0 48.25 Q-4.7 48.05 -7.2 46.5 -8.55 45.65 -9.85 43.5 L-11.95 40.0 Q-17.6 31.7 -28.05 30.9 L-27.35 25.95 Q-25.3 27.35 -20.65 29.15 -11.1 32.6 2.25 31.7 15.1 30.85 23.3 25.6 L24.0 29.3 24.95 32.95 Q21.9 31.55 17.15 32.9 13.7 33.85 9.9 36.05 M18.85 33.55 Q23.2 33.05 25.55 35.1 L27.65 43.65 Q29.15 50.45 29.65 60.25 29.8 62.85 30.5 65.8 L31.9 71.15 Q33.05 75.2 33.0 80.3 32.95 83.15 32.3 89.45 L32.2 91.5 Q32.3 92.6 32.95 93.4 L36.65 97.9 Q38.95 100.75 39.65 102.55 40.75 105.5 39.0 107.6 L38.5 108.15 Q37.4 108.5 36.55 107.3 L35.75 106.05 Q35.6 106.1 35.95 107.45 36.3 108.75 36.1 108.85 L35.25 109.35 33.9 109.55 Q33.35 109.45 32.75 108.1 L32.1 106.85 Q32.0 106.9 32.2 108.25 32.4 109.75 32.1 110.1 31.2 111.0 29.85 110.5 29.2 110.25 28.7 108.8 28.3 107.5 28.45 106.95 28.55 106.5 28.0 106.55 27.45 106.6 27.65 107.0 L27.7 108.75 27.45 110.4 26.35 111.15 23.85 110.95 22.85 110.3 Q22.1 109.0 22.3 105.95 L22.8 101.85 23.4 97.8 Q23.7 95.2 22.9 93.85 L19.4 87.8 Q17.45 84.25 16.3 81.4 14.5 76.0 13.2 73.4 11.9 70.7 9.1 66.15 L4.0 57.5 -0.95 48.75 -0.85 48.45 Q-0.9 42.65 12.1 35.65 15.4 33.95 18.85 33.55 M-16.3 -88.25 L-16.3 -89.25 Q-16.3 -89.75 -16.65 -90.0 -17.0 -90.2 -17.45 -90.0 L-21.6 -88.15 -22.0 -87.75 Q-22.0 -87.6 -21.5 -87.55 L-17.5 -87.15 Q-17.0 -87.1 -16.65 -87.45 -16.3 -87.75 -16.3 -88.25 M-10.65 -80.0 L-13.25 -76.3 Q-13.95 -75.4 -16.0 -73.45 L-17.85 -71.65 Q-18.55 -71.05 -18.15 -70.1 L-16.4 -66.5 Q-15.9 -65.75 -14.9 -65.7 L-14.05 -65.85 -13.5 -66.2 Q-13.35 -66.5 -13.55 -66.85 L-15.0 -69.55 Q-15.45 -70.45 -14.9 -71.25 L-12.25 -74.9 Q-10.7 -77.1 -9.55 -79.6 -9.1 -80.5 -9.65 -80.7 L-10.15 -80.55 -10.65 -80.0 M-19.3 -81.15 Q-19.65 -82.2 -20.4 -82.35 -21.1 -82.45 -21.8 -81.55 -22.55 -80.65 -22.75 -79.3 -23.0 -77.95 -22.65 -76.85 -22.25 -75.75 -21.55 -75.65 -20.8 -75.5 -20.1 -76.4 -19.35 -77.3 -19.15 -78.7 -18.9 -80.1 -19.3 -81.15 M-27.8 -92.4 L-26.15 -92.45 Q-25.2 -91.25 -24.0 -90.8 L-27.55 -85.65 Q-28.55 -88.2 -28.55 -89.25 -28.6 -91.35 -27.8 -92.4 M-21.0 -60.5 Q-17.2 -59.4 -14.75 -59.3 -10.8 -59.05 -4.25 -60.7 L-3.15 -60.75 Q-2.4 -60.7 -1.85 -60.1 -1.3 -59.5 -1.7 -58.95 L-2.65 -58.4 Q-8.5 -56.25 -10.65 -55.85 -12.25 -55.55 -14.85 -55.8 -17.45 -56.05 -18.75 -56.65 L-24.6 -59.65 Q-25.25 -59.85 -25.4 -60.85 -25.45 -61.75 -24.25 -61.55 L-21.0 -60.5 M-19.1 -52.25 Q-19.15 -52.05 -18.8 -51.8 L-17.25 -50.7 Q-16.0 -50.0 -14.25 -50.3 -13.2 -50.45 -13.2 -51.4 L-13.55 -52.05 Q-13.9 -52.35 -14.35 -52.3 L-18.6 -52.4 -19.1 -52.25 M-7.7 22.15 L-8.15 23.0 -8.2 23.55 -7.85 23.85 -6.85 23.65 Q-6.3 23.55 -5.95 23.25 -5.65 23.0 -5.5 22.55 -5.3 22.05 -5.45 21.75 -6.05 20.45 -7.1 20.2 -8.05 20.0 -9.35 20.65 -9.95 20.95 -10.05 21.85 -10.05 22.75 -9.5 22.45 -8.45 21.95 -7.7 22.15 M-28.25 32.1 Q-18.1 33.2 -12.25 42.2 L-10.25 45.5 Q-9.05 47.25 -7.45 48.05 -5.45 49.05 -3.25 49.35 L-6.85 55.85 -10.8 62.15 Q-12.65 65.2 -13.0 68.25 -13.35 72.05 -15.25 77.45 -16.7 81.7 -19.6 86.1 L-21.1 88.25 Q-21.95 89.65 -21.9 90.7 L-21.25 94.05 Q-20.9 96.0 -21.5 97.4 -22.3 99.25 -25.65 99.15 L-30.55 98.45 -35.8 98.6 -40.45 100.45 Q-43.15 101.45 -45.3 101.65 L-48.0 101.4 -50.6 100.65 -52.2 100.2 -52.5 99.95 Q-53.3 99.25 -53.3 98.3 -53.3 97.4 -52.7 97.05 L-50.05 96.95 Q-48.0 96.9 -47.75 96.2 L-49.7 96.0 -51.65 95.75 -51.5 95.3 -50.95 94.75 -50.45 94.65 -48.5 94.8 -47.05 94.75 Q-46.75 94.45 -49.6 94.1 -50.0 93.9 -49.4 93.45 L-49.15 93.3 -47.85 93.1 -46.2 93.45 Q-45.9 93.35 -46.95 92.65 -46.75 92.25 -45.45 91.7 L-40.9 90.7 -36.35 89.75 Q-34.2 89.2 -33.25 88.05 -32.45 87.1 -32.0 84.8 -30.7 78.3 -30.55 71.85 -30.5 70.25 -30.85 67.65 L-31.3 63.45 Q-31.4 56.35 -30.45 47.7 -29.85 42.1 -28.25 32.1"/></g></defs><g><g><use transform="matrix(2.26248168945,0.0,0.0,2.26248168945,97.85,113.3)" xlink:href="#c225"/></g></g></svg>