<?xml version='1.0' encoding='UTF-8'?>
<svg xmlns:xlink="http://www.w3.org/1999/xlink" xmlns="http://www.w3.org/2000/svg" version="1.1" width="512px" height="503px" viewBox="-228.146652221 -247.426651001 511.999969482 502.613303375"><defs><g id="c166"><path fill="#ffffff" stroke="none" d="M-6.75 -1.0 Q-7.45 -1.7 -8.4 -1.7 -9.35 -1.7 -10.0 -1.0 -10.65 -0.35 -10.65 0.6 -10.65 1.55 -10.0 2.2 -9.35 2.85 -8.4 2.85 -7.45 2.85 -6.75 2.2 -6.1 1.55 -6.1 0.6 -6.1 -0.35 -6.75 -1.0 M-5.05 -7.75 L-8.45 -11.15 -9.65 -10.0 -6.2 -6.55 -5.05 -7.75 M2.2 -2.6 L1.65 -2.75 -0.05 -1.2 Q-0.55 -1.35 -0.1 -1.8 L1.35 -3.45 0.85 -3.55 -0.3 -2.6 -0.85 -2.0 Q-1.35 -2.15 -0.9 -2.6 L0.55 -4.25 0.05 -4.35 -1.65 -2.8 Q-2.15 -2.9 -1.65 -3.4 L-0.25 -5.05 -0.8 -5.2 -2.5 -3.65 Q-3.0 -3.8 -2.55 -4.25 L-1.1 -5.9 -1.6 -6.0 -2.75 -5.05 -3.3 -4.45 Q-3.8 -4.6 -3.35 -5.05 L-1.9 -6.7 -2.45 -7.25 -6.05 -3.7 7.75 10.1 11.35 6.5 10.4 5.6 Q10.1 5.2 9.85 5.45 L8.7 6.4 8.15 7.0 Q7.65 6.85 8.1 6.4 L9.55 4.75 Q9.25 4.45 9.0 4.6 L7.85 5.55 7.3 6.15 Q6.8 6.0 7.25 5.55 L8.7 3.9 Q8.4 3.6 8.15 3.75 L6.45 5.3 Q6.05 5.25 6.45 4.75 L7.9 3.1 7.4 3.0 6.25 3.95 5.7 4.55 Q5.2 4.4 5.65 3.95 L7.1 2.3 6.55 2.15 4.85 3.7 Q4.35 3.55 4.8 3.1 L6.25 1.45 Q5.95 1.15 5.75 1.35 L4.05 2.9 Q3.6 2.75 4.05 2.3 L5.45 0.65 4.95 0.55 3.8 1.5 3.25 2.1 Q2.75 1.95 3.2 1.5 L4.65 -0.15 4.1 -0.3 2.4 1.25 Q1.9 1.1 2.35 0.65 L3.8 -1.0 3.3 -1.1 1.6 0.45 Q1.1 0.3 1.55 -0.15 L3.0 -1.8 2.5 -1.9 0.8 -0.35 Q0.3 -0.5 0.75 -0.95 L2.2 -2.6 M5.75 -9.7 Q5.75 -8.1 4.6 -6.95 3.5 -5.85 1.9 -5.85 L0.95 -6.0 12.4 5.45 13.3 8.3 Q13.75 10.35 14.1 11.0 L15.8 14.05 12.7 12.4 9.7 11.65 Q7.8 11.45 6.9 10.95 L-4.75 -0.7 -4.55 0.6 Q-4.55 2.2 -5.65 3.3 -6.8 4.45 -8.4 4.45 -9.95 4.45 -11.1 3.3 -12.2 2.2 -12.2 0.6 -12.2 -0.8 -11.3 -1.9 -10.4 -2.95 -9.05 -3.2 L-7.55 -5.2 -11.0 -8.65 -13.05 -7.05 -14.2 -8.2 -7.0 -15.4 -5.85 -14.25 -7.4 -12.2 -4.0 -8.8 -1.85 -10.35 Q-1.6 -11.7 -0.55 -12.6 0.5 -13.5 1.9 -13.5 3.5 -13.5 4.6 -12.4 5.75 -11.25 5.75 -9.7 M3.5 -11.3 Q2.85 -11.95 1.9 -11.95 0.95 -11.95 0.3 -11.3 -0.35 -10.65 -0.35 -9.7 -0.35 -8.75 0.3 -8.1 0.95 -7.4 1.9 -7.4 2.85 -7.4 3.5 -8.1 4.2 -8.75 4.2 -9.7 4.2 -10.65 3.5 -11.3"/></g></defs><g><g><use transform="matrix(17.0666656494,0.0,0.0,17.0666656494,14.2,15.4)" xlink:href="#c166"/></g></g></svg>