<?xml version='1.0' encoding='UTF-8'?>
<svg xmlns:xlink="http://www.w3.org/1999/xlink" xmlns="http://www.w3.org/2000/svg" version="1.1" width="511px" height="327px" viewBox="-238.721783447 -153.262210083 511.243566894 327.4681427"><defs><g id="c124"><path fill="#ffffff" stroke="none" d="M2.8 -10.35 L3.3 -10.5 3.8 -10.35 4.05 -9.75 4.05 -7.15 8.6 -7.15 Q9.6 -7.15 10.2 -6.45 10.9 -5.75 10.9 -4.85 L10.9 -4.25 12.3 -4.25 13.0 -4.45 13.3 -5.15 13.3 -7.55 13.5 -8.15 Q13.8 -8.45 14.15 -8.45 L14.9 -8.2 15.4 -7.6 16.9 -4.0 16.85 -3.35 Q16.7 -3.1 16.3 -3.1 L15.3 -3.1 14.65 -2.9 14.4 -2.4 14.55 -1.7 14.85 -1.0 15.35 -0.3 15.65 0.5 15.7 1.35 15.4 3.85 15.1 4.75 14.65 5.4 11.7 8.4 11.0 8.8 10.1 9.0 8.45 9.0 8.05 8.95 Q7.65 10.15 5.2 10.6 L1.8 10.8 Q1.0 10.8 -1.45 9.2 L-4.8 6.9 -5.05 7.2 -5.05 7.45 Q-5.05 8.5 -5.8 9.25 -6.5 10.0 -7.55 10.0 -8.35 10.0 -9.05 9.5 L-9.9 8.35 -11.5 7.2 -12.95 6.95 Q-13.95 6.55 -14.15 5.75 L-16.9 5.25 -16.9 1.35 -14.15 0.8 Q-13.9 -0.05 -12.75 -0.4 -13.25 -1.15 -14.05 -1.25 -13.5 -2.8 -12.15 -3.85 L-12.15 -10.4 -12.0 -10.75 -11.7 -10.85 -7.75 -10.85 -7.3 -10.7 -7.15 -10.2 Q-7.15 -9.95 -7.3 -9.75 -7.55 -9.6 -7.75 -9.6 L-11.2 -9.6 -11.2 -7.95 -10.8 -8.5 -10.1 -8.7 -6.05 -8.7 Q-5.7 -8.7 -4.7 -8.0 L-3.0 -6.65 -0.2 -6.65 Q0.45 -7.15 1.25 -7.15 L2.55 -7.15 2.55 -9.75 2.8 -10.35"/></g></defs><g><g><use transform="matrix(15.1255493164,0.0,0.0,15.1255493164,16.9,10.85)" xlink:href="#c124"/></g></g></svg>