<?xml version='1.0' encoding='UTF-8'?>
<svg xmlns:xlink="http://www.w3.org/1999/xlink" xmlns="http://www.w3.org/2000/svg" version="1.1" width="427px" height="512px" viewBox="-209.879590607 -250.099916077 427.389690399 511.999832154"><defs><g id="c38"><path fill="#ffffff" stroke="none" d="M2.75 -4.25 Q2.7 -3.9 2.95 -3.3 L3.6 -2.05 4.45 -0.25 4.9 1.45 Q4.85 3.1 4.1 4.2 3.4 5.3 1.95 5.75 L1.9 5.75 1.8 5.7 Q1.75 5.55 1.85 5.45 2.55 5.05 2.55 3.9 2.55 2.7 1.9 1.65 1.25 0.65 0.05 -0.1 L-0.5 0.9 -1.25 1.7 -2.2 2.7 -2.55 3.9 Q-2.55 5.2 -1.65 5.65 L-1.5 5.8 -1.7 5.9 Q-3.2 5.65 -4.05 4.8 -4.9 3.85 -4.9 2.05 -4.95 0.6 -4.35 -1.2 L-3.65 -2.75 -3.55 -2.85 -3.45 -2.7 -3.2 -1.75 Q-3.0 -0.75 -2.5 -0.35 -2.55 -2.45 -1.35 -4.35 L-0.1 -5.85 0.0 -5.9 0.05 -5.9 0.1 -5.7 0.2 -4.2 Q0.45 -2.6 1.25 -2.0 L1.6 -3.2 Q1.95 -4.05 2.5 -4.35 L2.6 -4.4 2.7 -4.35 2.75 -4.25"/></g></defs><g><g><use transform="matrix(43.3898162842,0.0,0.0,43.3898162842,4.9,5.9)" xlink:href="#c38"/></g></g></svg>