<?xml version='1.0' encoding='UTF-8'?>
<svg xmlns:xlink="http://www.w3.org/1999/xlink" xmlns="http://www.w3.org/2000/svg" version="1.1" width="512px" height="242px" viewBox="-243.27539978 -111.432269287 511.999807738 242.462893676"><defs><g id="c114"><path fill="#ffffff" stroke="none" d="M-3.35 3.9 L-3.35 4.95 -1.3 4.95 -0.5 3.9 -3.35 3.9 M-6.75 4.95 L-6.75 3.9 -18.75 3.9 -18.75 3.45 -19.0 3.5 -19.5 3.5 -19.5 4.95 -6.75 4.95 M-18.75 -2.7 Q-18.8 -2.6 -19.0 -2.6 L-19.5 -2.6 -19.5 2.45 -19.0 2.45 -18.75 2.5 -18.75 -2.7 M-19.0 -3.75 L-18.75 -3.6 -18.75 -4.0 -6.75 -4.0 -6.75 -5.25 -19.5 -5.25 -19.5 -3.75 -19.0 -3.75 M4.45 4.95 L3.95 4.25 3.6 4.25 2.9 3.95 Q2.6 3.7 2.6 3.3 L2.6 2.5 1.95 2.5 0.2 4.95 4.45 4.95 M6.55 2.5 L6.55 3.3 6.3 3.95 Q6.0 4.25 5.55 4.25 L5.5 4.25 6.0 4.95 7.0 4.95 9.3 2.5 6.55 2.5 M2.9 -4.75 L3.6 -5.0 5.55 -5.0 6.3 -4.75 6.55 -4.05 6.55 -3.6 8.05 -3.6 8.9 -3.3 8.9 -3.55 9.0 -4.15 8.25 -4.15 Q8.0 -4.15 7.85 -4.3 L7.75 -4.75 7.85 -5.2 8.25 -5.3 14.05 -5.3 14.05 -7.9 13.1 -8.75 13.1 -9.7 16.0 -9.7 16.0 -5.3 17.45 -5.3 17.8 -5.2 18.0 -4.75 17.8 -4.3 17.45 -4.15 16.2 -4.15 16.7 -3.8 16.8 -3.2 16.8 -2.6 18.5 -2.6 18.5 -0.2 20.5 -0.2 20.5 2.9 18.75 4.85 18.75 5.65 19.2 6.1 18.0 7.6 17.2 7.15 17.2 9.05 16.95 9.75 16.2 10.05 2.4 10.05 Q2.0 10.05 1.7 9.75 1.45 9.5 1.45 9.05 L1.45 6.9 -14.0 6.9 Q-14.3 7.2 -14.65 7.2 L-19.95 7.2 -20.5 6.95 -20.7 6.4 -20.45 5.85 -20.75 5.85 -21.15 5.7 -21.3 5.4 -21.15 5.15 -21.15 3.5 -21.45 3.5 -21.8 3.4 -22.05 2.95 -21.8 2.55 -21.45 2.45 -21.15 2.45 -21.15 -2.6 -21.45 -2.6 -21.8 -2.8 -22.05 -3.1 -21.8 -3.55 -21.45 -3.75 -21.15 -3.75 -21.15 -5.35 -21.3 -5.7 -21.15 -6.0 -20.75 -6.2 -5.55 -6.2 -5.55 -9.4 -5.3 -9.85 -4.85 -10.1 -4.35 -9.85 Q-4.2 -9.7 -4.2 -9.4 L-4.2 -6.2 0.75 -6.2 1.15 -6.0 1.25 -5.7 1.15 -5.35 0.75 -5.25 -3.35 -5.25 -3.35 -4.0 -1.7 -4.0 -1.4 -4.65 -0.75 -4.95 0.05 -4.95 Q0.5 -4.95 0.75 -4.65 L1.05 -4.0 2.6 -3.6 2.6 -4.05 Q2.6 -4.45 2.9 -4.75"/></g></defs><g><g><use transform="matrix(12.0328979492,0.0,0.0,12.0328979492,22.05,10.1)" xlink:href="#c114"/></g></g></svg>