<?xml version='1.0' encoding='UTF-8'?>
<svg xmlns:xlink="http://www.w3.org/1999/xlink" xmlns="http://www.w3.org/2000/svg" version="1.1" width="512px" height="161px" viewBox="-236.211459351 -75.2988494875 511.999717714 161.237480164"><defs><g id="c100"><path fill="#ffffff" stroke="none" d="M-1.2 -3.75 L-1.85 -3.5 -2.15 -2.8 -1.85 -2.2 Q-1.65 -1.9 -1.2 -1.9 -0.85 -1.9 -0.6 -2.2 -0.3 -2.45 -0.3 -2.8 -0.3 -3.2 -0.6 -3.5 L-1.2 -3.75 M-3.8 -4.05 Q-4.1 -4.35 -4.45 -4.35 L-5.05 -4.05 -5.35 -3.45 -5.05 -2.75 Q-4.8 -2.5 -4.45 -2.5 L-3.8 -2.75 Q-3.55 -3.05 -3.55 -3.45 L-3.8 -4.05 M-12.45 -3.2 L-11.95 -4.05 -14.5 -3.55 -12.45 -3.2 M-17.45 -0.55 L-18.35 -0.55 Q-18.05 0.85 -17.55 1.1 -15.5 2.2 -13.4 0.1 L-12.55 -1.1 -16.1 -1.2 -16.1 0.0 Q-16.1 0.55 -16.7 0.55 -17.35 0.55 -17.35 0.0 L-17.35 -0.65 -17.45 -0.55 M15.4 0.9 L16.1 1.95 17.05 2.05 Q17.75 2.0 17.9 0.3 L15.5 0.1 12.95 -1.75 15.4 0.9 M20.05 -0.7 L18.75 -0.7 18.75 -0.1 20.05 0.3 20.05 -0.7 M20.95 -3.6 L20.95 -3.5 21.05 -3.6 20.95 -3.6 M15.7 -0.5 L16.0 -0.5 16.0 -3.6 14.1 -3.6 12.95 -2.5 15.7 -0.5 M10.7 -3.6 L9.7 -2.7 12.35 -2.7 13.3 -3.6 10.7 -3.6 M1.7 -3.0 Q1.7 -2.6 1.95 -2.4 2.2 -2.1 2.65 -2.1 2.95 -2.1 3.25 -2.4 L3.55 -3.0 3.25 -3.6 2.65 -3.9 Q2.2 -3.9 1.95 -3.6 1.7 -3.45 1.7 -3.0 M2.95 -5.95 L3.2 -5.55 5.25 -5.55 5.7 -5.4 5.85 -5.0 5.85 -4.7 6.0 -4.7 Q6.4 -4.7 6.6 -4.4 L7.45 -3.45 7.65 -3.45 8.05 -3.25 8.25 -2.75 8.25 -2.65 8.85 -2.65 10.45 -4.3 22.35 -4.3 21.9 -3.75 20.7 -2.05 Q20.5 -1.35 20.65 0.6 L20.65 0.95 20.4 0.95 18.75 0.55 18.5 0.45 Q18.3 2.35 17.15 2.65 L16.75 2.65 Q16.05 2.65 15.65 2.2 L14.9 1.2 Q14.1 -0.1 12.2 -1.6 11.95 -1.75 11.3 -1.35 10.65 -0.85 10.3 -0.95 9.7 -1.0 9.4 -1.3 L8.3 -1.3 7.55 -0.65 7.55 0.25 Q7.25 0.6 7.25 1.1 L7.35 1.4 Q7.25 1.55 7.9 2.65 L8.5 3.65 9.1 3.95 Q9.7 4.25 9.65 4.85 L9.1 5.05 9.4 5.85 Q9.55 6.6 9.1 6.75 8.55 6.95 8.05 6.4 L7.65 5.8 7.15 5.95 Q6.6 5.8 6.6 5.1 L6.65 4.5 5.8 2.8 4.7 0.95 4.05 0.95 3.35 1.1 Q3.05 1.1 2.4 -0.15 L1.8 -0.15 0.55 1.75 0.15 2.1 -0.35 2.25 -0.85 2.25 -0.85 3.65 -0.9 3.85 -1.1 3.95 -1.3 3.85 -1.4 3.65 -1.4 3.05 -1.85 3.05 -1.85 3.65 -1.9 3.85 -2.15 3.95 -2.3 3.85 -2.45 3.65 -2.45 3.05 -2.85 3.05 -2.85 3.65 -2.9 3.85 -3.15 3.95 -3.35 3.85 -3.4 3.65 -3.4 3.05 -3.9 3.05 -3.9 3.65 -3.95 3.85 -4.2 3.95 -4.4 3.85 -4.45 3.65 -4.45 2.25 -4.9 2.25 -5.35 2.05 -5.55 1.65 -5.55 1.1 -5.75 1.1 -5.75 2.0 -5.9 2.35 -6.4 2.55 -9.35 2.55 Q-9.6 2.55 -9.75 2.35 L-9.95 2.0 -9.95 0.65 -11.3 0.65 -11.7 0.45 -11.9 0.1 -11.9 -0.85 -11.85 -1.1 -11.9 -1.1 Q-12.25 -0.2 -13.0 0.45 -13.85 1.35 -15.05 1.75 -16.7 2.3 -18.0 1.45 -18.65 1.0 -19.0 -0.55 L-19.45 -0.55 -19.95 -0.15 Q-20.45 -0.15 -20.45 -0.65 L-20.45 -1.05 -22.7 -1.05 -22.9 -1.35 -22.7 -1.6 -20.45 -1.6 -20.45 -2.7 -22.7 -2.7 -22.9 -2.95 -22.7 -3.2 -20.45 -3.2 -20.45 -4.25 -22.7 -4.25 -22.9 -4.45 -22.7 -4.7 -20.45 -4.7 -20.45 -5.0 Q-20.45 -5.45 -19.95 -5.45 -19.45 -5.45 -19.45 -5.0 L-19.45 -4.9 -17.45 -4.9 Q-16.85 -4.9 -16.85 -4.35 L-16.85 -4.15 -16.7 -4.15 Q-16.4 -4.15 -16.25 -3.85 L-14.65 -4.15 -13.05 -4.45 -11.45 -4.6 -11.25 -4.7 -10.35 -4.7 -10.35 -5.15 -10.25 -5.4 -10.05 -5.45 -9.8 -5.4 -9.7 -5.15 -9.7 -4.7 -5.1 -4.7 -5.05 -5.55 -4.9 -6.0 -4.5 -6.1 -4.45 -6.6 -4.8 -6.65 -4.55 -7.1 -4.0 -7.3 -3.6 -7.05 -3.35 -6.55 -3.8 -6.55 -3.8 -6.1 -3.4 -5.9 -3.3 -5.45 -3.35 -4.7 -1.75 -4.7 -1.65 -5.45 -1.4 -5.9 -0.95 -6.0 -0.9 -6.45 -0.85 -6.5 -1.3 -6.55 -0.95 -7.0 -0.5 -7.1 0.0 -6.8 0.15 -6.3 -0.25 -6.35 -0.25 -6.3 -0.3 -5.9 0.05 -5.65 0.15 -5.25 0.05 -4.7 0.6 -4.7 0.6 -5.0 0.8 -5.4 1.15 -5.55 1.4 -5.55 1.95 -5.95 1.9 -6.35 1.9 -6.45 1.45 -6.45 1.65 -6.9 2.15 -7.15 2.65 -7.0 2.85 -6.55 2.5 -6.5 2.55 -6.05 2.95 -5.95"/></g></defs><g><g><use transform="matrix(11.3149108887,0.0,0.0,11.3149108887,22.9,7.3)" xlink:href="#c100"/></g></g></svg>