<?xml version='1.0' encoding='UTF-8'?>
<svg xmlns:xlink="http://www.w3.org/1999/xlink" xmlns="http://www.w3.org/2000/svg" version="1.1" width="444px" height="513px" viewBox="-124.401132202 -142.64914856 443.79208374 512.562918091"><defs><g id="c253"><path fill="#000000" stroke="none" d="M4.3 -113.35 L4.9 -113.3 Q6.9 -113.0 8.95 -111.05 L11.15 -108.85 14.05 -108.0 17.55 -106.85 Q18.7 -106.25 20.25 -102.85 21.85 -99.55 22.6 -99.2 24.95 -98.25 27.3 -94.1 29.05 -91.0 29.85 -88.15 30.6 -85.7 30.15 -81.45 29.75 -77.7 28.65 -74.55 L26.25 -68.9 Q24.9 -66.05 23.85 -64.75 L22.9 -64.0 23.95 -63.65 Q26.15 -59.95 23.2 -55.85 20.35 -51.9 16.6 -52.4 L16.1 -52.5 Q14.2 -50.0 9.6 -46.3 L9.5 -45.5 Q42.1 -42.2 64.7 -28.95 L69.65 -26.0 Q71.6 -24.7 72.95 -23.4 79.9 -22.35 82.45 -20.9 88.95 -17.35 92.8 -12.45 94.1 -10.85 94.2 -9.1 94.3 -7.7 93.75 -6.55 95.9 -1.8 94.85 0.55 L94.2 1.5 Q97.65 7.5 94.85 9.5 93.4 10.55 91.15 9.25 L87.15 6.05 86.45 5.4 80.95 0.75 80.35 2.9 Q78.85 7.6 76.35 8.4 75.15 8.8 74.2 8.1 73.45 7.55 73.25 6.55 L73.25 4.65 Q73.45 2.4 73.2 0.55 73.0 -0.7 72.2 -2.15 62.65 -5.8 52.8 -8.35 42.25 -11.2 35.25 -11.9 L28.5 -12.2 27.45 -12.1 27.5 -11.6 Q26.4 0.3 26.35 11.75 26.35 21.05 27.3 26.05 L27.3 26.1 27.5 27.15 30.45 39.0 35.7 59.2 Q38.4 70.6 39.55 79.7 40.3 86.1 40.35 90.1 L40.6 94.05 Q40.65 97.25 40.05 97.6 39.25 98.05 38.45 98.45 L39.45 100.45 Q40.4 102.95 40.0 105.3 39.45 108.45 37.85 110.7 35.85 113.6 33.05 113.3 27.3 112.7 23.2 108.15 19.55 104.05 19.4 99.2 L19.3 99.15 Q18.05 98.75 17.75 98.1 L17.1 95.9 Q14.9 88.35 11.15 79.15 4.75 63.4 -2.45 50.95 -8.65 62.15 -10.95 70.25 L-17.15 91.8 -17.4 92.95 Q-17.6 93.75 -17.95 93.9 L-19.65 94.5 -19.65 94.75 -19.85 97.8 Q-20.2 99.8 -21.15 100.25 -24.05 101.5 -26.1 101.5 L-27.35 101.2 -28.25 100.15 Q-28.45 99.85 -28.75 99.95 L-29.6 100.35 Q-32.3 101.45 -33.7 101.85 -41.05 103.95 -47.25 103.35 -56.65 102.35 -56.45 98.1 -56.4 97.05 -54.8 95.9 L-52.3 94.4 Q-47.3 91.5 -42.2 90.0 L-42.25 89.35 -41.8 86.75 -37.4 66.25 -31.8 41.7 Q-29.0 27.55 -28.8 16.65 -28.7 11.1 -31.85 -0.85 -33.2 -5.9 -33.8 -9.95 L-34.0 -9.9 -39.1 -10.75 -44.3 -10.75 -57.5 -9.95 -74.5 -7.95 -74.85 -8.25 -75.05 -8.65 -75.95 -8.2 Q-77.85 -6.95 -80.5 -6.75 -80.85 -3.8 -81.65 -1.4 -82.9 2.55 -84.75 3.0 -85.95 3.25 -86.9 2.6 L-87.7 1.8 -88.25 2.35 Q-89.55 3.5 -90.75 3.05 -91.6 2.8 -92.35 1.65 L-95.35 1.95 Q-97.55 1.3 -98.4 -2.0 -98.85 -3.75 -98.85 -5.8 -98.6 -8.7 -97.6 -12.0 -95.65 -18.6 -91.55 -22.2 -87.55 -25.75 -82.85 -26.65 L-75.95 -27.15 -75.75 -27.45 Q-74.95 -28.55 -72.9 -29.65 L-69.6 -31.2 Q-59.0 -36.55 -46.0 -40.05 -35.55 -42.8 -24.35 -44.2 -24.3 -44.5 -24.05 -44.2 L-23.35 -44.3 Q-29.45 -49.4 -31.85 -57.85 -35.05 -69.0 -30.35 -79.95 L-28.45 -83.85 Q-29.75 -86.4 -30.1 -88.1 -30.65 -90.6 -29.65 -93.0 -29.0 -94.6 -28.0 -95.6 -29.75 -99.7 -27.85 -103.35 -26.75 -105.45 -24.0 -107.05 -21.7 -108.35 -20.85 -108.25 L-20.75 -108.2 Q-20.7 -108.1 -21.6 -106.5 -22.55 -104.85 -22.2 -104.05 -21.7 -102.9 -19.85 -102.65 -18.55 -102.4 -17.3 -103.1 -16.3 -103.6 -14.95 -105.15 L-12.65 -107.2 Q-11.15 -108.25 -9.45 -108.4 L-5.4 -108.3 Q-2.7 -108.3 -1.65 -109.35 L1.25 -112.05 Q2.9 -113.35 4.3 -113.35 M17.05 -42.35 Q16.7 -34.75 11.0 -30.3 7.6 -27.65 3.55 -26.3 L-0.25 -25.1 Q-0.75 -24.9 -0.9 -23.7 L-1.0 -22.0 Q-3.25 -1.05 -2.1 19.15 -1.4 19.55 0.15 19.65 L3.3 19.6 8.1 19.4 Q12.6 19.0 16.15 17.9 21.85 16.15 25.45 13.55 L25.45 13.5 Q25.25 1.8 26.45 -12.0 23.9 -11.7 21.9 -10.85 21.55 -10.75 21.2 -11.85 20.85 -13.0 21.25 -13.2 25.65 -15.05 32.15 -14.6 36.0 -14.35 43.15 -12.85 55.9 -10.2 70.7 -4.85 L73.05 -4.0 Q73.25 -3.95 74.25 -5.5 L75.35 -7.4 Q77.05 -10.8 77.05 -13.2 77.05 -15.6 75.9 -17.8 74.8 -20.0 72.85 -21.5 61.6 -30.25 44.65 -35.8 30.9 -40.3 17.05 -42.35 M0.9 -28.2 L3.65 -28.85 Q7.3 -30.35 9.15 -31.7 15.15 -36.0 16.0 -42.5 L8.95 -43.3 Q7.45 -39.4 2.9 -36.75 -2.8 -33.4 -9.1 -34.25 -12.35 -34.7 -14.6 -36.3 -17.1 -38.0 -18.1 -40.9 L-20.5 -42.25 -20.55 -42.25 -20.8 -42.2 -23.55 -41.85 Q-24.3 -38.8 -24.05 -36.65 -23.75 -33.65 -21.7 -31.55 -20.25 -30.1 -18.2 -29.0 L-14.25 -27.2 Q-13.85 -27.05 -13.7 -26.25 -13.5 -25.6 -13.6 -25.1 -15.65 -14.4 -16.7 4.25 L-16.8 12.1 Q-16.95 18.75 -17.6 18.85 -18.65 19.05 -20.8 18.3 L-23.9 17.05 Q-26.75 15.85 -28.05 14.8 -27.85 17.9 -28.0 21.4 L-28.3 25.4 Q-21.9 29.6 -12.7 31.5 -4.4 33.2 4.05 32.65 18.95 31.65 26.55 25.25 25.75 20.5 25.55 16.2 21.5 19.0 16.05 20.5 10.75 21.9 4.9 21.9 L0.15 21.95 Q-2.85 21.6 -3.0 19.3 -3.6 9.1 -3.45 0.95 L-2.7 -15.7 -2.05 -22.8 -1.95 -25.0 Q-1.85 -26.55 -1.5 -27.1 -1.15 -27.65 0.9 -28.2 M1.85 -59.15 L0.3 -54.8 Q0.2 -54.3 -0.05 -54.4 L-0.45 -54.75 -0.15 -57.0 -1.15 -57.65 -1.55 -57.65 Q-3.6 -56.45 -6.3 -55.35 -11.7 -53.15 -14.75 -53.55 L-14.75 -53.6 Q-17.8 -54.0 -21.3 -56.35 L-24.2 -58.6 -24.45 -58.65 Q-25.15 -58.75 -25.25 -58.0 L-25.3 -57.5 Q-25.3 -57.05 -25.55 -57.05 L-25.8 -57.4 -27.5 -61.0 -27.6 -61.85 -27.2 -62.6 -25.05 -64.55 -24.65 -64.8 Q-24.45 -64.75 -24.5 -64.25 L-24.65 -63.55 -24.5 -62.8 -23.85 -62.35 -21.3 -61.5 -16.25 -60.3 -14.85 -60.15 Q-11.45 -60.1 -4.35 -61.7 L-3.55 -62.15 Q-3.15 -62.55 -3.25 -62.9 L-3.65 -64.55 Q-3.8 -65.1 -3.45 -65.1 L-3.1 -64.9 1.35 -60.75 Q2.1 -60.15 1.85 -59.15 M14.45 -68.1 Q14.65 -68.55 15.05 -68.5 L15.3 -68.35 16.4 -67.25 Q16.95 -66.45 16.95 -65.65 16.9 -64.85 16.3 -64.95 15.75 -65.05 15.75 -65.55 L15.2 -66.75 14.6 -67.4 Q14.25 -67.7 14.45 -68.1 M15.65 -72.25 Q16.95 -71.5 17.85 -70.2 L18.85 -68.35 Q19.3 -67.3 19.15 -66.95 L18.95 -66.75 18.05 -67.85 16.95 -69.5 15.15 -71.0 Q14.6 -71.45 14.85 -71.95 L15.45 -72.3 15.65 -72.25 M0.65 -79.5 Q1.4 -79.4 1.75 -78.3 2.15 -77.25 1.9 -75.85 1.7 -74.45 1.0 -73.55 0.3 -72.7 -0.4 -72.8 L-0.45 -72.8 Q-1.2 -72.9 -1.55 -74.0 -1.9 -75.05 -1.7 -76.45 -1.45 -77.85 -0.8 -78.7 -0.1 -79.6 0.65 -79.5 M1.9 -88.0 Q2.25 -88.45 2.75 -88.35 L3.25 -88.15 5.15 -85.8 Q6.9 -83.15 6.4 -81.95 L6.35 -81.95 5.0 -82.85 3.05 -84.35 1.3 -85.35 0.4 -85.9 Q0.3 -86.2 1.1 -87.15 L1.9 -88.0 M20.05 -88.1 Q19.5 -91.15 16.8 -91.5 L16.45 -91.5 12.0 -91.15 9.3 -90.9 Q7.9 -91.05 7.15 -92.25 4.8 -95.9 1.4 -96.3 L-1.1 -96.05 Q-3.9 -94.95 -5.5 -95.2 -6.5 -95.25 -7.35 -95.85 -9.1 -97.3 -10.55 -97.5 L-11.6 -97.4 -15.05 -94.5 -17.9 -91.75 Q-20.15 -90.35 -22.1 -90.3 -26.85 -84.3 -28.95 -78.2 -32.3 -68.2 -29.4 -58.1 -26.35 -47.45 -17.75 -42.25 -12.85 -39.3 -8.85 -38.8 L-6.75 -38.65 -5.6 -38.65 -5.4 -38.55 Q-5.3 -38.15 -7.65 -37.75 L-11.0 -37.45 -11.2 -37.55 Q-10.3 -36.65 -8.3 -36.4 -4.2 -35.85 0.55 -38.0 5.65 -40.4 6.55 -44.0 3.45 -42.45 1.5 -42.75 0.85 -42.85 0.85 -43.1 0.85 -43.35 1.55 -43.65 8.55 -47.05 14.1 -54.4 L14.85 -54.25 Q19.05 -53.7 21.25 -57.45 23.5 -61.25 20.35 -64.4 20.1 -64.8 20.2 -65.1 L21.85 -64.4 Q21.7 -64.8 21.95 -65.45 L22.0 -65.5 Q19.9 -70.0 18.05 -72.5 L15.85 -74.65 Q15.25 -75.15 15.3 -75.7 15.4 -76.3 15.85 -76.2 L16.05 -76.15 Q17.45 -75.35 19.0 -73.3 21.1 -70.65 22.4 -66.45 L22.75 -67.55 Q21.0 -72.8 19.0 -75.3 L16.75 -78.0 15.65 -79.15 Q15.25 -79.5 15.45 -79.85 15.6 -80.2 16.1 -80.15 L16.45 -80.05 Q17.45 -79.55 20.0 -76.0 22.05 -72.8 23.05 -69.0 23.75 -73.7 20.35 -77.9 L16.1 -81.85 Q15.5 -82.3 15.85 -82.8 L16.35 -83.15 Q20.65 -84.85 20.05 -88.1 M4.5 -111.75 L4.15 -111.75 Q2.95 -111.75 -0.15 -108.05 L-2.2 -105.9 Q-2.8 -105.4 -3.6 -105.5 -4.3 -105.6 -5.45 -106.25 L-7.8 -107.05 -9.0 -107.05 Q-10.75 -106.8 -15.9 -102.35 -17.95 -100.55 -20.45 -100.85 -22.2 -101.1 -23.45 -102.35 -24.45 -103.5 -24.1 -105.35 -25.6 -104.2 -26.35 -102.65 -27.4 -100.65 -27.15 -97.8 -26.9 -94.9 -25.3 -92.9 -24.5 -91.9 -23.1 -91.65 -21.1 -91.4 -18.9 -92.85 L-16.1 -95.5 Q-13.4 -98.1 -12.35 -98.5 -10.8 -99.1 -9.95 -98.95 -9.15 -98.8 -7.45 -97.65 L-6.2 -96.8 -5.6 -96.6 Q-5.05 -96.5 -4.0 -96.95 L-1.8 -97.9 Q-1.05 -98.2 1.8 -99.55 L2.65 -99.6 Q4.4 -99.35 6.85 -95.85 9.45 -92.2 9.75 -92.1 L10.05 -92.05 13.2 -92.65 16.8 -93.4 17.9 -93.35 Q20.55 -93.0 21.8 -90.9 22.7 -89.35 22.7 -87.4 22.75 -85.95 21.0 -84.25 19.65 -83.0 17.9 -82.05 L21.4 -78.35 Q23.95 -75.1 24.3 -70.75 25.65 -73.3 26.7 -76.75 28.85 -83.65 27.5 -88.25 26.75 -90.85 25.5 -93.25 23.8 -96.55 22.0 -97.6 L19.55 -101.6 Q17.5 -105.1 14.65 -105.85 13.25 -106.2 10.45 -107.55 L9.0 -108.6 7.85 -109.85 Q6.0 -111.5 4.5 -111.75 M75.15 -20.85 Q77.95 -16.85 77.8 -12.0 77.65 -7.0 74.3 -2.4 75.05 -0.85 75.2 0.25 75.5 2.2 75.25 4.8 75.15 5.9 75.35 6.45 75.95 7.4 77.05 6.35 78.1 5.3 78.7 3.35 L79.5 -0.35 Q79.85 -2.45 80.1 -2.4 L80.6 -2.2 87.8 3.95 88.5 4.55 Q92.85 8.45 93.65 7.85 94.95 7.0 91.85 2.25 L87.15 -3.05 83.7 -6.9 Q84.6 -7.6 88.6 -3.7 L92.55 0.3 93.0 -0.3 Q93.85 -3.1 89.45 -8.2 85.0 -12.65 85.45 -12.75 86.5 -12.9 89.3 -10.15 L91.95 -7.55 Q92.8 -9.3 91.25 -11.2 87.7 -15.75 81.45 -19.15 80.5 -19.7 77.95 -20.3 L75.15 -20.85 M31.45 110.85 Q35.9 111.65 38.3 106.6 40.65 101.75 37.35 98.95 32.75 100.7 27.2 100.45 L21.25 99.6 20.35 99.4 Q20.1 103.5 23.75 106.9 27.1 110.05 31.45 110.85 M16.65 32.95 Q11.05 34.65 4.7 34.95 -4.05 35.35 -12.2 33.75 -21.55 31.85 -28.0 27.65 -28.3 27.45 -28.4 26.7 L-29.2 32.8 Q-30.8 44.15 -34.9 62.0 L-41.1 89.7 -41.0 89.65 Q-40.75 89.6 -40.55 90.0 L-37.65 91.1 Q-29.25 93.8 -23.0 92.7 -18.65 92.0 -18.45 91.35 L-16.5 84.6 -13.8 74.45 Q-12.15 68.4 -10.65 64.45 -7.9 57.3 -3.45 49.2 L-6.4 44.45 Q-6.65 44.1 -6.7 43.05 -6.75 42.0 -6.35 42.7 1.25 54.45 8.6 71.0 15.15 86.0 18.05 96.4 22.8 98.1 27.65 98.1 32.35 98.15 36.55 96.6 L36.65 96.45 36.75 96.55 37.55 96.2 Q39.05 95.6 39.3 95.0 L39.45 92.6 Q39.5 88.05 39.05 83.0 38.2 73.7 35.65 62.4 34.1 55.45 30.55 42.1 28.05 32.95 27.05 27.95 L27.0 27.75 Q22.9 31.1 16.65 32.95 M-85.5 -21.3 Q-84.85 -21.55 -84.3 -20.85 -83.75 -20.2 -84.3 -19.7 L-88.75 -15.45 Q-92.45 -11.0 -91.65 -7.35 -91.3 -5.65 -90.85 -5.5 -90.35 -5.4 -89.0 -7.05 -88.0 -8.2 -87.15 -9.5 L-83.5 -14.25 -82.75 -13.8 -81.55 -13.5 Q-80.1 -13.4 -78.65 -14.45 L-77.95 -12.8 Q-80.85 -10.75 -82.95 -11.7 L-85.5 -8.3 Q-87.4 -5.7 -88.25 -4.85 -89.9 -3.25 -91.25 -3.55 L-91.4 -3.6 -91.4 -0.8 Q-91.1 0.9 -89.9 1.05 -88.6 1.25 -87.65 -1.8 L-86.3 -5.3 -86.25 -5.2 -86.1 -5.05 Q-86.0 -4.65 -86.45 -1.85 -86.6 0.85 -85.2 1.05 -84.3 1.15 -83.05 -3.35 L-81.8 -8.45 -79.45 -8.85 Q-77.95 -9.25 -77.05 -9.85 L-76.4 -10.35 -75.9 -10.35 Q-77.6 -14.1 -78.0 -17.8 -78.4 -21.65 -77.15 -24.75 L-83.0 -24.55 Q-86.4 -23.8 -90.15 -20.75 -95.15 -16.6 -96.65 -7.0 L-96.85 -5.7 -96.8 -4.4 Q-96.35 -0.45 -94.8 0.05 -94.25 0.25 -93.65 -0.15 -93.05 -0.55 -92.95 -1.0 L-92.1 -3.4 -91.9 -3.8 Q-93.1 -4.5 -93.65 -6.95 -94.6 -11.45 -90.45 -16.65 -87.25 -20.7 -85.5 -21.3 M-28.4 11.35 L-28.35 11.85 -28.25 12.7 Q-26.55 14.1 -22.5 15.4 L-20.35 16.2 -18.2 16.55 Q-18.0 16.4 -18.0 14.95 L-18.1 13.25 -17.3 -2.8 Q-16.2 -17.1 -14.8 -25.35 -18.1 -26.8 -19.7 -27.95 -22.6 -29.95 -23.85 -32.95 -25.5 -36.95 -24.85 -41.7 -43.65 -39.15 -60.4 -32.7 -67.2 -30.05 -72.05 -27.25 L-73.85 -26.15 -75.2 -24.9 Q-77.5 -21.05 -77.1 -16.9 L-76.35 -13.3 Q-75.55 -10.25 -75.0 -10.3 L-74.05 -10.45 -62.6 -11.8 -46.2 -13.05 -40.25 -13.1 Q-36.8 -13.0 -34.4 -12.2 L-34.1 -11.9 Q-34.55 -15.65 -34.3 -18.4 -34.25 -19.15 -33.8 -18.25 -33.35 -17.4 -33.35 -16.9 -33.7 -13.2 -32.9 -8.3 L-31.95 -3.4 -28.7 9.95 -28.4 11.35 M-18.85 -52.1 L-18.3 -52.25 -13.9 -52.2 Q-13.0 -52.1 -12.9 -51.3 -12.9 -50.35 -13.95 -50.2 L-15.7 -50.15 -16.95 -50.6 -18.55 -51.7 -18.85 -52.1 M-21.4 -60.55 L-24.05 -61.4 -24.2 -61.4 Q-25.25 -61.5 -25.15 -60.7 -25.0 -59.7 -24.35 -59.45 L-18.5 -56.55 Q-17.6 -56.1 -15.4 -55.75 -12.2 -55.4 -10.4 -55.75 -8.25 -56.15 -2.4 -58.35 L-1.45 -58.95 Q-1.05 -59.5 -1.6 -60.1 -2.1 -60.6 -2.85 -60.7 L-4.05 -60.65 Q-10.55 -58.95 -14.5 -59.15 L-15.9 -59.3 Q-18.25 -59.6 -21.4 -60.55 M-26.15 -92.25 Q-26.5 -92.75 -26.9 -92.75 -27.6 -92.85 -28.1 -91.75 -28.6 -90.65 -28.55 -89.05 -28.5 -87.95 -27.5 -85.5 -25.85 -88.25 -24.0 -90.6 -25.2 -91.1 -26.15 -92.25 M-19.05 -78.55 Q-19.25 -77.15 -19.95 -76.25 -20.65 -75.4 -21.4 -75.5 -22.15 -75.6 -22.5 -76.7 -22.85 -77.75 -22.65 -79.15 -22.4 -80.55 -21.75 -81.4 -21.05 -82.3 -20.35 -82.2 L-20.3 -82.2 Q-19.55 -82.1 -19.2 -81.0 -18.8 -79.95 -19.05 -78.55 M-13.1 -76.2 Q-11.95 -77.65 -10.6 -79.95 L-9.6 -80.65 -9.55 -80.65 Q-9.1 -80.45 -9.45 -79.55 -10.6 -77.05 -12.15 -74.8 L-14.75 -71.1 Q-15.3 -70.35 -14.85 -69.45 L-13.35 -66.75 Q-13.15 -66.35 -13.3 -66.1 -13.45 -65.8 -13.85 -65.75 L-15.0 -65.65 Q-15.8 -65.75 -16.2 -66.4 L-17.95 -69.95 Q-18.4 -70.85 -17.7 -71.55 L-15.85 -73.35 Q-13.8 -75.3 -13.1 -76.2 M-16.6 -87.3 Q-16.95 -86.95 -17.45 -87.05 L-21.45 -87.4 -21.55 -87.4 Q-22.0 -87.45 -22.0 -87.65 L-21.55 -88.0 -17.45 -89.9 -16.9 -90.0 Q-16.3 -89.9 -16.3 -89.15 L-16.25 -88.15 Q-16.25 -87.6 -16.6 -87.3 M-40.6 92.0 Q-47.45 93.9 -52.9 97.45 L-54.95 99.0 -52.2 100.2 Q-46.85 101.75 -40.4 100.95 -34.25 100.15 -29.0 97.5 -28.85 97.4 -28.75 97.6 L-27.95 98.75 Q-27.45 99.25 -26.7 99.2 L-22.7 98.3 Q-21.35 97.75 -20.9 96.25 L-20.65 94.75 -23.9 95.25 Q-29.6 95.6 -35.75 93.85 L-38.6 92.95 -40.6 92.0"/><path fill="#ffffff" stroke="none" d="M4.5 -111.75 Q6.0 -111.5 7.85 -109.85 L9.0 -108.6 10.45 -107.55 Q13.25 -106.2 14.65 -105.85 17.5 -105.1 19.55 -101.6 L22.0 -97.6 Q23.8 -96.55 25.5 -93.25 26.75 -90.85 27.5 -88.25 28.85 -83.65 26.7 -76.75 25.65 -73.3 24.3 -70.75 23.95 -75.1 21.4 -78.35 L17.9 -82.05 Q19.65 -83.0 21.0 -84.25 22.75 -85.95 22.7 -87.4 22.7 -89.35 21.8 -90.9 20.55 -93.0 17.9 -93.35 L16.8 -93.4 13.2 -92.65 10.05 -92.05 9.75 -92.1 Q9.45 -92.2 6.85 -95.85 4.4 -99.35 2.65 -99.6 L1.8 -99.55 Q-1.05 -98.2 -1.8 -97.9 L-4.0 -96.95 Q-5.05 -96.5 -5.6 -96.6 L-6.2 -96.8 -7.45 -97.65 Q-9.15 -98.8 -9.95 -98.95 -10.8 -99.1 -12.35 -98.5 -13.4 -98.1 -16.1 -95.5 L-18.9 -92.85 Q-21.1 -91.4 -23.1 -91.65 -24.5 -91.9 -25.3 -92.9 -26.9 -94.9 -27.15 -97.8 -27.4 -100.65 -26.35 -102.65 -25.6 -104.2 -24.1 -105.35 -24.45 -103.5 -23.45 -102.35 -22.2 -101.1 -20.45 -100.85 -17.95 -100.55 -15.9 -102.35 -10.75 -106.8 -9.0 -107.05 L-7.8 -107.05 -5.45 -106.25 Q-4.3 -105.6 -3.6 -105.5 -2.8 -105.4 -2.2 -105.9 L-0.15 -108.05 Q2.95 -111.75 4.15 -111.75 L4.5 -111.75 M20.05 -88.1 Q20.65 -84.85 16.35 -83.15 L15.85 -82.8 Q15.5 -82.3 16.1 -81.85 L20.35 -77.9 Q23.75 -73.7 23.05 -69.0 22.05 -72.8 20.0 -76.0 17.45 -79.55 16.45 -80.05 L16.1 -80.15 Q15.6 -80.2 15.45 -79.85 15.25 -79.5 15.65 -79.15 L16.75 -78.0 19.0 -75.3 Q21.0 -72.8 22.75 -67.55 L22.4 -66.45 Q21.1 -70.65 19.0 -73.3 17.45 -75.35 16.05 -76.15 L15.85 -76.2 Q15.4 -76.3 15.3 -75.7 15.25 -75.15 15.85 -74.65 L18.05 -72.5 Q19.9 -70.0 22.0 -65.5 L21.95 -65.45 Q21.7 -64.8 21.85 -64.4 L20.2 -65.1 Q20.1 -64.8 20.35 -64.4 23.5 -61.25 21.25 -57.45 19.05 -53.7 14.85 -54.25 L14.1 -54.4 Q8.55 -47.05 1.55 -43.65 0.85 -43.35 0.85 -43.1 0.85 -42.85 1.5 -42.75 3.45 -42.45 6.55 -44.0 5.65 -40.4 0.55 -38.0 -4.2 -35.85 -8.3 -36.4 -10.3 -36.65 -11.2 -37.55 L-11.0 -37.45 -7.65 -37.75 Q-5.3 -38.15 -5.4 -38.55 L-5.6 -38.65 -6.75 -38.65 -8.85 -38.8 Q-12.85 -39.3 -17.75 -42.25 -26.35 -47.45 -29.4 -58.1 -32.3 -68.2 -28.95 -78.2 -26.85 -84.3 -22.1 -90.3 -20.15 -90.35 -17.9 -91.75 L-15.05 -94.5 -11.6 -97.4 -10.55 -97.5 Q-9.1 -97.3 -7.35 -95.85 -6.5 -95.25 -5.5 -95.2 -3.9 -94.95 -1.1 -96.05 L1.4 -96.3 Q4.8 -95.9 7.15 -92.25 7.9 -91.05 9.3 -90.9 L12.0 -91.15 16.45 -91.5 16.8 -91.5 Q19.5 -91.15 20.05 -88.1 M1.9 -88.0 L1.1 -87.15 Q0.3 -86.2 0.4 -85.9 L1.3 -85.35 3.05 -84.35 5.0 -82.85 6.35 -81.95 6.4 -81.95 Q6.9 -83.15 5.15 -85.8 L3.25 -88.15 2.75 -88.35 Q2.25 -88.45 1.9 -88.0 M0.65 -79.5 Q-0.1 -79.6 -0.8 -78.7 -1.45 -77.85 -1.7 -76.45 -1.9 -75.05 -1.55 -74.0 -1.2 -72.9 -0.45 -72.8 L-0.4 -72.8 Q0.3 -72.7 1.0 -73.55 1.7 -74.45 1.9 -75.85 2.15 -77.25 1.75 -78.3 1.4 -79.4 0.65 -79.5 M15.65 -72.25 L15.45 -72.3 14.85 -71.95 Q14.6 -71.45 15.15 -71.0 L16.95 -69.5 18.05 -67.85 18.95 -66.75 19.15 -66.95 Q19.3 -67.3 18.85 -68.35 L17.85 -70.2 Q16.95 -71.5 15.65 -72.25 M14.45 -68.1 Q14.25 -67.7 14.6 -67.4 L15.2 -66.75 15.75 -65.55 Q15.75 -65.05 16.3 -64.95 16.9 -64.85 16.95 -65.65 16.95 -66.45 16.4 -67.25 L15.3 -68.35 15.05 -68.5 Q14.65 -68.55 14.45 -68.1 M1.85 -59.15 Q2.1 -60.15 1.35 -60.75 L-3.1 -64.9 -3.45 -65.1 Q-3.8 -65.1 -3.65 -64.55 L-3.25 -62.9 Q-3.15 -62.55 -3.55 -62.15 L-4.35 -61.7 Q-11.45 -60.1 -14.85 -60.15 L-16.25 -60.3 -21.3 -61.5 -23.85 -62.35 -24.5 -62.8 -24.65 -63.55 -24.5 -64.25 Q-24.45 -64.75 -24.65 -64.8 L-25.05 -64.55 -27.2 -62.6 -27.6 -61.85 -27.5 -61.0 -25.8 -57.4 -25.55 -57.05 Q-25.3 -57.05 -25.3 -57.5 L-25.25 -58.0 Q-25.15 -58.75 -24.45 -58.65 L-24.2 -58.6 -21.3 -56.35 Q-17.8 -54.0 -14.75 -53.6 L-14.75 -53.55 Q-11.7 -53.15 -6.3 -55.35 -3.6 -56.45 -1.55 -57.65 L-1.15 -57.65 -0.15 -57.0 -0.45 -54.75 -0.05 -54.4 Q0.2 -54.3 0.3 -54.8 L1.85 -59.15 M0.9 -28.2 Q-1.15 -27.65 -1.5 -27.1 -1.85 -26.55 -1.95 -25.0 L-2.05 -22.8 -2.7 -15.7 -3.45 0.95 Q-3.6 9.1 -3.0 19.3 -2.85 21.6 0.15 21.95 L4.9 21.9 Q10.75 21.9 16.05 20.5 21.5 19.0 25.55 16.2 25.75 20.5 26.55 25.25 18.95 31.65 4.05 32.65 -4.4 33.2 -12.7 31.5 -21.9 29.6 -28.3 25.4 L-28.0 21.4 Q-27.85 17.9 -28.05 14.8 -26.75 15.85 -23.9 17.05 L-20.8 18.3 Q-18.65 19.05 -17.6 18.85 -16.95 18.75 -16.8 12.1 L-16.7 4.25 Q-15.65 -14.4 -13.6 -25.1 -13.5 -25.6 -13.7 -26.25 -13.85 -27.05 -14.25 -27.2 L-18.2 -29.0 Q-20.25 -30.1 -21.7 -31.55 -23.75 -33.65 -24.05 -36.65 -24.3 -38.8 -23.55 -41.85 L-20.8 -42.2 -20.55 -42.25 -20.5 -42.25 -18.1 -40.9 Q-17.1 -38.0 -14.6 -36.3 -12.35 -34.7 -9.1 -34.25 -2.8 -33.4 2.9 -36.75 7.45 -39.4 8.95 -43.3 L16.0 -42.5 Q15.15 -36.0 9.15 -31.7 7.3 -30.35 3.65 -28.85 L0.9 -28.2 M17.05 -42.35 Q30.9 -40.3 44.65 -35.8 61.6 -30.25 72.85 -21.5 74.8 -20.0 75.9 -17.8 77.05 -15.6 77.05 -13.2 77.05 -10.8 75.35 -7.4 L74.25 -5.5 Q73.25 -3.95 73.05 -4.0 L70.7 -4.85 Q55.9 -10.2 43.15 -12.85 36.0 -14.35 32.15 -14.6 25.65 -15.05 21.25 -13.2 20.85 -13.0 21.2 -11.85 21.55 -10.75 21.9 -10.85 23.9 -11.7 26.45 -12.0 25.25 1.8 25.45 13.5 L25.45 13.55 Q21.85 16.15 16.15 17.9 12.6 19.0 8.1 19.4 L3.3 19.6 0.15 19.65 Q-1.4 19.55 -2.1 19.15 -3.25 -1.05 -1.0 -22.0 L-0.9 -23.7 Q-0.75 -24.9 -0.25 -25.1 L3.55 -26.3 Q7.6 -27.65 11.0 -30.3 16.7 -34.75 17.05 -42.35 M75.15 -20.85 L77.95 -20.3 Q80.5 -19.7 81.45 -19.15 87.7 -15.75 91.25 -11.2 92.8 -9.3 91.95 -7.55 L89.3 -10.15 Q86.5 -12.9 85.45 -12.75 85.0 -12.65 89.45 -8.2 93.85 -3.1 93.0 -0.3 L92.55 0.3 88.6 -3.7 Q84.6 -7.6 83.7 -6.9 L87.15 -3.05 91.85 2.25 Q94.95 7.0 93.65 7.85 92.85 8.45 88.5 4.55 L87.8 3.95 80.6 -2.2 80.1 -2.4 Q79.85 -2.45 79.5 -0.35 L78.7 3.35 Q78.1 5.3 77.05 6.35 75.95 7.4 75.35 6.45 75.15 5.9 75.25 4.8 75.5 2.2 75.2 0.25 75.05 -0.85 74.3 -2.4 77.65 -7.0 77.8 -12.0 77.95 -16.85 75.15 -20.85 M16.65 32.95 Q22.9 31.1 27.0 27.75 L27.05 27.95 Q28.05 32.95 30.55 42.1 34.1 55.45 35.65 62.4 38.2 73.7 39.05 83.0 39.5 88.05 39.45 92.6 L39.3 95.0 Q39.05 95.6 37.55 96.2 L36.75 96.55 36.65 96.45 36.55 96.6 Q32.35 98.15 27.65 98.1 22.8 98.1 18.05 96.4 15.15 86.0 8.6 71.0 1.25 54.45 -6.35 42.7 -6.75 42.0 -6.7 43.05 -6.65 44.1 -6.4 44.45 L-3.45 49.2 Q-7.9 57.3 -10.65 64.45 -12.15 68.4 -13.8 74.45 L-16.5 84.6 -18.45 91.35 Q-18.65 92.0 -23.0 92.7 -29.25 93.8 -37.65 91.1 L-40.55 90.0 Q-40.75 89.6 -41.0 89.65 L-41.1 89.7 -34.9 62.0 Q-30.8 44.15 -29.2 32.8 L-28.4 26.7 Q-28.3 27.45 -28.0 27.65 -21.55 31.85 -12.2 33.75 -4.05 35.35 4.7 34.95 11.05 34.65 16.65 32.95 M31.45 110.85 Q27.1 110.05 23.75 106.9 20.1 103.5 20.35 99.4 L21.25 99.6 27.2 100.45 Q32.75 100.7 37.35 98.95 40.65 101.75 38.3 106.6 35.9 111.65 31.45 110.85 M-85.5 -21.3 Q-87.25 -20.7 -90.45 -16.65 -94.6 -11.45 -93.65 -6.95 -93.1 -4.5 -91.9 -3.8 L-92.1 -3.4 -92.95 -1.0 Q-93.05 -0.55 -93.65 -0.15 -94.25 0.25 -94.8 0.05 -96.35 -0.45 -96.8 -4.4 L-96.85 -5.7 -96.65 -7.0 Q-95.15 -16.6 -90.15 -20.75 -86.4 -23.8 -83.0 -24.55 L-77.15 -24.75 Q-78.4 -21.65 -78.0 -17.8 -77.6 -14.1 -75.9 -10.35 L-76.4 -10.35 -77.05 -9.85 Q-77.95 -9.25 -79.45 -8.85 L-81.8 -8.45 -83.05 -3.35 Q-84.3 1.15 -85.2 1.05 -86.6 0.85 -86.45 -1.85 -86.0 -4.65 -86.1 -5.05 L-86.25 -5.2 -86.3 -5.3 -87.65 -1.8 Q-88.6 1.25 -89.9 1.05 -91.1 0.9 -91.4 -0.8 L-91.4 -3.6 -91.25 -3.55 Q-89.9 -3.25 -88.25 -4.85 -87.4 -5.7 -85.5 -8.3 L-82.95 -11.7 Q-80.85 -10.75 -77.95 -12.8 L-78.65 -14.45 Q-80.1 -13.4 -81.55 -13.5 L-82.75 -13.8 -83.5 -14.25 -87.15 -9.5 Q-88.0 -8.2 -89.0 -7.05 -90.35 -5.4 -90.85 -5.5 -91.3 -5.65 -91.65 -7.35 -92.45 -11.0 -88.75 -15.45 L-84.3 -19.7 Q-83.75 -20.2 -84.3 -20.85 -84.85 -21.55 -85.5 -21.3 M-16.6 -87.3 Q-16.25 -87.6 -16.25 -88.15 L-16.3 -89.15 Q-16.3 -89.9 -16.9 -90.0 L-17.45 -89.9 -21.55 -88.0 -22.0 -87.65 Q-22.0 -87.45 -21.55 -87.4 L-21.45 -87.4 -17.45 -87.05 Q-16.95 -86.95 -16.6 -87.3 M-13.1 -76.2 Q-13.8 -75.3 -15.85 -73.35 L-17.7 -71.55 Q-18.4 -70.85 -17.95 -69.95 L-16.2 -66.4 Q-15.8 -65.75 -15.0 -65.65 L-13.85 -65.75 Q-13.45 -65.8 -13.3 -66.1 -13.15 -66.35 -13.35 -66.75 L-14.85 -69.45 Q-15.3 -70.35 -14.75 -71.1 L-12.15 -74.8 Q-10.6 -77.05 -9.45 -79.55 -9.1 -80.45 -9.55 -80.65 L-9.6 -80.65 -10.6 -79.95 Q-11.95 -77.65 -13.1 -76.2 M-19.05 -78.55 Q-18.8 -79.95 -19.2 -81.0 -19.55 -82.1 -20.3 -82.2 L-20.35 -82.2 Q-21.05 -82.3 -21.75 -81.4 -22.4 -80.55 -22.65 -79.15 -22.85 -77.75 -22.5 -76.7 -22.15 -75.6 -21.4 -75.5 -20.65 -75.4 -19.95 -76.25 -19.25 -77.15 -19.05 -78.55 M-26.15 -92.25 Q-25.2 -91.1 -24.0 -90.6 -25.85 -88.25 -27.5 -85.5 -28.5 -87.95 -28.55 -89.05 -28.6 -90.65 -28.1 -91.75 -27.6 -92.85 -26.9 -92.75 -26.5 -92.75 -26.15 -92.25 M-21.4 -60.55 Q-18.25 -59.6 -15.9 -59.3 L-14.5 -59.15 Q-10.55 -58.95 -4.05 -60.65 L-2.85 -60.7 Q-2.1 -60.6 -1.6 -60.1 -1.05 -59.5 -1.45 -58.95 L-2.4 -58.35 Q-8.25 -56.15 -10.4 -55.75 -12.2 -55.4 -15.4 -55.75 -17.6 -56.1 -18.5 -56.55 L-24.35 -59.45 Q-25.0 -59.7 -25.15 -60.7 -25.25 -61.5 -24.2 -61.4 L-24.05 -61.4 -21.4 -60.55 M-18.85 -52.1 L-18.55 -51.7 -16.95 -50.6 -15.7 -50.15 -13.95 -50.2 Q-12.9 -50.35 -12.9 -51.3 -13.0 -52.1 -13.9 -52.2 L-18.3 -52.25 -18.85 -52.1 M-32.9 -8.3 Q-33.7 -13.2 -33.35 -16.9 -33.35 -17.4 -33.8 -18.25 -34.25 -19.15 -34.3 -18.4 -34.55 -15.65 -34.1 -11.9 L-34.4 -12.2 Q-36.8 -13.0 -40.25 -13.1 L-46.2 -13.05 -62.6 -11.8 -74.05 -10.45 -75.0 -10.3 Q-75.55 -10.25 -76.35 -13.3 L-77.1 -16.9 Q-77.5 -21.05 -75.2 -24.9 L-73.85 -26.15 -72.05 -27.25 Q-67.2 -30.05 -60.4 -32.7 -43.65 -39.15 -24.85 -41.7 -25.5 -36.95 -23.85 -32.95 -22.6 -29.95 -19.7 -27.95 -18.1 -26.8 -14.8 -25.35 -16.2 -17.1 -17.3 -2.8 L-18.1 13.25 -18.0 14.95 Q-18.0 16.4 -18.2 16.55 L-20.35 16.2 -22.5 15.4 Q-26.55 14.1 -28.25 12.7 L-28.35 11.85 -28.4 11.35 -28.95 8.25 Q-29.5 5.45 -30.95 -0.05 L-32.9 -8.3 M-40.6 92.0 L-38.6 92.95 -35.75 93.85 Q-29.6 95.6 -23.9 95.25 L-20.65 94.75 -20.9 96.25 Q-21.35 97.75 -22.7 98.3 L-26.7 99.2 Q-27.45 99.25 -27.95 98.75 L-28.75 97.6 Q-28.85 97.4 -29.0 97.5 -34.25 100.15 -40.4 100.95 -46.85 101.75 -52.2 100.2 L-54.95 99.0 -52.9 97.45 Q-47.45 93.9 -40.6 92.0"/></g></defs><g><g><use transform="matrix(2.25848388672,0.0,0.0,2.25848388672,98.85,113.35)" xlink:href="#c253"/></g></g></svg>