<?xml version='1.0' encoding='UTF-8'?>
<svg xmlns:xlink="http://www.w3.org/1999/xlink" xmlns="http://www.w3.org/2000/svg" version="1.1" width="514px" height="235px" viewBox="-1.85339355469 0.463348388672 513.853363037 235.380981445"><defs><g id="c242"><path fill="#000000" fill-opacity="0.992156862745" d="M46.15 10.05 L46.15 9.9 Q46.15 7.75 42.85 6.1 40.45 4.95 37.6 4.5 L21.95 2.05 15.05 1.15 8.1 1.4 Q4.9 2.1 2.8 5.55 1.15 8.35 0.55 12.2 L0.55 13.2 Q0.5 13.55 0.3 13.3 L0.55 13.65 Q1.8 15.1 3.1 15.55 6.4 16.85 11.45 15.15 L15.35 13.8 Q17.5 12.8 18.75 11.55 L20.25 10.25 Q21.2 9.85 21.8 10.85 L23.95 14.65 Q25.2 16.7 26.9 17.8 30.5 20.1 34.8 20.95 44.55 23.0 46.25 16.05 L46.4 15.95 Q49.15 18.1 51.15 20.5 54.1 23.7 53.85 24.1 L54.5 22.75 Q54.9 22.05 55.1 22.6 51.85 12.7 46.45 10.85 L46.15 10.05 M0.1 13.45 Q-0.2 12.15 0.3 10.1 2.6 0.5 9.35 0.05 L18.4 0.4 27.35 1.75 36.4 3.2 Q41.65 4.0 44.0 5.95 46.15 7.65 46.5 9.8 49.2 10.8 51.35 13.85 52.8 15.9 54.35 19.55 55.25 21.7 55.25 22.5 55.25 23.4 54.2 25.3 54.15 25.45 54.0 25.2 51.85 21.95 48.95 19.2 L47.65 17.85 46.5 17.8 Q44.25 24.45 34.35 21.95 28.1 20.45 25.15 17.35 23.8 15.9 23.1 14.65 22.35 12.75 21.8 12.05 20.85 10.85 19.5 12.25 17.05 14.8 11.75 16.35 L7.55 17.3 Q5.0 17.55 3.3 16.7 0.95 15.55 0.3 14.05 L0.15 13.55 0.1 13.45 M13.95 2.85 Q17.15 3.95 18.15 6.3 19.05 8.45 17.05 10.9 15.55 12.7 13.1 14.0 9.65 15.6 7.3 15.55 4.0 15.45 3.75 11.95 3.55 8.8 4.45 6.25 5.65 2.85 8.3 2.4 11.05 1.9 13.95 2.85 M17.1 8.95 Q19.0 5.85 15.4 4.55 10.35 2.65 8.05 3.7 6.15 4.6 5.15 6.7 4.25 8.6 4.2 10.9 4.1 14.95 8.0 14.4 10.25 14.0 12.8 12.85 15.65 11.3 17.1 8.95"/><path fill="#ffffff" stroke="none" d="M46.15 10.05 L46.45 10.85 Q51.85 12.7 55.1 22.6 54.9 22.05 54.5 22.75 L53.85 24.1 Q54.1 23.7 51.15 20.5 49.15 18.1 46.4 15.95 L46.25 16.05 Q44.55 23.0 34.8 20.95 30.5 20.1 26.9 17.8 25.2 16.7 23.95 14.65 L21.8 10.85 Q21.2 9.85 20.25 10.25 L18.75 11.55 Q17.5 12.8 15.35 13.8 L11.45 15.15 Q6.4 16.85 3.1 15.55 1.8 15.1 0.55 13.65 L0.3 13.3 Q0.5 13.55 0.55 13.2 L0.55 12.2 Q1.15 8.35 2.8 5.55 4.9 2.1 8.1 1.4 L15.05 1.15 21.95 2.05 37.6 4.5 Q40.45 4.95 42.85 6.1 46.15 7.75 46.15 9.9 L46.15 10.05 M0.1 13.45 L0.15 13.55 0.1 13.5 0.1 13.45 M33.5 5.35 Q28.1 4.5 26.1 6.5 24.35 8.3 25.3 11.25 26.15 13.85 28.7 16.25 31.2 18.6 33.75 19.2 36.6 19.9 38.0 17.85 39.25 15.55 39.45 13.1 39.7 10.3 38.55 8.3 37.7 6.9 36.4 6.2 35.45 5.7 33.5 5.35 M13.95 2.85 Q11.05 1.9 8.3 2.4 5.65 2.85 4.45 6.25 3.55 8.8 3.75 11.95 4.0 15.45 7.3 15.55 9.65 15.6 13.1 14.0 15.55 12.7 17.05 10.9 19.05 8.45 18.15 6.3 17.15 3.95 13.95 2.85"/><path fill="#000000" stroke="none" d="M36.15 7.0 L30.95 6.2 Q27.5 6.15 26.2 7.95 25.1 9.5 26.15 11.85 27.15 14.0 29.4 15.9 31.7 17.75 33.9 18.15 36.35 18.55 37.6 16.75 38.9 14.35 38.95 12.15 39.05 10.5 38.4 9.05 37.65 7.3 36.15 7.0 M33.5 5.35 Q35.45 5.7 36.4 6.2 37.7 6.9 38.55 8.3 39.7 10.3 39.45 13.1 39.25 15.55 38.0 17.85 36.6 19.9 33.75 19.2 31.2 18.6 28.7 16.25 26.15 13.85 25.3 11.25 24.35 8.3 26.1 6.5 28.1 4.5 33.5 5.35"/><path fill="#ffffff" fill-opacity="0.811764705882" d="M36.15 7.0 Q37.65 7.3 38.4 9.05 39.05 10.5 38.95 12.15 38.9 14.35 37.6 16.75 36.35 18.55 33.9 18.15 31.7 17.75 29.4 15.9 27.15 14.0 26.15 11.85 25.1 9.5 26.2 7.95 27.5 6.15 30.95 6.2 L36.15 7.0 M17.1 8.95 Q15.65 11.3 12.8 12.85 10.25 14.0 8.0 14.4 4.1 14.95 4.2 10.9 4.25 8.6 5.15 6.7 6.15 4.6 8.05 3.7 10.35 2.65 15.4 4.55 19.0 5.85 17.1 8.95"/></g></defs><g><g><use transform="matrix(9.26696777344,0.0,0.0,9.26696777344,0.0,0.0)" xlink:href="#c242"/></g></g></svg>