<?xml version='1.0' encoding='UTF-8'?>
<svg xmlns:xlink="http://www.w3.org/1999/xlink" xmlns="http://www.w3.org/2000/svg" version="1.1" width="521px" height="507px" viewBox="-244.281972503 -240.000334167 520.662928008 506.801685332"><defs><g id="c146"><path fill="#ffffff" stroke="none" d="M-14.25 8.95 L-14.5 8.2 Q-14.95 6.9 -14.5 6.45 L-14.4 6.35 -14.15 7.45 Q-13.4 9.4 -11.3 11.5 -10.0 12.8 -8.7 13.55 -7.4 14.3 -6.35 14.45 L-6.5 14.5 -8.0 14.55 -9.35 14.35 -10.95 14.5 Q-12.2 14.2 -13.15 13.25 -14.05 12.3 -14.4 11.05 -14.65 9.95 -14.25 9.5 L-14.25 8.95 M-9.8 9.9 Q-7.95 11.7 -6.3 12.3 L-5.7 12.45 -5.4 12.5 -6.0 13.1 Q-6.55 13.45 -7.85 12.8 -9.25 12.2 -10.65 10.75 -12.4 9.05 -12.95 7.45 -13.35 6.4 -13.05 5.95 L-12.5 5.4 -12.45 5.65 -12.25 6.25 -12.25 6.3 Q-11.6 8.1 -9.8 9.9 M-9.15 6.9 L-8.15 8.05 -8.0 8.2 -6.9 9.15 -6.1 9.85 -4.55 10.75 -5.0 11.25 -5.25 11.35 -5.65 11.35 -6.45 11.15 -7.2 10.75 -9.1 9.25 -10.75 7.15 -11.1 6.4 -11.15 6.3 -11.3 5.6 -11.3 5.25 -11.2 5.0 -10.75 4.55 -9.8 6.1 -9.15 6.9 M-8.6 0.95 L-8.65 1.0 -8.7 1.1 -8.7 1.85 -8.65 2.0 -8.65 2.05 -8.55 2.4 -8.5 2.45 -8.4 2.85 -8.35 2.9 -8.25 3.2 -8.15 3.4 -7.6 4.3 -7.55 4.35 -7.1 4.95 -7.05 5.05 -6.95 5.2 -6.85 5.25 -6.65 5.5 -5.4 6.75 -3.65 8.05 -3.6 8.05 -2.8 8.45 -1.1 8.75 -1.4 10.6 Q-1.95 11.05 -3.35 10.6 L-4.65 9.95 -7.5 7.7 -7.6 7.55 Q-9.05 6.15 -9.9 4.65 L-10.55 3.3 Q-11.0 1.9 -10.55 1.35 -10.35 1.15 -9.95 1.1 L-8.6 0.95 M0.0 -5.75 Q0.65 -4.0 2.45 -2.2 3.55 -1.1 4.7 -0.45 5.8 0.25 6.7 0.35 L-1.0 8.0 -2.75 7.75 -5.35 5.85 -6.5 4.6 -6.5 4.55 -6.65 4.4 -6.65 4.35 -6.85 4.15 -7.45 3.2 -7.45 3.1 -7.8 2.4 -7.95 1.8 Q-8.1 1.15 -7.85 0.95 L-0.2 -6.6 0.0 -5.75 M0.55 -9.9 Q0.75 -10.2 1.3 -10.2 L2.75 -9.9 2.0 -9.2 Q1.4 -8.55 1.9 -7.15 2.5 -5.6 4.15 -3.95 5.55 -2.55 7.0 -1.9 8.65 -1.2 9.35 -1.9 L10.0 -2.55 10.0 -2.5 10.3 -1.25 10.05 -0.4 9.25 -0.15 Q8.25 -0.1 6.7 -1.0 5.15 -1.9 3.65 -3.35 2.55 -4.45 1.75 -5.65 0.9 -6.8 0.55 -7.85 0.0 -9.35 0.55 -9.9 M5.4 -8.75 L6.65 -7.25 7.35 -6.5 8.85 -5.25 9.7 -4.75 10.65 -4.2 8.85 -2.4 Q8.5 -2.05 7.55 -2.4 L7.0 -2.7 Q5.8 -3.3 4.65 -4.4 3.45 -5.65 2.8 -6.85 L2.55 -7.4 2.55 -7.5 Q2.2 -8.45 2.55 -8.75 L4.4 -10.55 4.9 -9.55 5.4 -8.75 M7.15 -7.75 Q5.8 -9.2 5.15 -10.55 L4.9 -11.1 4.7 -11.85 Q4.6 -12.6 4.8 -12.9 L5.0 -12.25 5.0 -12.2 5.35 -11.55 5.95 -10.4 Q6.8 -9.05 8.1 -7.8 L10.5 -5.8 11.65 -5.15 12.35 -4.85 13.0 -4.65 12.0 -4.5 10.65 -5.0 Q9.25 -5.7 7.9 -6.95 L7.15 -7.75 M10.9 -12.75 L11.05 -12.75 12.15 -12.0 12.85 -11.05 12.9 -10.95 12.9 -10.65 12.5 -10.85 11.65 -11.45 Q11.1 -12.0 10.9 -12.5 L10.9 -12.75 M10.25 -13.05 L10.2 -13.0 10.15 -13.0 10.15 -12.55 10.2 -12.45 10.2 -12.4 10.25 -12.3 Q10.5 -11.6 11.15 -10.95 L12.1 -10.25 Q12.55 -9.95 12.9 -9.95 L13.1 -9.95 13.3 -10.1 14.55 -7.45 Q15.1 -6.05 14.55 -5.5 L14.2 -5.3 13.85 -5.25 13.65 -5.3 Q12.65 -5.35 11.25 -6.2 9.9 -7.0 8.6 -8.3 6.45 -10.45 5.7 -12.5 5.5 -13.05 5.45 -13.5 L5.5 -14.05 5.7 -14.4 5.7 -14.45 6.7 -14.7 8.35 -14.15 10.3 -13.15 10.25 -13.1 10.25 -13.05"/></g></defs><g><g><use transform="matrix(17.3265533447,0.0,0.0,17.3265533447,14.75,14.7)" xlink:href="#c146"/></g></g></svg>