<?xml version='1.0' encoding='UTF-8'?>
<svg xmlns:xlink="http://www.w3.org/1999/xlink" xmlns="http://www.w3.org/2000/svg" version="1.1" width="511px" height="512px" viewBox="-244.330937194 -245.499984741 510.780921935 511.999969482"><defs><g id="c25"><path fill="#ffffff" stroke="none" d="M0.75 -2.05 L1.8 -1.4 Q2.4 -0.75 2.35 0.15 2.35 1.1 1.7 1.7 1.0 2.25 0.15 2.25 -0.75 2.25 -1.4 1.55 L-1.9 0.5 Q-2.05 -0.05 -1.8 -0.65 L-6.35 -6.7 -0.45 -2.0 0.75 -2.05 M0.0 -10.5 Q4.35 -10.5 7.4 -7.4 10.5 -4.35 10.5 0.0 10.5 4.35 7.4 7.4 4.35 10.5 0.0 10.5 -4.3 10.5 -7.4 7.4 -10.45 4.35 -10.45 0.0 -10.45 -2.05 -9.65 -4.0 L-9.15 -4.55 -8.4 -4.55 -7.85 -4.0 -7.85 -3.3 Q-8.55 -1.7 -8.55 0.0 -8.55 3.55 -6.05 6.1 -3.55 8.55 0.0 8.55 3.55 8.55 6.05 6.1 8.55 3.55 8.55 0.0 8.55 -3.3 6.35 -5.7 4.2 -8.1 1.0 -8.5 L1.0 -4.45 Q1.0 -4.05 0.7 -3.8 0.4 -3.45 0.0 -3.45 -0.4 -3.45 -0.65 -3.8 L-0.95 -4.45 -0.95 -9.5 -0.65 -10.2 Q-0.4 -10.5 0.0 -10.5"/></g></defs><g><g><use transform="matrix(24.3809509277,0.0,0.0,24.3809509277,10.45,10.5)" xlink:href="#c25"/></g></g></svg>