<?xml version='1.0' encoding='UTF-8'?>
<svg xmlns:xlink="http://www.w3.org/1999/xlink" xmlns="http://www.w3.org/2000/svg" version="1.1" width="512px" height="258px" viewBox="-236.699763489 -118.963093567 511.999526978 257.989398956"><defs><g id="c118"><path fill="#ffffff" stroke="none" d="M-13.15 -5.15 L-13.15 -3.7 -3.0 -3.8 -2.45 -3.85 -2.75 -4.25 -2.85 -4.65 -2.85 -5.25 -13.15 -5.15 M12.6 -2.0 L11.75 -2.0 9.9 1.8 10.0 2.0 12.6 0.0 12.6 -2.0 M9.4 -8.1 L9.55 -7.5 9.55 -5.65 10.4 -4.35 13.2 -4.25 9.75 -8.5 8.95 -8.5 9.4 -8.1 M6.1 -9.7 L9.95 -9.7 Q10.25 -9.7 10.4 -9.5 L13.95 -6.0 17.65 -6.0 17.65 -8.55 19.3 -8.55 19.15 -2.0 13.9 -2.0 13.85 0.35 13.6 0.8 6.9 5.95 6.5 6.05 6.05 5.8 6.0 5.75 1.3 9.6 0.85 9.75 Q0.7 9.75 0.45 9.55 L-3.7 4.5 -3.8 4.05 -3.6 3.7 0.7 0.1 -1.55 -2.75 -9.0 -2.55 -16.75 -2.5 -18.2 -2.5 -18.6 -2.8 -18.85 -3.25 -18.55 -3.65 -18.1 -3.8 -14.25 -3.7 -14.25 -5.05 -14.75 -4.75 -16.95 -4.95 -19.3 -5.4 -19.3 -7.1 -16.95 -7.5 -14.75 -7.65 -14.35 -7.5 -14.15 -7.05 -2.85 -7.1 -2.85 -8.55 -2.6 -9.0 -2.15 -9.2 -1.75 -9.0 -1.55 -8.55 -1.55 -7.1 1.2 -7.05 1.2 -7.5 Q1.2 -8.0 1.55 -8.25 1.8 -8.6 2.2 -8.6 L5.45 -8.55 5.45 -9.05 5.7 -9.55 6.1 -9.7"/></g></defs><g><g><use transform="matrix(13.2642364502,0.0,0.0,13.2642364502,19.3,9.7)" xlink:href="#c118"/></g></g></svg>