<?xml version='1.0' encoding='UTF-8'?>
<svg xmlns:xlink="http://www.w3.org/1999/xlink" xmlns="http://www.w3.org/2000/svg" version="1.1" width="512px" height="320px" viewBox="-238.14998474 -148.760354614 511.999969481 319.820709228"><defs><g id="c86"><path fill="#ffffff" stroke="none" d="M-6.55 -5.45 L-7.0 -4.4 Q-7.0 -3.75 -6.55 -3.35 -6.05 -2.9 -5.5 -2.9 -4.85 -2.9 -4.4 -3.35 -4.0 -3.75 -4.0 -4.4 -4.0 -5.05 -4.4 -5.45 -4.85 -5.9 -5.5 -5.9 -6.05 -5.9 -6.55 -5.45 M14.6 -1.5 L14.25 -1.55 Q13.75 -0.5 12.75 0.05 L12.15 0.6 12.15 0.65 13.6 0.75 Q15.35 1.15 16.25 0.3 L16.7 -0.45 16.85 -1.55 16.5 -2.5 15.6 -2.95 15.6 -2.5 15.3 -1.8 Q15.0 -1.5 14.6 -1.5 M5.1 -4.8 Q4.6 -4.35 4.6 -3.7 4.6 -3.1 5.1 -2.65 5.5 -2.25 6.1 -2.25 6.75 -2.25 7.15 -2.65 7.65 -3.1 7.65 -3.7 7.65 -4.35 7.15 -4.8 6.75 -5.2 6.1 -5.2 5.5 -5.2 5.1 -4.8 M0.9 -2.35 Q1.4 -2.75 1.4 -3.4 1.4 -4.05 0.9 -4.45 0.45 -4.9 -0.1 -4.9 -0.75 -4.9 -1.2 -4.45 -1.6 -4.05 -1.6 -3.4 -1.6 -2.75 -1.2 -2.35 -0.75 -1.9 -0.1 -1.9 0.45 -1.9 0.9 -2.35 M6.8 -10.05 L6.1 -10.0 6.2 -9.15 6.8 -8.95 7.2 -8.45 10.7 -8.45 11.4 -8.15 11.65 -7.45 11.65 -7.05 11.9 -7.05 12.5 -6.85 12.8 -6.35 Q13.8 -5.8 14.25 -4.8 L14.6 -4.8 15.25 -4.55 15.6 -4.0 Q16.35 -3.85 17.1 -3.25 17.8 -2.7 17.85 -1.55 L17.6 -0.1 16.95 1.05 Q16.0 1.85 14.6 1.85 L13.35 1.7 Q12.6 1.5 12.0 1.7 L11.2 2.55 11.05 2.9 Q10.9 3.05 10.9 3.3 11.0 3.85 12.0 5.45 13.05 7.0 13.15 8.7 13.3 9.6 13.1 10.1 L9.6 11.15 Q8.25 10.45 8.3 7.45 L8.5 5.25 8.6 4.0 8.4 2.85 7.3 1.75 6.3 1.7 5.6 2.55 4.5 2.9 3.5 2.65 2.9 3.7 2.2 4.35 1.35 4.55 0.6 4.55 0.6 6.85 0.45 7.2 0.1 7.35 -0.25 7.2 -0.35 6.85 -0.35 5.95 -1.15 5.95 -1.15 6.85 -1.25 7.2 -1.55 7.35 -1.9 7.2 -2.0 6.85 -2.0 5.95 -2.85 5.95 -2.85 6.85 -2.95 7.2 -3.3 7.35 -3.6 7.2 -3.75 6.85 -3.75 5.95 -4.5 5.95 -4.5 6.85 -4.7 7.2 -4.95 7.35 Q-5.2 7.35 -5.3 7.2 L-5.45 6.85 -5.45 4.55 -6.2 4.55 -6.85 4.25 -7.15 3.6 -7.15 2.6 -7.65 2.6 -7.65 4.1 -7.9 4.8 Q-8.2 5.1 -8.6 5.1 L-13.6 5.1 -14.2 4.8 -14.5 4.1 -14.5 1.9 -14.35 1.25 -13.8 0.9 -13.8 0.5 -14.2 0.15 -14.4 -0.35 -14.4 -2.3 -16.0 -2.3 Q-16.35 -2.3 -16.6 -2.55 L-16.95 -3.1 -17.85 -3.1 -17.85 -4.5 -16.95 -4.5 -16.6 -5.05 -16.0 -5.25 -14.4 -5.25 -14.4 -6.05 Q-14.4 -6.6 -14.0 -6.85 L-14.0 -8.8 -13.85 -9.0 -13.6 -9.15 -13.3 -9.0 -13.15 -8.8 -13.15 -7.05 -6.6 -7.05 -6.55 -8.4 -6.2 -9.05 -5.5 -9.3 -5.45 -10.05 -5.35 -10.15 -6.05 -10.2 -5.6 -10.9 -4.8 -11.15 -4.0 -10.8 -3.65 -10.05 -4.35 -10.1 -4.35 -9.95 -4.4 -9.25 -3.7 -8.9 -3.45 -8.2 -3.6 -7.05 -1.0 -7.05 -0.75 -8.25 -0.4 -8.9 0.35 -9.05 0.45 -9.8 0.45 -9.95 -0.25 -10.05 0.3 -10.7 1.15 -10.85 Q1.6 -10.8 1.9 -10.45 L2.2 -9.65 1.5 -9.75 1.5 -9.65 1.4 -8.9 Q1.8 -8.85 2.0 -8.55 L2.2 -7.8 2.1 -7.05 2.95 -7.05 2.95 -7.45 Q2.95 -7.85 3.25 -8.15 3.5 -8.45 3.95 -8.45 L4.25 -8.45 4.6 -8.85 5.1 -9.0 5.05 -9.75 5.05 -9.9 4.35 -9.8 4.7 -10.55 5.5 -11.0 6.3 -10.75 6.8 -10.05"/></g></defs><g><g><use transform="matrix(14.3417358398,0.0,0.0,14.3417358398,17.85,11.15)" xlink:href="#c86"/></g></g></svg>