<?xml version='1.0' encoding='UTF-8'?>
<svg xmlns:xlink="http://www.w3.org/1999/xlink" xmlns="http://www.w3.org/2000/svg" version="1.1" width="513px" height="122px" viewBox="-234.549806214 -55.767086792 513.193084717 122.330909729"><defs><g id="c88"><path fill="#ffffff" stroke="none" d="M-17.95 -2.35 L-17.95 -1.95 -14.05 -1.95 -14.1 -2.05 -14.2 -2.35 -17.95 -2.35 M3.95 -4.6 L4.15 -4.95 4.5 -5.1 4.55 -5.1 4.9 -4.95 5.0 -4.6 5.0 -3.8 6.8 -2.6 8.35 -2.3 10.8 -2.0 16.8 -1.35 Q21.2 -0.85 21.4 -0.55 21.55 -0.3 21.1 0.9 L20.25 2.7 Q20.1 3.3 20.1 4.25 L20.1 5.15 16.85 3.8 11.9 1.2 Q10.45 0.25 9.35 -0.05 L8.5 -0.2 8.1 0.4 Q8.1 0.75 8.65 1.55 L9.55 3.0 9.95 4.25 6.75 4.6 6.5 4.25 6.7 3.55 Q6.75 2.65 6.25 1.7 L5.8 0.7 5.4 0.0 Q4.9 -0.55 2.6 -0.55 L-3.15 -0.55 Q-3.05 -0.25 -3.45 -0.25 L-12.45 -0.25 Q-12.9 -0.25 -13.25 -0.6 L-20.1 -0.6 -20.4 -0.45 -20.75 -0.45 Q-21.25 -0.45 -21.25 -1.0 L-21.25 -1.55 Q-21.25 -2.05 -20.75 -2.05 L-20.4 -2.05 -20.2 -2.0 -20.2 -2.35 -21.45 -2.35 -21.45 -3.6 -19.55 -3.6 -19.55 -4.5 Q-19.55 -4.9 -19.15 -4.9 -18.8 -4.9 -18.8 -4.5 L-18.8 -3.6 -3.55 -3.6 -3.55 -3.95 -3.35 -4.25 Q-3.2 -4.45 -3.0 -4.45 L3.95 -4.45 3.95 -4.6"/></g></defs><g><g><use transform="matrix(11.9347229004,0.0,0.0,11.9347229004,21.45,5.1)" xlink:href="#c88"/></g></g></svg>