<?xml version="1.0" encoding="UTF-8"?>
<svg xmlns="http://www.w3.org/2000/svg" xmlns:xlink="http://www.w3.org/1999/xlink" width="128pt" height="133pt" viewBox="0 0 128 133" version="1.1">
<g id="surface1">
<path style=" stroke:none;fill-rule:nonzero;fill:rgb(100%,100%,100%);fill-opacity:1;" d="M 31.289062 86.296875 L 35.554688 82.761719 L 48 100.441406 L 47.644531 100.792969 L 46.222656 101.5 L 44.089844 101.855469 L 43.023438 101.855469 L 40.890625 102.914062 L 21.6875 129.429688 C 21.214844 130.371094 20.386719 130.960938 19.199219 131.199219 L 17.777344 132.257812 L 17.421875 132.257812 L 15.289062 131.199219 L 1.421875 122.359375 L 0 120.238281 L 0 119.882812 L 0.710938 118.117188 L 27.023438 96.195312 L 28.089844 94.429688 L 29.867188 88.066406 L 31.289062 86.296875 M 65.777344 46.347656 L 67.554688 47.054688 L 126.933594 130.84375 L 126.578125 132.964844 L 124.445312 132.257812 L 76.089844 90.1875 L 71.820312 113.167969 L 70.398438 114.226562 L 68.976562 113.167969 L 8.179688 29.378906 L 8.179688 27.257812 L 10.667969 27.964844 L 59.378906 71.449219 L 64.710938 47.054688 L 65.777344 46.347656 M 66.84375 17.003906 L 84.976562 17.359375 L 70.753906 28.316406 L 75.734375 45.640625 L 60.800781 35.035156 L 45.511719 45.640625 L 50.84375 28.316406 L 36.265625 17.359375 L 54.753906 17.003906 L 60.800781 0.0351562 L 66.84375 17.003906 M 121.601562 17.359375 L 122.667969 17.003906 L 128 20.539062 L 128 22.308594 L 104.535156 41.046875 L 108.089844 43.519531 L 107.734375 44.933594 L 107.378906 45.289062 L 106.3125 44.933594 L 105.957031 44.582031 L 87.109375 59.78125 L 80 49.53125 L 121.601562 17.359375 "/>
</g>
</svg>
