<?xml version="1.0" encoding="UTF-8"?>
<svg xmlns="http://www.w3.org/2000/svg" xmlns:xlink="http://www.w3.org/1999/xlink" width="128pt" height="157pt" viewBox="0 0 128 157" version="1.1">
<g id="surface1">
<path style=" stroke:none;fill-rule:nonzero;fill:rgb(100%,100%,100%);fill-opacity:1;" d="M 55.6875 52.34375 C 49.316406 55.390625 46.128906 60.371094 46.128906 67.289062 C 46.128906 74.210938 49.316406 79.332031 55.6875 82.652344 L 55.6875 52.34375 M 48.207031 44.457031 L 55.6875 41.550781 L 55.6875 22.867188 C 44.050781 25.359375 34.492188 31.035156 27.011719 39.890625 C 19.253906 48.46875 15.375 58.847656 15.375 71.027344 C 15.375 82.652344 19.253906 92.890625 27.011719 101.75 C 34.492188 110.882812 44.050781 116.28125 55.6875 117.941406 L 55.6875 100.917969 L 54.441406 102.996094 L 47.792969 100.503906 L 49.871094 92.199219 L 49.871094 91.785156 L 49.453125 91.371094 L 42.390625 85.972656 L 41.972656 85.558594 L 33.664062 89.292969 L 30.335938 83.480469 L 36.988281 78.5 L 37.402344 78.085938 L 36.988281 77.667969 L 35.324219 68.121094 L 35.324219 67.707031 L 34.910156 67.707031 L 27.011719 65.628906 L 27.84375 58.574219 L 36.570312 58.988281 L 36.570312 58.574219 L 41.144531 50.269531 L 41.558594 49.855469 L 41.144531 49.023438 L 36.570312 43.625 L 41.972656 39.058594 L 48.207031 44.871094 L 48.207031 44.457031 M 81.871094 67.289062 C 81.871094 60.371094 78.683594 55.390625 72.3125 52.34375 L 72.3125 82.652344 C 78.683594 79.332031 81.871094 74.210938 81.871094 67.289062 M 86.027344 39.058594 L 91.429688 43.625 L 86.855469 49.023438 L 86.441406 49.855469 L 86.855469 50.269531 L 91.429688 58.574219 L 91.429688 58.988281 L 91.84375 58.988281 L 100.15625 58.574219 L 100.988281 65.628906 L 93.089844 67.707031 L 92.675781 67.707031 L 92.675781 68.121094 L 90.597656 77.667969 L 90.597656 78.085938 L 91.011719 78.5 L 97.664062 83.480469 L 93.921875 89.292969 L 86.027344 85.558594 L 85.609375 85.972656 L 78.546875 91.371094 L 78.128906 91.785156 L 78.128906 92.199219 L 80.207031 100.503906 L 73.558594 102.996094 L 72.3125 100.917969 L 72.3125 117.941406 C 83.949219 116.28125 93.644531 110.882812 101.402344 101.75 C 108.882812 92.890625 112.625 82.652344 112.625 71.027344 C 112.625 58.847656 108.882812 48.46875 101.402344 39.890625 C 93.644531 31.035156 83.949219 25.359375 72.3125 22.867188 L 72.3125 41.550781 L 79.375 44.457031 L 80.207031 44.871094 L 80.207031 44.457031 L 86.027344 39.058594 M 64.414062 0.0351562 L 66.910156 5.433594 L 70.648438 14.980469 C 86.996094 16.917969 100.570312 24.253906 111.375 36.984375 C 122.457031 49.4375 128 64.382812 128 81.820312 C 128 98.703125 122.457031 113.648438 111.375 126.660156 C 100.570312 139.113281 87.132812 146.308594 71.066406 148.246094 L 71.066406 150.324219 L 69.402344 155.304688 L 64.414062 156.964844 L 59.429688 155.304688 L 56.933594 150.324219 L 56.933594 148.246094 C 40.589844 146.308594 27.152344 139.113281 16.625 126.660156 C 5.542969 113.648438 0 98.703125 0 81.820312 C 0 64.382812 5.679688 49.4375 17.039062 36.984375 C 27.84375 24.253906 41.417969 16.917969 57.765625 14.980469 L 61.507812 5.433594 L 64.414062 0.0351562 "/>
</g>
</svg>
