<?xml version="1.0" encoding="UTF-8"?>
<svg xmlns="http://www.w3.org/2000/svg" xmlns:xlink="http://www.w3.org/1999/xlink" width="128pt" height="168pt" viewBox="0 0 128 168" version="1.1">
<g id="surface1">
<path style=" stroke:none;fill-rule:nonzero;fill:rgb(100%,100%,100%);fill-opacity:1;" d="M 58.488281 134.425781 C 58.488281 131.035156 57.925781 129.058594 56.792969 128.492188 L 56.792969 136.96875 L 54.675781 140.355469 L 64.425781 137.816406 L 71.207031 136.96875 L 90.703125 136.96875 L 90.703125 142.898438 L 72.054688 142.898438 L 68.664062 141.628906 L 66.96875 145.867188 L 69.933594 149.679688 L 73.75 147.5625 L 95.789062 147.5625 L 95.789062 131.882812 L 74.597656 131.882812 L 66.96875 132.730469 L 58.488281 134.425781 M 40.6875 90.355469 L 37.722656 88.238281 L 42.382812 84.847656 L 45.351562 92.050781 L 40.6875 90.355469 M 60.183594 87.8125 L 53.402344 92.050781 C 55.097656 90.636719 55.804688 88.378906 55.523438 85.269531 L 60.183594 87.8125 M 9.324219 82.304688 L 6.359375 83.152344 C 6.359375 84 7.488281 84.566406 9.75 84.847656 L 11.445312 88.238281 L 13.140625 92.476562 L 12.292969 98.40625 L 13.140625 103.914062 L 13.140625 102.222656 L 14.835938 100.527344 L 15.683594 104.761719 L 14.835938 108.152344 L 18.226562 111.542969 C 18.789062 113.804688 18.507812 115.496094 17.378906 116.628906 L 13.988281 116.628906 L 12.714844 113.238281 L 12.714844 109.847656 L 9.324219 100.949219 L 8.054688 90.78125 C 6.074219 92.476562 5.511719 95.441406 6.359375 99.679688 L 8.476562 109 C 2.824219 103.632812 0.847656 93.886719 2.542969 79.761719 L 10.171875 78.066406 L 11.867188 80.1875 L 12.714844 83.578125 L 9.324219 82.304688 M 108.503906 77.644531 C 111.046875 77.644531 113.308594 78.632812 115.285156 80.609375 L 117.828125 86.964844 L 115.285156 93.320312 C 113.308594 95.300781 111.046875 96.289062 108.503906 96.289062 C 105.960938 96.289062 103.699219 95.300781 101.722656 93.320312 C 100.027344 91.628906 99.179688 89.507812 99.179688 86.964844 C 99.179688 84.421875 100.027344 82.304688 101.722656 80.609375 C 103.699219 78.632812 105.960938 77.644531 108.503906 77.644531 M 68.238281 81.035156 C 68.519531 78.207031 67.816406 76.9375 66.121094 77.21875 L 39.839844 74.679688 C 37.582031 73.546875 35.320312 73.546875 33.058594 74.679688 L 26.277344 78.066406 C 24.582031 79.199219 24.582031 79.761719 26.277344 79.761719 L 30.515625 79.339844 L 35.179688 79.339844 L 42.808594 81.882812 L 35.179688 86.964844 L 37.722656 83.152344 L 34.332031 85.269531 L 31.363281 88.238281 L 35.179688 88.238281 L 41.113281 92.050781 L 49.164062 94.59375 C 52.839844 94.59375 55.945312 93.605469 58.488281 91.628906 L 61.878906 87.8125 L 57.640625 83.578125 L 63.574219 82.730469 L 67.390625 85.695312 L 68.238281 81.035156 M 73.324219 0.101562 L 78.410156 0.101562 L 77.988281 67.898438 L 85.191406 67.898438 C 87.453125 67.898438 89.570312 66.910156 91.550781 64.933594 L 94.09375 58.152344 L 93.667969 13.234375 C 106.382812 16.0625 114.859375 21.429688 119.097656 29.335938 C 123.335938 36.683594 126.164062 45.296875 127.574219 55.1875 L 128 72.136719 L 99.179688 72.136719 C 95.503906 72.136719 91.972656 73.6875 88.582031 76.796875 C 84.625 80.1875 82.648438 84.421875 82.648438 89.507812 L 82.648438 120.863281 L 77.140625 123.832031 C 73.464844 123.832031 70.640625 122.558594 68.664062 120.019531 C 66.121094 119.734375 64.425781 120.300781 63.574219 121.710938 C 63.011719 119.734375 63.433594 118.039062 64.847656 116.628906 C 64 115.78125 63.152344 116.0625 62.304688 117.476562 L 61.03125 121.710938 L 64.425781 123.832031 L 67.816406 122.558594 L 71.207031 124.253906 L 75.019531 126.375 L 91.550781 126.375 L 96.636719 101.375 L 122.914062 101.375 L 123.335938 102.644531 C 124.183594 109.707031 123.621094 114.226562 121.640625 116.203125 C 118.816406 118.746094 115.425781 124.253906 111.46875 132.730469 C 107.230469 141.488281 104.972656 147.984375 104.6875 152.222656 L 101.722656 163.664062 L 97.90625 167.476562 L 78.410156 167.898438 L 77.5625 160.695312 L 73.75 167.898438 L 57.21875 167.476562 L 50.011719 161.96875 C 45.773438 157.730469 42.949219 152.929688 41.535156 147.5625 C 40.6875 144.453125 38.570312 140.5 35.179688 135.695312 L 27.550781 123.40625 C 22.746094 113.804688 19.496094 104.480469 17.800781 95.441406 C 16.105469 85.835938 15.539062 74.394531 16.105469 61.117188 L 17.378906 50.523438 L 22.464844 33.574219 L 29.246094 21.285156 C 34.332031 14.222656 41.394531 8.574219 50.4375 4.335938 L 57.21875 2.21875 L 73.324219 0.101562 "/>
</g>
</svg>
