<?xml version="1.0" encoding="UTF-8"?>
<svg xmlns="http://www.w3.org/2000/svg" xmlns:xlink="http://www.w3.org/1999/xlink" width="127pt" height="78pt" viewBox="0 0 127 78" version="1.1">
<g id="surface1">
<path style=" stroke:none;fill-rule:nonzero;fill:rgb(100%,100%,100%);fill-opacity:1;" d="M 39.417969 52.738281 L 35.636719 54 L 34.066406 57.789062 L 35.636719 61.894531 L 39.417969 63.472656 L 43.195312 61.894531 C 44.242188 60.84375 44.769531 59.472656 44.769531 57.789062 L 43.195312 54 L 39.417969 52.738281 M 64.285156 57.789062 L 62.714844 54 C 61.664062 53.15625 60.402344 52.738281 58.933594 52.738281 L 55.15625 54 L 53.582031 57.789062 L 55.15625 61.894531 L 58.933594 63.472656 C 60.402344 63.472656 61.664062 62.949219 62.714844 61.894531 L 64.285156 57.789062 M 83.804688 57.789062 L 82.546875 54 L 78.769531 52.738281 L 74.992188 54 L 73.101562 57.789062 C 73.101562 59.472656 73.730469 60.84375 74.992188 61.894531 L 78.769531 63.472656 L 82.546875 61.894531 L 83.804688 57.789062 M 102.066406 61.894531 L 103.640625 57.789062 L 102.066406 54 L 97.972656 52.738281 L 94.195312 54 L 92.933594 57.789062 L 94.195312 61.894531 L 97.972656 63.472656 L 102.066406 61.894531 M 80.972656 0 L 85.378906 0 L 85.378906 21.15625 L 89.15625 20.84375 L 91.363281 21.472656 L 91.992188 24.632812 L 91.992188 38.84375 L 108.992188 39.789062 C 115.917969 40.421875 120.113281 41.789062 121.582031 43.894531 C 125.152344 48.105469 125.78125 53.050781 123.472656 58.738281 C 121.582031 63.789062 118.332031 68 113.714844 71.367188 C 108.464844 75.15625 100.070312 77.367188 88.527344 78 L 46.34375 76.738281 L 12.972656 70.421875 L 11.710938 73.894531 C 10.453125 75.578125 9.195312 76.210938 7.933594 75.789062 C 6.253906 76.210938 5.417969 74.84375 5.417969 71.683594 L 5.417969 66.949219 L 0.0625 62.210938 C 0.0625 60.738281 1.113281 59.261719 3.210938 57.789062 L 6.359375 56.527344 L 6.046875 41.683594 L 6.988281 37.894531 L 8.25 37.578125 L 9.507812 37.578125 C 10.558594 37.789062 11.398438 38.421875 12.027344 39.472656 L 13.285156 43.261719 L 13.917969 53.683594 L 34.378906 46.421875 C 42.144531 43.683594 52.535156 41.472656 65.546875 39.789062 L 65.546875 30.949219 C 65.546875 27.789062 66.175781 26 67.433594 25.578125 L 80.972656 22.105469 L 80.972656 0 "/>
</g>
</svg>
