<?xml version="1.0" encoding="UTF-8"?>
<svg xmlns="http://www.w3.org/2000/svg" xmlns:xlink="http://www.w3.org/1999/xlink" width="128pt" height="127pt" viewBox="0 0 128 127" version="1.1">
<g id="surface1">
<path style=" stroke:none;fill-rule:nonzero;fill:rgb(100%,100%,100%);fill-opacity:1;" d="M 83.246094 106.148438 L 82.648438 107.632812 L 79.664062 110.308594 L 74.890625 106.148438 L 69.222656 101.09375 C 67.035156 99.511719 64.746094 98.71875 62.359375 98.71875 C 56.789062 98.71875 52.414062 101.195312 49.230469 106.148438 L 48.632812 107.632812 L 45.351562 110.308594 L 40.875 106.148438 L 35.207031 101.09375 L 28.34375 98.71875 C 22.777344 98.71875 18.398438 101.195312 15.214844 106.148438 L 14.621094 107.632812 C 13.425781 109.417969 12.332031 110.308594 11.339844 110.308594 L 7.160156 110.308594 L 7.160156 119.816406 L 11.339844 119.816406 C 16.507812 119.816406 20.6875 117.242188 23.871094 112.089844 L 24.167969 111.199219 C 25.164062 109.019531 26.457031 107.929688 28.046875 107.929688 L 32.820312 112.386719 L 38.488281 117.441406 C 40.675781 119.027344 42.964844 119.816406 45.351562 119.816406 C 50.523438 119.816406 54.699219 117.242188 57.882812 112.089844 L 58.183594 111.199219 C 59.175781 109.019531 60.46875 107.929688 62.0625 107.929688 L 66.835938 112.386719 L 72.503906 117.441406 C 74.691406 119.027344 76.980469 119.816406 79.367188 119.816406 C 84.539062 119.816406 88.714844 117.242188 91.898438 112.089844 L 92.195312 111.199219 L 93.390625 109.714844 C 94.382812 108.523438 95.277344 107.929688 96.074219 107.929688 L 100.847656 112.386719 L 106.515625 117.441406 C 108.90625 119.027344 111.191406 119.816406 113.378906 119.816406 L 117.558594 119.816406 L 117.558594 110.308594 L 113.679688 110.308594 L 108.90625 106.148438 L 103.234375 101.09375 C 101.046875 99.511719 98.761719 98.71875 96.371094 98.71875 C 90.804688 98.71875 86.425781 101.195312 83.246094 106.148438 M 103.234375 79.398438 C 101.046875 77.816406 98.761719 77.023438 96.371094 77.023438 C 90.804688 77.023438 86.425781 79.5 83.246094 84.453125 L 82.648438 85.9375 L 79.664062 88.613281 C 78.472656 88.214844 76.878906 86.828125 74.890625 84.453125 L 69.222656 79.398438 C 67.035156 77.816406 64.746094 77.023438 62.359375 77.023438 C 56.789062 77.023438 52.414062 79.5 49.230469 84.453125 L 48.632812 85.640625 L 45.351562 88.613281 L 40.875 84.453125 L 35.207031 79.398438 L 28.34375 77.023438 C 22.777344 77.023438 18.398438 79.5 15.214844 84.453125 L 14.621094 85.9375 C 13.425781 87.722656 12.332031 88.613281 11.339844 88.613281 L 7.160156 88.613281 L 7.160156 98.125 L 11.339844 98.125 C 16.507812 98.125 20.6875 95.546875 23.871094 90.394531 L 24.167969 89.503906 C 25.164062 87.523438 26.457031 86.433594 28.046875 86.234375 L 32.820312 90.691406 L 38.488281 95.746094 C 40.675781 97.332031 42.964844 98.125 45.351562 98.125 C 50.523438 98.125 54.699219 95.546875 57.882812 90.394531 L 58.183594 89.503906 C 59.175781 87.523438 60.46875 86.433594 62.0625 86.234375 L 66.835938 90.691406 L 72.503906 95.746094 C 74.691406 97.332031 76.980469 98.125 79.367188 98.125 C 84.539062 98.125 88.714844 95.546875 91.898438 90.394531 L 92.195312 89.503906 L 93.390625 88.019531 L 96.074219 86.234375 L 100.847656 90.691406 C 105.621094 95.644531 109.800781 98.125 113.378906 98.125 L 117.558594 98.125 L 117.558594 88.613281 L 113.679688 88.613281 L 108.90625 84.453125 L 103.234375 79.398438 M 91.597656 42.84375 C 84.835938 19.070312 79.566406 7.183594 75.785156 7.183594 C 70.015625 7.183594 63.355469 21.941406 55.792969 51.464844 C 53.210938 46.90625 51.121094 44.628906 49.527344 44.628906 C 44.753906 44.628906 39.484375 52.949219 33.714844 69.59375 L 40.875 75.832031 L 45.351562 79.996094 L 48.632812 77.023438 L 49.230469 75.832031 C 52.414062 70.878906 56.789062 68.402344 62.359375 68.402344 C 64.746094 68.402344 67.035156 69.097656 69.222656 70.484375 L 74.890625 75.832031 L 79.664062 79.996094 L 82.648438 77.023438 L 83.246094 75.832031 C 86.425781 70.878906 90.804688 68.402344 96.371094 68.402344 C 98.761719 68.402344 101.046875 69.097656 103.234375 70.484375 L 108.90625 75.832031 L 113.679688 79.996094 L 119.644531 80.292969 C 111.292969 47.402344 104.925781 30.957031 100.550781 30.957031 C 97.765625 30.957031 94.78125 34.917969 91.597656 42.84375 M 64.148438 7.480469 C 67.53125 2.527344 71.410156 0.0507812 75.785156 0.0507812 C 79.167969 0.0507812 82.050781 1.734375 84.4375 5.101562 C 87.421875 9.0625 90.605469 16.097656 93.984375 26.203125 C 96.175781 24.617188 98.363281 23.824219 100.550781 23.824219 C 103.929688 23.824219 106.914062 25.609375 109.5 29.175781 L 117.558594 47.304688 L 126.804688 79.695312 C 127.601562 82.667969 126.804688 85.144531 124.417969 87.125 L 124.71875 88.613281 L 124.71875 119.816406 C 124.71875 121.800781 123.921875 123.484375 122.332031 124.871094 C 121.136719 126.257812 119.546875 126.949219 117.558594 126.949219 L 113.378906 126.949219 C 108.007812 126.949219 102.339844 123.878906 96.371094 117.738281 C 91.996094 123.878906 86.328125 126.949219 79.367188 126.949219 C 73.996094 126.949219 68.328125 123.878906 62.359375 117.738281 C 57.984375 123.878906 52.3125 126.949219 45.351562 126.949219 C 39.78125 126.949219 34.113281 123.878906 28.34375 117.738281 C 23.96875 123.878906 18.300781 126.949219 11.339844 126.949219 L 7.160156 126.949219 L 2.089844 124.871094 L 0 119.816406 L 0 88.613281 C 0 86.632812 0.695312 84.949219 2.089844 83.5625 C 3.480469 82.171875 5.171875 81.480469 7.160156 81.480469 L 8.652344 81.480469 L 9.546875 80.292969 C 13.726562 73.953125 19.394531 70.484375 26.554688 69.890625 L 26.851562 67.214844 C 30.632812 56.714844 34.3125 49.183594 37.894531 44.628906 C 41.472656 39.875 45.351562 37.496094 49.527344 37.496094 L 51.917969 38.089844 C 56.292969 23.429688 60.371094 13.226562 64.148438 7.480469 "/>
</g>
</svg>
