<?xml version="1.0" encoding="UTF-8"?>
<svg xmlns="http://www.w3.org/2000/svg" xmlns:xlink="http://www.w3.org/1999/xlink" width="128pt" height="151pt" viewBox="0 0 128 151" version="1.1">
<g id="surface1">
<path style=" stroke:none;fill-rule:nonzero;fill:rgb(100%,100%,100%);fill-opacity:1;" d="M 72.84375 35.371094 L 91.207031 35.371094 L 64 8.164062 L 36.792969 35.371094 L 55.15625 35.371094 L 20.808594 69.71875 L 50.394531 69.71875 L 9.582031 110.527344 L 57.199219 110.527344 L 57.199219 127.875 L 55.496094 127.875 C 47.109375 128.554688 39.511719 130.253906 32.710938 132.976562 C 26.363281 135.695312 21.941406 138.984375 19.445312 142.835938 L 108.894531 142.835938 C 106.398438 138.984375 101.636719 135.695312 94.609375 132.976562 C 87.582031 130.253906 79.644531 128.554688 70.800781 127.875 L 70.800781 110.527344 L 118.417969 110.527344 L 77.605469 69.71875 L 107.191406 69.71875 L 72.84375 35.371094 M 69.78125 2.378906 L 96.988281 29.585938 C 99.710938 32.082031 100.390625 35.027344 99.03125 38.429688 C 97.671875 41.378906 95.515625 43.078125 92.570312 43.53125 L 112.972656 63.9375 C 115.46875 66.429688 116.035156 69.378906 114.675781 72.777344 C 113.316406 76.179688 110.820312 77.878906 107.191406 77.878906 L 97.328125 77.878906 L 124.199219 104.40625 C 126.691406 107.128906 127.257812 110.1875 125.898438 113.589844 C 124.539062 116.992188 122.042969 118.691406 118.417969 118.691406 L 78.964844 118.691406 L 78.964844 120.390625 C 97.101562 122.886719 109.347656 128.894531 115.695312 138.417969 C 117.507812 140.910156 117.734375 143.632812 116.375 146.578125 C 114.789062 149.527344 112.292969 151 108.894531 151 L 19.445312 151 C 16.046875 151 13.664062 149.527344 12.304688 146.578125 C 10.71875 143.859375 10.832031 141.136719 12.644531 138.417969 C 18.992188 128.894531 31.125 122.886719 49.035156 120.390625 L 49.035156 118.691406 L 9.582031 118.691406 C 6.183594 118.691406 3.6875 116.992188 2.101562 113.589844 C 0.742188 110.1875 1.308594 107.128906 3.800781 104.40625 L 30.671875 77.878906 L 20.808594 77.878906 C 17.179688 77.878906 14.683594 76.179688 13.324219 72.777344 C 11.964844 69.378906 12.53125 66.429688 15.027344 63.9375 L 35.773438 43.53125 C 32.597656 43.078125 30.445312 41.378906 29.308594 38.429688 C 27.722656 35.027344 28.289062 32.082031 31.011719 29.585938 L 58.21875 2.378906 C 59.804688 0.792969 61.734375 0 64 0 C 66.492188 0 68.421875 0.792969 69.78125 2.378906 "/>
</g>
</svg>
