<?xml version="1.0" encoding="UTF-8"?>
<svg xmlns="http://www.w3.org/2000/svg" xmlns:xlink="http://www.w3.org/1999/xlink" width="128pt" height="93pt" viewBox="0 0 128 93" version="1.1">
<g id="surface1">
<path style=" stroke:none;fill-rule:nonzero;fill:rgb(100%,100%,100%);fill-opacity:1;" d="M 99.71875 20.21875 C 99.71875 16.558594 98.375 13.382812 95.683594 10.6875 C 93.1875 8.183594 90.117188 6.933594 86.46875 6.933594 L 19.929688 6.933594 C 16.28125 6.933594 13.207031 8.183594 10.710938 10.6875 C 8.214844 13.382812 6.96875 16.558594 6.96875 20.21875 L 6.96875 67.582031 L 33.179688 67.582031 L 32.601562 71.339844 C 32.601562 75.574219 34.042969 79.234375 36.925781 82.3125 C 39.996094 85.203125 43.644531 86.644531 47.871094 86.644531 C 52.09375 86.644531 55.742188 85.203125 58.816406 82.3125 C 61.886719 79.234375 63.425781 75.574219 63.425781 71.339844 L 62.847656 67.582031 L 121.03125 67.582031 L 121.03125 59.207031 L 99.71875 59.207031 L 99.71875 20.21875 M 86.46875 0 C 92.035156 0 96.742188 2.023438 100.582031 6.066406 C 104.613281 9.917969 106.628906 14.632812 106.628906 20.21875 L 106.628906 52.277344 L 121.03125 52.277344 C 122.953125 52.277344 124.585938 52.949219 125.929688 54.296875 C 127.273438 55.644531 127.945312 57.28125 127.945312 59.207031 L 127.945312 67.582031 C 127.945312 69.507812 127.273438 71.050781 125.929688 72.203125 C 124.585938 73.746094 122.953125 74.515625 121.03125 74.515625 L 69.761719 74.515625 C 68.800781 79.714844 66.304688 84.144531 62.273438 87.800781 C 58.046875 91.265625 53.246094 93 47.871094 93 C 42.300781 93 37.402344 91.265625 33.179688 87.800781 C 29.148438 84.144531 26.648438 79.714844 25.691406 74.515625 L 6.96875 74.515625 C 5.046875 74.515625 3.414062 73.746094 2.070312 72.203125 C 0.726562 71.050781 0.0546875 69.507812 0.0546875 67.582031 L 0.0546875 20.21875 C 0.0546875 14.632812 1.976562 9.917969 5.816406 6.066406 C 9.847656 2.023438 14.550781 0 19.929688 0 L 86.46875 0 "/>
</g>
</svg>
