<?xml version="1.0" encoding="UTF-8"?>
<svg xmlns="http://www.w3.org/2000/svg" xmlns:xlink="http://www.w3.org/1999/xlink" width="128pt" height="95pt" viewBox="0 0 128 95" version="1.1">
<g id="surface1">
<path style=" stroke:none;fill-rule:nonzero;fill:rgb(100%,100%,100%);fill-opacity:1;" d="M 94.238281 77.964844 L 97.121094 76.230469 L 101.726562 80.5625 L 107.773438 86.046875 L 108.640625 86.625 L 109.792969 87.203125 L 112.09375 88.070312 L 118.71875 88.070312 L 118.71875 78.542969 L 114.6875 78.542969 L 110.078125 74.5 L 104.320312 69.011719 L 97.121094 66.703125 C 91.550781 66.703125 87.230469 69.203125 84.160156 74.210938 L 83.296875 75.652344 L 80.128906 78.542969 L 75.808594 74.5 L 70.046875 69.011719 L 62.847656 66.703125 C 57.28125 66.703125 52.863281 69.203125 49.601562 74.210938 L 48.734375 75.652344 C 48.160156 77.386719 47.199219 78.347656 45.855469 78.542969 L 41.25 74.5 L 35.488281 69.011719 C 33.183594 67.472656 30.785156 66.703125 28.289062 66.703125 C 22.914062 66.703125 18.59375 69.203125 15.328125 74.210938 L 14.464844 75.652344 C 13.503906 77.578125 12.351562 78.542969 11.007812 78.542969 L 6.976562 78.542969 L 6.976562 88.070312 L 13.890625 88.070312 L 16.769531 87.203125 L 18.207031 86.335938 L 18.496094 86.046875 L 19.9375 84.894531 L 21.089844 84.027344 L 22.816406 82.007812 L 23.96875 80.273438 L 24.257812 79.40625 C 25.21875 77.480469 26.5625 76.421875 28.289062 76.230469 L 33.183594 80.5625 C 37.984375 85.566406 42.113281 88.070312 45.570312 88.070312 C 50.753906 88.070312 54.976562 85.472656 58.238281 80.273438 L 58.527344 79.40625 L 62.558594 76.230469 L 67.457031 80.5625 C 72.253906 85.566406 76.382812 88.070312 79.839844 88.070312 C 85.214844 88.070312 89.535156 85.472656 92.800781 80.273438 L 93.085938 79.40625 L 94.238281 77.964844 M 104.605469 47.355469 L 97.121094 44.757812 C 91.359375 44.757812 87.039062 47.257812 84.160156 52.265625 L 83.296875 53.707031 L 80.128906 56.597656 L 75.808594 52.554688 L 70.910156 47.933594 L 70.335938 47.355469 L 62.847656 44.757812 C 59.777344 44.757812 56.222656 46.683594 52.191406 50.53125 L 45.855469 56.597656 L 41.25 52.265625 L 35.488281 47.066406 C 33.183594 45.527344 30.785156 44.757812 28.289062 44.757812 L 19.9375 47.355469 L 17.34375 49.664062 L 15.328125 52.265625 L 14.464844 53.707031 L 11.007812 56.597656 L 6.976562 56.597656 L 6.976562 66.125 L 11.007812 66.125 L 14.464844 65.546875 L 17.632812 64.679688 L 19.648438 63.238281 L 23.96875 58.328125 L 24.257812 57.460938 C 25.410156 55.34375 26.753906 54.285156 28.289062 54.285156 L 33.183594 58.617188 C 37.984375 63.621094 42.113281 66.125 45.570312 66.125 C 51.136719 66.125 55.359375 63.527344 58.238281 58.328125 L 58.527344 57.460938 L 62.558594 54.285156 L 67.457031 58.617188 C 72.253906 63.621094 76.382812 66.125 79.839844 66.125 C 85.40625 66.125 89.726562 63.527344 92.800781 58.328125 L 93.085938 57.460938 L 94.238281 55.730469 L 97.121094 54.285156 L 101.726562 58.617188 C 106.71875 63.621094 110.941406 66.125 114.398438 66.125 L 118.71875 66.125 L 118.71875 56.597656 L 114.6875 56.597656 L 110.078125 52.265625 L 106.625 48.800781 L 105.183594 47.933594 L 104.605469 47.355469 M 121.023438 22.8125 L 115.550781 22.8125 L 115.550781 48.222656 L 117.277344 49.664062 L 118.71875 49.664062 C 120.640625 49.664062 122.175781 50.339844 123.328125 51.6875 C 124.863281 53.226562 125.628906 54.863281 125.628906 56.597656 L 125.628906 88.070312 C 125.628906 90.1875 124.863281 91.824219 123.328125 92.980469 C 122.175781 94.328125 120.640625 95 118.71875 95 L 114.398438 95 C 110.941406 95 107.582031 94.039062 104.320312 92.113281 L 97.40625 86.046875 C 92.800781 92.015625 86.945312 95 79.839844 95 C 74.464844 95 68.800781 92.015625 62.847656 86.046875 C 58.238281 92.015625 52.480469 95 45.570312 95 C 40.191406 95 34.527344 92.015625 28.578125 86.046875 C 23.96875 92.015625 18.113281 95 11.007812 95 L 6.976562 95 L 2.082031 92.980469 L 0.0664062 88.070312 L 0.0664062 56.597656 L 2.082031 51.6875 C 3.425781 50.339844 5.058594 49.664062 6.976562 49.664062 L 8.707031 49.664062 L 9.570312 48.222656 L 13.023438 44.179688 L 13.023438 22.8125 L 9.28125 22.8125 C 7.554688 22.8125 6.015625 22.136719 4.671875 20.789062 C 3.136719 19.441406 2.371094 17.804688 2.371094 15.882812 L 2.371094 6.929688 C 2.371094 5.003906 3.136719 3.367188 4.671875 2.019531 L 9.28125 0 L 121.023438 0 L 125.917969 2.019531 L 127.933594 6.929688 L 127.933594 15.882812 C 127.933594 17.804688 127.261719 19.441406 125.917969 20.789062 C 124.574219 22.136719 122.941406 22.8125 121.023438 22.8125 M 73.214844 15.882812 L 73.214844 43.023438 L 73.792969 43.601562 L 79.265625 48.511719 L 82.144531 45.625 L 82.144531 15.882812 L 100 15.882812 L 100 37.25 C 102.304688 38.210938 104.992188 40.328125 108.0625 43.601562 L 108.640625 43.890625 L 108.640625 15.882812 L 121.023438 15.882812 L 121.023438 6.929688 L 9.28125 6.929688 L 9.28125 15.882812 L 19.9375 15.882812 L 19.9375 38.691406 L 27.136719 36.671875 L 28.863281 36.960938 L 28.863281 15.882812 L 46.433594 15.882812 L 46.433594 47.355469 L 48.449219 44.46875 L 55.648438 37.828125 L 55.648438 15.882812 L 73.214844 15.882812 "/>
</g>
</svg>
