<?xml version="1.0" encoding="UTF-8"?>
<svg xmlns="http://www.w3.org/2000/svg" xmlns:xlink="http://www.w3.org/1999/xlink" width="128pt" height="156pt" viewBox="0 0 128 156" version="1.1">
<g id="surface1">
<path style=" stroke:none;fill-rule:nonzero;fill:rgb(100%,100%,100%);fill-opacity:1;" d="M 78.410156 28.109375 L 73.136719 16.164062 C 70.324219 11.007812 67.398438 8.433594 64.351562 8.433594 L 63.648438 8.433594 C 60.601562 8.433594 57.675781 11.007812 54.863281 16.164062 L 49.589844 28.109375 C 48.183594 32.089844 44.789062 34.785156 39.398438 36.1875 L 43.265625 38.648438 L 43.265625 70.621094 L 39.046875 75.1875 L 39.046875 83.269531 L 8.472656 107.164062 L 9.878906 109.972656 L 15.5 109.972656 L 15.5 147.566406 L 112.5 147.566406 L 112.5 109.972656 L 118.121094 109.972656 L 119.527344 107.164062 L 88.953125 83.269531 L 88.953125 75.1875 L 84.734375 70.621094 L 84.734375 38.648438 L 88.601562 36.1875 C 83.210938 34.785156 79.816406 32.089844 78.410156 28.109375 M 78.410156 8.785156 L 85.789062 23.890625 L 86.492188 24.945312 C 86.726562 26.117188 88.132812 27.054688 90.710938 27.757812 C 94.222656 28.695312 96.332031 30.917969 97.035156 34.433594 C 97.738281 37.710938 96.683594 40.523438 93.871094 42.863281 L 93.167969 42.863281 L 93.167969 67.109375 L 95.277344 69.566406 L 97.386719 75.1875 L 97.386719 79.054688 L 124.796875 100.488281 C 126.671875 101.890625 127.726562 103.648438 127.960938 105.757812 L 126.90625 111.378906 L 125.5 114.1875 L 120.933594 117.703125 L 120.933594 147.566406 C 120.933594 149.910156 120.113281 151.902344 118.472656 153.539062 C 116.832031 155.179688 114.839844 156 112.5 156 L 15.5 156 C 13.160156 156 11.167969 155.179688 9.527344 153.539062 C 7.886719 151.902344 7.066406 149.910156 7.066406 147.566406 L 7.066406 117.703125 L 2.5 114.1875 L 1.09375 111.378906 L 0.0390625 105.757812 C 0.273438 103.648438 1.328125 101.890625 3.203125 100.488281 L 30.613281 79.054688 L 30.613281 75.1875 L 32.722656 69.566406 L 34.832031 67.109375 L 34.832031 42.863281 L 34.480469 42.863281 C 31.433594 40.523438 30.378906 37.710938 31.316406 34.433594 C 32.019531 30.917969 34.011719 28.695312 37.289062 27.757812 L 41.859375 24.945312 L 42.210938 23.890625 L 49.589844 8.785156 C 53.574219 2.929688 58.261719 0 63.648438 0 L 64.351562 0 C 69.738281 0 74.425781 2.929688 78.410156 8.785156 "/>
</g>
</svg>
