<?xml version="1.0" encoding="UTF-8"?>
<svg xmlns="http://www.w3.org/2000/svg" xmlns:xlink="http://www.w3.org/1999/xlink" width="128pt" height="129pt" viewBox="0 0 128 129" version="1.1">
<g id="surface1">
<path style=" stroke:none;fill-rule:nonzero;fill:rgb(100%,100%,100%);fill-opacity:1;" d="M 6.671875 64.652344 C 6.671875 77.792969 10.515625 89.625 18.199219 100.136719 L 53.6875 64.652344 L 18.199219 29.164062 C 10.515625 39.476562 6.671875 51.304688 6.671875 64.652344 M 20.929688 54.644531 L 20.929688 62.226562 L 22.445312 62.226562 C 26.085938 62.226562 27.90625 60.910156 27.90625 58.28125 C 27.90625 55.855469 25.984375 54.644531 22.140625 54.644531 L 20.929688 54.644531 M 13.648438 50.09375 L 20.929688 50.09375 C 30.636719 50.09375 35.488281 52.824219 35.488281 58.28125 C 35.488281 61.515625 33.566406 63.84375 29.726562 65.257812 L 36.703125 77.996094 L 28.511719 77.996094 L 21.230469 65.257812 L 20.929688 65.257812 L 20.929688 77.996094 L 13.648438 77.996094 L 13.648438 50.09375 M 64 122.277344 C 77.144531 122.277344 88.871094 118.132812 99.183594 109.84375 L 62.484375 73.144531 L 26.996094 108.628906 C 37.710938 117.730469 50.046875 122.277344 64 122.277344 M 107.980469 101.652344 C 116.878906 90.9375 121.328125 78.601562 121.328125 64.652344 C 121.328125 50.496094 116.878906 38.164062 107.980469 27.648438 L 70.976562 64.652344 L 107.980469 101.652344 M 64 0.0507812 C 81.59375 0.0507812 96.65625 6.417969 109.195312 19.15625 C 121.730469 31.691406 128 46.859375 128 64.652344 C 128 82.445312 121.730469 97.507812 109.195312 109.84375 C 96.65625 122.582031 81.59375 128.949219 64 128.949219 C 46.003906 128.949219 30.734375 122.582031 18.199219 109.84375 C 6.066406 97.507812 0 82.445312 0 64.652344 C 0 46.859375 6.066406 31.691406 18.199219 19.15625 C 30.734375 6.417969 46.003906 0.0507812 64 0.0507812 M 99.183594 19.15625 C 88.667969 10.867188 76.941406 6.722656 64 6.722656 C 50.046875 6.722656 37.710938 11.269531 26.996094 20.371094 L 62.484375 55.855469 L 99.183594 19.15625 M 100.09375 62.226562 C 103.53125 62.226562 105.25 60.910156 105.25 58.28125 C 105.25 55.855469 103.429688 54.644531 99.792969 54.644531 L 98.882812 54.644531 L 98.882812 62.226562 L 100.09375 62.226562 M 98.882812 50.09375 C 108.386719 50.09375 113.136719 52.824219 113.136719 58.28125 C 113.136719 61.515625 111.214844 63.84375 107.375 65.257812 L 114.351562 77.996094 L 105.859375 77.996094 L 98.882812 65.257812 L 98.882812 77.996094 L 90.691406 77.996094 L 90.691406 50.09375 L 98.882812 50.09375 "/>
</g>
</svg>
