<?xml version="1.0" encoding="UTF-8"?>
<svg xmlns="http://www.w3.org/2000/svg" xmlns:xlink="http://www.w3.org/1999/xlink" width="128pt" height="144pt" viewBox="0 0 128 144" version="1.1">
<g id="surface1">
<path style=" stroke:none;fill-rule:nonzero;fill:rgb(100%,100%,100%);fill-opacity:1;" d="M 105.253906 13.160156 L 66.207031 51.597656 L 39.382812 39.121094 L 51.945312 66.097656 L 12.5625 104.878906 C 21.84375 109.375 32.027344 111.621094 43.121094 111.621094 C 58.738281 111.621094 72.769531 107.011719 85.21875 97.796875 L 79.449219 136.574219 L 119.511719 136.574219 L 112.382812 87.679688 L 95.746094 87.679688 C 104.574219 77.113281 110.003906 65.085938 112.042969 51.597656 C 113.625 38.109375 111.363281 25.296875 105.253906 13.160156 M 107.628906 0.0078125 L 112.382812 9.785156 C 117.589844 21.027344 119.964844 32.941406 119.511719 45.53125 C 119.511719 57.667969 116.457031 69.246094 110.34375 80.261719 L 118.832031 80.261719 L 128 143.992188 L 70.621094 143.992188 L 75.714844 111.957031 C 65.074219 116.902344 54.210938 119.375 43.121094 119.375 C 31.347656 119.375 20.144531 116.792969 9.507812 111.621094 L 0 106.898438 L 42.78125 64.75 L 24.105469 24.285156 L 64.507812 42.832031 L 107.628906 0.0078125 "/>
</g>
</svg>
