<?xml version="1.0" encoding="UTF-8"?>
<svg xmlns="http://www.w3.org/2000/svg" xmlns:xlink="http://www.w3.org/1999/xlink" width="128pt" height="74pt" viewBox="0 0 128 74" version="1.1">
<g id="surface1">
<path style=" stroke:none;fill-rule:nonzero;fill:rgb(100%,100%,100%);fill-opacity:1;" d="M 104.894531 12.882812 C 102.699219 12.882812 100.5 14.679688 98.304688 18.273438 C 92.113281 14.679688 84.523438 11.882812 75.535156 9.886719 L 52.164062 6.589844 C 42.578125 6.589844 34.089844 8.488281 26.699219 12.285156 C 19.511719 16.277344 14.917969 21.269531 12.917969 27.261719 C 8.925781 28.261719 6.925781 30.058594 6.925781 32.65625 C 6.925781 35.050781 8.925781 36.851562 12.917969 38.046875 C 15.515625 45.4375 21.808594 51.03125 31.792969 54.824219 L 34.789062 61.117188 L 36.886719 65.910156 L 40.183594 67.109375 L 66.246094 67.109375 C 67.644531 67.109375 68.941406 66.410156 70.140625 65.011719 L 71.640625 61.117188 L 71.640625 56.625 C 82.625 54.425781 91.8125 51.332031 99.203125 47.335938 C 100.800781 49.933594 102.699219 51.230469 104.894531 51.230469 L 105.492188 51.230469 C 110.085938 51.03125 114.679688 48.632812 119.273438 44.039062 C 115.679688 43.839844 112.183594 42.242188 108.789062 39.246094 L 110.289062 35.953125 C 117.476562 35.75 121.074219 34.652344 121.074219 32.65625 C 121.074219 30.660156 117.378906 29.460938 109.988281 29.0625 L 107.890625 25.765625 L 115.378906 20.972656 L 119.273438 20.371094 C 114.679688 15.777344 110.085938 13.28125 105.492188 12.882812 L 104.894531 12.882812 M 118.078125 10.484375 L 124.070312 15.28125 C 126.066406 17.476562 126.566406 19.972656 125.566406 22.769531 L 123.769531 25.464844 C 126.566406 27.0625 127.964844 29.460938 127.964844 32.65625 C 127.964844 35.453125 126.765625 37.75 124.367188 39.546875 L 125.566406 41.644531 C 126.566406 44.441406 126.066406 46.835938 124.070312 48.835938 C 118.277344 54.425781 112.183594 57.523438 105.792969 58.121094 L 104.894531 58.121094 C 102.296875 58.121094 99.902344 57.324219 97.703125 55.726562 L 78.828125 61.714844 C 78.628906 65.3125 77.230469 68.308594 74.636719 70.703125 C 72.238281 72.902344 69.441406 74 66.246094 74 L 40.183594 74 C 36.585938 74 33.789062 72.800781 31.792969 70.40625 L 28.199219 63.8125 L 26.699219 59.917969 C 17.511719 56.125 11.023438 50.632812 7.226562 43.441406 C 2.433594 40.84375 0.0351562 37.25 0.0351562 32.65625 C 0.0351562 27.863281 2.433594 24.265625 7.226562 21.871094 C 10.820312 15.078125 16.613281 9.6875 24.601562 5.691406 C 32.792969 1.898438 41.980469 0 52.164062 0 L 74.335938 2.398438 C 82.523438 4.195312 89.914062 6.589844 96.507812 9.585938 C 98.902344 7.191406 101.699219 5.992188 104.894531 5.992188 L 105.792969 5.992188 C 109.988281 6.390625 114.082031 7.890625 118.078125 10.484375 "/>
</g>
</svg>
