<?xml version="1.0" encoding="UTF-8"?>
<svg xmlns="http://www.w3.org/2000/svg" xmlns:xlink="http://www.w3.org/1999/xlink" width="128pt" height="132pt" viewBox="0 0 128 132" version="1.1">
<g id="surface1">
<path style=" stroke:none;fill-rule:nonzero;fill:rgb(100%,100%,100%);fill-opacity:1;" d="M 100.054688 15.253906 C 110.714844 25.632812 116.984375 38.605469 118.867188 54.167969 L 123.253906 57.28125 C 126.390625 60.394531 127.957031 64.132812 127.957031 68.492188 C 127.957031 73.054688 126.390625 76.894531 123.253906 80.007812 C 120.328125 82.914062 116.671875 84.574219 112.28125 84.992188 L 80.304688 116.121094 C 80.304688 120.480469 78.734375 124.21875 75.601562 127.332031 C 72.257812 130.445312 68.390625 132 64 132 C 59.402344 132 55.535156 130.445312 52.398438 127.332031 C 49.265625 124.21875 47.695312 120.480469 47.695312 116.121094 L 16.03125 84.992188 C 11.640625 84.574219 7.984375 82.914062 5.058594 80.007812 C 1.714844 77.105469 0.0429688 73.265625 0.0429688 68.492188 C 0.0429688 64.132812 1.714844 60.394531 5.058594 57.28125 L 6.625 55.726562 C 8.089844 39.746094 14.148438 26.460938 24.808594 15.878906 C 35.46875 5.292969 48.113281 0 62.746094 0 C 76.957031 0 89.394531 5.085938 100.054688 15.253906 M 117.925781 62.574219 C 116.253906 60.707031 114.164062 59.773438 111.65625 59.773438 C 111.027344 45.246094 106.011719 32.894531 96.605469 22.726562 C 87.199219 12.554688 75.914062 7.472656 62.746094 7.472656 C 49.578125 7.472656 38.1875 12.554688 28.570312 22.726562 C 19.167969 33.105469 14.253906 45.554688 13.835938 60.085938 L 10.074219 62.574219 C 8.609375 64.234375 7.878906 66.207031 7.878906 68.492188 C 7.878906 70.980469 8.609375 73.054688 10.074219 74.71875 C 11.957031 76.585938 14.046875 77.519531 16.34375 77.519531 L 18.851562 76.894531 L 55.847656 113.320312 C 54.804688 116.847656 55.429688 119.753906 57.730469 122.039062 C 59.820312 123.699219 61.910156 124.527344 64 124.527344 C 66.300781 124.527344 68.390625 123.699219 70.269531 122.039062 C 72.777344 119.753906 73.511719 116.847656 72.464844 113.320312 L 109.460938 76.894531 L 111.65625 77.519531 C 114.164062 77.519531 116.253906 76.585938 117.925781 74.71875 C 119.808594 73.054688 120.746094 70.980469 120.746094 68.492188 C 120.746094 66.207031 119.808594 64.234375 117.925781 62.574219 "/>
</g>
</svg>
