<?xml version="1.0" encoding="UTF-8"?>
<svg xmlns="http://www.w3.org/2000/svg" xmlns:xlink="http://www.w3.org/1999/xlink" width="128pt" height="128pt" viewBox="0 0 128 128" version="1.1">
<g id="surface1">
<path style=" stroke:none;fill-rule:nonzero;fill:rgb(100%,100%,100%);fill-opacity:1;" d="M 98.230469 90.234375 L 98.230469 78.703125 C 95.726562 78.894531 93.605469 80.625 91.875 83.890625 L 86.675781 75.820312 C 83.785156 73.128906 79.933594 71.304688 75.121094 70.34375 L 65.011719 69.476562 L 53.746094 70.34375 C 49.125 71.496094 45.5625 73.417969 43.058594 76.109375 L 38.148438 83.605469 C 36.414062 80.527344 34.199219 78.894531 31.503906 78.703125 L 31.503906 90.234375 L 33.238281 102.054688 L 31.792969 103.785156 L 31.503906 106.953125 C 31.503906 108.875 33.429688 109.835938 37.28125 109.835938 L 37.28125 114.738281 L 27.75 114.738281 L 7.816406 115.890625 C 6.664062 117.046875 6.375 118.773438 6.953125 121.082031 L 121.046875 121.082031 C 121.046875 118.390625 119.796875 116.46875 117.292969 115.316406 L 93.03125 115.027344 L 92.453125 115.027344 L 92.453125 109.835938 C 96.304688 109.835938 98.230469 108.875 98.230469 106.953125 L 97.941406 104.070312 L 96.496094 102.054688 L 98.230469 90.234375 M 114.984375 53.621094 L 114.984375 17.296875 L 12.730469 17.296875 L 12.730469 53.621094 L 114.984375 53.621094 M 100.25 0 L 102.851562 0 C 105.355469 0 107.472656 0.960938 109.207031 2.882812 C 110.746094 0.960938 112.769531 0 115.269531 0 L 117.871094 0 C 120.183594 0 122.203125 0.863281 123.9375 2.59375 C 125.476562 4.324219 126.246094 6.34375 126.246094 8.648438 L 126.246094 10.667969 C 126.246094 14.125 124.804688 16.722656 121.914062 18.449219 L 121.914062 52.179688 C 124.804688 53.910156 126.246094 56.503906 126.246094 59.964844 L 126.246094 61.980469 C 126.246094 64.480469 125.476562 66.59375 123.9375 68.324219 C 122.203125 69.863281 120.183594 70.628906 117.871094 70.628906 L 115.269531 70.628906 C 112.769531 70.628906 110.746094 69.667969 109.207031 67.746094 C 107.472656 69.667969 105.355469 70.628906 102.851562 70.628906 L 99.382812 70.628906 L 99.382812 71.785156 C 102.65625 72.359375 104.582031 74.378906 105.160156 77.835938 C 105.933594 81.875 105.546875 88.503906 104.007812 97.730469 L 103.71875 99.746094 C 105.257812 102.054688 105.738281 104.839844 105.160156 108.109375 L 120.46875 108.972656 L 125.957031 113.875 L 127.980469 121.082031 L 125.957031 125.980469 L 121.046875 128 L 6.953125 128 L 2.90625 126.558594 L 0.308594 123.097656 L 0.0195312 116.757812 C 0.40625 114.066406 1.558594 112.046875 3.484375 110.703125 C 4.640625 109.742188 6.179688 109.070312 8.105469 108.683594 L 24.570312 107.820312 C 23.992188 104.746094 24.476562 102.054688 26.015625 99.746094 L 25.726562 97.441406 C 24.1875 88.410156 23.800781 81.777344 24.570312 77.550781 C 24.957031 75.050781 26.304688 73.320312 28.617188 72.359375 L 28.617188 70.34375 L 27.75 70.628906 L 24.859375 70.628906 C 22.164062 70.628906 20.140625 69.667969 18.792969 67.746094 C 17.253906 69.667969 15.136719 70.628906 12.441406 70.628906 L 9.839844 70.628906 C 7.53125 70.628906 5.507812 69.863281 3.773438 68.324219 C 2.234375 66.59375 1.464844 64.480469 1.464844 61.980469 L 1.464844 59.964844 C 1.464844 56.503906 3.003906 53.910156 6.085938 52.179688 L 6.085938 18.449219 C 3.003906 16.722656 1.464844 14.125 1.464844 10.667969 L 1.464844 8.648438 C 1.464844 6.34375 2.234375 4.324219 3.773438 2.59375 C 5.507812 0.863281 7.53125 0 9.839844 0 L 12.441406 0 C 15.136719 0 17.253906 0.960938 18.792969 2.882812 C 20.140625 0.960938 22.164062 0 24.859375 0 L 27.75 0 C 30.253906 0 32.273438 0.960938 33.816406 2.882812 C 35.355469 0.960938 37.378906 0 39.878906 0 L 42.769531 0 C 45.082031 0 47.101562 0.960938 48.835938 2.882812 C 50.375 0.960938 52.398438 0 54.902344 0 L 57.5 0 C 60.195312 0 62.316406 0.960938 63.855469 2.882812 C 65.394531 0.960938 67.515625 0 70.210938 0 L 72.808594 0 C 75.3125 0 77.335938 0.960938 78.875 2.882812 C 80.609375 0.960938 82.726562 0 85.230469 0 L 87.832031 0 C 90.332031 0 92.355469 0.960938 93.894531 2.882812 C 95.628906 0.960938 97.746094 0 100.25 0 "/>
</g>
</svg>
