<?xml version="1.0" encoding="UTF-8"?>
<svg xmlns="http://www.w3.org/2000/svg" xmlns:xlink="http://www.w3.org/1999/xlink" width="128pt" height="91pt" viewBox="0 0 128 91" version="1.1">
<g id="surface1">
<path style=" stroke:none;fill-rule:nonzero;fill:rgb(100%,100%,100%);fill-opacity:1;" d="M 77.402344 68.992188 L 77.402344 84.351562 L 117.15625 84.351562 L 81.617188 6.046875 L 46.078125 6.046875 L 10.84375 84.351562 L 50.597656 84.351562 L 50.597656 68.992188 L 51.800781 67.484375 L 76.199219 67.484375 L 77.402344 68.992188 M 128 90.976562 L 71.078125 90.976562 L 71.078125 73.8125 L 57.222656 73.8125 L 57.222656 90.976562 L 0 90.976562 L 40.660156 3.035156 L 42.464844 0.0234375 L 85.234375 0.0234375 L 128 90.976562 M 63.847656 10.5625 L 67.765625 12.671875 L 69.269531 17.792969 L 67.765625 23.515625 C 66.558594 24.917969 65.253906 25.621094 63.847656 25.621094 L 60.535156 23.515625 L 59.03125 17.792969 L 60.535156 12.671875 L 63.847656 10.5625 "/>
</g>
</svg>
