<?xml version="1.0" encoding="UTF-8"?>
<svg xmlns="http://www.w3.org/2000/svg" xmlns:xlink="http://www.w3.org/1999/xlink" width="128pt" height="128pt" viewBox="0 0 128 128" version="1.1">
<g id="surface1">
<path style=" stroke:none;fill-rule:nonzero;fill:rgb(100%,100%,100%);fill-opacity:1;" d="M 84.113281 54.640625 C 76.25 23.042969 70 7.246094 65.359375 7.246094 C 58.707031 7.246094 50.84375 26.96875 41.769531 66.414062 C 38.742188 60.378906 36.222656 57.359375 34.207031 57.359375 C 28.964844 57.359375 22.914062 67.925781 16.058594 89.054688 L 6.984375 120.753906 L 49.933594 120.753906 C 50.941406 112.703125 52.859375 106.164062 55.683594 101.132812 C 58.503906 95.898438 61.730469 93.28125 65.359375 93.28125 C 68.992188 93.28125 72.316406 95.898438 75.34375 101.132812 C 78.167969 106.164062 79.980469 112.703125 80.789062 120.753906 L 120.714844 120.753906 L 111.335938 80 C 104.28125 52.628906 98.835938 38.945312 95.003906 38.945312 C 91.574219 38.945312 87.945312 44.175781 84.113281 54.640625 M 75.34375 6.640625 C 78.972656 12.074219 82.703125 21.734375 86.535156 35.621094 C 89.15625 33.007812 91.980469 31.699219 95.003906 31.699219 C 99.238281 31.699219 102.867188 34.515625 105.894531 40.152344 C 109.523438 46.792969 113.757812 59.472656 118.597656 78.1875 L 127.972656 119.546875 L 126.460938 125.585938 C 125.050781 127.195312 123.132812 128 120.714844 128 L 80.789062 128 C 78.972656 128 77.460938 127.394531 76.25 126.1875 L 73.527344 121.660156 C 72.921875 115.421875 71.613281 110.1875 69.597656 105.960938 L 65.359375 100.527344 L 61.429688 105.960938 C 59.414062 110.1875 58 115.421875 57.195312 121.660156 C 56.992188 123.472656 56.1875 124.980469 54.773438 126.1875 L 49.933594 128 L 6.984375 128 C 4.765625 128 2.949219 127.09375 1.539062 125.28125 L 0.0273438 123.167969 L 0.0273438 118.640625 L 9.101562 86.945312 C 13.335938 73.863281 17.46875 64.503906 21.5 58.867188 C 25.332031 53.03125 29.566406 50.113281 34.207031 50.113281 L 37.835938 51.019531 C 43.28125 29.886719 48.421875 15.597656 53.261719 8.152344 C 56.691406 2.71875 60.722656 0 65.359375 0 C 69.191406 0 72.519531 2.214844 75.34375 6.640625 "/>
</g>
</svg>
