<?xml version="1.0" encoding="UTF-8"?>
<svg xmlns="http://www.w3.org/2000/svg" xmlns:xlink="http://www.w3.org/1999/xlink" width="128pt" height="131pt" viewBox="0 0 128 131" version="1.1">
<g id="surface1">
<path style=" stroke:none;fill-rule:nonzero;fill:rgb(100%,100%,100%);fill-opacity:1;" d="M 87.40625 71.988281 L 93.332031 66.976562 C 74.964844 69.726562 57.285156 76.414062 40.296875 87.03125 L 7.109375 112.691406 L 7.109375 123.898438 L 33.777344 123.898438 C 47.40625 106.398438 65.285156 89.097656 87.40625 71.988281 M 100.445312 70.515625 L 99.554688 71.105469 L 98.074219 72.578125 L 91.851562 77.296875 C 79.40625 87.917969 66.566406 103.449219 53.332031 123.898438 L 81.183594 123.898438 C 86.519531 108.5625 94.023438 90.964844 103.703125 71.105469 L 100.445312 70.515625 M 118.222656 66.976562 C 113.679688 74.054688 109.332031 83.785156 105.183594 96.175781 L 96.59375 123.898438 L 118.222656 123.898438 L 118.222656 66.976562 M 105.183594 14.472656 L 105.183594 28.042969 L 85.332031 26.273438 L 77.035156 7.101562 L 46.222656 7.101562 L 46.222656 37.183594 C 42.863281 40.527344 41.183594 44.363281 41.183594 48.6875 C 41.183594 52.03125 42.171875 55.175781 44.148438 58.125 L 51.851562 64.023438 L 47.40625 63.730469 L 22.222656 66.386719 L 7.109375 71.398438 L 7.109375 95.878906 L 37.628906 79.953125 C 53.628906 71.890625 64.394531 66.976562 69.925781 65.203125 L 61.332031 64.320312 C 64.492188 63.535156 67.160156 62.058594 69.332031 59.894531 L 73.183594 51.636719 L 97.777344 51.636719 L 96.890625 55.472656 C 96.890625 57.832031 97.777344 59.894531 99.554688 61.664062 C 101.136719 63.433594 103.210938 64.320312 105.777344 64.320312 C 108.148438 64.320312 110.222656 63.433594 112 61.664062 C 113.777344 59.894531 114.667969 57.832031 114.667969 55.472656 L 113.480469 51.636719 L 118.222656 51.636719 L 120.296875 48.984375 L 115.554688 29.515625 L 109.332031 28.925781 L 109.332031 14.472656 L 105.183594 14.472656 M 109.332031 7.394531 C 111.308594 7.394531 112.988281 8.082031 114.371094 9.460938 L 116.445312 14.472656 L 116.445312 22.4375 C 119.605469 22.632812 121.582031 24.402344 122.371094 27.746094 L 127.109375 47.507812 C 127.703125 49.671875 127.308594 51.636719 125.925781 53.40625 L 123.851562 56.0625 L 121.480469 58.125 L 120.890625 60.484375 C 123.851562 61.664062 125.332031 63.828125 125.332031 66.976562 L 125.332031 123.898438 C 125.332031 125.867188 124.542969 127.539062 122.964844 128.914062 C 121.777344 130.289062 120.199219 130.980469 118.222656 130.980469 L 7.109375 130.980469 L 2.074219 128.914062 L 0 123.898438 L 0 71.398438 C 0 68.253906 1.480469 66.089844 4.445312 64.910156 L 5.332031 64.320312 C 15.800781 60.386719 25.976562 58.027344 35.851562 57.242188 L 34.074219 48.6875 C 34.074219 43.574219 35.753906 38.855469 39.109375 34.53125 L 39.109375 7.101562 L 41.183594 2.085938 C 42.566406 0.710938 44.246094 0.0195312 46.222656 0.0195312 L 77.035156 0.0195312 C 80.199219 0.0195312 82.371094 1.398438 83.554688 4.152344 L 90.074219 19.488281 L 98.074219 20.371094 L 98.074219 14.472656 C 98.074219 12.703125 98.765625 11.03125 100.148438 9.460938 C 101.53125 8.082031 103.210938 7.394531 105.183594 7.394531 L 109.332031 7.394531 "/>
</g>
</svg>
