<?xml version="1.0" encoding="UTF-8"?>
<svg xmlns="http://www.w3.org/2000/svg" xmlns:xlink="http://www.w3.org/1999/xlink" width="128pt" height="128pt" viewBox="0 0 128 128" version="1.1">
<g id="surface1">
<path style=" stroke:none;fill-rule:nonzero;fill:rgb(100%,100%,100%);fill-opacity:1;" d="M 119.488281 119.488281 L 119.488281 29.617188 L 62.636719 8.511719 L 8.511719 29.617188 L 8.511719 119.488281 L 119.488281 119.488281 M 65.703125 0.679688 L 122.210938 21.445312 C 126.070312 23.035156 128 25.757812 128 29.617188 L 128 119.488281 C 128 121.757812 127.207031 123.800781 125.617188 125.617188 C 123.800781 127.207031 121.757812 128 119.488281 128 L 8.511719 128 C 6.242188 128 4.199219 127.207031 2.382812 125.617188 C 0.792969 123.800781 0 121.757812 0 119.488281 L 0 29.617188 C 0 25.757812 1.816406 23.035156 5.445312 21.445312 L 59.574219 0.679688 L 62.636719 0 L 65.703125 0.679688 "/>
</g>
</svg>
