<?xml version="1.0" encoding="UTF-8"?>
<svg xmlns="http://www.w3.org/2000/svg" xmlns:xlink="http://www.w3.org/1999/xlink" width="128pt" height="125pt" viewBox="0 0 128 125" version="1.1">
<g id="surface1">
<path style=" stroke:none;fill-rule:nonzero;fill:rgb(100%,100%,100%);fill-opacity:1;" d="M 98.636719 83.8125 L 97.777344 84.390625 L 95.765625 86.980469 C 92.890625 90.054688 89.535156 91.589844 85.703125 91.589844 C 82.253906 91.589844 79.378906 90.339844 77.078125 87.84375 L 76.792969 87.269531 L 75.066406 84.390625 L 72.765625 82.949219 L 72.480469 83.523438 L 70.179688 91.589844 L 69.316406 91.878906 L 69.894531 88.710938 L 70.179688 86.117188 L 69.894531 86.117188 L 69.03125 88.132812 L 68.167969 92.164062 L 55.234375 93.03125 L 54.082031 92.453125 L 55.234375 88.996094 L 57.820312 85.542969 L 59.542969 83.238281 L 59.257812 82.949219 L 57.820312 82.949219 C 55.328125 82.949219 51.589844 83.910156 46.609375 85.828125 C 44.308594 88.902344 41.242188 90.4375 37.410156 90.4375 L 34.535156 89.863281 L 27.347656 90.4375 L 16.714844 89.285156 L 14.125 88.996094 L 13.265625 88.996094 L 12.402344 89.285156 L 12.976562 91.015625 L 14.125 92.164062 C 17.191406 94.277344 19.203125 96.292969 20.164062 98.214844 L 19.011719 98.214844 L 15.851562 99.367188 L 15.851562 99.941406 L 18.4375 100.804688 L 19.011719 100.804688 L 17 102.246094 L 13.839844 103.398438 L 13.839844 103.6875 L 16.714844 105.414062 L 17.289062 106.855469 L 21.601562 108.007812 L 22.75 108.296875 L 23.324219 108.296875 L 23.613281 113.480469 C 24.1875 115.976562 25.625 117.222656 27.925781 117.222656 L 31.085938 116.359375 L 34.535156 112.039062 L 34.535156 111.75 L 35.683594 108.871094 L 86.851562 110.597656 L 87.140625 110.3125 L 90.015625 105.125 L 89.441406 106.277344 L 88.863281 109.734375 C 88.480469 112.039062 88.960938 114.246094 90.300781 116.359375 L 90.589844 116.359375 C 91.546875 117.511719 92.699219 118.085938 94.039062 118.085938 C 95.765625 118.085938 97.296875 117.320312 98.636719 115.785156 C 101.511719 113.09375 102.855469 109.640625 102.664062 105.414062 L 102.664062 104.550781 L 103.523438 108.871094 L 104.386719 109.160156 L 106.398438 108.296875 L 108.125 103.398438 L 108.410156 102.535156 L 109.5625 102.824219 C 110.710938 102.824219 111.476562 102.4375 111.863281 101.671875 L 111.863281 101.09375 C 111.476562 100.328125 110.710938 99.941406 109.5625 99.941406 L 108.988281 99.941406 L 109.5625 98.789062 L 110.425781 99.078125 L 114.449219 98.789062 L 116.75 97.636719 L 117.035156 97.351562 L 114.160156 96.199219 L 111.574219 96.484375 L 111 96.773438 L 111.285156 96.484375 L 113.300781 94.757812 L 113.875 95.046875 L 114.160156 94.46875 L 113.875 94.46875 L 115.023438 94.183594 L 115.023438 93.894531 L 116.75 91.300781 L 115.597656 88.421875 L 115.3125 88.421875 L 113.875 86.980469 L 114.160156 86.40625 L 113.875 86.117188 L 113.300781 86.980469 L 111.863281 86.40625 L 110.136719 85.828125 L 109.5625 85.542969 L 110.136719 84.675781 L 110.710938 83.523438 L 111 81.796875 L 107.835938 81.796875 L 98.636719 83.8125 M 64.429688 50.980469 L 71.90625 45.507812 L 73.34375 44.929688 L 73.34375 44.644531 L 65.582031 44.929688 L 58.105469 50.691406 L 55.808594 52.417969 L 54.371094 53.285156 L 51.78125 53.285156 L 41.148438 52.417969 L 37.121094 53.285156 L 31.660156 51.84375 L 28.5 52.707031 L 27.636719 53.285156 L 24.476562 56.738281 C 19.109375 57.890625 13.839844 59.8125 8.664062 62.5 L 6.941406 63.363281 L 6.652344 63.941406 L 11.25 67.972656 C 15.085938 70.46875 20.164062 72.195312 26.488281 73.15625 L 26.773438 75.171875 L 27.0625 75.171875 L 27.925781 74.597656 L 27.636719 73.445312 L 28.785156 73.445312 C 29.167969 76.515625 30.511719 79.011719 32.8125 80.933594 L 34.824219 82.660156 L 42.007812 80.355469 C 42.96875 78.054688 43.253906 76.132812 42.871094 74.597656 L 77.941406 75.460938 L 78.804688 76.613281 L 79.667969 76.324219 L 79.667969 76.035156 L 79.378906 75.171875 L 80.527344 75.171875 L 80.242188 76.035156 L 80.527344 80.070312 L 82.539062 81.507812 L 93.175781 78.339844 L 94.039062 76.035156 L 110.425781 71.714844 L 115.023438 69.125 L 115.597656 69.699219 L 115.886719 69.125 L 115.597656 68.835938 L 118.472656 66.246094 L 119.335938 67.394531 L 119.621094 67.394531 L 120.199219 67.109375 L 120.484375 66.820312 L 119.335938 65.378906 L 120.199219 63.652344 L 119.910156 63.652344 L 119.046875 64.226562 L 119.046875 64.515625 L 118.761719 64.804688 L 116.460938 62.210938 L 116.75 62.210938 L 117.324219 62.5 L 117.609375 62.5 L 117.898438 62.210938 L 117.609375 61.925781 L 117.035156 61.636719 L 115.886719 61.925781 L 106.6875 55.011719 L 105.25 52.132812 L 103.238281 52.417969 C 100.554688 52.417969 98.253906 51.652344 96.339844 50.113281 C 94.230469 48.769531 92.410156 46.753906 90.878906 44.066406 L 76.21875 44.644531 L 80.242188 45.21875 L 80.527344 45.21875 L 81.105469 45.507812 L 87.429688 48.386719 L 93.175781 55.300781 L 87.429688 57.027344 L 87.140625 56.164062 L 87.140625 56.738281 L 86.851562 57.316406 L 79.378906 58.179688 L 69.03125 58.179688 L 66.445312 54.148438 L 66.15625 54.148438 L 65.292969 54.433594 L 64.71875 55.011719 L 66.730469 57.890625 L 58.683594 57.316406 L 64.429688 50.980469 M 75.929688 17.28125 L 77.078125 20.449219 C 77.078125 20.832031 76.695312 21.023438 75.929688 21.023438 L 63.28125 20.160156 L 62.417969 16.128906 L 61.269531 14.113281 L 60.980469 14.113281 L 60.980469 14.402344 L 61.269531 16.992188 L 61.84375 19.875 L 60.695312 19.875 L 58.683594 11.519531 L 58.683594 11.234375 L 58.96875 10.945312 L 73.628906 13.824219 L 75.929688 17.28125 M 117.898438 16.992188 L 117.324219 16.992188 L 114.160156 17.28125 L 103.8125 18.722656 L 90.878906 16.417969 L 81.390625 12.671875 L 65.867188 8.351562 L 58.105469 6.914062 L 56.957031 6.914062 L 50.921875 17.570312 L 32.523438 12.097656 L 23.324219 10.082031 L 21.601562 10.082031 L 20.738281 9.792969 L 20.164062 10.082031 L 21.023438 12.960938 L 21.601562 13.824219 L 21.023438 13.824219 L 17.863281 14.976562 L 17.289062 14.402344 L 17.574219 15.265625 L 15.851562 16.417969 L 15.5625 16.417969 L 14.414062 19.585938 L 16.136719 22.175781 L 17.289062 22.464844 L 17.289062 23.328125 L 17.574219 23.328125 L 17.574219 23.042969 L 19.875 24.480469 L 20.164062 24.769531 L 19.875 24.769531 L 17 24.195312 L 14.125 25.34375 L 14.125 25.921875 L 16.714844 26.785156 L 20.738281 27.074219 L 21.601562 26.785156 L 22.175781 28.226562 L 21.601562 28.226562 L 19.300781 29.089844 L 19.300781 29.664062 C 19.683594 30.433594 20.449219 30.816406 21.601562 30.816406 L 22.75 30.816406 L 23.039062 31.394531 L 25.050781 36.289062 C 25.433594 36.867188 26.007812 37.15625 26.773438 37.15625 L 27.0625 37.15625 C 27.445312 37.15625 27.636719 37.058594 27.636719 36.867188 L 28.210938 34.273438 L 28.785156 32.835938 L 28.785156 33.410156 C 28.402344 37.632812 29.648438 41.1875 32.523438 44.066406 L 33.386719 44.929688 L 36.261719 44.929688 L 39.996094 45.507812 L 40.859375 44.644531 L 40.859375 44.355469 C 42.203125 42.625 42.777344 40.417969 42.585938 37.730469 L 41.722656 34.273438 L 41.722656 33.984375 L 41.148438 33.121094 L 44.023438 38.59375 L 44.308594 38.882812 L 47.183594 38.59375 L 63.28125 38.019531 L 71.617188 33.984375 L 77.367188 33.410156 L 85.414062 34.273438 L 93.464844 36.289062 L 96.914062 35.425781 L 99.789062 36.289062 L 99.5 34.851562 L 103.8125 34.851562 C 104.195312 36.769531 103.910156 38.019531 102.949219 38.59375 L 105.25 40.898438 L 107.261719 42.050781 L 107.835938 41.476562 L 108.125 36.289062 L 109.5625 36.289062 C 111.285156 36.289062 112.722656 35.808594 113.875 34.851562 L 114.449219 33.699219 L 117.609375 31.96875 L 117.324219 31.683594 L 114.160156 30.242188 L 112.4375 29.089844 L 113.011719 29.089844 L 115.597656 28.226562 L 115.3125 27.648438 L 112.148438 26.496094 L 111.285156 26.496094 C 112.054688 24.386719 113.875 22.273438 116.75 20.160156 C 118.472656 19.007812 119.144531 18.050781 118.761719 17.28125 L 117.898438 16.992188 M 93.175781 10.082031 L 103.8125 11.808594 L 111.574219 10.945312 L 116.460938 10.082031 L 117.898438 10.082031 C 120.964844 10.082031 123.167969 11.328125 124.507812 13.824219 L 125.945312 17.855469 C 125.945312 20.546875 124.605469 22.945312 121.921875 25.058594 L 122.210938 26.496094 L 122.496094 26.785156 L 124.507812 31.105469 L 123.359375 35.425781 L 119.046875 39.457031 L 118.1875 40.324219 L 114.734375 42.339844 L 114.160156 43.492188 L 112.4375 47.234375 L 112.722656 50.691406 L 118.472656 55.011719 L 120.199219 55.300781 L 123.074219 57.605469 L 126.234375 60.195312 L 127.097656 64.804688 C 127.671875 66.53125 127.574219 68.261719 126.808594 69.988281 C 125.660156 72.292969 123.742188 73.734375 121.058594 74.308594 C 119.71875 75.84375 117.992188 76.613281 115.886719 76.613281 L 115.597656 76.902344 L 116.460938 77.765625 L 117.609375 80.070312 L 120.199219 82.660156 L 120.773438 83.523438 C 122.6875 85.445312 123.648438 88.039062 123.648438 91.300781 L 123.359375 94.183594 C 124.507812 96.679688 124.222656 99.269531 122.496094 101.957031 L 122.210938 101.957031 L 117.609375 105.125 L 113.875 108.582031 L 111.574219 112.902344 L 107.261719 115.785156 L 103.523438 120.679688 C 100.652344 123.558594 97.488281 125 94.039062 125 C 90.589844 125 87.621094 123.65625 85.128906 120.96875 L 83.117188 117.511719 L 39.996094 116.070312 L 34.824219 121.832031 C 32.523438 123.367188 30.222656 124.136719 27.925781 124.136719 C 22.367188 124.136719 18.628906 121.253906 16.714844 115.496094 L 16.714844 114.054688 L 12.976562 112.039062 L 12.113281 111.464844 L 7.800781 107.144531 C 6.078125 104.261719 6.363281 101.382812 8.664062 98.503906 L 8.953125 98.503906 L 9.527344 96.773438 C 6.84375 94.855469 5.503906 92.550781 5.503906 89.863281 L 6.652344 85.542969 C 8.183594 83.238281 10.390625 82.085938 13.265625 82.085938 L 14.988281 82.085938 L 17.574219 82.375 L 17.863281 82.660156 L 19.589844 82.660156 L 25.910156 83.523438 L 24.476562 81.796875 L 21.023438 79.203125 C 15.660156 78.054688 11.058594 76.132812 7.226562 73.445312 L 0.902344 67.683594 L 0.0390625 62.789062 L 3.203125 57.605469 L 3.492188 57.605469 L 5.214844 56.453125 L 5.503906 56.164062 L 20.449219 50.691406 L 24.1875 47.234375 L 25.335938 46.660156 L 25.625 46.660156 L 24.1875 43.777344 C 22.460938 43.203125 21.023438 42.339844 19.875 41.1875 L 17.289062 36.867188 L 13.265625 33.410156 C 11.347656 32.640625 9.910156 31.585938 8.953125 30.242188 C 7.035156 27.9375 6.75 25.25 8.089844 22.175781 L 7.515625 19.296875 C 7.324219 16.226562 8.378906 13.730469 10.675781 11.808594 L 11.25 10.65625 L 13.550781 8.351562 L 14.699219 6.046875 C 16.042969 3.9375 18.054688 2.878906 20.738281 2.878906 L 24.1875 3.167969 L 34.535156 5.472656 L 46.035156 8.929688 L 47.472656 9.503906 L 50.921875 3.457031 C 52.261719 1.152344 54.273438 0 56.957031 0 L 58.96875 0 L 67.304688 1.441406 L 83.976562 6.335938 L 93.175781 10.082031 "/>
</g>
</svg>
