<?xml version="1.0" encoding="UTF-8"?>
<svg xmlns="http://www.w3.org/2000/svg" xmlns:xlink="http://www.w3.org/1999/xlink" width="128pt" height="132pt" viewBox="0 0 128 132" version="1.1">
<g id="surface1">
<path style=" stroke:none;fill-rule:nonzero;fill:rgb(100%,100%,100%);fill-opacity:1;" d="M 35.902344 83.429688 L 34.652344 84.988281 L 33.09375 90.589844 L 32.15625 92.144531 L 9.054688 111.445312 L 8.429688 113 L 8.429688 113.3125 L 9.679688 115.179688 L 22.164062 122.960938 L 24.039062 123.894531 L 24.351562 123.894531 L 25.601562 122.960938 L 27.472656 121.40625 L 44.332031 98.058594 L 46.203125 97.125 L 47.140625 97.125 L 49.015625 96.816406 L 50.261719 96.191406 L 50.574219 95.882812 L 39.648438 80.316406 L 35.902344 83.429688 M 65.5625 48.257812 L 64.625 48.878906 L 60.253906 70.359375 L 17.796875 32.074219 L 16.234375 31.449219 L 15.609375 31.449219 L 15.609375 33.316406 L 68.371094 107.085938 L 69.621094 108.019531 L 70.867188 107.085938 L 74.925781 86.855469 L 117.074219 123.894531 L 118.632812 124.828125 L 118.945312 124.515625 C 119.777344 124.101562 119.882812 123.480469 119.257812 122.648438 L 67.121094 48.878906 L 65.5625 48.257812 M 82.417969 22.734375 L 66.808594 22.421875 L 61.503906 7.484375 L 56.820312 22.421875 L 40.585938 22.734375 L 53.074219 32.382812 L 48.390625 47.636719 L 61.503906 38.296875 L 74.300781 47.636719 L 69.933594 32.382812 L 82.417969 22.734375 M 115.511719 15.265625 C 117.59375 15.265625 120.195312 16.507812 123.316406 19 L 125.191406 20.554688 L 128 26.46875 C 127.792969 28.960938 126.648438 31.035156 124.566406 32.695312 L 109.894531 44.523438 L 110.203125 46.390625 C 110.203125 49.089844 109.058594 51.164062 106.769531 52.617188 L 103.023438 53.859375 L 87.726562 66.3125 L 125.191406 118.914062 C 126.855469 120.988281 127.273438 123.167969 126.4375 125.449219 L 122.691406 130.742188 L 118.632812 131.988281 C 116.136719 131.988281 113.953125 131.054688 112.078125 129.1875 L 79.296875 99.925781 L 77.425781 108.644531 L 74.613281 113.621094 L 69.621094 115.492188 L 69.308594 115.492188 C 66.394531 115.28125 64.105469 113.933594 62.4375 111.445312 L 55.257812 100.550781 L 52.449219 102.105469 L 48.703125 103.351562 L 33.40625 125.449219 C 31.738281 127.527344 30.074219 128.980469 28.410156 129.808594 L 27.160156 130.429688 L 26.535156 130.429688 L 24.039062 131.054688 L 18.417969 129.496094 L 5.933594 121.09375 L 1.875 115.492188 L 1.5625 115.179688 C 0.519531 111.238281 1.457031 108.019531 4.371094 105.53125 L 26.535156 87.476562 L 27.785156 83.121094 L 31.53125 77.828125 L 35.277344 74.402344 L 36.214844 73.78125 L 9.992188 37.363281 C 8.535156 35.289062 8.117188 33.007812 8.742188 30.515625 C 9.367188 28.234375 10.40625 26.574219 11.863281 25.535156 L 16.234375 24.289062 C 18.523438 24.289062 20.8125 25.121094 23.101562 26.78125 L 42.144531 44.210938 L 44.957031 35.183594 L 36.214844 28.335938 C 33.507812 26.46875 32.675781 23.875 33.71875 20.554688 C 34.550781 17.234375 36.734375 15.574219 40.273438 15.574219 L 51.511719 15.265625 L 54.945312 4.679688 C 56.402344 1.570312 58.589844 0.0117188 61.503906 0.0117188 C 64.832031 0.0117188 67.121094 1.570312 68.371094 4.679688 L 71.492188 15.265625 L 82.730469 15.574219 C 86.0625 15.574219 88.246094 17.234375 89.289062 20.554688 C 90.328125 23.875 89.496094 26.46875 86.789062 28.335938 L 78.046875 35.183594 L 79.921875 40.789062 L 110.203125 17.132812 L 115.511719 15.265625 M 120.195312 25.535156 L 115.511719 22.421875 L 114.574219 22.734375 L 78.046875 51.058594 L 84.605469 60.085938 L 100.839844 46.703125 L 101.152344 47.011719 L 102.085938 47.324219 L 102.398438 47.011719 L 102.710938 45.769531 L 99.589844 43.589844 L 120.195312 27.09375 L 120.195312 25.535156 "/>
</g>
</svg>
