<?xml version="1.0" encoding="UTF-8"?>
<svg xmlns="http://www.w3.org/2000/svg" xmlns:xlink="http://www.w3.org/1999/xlink" width="128pt" height="114pt" viewBox="0 0 128 114" version="1.1">
<g id="surface1">
<path style=" stroke:none;fill-rule:nonzero;fill:rgb(100%,100%,100%);fill-opacity:1;" d="M 104.855469 88.066406 L 97.738281 85.785156 C 92.234375 85.785156 87.773438 88.351562 84.359375 93.480469 L 83.503906 94.90625 L 80.65625 97.753906 L 75.816406 93.480469 L 70.121094 88.066406 C 67.652344 86.546875 65.28125 85.785156 63.003906 85.785156 C 57.5 85.785156 53.039062 88.351562 49.621094 93.480469 L 49.050781 94.90625 L 45.921875 97.753906 L 41.363281 93.480469 L 35.671875 88.066406 L 28.269531 85.785156 C 22.761719 85.785156 18.398438 88.351562 15.171875 93.480469 L 14.316406 94.90625 L 10.898438 97.753906 L 6.628906 97.753906 L 6.628906 107.160156 L 10.898438 107.160156 C 16.59375 107.160156 20.863281 104.59375 23.710938 99.464844 L 24.28125 98.609375 C 25.230469 96.519531 26.464844 95.378906 27.984375 95.191406 L 33.109375 99.75 L 38.800781 104.878906 L 45.636719 107.160156 C 51.140625 107.160156 55.410156 104.59375 58.449219 99.464844 L 58.734375 98.609375 C 59.871094 96.519531 61.199219 95.378906 62.71875 95.191406 L 67.84375 99.75 L 73.253906 104.878906 C 75.53125 106.398438 77.808594 107.160156 80.085938 107.160156 C 85.78125 107.160156 90.050781 104.59375 92.898438 99.464844 L 93.46875 98.609375 L 94.605469 96.898438 L 97.453125 95.191406 L 102.292969 99.75 L 107.988281 104.878906 C 110.265625 106.398438 112.542969 107.160156 114.824219 107.160156 L 119.09375 107.160156 L 119.09375 97.753906 L 115.105469 97.753906 L 110.550781 93.480469 L 104.855469 88.066406 M 104.855469 65.835938 L 97.738281 63.554688 C 92.234375 63.554688 87.773438 66.121094 84.359375 71.25 L 83.503906 72.675781 L 80.65625 75.523438 L 75.816406 71.25 L 70.121094 65.835938 C 67.652344 64.316406 65.28125 63.554688 63.003906 63.554688 C 57.5 63.554688 53.039062 66.121094 49.621094 71.25 L 49.050781 72.675781 L 45.921875 75.523438 L 41.363281 71.25 L 35.671875 65.835938 L 28.269531 63.554688 C 22.761719 63.554688 18.398438 66.121094 15.171875 71.25 L 14.316406 72.675781 C 13.367188 74.574219 12.226562 75.523438 10.898438 75.523438 L 6.628906 75.523438 L 6.628906 84.929688 L 10.898438 84.929688 C 16.59375 84.929688 20.863281 82.363281 23.710938 77.234375 L 24.28125 76.378906 C 25.230469 74.289062 26.464844 73.148438 27.984375 72.960938 C 29.121094 73.53125 30.832031 75.050781 33.109375 77.519531 C 37.851562 82.460938 42.027344 84.929688 45.636719 84.929688 C 51.140625 84.929688 55.410156 82.363281 58.449219 77.234375 L 58.734375 76.378906 C 59.871094 74.289062 61.199219 73.148438 62.71875 72.960938 L 67.84375 77.519531 C 72.589844 82.460938 76.671875 84.929688 80.085938 84.929688 C 85.78125 84.929688 90.050781 82.363281 92.898438 77.234375 L 93.46875 76.378906 L 94.605469 74.671875 L 97.453125 72.960938 L 102.292969 77.519531 L 107.988281 82.648438 C 110.265625 84.171875 112.542969 84.929688 114.824219 84.929688 L 119.09375 84.929688 L 119.09375 75.523438 L 115.105469 75.523438 L 110.550781 71.25 L 104.855469 65.835938 M 119.664062 37.621094 L 88.628906 37.621094 L 72.398438 20.519531 L 55.601562 20.519531 L 47.628906 6.839844 L 33.109375 6.839844 L 36.523438 20.519531 L 25.988281 20.804688 L 23.144531 24.226562 L 23.425781 25.933594 L 23.710938 25.648438 L 25.988281 26.503906 L 26.273438 37.90625 L 12.324219 37.90625 L 17.449219 58.140625 C 20.296875 55.859375 23.425781 54.71875 26.84375 54.71875 C 29.691406 54.71875 32.445312 55.859375 35.101562 58.140625 C 38.519531 59.46875 41.933594 61.941406 45.351562 65.550781 L 47.914062 62.984375 L 48.199219 62.414062 C 51.234375 57.285156 55.601562 54.71875 61.296875 54.71875 C 64.140625 54.71875 66.988281 55.859375 69.835938 58.140625 C 72.875 59.28125 76.289062 61.75 80.085938 65.550781 L 82.363281 62.984375 L 82.648438 62.414062 C 86.066406 57.285156 90.527344 54.71875 96.03125 54.71875 L 103.148438 57.285156 L 119.664062 37.621094 M 119.664062 30.78125 C 122.699219 30.78125 124.789062 32.109375 125.925781 34.769531 C 127.253906 37.429688 126.96875 39.898438 125.074219 42.179688 L 109.128906 60.703125 L 115.675781 66.691406 L 117.667969 68.683594 L 119.09375 68.683594 C 120.992188 68.683594 122.605469 69.445312 123.933594 70.964844 C 125.261719 72.296875 125.925781 73.816406 125.925781 75.523438 L 125.925781 107.160156 L 123.933594 112.289062 L 119.09375 114 L 115.105469 114 C 111.5 114 108.085938 113.050781 104.855469 111.148438 L 97.738281 104.59375 C 93.375 110.863281 87.585938 114 80.371094 114 C 74.867188 114 69.078125 110.863281 63.003906 104.59375 C 58.828125 110.863281 53.039062 114 45.636719 114 C 42.21875 114 38.898438 113.050781 35.671875 111.148438 L 28.550781 104.59375 C 24.1875 110.863281 18.398438 114 11.183594 114 L 6.914062 114 L 2.074219 112.289062 L 0.0820312 107.160156 L 0.0820312 75.523438 C 0.0820312 73.816406 0.746094 72.296875 2.074219 70.964844 C 3.402344 69.445312 5.015625 68.683594 6.914062 68.683594 L 8.621094 68.683594 L 9.761719 67.261719 L 12.894531 63.269531 L 10.898438 59.851562 L 5.773438 39.613281 C 5.394531 37.144531 5.871094 35.148438 7.199219 33.628906 C 8.335938 31.921875 10.046875 31.066406 12.324219 31.066406 L 18.871094 31.066406 L 16.59375 26.503906 L 16.308594 24.796875 C 16.121094 22.703125 16.59375 20.996094 17.734375 19.664062 L 20.863281 16.246094 C 22.003906 14.726562 23.710938 13.964844 25.988281 13.964844 L 27.984375 13.964844 L 26.558594 8.265625 C 25.988281 6.175781 26.464844 4.273438 27.984375 2.566406 C 29.121094 0.855469 30.832031 0 33.109375 0 L 47.628906 0 C 50.285156 0 52.277344 1.140625 53.609375 3.421875 L 59.585938 13.679688 L 72.398438 13.679688 C 74.488281 13.679688 76.195312 14.441406 77.523438 15.960938 L 91.476562 30.78125 L 119.664062 30.78125 "/>
</g>
</svg>
