<?xml version="1.0" encoding="UTF-8"?>
<svg xmlns="http://www.w3.org/2000/svg" xmlns:xlink="http://www.w3.org/1999/xlink" width="127pt" height="126pt" viewBox="0 0 127 126" version="1.1">
<g id="surface1">
<path style=" stroke:none;fill-rule:nonzero;fill:rgb(100%,100%,100%);fill-opacity:1;" d="M 99.554688 11.460938 L 94.886719 14.398438 L 90.796875 21.445312 L 84.375 24.96875 L 84.375 55.804688 L 77.953125 55.804688 L 82.039062 69.902344 L 79.410156 73.71875 L 79.410156 78.417969 L 73.574219 78.417969 L 73.574219 77.242188 L 68.609375 77.242188 L 68.609375 78.417969 L 63.355469 78.417969 L 63.355469 65.496094 L 68.316406 65.496094 L 68.316406 55.804688 L 63.355469 55.804688 L 63.355469 39.652344 L 58.683594 39.652344 L 58.683594 61.089844 L 58.097656 65.496094 L 58.683594 65.496094 L 58.683594 78.417969 L 56.929688 78.417969 L 56.347656 81.648438 L 58.683594 81.648438 L 58.683594 94.570312 L 53.425781 94.570312 L 53.425781 84.292969 L 47.296875 84.292969 L 47.296875 89.285156 L 40.289062 89.285156 L 40.289062 68.140625 L 38.246094 66.082031 L 34.742188 68.140625 L 27.445312 68.140625 L 27.445312 50.8125 L 34.742188 50.8125 L 40.289062 46.703125 L 27.445312 46.703125 L 27.445312 29.667969 L 30.070312 29.667969 L 28.902344 25.851562 L 30.65625 20.566406 L 23.941406 20.566406 L 23.941406 13.515625 L 18.976562 11.167969 L 12.261719 7.054688 L 12.261719 20.566406 L 7.007812 20.566406 L 7.007812 45.234375 L 10.511719 47.582031 L 10.511719 83.410156 L 7.007812 85.757812 L 7.007812 118.945312 L 119.992188 118.945312 L 119.992188 87.816406 L 114.152344 89.578125 L 99.554688 89.578125 L 99.554688 81.355469 L 105.101562 81.355469 L 107.4375 73.132812 L 99.554688 73.132812 L 99.554688 11.460938 M 95.46875 5.585938 L 99.554688 4.414062 L 102.769531 5 C 105.296875 6.371094 106.5625 8.523438 106.5625 11.460938 L 106.5625 66.082031 L 107.4375 66.082031 C 109.578125 66.082031 111.429688 67.0625 112.984375 69.019531 C 114.347656 70.976562 114.738281 73.035156 114.152344 75.1875 L 112.109375 82.527344 L 113.277344 82.527344 L 118.242188 81.0625 L 119.992188 80.765625 L 124.371094 82.234375 C 126.125 83.800781 127 85.660156 127 87.816406 L 127 118.945312 L 124.957031 123.9375 C 123.59375 125.308594 121.941406 125.992188 119.992188 125.992188 L 7.007812 125.992188 L 2.042969 123.9375 C 0.679688 122.566406 0 120.902344 0 118.945312 L 0 85.757812 C 0 83.410156 0.972656 81.550781 2.917969 80.179688 L 3.503906 79.886719 L 3.503906 51.398438 L 2.917969 51.105469 C 0.972656 49.539062 0 47.582031 0 45.234375 L 0 20.566406 L 1.75 16.160156 L 5.253906 13.515625 L 5.253906 7.054688 C 5.253906 4.316406 6.421875 2.257812 8.757812 0.890625 L 12.261719 0.0078125 L 16.058594 1.183594 L 22.1875 5 L 26.566406 7.347656 C 29.292969 8.523438 30.753906 10.578125 30.945312 13.515625 C 33.089844 13.515625 34.839844 14.398438 36.203125 16.160156 C 37.566406 17.921875 37.953125 19.976562 37.371094 22.328125 L 36.203125 25.851562 L 36.785156 27.320312 C 37.566406 29.667969 37.273438 31.820312 35.910156 33.78125 L 34.449219 34.953125 L 34.449219 39.652344 L 40.289062 39.652344 C 43.402344 39.652344 45.542969 41.21875 46.710938 44.351562 C 47.878906 47.484375 47.101562 50.128906 44.378906 52.28125 L 39.121094 56.390625 C 37.953125 57.371094 36.496094 57.859375 34.742188 57.859375 L 34.449219 57.859375 L 34.449219 60.210938 L 34.742188 59.917969 L 38.246094 59.035156 C 40.191406 59.035156 41.75 59.71875 42.917969 61.089844 L 44.960938 62.851562 C 46.519531 64.222656 47.296875 65.984375 47.296875 68.140625 L 47.296875 77.242188 L 49.925781 77.242188 L 51.675781 73.425781 L 51.675781 68.140625 L 51.382812 64.613281 L 51.675781 60.503906 L 51.675781 39.652344 L 53.71875 34.660156 C 55.082031 33.289062 56.738281 32.605469 58.683594 32.605469 L 63.355469 32.605469 C 65.496094 32.605469 67.148438 33.289062 68.316406 34.660156 L 70.359375 39.652344 L 70.359375 49.050781 L 72.988281 50.8125 L 77.367188 48.757812 L 77.367188 24.96875 L 77.953125 22.914062 L 80.871094 18.800781 L 85.835938 16.160156 L 89.046875 10.875 L 91.089844 8.523438 L 95.46875 5.585938 "/>
</g>
</svg>
