<?xml version="1.0" encoding="UTF-8"?>
<svg xmlns="http://www.w3.org/2000/svg" xmlns:xlink="http://www.w3.org/1999/xlink" width="127pt" height="84pt" viewBox="0 0 127 84" version="1.1">
<g id="surface1">
<path style=" stroke:none;fill-rule:nonzero;fill:rgb(100%,100%,100%);fill-opacity:1;" d="M 83.601562 6.832031 L 79.636719 6.832031 L 79.636719 26.480469 L 67.464844 29.613281 C 66.332031 29.992188 65.765625 31.605469 65.765625 34.453125 L 65.765625 42.425781 C 54.0625 43.945312 44.71875 45.9375 37.734375 48.40625 L 19.332031 54.957031 L 18.765625 45.558594 L 17.632812 42.140625 L 14.804688 40.433594 L 14.238281 40.71875 L 13.953125 40.433594 C 12.820312 40.433594 12.253906 41.761719 12.253906 44.421875 L 12.539062 57.519531 C 11.59375 57.707031 10.652344 58.183594 9.707031 58.941406 C 7.820312 60.082031 6.875 61.316406 6.875 62.644531 L 11.6875 67.199219 L 11.6875 71.1875 C 11.6875 73.652344 12.253906 74.886719 13.386719 74.886719 L 14.238281 74.886719 C 15.558594 74.886719 16.597656 74.320312 17.351562 73.179688 L 18.484375 70.046875 C 26.789062 73.085938 36.792969 74.984375 48.496094 75.742188 L 78.789062 77.167969 C 93.320312 77.167969 103.417969 75.078125 109.082031 70.902344 C 113.234375 67.863281 116.160156 64.066406 117.859375 59.511719 C 119.933594 54.386719 119.367188 49.925781 116.160156 46.128906 C 114.839844 44.230469 111.0625 42.996094 104.835938 42.425781 L 89.546875 41.574219 L 89.546875 28.757812 L 89.265625 25.910156 L 87.566406 25.34375 L 87 25.34375 L 83.601562 25.910156 L 83.601562 6.832031 M 83.601562 0 C 85.488281 0 87.09375 0.664062 88.414062 1.992188 L 90.394531 6.832031 L 90.394531 18.792969 C 94.359375 19.742188 96.34375 23.0625 96.34375 28.757812 L 96.34375 35.308594 L 97.191406 35.308594 L 111.628906 36.449219 C 116.347656 37.398438 119.746094 39.199219 121.824219 41.859375 C 125.21875 46.414062 126.445312 51.539062 125.503906 57.234375 C 124.558594 64.828125 120.5 71.28125 113.328125 76.597656 C 106.15625 81.53125 94.644531 84 78.789062 84 L 47.929688 82.578125 L 21.882812 78.304688 C 19.992188 80.582031 17.445312 81.722656 14.238281 81.722656 L 13.386719 81.722656 C 11.3125 81.722656 9.519531 81.058594 8.007812 79.730469 C 5.933594 77.640625 4.894531 74.792969 4.894531 71.1875 L 4.894531 70.617188 C 1.683594 68.148438 0.0820312 65.492188 0.0820312 62.644531 C 0.0820312 59.039062 1.875 56 5.460938 53.53125 L 5.460938 44.421875 L 7.160156 37.300781 L 13.953125 33.601562 L 14.804688 33.601562 C 18.011719 33.601562 20.84375 35.117188 23.296875 38.15625 C 24.617188 40.054688 25.375 42.332031 25.5625 44.988281 L 25.5625 45.558594 L 35.472656 42.140625 L 58.96875 36.449219 L 58.96875 34.453125 C 58.96875 28.191406 61.046875 24.488281 65.199219 23.347656 L 72.84375 21.070312 L 72.84375 6.832031 C 72.84375 4.9375 73.503906 3.320312 74.824219 1.992188 C 76.144531 0.664062 77.75 0 79.636719 0 L 83.601562 0 "/>
</g>
</svg>
