<?xml version="1.0" encoding="UTF-8"?>
<svg xmlns="http://www.w3.org/2000/svg" xmlns:xlink="http://www.w3.org/1999/xlink" width="128pt" height="131pt" viewBox="0 0 128 131" version="1.1">
<g id="surface1">
<path style=" stroke:none;fill-rule:nonzero;fill:rgb(100%,100%,100%);fill-opacity:1;" d="M 120.921875 7.136719 L 105.289062 7.136719 L 105.289062 70.214844 L 97.03125 70.214844 L 97.03125 7.136719 L 81.695312 7.136719 L 81.695312 56.953125 L 57.511719 75.226562 L 57.511719 56.363281 L 32.441406 75.226562 L 32.441406 56.363281 L 7.078125 75.523438 L 7.078125 123.863281 L 120.921875 123.863281 L 120.921875 7.136719 M 101.160156 1.242188 L 105.289062 0.0625 L 120.921875 0.0625 C 122.886719 0.0625 124.558594 0.75 125.933594 2.125 L 128 7.136719 L 128 123.863281 L 125.933594 128.875 C 124.558594 130.25 122.886719 130.9375 120.921875 130.9375 L 7.078125 130.9375 C 5.308594 130.9375 3.734375 130.25 2.359375 128.875 C 0.785156 127.5 0 125.828125 0 123.863281 L 0 75.523438 C 0 73.164062 0.984375 71.296875 2.949219 69.921875 L 28.3125 50.761719 L 32.441406 49.289062 L 35.6875 49.878906 C 38.242188 51.054688 39.519531 53.21875 39.519531 56.363281 L 39.519531 60.785156 L 53.085938 50.761719 L 57.511719 49.289062 L 60.753906 49.878906 C 63.3125 51.054688 64.589844 53.21875 64.589844 56.363281 L 64.589844 60.785156 L 74.617188 53.414062 L 74.617188 7.136719 C 74.617188 5.171875 75.304688 3.5 76.683594 2.125 C 78.058594 0.75 79.730469 0.0625 81.695312 0.0625 L 97.03125 0.0625 L 101.160156 1.242188 "/>
</g>
</svg>
