<?xml version="1.0" encoding="UTF-8"?>
<svg xmlns="http://www.w3.org/2000/svg" xmlns:xlink="http://www.w3.org/1999/xlink" width="128pt" height="202pt" viewBox="0 0 128 202" version="1.1">
<g id="surface1">
<path style=" stroke:none;fill-rule:nonzero;fill:rgb(100%,100%,100%);fill-opacity:1;" d="M 94.292969 92.8125 L 94.292969 60.058594 L 63.316406 10.929688 L 33.707031 60.511719 L 33.707031 92.8125 L 25.964844 103.273438 L 25.964844 184.703125 L 10.933594 184.703125 L 10.933594 191.070312 L 117.066406 191.070312 L 117.066406 184.703125 L 101.578125 184.703125 L 101.578125 103.273438 L 94.292969 92.8125 M 103.859375 54.601562 L 105.222656 60.058594 L 105.222656 89.171875 L 110.691406 96.90625 L 112.511719 103.730469 L 112.511719 173.785156 L 117.066406 173.785156 C 120.105469 173.785156 122.6875 174.847656 124.8125 176.96875 C 126.9375 179.09375 128 181.667969 128 184.703125 L 128 191.070312 C 128 194.105469 126.9375 196.53125 124.8125 198.347656 C 122.6875 200.777344 120.105469 201.988281 117.066406 201.988281 L 10.933594 201.988281 C 7.894531 201.988281 5.3125 200.777344 3.1875 198.347656 C 1.0625 196.53125 0 194.105469 0 191.070312 L 0 184.703125 C 0 181.667969 1.0625 179.09375 3.1875 176.96875 C 5.3125 174.847656 7.894531 173.785156 10.933594 173.785156 L 15.03125 173.785156 L 15.03125 103.273438 L 17.765625 96.449219 L 22.777344 89.171875 L 22.777344 60.511719 L 24.140625 55.054688 L 54.207031 5.015625 C 56.332031 1.679688 59.367188 0.0117188 63.316406 0.0117188 C 67.566406 0.0117188 70.757812 1.679688 72.882812 5.015625 L 103.859375 54.601562 "/>
</g>
</svg>
