<?xml version="1.0" encoding="UTF-8"?>
<svg xmlns="http://www.w3.org/2000/svg" xmlns:xlink="http://www.w3.org/1999/xlink" width="128pt" height="115pt" viewBox="0 0 128 115" version="1.1">
<g id="surface1">
<path style=" stroke:none;fill-rule:nonzero;fill:rgb(100%,100%,100%);fill-opacity:1;" d="M 44.207031 37.273438 L 59.519531 37.273438 L 59.519531 52.878906 L 44.207031 52.878906 L 44.207031 37.273438 M 22.828125 52.878906 L 22.828125 37.273438 L 38.429688 37.273438 L 38.429688 52.878906 L 22.828125 52.878906 M 87.546875 0 L 128 25.140625 L 118.175781 40.742188 L 118.175781 115 L 10.113281 115 L 10.113281 47.964844 L 0 33.230469 L 41.316406 7.511719 L 58.367188 18.203125 L 87.546875 0 M 115.285156 32.941406 L 118.753906 27.160156 L 87.546875 7.800781 L 58.078125 26.003906 L 41.316406 15.027344 L 9.535156 35.25 L 13.003906 40.742188 L 16.757812 38.429688 L 16.757812 108.351562 L 31.785156 108.351562 L 31.785156 79.171875 L 50.5625 79.171875 L 50.5625 108.351562 L 78.300781 108.351562 L 78.300781 79.171875 L 97.082031 79.171875 L 97.082031 108.351562 L 111.820312 108.351562 L 111.820312 30.628906 L 115.285156 32.941406 M 90.4375 52.878906 L 90.4375 37.273438 L 105.75 37.273438 L 105.75 52.878906 L 90.4375 52.878906 M 84.949219 52.878906 L 69.054688 52.878906 L 69.054688 37.273438 L 84.949219 37.273438 L 84.949219 52.878906 "/>
</g>
</svg>
