<?xml version="1.0" encoding="UTF-8" standalone="no"?>
<svg
   xmlns:dc="http://purl.org/dc/elements/1.1/"
   xmlns:cc="http://creativecommons.org/ns#"
   xmlns:rdf="http://www.w3.org/1999/02/22-rdf-syntax-ns#"
   xmlns:svg="http://www.w3.org/2000/svg"
   xmlns="http://www.w3.org/2000/svg"
   xmlns:sodipodi="http://sodipodi.sourceforge.net/DTD/sodipodi-0.dtd"
   xmlns:inkscape="http://www.inkscape.org/namespaces/inkscape"
   width="127pt"
   height="127pt"
   viewBox="0 0 127 127"
   version="1.1"
   id="svg5"
   sodipodi:docname="airfield.svg"
   inkscape:version="0.92.1 r15371">
  <metadata
     id="metadata11">
    <rdf:RDF>
      <cc:Work
         rdf:about="">
        <dc:format>image/svg+xml</dc:format>
        <dc:type
           rdf:resource="http://purl.org/dc/dcmitype/StillImage" />
      </cc:Work>
    </rdf:RDF>
  </metadata>
  <defs
     id="defs9" />
  <sodipodi:namedview
     pagecolor="#ffffff"
     bordercolor="#666666"
     borderopacity="1"
     objecttolerance="10"
     gridtolerance="10"
     guidetolerance="10"
     inkscape:pageopacity="0"
     inkscape:pageshadow="2"
     inkscape:window-width="1366"
     inkscape:window-height="685"
     id="namedview7"
     showgrid="false"
     inkscape:zoom="1.3937008"
     inkscape:cx="-60.988701"
     inkscape:cy="84.666667"
     inkscape:window-x="0"
     inkscape:window-y="0"
     inkscape:window-maximized="1"
     inkscape:current-layer="surface1" />
  <g
     id="surface1">
    <path
       style="fill:#00ff00;fill-opacity:1;fill-rule:nonzero;stroke:none"
       d="m 119.61328,12.632812 0.56641,-5.144531 -0.56641,-0.574219 c -5.87109,0 -11.08203,1.621094 -15.625,4.859376 -4.92578,3.429687 -10.89453,8.953124 -17.902342,16.574218 L 18.183594,24.917969 7.671875,36.066406 29.832031,42.636719 55.6875,50.640625 c 2.273438,1.140625 3.503906,2.378906 3.691406,3.714844 0.191406,1.144531 -0.472656,2.667969 -1.988281,4.570312 l -21.023437,23.4375 H 21.308594 l -8.238282,8.285157 13.636719,5.429687 -2.839843,4.000005 c -1.707032,2.85937 -2.273438,4.57421 -1.707032,5.14453 l 0.285156,0.28906 0.566407,0.28516 8.523437,-4.57422 5.398438,13.71875 8.242187,-8.57422 V 91.222656 L 68.472656,70.074219 c 1.703125,-1.527344 3.125,-2.289063 4.261719,-2.289063 1.515625,0 2.839844,1.335938 3.976563,4.003906 L 91.203125,120.08594 102.28125,109.51172 98.871094,41.496094 c 7.578126,-7.242188 13.070316,-13.242188 16.480466,-18.003906 2.08203,-3.050782 3.50391,-6.667969 4.26172,-10.859376 M 100.00781,6.34375 c 5.6836,-4.191406 12.21875,-6.2890625 19.60547,-6.2890625 h 0.28516 c 1.89453,0 3.40625,0.7656245 4.54297,2.2890625 l 0.28515,0.285156 C 126.24219,3.773438 127,5.296875 127,7.199219 c 0,7.621093 -1.98828,14.386719 -5.96484,20.292969 l -15.34375,16.859374 3.41015,64.874998 c 0.1875,2.09375 -0.47265,3.90235 -1.98828,5.42969 l -11.367186,10.57422 -4.542969,1.71484 H 89.210938 C 86.75,126.17969 85.234375,124.5625 84.667969,122.08594 L 71.027344,76.933594 51.992188,94.078125 v 12.289065 c 0,2.09375 -0.660157,3.71484 -1.988282,4.85937 l -8.238281,8.57422 c -1.515625,1.33203 -3.125,2 -4.832031,2 l -1.417969,-0.28906 c -2.464844,-0.57031 -4.074219,-2 -4.832031,-4.28516 l -2.554688,-6 -5.117187,1.42969 c -2.082031,0 -3.882813,-0.76562 -5.398438,-2.28906 l -0.28125,-0.28516 c -2.652343,-2.66797 -2.9375,-6.1914 -0.851562,-10.574218 L 10.511719,96.9375 C 8.050781,95.984375 6.628906,94.363281 6.25,92.078125 5.683594,89.601562 6.34375,87.503906 8.238281,85.789062 l 8.242188,-8.285156 c 1.324219,-1.335937 2.933593,-2 4.828125,-2 h 12.21875 L 50.574219,56.355469 5.683594,42.921875 C 3.21875,42.160156 1.703125,40.542969 1.136719,38.066406 0.378906,35.589844 0.851562,33.398438 2.558594,31.492188 L 13.070312,20.347656 c 1.515626,-1.523437 3.21875,-2.285156 5.113282,-2.285156 l 64.777344,3.425781 C 90.347656,14.058594 96.03125,9.011719 100.00781,6.34375"
       id="path2"
       inkscape:connector-curvature="0" />
  </g>
</svg>
