<?xml version="1.0" encoding="UTF-8" standalone="no"?>
<svg
   xmlns:dc="http://purl.org/dc/elements/1.1/"
   xmlns:cc="http://creativecommons.org/ns#"
   xmlns:rdf="http://www.w3.org/1999/02/22-rdf-syntax-ns#"
   xmlns:svg="http://www.w3.org/2000/svg"
   xmlns="http://www.w3.org/2000/svg"
   xmlns:sodipodi="http://sodipodi.sourceforge.net/DTD/sodipodi-0.dtd"
   xmlns:inkscape="http://www.inkscape.org/namespaces/inkscape"
   width="128pt"
   height="77pt"
   viewBox="0 0 128 77"
   version="1.1"
   id="svg5"
   sodipodi:docname="bunker.svg"
   inkscape:version="0.92.1 r15371">
  <metadata
     id="metadata11">
    <rdf:RDF>
      <cc:Work
         rdf:about="">
        <dc:format>image/svg+xml</dc:format>
        <dc:type
           rdf:resource="http://purl.org/dc/dcmitype/StillImage" />
      </cc:Work>
    </rdf:RDF>
  </metadata>
  <defs
     id="defs9" />
  <sodipodi:namedview
     pagecolor="#ffffff"
     bordercolor="#666666"
     borderopacity="1"
     objecttolerance="10"
     gridtolerance="10"
     guidetolerance="10"
     inkscape:pageopacity="0"
     inkscape:pageshadow="2"
     inkscape:window-width="1366"
     inkscape:window-height="685"
     id="namedview7"
     showgrid="false"
     inkscape:zoom="2.1328125"
     inkscape:cx="-9.8461538"
     inkscape:cy="51.333333"
     inkscape:window-x="0"
     inkscape:window-y="0"
     inkscape:window-maximized="1"
     inkscape:current-layer="surface1" />
  <g
     id="surface1">
    <path
       style="fill:#00ff00;fill-opacity:1;fill-rule:nonzero;stroke:none"
       d="M 22.835938,18.066406 H 57.089844 V 29.183594 H 22.835938 V 18.066406 M 120.1875,4.546875 c 3.00391,2.804687 4.50781,6.308594 4.50781,10.515625 L 128,76.960938 H 0 L 3.605469,15.0625 c 0,-4.207031 1.503906,-7.710938 4.507812,-10.515625 3.003907,-3.003906 6.507813,-4.5078125 10.515625,-4.5078125 h 90.742184 c 4.20704,0 7.8125,1.5039065 10.81641,4.5078125 m -4.80859,4.808594 c -1.60157,-1.601563 -3.60547,-2.40625 -6.00782,-2.40625 H 18.628906 c -2.203125,0 -4.207031,0.804687 -6.007812,2.40625 -1.605469,1.601562 -2.40625,3.503906 -2.40625,5.707031 L 7.210938,70.351562 H 92.84375 V 55.328125 h 9.91797 v 15.023437 h 18.02734 L 117.78516,15.0625 c 0,-2.203125 -0.80078,-4.105469 -2.40625,-5.707031 M 70.007812,18.066406 H 104.5625 V 29.183594 H 70.007812 V 18.066406"
       id="path2"
       inkscape:connector-curvature="0" />
  </g>
</svg>
