<?xml version="1.0" encoding="UTF-8" standalone="no"?>
<svg
   xmlns:dc="http://purl.org/dc/elements/1.1/"
   xmlns:cc="http://creativecommons.org/ns#"
   xmlns:rdf="http://www.w3.org/1999/02/22-rdf-syntax-ns#"
   xmlns:svg="http://www.w3.org/2000/svg"
   xmlns="http://www.w3.org/2000/svg"
   xmlns:sodipodi="http://sodipodi.sourceforge.net/DTD/sodipodi-0.dtd"
   xmlns:inkscape="http://www.inkscape.org/namespaces/inkscape"
   width="128pt"
   height="173pt"
   viewBox="0 0 128 173"
   version="1.1"
   id="svg5"
   sodipodi:docname="bunker-hill.svg"
   inkscape:version="0.92.1 r15371">
  <metadata
     id="metadata11">
    <rdf:RDF>
      <cc:Work
         rdf:about="">
        <dc:format>image/svg+xml</dc:format>
        <dc:type
           rdf:resource="http://purl.org/dc/dcmitype/StillImage" />
      </cc:Work>
    </rdf:RDF>
  </metadata>
  <defs
     id="defs9" />
  <sodipodi:namedview
     pagecolor="#ffffff"
     bordercolor="#666666"
     borderopacity="1"
     objecttolerance="10"
     gridtolerance="10"
     guidetolerance="10"
     inkscape:pageopacity="0"
     inkscape:pageshadow="2"
     inkscape:window-width="1366"
     inkscape:window-height="685"
     id="namedview7"
     showgrid="false"
     inkscape:zoom="1.0231214"
     inkscape:cx="-113.0791"
     inkscape:cy="115.33333"
     inkscape:window-x="0"
     inkscape:window-y="0"
     inkscape:window-maximized="1"
     inkscape:current-layer="surface1" />
  <g
     id="surface1">
    <path
       style="fill:#00ff00;fill-opacity:1;fill-rule:nonzero;stroke:none"
       d="M 72.414062,19.886719 63.804688,9.367188 55.585938,19.886719 41.882812,133.24609 c -14.613281,5.71485 -25.050781,15.84375 -31.3125,30.38672 H 117.42969 C 110.90625,149.08984 100.33984,138.96094 85.726562,133.24609 L 72.414062,19.886719 M 63.804688,0.0195312 c 3.132812,0 5.609374,1.1679688 7.4375,3.5039068 l 8.609374,10.519531 1.957032,4.675781 12.917968,108.29688 c 14.355468,7.01171 24.792968,17.91796 31.316408,32.72265 1.30469,3.11328 1.04297,6.10156 -0.78125,8.95703 -1.82813,2.85938 -4.4375,4.28516 -7.83203,4.28516 H 10.570312 c -3.394531,0 -6.132812,-1.42578 -8.222656,-4.28516 C 0.78125,165.83984 0.652344,162.85156 1.957031,159.73828 8.21875,144.93359 18.660156,134.02734 33.273438,127.01563 L 46.191406,18.71875 48.148438,14.042969 56.367188,3.523438 c 2.085937,-2.335938 4.566406,-3.5039068 7.4375,-3.5039068"
       id="path2"
       inkscape:connector-curvature="0" />
  </g>
</svg>
