<?xml version="1.0" encoding="UTF-8" standalone="no"?>
<svg
   xmlns:dc="http://purl.org/dc/elements/1.1/"
   xmlns:cc="http://creativecommons.org/ns#"
   xmlns:rdf="http://www.w3.org/1999/02/22-rdf-syntax-ns#"
   xmlns:svg="http://www.w3.org/2000/svg"
   xmlns="http://www.w3.org/2000/svg"
   xmlns:sodipodi="http://sodipodi.sourceforge.net/DTD/sodipodi-0.dtd"
   xmlns:inkscape="http://www.inkscape.org/namespaces/inkscape"
   width="128pt"
   height="93pt"
   viewBox="0 0 128 93"
   version="1.1"
   id="svg5"
   sodipodi:docname="camper.svg"
   inkscape:version="0.92.1 r15371">
  <metadata
     id="metadata11">
    <rdf:RDF>
      <cc:Work
         rdf:about="">
        <dc:format>image/svg+xml</dc:format>
        <dc:type
           rdf:resource="http://purl.org/dc/dcmitype/StillImage" />
      </cc:Work>
    </rdf:RDF>
  </metadata>
  <defs
     id="defs9" />
  <sodipodi:namedview
     pagecolor="#ffffff"
     bordercolor="#666666"
     borderopacity="1"
     objecttolerance="10"
     gridtolerance="10"
     guidetolerance="10"
     inkscape:pageopacity="0"
     inkscape:pageshadow="2"
     inkscape:window-width="1366"
     inkscape:window-height="685"
     id="namedview7"
     showgrid="false"
     inkscape:zoom="1.9032258"
     inkscape:cx="-21.327684"
     inkscape:cy="62"
     inkscape:window-x="0"
     inkscape:window-y="0"
     inkscape:window-maximized="1"
     inkscape:current-layer="surface1" />
  <g
     id="surface1">
    <path
       style="fill:#00ff00;fill-opacity:1;fill-rule:nonzero;stroke:none"
       d="m 99.71875,20.21875 c 0,-3.660156 -1.34375,-6.835938 -4.035156,-9.53125 C 93.1875,8.183594 90.117188,6.933594 86.46875,6.933594 H 19.929688 c -3.648438,0 -6.722657,1.25 -9.21875,3.753906 -2.496094,2.695312 -3.742188,5.871094 -3.742188,9.53125 v 47.363281 h 26.210938 l -0.578126,3.757813 c 0,4.234375 1.441407,7.894531 4.324219,10.972656 3.070313,2.890625 6.71875,4.332031 10.945313,4.332031 4.222656,0 7.871094,-1.441406 10.945312,-4.332031 3.070313,-3.078125 4.609375,-6.738281 4.609375,-10.972656 l -0.578125,-3.757813 h 58.183594 v -8.375 H 99.71875 V 20.21875 M 86.46875,0 c 5.566406,0 10.273438,2.023438 14.11328,6.066406 4.03125,3.851563 6.04688,8.566406 6.04688,14.152344 v 32.058594 h 14.40234 c 1.92188,0 3.55469,0.671875 4.89844,2.019531 1.34375,1.347656 2.01562,2.984375 2.01562,4.910156 v 8.375 c 0,1.925781 -0.67187,3.46875 -2.01562,4.621094 -1.34375,1.542969 -2.97656,2.3125 -4.89844,2.3125 H 69.761719 C 68.800781,79.714844 66.304688,84.144531 62.273438,87.800781 58.046875,91.265625 53.246094,93 47.871094,93 42.300781,93 37.402344,91.265625 33.179688,87.800781 29.148438,84.144531 26.648438,79.714844 25.691406,74.515625 H 6.96875 c -1.921875,0 -3.554688,-0.769531 -4.898438,-2.3125 C 0.726562,71.050781 0.0546875,69.507812 0.0546875,67.582031 V 20.21875 C 0.0546875,14.632812 1.976562,9.917969 5.816406,6.066406 9.847656,2.023438 14.550781,0 19.929688,0 H 86.46875"
       id="path2"
       inkscape:connector-curvature="0" />
  </g>
</svg>
