<?xml version="1.0" encoding="UTF-8" standalone="no"?>
<svg
   xmlns:dc="http://purl.org/dc/elements/1.1/"
   xmlns:cc="http://creativecommons.org/ns#"
   xmlns:rdf="http://www.w3.org/1999/02/22-rdf-syntax-ns#"
   xmlns:svg="http://www.w3.org/2000/svg"
   xmlns="http://www.w3.org/2000/svg"
   xmlns:sodipodi="http://sodipodi.sourceforge.net/DTD/sodipodi-0.dtd"
   xmlns:inkscape="http://www.inkscape.org/namespaces/inkscape"
   width="128pt"
   height="82pt"
   viewBox="0 0 128 82"
   version="1.1"
   id="svg5"
   sodipodi:docname="car.svg"
   inkscape:version="0.92.1 r15371">
  <metadata
     id="metadata11">
    <rdf:RDF>
      <cc:Work
         rdf:about="">
        <dc:format>image/svg+xml</dc:format>
        <dc:type
           rdf:resource="http://purl.org/dc/dcmitype/StillImage" />
      </cc:Work>
    </rdf:RDF>
  </metadata>
  <defs
     id="defs9" />
  <sodipodi:namedview
     pagecolor="#ffffff"
     bordercolor="#666666"
     borderopacity="1"
     objecttolerance="10"
     gridtolerance="10"
     guidetolerance="10"
     inkscape:pageopacity="0"
     inkscape:pageshadow="2"
     inkscape:window-width="1366"
     inkscape:window-height="685"
     id="namedview7"
     showgrid="false"
     inkscape:zoom="2.1328125"
     inkscape:cx="-9.8461538"
     inkscape:cy="54.666667"
     inkscape:window-x="0"
     inkscape:window-y="0"
     inkscape:window-maximized="1"
     inkscape:current-layer="surface1" />
  <g
     id="surface1">
    <path
       style="fill:#00ff00;fill-opacity:1;fill-rule:nonzero;stroke:none"
       d="M 107.46484,30.316406 C 105.73828,24.15625 103.53125,19.828125 100.84375,17.324219 93.746094,10.394531 81.464844,6.929688 64,6.929688 c -17.464844,0 -29.839844,3.65625 -37.132812,10.972656 -2.6875,2.695312 -4.796876,6.832031 -6.332032,12.414062 h -0.289062 c -3.070313,0 -5.660156,1.058594 -7.773438,3.175782 C 10.363281,35.417969 9.308594,37.921875 9.308594,41 l -2.304688,19.632812 1.152344,2.597657 2.015625,0.867187 h 9.5 V 73.625 l 1.726563,1.445312 H 33.488281 L 34.925781,73.625 V 64.097656 H 93.074219 V 73.625 l 1.4375,1.445312 H 106.60156 L 108.32813,73.625 v -9.527344 h 9.5 l 2.01562,-0.867187 1.15234,-2.597657 L 118.69141,41 c 0,-3.078125 -1.05469,-5.582031 -3.16407,-7.507812 -2.11328,-2.117188 -4.70312,-3.175782 -7.77343,-3.175782 h -0.28907 M 64,0 c 27.441406,0 43.75391,7.988281 48.93359,23.964844 3.83985,1.15625 6.91016,3.273437 9.21094,6.351562 2.30469,3.273438 3.45703,6.832032 3.45703,10.683594 l 1.14844,11.261719 1.15234,8.371093 c 0,2.886719 -0.95703,5.390626 -2.8789,7.507813 -2.10938,1.925781 -4.50781,2.886719 -7.19531,2.886719 h -2.58985 V 73.625 c 0,2.3125 -0.86328,4.332031 -2.58984,6.066406 C 110.91797,81.230469 108.90625,82 106.60156,82 H 94.511719 C 92.210938,82 90.289062,81.230469 88.753906,79.691406 87.027344,77.957031 86.164062,75.9375 86.164062,73.625 V 71.027344 H 41.835938 V 73.625 c 0,2.3125 -0.863282,4.332031 -2.589844,6.066406 C 37.710938,81.230469 35.789062,82 33.488281,82 H 21.398438 C 19.09375,82 17.082031,81.230469 15.351562,79.691406 13.625,77.957031 12.761719,75.9375 12.761719,73.625 v -2.597656 h -2.589844 c -2.6875,0 -4.988281,-0.960938 -6.910156,-2.886719 C 1.152344,66.023438 0.0976562,63.519531 0.0976562,60.632812 L 0.960938,52.261719 2.398438,41 c 0,-3.851562 1.152343,-7.410156 3.457031,-10.683594 2.300781,-3.078125 5.371093,-5.195312 9.210937,-6.351562 C 17.367188,17.421875 21.78125,12.222656 28.304688,8.375 36.941406,2.792969 48.839844,0 64,0"
       id="path2"
       inkscape:connector-curvature="0" />
  </g>
</svg>
