<?xml version="1.0" encoding="UTF-8" standalone="no"?>
<svg
   xmlns:dc="http://purl.org/dc/elements/1.1/"
   xmlns:cc="http://creativecommons.org/ns#"
   xmlns:rdf="http://www.w3.org/1999/02/22-rdf-syntax-ns#"
   xmlns:svg="http://www.w3.org/2000/svg"
   xmlns="http://www.w3.org/2000/svg"
   xmlns:sodipodi="http://sodipodi.sourceforge.net/DTD/sodipodi-0.dtd"
   xmlns:inkscape="http://www.inkscape.org/namespaces/inkscape"
   width="128pt"
   height="93pt"
   viewBox="0 0 128 93"
   version="1.1"
   id="svg5"
   sodipodi:docname="castle.svg"
   inkscape:version="0.92.1 r15371">
  <metadata
     id="metadata11">
    <rdf:RDF>
      <cc:Work
         rdf:about="">
        <dc:format>image/svg+xml</dc:format>
        <dc:type
           rdf:resource="http://purl.org/dc/dcmitype/StillImage" />
      </cc:Work>
    </rdf:RDF>
  </metadata>
  <defs
     id="defs9" />
  <sodipodi:namedview
     pagecolor="#ffffff"
     bordercolor="#666666"
     borderopacity="1"
     objecttolerance="10"
     gridtolerance="10"
     guidetolerance="10"
     inkscape:pageopacity="0"
     inkscape:pageshadow="2"
     inkscape:window-width="1366"
     inkscape:window-height="685"
     id="namedview7"
     showgrid="false"
     inkscape:zoom="1.9032258"
     inkscape:cx="-21.327684"
     inkscape:cy="62"
     inkscape:window-x="0"
     inkscape:window-y="0"
     inkscape:window-maximized="1"
     inkscape:current-layer="surface1" />
  <g
     id="surface1">
    <path
       style="fill:#00ff00;fill-opacity:1;fill-rule:nonzero;stroke:none"
       d="m 72.113281,63.390625 2.402344,-1.207031 h 8.414063 l 1.203124,5.429687 c 0,3.621094 -1.304687,6.738281 -3.90625,9.351563 -2.605468,2.816406 -5.808593,4.222656 -9.617187,4.222656 -3.003906,0 -5.609375,-0.804688 -7.8125,-2.410156 -2.402344,-2.011719 -4.003906,-4.425782 -4.804687,-7.242188 l 8.109374,-4.824218 v 0.902343 l 1.203126,3.019531 3.304687,1.507813 3.304687,-1.507813 1.503907,-3.019531 c 0,-2.007812 -1.101563,-3.417969 -3.304688,-4.222656 M 111.77344,6.683594 110.875,7.589844 110.57422,9.097656 110.875,9.398438 76.621094,24.480469 c -21.035156,9.652343 -38.5625,18.398437 -52.582032,26.242187 l -1.203124,1.507813 v 2.414062 l 1.503906,2.714844 c -1.203125,1.609375 -1.402344,3.117187 -0.601563,4.523437 0.800781,1.410157 2,2.113282 3.605469,2.113282 h 0.300781 l 1.5,2.714844 2.40625,1.808593 L 32.75,68.21875 36.355469,66.710938 29.746094,76.0625 17.425781,79.980469 h -0.597656 c -1.003906,-2.410157 -2.605469,-3.617188 -4.808594,-3.617188 -2.40625,0 -4.007812,1.207031 -4.808593,3.617188 v 5.128906 h 28.84375 L 53.785156,74.25 c 1.199219,3.621094 3.402344,6.535156 6.609375,8.75 l 10.214844,3.015625 c 5.210937,0 9.515625,-1.808594 12.921875,-5.429687 3.40625,-3.621094 5.105469,-7.945313 5.105469,-12.972657 l -0.597657,-5.429687 h 3.605469 V 39.5625 l 14.421879,-9.050781 11.41797,-7.539063 0.30078,0.300782 0.89843,0.601562 1.20313,-0.300781 0.30078,-1.507813 -0.30078,-0.601562 h 0.30078 v -2.414063 l -4.50781,-9.351562 -1.80078,-1.808594 h -0.60157 l -0.30078,-0.300781 -1.20312,-0.90625 m 5.10937,-5.128906 4.8086,4.523437 4.80468,9.957031 v 0.300782 c 1.00391,2.210937 1.20313,4.324218 0.60157,6.335937 0,3.015625 -1.19922,5.328125 -3.60547,6.9375 l -4.8086,1.207031 h -0.29687 l -6.01172,3.617188 c -4.60547,3.417968 -9.21484,6.535156 -13.820312,9.351562 v 18.398438 c 0,2.414062 -1.003907,4.324218 -3.003907,5.734375 -0.203125,7.035156 -2.605469,12.96875 -7.210937,17.796875 -4.808594,4.824218 -10.71875,7.238281 -17.730469,7.238281 -7.8125,0 -14.222656,-3.015625 -19.230469,-9.050781 l -12.015625,7.242187 -3.308593,0.902344 H 7.210938 C 5.207031,92.046875 3.503906,91.34375 2.101562,89.9375 0.699219,88.730469 0,87.121094 0,85.109375 v -5.128906 l 0.601562,-3.015625 4.507813,-5.429688 c 2.203125,-1.40625 4.503906,-2.109375 6.910156,-2.109375 2.601563,0 5.007813,0.902344 7.210938,2.714844 L 23.4375,70.632812 22.835938,70.027344 17.726562,64.597656 c -1.199218,-2.011718 -1.5,-4.324218 -0.898437,-6.9375 l -0.300781,-0.300781 -0.300782,-7.238281 c 0.800782,-2.617188 2.300782,-4.425782 4.503907,-5.429688 13.625,-7.644531 31.152343,-16.492187 52.585937,-26.546875 L 104.5625,3.96875 109.07031,0.648438 h 0.30078 l 2.40235,-0.601563 5.10937,1.507813"
       id="path2"
       inkscape:connector-curvature="0" />
  </g>
</svg>
