<?xml version="1.0" encoding="UTF-8" standalone="no"?>
<svg
   xmlns:dc="http://purl.org/dc/elements/1.1/"
   xmlns:cc="http://creativecommons.org/ns#"
   xmlns:rdf="http://www.w3.org/1999/02/22-rdf-syntax-ns#"
   xmlns:svg="http://www.w3.org/2000/svg"
   xmlns="http://www.w3.org/2000/svg"
   xmlns:sodipodi="http://sodipodi.sourceforge.net/DTD/sodipodi-0.dtd"
   xmlns:inkscape="http://www.inkscape.org/namespaces/inkscape"
   width="128pt"
   height="135pt"
   viewBox="0 0 128 135"
   version="1.1"
   id="svg5"
   sodipodi:docname="city.svg"
   inkscape:version="0.92.1 r15371">
  <metadata
     id="metadata11">
    <rdf:RDF>
      <cc:Work
         rdf:about="">
        <dc:format>image/svg+xml</dc:format>
        <dc:type
           rdf:resource="http://purl.org/dc/dcmitype/StillImage" />
      </cc:Work>
    </rdf:RDF>
  </metadata>
  <defs
     id="defs9" />
  <sodipodi:namedview
     pagecolor="#ffffff"
     bordercolor="#666666"
     borderopacity="1"
     objecttolerance="10"
     gridtolerance="10"
     guidetolerance="10"
     inkscape:pageopacity="0"
     inkscape:pageshadow="2"
     inkscape:window-width="1366"
     inkscape:window-height="685"
     id="namedview7"
     showgrid="false"
     inkscape:zoom="1.3111111"
     inkscape:cx="-69.497175"
     inkscape:cy="90"
     inkscape:window-x="0"
     inkscape:window-y="0"
     inkscape:window-maximized="1"
     inkscape:current-layer="surface1" />
  <g
     id="surface1">
    <path
       style="fill:#00ff00;fill-opacity:1;fill-rule:nonzero;stroke:none"
       d="m 85.761719,36.996094 v 25.3125 H 54.582031 V 25.636719 H 24.371094 V 7.789062 H 13.003906 V 25.636719 H 7.804688 V 127.21094 H 120.19531 V 36.996094 H 85.761719 M 77.96875,54.519531 V 36.996094 c 0,-2.164063 0.757812,-4.003906 2.273438,-5.519532 1.296874,-1.511718 3.140624,-2.269531 5.519531,-2.269531 h 34.433591 c 2.37891,0 4.22266,0.757813 5.51953,2.269531 1.51563,1.515626 2.27344,3.355469 2.27344,5.519532 v 90.214846 c 0,2.16406 -0.75781,3.89453 -2.27344,5.1914 C 124.41797,134.13281 122.57422,135 120.19531,135 H 7.804688 C 5.855469,135 4.015625,134.13281 2.285156,132.40234 0.769531,131.10547 0.0117188,129.375 0.0117188,127.21094 V 25.636719 c 0,-3.675781 1.7304692,-6.164063 5.1953122,-7.464844 V 7.789062 L 7.480469,2.597656 C 8.996094,0.867188 10.835938,0 13.003906,0 h 11.367188 c 2.167968,0 4.007812,0.867188 5.523437,2.597656 1.515625,1.511719 2.273438,3.242188 2.273438,5.191406 v 10.058594 h 22.414062 c 2.164063,0 4.003907,0.757813 5.519531,2.273438 1.515626,1.511718 2.273438,3.351562 2.273438,5.515625 v 28.882812 h 15.59375"
       id="path2"
       inkscape:connector-curvature="0" />
  </g>
</svg>
