<?xml version="1.0" encoding="UTF-8" standalone="no"?>
<svg
   xmlns:dc="http://purl.org/dc/elements/1.1/"
   xmlns:cc="http://creativecommons.org/ns#"
   xmlns:rdf="http://www.w3.org/1999/02/22-rdf-syntax-ns#"
   xmlns:svg="http://www.w3.org/2000/svg"
   xmlns="http://www.w3.org/2000/svg"
   xmlns:sodipodi="http://sodipodi.sourceforge.net/DTD/sodipodi-0.dtd"
   xmlns:inkscape="http://www.inkscape.org/namespaces/inkscape"
   width="128pt"
   height="202pt"
   viewBox="0 0 128 202"
   version="1.1"
   id="svg5"
   sodipodi:docname="custom-house.svg"
   inkscape:version="0.92.1 r15371">
  <metadata
     id="metadata11">
    <rdf:RDF>
      <cc:Work
         rdf:about="">
        <dc:format>image/svg+xml</dc:format>
        <dc:type
           rdf:resource="http://purl.org/dc/dcmitype/StillImage" />
      </cc:Work>
    </rdf:RDF>
  </metadata>
  <defs
     id="defs9" />
  <sodipodi:namedview
     pagecolor="#ffffff"
     bordercolor="#666666"
     borderopacity="1"
     objecttolerance="10"
     gridtolerance="10"
     guidetolerance="10"
     inkscape:pageopacity="0"
     inkscape:pageshadow="2"
     inkscape:window-width="836"
     inkscape:window-height="480"
     id="namedview7"
     showgrid="false"
     inkscape:zoom="0.87623762"
     inkscape:cx="85.333333"
     inkscape:cy="134.66667"
     inkscape:window-x="0"
     inkscape:window-y="0"
     inkscape:window-maximized="0"
     inkscape:current-layer="surface1" />
  <g
     id="surface1">
    <path
       style="fill:#00ff00;fill-opacity:1;fill-rule:nonzero;stroke:none"
       d="M 94.292969,92.8125 V 60.058594 L 63.316406,10.929688 33.707031,60.511719 V 92.8125 l -7.742187,10.46094 v 81.42968 h -15.03125 v 6.36719 H 117.06641 v -6.36719 H 101.57813 V 103.27344 L 94.292969,92.8125 m 9.566411,-38.210938 1.36328,5.457032 v 29.113281 l 5.46875,7.734375 1.82031,6.82422 v 70.05469 h 4.55469 c 3.03906,0 5.62109,1.0625 7.74609,3.18359 2.125,2.125 3.1875,4.69922 3.1875,7.73437 v 6.36719 c 0,3.03516 -1.0625,5.46094 -3.1875,7.27735 -2.125,2.42968 -4.70703,3.64062 -7.74609,3.64062 H 10.933594 c -3.039063,0 -5.621094,-1.21094 -7.746094,-3.64062 C 1.0625,196.53125 0,194.10547 0,191.07031 v -6.36719 c 0,-3.03515 1.0625,-5.60937 3.1875,-7.73437 2.125,-2.12109 4.707031,-3.18359 7.746094,-3.18359 h 4.097656 v -70.51172 l 2.734375,-6.824221 5.011719,-7.277344 V 60.511719 L 24.140625,55.054688 54.207031,5.015625 c 2.125,-3.335937 5.160157,-5.0039062 9.109375,-5.0039062 4.25,0 7.441406,1.6679692 9.566406,5.0039062 l 30.976568,49.585937"
       id="path2"
       inkscape:connector-curvature="0" />
  </g>
</svg>
