<?xml version="1.0" encoding="UTF-8" standalone="no"?>
<svg
   xmlns:dc="http://purl.org/dc/elements/1.1/"
   xmlns:cc="http://creativecommons.org/ns#"
   xmlns:rdf="http://www.w3.org/1999/02/22-rdf-syntax-ns#"
   xmlns:svg="http://www.w3.org/2000/svg"
   xmlns="http://www.w3.org/2000/svg"
   xmlns:sodipodi="http://sodipodi.sourceforge.net/DTD/sodipodi-0.dtd"
   xmlns:inkscape="http://www.inkscape.org/namespaces/inkscape"
   width="128pt"
   height="128pt"
   viewBox="0 0 128 128"
   version="1.1"
   id="svg5"
   sodipodi:docname="drive-in.svg"
   inkscape:version="0.92.1 r15371">
  <metadata
     id="metadata11">
    <rdf:RDF>
      <cc:Work
         rdf:about="">
        <dc:format>image/svg+xml</dc:format>
        <dc:type
           rdf:resource="http://purl.org/dc/dcmitype/StillImage" />
      </cc:Work>
    </rdf:RDF>
  </metadata>
  <defs
     id="defs9" />
  <sodipodi:namedview
     pagecolor="#ffffff"
     bordercolor="#666666"
     borderopacity="1"
     objecttolerance="10"
     gridtolerance="10"
     guidetolerance="10"
     inkscape:pageopacity="0"
     inkscape:pageshadow="2"
     inkscape:window-width="836"
     inkscape:window-height="480"
     id="namedview7"
     showgrid="false"
     inkscape:zoom="1.3828125"
     inkscape:cx="85.333333"
     inkscape:cy="85.333333"
     inkscape:window-x="0"
     inkscape:window-y="0"
     inkscape:window-maximized="0"
     inkscape:current-layer="surface1" />
  <g
     id="surface1">
    <path
       style="fill:#00ff00;fill-opacity:1;fill-rule:nonzero;stroke:none"
       d="m 98.230469,90.234375 v -11.53125 c -2.503907,0.191406 -4.625,1.921875 -6.355469,5.1875 L 86.675781,75.820312 C 83.785156,73.128906 79.933594,71.304688 75.121094,70.34375 L 65.011719,69.476562 53.746094,70.34375 C 49.125,71.496094 45.5625,73.417969 43.058594,76.109375 l -4.910156,7.496094 c -1.734376,-3.078125 -3.949219,-4.710938 -6.644532,-4.902344 v 11.53125 l 1.734375,11.820315 -1.445312,1.73047 -0.289063,3.16797 c 0,1.92187 1.925782,2.88281 5.777344,2.88281 v 4.90234 H 27.75 l -19.933594,1.15235 c -1.152344,1.15625 -1.441406,2.88281 -0.863281,5.1914 H 121.04688 c 0,-2.6914 -1.25,-4.61328 -3.75391,-5.76562 l -24.26172,-0.28907 h -0.578125 v -5.1914 c 3.851563,0 5.777344,-0.96094 5.777344,-2.88281 l -0.289063,-2.88282 -1.445312,-2.01562 1.734375,-11.820315 M 114.98438,53.621094 V 17.296875 H 12.730469 V 53.621094 H 114.98438 M 100.25,0 h 2.60156 c 2.50391,0 4.6211,0.960938 6.35547,2.882812 C 110.74609,0.960938 112.76953,0 115.26953,0 h 2.60156 c 2.3125,0 4.33204,0.863281 6.06641,2.59375 1.53906,1.730469 2.30859,3.75 2.30859,6.054688 v 2.019531 c 0,3.457031 -1.4414,6.054687 -4.33203,7.78125 v 33.730469 c 2.89063,1.730468 4.33203,4.324218 4.33203,7.785156 v 2.015625 c 0,2.5 -0.76953,4.613281 -2.30859,6.34375 -1.73437,1.539062 -3.75391,2.304687 -6.06641,2.304687 h -2.60156 c -2.5,0 -4.52344,-0.960937 -6.0625,-2.882812 -1.73437,1.921875 -3.85156,2.882812 -6.35547,2.882812 h -3.468748 v 1.15625 c 3.273438,0.574219 5.199218,2.59375 5.777348,6.050782 0.77343,4.039062 0.38672,10.667968 -1.15235,19.894531 l -0.28906,2.015625 c 1.53906,2.308596 2.01953,5.093746 1.44141,8.363286 l 15.30859,0.86328 5.48828,4.90234 2.02344,7.20703 -2.02344,4.89844 L 121.04688,128 H 6.953125 L 2.90625,126.55859 0.308594,123.09766 0.0195312,116.75781 c 0.3867188,-2.6914 1.5390628,-4.71093 3.4648438,-6.05468 1.15625,-0.96094 2.695313,-1.63282 4.621094,-2.01954 l 16.464843,-0.86328 c -0.578124,-3.07422 -0.09375,-5.76562 1.445313,-8.074216 l -0.289063,-2.304688 c -1.539062,-9.03125 -1.925781,-15.664062 -1.15625,-19.890625 0.386719,-2.5 1.734376,-4.230469 4.046876,-5.191406 V 70.34375 L 27.75,70.628906 h -2.890625 c -2.695313,0 -4.71875,-0.960937 -6.066406,-2.882812 -1.539063,1.921875 -3.65625,2.882812 -6.351563,2.882812 H 9.839844 c -2.308594,0 -4.332032,-0.765625 -6.066406,-2.304687 -1.539063,-1.730469 -2.308594,-3.84375 -2.308594,-6.34375 v -2.015625 c 0,-3.460938 1.539062,-6.054688 4.621094,-7.785156 V 18.449219 C 3.003906,16.722656 1.464844,14.125 1.464844,10.667969 V 8.648438 C 1.464844,6.34375 2.234375,4.324219 3.773438,2.59375 5.507812,0.863281 7.53125,0 9.839844,0 h 2.601562 c 2.695313,0 4.8125,0.960938 6.351563,2.882812 C 20.140625,0.960938 22.164062,0 24.859375,0 H 27.75 c 2.503906,0 4.523438,0.960938 6.066406,2.882812 C 35.355469,0.960938 37.378906,0 39.878906,0 h 2.890625 c 2.3125,0 4.332031,0.960938 6.066407,2.882812 C 50.375,0.960938 52.398438,0 54.902344,0 H 57.5 c 2.695312,0 4.816406,0.960938 6.355469,2.882812 C 65.394531,0.960938 67.515625,0 70.210938,0 h 2.597656 C 75.3125,0 77.335938,0.960938 78.875,2.882812 80.609375,0.960938 82.726562,0 85.230469,0 h 2.601562 c 2.5,0 4.523438,0.960938 6.0625,2.882812 C 95.628906,0.960938 97.746094,0 100.25,0"
       id="path2"
       inkscape:connector-curvature="0" />
  </g>
</svg>
