<?xml version="1.0" encoding="UTF-8" standalone="no"?>
<svg
   xmlns:dc="http://purl.org/dc/elements/1.1/"
   xmlns:cc="http://creativecommons.org/ns#"
   xmlns:rdf="http://www.w3.org/1999/02/22-rdf-syntax-ns#"
   xmlns:svg="http://www.w3.org/2000/svg"
   xmlns="http://www.w3.org/2000/svg"
   xmlns:sodipodi="http://sodipodi.sourceforge.net/DTD/sodipodi-0.dtd"
   xmlns:inkscape="http://www.inkscape.org/namespaces/inkscape"
   width="128pt"
   height="103pt"
   viewBox="0 0 128 103"
   version="1.1"
   id="svg5"
   sodipodi:docname="elevated-highway.svg"
   inkscape:version="0.92.1 r15371">
  <metadata
     id="metadata11">
    <rdf:RDF>
      <cc:Work
         rdf:about="">
        <dc:format>image/svg+xml</dc:format>
        <dc:type
           rdf:resource="http://purl.org/dc/dcmitype/StillImage" />
      </cc:Work>
    </rdf:RDF>
  </metadata>
  <defs
     id="defs9" />
  <sodipodi:namedview
     pagecolor="#ffffff"
     bordercolor="#666666"
     borderopacity="1"
     objecttolerance="10"
     gridtolerance="10"
     guidetolerance="10"
     inkscape:pageopacity="0"
     inkscape:pageshadow="2"
     inkscape:window-width="836"
     inkscape:window-height="480"
     id="namedview7"
     showgrid="false"
     inkscape:zoom="1.7184466"
     inkscape:cx="85.333333"
     inkscape:cy="68.666667"
     inkscape:window-x="0"
     inkscape:window-y="0"
     inkscape:window-maximized="0"
     inkscape:current-layer="surface1" />
  <g
     id="surface1">
    <path
       style="fill:#00ff00;fill-opacity:1;fill-rule:nonzero;stroke:none"
       d="M 61.117188,55.96875 H 45.550781 l 15.566407,-17.875 v 17.875 M 23.351562,35.210938 H 38.917969 V 53.375 L 23.351562,35.210938 m 18.738282,0 H 59.097656 L 42.089844,54.527344 V 35.210938 M 80.433594,55.96875 H 64.289062 v -17.875 l 16.144532,17.875 M 87.0625,35.210938 h 17.58594 L 87.0625,54.238281 V 35.210938 m -20.757812,0 H 83.890625 V 54.527344 L 66.304688,35.210938 M 85.332031,8.6875 h -0.574219 c -0.769531,-1.152344 -2.59375,-1.726562 -5.480468,-1.726562 -3.84375,0 -5.765625,0.765624 -5.765625,2.304687 0,1.539063 1.921875,2.304687 5.765625,2.304687 l 2.886718,-0.285156 V 26.851562 H 42.667969 V 9.84375 H 42.089844 L 36.324219,8.113281 32.578125,8.6875 l -1.730469,1.730469 1.730469,1.730469 3.746094,0.578124 3.171875,-0.289062 V 26.851562 H 6.917969 v 8.359376 H 19.027344 L 36.613281,55.96875 H 6.917969 v 4.902344 H 18.738281 L 17.007812,90.5625 h -3.746093 v 5.476562 H 32 V 90.5625 H 27.675781 L 25.945312,60.871094 H 59.964844 L 58.234375,90.5625 h -4.035156 v 5.476562 H 73.226562 V 90.5625 H 68.902344 L 67.171875,60.871094 H 100.03516 L 98.304688,90.5625 h -3.746094 v 5.476562 H 113.58594 V 90.5625 h -4.61328 l -1.73047,-29.691406 h 13.83984 V 55.96875 H 89.945312 L 109.26172,35.210938 h 11.82031 V 26.851562 H 85.332031 V 8.6875 M 66.59375,9.265625 c 0,-2.5 1.058594,-4.613281 3.171875,-6.34375 C 72.070312,1 75.242188,0.0390625 79.277344,0.0390625 c 3.460937,0 6.34375,0.6757815 8.652344,2.0195315 2.882812,1.152344 4.324218,3.363281 4.324218,6.628906 v 11.246094 h 28.828124 l 4.89844,1.730468 2.01953,5.1875 v 8.359376 c 0,1.921874 -0.67187,3.554687 -2.01953,4.902343 -1.15234,1.34375 -2.78516,2.015625 -4.89844,2.015625 h -8.9375 l -6.34375,6.921875 h 15.28125 c 2.11328,0 3.7461,0.671875 4.89844,2.015625 C 127.32813,52.414062 128,54.046875 128,55.96875 v 4.902344 l -2.01953,4.898437 c -1.15234,1.347657 -2.78516,2.019531 -4.89844,2.019531 h -6.05469 l 0.86329,7.207032 v 8.9375 c 3.07812,1.152344 4.61328,3.363281 4.61328,6.628906 v 5.476562 l -2.01563,4.902348 c -1.34765,1.34375 -2.98047,2.01953 -4.90234,2.01953 H 94.558594 c -1.921875,0 -3.554688,-0.67578 -4.902344,-2.01953 -1.34375,-1.343754 -2.015625,-2.980472 -2.015625,-4.902348 V 90.5625 c 0,-2.882812 1.25,-4.996094 3.746094,-6.339844 v -9.226562 l 0.867187,-7.207032 H 74.953125 l 0.867187,7.207032 v 8.9375 c 2.882813,1.535156 4.324219,3.746094 4.324219,6.628906 v 5.476562 c 0,1.921876 -0.769531,3.558594 -2.308593,4.902348 -1.152344,1.34375 -2.6875,2.01953 -4.609376,2.01953 H 54.199219 c -1.730469,0 -3.363281,-0.67578 -4.902344,-2.01953 -1.34375,-1.343754 -2.019531,-2.980472 -2.019531,-4.902348 V 90.5625 c 0,-3.074219 1.347656,-5.1875 4.039062,-6.339844 v -9.226562 l 0.863282,-7.207032 H 33.730469 l 0.863281,7.207032 v 8.9375 c 2.882812,1.152344 4.324219,3.363281 4.324219,6.628906 v 5.476562 c 0,1.921876 -0.671875,3.558594 -2.015625,4.902348 -1.15625,1.34375 -2.789063,2.01953 -4.902344,2.01953 H 13.261719 L 8.359375,100.94141 6.34375,96.039062 V 90.5625 c 0,-2.882812 1.246094,-4.898438 3.746094,-6.054688 v -9.511718 l 0.863281,-7.207032 H 6.917969 c -1.730469,0 -3.265625,-0.671874 -4.613281,-2.019531 C 0.769531,64.425781 0,62.792969 0,60.871094 V 55.96875 C 0,54.046875 0.769531,52.414062 2.304688,51.066406 3.652344,49.722656 5.1875,49.050781 6.917969,49.050781 h 14.703125 l -5.765625,-6.921875 h -8.9375 c -1.921875,0 -3.457031,-0.671875 -4.613281,-2.015625 C 0.769531,38.765625 0,37.132812 0,35.210938 v -8.359376 c 0,-1.921874 0.769531,-3.652343 2.304688,-5.1875 l 4.613281,-1.730468 h 25.660156 v -0.578125 c -2.882813,-0.578125 -5.09375,-1.730469 -6.632813,-3.460938 -1.34375,-1.535156 -2.015624,-3.363281 -2.015624,-5.476562 0,-2.496094 0.960937,-4.613281 2.882812,-6.339844 2.304688,-1.921875 5.476562,-2.882813 9.511719,-2.882813 3.460937,0 6.34375,0.765626 8.648437,2.304688 3.074219,0.960938 4.613282,3.074219 4.613282,6.34375 v 10.089844 h 25.65625 V 18.203125 C 69.476562,16.855469 66.59375,13.878906 66.59375,9.265625"
       id="path2"
       inkscape:connector-curvature="0" />
  </g>
</svg>
