<?xml version="1.0" encoding="UTF-8" standalone="no"?>
<svg
   xmlns:dc="http://purl.org/dc/elements/1.1/"
   xmlns:cc="http://creativecommons.org/ns#"
   xmlns:rdf="http://www.w3.org/1999/02/22-rdf-syntax-ns#"
   xmlns:svg="http://www.w3.org/2000/svg"
   xmlns="http://www.w3.org/2000/svg"
   xmlns:sodipodi="http://sodipodi.sourceforge.net/DTD/sodipodi-0.dtd"
   xmlns:inkscape="http://www.inkscape.org/namespaces/inkscape"
   width="128pt"
   height="131pt"
   viewBox="0 0 128 131"
   version="1.1"
   id="svg5"
   sodipodi:docname="farm.svg"
   inkscape:version="0.92.1 r15371">
  <metadata
     id="metadata11">
    <rdf:RDF>
      <cc:Work
         rdf:about="">
        <dc:format>image/svg+xml</dc:format>
        <dc:type
           rdf:resource="http://purl.org/dc/dcmitype/StillImage" />
      </cc:Work>
    </rdf:RDF>
  </metadata>
  <defs
     id="defs9" />
  <sodipodi:namedview
     pagecolor="#ffffff"
     bordercolor="#666666"
     borderopacity="1"
     objecttolerance="10"
     gridtolerance="10"
     guidetolerance="10"
     inkscape:pageopacity="0"
     inkscape:pageshadow="2"
     inkscape:window-width="836"
     inkscape:window-height="480"
     id="namedview7"
     showgrid="false"
     inkscape:zoom="1.351145"
     inkscape:cx="85.333333"
     inkscape:cy="87.333333"
     inkscape:window-x="0"
     inkscape:window-y="0"
     inkscape:window-maximized="0"
     inkscape:current-layer="surface1" />
  <g
     id="surface1">
    <path
       style="fill:#00ff00;fill-opacity:1;fill-rule:nonzero;stroke:none"
       d="m 87.40625,71.988281 5.925781,-5.011719 c -18.367187,2.75 -36.046875,9.4375 -53.035156,20.054688 l -33.1875,25.66016 v 11.20703 h 26.667969 c 13.628906,-17.5 31.507812,-34.800784 53.628906,-51.910159 m 13.03906,-1.472656 -0.890622,0.589844 -1.480469,1.472656 -6.222657,4.71875 C 79.40625,87.917969 66.566406,103.44922 53.332031,123.89844 H 81.183594 C 86.519531,108.5625 94.023438,90.964844 103.70313,71.105469 l -3.25782,-0.589844 m 17.77735,-3.539063 c -4.54297,7.078126 -8.89063,16.808594 -13.03907,29.199219 l -8.58984,27.722659 h 21.62891 V 66.976562 M 105.18359,14.472656 V 28.042969 L 85.332031,26.273438 77.035156,7.101562 h -30.8125 v 30.082032 c -3.359375,3.34375 -5.039062,7.179687 -5.039062,11.503906 0,3.34375 0.988281,6.488281 2.964844,9.4375 l 7.703124,5.898438 -4.445312,-0.292969 -25.183594,2.65625 -15.113281,5.011719 V 95.878906 L 37.628906,79.953125 c 16,-8.0625 26.765625,-12.976563 32.296875,-14.75 l -8.59375,-0.882813 c 3.160157,-0.785156 5.828125,-2.261718 8,-4.425781 l 3.851563,-8.257812 h 24.59375 l -0.886719,3.835937 c 0,2.359375 0.886719,4.421875 2.664063,6.191406 1.582032,1.769532 3.656252,2.65625 6.222652,2.65625 2.3711,0 4.44532,-0.886718 6.22266,-2.65625 1.77734,-1.769531 2.66797,-3.832031 2.66797,-6.191406 l -1.1875,-3.835937 h 4.74219 l 2.07422,-2.652344 -4.74219,-19.46875 -6.22266,-0.589844 V 14.472656 h -4.14844 m 4.14844,-7.078125 c 1.97656,0 3.65625,0.6875 5.03906,2.066407 l 2.07422,5.011718 V 22.4375 c 3.16016,0.195312 5.13672,1.964844 5.92578,5.308594 l 4.73829,19.761718 c 0.59375,2.164063 0.19921,4.128907 -1.1836,5.898438 l -2.07422,2.65625 -2.37109,2.0625 -0.58984,2.359375 c 2.96093,1.179687 4.4414,3.34375 4.4414,6.492187 v 56.921878 c 0,1.96875 -0.78906,3.64062 -2.36719,5.01562 -1.1875,1.375 -2.76562,2.06641 -4.74218,2.06641 H 7.109375 L 2.074219,128.91406 0,123.89844 V 71.398438 c 0,-3.144532 1.480469,-5.308594 4.445312,-6.488282 l 0.886719,-0.589844 c 10.46875,-3.933593 20.644531,-6.292968 30.519531,-7.078124 L 34.074219,48.6875 c 0,-5.113281 1.679687,-9.832031 5.035156,-14.15625 V 7.101562 l 2.074219,-5.015624 c 1.382812,-1.375 3.0625,-2.0664068 5.039062,-2.0664068 h 30.8125 c 3.164063,0 5.335938,1.3789068 6.519532,4.1328128 l 6.519531,15.335937 8,0.882813 v -5.898438 c 0,-1.769531 0.691406,-3.441406 2.074221,-5.011718 1.38281,-1.378907 3.0625,-2.066407 5.03515,-2.066407 h 4.14844"
       id="path2"
       inkscape:connector-curvature="0" />
  </g>
</svg>
