<?xml version="1.0" encoding="UTF-8" standalone="no"?>
<svg
   xmlns:dc="http://purl.org/dc/elements/1.1/"
   xmlns:cc="http://creativecommons.org/ns#"
   xmlns:rdf="http://www.w3.org/1999/02/22-rdf-syntax-ns#"
   xmlns:svg="http://www.w3.org/2000/svg"
   xmlns="http://www.w3.org/2000/svg"
   xmlns:sodipodi="http://sodipodi.sourceforge.net/DTD/sodipodi-0.dtd"
   xmlns:inkscape="http://www.inkscape.org/namespaces/inkscape"
   width="127pt"
   height="126pt"
   viewBox="0 0 127 126"
   version="1.1"
   id="svg5"
   sodipodi:docname="red_rocket.svg"
   inkscape:version="0.92.1 r15371">
  <metadata
     id="metadata11">
    <rdf:RDF>
      <cc:Work
         rdf:about="">
        <dc:format>image/svg+xml</dc:format>
        <dc:type
           rdf:resource="http://purl.org/dc/dcmitype/StillImage" />
      </cc:Work>
    </rdf:RDF>
  </metadata>
  <defs
     id="defs9" />
  <sodipodi:namedview
     pagecolor="#ffffff"
     bordercolor="#666666"
     borderopacity="1"
     objecttolerance="10"
     gridtolerance="10"
     guidetolerance="10"
     inkscape:pageopacity="0"
     inkscape:pageshadow="2"
     inkscape:window-width="836"
     inkscape:window-height="480"
     id="namedview7"
     showgrid="false"
     inkscape:zoom="1.4047619"
     inkscape:cx="84.666667"
     inkscape:cy="84"
     inkscape:window-x="0"
     inkscape:window-y="0"
     inkscape:window-maximized="0"
     inkscape:current-layer="surface1" />
  <g
     id="surface1">
    <path
       style="fill:#00ff00;fill-opacity:1;fill-rule:nonzero;stroke:none"
       d="M 92.847656,13.90625 C 106.01563,4.636719 114.57422,0 118.52344,0 l 4.79687,1.703125 1.12891,0.851563 c 1.69141,2.082031 2.07031,4.632812 1.12891,7.660156 -1.31641,4.164062 -5.36329,11.164062 -12.13282,21 -9.21875,13.246094 -17.964841,23.648437 -26.242185,31.21875 l -5.644531,4.824218 -5.925782,5.390626 c -6.394531,6.242187 -9.96875,12.203124 -10.722656,17.878906 l 7.054688,-3.691406 2.539062,-0.566407 c 1.695313,0 3.292969,0.664063 4.796875,1.988281 2.070313,2.078126 2.539063,4.539063 1.410157,7.378907 -2.066407,5.675781 -6.019532,11.539061 -11.851563,17.593751 -6.394531,6.80859 -12.695313,10.97266 -18.902344,12.48437 L 48.261719,126 c -1.878907,0 -3.480469,-0.75781 -4.796875,-2.26953 -1.878906,-1.70313 -2.445313,-3.78516 -1.691406,-6.24219 0.941406,-3.59765 3.386718,-7.75781 7.335937,-12.48828 L 43.183594,91.09375 C 41.492188,90.714844 39.984375,89.960938 38.667969,88.824219 L 37.539062,87.6875 35.28125,83.433594 21.457031,77.1875 c -4.703125,4.164062 -8.84375,6.625 -12.414062,7.378906 L 7.628906,84.851562 C 5.5625,84.851562 3.960938,84.1875 2.832031,82.863281 0.953125,81.164062 0.292969,79.082031 0.859375,76.621094 2.363281,70.378906 6.5,63.945312 13.273438,57.324219 19.292969,51.269531 25.125,47.203125 30.769531,45.121094 l 2.539063,-0.285156 c 2.070312,0 3.667968,0.664062 4.796875,1.988281 2.070312,2.269531 2.539062,4.730469 1.410156,7.378906 l -3.667969,7.09375 C 41.492188,60.539062 47.417969,56.945312 53.625,50.511719 L 63.78125,38.878906 C 70.554688,31.3125 80.242188,22.988281 92.847656,13.90625 M 82.6875,57.324219 C 90.398438,50.511719 98.769531,40.488281 107.80078,27.242188 116.26563,14.945312 120.02734,8.136719 119.08594,6.8125 h -0.5625 c -2.63281,0 -9.6875,4.066406 -21.164065,12.199219 -12.414063,8.894531 -22.007813,17.027343 -28.78125,24.40625 l -9.875,11.917969 c -8.277344,8.515624 -16.554687,12.773437 -24.832031,12.773437 -3.574219,0 -7.054688,-0.757813 -10.4375,-2.273437 l 3.949218,-4.253907 c 2.632813,-3.40625 4.609376,-6.71875 5.925782,-9.933593 -4.890625,1.703124 -9.972656,5.203124 -15.238282,10.5 -5.832031,5.675781 -9.3125,10.972656 -10.441406,15.890624 2.824219,-0.753906 7.054688,-3.78125 12.699219,-9.078124 L 42.621094,79.175781 42.054688,80.3125 42.335938,82.863281 43.464844,84 44.875,84.566406 l 2.542969,-1.132812 9.59375,22.703126 c -5.082031,5.67578 -7.996094,10.02734 -8.75,13.05078 4.890625,-1.32422 10.160156,-4.91797 15.800781,-10.78125 C 69.332031,103.10938 72.8125,98 74.503906,93.082031 l -9.875,5.957031 -4.234375,3.972658 C 55.316406,91.09375 58.796875,79.269531 70.835938,67.539062 L 82.6875,57.324219"
       id="path2"
       inkscape:connector-curvature="0" />
  </g>
</svg>
