<?xml version="1.0" encoding="UTF-8" standalone="no"?>
<svg
   xmlns:dc="http://purl.org/dc/elements/1.1/"
   xmlns:cc="http://creativecommons.org/ns#"
   xmlns:rdf="http://www.w3.org/1999/02/22-rdf-syntax-ns#"
   xmlns:svg="http://www.w3.org/2000/svg"
   xmlns="http://www.w3.org/2000/svg"
   xmlns:sodipodi="http://sodipodi.sourceforge.net/DTD/sodipodi-0.dtd"
   xmlns:inkscape="http://www.inkscape.org/namespaces/inkscape"
   width="128pt"
   height="121pt"
   viewBox="0 0 128 121"
   version="1.1"
   id="svg5"
   sodipodi:docname="goodneighbor.svg"
   inkscape:version="0.92.1 r15371">
  <metadata
     id="metadata11">
    <rdf:RDF>
      <cc:Work
         rdf:about="">
        <dc:format>image/svg+xml</dc:format>
        <dc:type
           rdf:resource="http://purl.org/dc/dcmitype/StillImage" />
      </cc:Work>
    </rdf:RDF>
  </metadata>
  <defs
     id="defs9" />
  <sodipodi:namedview
     pagecolor="#ffffff"
     bordercolor="#666666"
     borderopacity="1"
     objecttolerance="10"
     gridtolerance="10"
     guidetolerance="10"
     inkscape:pageopacity="0"
     inkscape:pageshadow="2"
     inkscape:window-width="836"
     inkscape:window-height="480"
     id="namedview7"
     showgrid="false"
     inkscape:zoom="1.4628099"
     inkscape:cx="85.333333"
     inkscape:cy="80.666667"
     inkscape:window-x="0"
     inkscape:window-y="0"
     inkscape:window-maximized="0"
     inkscape:current-layer="surface1" />
  <g
     id="surface1">
    <path
       style="fill:#00ff00;fill-opacity:1;fill-rule:nonzero;stroke:none"
       d="M 65.441406,12.707031 V 6.929688 h -2.882812 v 5.777343 l -2.882813,2.308594 -1.152343,1.445313 v 11.261718 h -4.035157 v 12.128906 h -3.167969 v 8.664063 H 12.703125 V 39.851562 H 6.9375 v 74.218748 h 114.125 V 39.851562 h -5.47656 v 8.664063 H 76.679688 V 39.851562 H 73.796875 V 27.722656 h -4.03125 V 16.460938 l -4.324219,-3.753907 m 10.085938,0.289063 1.152344,3.464844 v 4.910156 c 2.691406,1.152344 4.035156,3.273437 4.035156,6.351562 v 6.355469 c 1.921875,1.347656 2.882812,3.269531 2.882812,5.773437 v 1.734376 h 25.070314 v -1.734376 c 0,-1.730468 0.67187,-3.367187 2.01953,-4.910156 1.34375,-1.347656 2.97656,-2.019531 4.89844,-2.019531 h 5.47656 l 4.89844,2.019531 2.01562,4.910156 v 74.218748 l -2.01562,4.91016 L 121.0625,121 H 6.9375 L 2.039062,118.98047 0.0234375,114.07031 V 39.851562 L 2.039062,34.941406 6.9375,32.921875 h 5.765625 c 1.921875,0 3.554687,0.671875 4.898437,2.019531 1.34375,1.542969 2.019532,3.179688 2.019532,4.910156 v 1.734376 h 24.78125 v -1.734376 c 0,-2.503906 1.058594,-4.425781 3.171875,-5.773437 v -6.355469 c 0,-3.078125 1.34375,-5.199218 4.035156,-6.351562 v -4.910156 l 0.863281,-3.464844 3.171875,-3.753906 v -2.3125 L 57.660156,2.019531 C 59.003906,0.671875 60.636719,0 62.558594,0 h 2.882812 l 5.1875,2.019531 1.726563,4.910157 v 2.3125 l 3.171875,3.753906"
       id="path2"
       inkscape:connector-curvature="0" />
  </g>
</svg>
