<?xml version="1.0" encoding="UTF-8"?>
<svg xmlns="http://www.w3.org/2000/svg" xmlns:xlink="http://www.w3.org/1999/xlink" width="128pt" height="128pt" viewBox="0 0 128 128" version="1.1">
<g id="surface1">
<path style=" stroke:none;fill-rule:nonzero;fill:rgb(100%,100%,100%);fill-opacity:1;" d="M 104.359375 23.640625 C 93.214844 12.492188 79.757812 6.917969 64 6.917969 C 48.242188 6.917969 34.785156 12.492188 23.640625 23.640625 C 12.492188 34.785156 6.917969 48.242188 6.917969 64 C 6.917969 79.757812 12.492188 93.117188 23.640625 104.070312 C 34.785156 115.410156 48.242188 121.082031 64 121.082031 C 79.757812 121.082031 93.214844 115.410156 104.359375 104.070312 C 115.507812 93.117188 121.082031 79.757812 121.082031 64 C 121.082031 48.242188 115.507812 34.785156 104.359375 23.640625 M 76.683594 51.027344 L 76.683594 24.214844 L 51.316406 24.214844 L 51.316406 51.027344 L 24.503906 51.027344 L 24.503906 76.394531 L 51.316406 76.394531 L 51.316406 103.207031 L 76.683594 103.207031 L 76.683594 76.394531 L 103.496094 76.394531 L 103.496094 51.027344 L 76.683594 51.027344 M 83.605469 44.109375 L 110.414062 44.109375 L 110.414062 83.316406 L 83.605469 83.316406 L 83.605469 110.125 L 44.394531 110.125 L 44.394531 83.316406 L 17.585938 83.316406 L 17.585938 44.109375 L 44.394531 44.109375 L 44.394531 17.296875 L 83.605469 17.296875 L 83.605469 44.109375 M 64 0 C 81.683594 0 96.769531 6.246094 109.261719 18.738281 C 121.753906 31.230469 128 46.316406 128 64 C 128 81.488281 121.753906 96.578125 109.261719 109.261719 C 96.769531 121.753906 81.683594 128 64 128 C 46.316406 128 31.230469 121.753906 18.738281 109.261719 C 6.246094 96.578125 0 81.488281 0 64 C 0 46.316406 6.246094 31.230469 18.738281 18.738281 C 31.230469 6.246094 46.316406 0 64 0 "/>
</g>
</svg>
