<?xml version="1.0" encoding="UTF-8" standalone="no"?>
<svg
   xmlns:dc="http://purl.org/dc/elements/1.1/"
   xmlns:cc="http://creativecommons.org/ns#"
   xmlns:rdf="http://www.w3.org/1999/02/22-rdf-syntax-ns#"
   xmlns:svg="http://www.w3.org/2000/svg"
   xmlns="http://www.w3.org/2000/svg"
   xmlns:sodipodi="http://sodipodi.sourceforge.net/DTD/sodipodi-0.dtd"
   xmlns:inkscape="http://www.inkscape.org/namespaces/inkscape"
   width="127pt"
   height="84pt"
   viewBox="0 0 127 84"
   version="1.1"
   id="svg5"
   sodipodi:docname="icon_30.svg"
   inkscape:version="0.92.1 r15371">
  <metadata
     id="metadata11">
    <rdf:RDF>
      <cc:Work
         rdf:about="">
        <dc:format>image/svg+xml</dc:format>
        <dc:type
           rdf:resource="http://purl.org/dc/dcmitype/StillImage" />
      </cc:Work>
    </rdf:RDF>
  </metadata>
  <defs
     id="defs9" />
  <sodipodi:namedview
     pagecolor="#ffffff"
     bordercolor="#666666"
     borderopacity="1"
     objecttolerance="10"
     gridtolerance="10"
     guidetolerance="10"
     inkscape:pageopacity="0"
     inkscape:pageshadow="2"
     inkscape:window-width="836"
     inkscape:window-height="480"
     id="namedview7"
     showgrid="false"
     inkscape:zoom="2.1071429"
     inkscape:cx="84.666667"
     inkscape:cy="56"
     inkscape:window-x="0"
     inkscape:window-y="0"
     inkscape:window-maximized="0"
     inkscape:current-layer="surface1" />
  <g
     id="surface1">
    <path
       style="fill:#00ff00;fill-opacity:1;fill-rule:nonzero;stroke:none"
       d="m 83.601562,6.832031 h -3.964843 v 19.648438 l -12.171875,3.132812 c -1.132813,0.378907 -1.699219,1.992188 -1.699219,4.839844 v 7.972656 C 54.0625,43.945312 44.71875,45.9375 37.734375,48.40625 l -18.402344,6.550781 -0.566406,-9.398437 -1.132813,-3.417969 -2.828124,-1.707031 -0.566407,0.285156 -0.285156,-0.285156 c -1.132813,0 -1.699219,1.328125 -1.699219,3.988281 l 0.285156,13.097656 c -0.945312,0.1875 -1.886718,0.664063 -2.832031,1.421875 C 7.820312,60.082031 6.875,61.316406 6.875,62.644531 l 4.8125,4.554688 V 71.1875 c 0,2.464844 0.566406,3.699219 1.699219,3.699219 h 0.851562 c 1.320313,0 2.359375,-0.566407 3.113281,-1.707031 l 1.132813,-3.132813 c 8.304687,3.039063 18.308594,4.9375 30.011719,5.695313 l 30.292968,1.425781 c 14.53125,0 24.628908,-2.089844 30.292968,-6.265625 4.15235,-3.039063 7.07813,-6.835938 8.77735,-11.390625 2.07421,-5.125 1.50781,-9.585938 -1.69922,-13.382813 -1.32032,-1.898437 -5.09766,-3.132812 -11.32422,-3.703125 L 89.546875,41.574219 V 28.757812 L 89.265625,25.910156 87.566406,25.34375 H 87 l -3.398438,0.566406 V 6.832031 m 0,-6.832031 c 1.886719,0 3.492188,0.664062 4.8125,1.992188 l 1.980469,4.839843 v 11.960938 c 3.964844,0.949219 5.949219,4.269531 5.949219,9.964843 v 6.550782 h 0.847656 l 14.437504,1.140625 c 4.71875,0.949219 8.11718,2.75 10.19531,5.410156 3.39453,4.554687 4.62109,9.679687 3.67969,15.375 C 124.55859,64.828125 120.5,71.28125 113.32813,76.597656 106.15625,81.53125 94.644531,84 78.789062,84 L 47.929688,82.578125 21.882812,78.304688 c -1.890624,2.277343 -4.4375,3.417968 -7.644531,3.417968 h -0.851562 c -2.074219,0 -3.867188,-0.664062 -5.378907,-1.992187 C 5.933594,77.640625 4.894531,74.792969 4.894531,71.1875 V 70.617188 C 1.683594,68.148438 0.0820312,65.492188 0.0820312,62.644531 0.0820312,59.039062 1.875,56 5.460938,53.53125 v -9.109375 l 1.699218,-7.121094 6.792969,-3.699219 h 0.851563 c 3.207031,0 6.039062,1.515626 8.492187,4.554688 1.320313,1.898438 2.078125,4.175781 2.265625,6.832031 v 0.570313 l 9.910156,-3.417969 23.496094,-5.691406 v -1.996094 c 0,-6.261719 2.078125,-9.964844 6.230469,-11.105469 L 72.84375,21.070312 V 6.832031 c 0,-1.894531 0.660156,-3.511719 1.980469,-4.839843 C 76.144531,0.664062 77.75,0 79.636719,0 h 3.964843"
       id="path2"
       inkscape:connector-curvature="0" />
  </g>
</svg>
