<?xml version="1.0" encoding="UTF-8"?>
<svg xmlns="http://www.w3.org/2000/svg" xmlns:xlink="http://www.w3.org/1999/xlink" width="128pt" height="132pt" viewBox="0 0 128 132" version="1.1">
<g id="surface1">
<path style=" stroke:none;fill-rule:nonzero;fill:rgb(100%,100%,100%);fill-opacity:1;" d="M 39.433594 10.347656 L 35.988281 7.535156 L 24.722656 15.039062 C 21.59375 16.914062 17.839844 18.476562 13.457031 19.726562 L 13.457031 40.050781 L 57.898438 40.050781 L 57.898438 19.726562 L 46.316406 15.039062 L 39.433594 10.347656 M 89.507812 31.609375 L 83.871094 35.671875 L 73.546875 42.238281 C 69.164062 44.738281 64.050781 47.03125 58.210938 49.117188 L 58.210938 67.5625 L 50.699219 61.621094 L 43.1875 66.9375 L 28.792969 76.316406 C 22.742188 79.859375 15.648438 82.882812 7.511719 85.382812 L 7.511719 124.464844 L 93.574219 124.464844 L 93.574219 85.382812 L 72.605469 77.253906 L 120.175781 77.253906 L 120.488281 49.117188 L 104.214844 42.550781 C 101.503906 41.09375 98.164062 38.800781 94.199219 35.671875 L 89.507812 31.609375 M 64.15625 15.664062 L 65.410156 19.726562 L 65.410156 38.175781 L 69.789062 35.671875 L 79.492188 29.417969 L 84.8125 25.667969 L 89.507812 24.105469 L 94.199219 25.980469 C 100.25 30.984375 104.738281 34.316406 107.65625 35.984375 L 122.679688 41.925781 C 126.226562 43.175781 128 45.574219 128 49.117188 L 127.6875 77.253906 L 125.496094 82.570312 C 124.035156 84.03125 122.261719 84.757812 120.175781 84.757812 L 101.085938 84.757812 L 101.085938 124.464844 L 98.894531 130.09375 L 93.574219 131.96875 L 7.511719 131.96875 L 2.191406 130.09375 L 0 124.464844 L 0 85.382812 C 0 82.050781 1.773438 79.757812 5.320312 78.507812 C 12.832031 76.003906 19.402344 73.085938 25.035156 69.75 L 38.808594 60.996094 L 46.316406 55.371094 L 50.699219 54.121094 L 50.699219 48.804688 L 51.011719 47.554688 L 13.457031 47.554688 C 11.371094 47.554688 9.597656 46.824219 8.136719 45.363281 C 6.675781 43.90625 5.945312 42.132812 5.945312 40.050781 L 5.945312 19.726562 C 5.945312 16.390625 7.71875 14.101562 11.265625 12.847656 C 15.023438 11.597656 18.152344 10.140625 20.65625 8.472656 L 31.296875 1.59375 L 35.988281 0.03125 L 40.683594 1.90625 L 50.074219 8.472656 L 60.089844 12.847656 L 64.15625 15.664062 "/>
</g>
</svg>
