<?xml version="1.0" encoding="UTF-8"?>
<svg xmlns="http://www.w3.org/2000/svg" xmlns:xlink="http://www.w3.org/1999/xlink" width="128pt" height="128pt" viewBox="0 0 128 128" version="1.1">
<g id="surface1">
<path style=" stroke:none;fill-rule:nonzero;fill:rgb(100%,100%,100%);fill-opacity:1;" d="M 116.648438 37.203125 L 116.648438 34.363281 L 120.433594 34.363281 L 120.433594 30.265625 L 63.683594 7.566406 L 7.566406 30.265625 L 7.566406 34.363281 L 10.71875 34.363281 L 10.71875 37.203125 L 21.753906 37.203125 L 21.753906 104.984375 L 13.242188 104.984375 L 13.242188 110.660156 L 10.71875 110.660156 L 10.71875 115.703125 L 7.566406 115.703125 L 7.566406 120.433594 L 120.433594 120.433594 L 120.433594 115.703125 L 116.648438 115.703125 L 116.648438 110.660156 L 114.441406 110.660156 L 114.441406 104.984375 L 106.246094 104.984375 L 106.246094 37.203125 L 116.648438 37.203125 M 66.523438 0.316406 L 123.269531 23.328125 C 126.421875 24.589844 128 26.902344 128 30.265625 L 128 34.363281 C 128 37.726562 126.421875 40.039062 123.269531 41.300781 C 121.800781 43.613281 119.59375 44.769531 116.648438 44.769531 L 113.8125 44.769531 L 113.8125 97.417969 L 114.441406 97.417969 C 116.335938 97.417969 118.015625 98.15625 119.488281 99.625 L 122.011719 104.984375 L 124.214844 109.082031 C 126.738281 110.765625 128 112.972656 128 115.703125 L 128 120.433594 L 125.792969 125.792969 L 120.433594 128 L 7.566406 128 L 2.207031 125.792969 L 0 120.433594 L 0 115.703125 C 0 112.972656 1.050781 110.871094 3.152344 109.398438 L 5.675781 104.984375 C 5.675781 102.882812 6.410156 101.097656 7.882812 99.625 C 9.351562 98.15625 11.140625 97.417969 13.242188 97.417969 L 14.1875 97.417969 L 14.1875 44.769531 L 10.71875 44.769531 C 7.988281 44.769531 5.78125 43.507812 4.097656 40.984375 C 1.367188 39.722656 0 37.515625 0 34.363281 L 0 30.265625 C 0 26.902344 1.578125 24.589844 4.730469 23.328125 L 60.847656 0.316406 L 63.683594 0 L 66.523438 0.316406 "/>
</g>
</svg>
