<?xml version="1.0" encoding="UTF-8"?>
<svg xmlns="http://www.w3.org/2000/svg" xmlns:xlink="http://www.w3.org/1999/xlink" width="128pt" height="82pt" viewBox="0 0 128 82" version="1.1">
<g id="surface1">
<path style=" stroke:none;fill-rule:nonzero;fill:rgb(100%,100%,100%);fill-opacity:1;" d="M 107.464844 30.316406 C 105.738281 24.15625 103.53125 19.828125 100.84375 17.324219 C 93.746094 10.394531 81.464844 6.929688 64 6.929688 C 46.535156 6.929688 34.160156 10.585938 26.867188 17.902344 C 24.179688 20.597656 22.070312 24.734375 20.535156 30.316406 L 20.246094 30.316406 C 17.175781 30.316406 14.585938 31.375 12.472656 33.492188 C 10.363281 35.417969 9.308594 37.921875 9.308594 41 L 7.003906 60.632812 L 8.15625 63.230469 L 10.171875 64.097656 L 19.671875 64.097656 L 19.671875 73.625 L 21.398438 75.070312 L 33.488281 75.070312 L 34.925781 73.625 L 34.925781 64.097656 L 93.074219 64.097656 L 93.074219 73.625 L 94.511719 75.070312 L 106.601562 75.070312 L 108.328125 73.625 L 108.328125 64.097656 L 117.828125 64.097656 L 119.84375 63.230469 L 120.996094 60.632812 L 118.691406 41 C 118.691406 37.921875 117.636719 35.417969 115.527344 33.492188 C 113.414062 31.375 110.824219 30.316406 107.753906 30.316406 L 107.464844 30.316406 M 64 0 C 91.441406 0 107.753906 7.988281 112.933594 23.964844 C 116.773438 25.121094 119.84375 27.238281 122.144531 30.316406 C 124.449219 33.589844 125.601562 37.148438 125.601562 41 L 126.75 52.261719 L 127.902344 60.632812 C 127.902344 63.519531 126.945312 66.023438 125.023438 68.140625 C 122.914062 70.066406 120.515625 71.027344 117.828125 71.027344 L 115.238281 71.027344 L 115.238281 73.625 C 115.238281 75.9375 114.375 77.957031 112.648438 79.691406 C 110.917969 81.230469 108.90625 82 106.601562 82 L 94.511719 82 C 92.210938 82 90.289062 81.230469 88.753906 79.691406 C 87.027344 77.957031 86.164062 75.9375 86.164062 73.625 L 86.164062 71.027344 L 41.835938 71.027344 L 41.835938 73.625 C 41.835938 75.9375 40.972656 77.957031 39.246094 79.691406 C 37.710938 81.230469 35.789062 82 33.488281 82 L 21.398438 82 C 19.09375 82 17.082031 81.230469 15.351562 79.691406 C 13.625 77.957031 12.761719 75.9375 12.761719 73.625 L 12.761719 71.027344 L 10.171875 71.027344 C 7.484375 71.027344 5.183594 70.066406 3.261719 68.140625 C 1.152344 66.023438 0.0976562 63.519531 0.0976562 60.632812 L 0.960938 52.261719 L 2.398438 41 C 2.398438 37.148438 3.550781 33.589844 5.855469 30.316406 C 8.15625 27.238281 11.226562 25.121094 15.066406 23.964844 C 17.367188 17.421875 21.78125 12.222656 28.304688 8.375 C 36.941406 2.792969 48.839844 0 64 0 "/>
</g>
</svg>
