<?xml version="1.0" encoding="UTF-8"?>
<svg xmlns="http://www.w3.org/2000/svg" xmlns:xlink="http://www.w3.org/1999/xlink" width="128pt" height="121pt" viewBox="0 0 128 121" version="1.1">
<g id="surface1">
<path style=" stroke:none;fill-rule:nonzero;fill:rgb(100%,100%,100%);fill-opacity:1;" d="M 84.828125 27.378906 L 89.523438 30.324219 L 83.65625 37.683594 L 89.523438 60.058594 L 82.773438 66.242188 L 82.773438 51.226562 L 77.789062 50.046875 L 66.054688 36.800781 L 64.292969 26.789062 L 70.160156 21.195312 L 62.53125 10.597656 L 51.972656 25.023438 L 50.796875 7.066406 L 27.917969 15.601562 L 28.210938 21.195312 L 46.105469 15.898438 L 47.277344 31.5 L 36.128906 46.515625 L 42.292969 46.515625 L 42.292969 55.054688 L 31.730469 64.472656 L 34.371094 78.3125 L 26.15625 82.726562 L 18.527344 76.25 L 8.261719 85.671875 L 14.714844 85.671875 L 14.714844 113.933594 L 120.914062 113.933594 L 120.914062 84.492188 L 110.644531 84.492188 L 110.644531 90.675781 L 103.3125 90.675781 L 103.3125 75.660156 L 110.644531 75.660156 L 113.871094 61.824219 L 100.964844 49.460938 L 95.683594 54.464844 L 91.578125 39.449219 L 95.683594 34.445312 L 109.765625 43.277344 L 113.578125 37.09375 L 100.082031 28.558594 L 110.058594 15.601562 L 104.484375 11.1875 L 93.921875 24.433594 L 88.9375 21.195312 L 84.828125 27.378906 M 108.589844 5.59375 L 114.457031 10.007812 L 117.097656 14.71875 C 117.488281 16.683594 117 18.449219 115.632812 20.019531 L 110.351562 26.789062 L 117.390625 31.5 L 120.324219 35.917969 L 119.445312 41.214844 L 115.339844 47.398438 L 111.816406 50.046875 L 118.859375 56.527344 C 120.816406 58.488281 121.402344 60.746094 120.621094 63.296875 L 117.6875 77.132812 L 117.6875 77.429688 L 120.914062 77.429688 C 122.867188 77.429688 124.53125 78.113281 125.898438 79.488281 C 127.269531 80.863281 127.953125 82.53125 127.953125 84.492188 L 127.953125 113.933594 L 125.898438 118.9375 C 124.53125 120.3125 122.867188 121 120.914062 121 L 14.714844 121 C 12.5625 121 10.804688 120.3125 9.433594 118.9375 L 7.675781 113.933594 L 7.675781 92.738281 C 4.742188 92.34375 2.785156 90.773438 1.808594 88.027344 C 0.632812 85.082031 1.21875 82.53125 3.566406 80.371094 L 14.128906 70.953125 C 15.496094 69.773438 16.964844 69.183594 18.527344 69.183594 C 20.484375 69.183594 22.050781 69.773438 23.222656 70.953125 L 26.449219 73.304688 L 24.984375 65.945312 C 24.394531 63.199219 25.082031 60.941406 27.035156 59.175781 L 34.078125 53.285156 C 32.121094 52.503906 30.753906 51.324219 29.96875 49.753906 C 28.796875 47.007812 28.992188 44.554688 30.554688 42.394531 L 40.238281 29.441406 L 39.652344 25.320312 L 30.261719 27.96875 L 28.210938 28.261719 L 24.394531 27.085938 C 22.636719 25.710938 21.558594 23.945312 21.167969 21.785156 L 20.875 15.898438 C 20.484375 12.363281 22.050781 10.007812 25.570312 8.832031 L 48.453125 0.589844 L 50.796875 0 L 54.613281 1.472656 C 56.371094 2.453125 57.449219 3.925781 57.839844 5.886719 C 59.011719 4.316406 60.578125 3.53125 62.53125 3.53125 C 64.878906 3.53125 66.835938 4.613281 68.402344 6.769531 L 75.734375 16.78125 L 77.203125 21.785156 C 77.203125 23.550781 76.515625 25.023438 75.148438 26.203125 L 71.921875 29.144531 L 72.800781 33.5625 L 76.613281 38.273438 L 78.082031 33.5625 L 79.253906 32.089844 L 79.253906 31.796875 C 77.105469 29.242188 77.003906 26.496094 78.960938 23.550781 L 82.773438 17.371094 C 84.339844 15.210938 86.394531 14.132812 88.9375 14.132812 L 92.457031 15.015625 L 98.617188 6.769531 C 99.789062 5.199219 101.453125 4.316406 103.605469 4.121094 L 104.484375 4.121094 L 108.589844 5.59375 "/>
</g>
</svg>
