<?xml version="1.0" encoding="UTF-8"?>
<svg xmlns="http://www.w3.org/2000/svg" xmlns:xlink="http://www.w3.org/1999/xlink" width="128pt" height="134pt" viewBox="0 0 128 134" version="1.1">
<g id="surface1">
<path style=" stroke:none;fill-rule:nonzero;fill:rgb(100%,100%,100%);fill-opacity:1;" d="M 88.75 7.242188 L 85.128906 7.242188 L 73.960938 40.742188 L 73.960938 72.433594 L 23.855469 72.433594 L 8.460938 89.332031 L 12.6875 89.332031 L 12.6875 126.757812 L 114.410156 126.757812 L 114.410156 89.332031 L 119.539062 89.332031 L 104.449219 72.433594 L 99.617188 72.433594 L 99.617188 40.742188 L 88.75 7.242188 M 78.1875 5.128906 C 79.191406 1.910156 81.507812 0.203125 85.128906 0 L 88.75 0 C 91.972656 0 94.183594 1.609375 95.390625 4.828125 L 106.5625 38.328125 L 106.863281 40.742188 L 106.863281 65.492188 L 109.882812 67.605469 L 124.972656 84.503906 C 126.984375 86.71875 127.386719 89.332031 126.179688 92.351562 L 121.652344 96.273438 L 121.652344 126.757812 L 119.539062 131.886719 C 118.332031 133.296875 116.621094 134 114.410156 134 L 12.6875 134 L 7.554688 131.886719 C 6.144531 130.480469 5.441406 128.769531 5.441406 126.757812 L 5.441406 95.972656 L 1.820312 92.050781 C 0.613281 89.433594 1.015625 86.917969 3.027344 84.503906 L 18.722656 67.605469 C 20.132812 65.992188 21.84375 65.1875 23.855469 65.1875 L 66.714844 65.1875 L 66.714844 40.742188 L 67.019531 38.628906 L 78.1875 5.128906 "/>
</g>
</svg>
