<?xml version="1.0" encoding="UTF-8"?>
<svg xmlns="http://www.w3.org/2000/svg" xmlns:xlink="http://www.w3.org/1999/xlink" width="128pt" height="173pt" viewBox="0 0 128 173" version="1.1">
<g id="surface1">
<path style=" stroke:none;fill-rule:nonzero;fill:rgb(100%,100%,100%);fill-opacity:1;" d="M 72.414062 19.886719 L 63.804688 9.367188 L 55.585938 19.886719 L 41.882812 133.246094 C 27.269531 138.960938 16.832031 149.089844 10.570312 163.632812 L 117.429688 163.632812 C 110.90625 149.089844 100.339844 138.960938 85.726562 133.246094 L 72.414062 19.886719 M 63.804688 0.0195312 C 66.9375 0.0195312 69.414062 1.1875 71.242188 3.523438 L 79.851562 14.042969 L 81.808594 18.71875 L 94.726562 127.015625 C 109.082031 134.027344 119.519531 144.933594 126.042969 159.738281 C 127.347656 162.851562 127.085938 165.839844 125.261719 168.695312 C 123.433594 171.554688 120.824219 172.980469 117.429688 172.980469 L 10.570312 172.980469 C 7.175781 172.980469 4.4375 171.554688 2.347656 168.695312 C 0.78125 165.839844 0.652344 162.851562 1.957031 159.738281 C 8.21875 144.933594 18.660156 134.027344 33.273438 127.015625 L 46.191406 18.71875 L 48.148438 14.042969 L 56.367188 3.523438 C 58.453125 1.1875 60.933594 0.0195312 63.804688 0.0195312 "/>
</g>
</svg>
