<?xml version="1.0" encoding="UTF-8"?>
<svg xmlns="http://www.w3.org/2000/svg" xmlns:xlink="http://www.w3.org/1999/xlink" width="128pt" height="98pt" viewBox="0 0 128 98" version="1.1">
<g id="surface1">
<path style=" stroke:none;fill-rule:nonzero;fill:rgb(100%,100%,100%);fill-opacity:1;" d="M 91.011719 27.402344 L 73.324219 15.152344 L 64.320312 7.738281 L 54.355469 14.828125 L 35.703125 27.078125 C 27.773438 31.59375 18.554688 35.566406 8.050781 39.007812 L 7.730469 90.261719 L 120.269531 90.261719 L 120.269531 39.007812 C 108.695312 35.566406 98.941406 31.699219 91.011719 27.402344 M 94.546875 20.308594 C 102.050781 24.390625 111.375 28.261719 122.519531 31.914062 C 126.164062 32.988281 127.988281 35.351562 127.988281 39.007812 L 127.988281 90.261719 C 127.988281 92.414062 127.128906 94.238281 125.414062 95.742188 L 120.269531 98 L 7.730469 98 L 2.585938 95.742188 C 0.871094 94.453125 0.0117188 92.628906 0.0117188 90.261719 L 0.332031 39.007812 C 0.332031 35.136719 2.046875 32.773438 5.480469 31.914062 C 15.769531 28.476562 24.558594 24.609375 31.84375 20.308594 L 49.851562 8.382812 L 59.820312 1.289062 L 64.320312 0 L 69.464844 1.933594 L 78.148438 9.027344 C 84.578125 14.183594 90.046875 17.945312 94.546875 20.308594 "/>
</g>
</svg>
