<?xml version="1.0" encoding="UTF-8" standalone="no"?>
<svg
   xmlns:dc="http://purl.org/dc/elements/1.1/"
   xmlns:cc="http://creativecommons.org/ns#"
   xmlns:rdf="http://www.w3.org/1999/02/22-rdf-syntax-ns#"
   xmlns:svg="http://www.w3.org/2000/svg"
   xmlns="http://www.w3.org/2000/svg"
   xmlns:sodipodi="http://sodipodi.sourceforge.net/DTD/sodipodi-0.dtd"
   xmlns:inkscape="http://www.inkscape.org/namespaces/inkscape"
   width="128pt"
   height="164pt"
   viewBox="0 0 128 164"
   version="1.1"
   id="svg5"
   sodipodi:docname="icon_24.svg"
   inkscape:version="0.92.1 r15371">
  <metadata
     id="metadata11">
    <rdf:RDF>
      <cc:Work
         rdf:about="">
        <dc:format>image/svg+xml</dc:format>
        <dc:type
           rdf:resource="http://purl.org/dc/dcmitype/StillImage" />
      </cc:Work>
    </rdf:RDF>
  </metadata>
  <defs
     id="defs9" />
  <sodipodi:namedview
     pagecolor="#ffffff"
     bordercolor="#666666"
     borderopacity="1"
     objecttolerance="10"
     gridtolerance="10"
     guidetolerance="10"
     inkscape:pageopacity="0"
     inkscape:pageshadow="2"
     inkscape:window-width="836"
     inkscape:window-height="480"
     id="namedview7"
     showgrid="false"
     inkscape:zoom="1.0792683"
     inkscape:cx="85.333333"
     inkscape:cy="109.33333"
     inkscape:window-x="0"
     inkscape:window-y="0"
     inkscape:window-maximized="0"
     inkscape:current-layer="surface1" />
  <g
     id="surface1">
    <path
       style="fill:#00ff00;fill-opacity:1;fill-rule:nonzero;stroke:none"
       d="m 64.554688,124.84766 5.195312,-1.47657 2.59375,0.73829 h 18.171875 v 13.29687 H 71.230469 l -3.335938,2.21484 v -0.36718 l -2.597656,-2.95704 1.484375,-4.0625 2.96875,1.10938 h 16.316406 v -5.17188 H 69.007812 L 54.542969,131.125 c 0.496093,-0.49219 1.113281,-3.9375 1.855469,-10.33984 0.742187,0.49218 1.234374,2.21484 1.480468,5.16797 l 1.855469,0.74218 4.820313,-1.84765 m 0.371093,-48.757816 c 0.992188,0 1.484375,1.355468 1.484375,4.0625 l 1.484375,4.433594 c 0.492188,2.953124 -0.371093,5.417968 -2.597656,7.386718 -4.449219,3.941406 -10.753906,5.910156 -18.914063,5.910156 h -0.742187 c -3.210937,-0.246093 -6.550781,-1.601562 -10.011719,-4.0625 l -0.371094,-0.371093 -4.078124,-5.539063 c -0.742188,-2.707031 -0.25,-5.171875 1.480468,-7.386718 l 2.96875,-2.957032 H 34.515625 L 33.402344,77.9375 30.4375,78.304688 c -1.980469,0 -2.226562,-0.492188 -0.742188,-1.476563 l 4.449219,-2.214844 4.453125,-1.476562 2.964844,0.738281 5.933594,0.738281 17.058594,1.476563 h 0.371093 M 75.3125,9.234375 70.859375,8.863281 56.769531,10.710938 50.835938,12.558594 c -7.914063,3.695312 -14.09375,8.617187 -18.542969,14.773437 l -5.9375,10.714844 -4.449219,14.773437 -1.113281,9.234376 v 13.667968 l 2.226562,15.511719 7.789063,25.117185 6.675781,10.71094 c 2.964844,4.1875 4.820313,7.75781 5.5625,10.71094 1.234375,4.43359 3.707031,8.49609 7.417969,12.1914 l 6.304687,4.80078 13.351563,0.3711 h 1.109375 l 3.339843,-6.28125 0.742188,6.28125 17.058594,-0.3711 3.335937,-3.32421 2.597657,-9.97266 c 0.246093,-3.69531 2.226562,-9.35938 5.933592,-16.99219 3.46094,-7.14062 6.42969,-11.9414 8.90235,-14.40625 1.73046,-1.47656 2.22265,-5.41406 1.48046,-11.816404 l -0.36718,-1.109375 h -1.85547 c -2.96875,2.953129 -6.55078,4.433599 -10.75391,4.433599 -3.95703,0 -7.417968,-1.23438 -10.386718,-3.695318 L 86.808594,118.9375 H 72.34375 l -3.335938,-1.84766 -2.96875,-1.47656 -2.59375,1.10938 -3.339843,-1.84766 0.742187,-3.32422 2.226563,-1.48047 0.371093,0.3711 c -1.484374,1.23047 -1.855468,2.70703 -1.113281,4.43359 0.492188,-0.98437 1.484375,-1.48047 2.964844,-1.48047 h 1.484375 c 1.730469,2.21875 4.203125,3.32813 7.417969,3.32813 l 4.820312,-2.58594 V 86.800781 c 0,-7.386719 4.078125,-12.066406 12.238281,-14.035156 L 112.39844,71.65625 h 6.30469 l -0.3711,-14.773438 C 117.09375,48.265625 114.62109,40.753906 110.91406,34.351562 107.20703,27.457031 99.789062,22.777344 88.664062,20.316406 l 0.371094,39.519532 -2.226562,5.910156 c -1.730469,1.480468 -3.585938,2.21875 -5.5625,2.21875 H 74.941406 L 75.3125,9.234375 m 43.39063,21.054687 2.59375,4.800782 c 2.96875,6.402344 4.94531,13.296875 5.93359,20.683594 l 0.74219,8.496093 v 4.800781 l -1.10938,5.910157 c -0.99219,2.710937 -2.84375,4.558593 -5.5664,5.542969 h -3.33594 l 0.74219,4.0625 -0.74219,4.800781 3.33594,2.585937 0.74218,0.738282 1.48438,4.433593 v 0.738281 l 0.37109,9.234378 -2.59765,7.01953 -2.22266,2.58594 c -1.73047,1.47656 -4.08203,5.41406 -7.04688,11.8164 -3.21484,6.40235 -4.82031,10.83594 -4.82031,13.29688 -0.25,6.15625 -1.73047,11.45312 -4.45312,15.88672 -2.71875,3.9375 -6.054691,5.90625 -10.011722,5.90625 L 75.3125,164 73.457031,163.62891 71.230469,164 H 70.121094 L 54.542969,163.26172 43.046875,155.50391 C 38.84375,150.57812 36,145.41016 34.515625,139.99219 l -5.5625,-9.60547 -6.304687,-9.97266 -0.371094,-1.10937 h -3.335938 l -5.5625,-1.47656 -3.339844,-4.4336 L 7.8125,110.07031 C 3.609375,105.88672 1.015625,99.851562 0.0273438,91.972656 V 77.199219 C 0.519531,74.488281 2.003906,72.273438 4.476562,70.550781 h 0.371094 l 7.046875,-2.585937 1.113281,-16.621094 4.820313,-16.992188 7.417969,-12.558593 c 5.4375,-7.386719 12.855468,-13.050781 22.25,-16.992188 V 4.433594 L 54.542969,2.214844 70.859375,0 71.972656,0.371094 H 75.3125 c 2.472656,0 4.449219,0.859375 5.933594,2.582031 1.976562,1.726563 2.964844,3.820313 2.964844,6.28125 v 3.695313 l 4.453124,-1.480469 2.222657,0.371093 c 13.597661,2.953126 22.871091,9.109376 27.816411,18.46875"
       id="path2"
       inkscape:connector-curvature="0" />
  </g>
</svg>
