<?xml version="1.0" encoding="UTF-8"?>
<svg xmlns="http://www.w3.org/2000/svg" xmlns:xlink="http://www.w3.org/1999/xlink" width="128pt" height="126pt" viewBox="0 0 128 126" version="1.1">
<g id="surface1">
<path style=" stroke:none;fill-rule:nonzero;fill:rgb(100%,100%,100%);fill-opacity:1;" d="M 95.433594 96.472656 L 100.53125 96.472656 L 100.53125 104.984375 L 103.644531 104.984375 L 103.644531 96.757812 C 105.910156 97.324219 107.894531 98.175781 109.59375 99.308594 L 111.859375 103.566406 C 111.859375 107.347656 107.515625 109.710938 98.832031 110.65625 L 92.320312 110.941406 C 83.824219 110.941406 79.574219 108.859375 79.574219 104.699219 C 79.574219 99.214844 84.863281 96.472656 95.433594 96.472656 M 67.964844 31.511719 L 69.664062 31.511719 L 69.664062 29.527344 L 42.476562 18.746094 L 15.859375 29.527344 L 15.859375 31.511719 L 17.558594 31.511719 L 17.558594 32.929688 L 22.65625 32.929688 L 22.65625 46.261719 L 18.691406 46.261719 L 18.691406 55.339844 L 41.910156 52.503906 L 66.832031 55.625 L 66.832031 46.261719 L 62.867188 46.261719 L 62.867188 32.929688 L 67.964844 32.929688 L 67.964844 31.511719 M 110.160156 6.832031 L 110.441406 7.117188 L 110.441406 86.261719 C 117.425781 88.152344 122.148438 91.460938 124.601562 96.191406 C 126.867188 100.917969 126.394531 106.117188 123.1875 111.792969 C 120.921875 116.332031 115.730469 119.828125 107.609375 122.289062 L 88.070312 125.691406 L 72.496094 125.976562 C 54.9375 125.976562 39.175781 123.421875 25.203125 118.316406 C 18.40625 115.855469 12.742188 112.546875 8.210938 108.386719 C 2.925781 103.660156 0.1875 98.554688 0 93.070312 C 0 83.425781 7.644531 75.480469 22.9375 69.242188 C 31.433594 65.835938 39.835938 64.132812 48.140625 64.132812 C 57.957031 64.132812 67.398438 66.5 76.460938 71.226562 C 81.933594 74.0625 86.277344 77.089844 89.488281 80.304688 L 89.769531 80.304688 L 90.902344 81.15625 L 93.734375 82.855469 L 93.734375 32.078125 L 75.328125 26.121094 L 76.460938 29.527344 L 76.460938 31.511719 C 76.460938 34.160156 75.328125 36.144531 73.0625 37.46875 L 69.664062 39.738281 L 69.664062 40.304688 C 72.308594 41.441406 73.628906 43.425781 73.628906 46.261719 L 73.628906 55.625 C 73.628906 57.703125 72.683594 59.5 70.796875 61.015625 L 66.832031 62.433594 L 64.847656 62.148438 L 41.910156 59.3125 L 20.390625 61.867188 L 18.691406 62.148438 C 16.992188 62.148438 15.574219 61.675781 14.441406 60.730469 C 12.742188 59.40625 11.894531 57.609375 11.894531 55.339844 L 11.894531 46.261719 C 11.894531 43.238281 13.214844 41.15625 15.859375 40.023438 L 15.859375 39.738281 C 14.347656 39.359375 13.027344 38.507812 11.894531 37.1875 C 10.007812 35.671875 9.0625 33.78125 9.0625 31.511719 L 9.0625 29.527344 C 9.0625 26.5 10.476562 24.421875 13.308594 23.285156 L 39.929688 12.507812 L 42.476562 11.9375 L 45.027344 12.507812 L 65.132812 20.734375 L 64.28125 17.328125 L 65.699219 13.359375 L 69.097656 10.804688 L 101.378906 0.308594 L 103.363281 0.0234375 L 107.609375 1.445312 C 109.308594 2.765625 110.160156 4.5625 110.160156 6.832031 M 103.363281 7.117188 L 103.363281 6.832031 L 71.078125 17.328125 L 100.53125 27.542969 L 100.53125 91.082031 L 96 90.515625 C 93.167969 90.136719 90.523438 89.097656 88.070312 87.394531 L 84.957031 85.125 C 74.195312 75.671875 61.921875 70.941406 48.140625 70.941406 C 40.777344 70.941406 33.226562 72.457031 25.488281 75.480469 C 10.761719 81.53125 4.8125 88.4375 7.644531 96.191406 C 9.910156 102.808594 16.519531 108.007812 27.46875 111.792969 C 40.875 116.707031 55.882812 119.167969 72.496094 119.167969 L 87.789062 118.882812 L 106.761719 115.480469 C 112.425781 113.398438 115.917969 111.128906 117.238281 108.671875 C 120.070312 103.375 119.691406 99.214844 116.105469 96.191406 C 113.652344 94.296875 109.5 92.691406 103.644531 91.367188 L 103.644531 7.117188 L 103.363281 7.117188 "/>
</g>
</svg>
