<?xml version="1.0" encoding="UTF-8" standalone="no"?>
<svg
   xmlns:dc="http://purl.org/dc/elements/1.1/"
   xmlns:cc="http://creativecommons.org/ns#"
   xmlns:rdf="http://www.w3.org/1999/02/22-rdf-syntax-ns#"
   xmlns:svg="http://www.w3.org/2000/svg"
   xmlns="http://www.w3.org/2000/svg"
   xmlns:sodipodi="http://sodipodi.sourceforge.net/DTD/sodipodi-0.dtd"
   xmlns:inkscape="http://www.inkscape.org/namespaces/inkscape"
   width="128pt"
   height="74pt"
   viewBox="0 0 128 74"
   version="1.1"
   id="svg5"
   sodipodi:docname="icon_80.svg"
   inkscape:version="0.92.1 r15371">
  <metadata
     id="metadata11">
    <rdf:RDF>
      <cc:Work
         rdf:about="">
        <dc:format>image/svg+xml</dc:format>
        <dc:type
           rdf:resource="http://purl.org/dc/dcmitype/StillImage" />
      </cc:Work>
    </rdf:RDF>
  </metadata>
  <defs
     id="defs9" />
  <sodipodi:namedview
     pagecolor="#ffffff"
     bordercolor="#666666"
     borderopacity="1"
     objecttolerance="10"
     gridtolerance="10"
     guidetolerance="10"
     inkscape:pageopacity="0"
     inkscape:pageshadow="2"
     inkscape:window-width="836"
     inkscape:window-height="480"
     id="namedview7"
     showgrid="false"
     inkscape:zoom="2.1328125"
     inkscape:cx="85.333333"
     inkscape:cy="49.333333"
     inkscape:window-x="0"
     inkscape:window-y="0"
     inkscape:window-maximized="0"
     inkscape:current-layer="surface1" />
  <g
     id="surface1">
    <path
       style="fill:#00ff00;fill-opacity:1;fill-rule:nonzero;stroke:none"
       d="m 104.89453,12.882812 c -2.19531,0 -4.39453,1.796876 -6.589842,5.390626 -6.191407,-3.59375 -13.78125,-6.390626 -22.769532,-8.386719 L 52.164062,6.589844 c -9.585937,0 -18.074218,1.898437 -25.464843,5.695312 -7.1875,3.992188 -11.78125,8.984375 -13.78125,14.976563 -3.992188,1 -5.992188,2.796875 -5.992188,5.394531 0,2.394531 2,4.195312 5.992188,5.390625 2.597656,7.390625 8.890625,12.984375 18.875,16.777344 l 2.996093,6.292969 2.097657,4.792968 3.296875,1.199219 h 26.0625 c 1.398437,0 2.695312,-0.699219 3.894531,-2.097656 l 1.5,-3.894531 V 56.625 C 82.625,54.425781 91.8125,51.332031 99.203125,47.335938 c 1.597655,2.597656 3.496095,3.894531 5.691405,3.894531 h 0.59766 c 4.59375,-0.199219 9.1875,-2.597657 13.78125,-7.191407 -3.59375,-0.199218 -7.08985,-1.796874 -10.48438,-4.792968 l 1.5,-3.292969 c 7.1875,-0.203125 10.78516,-1.300781 10.78516,-3.296875 0,-1.996094 -3.69531,-3.195312 -11.08594,-3.59375 l -2.09765,-3.296875 7.48828,-4.792969 3.89453,-0.601562 c -4.59375,-4.59375 -9.1875,-7.089844 -13.78125,-7.488282 h -0.59766 m 13.1836,-2.398437 5.99218,4.796875 c 1.9961,2.195312 2.4961,4.691406 1.4961,7.488281 l -1.79688,2.695313 c 2.79688,1.597656 4.19531,3.996094 4.19531,7.191406 0,2.796875 -1.19921,5.09375 -3.59765,6.890625 l 1.19922,2.097656 c 1,2.796875 0.5,5.191407 -1.4961,7.191407 -5.79297,5.589843 -11.88672,8.6875 -18.27734,9.285156 h -0.89844 c -2.59765,0 -4.992186,-0.796875 -7.191405,-2.394532 l -18.875,5.988282 C 78.628906,65.3125 77.230469,68.308594 74.636719,70.703125 72.238281,72.902344 69.441406,74 66.246094,74 h -26.0625 c -3.597656,0 -6.394532,-1.199219 -8.390625,-3.59375 l -3.59375,-6.59375 -1.5,-3.894531 C 17.511719,56.125 11.023438,50.632812 7.226562,43.441406 2.433594,40.84375 0.0351562,37.25 0.0351562,32.65625 c 0,-4.792969 2.3984378,-8.390625 7.1914058,-10.785156 C 10.820312,15.078125 16.613281,9.6875 24.601562,5.691406 32.792969,1.898438 41.980469,0 52.164062,0 l 22.171876,2.398438 c 8.1875,1.796874 15.578124,4.191406 22.171874,7.1875 2.394532,-2.394532 5.191408,-3.59375 8.386718,-3.59375 h 0.89844 c 4.19531,0.398437 8.28906,1.898437 12.28516,4.492187"
       id="path2"
       inkscape:connector-curvature="0" />
  </g>
</svg>
