<?xml version="1.0" encoding="UTF-8"?>
<svg xmlns="http://www.w3.org/2000/svg" xmlns:xlink="http://www.w3.org/1999/xlink" width="128pt" height="77pt" viewBox="0 0 128 77" version="1.1">
<g id="surface1">
<path style=" stroke:none;fill-rule:nonzero;fill:rgb(100%,100%,100%);fill-opacity:1;" d="M 22.835938 18.066406 L 57.089844 18.066406 L 57.089844 29.183594 L 22.835938 29.183594 L 22.835938 18.066406 M 120.1875 4.546875 C 123.191406 7.351562 124.695312 10.855469 124.695312 15.0625 L 128 76.960938 L 0 76.960938 L 3.605469 15.0625 C 3.605469 10.855469 5.109375 7.351562 8.113281 4.546875 C 11.117188 1.542969 14.621094 0.0390625 18.628906 0.0390625 L 109.371094 0.0390625 C 113.578125 0.0390625 117.183594 1.542969 120.1875 4.546875 M 115.378906 9.355469 C 113.777344 7.753906 111.773438 6.949219 109.371094 6.949219 L 18.628906 6.949219 C 16.425781 6.949219 14.421875 7.753906 12.621094 9.355469 C 11.015625 10.957031 10.214844 12.859375 10.214844 15.0625 L 7.210938 70.351562 L 92.84375 70.351562 L 92.84375 55.328125 L 102.761719 55.328125 L 102.761719 70.351562 L 120.789062 70.351562 L 117.785156 15.0625 C 117.785156 12.859375 116.984375 10.957031 115.378906 9.355469 M 70.007812 18.066406 L 104.5625 18.066406 L 104.5625 29.183594 L 70.007812 29.183594 L 70.007812 18.066406 "/>
</g>
</svg>
