<?xml version="1.0" encoding="UTF-8" standalone="no"?>
<svg
   xmlns:dc="http://purl.org/dc/elements/1.1/"
   xmlns:cc="http://creativecommons.org/ns#"
   xmlns:rdf="http://www.w3.org/1999/02/22-rdf-syntax-ns#"
   xmlns:svg="http://www.w3.org/2000/svg"
   xmlns="http://www.w3.org/2000/svg"
   xmlns:sodipodi="http://sodipodi.sourceforge.net/DTD/sodipodi-0.dtd"
   xmlns:inkscape="http://www.inkscape.org/namespaces/inkscape"
   width="128pt"
   height="162pt"
   viewBox="0 0 128 162"
   version="1.1"
   id="svg5"
   sodipodi:docname="icon_60.svg"
   inkscape:version="0.92.1 r15371">
  <metadata
     id="metadata11">
    <rdf:RDF>
      <cc:Work
         rdf:about="">
        <dc:format>image/svg+xml</dc:format>
        <dc:type
           rdf:resource="http://purl.org/dc/dcmitype/StillImage" />
      </cc:Work>
    </rdf:RDF>
  </metadata>
  <defs
     id="defs9" />
  <sodipodi:namedview
     pagecolor="#ffffff"
     bordercolor="#666666"
     borderopacity="1"
     objecttolerance="10"
     gridtolerance="10"
     guidetolerance="10"
     inkscape:pageopacity="0"
     inkscape:pageshadow="2"
     inkscape:window-width="836"
     inkscape:window-height="480"
     id="namedview7"
     showgrid="false"
     inkscape:zoom="1.0925926"
     inkscape:cx="85.333333"
     inkscape:cy="108"
     inkscape:window-x="0"
     inkscape:window-y="0"
     inkscape:window-maximized="0"
     inkscape:current-layer="surface1" />
  <g
     id="surface1">
    <path
       style="fill:#00ff00;fill-opacity:1;fill-rule:nonzero;stroke:none"
       d="m 31.246094,119.88672 -0.378906,2.65625 h 0.378906 v -2.65625 M 84.945312,61.082031 h 9.140626 l 1.523437,5.3125 9.140625,55.390629 c 0.50781,2.78125 -0.125,5.05859 -1.90234,6.82812 -1.26953,1.76953 -3.300785,2.65625 -6.093754,2.65625 H 87.230469 V 119.50781 H 71.234375 V 118.75 l -2.285156,-5.69141 c -1.777344,-1.51953 -3.679688,-2.27734 -5.710938,-2.27734 l -5.710937,2.27734 -2.285156,5.69141 v 0.75781 H 40.007812 v 11.76172 h -9.902343 c -2.539063,0 -4.570313,-0.88672 -6.09375,-2.65625 -1.777344,-1.76953 -2.414063,-4.04687 -1.90625,-6.82812 l 9.140625,-55.390629 1.90625,-5.3125 h 9.519531 V 67.53125 H 84.945312 V 61.082031 M 95.609375,28.074219 H 76.566406 c -0.507812,-5.058594 -2.03125,-9.609375 -4.570312,-13.65625 L 63.238281,8.726562 c -3.046875,0 -5.964843,1.894532 -8.757812,5.691407 -2.539063,3.792969 -4.191407,8.34375 -4.953125,13.65625 H 31.628906 v 5.691406 h 4.570313 v 10.625 c -3.554688,1.261719 -6.347657,2.90625 -8.378907,4.929687 -4.570312,4.046876 -7.363281,9.105469 -8.378906,15.175782 l -8.757812,55.769536 c -1.015625,6.57812 0.507812,12.01562 4.570312,16.3164 l 7.613282,5.69141 v 11 h 81.121092 v -11 l 8.37891,-5.69141 c 4.0625,-4.55469 5.58594,-9.99219 4.57031,-16.3164 l -9.14062,-55.769536 c -0.76172,-6.324219 -3.55469,-11.382813 -8.378911,-15.175782 l -7.996094,-4.929687 v -10.625 h 4.1875 V 28.074219 M 75.425781,5.3125 c 3.808594,3.539062 6.601563,8.21875 8.378907,14.035156 h 20.183592 v 22.386719 l 1.14453,1.136719 c 6.34766,5.3125 10.15235,12.140625 11.42188,20.488281 l 9.14062,55.769535 c 1.52344,8.59765 -0.76172,16.3125 -6.85547,23.14453 l -6.09375,4.92968 V 162 H 14.492188 v -14.79688 l -6.09375,-4.92968 C 2.8125,135.94922 0.652344,128.10937 1.921875,118.75 L 11.0625,63.738281 c 1.015625,-8.851562 4.699219,-15.808593 11.042969,-20.867187 l 0.761719,-1.136719 V 19.347656 H 43.433594 C 44.957031,13.53125 47.496094,8.851562 51.050781,5.3125 54.859375,1.769531 58.921875,0 63.238281,0 c 4.570313,0 8.632813,1.769531 12.1875,5.3125"
       id="path2"
       inkscape:connector-curvature="0" />
  </g>
</svg>
