<?xml version="1.0" encoding="UTF-8"?>
<svg xmlns="http://www.w3.org/2000/svg" xmlns:xlink="http://www.w3.org/1999/xlink" width="128pt" height="123pt" viewBox="0 0 128 123" version="1.1">
<g id="surface1">
<path style=" stroke:none;fill-rule:nonzero;fill:rgb(100%,100%,100%);fill-opacity:1;" d="M 68.113281 47.15625 L 65.84375 46.019531 L 64.140625 46.585938 C 65.277344 44.882812 65.085938 43.460938 63.574219 42.324219 L 63.289062 42.324219 C 59.886719 42.324219 54.402344 44.976562 46.835938 50.28125 C 37.382812 56.71875 31.707031 63.726562 29.816406 71.300781 C 29.0625 74.140625 26.980469 75.5625 23.578125 75.5625 L 17.050781 73.003906 C 15.160156 70.921875 14.59375 68.269531 15.351562 65.050781 C 16.863281 61.074219 20.078125 57.382812 24.996094 53.972656 L 45.136719 38.066406 C 50.621094 32.761719 53.550781 27.839844 53.929688 23.292969 C 54.308594 19.316406 52.699219 15.625 49.105469 12.214844 C 45.703125 8.617188 41.257812 6.816406 35.773438 6.816406 L 26.980469 8.523438 C 24.144531 9.46875 21.96875 10.792969 20.457031 12.5 L 19.320312 15.625 C 18.753906 17.707031 19.039062 19.128906 20.171875 19.882812 C 21.308594 20.640625 21.023438 22.347656 19.320312 24.996094 L 17.621094 29.542969 L 17.902344 29.542969 C 19.414062 29.542969 22.347656 26.605469 26.695312 20.738281 L 30.667969 17.613281 C 33.695312 15.527344 36.53125 14.488281 39.179688 14.488281 C 41.257812 14.488281 43.148438 15.246094 44.851562 16.761719 C 46.933594 18.84375 47.785156 20.832031 47.40625 22.726562 C 47.214844 25.945312 44.378906 30.015625 38.894531 34.941406 C 35.300781 38.160156 29.34375 42.703125 21.023438 48.574219 C 16.105469 51.984375 12.511719 55.867188 10.242188 60.222656 C 7.972656 64.578125 7.21875 69.121094 7.972656 73.855469 C 9.109375 80.296875 12.703125 86.070312 18.753906 91.183594 L 26.128906 97.433594 C 22.726562 98.570312 19.984375 100.652344 17.902344 103.683594 L 17.335938 105.105469 L 14.214844 107.660156 L 10.527344 107.660156 L 10.527344 116.183594 L 14.214844 116.183594 C 18.941406 116.183594 22.820312 113.816406 25.847656 109.082031 L 26.128906 108.511719 C 27.265625 106.617188 28.398438 105.578125 29.535156 105.386719 L 33.789062 109.363281 C 38.136719 113.910156 41.921875 116.183594 45.136719 116.183594 C 49.863281 116.183594 53.644531 113.816406 56.484375 109.082031 L 56.765625 108.511719 L 60.453125 105.386719 L 64.992188 109.363281 L 69.816406 113.910156 C 71.894531 115.425781 73.976562 116.183594 76.054688 116.183594 C 80.972656 116.183594 84.753906 113.816406 87.402344 109.082031 L 87.6875 108.511719 L 88.820312 107.09375 C 89.578125 106.144531 90.429688 105.578125 91.375 105.386719 L 95.628906 109.363281 L 100.734375 113.910156 C 102.625 115.425781 104.707031 116.183594 106.976562 116.183594 L 110.378906 116.183594 L 110.378906 107.660156 L 107.261719 107.660156 L 103.003906 103.683594 L 97.046875 99.136719 L 100.453125 96.867188 L 103.855469 93.457031 C 109.53125 88.15625 114.917969 79.066406 120.027344 66.1875 L 87.121094 71.300781 L 84 68.175781 L 83.714844 67.324219 L 81.164062 66.1875 L 79.460938 66.753906 C 80.785156 65.238281 80.878906 63.820312 79.742188 62.496094 C 79.175781 61.546875 78.324219 61.074219 77.191406 61.074219 L 76.054688 61.359375 L 75.773438 61.359375 C 76.90625 60.222656 77 58.894531 76.054688 57.382812 L 73.503906 55.960938 L 72.085938 56.246094 L 72.085938 55.960938 C 73.410156 54.824219 73.410156 53.59375 72.085938 52.269531 L 69.816406 50.847656 L 68.398438 51.414062 L 68.398438 51.132812 C 69.53125 49.617188 69.4375 48.289062 68.113281 47.15625 M 67.828125 37.210938 L 70.382812 40.335938 L 73.21875 42.609375 L 75.207031 45.449219 L 77.757812 48.007812 L 79.175781 50.847656 L 81.730469 53.402344 L 83.148438 56.246094 L 85.417969 58.515625 L 86.550781 61.074219 L 88.820312 62.777344 L 89.390625 63.914062 L 118.890625 59.371094 L 120.027344 59.371094 C 122.296875 59.371094 124.089844 60.222656 125.414062 61.925781 C 127.117188 64.007812 127.402344 66.28125 126.265625 68.742188 L 120.59375 80.957031 C 116.433594 88.722656 112.367188 94.59375 108.394531 98.570312 L 107.828125 99.136719 L 109.53125 100.84375 L 110.378906 100.84375 C 112.460938 100.84375 114.070312 101.503906 115.203125 102.832031 L 117.1875 107.660156 L 117.1875 116.183594 L 115.203125 121.011719 L 110.378906 123 L 106.976562 123 C 102.058594 123 96.953125 120.347656 91.65625 115.046875 C 87.308594 120.347656 82.109375 123 76.054688 123 C 71.140625 123 66.03125 120.347656 60.738281 115.046875 C 56.765625 120.347656 51.566406 123 45.136719 123 C 40.21875 123 35.207031 120.347656 30.101562 115.046875 C 25.941406 120.347656 20.644531 123 14.214844 123 L 10.527344 123 C 8.824219 123 7.21875 122.335938 5.703125 121.011719 C 4.382812 119.6875 3.71875 118.078125 3.71875 116.183594 L 3.71875 107.660156 C 3.71875 105.957031 4.382812 104.347656 5.703125 102.832031 C 7.21875 101.503906 8.824219 100.84375 10.527344 100.84375 L 11.664062 100.84375 L 12.511719 99.992188 L 14.78125 96.867188 L 14.5 96.582031 C 7.125 90.523438 2.679688 83.230469 1.167969 74.710938 C 0.410156 68.839844 1.355469 63.15625 4.003906 57.664062 C 6.839844 51.984375 11.285156 47.058594 17.335938 42.894531 C 32.085938 32.667969 39.839844 25.851562 40.597656 22.441406 L 40.03125 21.589844 L 39.179688 21.304688 C 37.289062 21.304688 34.828125 22.628906 31.804688 25.28125 C 26.320312 32.667969 21.683594 36.359375 17.902344 36.359375 L 15.351562 36.078125 C 13.269531 35.128906 11.757812 33.519531 10.8125 31.246094 C 10.054688 28.785156 10.8125 25.753906 13.082031 22.15625 L 13.363281 21.871094 C 11.472656 18.273438 11.945312 14.015625 14.78125 9.089844 L 15.632812 7.667969 C 18.09375 5.207031 21.117188 3.3125 24.710938 1.988281 L 35.773438 0 C 42.960938 0 49.011719 2.367188 53.929688 7.101562 C 59.035156 12.027344 61.304688 17.613281 60.738281 23.863281 C 60.359375 28.785156 58.277344 33.519531 54.496094 38.066406 L 63.289062 35.507812 L 67.828125 37.210938 "/>
</g>
</svg>
