<?xml version="1.0" encoding="UTF-8"?>
<svg xmlns="http://www.w3.org/2000/svg" xmlns:xlink="http://www.w3.org/1999/xlink" width="128pt" height="121pt" viewBox="0 0 128 121" version="1.1">
<g id="surface1">
<path style=" stroke:none;fill-rule:nonzero;fill:rgb(100%,100%,100%);fill-opacity:1;" d="M 65.441406 12.707031 L 65.441406 6.929688 L 62.558594 6.929688 L 62.558594 12.707031 L 59.675781 15.015625 L 58.523438 16.460938 L 58.523438 27.722656 L 54.488281 27.722656 L 54.488281 39.851562 L 51.320312 39.851562 L 51.320312 48.515625 L 12.703125 48.515625 L 12.703125 39.851562 L 6.9375 39.851562 L 6.9375 114.070312 L 121.0625 114.070312 L 121.0625 39.851562 L 115.585938 39.851562 L 115.585938 48.515625 L 76.679688 48.515625 L 76.679688 39.851562 L 73.796875 39.851562 L 73.796875 27.722656 L 69.765625 27.722656 L 69.765625 16.460938 L 65.441406 12.707031 M 75.527344 12.996094 L 76.679688 16.460938 L 76.679688 21.371094 C 79.371094 22.523438 80.714844 24.644531 80.714844 27.722656 L 80.714844 34.078125 C 82.636719 35.425781 83.597656 37.347656 83.597656 39.851562 L 83.597656 41.585938 L 108.667969 41.585938 L 108.667969 39.851562 C 108.667969 38.121094 109.339844 36.484375 110.6875 34.941406 C 112.03125 33.59375 113.664062 32.921875 115.585938 32.921875 L 121.0625 32.921875 L 125.960938 34.941406 L 127.976562 39.851562 L 127.976562 114.070312 L 125.960938 118.980469 L 121.0625 121 L 6.9375 121 L 2.039062 118.980469 L 0.0234375 114.070312 L 0.0234375 39.851562 L 2.039062 34.941406 L 6.9375 32.921875 L 12.703125 32.921875 C 14.625 32.921875 16.257812 33.59375 17.601562 34.941406 C 18.945312 36.484375 19.621094 38.121094 19.621094 39.851562 L 19.621094 41.585938 L 44.402344 41.585938 L 44.402344 39.851562 C 44.402344 37.347656 45.460938 35.425781 47.574219 34.078125 L 47.574219 27.722656 C 47.574219 24.644531 48.917969 22.523438 51.609375 21.371094 L 51.609375 16.460938 L 52.472656 12.996094 L 55.644531 9.242188 L 55.644531 6.929688 L 57.660156 2.019531 C 59.003906 0.671875 60.636719 0 62.558594 0 L 65.441406 0 L 70.628906 2.019531 L 72.355469 6.929688 L 72.355469 9.242188 L 75.527344 12.996094 "/>
</g>
</svg>
