<?xml version="1.0" encoding="UTF-8"?>
<svg xmlns="http://www.w3.org/2000/svg" xmlns:xlink="http://www.w3.org/1999/xlink" width="127pt" height="126pt" viewBox="0 0 127 126" version="1.1">
<g id="surface1">
<path style=" stroke:none;fill-rule:nonzero;fill:rgb(100%,100%,100%);fill-opacity:1;" d="M 92.847656 13.90625 C 106.015625 4.636719 114.574219 0 118.523438 0 L 123.320312 1.703125 L 124.449219 2.554688 C 126.140625 4.636719 126.519531 7.1875 125.578125 10.214844 C 124.261719 14.378906 120.214844 21.378906 113.445312 31.214844 C 104.226562 44.460938 95.480469 54.863281 87.203125 62.433594 L 81.558594 67.257812 L 75.632812 72.648438 C 69.238281 78.890625 65.664062 84.851562 64.910156 90.527344 L 71.964844 86.835938 L 74.503906 86.269531 C 76.199219 86.269531 77.796875 86.933594 79.300781 88.257812 C 81.371094 90.335938 81.839844 92.796875 80.710938 95.636719 C 78.644531 101.3125 74.691406 107.175781 68.859375 113.230469 C 62.464844 120.039062 56.164062 124.203125 49.957031 125.714844 L 48.261719 126 C 46.382812 126 44.78125 125.242188 43.464844 123.730469 C 41.585938 122.027344 41.019531 119.945312 41.773438 117.488281 C 42.714844 113.890625 45.160156 109.730469 49.109375 105 L 43.183594 91.09375 C 41.492188 90.714844 39.984375 89.960938 38.667969 88.824219 L 37.539062 87.6875 L 35.28125 83.433594 L 21.457031 77.1875 C 16.753906 81.351562 12.613281 83.8125 9.042969 84.566406 L 7.628906 84.851562 C 5.5625 84.851562 3.960938 84.1875 2.832031 82.863281 C 0.953125 81.164062 0.292969 79.082031 0.859375 76.621094 C 2.363281 70.378906 6.5 63.945312 13.273438 57.324219 C 19.292969 51.269531 25.125 47.203125 30.769531 45.121094 L 33.308594 44.835938 C 35.378906 44.835938 36.976562 45.5 38.105469 46.824219 C 40.175781 49.09375 40.644531 51.554688 39.515625 54.203125 L 35.847656 61.296875 C 41.492188 60.539062 47.417969 56.945312 53.625 50.511719 L 63.78125 38.878906 C 70.554688 31.3125 80.242188 22.988281 92.847656 13.90625 M 82.6875 57.324219 C 90.398438 50.511719 98.769531 40.488281 107.800781 27.242188 C 116.265625 14.945312 120.027344 8.136719 119.085938 6.8125 L 118.523438 6.8125 C 115.890625 6.8125 108.835938 10.878906 97.359375 19.011719 C 84.945312 27.90625 75.351562 36.039062 68.578125 43.417969 L 58.703125 55.335938 C 50.425781 63.851562 42.148438 68.109375 33.871094 68.109375 C 30.296875 68.109375 26.816406 67.351562 23.433594 65.835938 L 27.382812 61.582031 C 30.015625 58.175781 31.992188 54.863281 33.308594 51.648438 C 28.417969 53.351562 23.335938 56.851562 18.070312 62.148438 C 12.238281 67.824219 8.757812 73.121094 7.628906 78.039062 C 10.453125 77.285156 14.683594 74.257812 20.328125 68.960938 L 42.621094 79.175781 L 42.054688 80.3125 L 42.335938 82.863281 L 43.464844 84 L 44.875 84.566406 L 47.417969 83.433594 L 57.011719 106.136719 C 51.929688 111.8125 49.015625 116.164062 48.261719 119.1875 C 53.152344 117.863281 58.421875 114.269531 64.0625 108.40625 C 69.332031 103.109375 72.8125 98 74.503906 93.082031 L 64.628906 99.039062 L 60.394531 103.011719 C 55.316406 91.09375 58.796875 79.269531 70.835938 67.539062 L 82.6875 57.324219 "/>
</g>
</svg>
