<?xml version="1.0" encoding="UTF-8"?>
<svg xmlns="http://www.w3.org/2000/svg" xmlns:xlink="http://www.w3.org/1999/xlink" width="128pt" height="135pt" viewBox="0 0 128 135" version="1.1">
<g id="surface1">
<path style=" stroke:none;fill-rule:nonzero;fill:rgb(100%,100%,100%);fill-opacity:1;" d="M 85.761719 36.996094 L 85.761719 62.308594 L 54.582031 62.308594 L 54.582031 25.636719 L 24.371094 25.636719 L 24.371094 7.789062 L 13.003906 7.789062 L 13.003906 25.636719 L 7.804688 25.636719 L 7.804688 127.210938 L 120.195312 127.210938 L 120.195312 36.996094 L 85.761719 36.996094 M 77.96875 54.519531 L 77.96875 36.996094 C 77.96875 34.832031 78.726562 32.992188 80.242188 31.476562 C 81.539062 29.964844 83.382812 29.207031 85.761719 29.207031 L 120.195312 29.207031 C 122.574219 29.207031 124.417969 29.964844 125.714844 31.476562 C 127.230469 32.992188 127.988281 34.832031 127.988281 36.996094 L 127.988281 127.210938 C 127.988281 129.375 127.230469 131.105469 125.714844 132.402344 C 124.417969 134.132812 122.574219 135 120.195312 135 L 7.804688 135 C 5.855469 135 4.015625 134.132812 2.285156 132.402344 C 0.769531 131.105469 0.0117188 129.375 0.0117188 127.210938 L 0.0117188 25.636719 C 0.0117188 21.960938 1.742188 19.472656 5.207031 18.171875 L 5.207031 7.789062 L 7.480469 2.597656 C 8.996094 0.867188 10.835938 0 13.003906 0 L 24.371094 0 C 26.539062 0 28.378906 0.867188 29.894531 2.597656 C 31.410156 4.109375 32.167969 5.839844 32.167969 7.789062 L 32.167969 17.847656 L 54.582031 17.847656 C 56.746094 17.847656 58.585938 18.605469 60.101562 20.121094 C 61.617188 21.632812 62.375 23.472656 62.375 25.636719 L 62.375 54.519531 L 77.96875 54.519531 "/>
</g>
</svg>
