<?xml version="1.0" encoding="UTF-8" standalone="no"?>
<svg
   xmlns:dc="http://purl.org/dc/elements/1.1/"
   xmlns:cc="http://creativecommons.org/ns#"
   xmlns:rdf="http://www.w3.org/1999/02/22-rdf-syntax-ns#"
   xmlns:svg="http://www.w3.org/2000/svg"
   xmlns="http://www.w3.org/2000/svg"
   xmlns:sodipodi="http://sodipodi.sourceforge.net/DTD/sodipodi-0.dtd"
   xmlns:inkscape="http://www.inkscape.org/namespaces/inkscape"
   width="127pt"
   height="98pt"
   viewBox="0 0 127 98"
   version="1.1"
   id="svg7"
   sodipodi:docname="low_rise.svg"
   inkscape:version="0.92.1 r15371">
  <metadata
     id="metadata13">
    <rdf:RDF>
      <cc:Work
         rdf:about="">
        <dc:format>image/svg+xml</dc:format>
        <dc:type
           rdf:resource="http://purl.org/dc/dcmitype/StillImage" />
      </cc:Work>
    </rdf:RDF>
  </metadata>
  <defs
     id="defs11" />
  <sodipodi:namedview
     pagecolor="#ffffff"
     bordercolor="#666666"
     borderopacity="1"
     objecttolerance="10"
     gridtolerance="10"
     guidetolerance="10"
     inkscape:pageopacity="0"
     inkscape:pageshadow="2"
     inkscape:window-width="836"
     inkscape:window-height="480"
     id="namedview9"
     showgrid="false"
     inkscape:zoom="1.8061224"
     inkscape:cx="84.666667"
     inkscape:cy="65.333333"
     inkscape:window-x="0"
     inkscape:window-y="0"
     inkscape:window-maximized="0"
     inkscape:current-layer="svg7" />
  <g
     id="surface1"
     style="fill:#00ff00">
    <path
       style="stroke:none;fill-rule:nonzero;fill:#00ff00;fill-opacity:1"
       d="M 69.460938 53.046875 L 69.460938 69.828125 L 18.1875 69.828125 L 18.1875 53.046875 L 69.460938 53.046875 M 115.371094 48.25 L 120.140625 48.25 L 120.140625 40.160156 L 6.859375 40.160156 L 6.859375 48.25 L 11.628906 48.25 L 11.628906 91.105469 L 50.679688 91.105469 L 50.679688 80.917969 L 76.019531 80.917969 L 76.019531 91.105469 L 115.371094 91.105469 L 115.371094 48.25 M 83.472656 53.046875 L 108.515625 53.046875 L 108.515625 69.828125 L 83.472656 69.828125 L 83.472656 53.046875 M 126.996094 33.265625 L 126.996094 54.542969 L 122.226562 54.542969 L 122.226562 98 L 4.773438 98 L 4.773438 54.542969 L 0.00390625 54.542969 L 0.00390625 33.265625 L 126.996094 33.265625 "
       id="path2" />
    <path
       style="stroke:none;fill-rule:nonzero;fill:#00ff00;fill-opacity:1"
       d="M 104.9375 4.496094 L 100.167969 4.496094 L 100.167969 0 L 106.726562 0 L 106.726562 40.160156 L 100.167969 40.160156 L 100.167969 21.578125 L 104.9375 21.578125 L 104.9375 14.683594 L 100.167969 14.683594 L 100.167969 11.386719 L 104.9375 11.386719 L 104.9375 4.496094 "
       id="path4" />
  </g>
</svg>
