<?xml version="1.0" encoding="UTF-8" standalone="no"?>
<svg
   xmlns:dc="http://purl.org/dc/elements/1.1/"
   xmlns:cc="http://creativecommons.org/ns#"
   xmlns:rdf="http://www.w3.org/1999/02/22-rdf-syntax-ns#"
   xmlns:svg="http://www.w3.org/2000/svg"
   xmlns="http://www.w3.org/2000/svg"
   xmlns:sodipodi="http://sodipodi.sourceforge.net/DTD/sodipodi-0.dtd"
   xmlns:inkscape="http://www.inkscape.org/namespaces/inkscape"
   width="128pt"
   height="128pt"
   viewBox="0 0 128 128"
   version="1.1"
   id="svg5"
   sodipodi:docname="military-base.svg"
   inkscape:version="0.92.1 r15371">
  <metadata
     id="metadata11">
    <rdf:RDF>
      <cc:Work
         rdf:about="">
        <dc:format>image/svg+xml</dc:format>
        <dc:type
           rdf:resource="http://purl.org/dc/dcmitype/StillImage" />
      </cc:Work>
    </rdf:RDF>
  </metadata>
  <defs
     id="defs9" />
  <sodipodi:namedview
     pagecolor="#ffffff"
     bordercolor="#666666"
     borderopacity="1"
     objecttolerance="10"
     gridtolerance="10"
     guidetolerance="10"
     inkscape:pageopacity="0"
     inkscape:pageshadow="2"
     inkscape:window-width="836"
     inkscape:window-height="480"
     id="namedview7"
     showgrid="false"
     inkscape:zoom="1.3828125"
     inkscape:cx="85.333333"
     inkscape:cy="85.333333"
     inkscape:window-x="0"
     inkscape:window-y="0"
     inkscape:window-maximized="0"
     inkscape:current-layer="svg5" />
  <g
     id="surface1"
     style="fill:#00ff00">
    <path
       style="stroke:none;fill-rule:nonzero;fill:#00ff00;fill-opacity:1"
       d="M 8.359375 52.757812 L 8.070312 52.757812 L 6.917969 64 C 6.917969 72.070312 8.550781 79.855469 11.820312 87.351562 C 15.085938 94.269531 19.605469 100.421875 25.371094 105.800781 L 36.035156 73.226562 L 8.359375 52.757812 M 11.820312 40.359375 L 46.703125 40.359375 L 57.371094 7.496094 L 57.65625 7.207031 C 47.472656 8.359375 38.246094 11.914062 29.980469 17.875 C 22.101562 23.832031 16.046875 31.328125 11.820312 40.359375 M 64 121.082031 C 73.609375 121.082031 82.929688 118.582031 91.964844 113.585938 L 64 93.40625 L 36.035156 113.585938 C 45.070312 118.582031 54.390625 121.082031 64 121.082031 M 116.179688 87.351562 C 119.449219 79.855469 121.082031 72.070312 121.082031 64 L 119.929688 52.757812 L 91.964844 73.226562 L 102.628906 105.800781 C 108.394531 100.421875 112.914062 94.269531 116.179688 87.351562 M 64 0 C 78.796875 0 91.964844 4.613281 103.496094 13.835938 C 115.027344 22.679688 122.523438 34.210938 125.980469 48.433594 L 128 64 C 128 73.992188 125.789062 83.410156 121.371094 92.253906 C 116.949219 100.902344 110.992188 108.203125 103.496094 114.164062 L 98.019531 117.910156 C 87.640625 124.636719 76.300781 128 64 128 C 51.699219 128 40.359375 124.636719 29.980469 117.910156 L 23.0625 113.007812 C 15.953125 107.050781 10.378906 99.84375 6.34375 91.386719 C 2.113281 82.738281 0 73.609375 0 64 L 2.019531 48.433594 L 4.613281 40.359375 C 9.226562 28.445312 16.914062 18.738281 27.675781 11.242188 C 38.628906 3.746094 50.738281 0 64 0 M 76.394531 47.277344 L 64 9.800781 L 51.605469 47.277344 L 12.394531 47.277344 L 44.394531 70.34375 L 32 108.109375 L 64 84.757812 L 96 108.109375 L 83.605469 70.34375 L 115.605469 47.277344 L 76.394531 47.277344 M 81.296875 40.359375 L 116.179688 40.359375 C 111.953125 31.328125 105.898438 23.832031 98.019531 17.875 C 89.753906 11.914062 80.527344 8.359375 70.34375 7.207031 L 70.628906 7.496094 L 81.296875 40.359375 "
       id="path2" />
  </g>
</svg>
