<?xml version="1.0" encoding="UTF-8" standalone="no"?>
<svg
   xmlns:dc="http://purl.org/dc/elements/1.1/"
   xmlns:cc="http://creativecommons.org/ns#"
   xmlns:rdf="http://www.w3.org/1999/02/22-rdf-syntax-ns#"
   xmlns:svg="http://www.w3.org/2000/svg"
   xmlns="http://www.w3.org/2000/svg"
   xmlns:sodipodi="http://sodipodi.sourceforge.net/DTD/sodipodi-0.dtd"
   xmlns:inkscape="http://www.inkscape.org/namespaces/inkscape"
   width="128pt"
   height="128pt"
   viewBox="0 0 128 128"
   version="1.1"
   id="svg5"
   sodipodi:docname="musum.svg"
   inkscape:version="0.92.1 r15371">
  <metadata
     id="metadata11">
    <rdf:RDF>
      <cc:Work
         rdf:about="">
        <dc:format>image/svg+xml</dc:format>
        <dc:type
           rdf:resource="http://purl.org/dc/dcmitype/StillImage" />
      </cc:Work>
    </rdf:RDF>
  </metadata>
  <defs
     id="defs9" />
  <sodipodi:namedview
     pagecolor="#ffffff"
     bordercolor="#666666"
     borderopacity="1"
     objecttolerance="10"
     gridtolerance="10"
     guidetolerance="10"
     inkscape:pageopacity="0"
     inkscape:pageshadow="2"
     inkscape:window-width="836"
     inkscape:window-height="480"
     id="namedview7"
     showgrid="false"
     inkscape:zoom="1.3828125"
     inkscape:cx="85.333333"
     inkscape:cy="85.333333"
     inkscape:window-x="0"
     inkscape:window-y="0"
     inkscape:window-maximized="0"
     inkscape:current-layer="surface1" />
  <g
     id="surface1">
    <path
       style="fill:#00ff00;fill-opacity:1;fill-rule:nonzero;stroke:none"
       d="m 116.64844,37.203125 v -2.839844 h 3.78515 V 30.265625 L 63.683594,7.566406 7.566406,30.265625 v 4.097656 h 3.152344 v 2.839844 h 11.035156 v 67.781255 h -8.511718 v 5.67578 H 10.71875 v 5.04297 H 7.566406 v 4.73046 H 120.43359 v -4.73046 h -3.78515 v -5.04297 h -2.20703 v -5.67578 h -8.19532 V 37.203125 h 10.40235 M 66.523438,0.316406 123.26953,23.328125 C 126.42188,24.589844 128,26.902344 128,30.265625 v 4.097656 c 0,3.363281 -1.57812,5.675781 -4.73047,6.9375 -1.46875,2.3125 -3.67578,3.46875 -6.62109,3.46875 h -2.83594 v 52.648438 h 0.62891 c 1.89453,0 3.57422,0.738281 5.04687,2.207031 l 2.52344,5.35938 2.20312,4.09765 c 2.52344,1.6836 3.78516,3.89063 3.78516,6.6211 v 4.73046 l -2.20703,5.35938 L 120.43359,128 H 7.566406 L 2.207031,125.79297 0,120.43359 v -4.73046 c 0,-2.73047 1.050781,-4.83204 3.152344,-6.30469 l 2.523437,-4.41406 c 0,-2.10157 0.734375,-3.88672 2.207031,-5.35938 1.46875,-1.46875 3.257813,-2.207031 5.359376,-2.207031 H 14.1875 V 44.769531 h -3.46875 c -2.730469,0 -4.9375,-1.261719 -6.621094,-3.785156 C 1.367188,39.722656 0,37.515625 0,34.363281 v -4.097656 c 0,-3.363281 1.578125,-5.675781 4.730469,-6.9375 L 60.847656,0.316406 63.683594,0 66.523438,0.316406"
       id="path2"
       inkscape:connector-curvature="0" />
  </g>
</svg>
