<?xml version="1.0" encoding="UTF-8" standalone="no"?>
<svg
   xmlns:dc="http://purl.org/dc/elements/1.1/"
   xmlns:cc="http://creativecommons.org/ns#"
   xmlns:rdf="http://www.w3.org/1999/02/22-rdf-syntax-ns#"
   xmlns:svg="http://www.w3.org/2000/svg"
   xmlns="http://www.w3.org/2000/svg"
   xmlns:sodipodi="http://sodipodi.sourceforge.net/DTD/sodipodi-0.dtd"
   xmlns:inkscape="http://www.inkscape.org/namespaces/inkscape"
   width="128pt"
   height="128pt"
   viewBox="0 0 128 128"
   version="1.1"
   id="svg5"
   sodipodi:docname="radioactive-area.svg"
   inkscape:version="0.92.1 r15371">
  <metadata
     id="metadata11">
    <rdf:RDF>
      <cc:Work
         rdf:about="">
        <dc:format>image/svg+xml</dc:format>
        <dc:type
           rdf:resource="http://purl.org/dc/dcmitype/StillImage" />
      </cc:Work>
    </rdf:RDF>
  </metadata>
  <defs
     id="defs9" />
  <sodipodi:namedview
     pagecolor="#ffffff"
     bordercolor="#666666"
     borderopacity="1"
     objecttolerance="10"
     gridtolerance="10"
     guidetolerance="10"
     inkscape:pageopacity="0"
     inkscape:pageshadow="2"
     inkscape:window-width="836"
     inkscape:window-height="480"
     id="namedview7"
     showgrid="false"
     inkscape:zoom="1.3828125"
     inkscape:cx="85.333333"
     inkscape:cy="85.333333"
     inkscape:window-x="0"
     inkscape:window-y="0"
     inkscape:window-maximized="0"
     inkscape:current-layer="svg5" />
  <g
     id="surface1"
     style="fill:#00ff00">
    <path
       style="stroke:none;fill-rule:nonzero;fill:#00ff00;fill-opacity:1"
       d="M 21.980469 61.089844 L 46.222656 61.089844 C 46.867188 57.210938 48.699219 53.980469 51.71875 51.394531 L 39.109375 30.0625 C 28.550781 37.816406 22.839844 48.160156 21.980469 61.089844 M 80.808594 101.816406 L 69.496094 82.425781 C 66.046875 83.5 62.382812 83.5 58.503906 82.425781 L 47.191406 101.816406 C 58.398438 106.773438 69.601562 106.773438 80.808594 101.816406 M 64 0 C 81.671875 0 96.753906 6.25 109.253906 18.746094 C 121.75 31.246094 128 46.328125 128 64 C 128 81.671875 121.75 96.644531 109.253906 108.929688 C 96.753906 121.644531 81.671875 128 64 128 C 46.328125 128 31.246094 121.644531 18.746094 108.929688 C 6.25 96.644531 0 81.671875 0 64 C 0 46.328125 6.25 31.246094 18.746094 18.746094 C 31.246094 6.25 46.328125 0 64 0 M 103.433594 24.566406 C 92.445312 13.792969 79.300781 8.402344 64 8.402344 C 48.699219 8.402344 35.554688 13.792969 24.566406 24.566406 C 13.792969 35.554688 8.402344 48.699219 8.402344 64 C 8.402344 79.300781 13.792969 92.335938 24.566406 103.109375 C 35.554688 114.101562 48.699219 119.597656 64 119.597656 C 79.300781 119.597656 92.445312 114.101562 103.433594 103.109375 C 114.207031 92.335938 119.597656 79.300781 119.597656 64 C 119.597656 48.699219 114.207031 35.554688 103.433594 24.566406 M 67.554688 61.414062 L 64 59.796875 L 60.445312 61.414062 L 58.828125 64.96875 L 60.445312 68.203125 L 64 69.816406 L 67.554688 68.203125 L 69.171875 64.96875 L 67.554688 61.414062 M 76.28125 51.394531 C 79.300781 53.980469 81.238281 57.210938 82.101562 61.089844 L 106.019531 61.089844 C 105.375 48.160156 99.664062 37.816406 88.890625 30.0625 L 76.28125 51.394531 M 86.304688 19.070312 L 89.535156 21.011719 C 97.292969 25.535156 103.21875 31.570312 107.3125 39.109375 C 111.621094 46.652344 113.777344 54.734375 113.777344 63.355469 L 113.777344 68.847656 L 76.28125 68.847656 L 73.375 73.695312 L 91.476562 105.050781 L 87.917969 106.988281 C 80.59375 111.085938 72.621094 113.132812 64 113.132812 C 55.378906 113.132812 47.40625 111.085938 40.082031 106.988281 L 36.523438 105.050781 L 54.625 73.695312 L 52.039062 68.847656 L 14.546875 68.847656 L 14.222656 63.355469 C 14.222656 54.734375 16.484375 46.652344 21.011719 39.109375 C 25.320312 31.570312 31.136719 25.535156 38.464844 21.011719 L 42.019531 19.070312 L 61.414062 52.363281 L 64 52.039062 L 66.910156 52.363281 L 86.304688 19.070312 "
       id="path2" />
  </g>
</svg>
