<?xml version="1.0" encoding="UTF-8" standalone="no"?>
<svg
   xmlns:dc="http://purl.org/dc/elements/1.1/"
   xmlns:cc="http://creativecommons.org/ns#"
   xmlns:rdf="http://www.w3.org/1999/02/22-rdf-syntax-ns#"
   xmlns:svg="http://www.w3.org/2000/svg"
   xmlns="http://www.w3.org/2000/svg"
   xmlns:sodipodi="http://sodipodi.sourceforge.net/DTD/sodipodi-0.dtd"
   xmlns:inkscape="http://www.inkscape.org/namespaces/inkscape"
   width="128pt"
   height="91pt"
   viewBox="0 0 128 91"
   version="1.1"
   id="svg5"
   sodipodi:docname="sentinel.svg"
   inkscape:version="0.92.1 r15371">
  <metadata
     id="metadata11">
    <rdf:RDF>
      <cc:Work
         rdf:about="">
        <dc:format>image/svg+xml</dc:format>
        <dc:type
           rdf:resource="http://purl.org/dc/dcmitype/StillImage" />
      </cc:Work>
    </rdf:RDF>
  </metadata>
  <defs
     id="defs9" />
  <sodipodi:namedview
     pagecolor="#ffffff"
     bordercolor="#666666"
     borderopacity="1"
     objecttolerance="10"
     gridtolerance="10"
     guidetolerance="10"
     inkscape:pageopacity="0"
     inkscape:pageshadow="2"
     inkscape:window-width="836"
     inkscape:window-height="480"
     id="namedview7"
     showgrid="false"
     inkscape:zoom="1.9450549"
     inkscape:cx="85.333333"
     inkscape:cy="60.666667"
     inkscape:window-x="0"
     inkscape:window-y="0"
     inkscape:window-maximized="0"
     inkscape:current-layer="svg5" />
  <g
     id="surface1"
     style="fill:#00ff00">
    <path
       style="stroke:none;fill-rule:nonzero;fill:#00ff00;fill-opacity:1"
       d="M 77.402344 68.992188 L 77.402344 84.351562 L 117.15625 84.351562 L 81.617188 6.046875 L 46.078125 6.046875 L 10.84375 84.351562 L 50.597656 84.351562 L 50.597656 68.992188 L 51.800781 67.484375 L 76.199219 67.484375 L 77.402344 68.992188 M 128 90.976562 L 71.078125 90.976562 L 71.078125 73.8125 L 57.222656 73.8125 L 57.222656 90.976562 L 0 90.976562 L 40.660156 3.035156 L 42.464844 0.0234375 L 85.234375 0.0234375 L 128 90.976562 M 63.847656 10.5625 L 67.765625 12.671875 L 69.269531 17.792969 L 67.765625 23.515625 C 66.558594 24.917969 65.253906 25.621094 63.847656 25.621094 L 60.535156 23.515625 L 59.03125 17.792969 L 60.535156 12.671875 L 63.847656 10.5625 "
       id="path2" />
  </g>
</svg>
