<?xml version="1.0" encoding="UTF-8" standalone="no"?>
<svg
   xmlns:dc="http://purl.org/dc/elements/1.1/"
   xmlns:cc="http://creativecommons.org/ns#"
   xmlns:rdf="http://www.w3.org/1999/02/22-rdf-syntax-ns#"
   xmlns:svg="http://www.w3.org/2000/svg"
   xmlns="http://www.w3.org/2000/svg"
   xmlns:sodipodi="http://sodipodi.sourceforge.net/DTD/sodipodi-0.dtd"
   xmlns:inkscape="http://www.inkscape.org/namespaces/inkscape"
   width="128pt"
   height="187pt"
   viewBox="0 0 128 187"
   version="1.1"
   id="svg5"
   sodipodi:docname="skyscraper.svg"
   inkscape:version="0.92.1 r15371">
  <metadata
     id="metadata11">
    <rdf:RDF>
      <cc:Work
         rdf:about="">
        <dc:format>image/svg+xml</dc:format>
        <dc:type
           rdf:resource="http://purl.org/dc/dcmitype/StillImage" />
      </cc:Work>
    </rdf:RDF>
  </metadata>
  <defs
     id="defs9" />
  <sodipodi:namedview
     pagecolor="#ffffff"
     bordercolor="#666666"
     borderopacity="1"
     objecttolerance="10"
     gridtolerance="10"
     guidetolerance="10"
     inkscape:pageopacity="0"
     inkscape:pageshadow="2"
     inkscape:window-width="836"
     inkscape:window-height="480"
     id="namedview7"
     showgrid="false"
     inkscape:zoom="0.94652406"
     inkscape:cx="85.333333"
     inkscape:cy="124.66667"
     inkscape:window-x="0"
     inkscape:window-y="0"
     inkscape:window-maximized="0"
     inkscape:current-layer="svg5" />
  <g
     id="surface1"
     style="fill:#00ff00">
    <path
       style="stroke:none;fill-rule:nonzero;fill:#00ff00;fill-opacity:1"
       d="M 93.605469 101.085938 L 93.605469 118.429688 L 53.550781 118.429688 L 53.550781 101.085938 L 93.605469 101.085938 M 93.605469 69.4375 L 93.605469 87.648438 L 53.550781 87.648438 L 53.550781 69.4375 L 93.605469 69.4375 M 91.429688 17.84375 L 91.429688 28.25 L 58.339844 28.25 L 58.339844 34.753906 L 27.863281 34.753906 L 27.863281 43.421875 L 58.339844 43.421875 L 58.339844 60.765625 L 24.382812 60.765625 L 24.382812 69.4375 L 40.925781 69.4375 L 40.925781 119.296875 L 10.011719 119.296875 L 10.011719 176.960938 L 117.988281 176.960938 L 117.988281 12.207031 L 91.429688 17.84375 M 81.851562 10.039062 L 128 0.0664062 L 128 186.933594 L 0 186.933594 L 0 109.324219 L 30.910156 109.324219 L 30.910156 79.84375 L 14.367188 79.84375 L 14.367188 51.226562 L 17.851562 51.226562 L 17.851562 24.347656 L 48.328125 24.347656 L 48.328125 17.84375 L 81.851562 17.84375 L 81.851562 10.039062 "
       id="path2" />
  </g>
</svg>
