<?xml version="1.0" encoding="UTF-8" standalone="no"?>
<svg
   xmlns:dc="http://purl.org/dc/elements/1.1/"
   xmlns:cc="http://creativecommons.org/ns#"
   xmlns:rdf="http://www.w3.org/1999/02/22-rdf-syntax-ns#"
   xmlns:svg="http://www.w3.org/2000/svg"
   xmlns="http://www.w3.org/2000/svg"
   xmlns:sodipodi="http://sodipodi.sourceforge.net/DTD/sodipodi-0.dtd"
   xmlns:inkscape="http://www.inkscape.org/namespaces/inkscape"
   width="128pt"
   height="123pt"
   viewBox="0 0 128 123"
   version="1.1"
   id="svg5"
   sodipodi:docname="swans-pond.svg"
   inkscape:version="0.92.1 r15371">
  <metadata
     id="metadata11">
    <rdf:RDF>
      <cc:Work
         rdf:about="">
        <dc:format>image/svg+xml</dc:format>
        <dc:type
           rdf:resource="http://purl.org/dc/dcmitype/StillImage" />
      </cc:Work>
    </rdf:RDF>
  </metadata>
  <defs
     id="defs9" />
  <sodipodi:namedview
     pagecolor="#ffffff"
     bordercolor="#666666"
     borderopacity="1"
     objecttolerance="10"
     gridtolerance="10"
     guidetolerance="10"
     inkscape:pageopacity="0"
     inkscape:pageshadow="2"
     inkscape:window-width="836"
     inkscape:window-height="480"
     id="namedview7"
     showgrid="false"
     inkscape:zoom="1.4390244"
     inkscape:cx="85.333333"
     inkscape:cy="82"
     inkscape:window-x="0"
     inkscape:window-y="0"
     inkscape:window-maximized="0"
     inkscape:current-layer="svg5" />
  <g
     id="surface1"
     style="fill:#00ff00">
    <path
       style="fill:#00ff00;fill-opacity:1;fill-rule:nonzero;stroke:none"
       d="m 68.113281,47.15625 -2.269531,-1.136719 -1.703125,0.566407 c 1.136719,-1.703126 0.945313,-3.125 -0.566406,-4.261719 h -0.285157 c -3.402343,0 -8.886718,2.652343 -16.453124,7.957031 C 37.382812,56.71875 31.707031,63.726562 29.816406,71.300781 29.0625,74.140625 26.980469,75.5625 23.578125,75.5625 l -6.527344,-2.558594 c -1.890625,-2.082031 -2.457031,-4.734375 -1.699219,-7.953125 1.511719,-3.976562 4.726563,-7.667969 9.644532,-11.078125 L 45.136719,38.066406 C 50.621094,32.761719 53.550781,27.839844 53.929688,23.292969 54.308594,19.316406 52.699219,15.625 49.105469,12.214844 45.703125,8.617188 41.257812,6.816406 35.773438,6.816406 L 26.980469,8.523438 C 24.144531,9.46875 21.96875,10.792969 20.457031,12.5 l -1.136719,3.125 c -0.566406,2.082031 -0.28125,3.503906 0.851563,4.257812 1.136719,0.757813 0.851563,2.464844 -0.851563,5.113282 l -1.699218,4.546875 h 0.28125 c 1.511718,0 4.445312,-2.9375 8.792968,-8.804688 l 3.972657,-3.125 c 3.027343,-2.085937 5.863281,-3.125 8.511719,-3.125 2.078124,0 3.96875,0.757813 5.671874,2.273438 2.082032,2.082031 2.933594,4.070312 2.554688,5.964843 -0.191406,3.21875 -3.027344,7.289063 -8.511719,12.214844 -3.59375,3.21875 -9.550781,7.761719 -17.871093,13.632813 -4.917969,3.410156 -8.511719,7.292969 -10.78125,11.648437 -2.269532,4.355469 -3.023438,8.898438 -2.269532,13.632813 1.136719,6.441406 4.730469,12.214843 10.78125,17.328125 l 7.375,6.25 c -3.402344,1.136718 -6.144531,3.218746 -8.226562,6.249996 l -0.566406,1.42188 -3.121094,2.55469 h -3.6875 v 8.52343 h 3.6875 c 4.726562,0 8.605468,-2.36718 11.632812,-7.10156 l 0.28125,-0.57031 c 1.136719,-1.89453 2.269532,-2.93359 3.40625,-3.125 l 4.253906,3.97656 c 4.347657,4.54688 8.132813,6.82031 11.347657,6.82031 4.726562,0 8.507812,-2.36718 11.347656,-7.10156 l 0.28125,-0.57031 3.6875,-3.125 4.539063,3.97656 4.824218,4.54688 c 2.078125,1.51562 4.160156,2.27343 6.238282,2.27343 4.917968,0 8.699218,-2.36718 11.347656,-7.10156 l 0.285156,-0.57031 1.132812,-1.41797 c 0.757813,-0.94922 1.609376,-1.51562 2.554688,-1.70703 l 4.253906,3.97656 5.105474,4.54688 c 1.89062,1.51562 3.97265,2.27343 6.24218,2.27343 h 3.40235 v -8.52343 h -3.11719 l -4.25781,-3.97657 -5.957035,-4.546871 3.406255,-2.269531 3.40234,-3.410157 C 109.53125,88.15625 114.91797,79.066406 120.02734,66.1875 L 87.121094,71.300781 84,68.175781 83.714844,67.324219 81.164062,66.1875 79.460938,66.753906 c 1.324218,-1.515625 1.417968,-2.933594 0.28125,-4.257812 -0.566407,-0.949219 -1.417969,-1.421875 -2.550782,-1.421875 l -1.136718,0.285156 h -0.28125 C 76.90625,60.222656 77,58.894531 76.054688,57.382812 l -2.550782,-1.421874 -1.417968,0.285156 v -0.285156 c 1.324218,-1.136719 1.324218,-2.367188 0,-3.691407 l -2.269532,-1.421875 -1.417968,0.566406 v -0.28125 C 69.53125,49.617188 69.4375,48.289062 68.113281,47.15625 m -0.285156,-9.945312 2.554687,3.125 2.835938,2.273437 1.988281,2.839844 2.550781,2.558593 1.417969,2.839844 2.554688,2.554688 1.417969,2.84375 2.269531,2.269531 1.132812,2.558594 2.269531,1.703125 0.570313,1.136718 29.500005,-4.542968 h 1.13671 c 2.26954,0 4.0625,0.851562 5.38672,2.554687 1.70313,2.082031 1.98828,4.355469 0.85157,6.816407 l -5.67188,12.214843 c -4.16016,7.765625 -8.22656,13.636719 -12.19922,17.613281 l -0.5664,0.566407 1.70312,1.707031 h 0.84766 c 2.08203,0 3.6914,0.66016 4.82422,1.98828 l 1.98437,4.82813 v 8.52343 l -1.98437,4.82813 L 110.37891,123 h -3.40235 c -4.91797,0 -10.023435,-2.65234 -15.32031,-7.95312 C 87.308594,120.34766 82.109375,123 76.054688,123 71.140625,123 66.03125,120.34766 60.738281,115.04688 56.765625,120.34766 51.566406,123 45.136719,123 40.21875,123 35.207031,120.34766 30.101562,115.04688 25.941406,120.34766 20.644531,123 14.214844,123 h -3.6875 C 8.824219,123 7.21875,122.33594 5.703125,121.01172 4.382812,119.6875 3.71875,118.07813 3.71875,116.18359 v -8.52343 c 0,-1.70313 0.664062,-3.3125 1.984375,-4.82813 1.515625,-1.32812 3.121094,-1.98828 4.824219,-1.98828 h 1.136718 l 0.847657,-0.851562 2.269531,-3.125 L 14.5,96.582031 C 7.125,90.523438 2.679688,83.230469 1.167969,74.710938 0.410156,68.839844 1.355469,63.15625 4.003906,57.664062 6.839844,51.984375 11.285156,47.058594 17.335938,42.894531 32.085938,32.667969 39.839844,25.851562 40.597656,22.441406 L 40.03125,21.589844 39.179688,21.304688 c -1.890626,0 -4.351563,1.324218 -7.375,3.976562 -5.484376,7.386719 -10.121094,11.078125 -13.902344,11.078125 l -2.550782,-0.28125 c -2.082031,-0.949219 -3.59375,-2.558594 -4.539062,-4.832031 -0.757812,-2.460938 0,-5.492188 2.269531,-9.089844 l 0.28125,-0.285156 C 11.472656,18.273438 11.945312,14.015625 14.78125,9.089844 L 15.632812,7.667969 C 18.09375,5.207031 21.117188,3.3125 24.710938,1.988281 L 35.773438,0 c 7.1875,0 13.238281,2.367188 18.15625,7.101562 5.105468,4.925782 7.375,10.511719 6.808593,16.761719 -0.378906,4.921875 -2.460937,9.65625 -6.242187,14.203125 l 8.792968,-2.558594 4.539063,1.703126"
       id="path2"
       inkscape:connector-curvature="0" />
  </g>
</svg>
