<?xml version="1.0" encoding="UTF-8" standalone="no"?>
<svg
   xmlns:dc="http://purl.org/dc/elements/1.1/"
   xmlns:cc="http://creativecommons.org/ns#"
   xmlns:rdf="http://www.w3.org/1999/02/22-rdf-syntax-ns#"
   xmlns:svg="http://www.w3.org/2000/svg"
   xmlns="http://www.w3.org/2000/svg"
   xmlns:sodipodi="http://sodipodi.sourceforge.net/DTD/sodipodi-0.dtd"
   xmlns:inkscape="http://www.inkscape.org/namespaces/inkscape"
   width="127pt"
   height="120pt"
   viewBox="0 0 127 120"
   version="1.1"
   id="svg5"
   sodipodi:docname="uss_constitution.svg"
   inkscape:version="0.92.1 r15371">
  <metadata
     id="metadata11">
    <rdf:RDF>
      <cc:Work
         rdf:about="">
        <dc:format>image/svg+xml</dc:format>
        <dc:type
           rdf:resource="http://purl.org/dc/dcmitype/StillImage" />
      </cc:Work>
    </rdf:RDF>
  </metadata>
  <defs
     id="defs9" />
  <sodipodi:namedview
     pagecolor="#ffffff"
     bordercolor="#666666"
     borderopacity="1"
     objecttolerance="10"
     gridtolerance="10"
     guidetolerance="10"
     inkscape:pageopacity="0"
     inkscape:pageshadow="2"
     inkscape:window-width="836"
     inkscape:window-height="480"
     id="namedview7"
     showgrid="false"
     inkscape:zoom="1.475"
     inkscape:cx="84.666667"
     inkscape:cy="80"
     inkscape:window-x="0"
     inkscape:window-y="0"
     inkscape:window-maximized="0"
     inkscape:current-layer="svg5" />
  <g
     id="surface1"
     style="fill:#00ff00">
    <path
       style="stroke:none;fill-rule:nonzero;fill:#00ff00;fill-opacity:1"
       d="M 7.625 89.617188 L 40.183594 89.617188 L 40.183594 22.128906 L 7.625 89.617188 M 83.296875 112.898438 L 95.324219 100.523438 L 12.90625 100.523438 L 20.238281 112.898438 L 83.296875 112.898438 M 80.070312 89.617188 L 118.789062 89.617188 L 69.804688 38.632812 L 80.070312 89.617188 M 62.765625 39.8125 L 62.765625 38.042969 L 58.074219 12.699219 L 46.34375 6.804688 L 46.34375 89.617188 L 72.738281 89.617188 L 62.765625 39.8125 M 64.527344 11.519531 L 68.339844 31.855469 L 69.511719 31.5625 C 71.46875 31.5625 73.03125 32.25 74.207031 33.625 L 124.066406 84.902344 C 126.023438 87.0625 126.414062 89.421875 125.238281 91.976562 C 124.066406 94.921875 121.917969 96.394531 118.789062 96.394531 L 100.308594 96.394531 L 101.484375 98.164062 C 102.65625 100.71875 102.265625 103.074219 100.308594 105.238281 L 87.992188 117.910156 C 86.816406 119.285156 85.253906 119.972656 83.296875 119.972656 L 20.238281 119.972656 C 17.695312 119.972656 15.742188 118.890625 14.371094 116.730469 L 7.332031 104.058594 C 5.769531 101.699219 5.769531 99.539062 7.332031 97.574219 L 8.210938 96.394531 L 7.625 96.394531 C 5.28125 96.394531 3.324219 95.316406 1.761719 93.15625 C 0.585938 90.992188 0.488281 88.832031 1.464844 86.671875 L 34.316406 18.886719 C 35.292969 16.335938 37.152344 15.058594 39.890625 15.058594 L 39.890625 6.804688 C 39.890625 4.25 40.964844 2.285156 43.117188 0.910156 L 46.34375 0.0273438 L 49.273438 0.617188 L 61.007812 6.511719 L 64.527344 11.519531 "
       id="path2" />
  </g>
</svg>
